<svg width="701" height="244" viewBox="0 0 701 244" fill="none" xmlns="http://www.w3.org/2000/svg">
<path d="M6.8 0.499999L9.2 0.499999L15.5 18L12.95 18L11.775 14.6L4.2 14.6L3.05 18L0.499998 18L6.8 0.499999ZM11.025 12.4L8.325 4.525L8 2.65L7.675 4.525L4.95 12.4L11.025 12.4ZM22.9912 0.5L29.4912 0.5C30.6079 0.5 31.5745 0.691667 32.3912 1.075C33.2245 1.45833 33.8579 1.98333 34.2912 2.65C34.7412 3.31667 34.9662 4.06667 34.9662 4.9C34.9662 6.53333 34.2079 7.775 32.6912 8.625C33.5745 8.875 34.3412 9.38333 34.9912 10.15C35.6412 10.9167 35.9662 11.8417 35.9662 12.925C35.9662 14.475 35.4162 15.7083 34.3162 16.625C33.2329 17.5417 31.7579 18 29.8912 18L22.9912 18L22.9912 0.5ZM29.7162 7.9C31.6995 7.9 32.6912 7.03333 32.6912 5.3C32.6912 3.56667 31.6995 2.7 29.7162 2.7L25.3912 2.7L25.3912 7.9L29.7162 7.9ZM30.5412 15.8C31.5245 15.8 32.2912 15.5583 32.8412 15.075C33.4079 14.575 33.6912 13.8667 33.6912 12.95C33.6912 12.0333 33.4079 11.3333 32.8412 10.85C32.2912 10.35 31.5245 10.1 30.5412 10.1L25.3912 10.1L25.3912 15.8L30.5412 15.8ZM52.0662 18.25C50.4829 18.25 49.0245 17.875 47.6912 17.125C46.3745 16.3583 45.3245 15.2917 44.5412 13.925C43.7579 12.5583 43.3662 11 43.3662 9.25C43.3662 7.5 43.7579 5.94167 44.5412 4.575C45.3245 3.20834 46.3745 2.15 47.6912 1.4C49.0245 0.633335 50.4829 0.250002 52.0662 0.250002C54.1329 0.250002 55.8579 0.800002 57.2412 1.9C58.6245 3 59.4995 4.45834 59.8662 6.275L57.4662 6.275C57.1162 5.075 56.4662 4.14167 55.5162 3.475C54.5662 2.79167 53.4079 2.45 52.0412 2.45C50.7912 2.45 49.6912 2.74167 48.7412 3.325C47.8079 3.90833 47.0829 4.71667 46.5662 5.75C46.0662 6.78334 45.8162 7.95 45.8162 9.25C45.8162 10.55 46.0662 11.7167 46.5662 12.75C47.0829 13.7833 47.8079 14.5917 48.7412 15.175C49.6912 15.7583 50.7912 16.05 52.0412 16.05C53.4079 16.05 54.5662 15.7167 55.5162 15.05C56.4662 14.3667 57.1162 13.425 57.4662 12.225L59.8662 12.225C59.6162 13.425 59.1412 14.4833 58.4412 15.4C57.7412 16.3 56.8412 17 55.7412 17.5C54.6579 18 53.4329 18.25 52.0662 18.25ZM68.1104 0.500002L73.1604 0.500003C75.0437 0.500003 76.6687 0.86667 78.0354 1.6C79.4187 2.31667 80.477 3.33334 81.2104 4.65C81.9437 5.96667 82.3104 7.5 82.3104 9.25C82.3104 11 81.9437 12.5333 81.2104 13.85C80.477 15.1667 79.4187 16.1917 78.0354 16.925C76.6687 17.6417 75.0437 18 73.1604 18L68.1103 18L68.1104 0.500002ZM73.0604 15.8C75.1937 15.8 76.8687 15.2667 78.0854 14.2C79.302 13.1167 79.9104 11.4667 79.9104 9.25C79.9104 7.03334 79.302 5.39167 78.0854 4.325C76.8687 3.24167 75.1937 2.7 73.0604 2.7L70.5104 2.7L70.5104 15.8L73.0604 15.8ZM90.5723 0.500004L101.047 0.500004L101.047 2.7L92.9723 2.7L92.9723 8.15L100.372 8.15L100.372 10.35L92.9723 10.35L92.9723 15.8L101.322 15.8L101.322 18L90.5723 18L90.5723 0.500004ZM109.714 0.500005L120.489 0.500005L120.489 2.70001L112.114 2.7L112.114 8.40001L119.839 8.40001L119.839 10.6L112.114 10.6L112.114 18L109.714 18L109.714 0.500005ZM136.347 18.25C134.764 18.25 133.306 17.875 131.972 17.125C130.656 16.3583 129.606 15.2917 128.822 13.925C128.039 12.5583 127.647 11 127.647 9.25001C127.647 7.50001 128.039 5.94167 128.822 4.57501C129.606 3.20834 130.656 2.15001 131.972 1.40001C133.306 0.633339 134.764 0.250006 136.347 0.250006C137.681 0.250006 138.889 0.491673 139.972 0.975006C141.056 1.45834 141.939 2.13334 142.622 3.00001C143.322 3.86667 143.781 4.86667 143.997 6.00001L141.597 6.00001C141.231 4.83334 140.606 3.95001 139.722 3.35001C138.839 2.75001 137.706 2.45001 136.322 2.45001C135.072 2.45001 133.972 2.74167 133.022 3.32501C132.089 3.90834 131.364 4.71667 130.847 5.75001C130.347 6.78334 130.097 7.95001 130.097 9.25001C130.097 10.55 130.347 11.7167 130.847 12.75C131.364 13.7833 132.089 14.5917 133.022 15.175C133.972 15.7583 135.072 16.05 136.322 16.05C137.989 16.05 139.297 15.5917 140.247 14.675C141.197 13.7417 141.739 12.45 141.872 10.8L134.897 10.8L134.897 8.60001L144.297 8.60001L144.297 10.025C144.297 11.6083 143.972 13.025 143.322 14.275C142.672 15.5083 141.747 16.4833 140.547 17.2C139.347 17.9 137.947 18.25 136.347 18.25ZM152.538 0.500007L154.938 0.500007L154.938 8.15001L163.013 8.15001L163.013 0.500007L165.413 0.500007L165.413 18L163.013 18L163.013 10.35L154.938 10.35L154.938 18L152.538 18L152.538 0.500007ZM174.17 0.500008L176.57 0.500008L176.57 18L174.17 18L174.17 0.500008ZM189.503 18.25C187.92 18.25 186.67 17.7417 185.753 16.725C184.836 15.7083 184.378 14.375 184.378 12.725L186.703 12.725C186.72 13.7917 186.97 14.6167 187.453 15.2C187.936 15.7667 188.62 16.05 189.503 16.05C190.42 16.05 191.111 15.7833 191.578 15.25C192.045 14.7 192.278 13.925 192.278 12.925L192.278 0.500009L194.678 0.500009L194.678 12.6C194.678 14.3667 194.236 15.75 193.353 16.75C192.47 17.75 191.186 18.25 189.503 18.25ZM203.42 0.500009L205.82 0.50001L205.82 7.95001L212.495 0.50001L215.32 0.50001L207.92 8.75001L215.67 18L212.57 18L205.82 9.95001L205.82 18L203.42 18L203.42 0.500009ZM223.465 0.500011L225.865 0.500011L225.865 15.8L234.49 15.8L234.49 18L223.465 18L223.465 0.500011ZM242.899 0.500012L245.449 0.500012L251.099 15L256.749 0.500012L259.299 0.500012L259.299 18L256.899 18L256.899 6.15001L252.349 18L249.849 18L245.299 6.15001L245.299 18L242.899 18L242.899 0.500012ZM268.047 0.500013L270.747 0.500013L278.797 14.225L278.797 0.500013L281.197 0.500014L281.197 18L278.497 18L270.447 4.27501L270.447 18L268.047 18L268.047 0.500013ZM298.147 18.25C296.531 18.25 295.056 17.875 293.722 17.125C292.406 16.3583 291.364 15.2917 290.597 13.925C289.831 12.5583 289.447 11 289.447 9.25001C289.447 7.50001 289.831 5.94168 290.597 4.57502C291.364 3.20835 292.406 2.15001 293.722 1.40001C295.056 0.633348 296.531 0.250015 298.147 0.250015C299.764 0.250015 301.231 0.633348 302.547 1.40001C303.881 2.15002 304.931 3.20835 305.697 4.57502C306.464 5.94168 306.847 7.50002 306.847 9.25002C306.847 11 306.464 12.5583 305.697 13.925C304.931 15.2917 303.881 16.3583 302.547 17.125C301.231 17.875 299.764 18.25 298.147 18.25ZM298.147 16.05C299.397 16.05 300.497 15.7667 301.447 15.2C302.397 14.6167 303.122 13.8167 303.622 12.8C304.139 11.7667 304.397 10.5833 304.397 9.25002C304.397 7.91668 304.139 6.74168 303.622 5.72502C303.122 4.69168 302.397 3.89168 301.447 3.32502C300.497 2.74168 299.397 2.45001 298.147 2.45001C296.897 2.45001 295.797 2.74168 294.847 3.32502C293.897 3.89168 293.164 4.69168 292.647 5.72501C292.147 6.74168 291.897 7.91668 291.897 9.25001C291.897 10.5833 292.147 11.7667 292.647 12.8C293.164 13.8167 293.897 14.6167 294.847 15.2C295.797 15.7667 296.897 16.05 298.147 16.05ZM315.095 0.500015L321.095 0.500016C323.061 0.500016 324.628 1.01668 325.795 2.05002C326.978 3.06668 327.57 4.45835 327.57 6.22502C327.57 7.99168 326.978 9.39168 325.795 10.425C324.628 11.4417 323.061 11.95 321.095 11.95L317.495 11.95L317.495 18L315.095 18L315.095 0.500015ZM321.145 9.75002C323.828 9.75002 325.17 8.57502 325.17 6.22502C325.17 3.87502 323.828 2.70002 321.145 2.70002L317.495 2.70002L317.495 9.75002L321.145 9.75002ZM347.884 22.3C346.617 22.15 345.459 21.6917 344.409 20.925C343.359 20.1584 342.717 19.2417 342.484 18.175C341.034 18.0084 339.734 17.5334 338.584 16.75C337.434 15.9667 336.525 14.925 335.859 13.625C335.209 12.325 334.884 10.8667 334.884 9.25002C334.884 7.50002 335.267 5.94168 336.034 4.57502C336.8 3.20835 337.842 2.15002 339.159 1.40002C340.492 0.63335 341.967 0.250017 343.584 0.250017C345.2 0.250017 346.667 0.633351 347.984 1.40002C349.317 2.15002 350.367 3.20835 351.134 4.57502C351.9 5.94168 352.284 7.50002 352.284 9.25002C352.284 10.7 351.942 12.1084 351.259 13.475C350.592 14.8417 349.692 15.9584 348.559 16.825C347.442 17.6917 346.259 18.125 345.009 18.125C345.192 18.6584 345.659 19.15 346.409 19.6C347.175 20.0667 347.95 20.35 348.734 20.45L347.884 22.3ZM343.584 16.05C344.834 16.05 345.934 15.7667 346.884 15.2C347.834 14.6167 348.559 13.8167 349.059 12.8C349.575 11.7667 349.834 10.5834 349.834 9.25002C349.834 7.91668 349.575 6.74168 349.059 5.72502C348.559 4.69168 347.834 3.89168 346.884 3.32502C345.934 2.74168 344.834 2.45002 343.584 2.45002C342.334 2.45002 341.234 2.74168 340.284 3.32502C339.334 3.89168 338.6 4.69168 338.084 5.72502C337.584 6.74168 337.334 7.91668 337.334 9.25002C337.334 10.5834 337.584 11.7667 338.084 12.8C338.6 13.8167 339.334 14.6167 340.284 15.2C341.234 15.7667 342.334 16.05 343.584 16.05ZM360.531 0.500018L366.056 0.500018C367.373 0.500018 368.515 0.733351 369.481 1.20002C370.448 1.66668 371.19 2.32502 371.706 3.17502C372.223 4.02502 372.481 5.00835 372.481 6.12502C372.481 7.24169 372.215 8.20002 371.681 9.00002C371.165 9.80002 370.39 10.4917 369.356 11.075L373.381 18L370.631 18L367.006 11.65L362.931 11.65L362.931 18L360.531 18L360.531 0.500018ZM366.456 9.45002C367.59 9.45002 368.473 9.15002 369.106 8.55002C369.756 7.93335 370.081 7.10835 370.081 6.07502C370.081 5.02502 369.765 4.20002 369.131 3.60002C368.515 3.00002 367.623 2.70002 366.456 2.70002L362.931 2.70002L362.931 9.45002L366.456 9.45002ZM386.599 18.25C385.465 18.25 384.407 18.0167 383.424 17.55C382.457 17.0834 381.665 16.4167 381.049 15.55C380.432 14.6834 380.09 13.6834 380.024 12.55L382.349 12.55C382.465 13.65 382.915 14.5084 383.699 15.125C384.499 15.7417 385.465 16.05 386.599 16.05C387.699 16.05 388.607 15.775 389.324 15.225C390.057 14.6584 390.424 13.85 390.424 12.8C390.424 12.1334 390.274 11.5834 389.974 11.15C389.69 10.7 389.224 10.325 388.574 10.025C387.924 9.72502 387.024 9.45002 385.874 9.20002C384.207 8.83335 382.915 8.30002 381.999 7.60002C381.082 6.88335 380.624 5.87502 380.624 4.57502C380.624 3.72502 380.865 2.97502 381.349 2.32502C381.832 1.65835 382.49 1.15002 383.324 0.800019C384.174 0.433353 385.107 0.250019 386.124 0.250019C387.857 0.250019 389.249 0.691686 390.299 1.57502C391.349 2.45835 391.932 3.68335 392.049 5.25002L389.774 5.25002C389.64 4.31669 389.265 3.61669 388.649 3.15002C388.032 2.68335 387.19 2.45002 386.124 2.45002C385.19 2.45002 384.432 2.64169 383.849 3.02502C383.265 3.39169 382.974 3.88335 382.974 4.50002C382.974 5.23335 383.315 5.80835 383.999 6.22502C384.682 6.64169 385.84 7.03335 387.474 7.40002C389.207 7.78335 390.532 8.40835 391.449 9.27502C392.365 10.1417 392.824 11.2917 392.824 12.725C392.824 13.8084 392.549 14.775 391.999 15.625C391.449 16.4584 390.699 17.1084 389.749 17.575C388.815 18.025 387.765 18.25 386.599 18.25ZM403.245 2.70002L398.795 2.70002L398.795 0.50002L410.095 0.50002L410.095 2.70002L405.645 2.70002L405.645 18L403.245 18L403.245 2.70002ZM424.355 18.25C423.055 18.25 421.922 17.975 420.955 17.425C420.005 16.875 419.272 16.1167 418.755 15.15C418.255 14.1667 418.005 13.05 418.005 11.8L418.005 0.500021L420.405 0.500021L420.405 11.7C420.405 13.1 420.73 14.175 421.38 14.925C422.03 15.675 423.022 16.05 424.355 16.05C425.688 16.05 426.68 15.675 427.33 14.925C427.98 14.175 428.305 13.1 428.305 11.7L428.305 0.500021L430.705 0.500021L430.705 11.8C430.705 13.05 430.447 14.1667 429.93 15.15C429.43 16.1167 428.697 16.875 427.73 17.425C426.78 17.975 425.655 18.25 424.355 18.25ZM438.116 0.500022L440.716 0.500022L444.866 13.425L445.316 15.625L445.766 13.425L449.916 0.500022L452.516 0.500023L446.716 18L443.916 18L438.116 0.500022ZM464.085 8.37502L459.485 0.500023L462.06 0.500023L465.31 6.25002L468.56 0.500023L471.135 0.500023L466.535 8.37502L472.435 18L469.81 18L465.31 10.45L460.81 18L458.185 18L464.085 8.37502ZM483.163 11.5L477.963 0.500024L480.563 0.500024L483.988 7.90003L484.363 9.60002L484.738 7.90003L488.163 0.500024L490.763 0.500025L485.563 11.5L485.563 18L483.163 18L483.163 11.5ZM497.509 15.8L506.559 2.70003L497.959 2.70002L497.959 0.500025L509.409 0.500025L509.409 2.20003L500.109 15.8L509.709 15.8L509.709 18L497.509 18L497.509 15.8ZM5.025 63.25C3.84166 63.25 2.88333 62.925 2.15 62.275C1.41666 61.6083 1.05 60.725 1.05 59.625C1.05 58.4583 1.45 57.5417 2.25 56.875C3.05 56.2083 4.05833 55.8167 5.275 55.7L9.175 55.3L9.175 54.45C9.175 53.7333 8.91666 53.1917 8.4 52.825C7.9 52.4417 7.23333 52.25 6.4 52.25C5.7 52.25 5.10833 52.4167 4.625 52.75C4.15833 53.0833 3.84166 53.5917 3.675 54.275L1.6 54.275C1.78333 52.9583 2.34166 51.9583 3.275 51.275C4.225 50.5917 5.31666 50.25 6.55 50.25C8.01666 50.25 9.18333 50.6167 10.05 51.35C10.9333 52.0667 11.375 53.0167 11.375 54.2L11.375 60.05C11.375 60.4667 11.4667 60.7917 11.65 61.025C11.8333 61.2417 12.1083 61.35 12.475 61.35C12.6917 61.35 12.9083 61.3167 13.125 61.25L13.125 62.9C12.625 63.0667 12.1583 63.15 11.725 63.15C10.375 63.15 9.55 62.5 9.25 61.2C8.76666 61.75 8.14166 62.2333 7.375 62.65C6.60833 63.05 5.825 63.25 5.025 63.25ZM5.275 61.25C6.575 61.25 7.875 60.6 9.175 59.3L9.175 57.05L5.425 57.475C4.725 57.5583 4.18333 57.7917 3.8 58.175C3.43333 58.5417 3.25 58.9917 3.25 59.525C3.25 60.0917 3.43333 60.525 3.8 60.825C4.18333 61.1083 4.675 61.25 5.275 61.25ZM26.9422 63.25C26.0589 63.25 25.2839 63.0917 24.6172 62.775C23.9505 62.4583 23.4005 62.075 22.9672 61.625L22.9672 63L20.7672 63L20.7672 44.75L22.9672 44.75L22.9672 51.825C23.4339 51.325 24.0172 50.9417 24.7172 50.675C25.4339 50.3917 26.1922 50.25 26.9922 50.25C28.0755 50.25 29.0505 50.5167 29.9172 51.05C30.7839 51.5833 31.4589 52.3417 31.9422 53.325C32.4255 54.3083 32.6672 55.45 32.6672 56.75C32.6672 58.05 32.4089 59.1917 31.8922 60.175C31.3755 61.1583 30.6755 61.9167 29.7922 62.45C28.9255 62.9833 27.9755 63.25 26.9422 63.25ZM26.5922 61.25C27.7255 61.25 28.6505 60.875 29.3672 60.125C30.1005 59.375 30.4672 58.25 30.4672 56.75C30.4672 55.25 30.1005 54.125 29.3672 53.375C28.6505 52.625 27.7255 52.25 26.5922 52.25C25.9422 52.25 25.3422 52.4083 24.7922 52.725C24.2422 53.025 23.8005 53.4333 23.4672 53.95C23.1339 54.45 22.9672 54.9917 22.9672 55.575L22.9672 57.975C22.9672 58.5583 23.1255 59.1 23.4422 59.6C23.7755 60.1 24.2172 60.5 24.7672 60.8C25.3339 61.1 25.9422 61.25 26.5922 61.25ZM46.168 63.25C44.9846 63.25 43.918 62.9833 42.968 62.45C42.018 61.9 41.268 61.1333 40.718 60.15C40.1846 59.1667 39.918 58.0333 39.918 56.75C39.918 55.4667 40.1846 54.3333 40.718 53.35C41.268 52.3667 42.018 51.6083 42.968 51.075C43.918 50.525 44.9846 50.25 46.168 50.25C47.7846 50.25 49.118 50.675 50.168 51.525C51.218 52.3583 51.8513 53.525 52.068 55.025L49.993 55.025C49.793 54.1417 49.368 53.4583 48.718 52.975C48.068 52.4917 47.2263 52.25 46.193 52.25C44.993 52.25 44.0096 52.6583 43.243 53.475C42.493 54.275 42.118 55.3667 42.118 56.75C42.118 58.1333 42.493 59.2333 43.243 60.05C44.0096 60.85 44.993 61.25 46.193 61.25C47.2263 61.25 48.068 61.0083 48.718 60.525C49.368 60.0417 49.793 59.3583 49.993 58.475L52.068 58.475C51.8513 59.975 51.218 61.15 50.168 62C49.118 62.8333 47.7846 63.25 46.168 63.25ZM65.0531 63.25C64.0198 63.25 63.0615 62.9833 62.1781 62.45C61.3115 61.9167 60.6198 61.1583 60.1031 60.175C59.5865 59.1917 59.3281 58.05 59.3281 56.75C59.3281 55.45 59.5698 54.3083 60.0531 53.325C60.5365 52.3417 61.2115 51.5833 62.0781 51.05C62.9448 50.5167 63.9198 50.25 65.0031 50.25C65.8031 50.25 66.5531 50.3917 67.2531 50.675C67.9698 50.9417 68.5615 51.325 69.0281 51.825L69.0281 44.75L71.2281 44.75L71.2281 63L69.0281 63L69.0281 61.625C68.5948 62.075 68.0448 62.4583 67.3781 62.775C66.7115 63.0917 65.9365 63.25 65.0531 63.25ZM65.4031 61.25C66.0531 61.25 66.6531 61.1 67.2031 60.8C67.7698 60.5 68.2115 60.1 68.5281 59.6C68.8615 59.1 69.0281 58.5583 69.0281 57.975L69.0281 55.575C69.0281 54.9917 68.8615 54.45 68.5281 53.95C68.1948 53.4333 67.7531 53.025 67.2031 52.725C66.6531 52.4083 66.0531 52.25 65.4031 52.25C64.2698 52.25 63.3365 52.625 62.6031 53.375C61.8865 54.125 61.5281 55.25 61.5281 56.75C61.5281 58.25 61.8865 59.375 62.6031 60.125C63.3365 60.875 64.2698 61.25 65.4031 61.25ZM85.2289 63.25C83.9789 63.25 82.8956 62.9833 81.9789 62.45C81.0622 61.9 80.3539 61.1417 79.8539 60.175C79.3706 59.1917 79.1289 58.05 79.1289 56.75C79.1289 55.4833 79.4039 54.3583 79.9539 53.375C80.5039 52.3917 81.2456 51.625 82.1789 51.075C83.1122 50.525 84.1289 50.25 85.2289 50.25C86.3456 50.25 87.3456 50.5083 88.2289 51.025C89.1289 51.525 89.8289 52.25 90.3289 53.2C90.8456 54.15 91.1039 55.2833 91.1039 56.6L91.1039 57.45L81.3539 57.45C81.3872 58.6333 81.7539 59.5667 82.4539 60.25C83.1706 60.9167 84.1039 61.25 85.2539 61.25C86.2039 61.25 86.9956 61.025 87.6289 60.575C88.2622 60.1083 88.6956 59.4917 88.9289 58.725L90.9789 58.725C90.6289 60.1417 89.9622 61.25 88.9789 62.05C87.9956 62.85 86.7456 63.25 85.2289 63.25ZM89.0289 55.55C88.9456 54.5 88.5456 53.6917 87.8289 53.125C87.1289 52.5417 86.2622 52.25 85.2289 52.25C84.2289 52.25 83.3789 52.5417 82.6789 53.125C81.9789 53.7083 81.5456 54.5167 81.3789 55.55L89.0289 55.55ZM99.7543 52.5L97.6043 52.5L97.6043 50.5L99.7543 50.5L99.7543 48.125C99.7543 46.9083 100.079 46 100.729 45.4C101.396 44.8 102.238 44.5 103.254 44.5C103.871 44.5 104.396 44.5833 104.829 44.75L104.829 46.725C104.279 46.5417 103.804 46.45 103.404 46.45C102.971 46.45 102.621 46.5833 102.354 46.85C102.088 47.1167 101.954 47.5 101.954 48L101.954 50.5L104.754 50.5L104.754 52.5L101.954 52.5L101.954 63L99.7543 63L99.7543 52.5ZM117.117 68.25C115.55 68.25 114.317 67.9 113.417 67.2C112.517 66.5 111.992 65.5583 111.842 64.375L114.242 64.375C114.525 65.625 115.458 66.25 117.042 66.25C118.342 66.25 119.267 65.925 119.817 65.275C120.383 64.6417 120.667 63.8167 120.667 62.8L120.667 61.35C120.1 61.9167 119.5 62.3333 118.867 62.6C118.25 62.8667 117.508 63 116.642 63C115.542 63 114.558 62.75 113.692 62.25C112.842 61.7333 112.175 60.9917 111.692 60.025C111.208 59.0583 110.967 57.925 110.967 56.625C110.967 55.3417 111.225 54.2167 111.742 53.25C112.258 52.2833 112.95 51.5417 113.817 51.025C114.7 50.5083 115.658 50.25 116.692 50.25C117.575 50.25 118.35 50.4083 119.017 50.725C119.683 51.0417 120.233 51.425 120.667 51.875L120.667 50.5L122.867 50.5L122.867 62.925C122.867 64.5417 122.358 65.8333 121.342 66.8C120.342 67.7667 118.933 68.25 117.117 68.25ZM117.042 61C118.125 61 119 60.6667 119.667 60C120.333 59.3167 120.667 58.4667 120.667 57.45L120.667 55.85C120.667 55.1667 120.5 54.55 120.167 54C119.85 53.45 119.408 53.025 118.842 52.725C118.292 52.4083 117.692 52.25 117.042 52.25C115.908 52.25 114.975 52.6083 114.242 53.325C113.525 54.0417 113.167 55.1417 113.167 56.625C113.167 58.1083 113.525 59.2083 114.242 59.925C114.975 60.6417 115.908 61 117.042 61ZM131.418 44.75L133.618 44.75L133.618 52.125C134.101 51.6083 134.751 51.1667 135.568 50.8C136.384 50.4333 137.243 50.25 138.143 50.25C139.476 50.25 140.518 50.625 141.268 51.375C142.034 52.1083 142.418 53.1083 142.418 54.375L142.418 63L140.218 63L140.218 54.775C140.218 53.9583 139.976 53.325 139.493 52.875C139.009 52.425 138.351 52.2 137.518 52.2C136.801 52.2 136.093 52.4083 135.393 52.825C134.693 53.2417 134.101 53.7833 133.618 54.45L133.618 63L131.418 63L131.418 44.75ZM151.977 48.6C151.56 48.6 151.202 48.4583 150.902 48.175C150.618 47.875 150.477 47.5167 150.477 47.1C150.477 46.6833 150.618 46.3333 150.902 46.05C151.202 45.75 151.56 45.6 151.977 45.6C152.393 45.6 152.743 45.75 153.027 46.05C153.327 46.3333 153.477 46.6833 153.477 47.1C153.477 47.5167 153.327 47.875 153.027 48.175C152.743 48.4583 152.393 48.6 151.977 48.6ZM150.877 50.5L153.077 50.5L153.077 63L150.877 63L150.877 50.5ZM162.72 48.6C162.303 48.6 161.945 48.4583 161.645 48.175C161.361 47.875 161.22 47.5167 161.22 47.1C161.22 46.6833 161.361 46.3333 161.645 46.05C161.945 45.75 162.303 45.6 162.72 45.6C163.136 45.6 163.486 45.75 163.77 46.05C164.07 46.3333 164.22 46.6833 164.22 47.1C164.22 47.5167 164.07 47.875 163.77 48.175C163.486 48.4583 163.136 48.6 162.72 48.6ZM160.645 68.25C160.361 68.25 160.12 68.225 159.92 68.175C159.703 68.1417 159.436 68.0833 159.12 68L159.12 66.025C159.386 66.125 159.62 66.1917 159.82 66.225C160.003 66.275 160.22 66.3 160.47 66.3C161.236 66.3 161.62 65.8833 161.62 65.05L161.62 50.5L163.82 50.5L163.82 65.05C163.82 67.1833 162.761 68.25 160.645 68.25ZM172.363 44.75L174.563 44.75L174.563 55L178.988 50.5L181.838 50.5L176.263 56.125L182.363 63L179.563 63L174.563 57.4L174.563 63L172.363 63L172.363 44.75ZM189.771 44.75L191.971 44.75L191.971 63L189.771 63L189.771 44.75ZM200.514 50.5L202.714 50.5L202.714 51.975C203.781 50.825 205.048 50.25 206.514 50.25C207.298 50.25 207.931 50.4 208.414 50.7C208.914 50.9833 209.323 51.4333 209.639 52.05C210.939 50.85 212.323 50.25 213.789 50.25C215.023 50.25 215.939 50.5583 216.539 51.175C217.156 51.775 217.464 52.5917 217.464 53.625L217.464 63L215.264 63L215.264 54.275C215.264 53.625 215.089 53.1167 214.739 52.75C214.406 52.3833 213.906 52.2 213.239 52.2C211.989 52.2 210.939 52.7917 210.089 53.975L210.089 63L207.889 63L207.889 54.375C207.889 52.925 207.223 52.2 205.889 52.2C205.323 52.2 204.764 52.3917 204.214 52.775C203.664 53.1583 203.164 53.6583 202.714 54.275L202.714 63L200.514 63L200.514 50.5ZM225.906 50.5L228.106 50.5L228.106 52.125C228.589 51.6083 229.223 51.1667 230.006 50.8C230.789 50.4333 231.614 50.25 232.481 50.25C233.798 50.25 234.814 50.6167 235.531 51.35C236.248 52.0833 236.606 53.0917 236.606 54.375L236.606 63L234.406 63L234.406 54.775C234.406 53.9417 234.181 53.3083 233.731 52.875C233.298 52.425 232.673 52.2 231.856 52.2C231.139 52.2 230.456 52.4167 229.806 52.85C229.173 53.2833 228.606 53.8667 228.106 54.6L228.106 63L225.906 63L225.906 50.5ZM250.822 63.25C249.572 63.25 248.456 62.975 247.472 62.425C246.506 61.8583 245.747 61.0833 245.197 60.1C244.664 59.1 244.397 57.9833 244.397 56.75C244.397 55.5167 244.664 54.4083 245.197 53.425C245.747 52.425 246.506 51.65 247.472 51.1C248.456 50.5333 249.572 50.25 250.822 50.25C252.072 50.25 253.181 50.5333 254.147 51.1C255.131 51.65 255.889 52.425 256.422 53.425C256.972 54.4083 257.247 55.5167 257.247 56.75C257.247 57.9833 256.972 59.1 256.422 60.1C255.889 61.0833 255.131 61.8583 254.147 62.425C253.181 62.975 252.072 63.25 250.822 63.25ZM250.822 61.25C252.056 61.25 253.064 60.8583 253.847 60.075C254.647 59.2917 255.047 58.1833 255.047 56.75C255.047 55.3167 254.647 54.2083 253.847 53.425C253.064 52.6417 252.056 52.25 250.822 52.25C249.589 52.25 248.572 52.6417 247.772 53.425C246.989 54.2083 246.597 55.3167 246.597 56.75C246.597 58.1833 246.989 59.2917 247.772 60.075C248.572 60.8583 249.589 61.25 250.822 61.25ZM265.141 50.5L267.341 50.5L267.341 51.875C267.775 51.425 268.325 51.0417 268.991 50.725C269.658 50.4083 270.433 50.25 271.316 50.25C272.35 50.25 273.3 50.5167 274.166 51.05C275.05 51.5833 275.75 52.3417 276.266 53.325C276.783 54.3083 277.041 55.45 277.041 56.75C277.041 58.05 276.8 59.1917 276.316 60.175C275.833 61.1583 275.158 61.9167 274.291 62.45C273.425 62.9833 272.45 63.25 271.366 63.25C270.566 63.25 269.808 63.1167 269.091 62.85C268.391 62.5667 267.808 62.175 267.341 61.675L267.341 68L265.141 68L265.141 50.5ZM270.966 61.25C272.1 61.25 273.025 60.875 273.741 60.125C274.475 59.375 274.841 58.25 274.841 56.75C274.841 55.25 274.475 54.125 273.741 53.375C273.025 52.625 272.1 52.25 270.966 52.25C270.316 52.25 269.708 52.4 269.141 52.7C268.591 53 268.15 53.4 267.816 53.9C267.5 54.4 267.341 54.9417 267.341 55.525L267.341 57.925C267.341 58.5083 267.508 59.0583 267.841 59.575C268.175 60.075 268.616 60.4833 269.166 60.8C269.716 61.1 270.316 61.25 270.966 61.25ZM293.992 61.675C293.525 62.175 292.934 62.5667 292.217 62.85C291.517 63.1167 290.767 63.25 289.967 63.25C288.884 63.25 287.909 62.9833 287.042 62.45C286.175 61.9167 285.5 61.1583 285.017 60.175C284.534 59.1917 284.292 58.05 284.292 56.75C284.292 55.45 284.55 54.3083 285.067 53.325C285.584 52.3417 286.275 51.5833 287.142 51.05C288.025 50.5167 288.984 50.25 290.017 50.25C290.9 50.25 291.675 50.4083 292.342 50.725C293.009 51.0417 293.559 51.425 293.992 51.875L293.992 50.5L296.192 50.5L296.192 68L293.992 68L293.992 61.675ZM290.367 61.25C291.017 61.25 291.617 61.1 292.167 60.8C292.717 60.4833 293.159 60.075 293.492 59.575C293.825 59.0583 293.992 58.5083 293.992 57.925L293.992 55.525C293.992 54.9417 293.825 54.4 293.492 53.9C293.175 53.4 292.734 53 292.167 52.7C291.617 52.4 291.017 52.25 290.367 52.25C289.234 52.25 288.3 52.625 287.567 53.375C286.85 54.125 286.492 55.25 286.492 56.75C286.492 58.25 286.85 59.375 287.567 60.125C288.3 60.875 289.234 61.25 290.367 61.25ZM304.743 50.5L306.943 50.5L306.943 52.125C307.426 51.575 307.976 51.125 308.593 50.775C309.209 50.425 309.884 50.25 310.618 50.25C311.051 50.25 311.384 50.3167 311.618 50.45L311.268 52.275C311.068 52.225 310.801 52.2 310.468 52.2C309.768 52.2 309.109 52.4083 308.493 52.825C307.876 53.2417 307.359 53.8333 306.943 54.6L306.943 63L304.743 63L304.743 50.5ZM323.082 63.25C321.598 63.25 320.398 62.8834 319.482 62.15C318.565 61.4167 318.048 60.4 317.932 59.1L320.007 59.1C320.19 59.7834 320.515 60.3167 320.982 60.7C321.465 61.0667 322.182 61.25 323.132 61.25C323.832 61.25 324.423 61.0917 324.907 60.775C325.407 60.4584 325.657 60.025 325.657 59.475C325.657 58.9417 325.382 58.5167 324.832 58.2C324.298 57.8834 323.373 57.5584 322.057 57.225C320.79 56.9084 319.857 56.4667 319.257 55.9C318.673 55.3333 318.382 54.575 318.382 53.625C318.382 53.025 318.557 52.4667 318.907 51.95C319.273 51.4333 319.773 51.025 320.407 50.725C321.057 50.4083 321.79 50.25 322.607 50.25C323.957 50.25 325.048 50.5917 325.882 51.275C326.715 51.9583 327.19 52.9333 327.307 54.2L325.132 54.2C325.048 53.5333 324.782 53.025 324.332 52.675C323.882 52.325 323.307 52.15 322.607 52.15C322.057 52.15 321.565 52.275 321.132 52.525C320.698 52.7583 320.482 53.1083 320.482 53.575C320.482 54.025 320.732 54.4 321.232 54.7C321.732 54.9833 322.573 55.2833 323.757 55.6C325.14 55.9667 326.157 56.425 326.807 56.975C327.473 57.525 327.807 58.2667 327.807 59.2C327.807 59.9667 327.607 60.6584 327.207 61.275C326.823 61.8917 326.273 62.375 325.557 62.725C324.84 63.075 324.015 63.25 323.082 63.25ZM339.762 63.25C338.796 63.25 338.037 62.9834 337.487 62.45C336.954 61.9 336.687 61.1167 336.687 60.1L336.687 52.5L334.212 52.5L334.212 50.5L336.687 50.5L336.687 46.75L338.887 47.55L338.887 50.5L341.887 50.5L341.887 52.5L338.887 52.5L338.887 59.95C338.887 60.3834 339.012 60.7167 339.262 60.95C339.529 61.1834 339.921 61.3 340.437 61.3C340.754 61.3 341.029 61.2834 341.262 61.25C341.512 61.2 341.679 61.1667 341.762 61.15L341.762 63C341.112 63.1667 340.446 63.25 339.762 63.25ZM353.717 63.25C352.4 63.25 351.384 62.8834 350.667 62.15C349.95 61.4167 349.592 60.4084 349.592 59.125L349.592 50.5L351.792 50.5L351.792 58.725C351.792 59.5584 352.009 60.2 352.442 60.65C352.892 61.0834 353.525 61.3 354.342 61.3C355.059 61.3 355.734 61.0834 356.367 60.65C357.017 60.2167 357.592 59.6334 358.092 58.9L358.092 50.5L360.292 50.5L360.292 63L358.092 63L358.092 61.375C357.609 61.8917 356.975 62.3334 356.192 62.7C355.409 63.0667 354.584 63.25 353.717 63.25ZM367.734 50.5L370.059 50.5L373.284 58.975L373.759 61.05L374.234 58.975L377.459 50.5L379.784 50.5L374.934 63L372.584 63L367.734 50.5ZM390.418 56.1L386.568 50.5L389.018 50.5L391.693 54.475L394.368 50.5L396.818 50.5L392.968 56.1L397.393 63L394.943 63L391.693 57.8L388.443 63L385.993 63L390.418 56.1ZM408.403 62.45L403.453 50.5L405.753 50.5L409.103 58.475L409.428 60L413.078 50.5L415.303 50.5L408.353 68L406.178 68L408.403 62.45ZM421.993 61.35L428.393 52.5L422.293 52.5L422.293 50.5L431.168 50.5L431.168 52.05L424.743 61L431.168 61L431.168 63L421.993 63L421.993 61.35ZM7.24999 153.25C6.06666 153.25 4.99999 152.983 4.04999 152.45C3.09999 151.9 2.34999 151.133 1.79999 150.15C1.26666 149.167 0.999992 148.033 0.999992 146.75C0.999992 145.467 1.26666 144.333 1.79999 143.35C2.34999 142.367 3.09999 141.608 4.04999 141.075C4.99999 140.525 6.06666 140.25 7.24999 140.25C8.86666 140.25 10.2 140.675 11.25 141.525C12.3 142.358 12.9333 143.525 13.15 145.025L11.075 145.025C10.875 144.142 10.45 143.458 9.79999 142.975C9.14999 142.492 8.30833 142.25 7.27499 142.25C6.07499 142.25 5.09166 142.658 4.32499 143.475C3.57499 144.275 3.19999 145.367 3.19999 146.75C3.19999 148.133 3.57499 149.233 4.32499 150.05C5.09166 150.85 6.07499 151.25 7.27499 151.25C8.30833 151.25 9.14999 151.008 9.79999 150.525C10.45 150.042 10.875 149.358 11.075 148.475L13.15 148.475C12.9333 149.975 12.3 151.15 11.25 152C10.2 152.833 8.86666 153.25 7.24999 153.25ZM3.59999 135.5L5.67499 135.5L7.22499 137.075L8.79999 135.5L10.875 135.5L8.17499 138.825L6.29999 138.825L3.59999 135.5ZM26.6601 153.25C25.4768 153.25 24.4101 152.983 23.4601 152.45C22.5101 151.9 21.7601 151.133 21.2101 150.15C20.6768 149.167 20.4101 148.033 20.4101 146.75C20.4101 145.467 20.6768 144.333 21.2101 143.35C21.7601 142.367 22.5101 141.608 23.4601 141.075C24.4101 140.525 25.4768 140.25 26.6601 140.25C28.2768 140.25 29.6101 140.675 30.6601 141.525C31.7101 142.358 32.3435 143.525 32.5601 145.025L30.4851 145.025C30.2851 144.142 29.8601 143.458 29.2101 142.975C28.5601 142.492 27.7185 142.25 26.6851 142.25C25.4851 142.25 24.5018 142.658 23.7351 143.475C22.9851 144.275 22.6101 145.367 22.6101 146.75C22.6101 148.133 22.9851 149.233 23.7351 150.05C24.5018 150.85 25.4851 151.25 26.6851 151.25C27.7185 151.25 28.5601 151.008 29.2101 150.525C29.8601 150.042 30.2851 149.358 30.4851 148.475L32.5601 148.475C32.3435 149.975 31.7101 151.15 30.6601 152C29.6101 152.833 28.2768 153.25 26.6601 153.25ZM27.1851 135.5L30.0601 135.5L27.4101 138.825L25.1851 138.825L27.1851 135.5ZM53.8203 138.7L51.7203 138.7L51.7203 153L49.5203 153L49.5203 151.625C49.087 152.075 48.537 152.458 47.8703 152.775C47.2036 153.092 46.4286 153.25 45.5453 153.25C44.512 153.25 43.5536 152.983 42.6703 152.45C41.8036 151.917 41.112 151.158 40.5953 150.175C40.0786 149.192 39.8203 148.05 39.8203 146.75C39.8203 145.45 40.062 144.308 40.5453 143.325C41.0286 142.342 41.7036 141.583 42.5703 141.05C43.437 140.517 44.412 140.25 45.4953 140.25C46.2953 140.25 47.0453 140.392 47.7453 140.675C48.462 140.942 49.0536 141.325 49.5203 141.825L49.5203 138.7L45.3953 138.7L45.3953 136.85L49.5203 136.85L49.5203 134.75L51.7203 134.75L51.7203 136.85L53.8203 136.85L53.8203 138.7ZM49.5203 145.575C49.5203 144.992 49.3536 144.45 49.0203 143.95C48.687 143.433 48.2453 143.025 47.6953 142.725C47.1453 142.408 46.5453 142.25 45.8953 142.25C44.762 142.25 43.8286 142.625 43.0953 143.375C42.3786 144.125 42.0203 145.25 42.0203 146.75C42.0203 148.25 42.3786 149.375 43.0953 150.125C43.8286 150.875 44.762 151.25 45.8953 151.25C46.5453 151.25 47.1453 151.1 47.6953 150.8C48.262 150.5 48.7036 150.1 49.0203 149.6C49.3536 149.1 49.5203 148.558 49.5203 147.975L49.5203 145.575ZM64.4002 153.25C62.9169 153.25 61.7169 152.883 60.8002 152.15C59.8835 151.417 59.3669 150.4 59.2502 149.1L61.3252 149.1C61.5085 149.783 61.8335 150.317 62.3002 150.7C62.7835 151.067 63.5002 151.25 64.4502 151.25C65.1502 151.25 65.7419 151.092 66.2252 150.775C66.7252 150.458 66.9752 150.025 66.9752 149.475C66.9752 148.942 66.7002 148.517 66.1502 148.2C65.6169 147.883 64.6919 147.558 63.3752 147.225C62.1085 146.908 61.1752 146.467 60.5752 145.9C59.9919 145.333 59.7002 144.575 59.7002 143.625C59.7002 143.025 59.8752 142.467 60.2252 141.95C60.5919 141.433 61.0919 141.025 61.7252 140.725C62.3752 140.408 63.1085 140.25 63.9252 140.25C65.2752 140.25 66.3669 140.592 67.2002 141.275C68.0335 141.958 68.5085 142.933 68.6252 144.2L66.4502 144.2C66.3669 143.533 66.1002 143.025 65.6502 142.675C65.2002 142.325 64.6252 142.15 63.9252 142.15C63.3752 142.15 62.8835 142.275 62.4502 142.525C62.0169 142.758 61.8002 143.108 61.8002 143.575C61.8002 144.025 62.0502 144.4 62.5502 144.7C63.0502 144.983 63.8919 145.283 65.0752 145.6C66.4585 145.967 67.4752 146.425 68.1252 146.975C68.7919 147.525 69.1252 148.267 69.1252 149.2C69.1252 149.967 68.9252 150.658 68.5252 151.275C68.1419 151.892 67.5919 152.375 66.8752 152.725C66.1585 153.075 65.3335 153.25 64.4002 153.25ZM60.5002 135.5L62.5752 135.5L64.1252 137.075L65.7002 135.5L67.7752 135.5L65.0752 138.825L63.2002 138.825L60.5002 135.5ZM76.1236 151.35L82.5236 142.5L76.4236 142.5L76.4236 140.5L85.2986 140.5L85.2986 142.05L78.8736 151L85.2986 151L85.2986 153L76.1236 153L76.1236 151.35ZM77.1236 135.5L79.1986 135.5L80.7486 137.075L82.3236 135.5L84.3986 135.5L81.6986 138.825L79.8236 138.825L77.1236 135.5ZM96.2896 153.25C95.1063 153.25 94.148 152.925 93.4146 152.275C92.6813 151.608 92.3146 150.725 92.3146 149.625C92.3146 148.458 92.7146 147.542 93.5146 146.875C94.3146 146.208 95.323 145.817 96.5396 145.7L100.44 145.3L100.44 144.45C100.44 143.733 100.181 143.192 99.6646 142.825C99.1646 142.442 98.498 142.25 97.6646 142.25C96.9646 142.25 96.373 142.417 95.8896 142.75C95.423 143.083 95.1063 143.592 94.9396 144.275L92.8646 144.275C93.048 142.958 93.6063 141.958 94.5396 141.275C95.4896 140.592 96.5813 140.25 97.8146 140.25C99.2813 140.25 100.448 140.617 101.315 141.35C102.198 142.067 102.64 143.017 102.64 144.2L102.64 150.05C102.64 150.467 102.731 150.792 102.915 151.025C103.098 151.242 103.373 151.35 103.74 151.35C103.956 151.35 104.173 151.317 104.39 151.25L104.39 152.9C103.89 153.067 103.423 153.15 102.99 153.15C101.64 153.15 100.815 152.5 100.515 151.2C100.031 151.75 99.4063 152.233 98.6396 152.65C97.873 153.05 97.0896 153.25 96.2896 153.25ZM96.5396 151.25C97.8396 151.25 99.1396 150.6 100.44 149.3L100.44 147.05L96.6896 147.475C95.9896 147.558 95.448 147.792 95.0646 148.175C94.698 148.542 94.5146 148.992 94.5146 149.525C94.5146 150.092 94.698 150.525 95.0646 150.825C95.448 151.108 95.9396 151.25 96.5396 151.25ZM97.0146 135.5L98.8896 135.5L101.59 138.825L99.5146 138.825L97.9396 137.25L96.3896 138.825L94.3146 138.825L97.0146 135.5ZM116.774 153.25C115.524 153.25 114.44 152.983 113.524 152.45C112.607 151.9 111.899 151.142 111.399 150.175C110.915 149.192 110.674 148.05 110.674 146.75C110.674 145.483 110.949 144.358 111.499 143.375C112.049 142.392 112.79 141.625 113.724 141.075C114.657 140.525 115.674 140.25 116.774 140.25C117.89 140.25 118.89 140.508 119.774 141.025C120.674 141.525 121.374 142.25 121.874 143.2C122.39 144.15 122.649 145.283 122.649 146.6L122.649 147.45L112.899 147.45C112.932 148.633 113.299 149.567 113.999 150.25C114.715 150.917 115.649 151.25 116.799 151.25C117.749 151.25 118.54 151.025 119.174 150.575C119.807 150.108 120.24 149.492 120.474 148.725L122.524 148.725C122.174 150.142 121.507 151.25 120.524 152.05C119.54 152.85 118.29 153.25 116.774 153.25ZM120.574 145.55C120.49 144.5 120.09 143.692 119.374 143.125C118.674 142.542 117.807 142.25 116.774 142.25C115.774 142.25 114.924 142.542 114.224 143.125C113.524 143.708 113.09 144.517 112.924 145.55L120.574 145.55ZM115.774 135.5L117.649 135.5L120.349 138.825L118.274 138.825L116.699 137.25L115.149 138.825L113.074 138.825L115.774 135.5ZM136.167 153.25C134.917 153.25 133.801 152.975 132.817 152.425C131.851 151.858 131.092 151.083 130.542 150.1C130.009 149.1 129.742 147.983 129.742 146.75C129.742 145.517 130.009 144.408 130.542 143.425C131.092 142.425 131.851 141.65 132.817 141.1C133.801 140.533 134.917 140.25 136.167 140.25C137.417 140.25 138.526 140.533 139.492 141.1C140.476 141.65 141.234 142.425 141.767 143.425C142.317 144.408 142.592 145.517 142.592 146.75C142.592 147.983 142.317 149.1 141.767 150.1C141.234 151.083 140.476 151.858 139.492 152.425C138.526 152.975 137.417 153.25 136.167 153.25ZM136.167 151.25C137.401 151.25 138.409 150.858 139.192 150.075C139.992 149.292 140.392 148.183 140.392 146.75C140.392 145.317 139.992 144.208 139.192 143.425C138.409 142.642 137.401 142.25 136.167 142.25C134.934 142.25 133.917 142.642 133.117 143.425C132.334 144.208 131.942 145.317 131.942 146.75C131.942 148.183 132.334 149.292 133.117 150.075C133.917 150.858 134.934 151.25 136.167 151.25ZM135.217 135.5L137.092 135.5L139.792 138.825L137.717 138.825L136.142 137.25L134.592 138.825L132.517 138.825L135.217 135.5ZM162.611 146.275C162.611 148.492 162.044 150.208 160.911 151.425C159.794 152.642 158.278 153.25 156.361 153.25C155.178 153.25 154.119 152.983 153.186 152.45C152.269 151.9 151.544 151.108 151.011 150.075C150.478 149.025 150.211 147.758 150.211 146.275C150.211 144.058 150.769 142.35 151.886 141.15C153.003 139.95 154.519 139.35 156.436 139.35C157.319 139.35 158.128 139.5 158.861 139.8C159.611 140.1 160.253 140.525 160.786 141.075C161.536 140.842 162.003 140.408 162.186 139.775C162.369 139.125 162.461 138.383 162.461 137.55L164.811 137.55L164.986 137.825C164.769 138.975 164.419 139.942 163.936 140.725C163.453 141.492 162.728 142.05 161.761 142.4C162.028 142.917 162.236 143.5 162.386 144.15C162.536 144.8 162.611 145.508 162.611 146.275ZM152.486 146.275C152.486 147.958 152.794 149.242 153.411 150.125C154.044 150.992 155.044 151.425 156.411 151.425C157.794 151.425 158.794 150.992 159.411 150.125C160.028 149.242 160.336 147.958 160.336 146.275C160.336 144.592 160.019 143.325 159.386 142.475C158.769 141.625 157.769 141.2 156.386 141.2C155.019 141.2 154.028 141.625 153.411 142.475C152.794 143.325 152.486 144.592 152.486 146.275ZM187.016 137.525L187.191 137.8C187.058 138.583 186.841 139.325 186.541 140.025C186.241 140.725 185.791 141.308 185.191 141.775C184.608 142.242 183.816 142.533 182.816 142.65L182.816 153L181.016 153L180.691 151.225L180.591 151.225C180.158 151.925 179.558 152.442 178.791 152.775C178.041 153.092 177.241 153.25 176.391 153.25C174.758 153.25 173.525 152.867 172.691 152.1C171.875 151.317 171.466 150.075 171.466 148.375L171.466 139.625L173.691 139.625L173.691 148.225C173.691 150.358 174.683 151.425 176.666 151.425C178.15 151.425 179.175 151.008 179.741 150.175C180.325 149.342 180.616 148.142 180.616 146.575L180.616 139.625L182.816 139.625L182.816 141.1C183.616 140.967 184.125 140.583 184.341 139.95C184.575 139.3 184.691 138.492 184.691 137.525L187.016 137.525ZM209.112 137.525L209.287 137.8C209.154 138.583 208.937 139.325 208.637 140.025C208.337 140.725 207.887 141.308 207.287 141.775C206.704 142.242 205.912 142.533 204.912 142.65L204.912 153L203.112 153L202.787 151.225L202.687 151.225C202.254 151.925 201.654 152.442 200.887 152.775C200.137 153.092 199.337 153.25 198.487 153.25C196.854 153.25 195.62 152.867 194.787 152.1C193.97 151.317 193.562 150.075 193.562 148.375L193.562 139.625L195.787 139.625L195.787 148.225C195.787 150.358 196.779 151.425 198.762 151.425C200.245 151.425 201.27 151.008 201.837 150.175C202.42 149.342 202.712 148.142 202.712 146.575L202.712 139.625L204.912 139.625L204.912 141.1C205.712 140.967 206.22 140.583 206.437 139.95C206.67 139.3 206.787 138.492 206.787 137.525L209.112 137.525ZM216.733 141.9C216.199 141.9 215.766 141.717 215.433 141.35C215.099 140.967 214.933 140.475 214.933 139.875C214.933 138.858 215.241 137.942 215.858 137.125C216.474 136.292 217.424 135.667 218.708 135.25L219.008 135.975C217.708 136.442 216.966 137.217 216.783 138.3C217.299 138.35 217.716 138.533 218.033 138.85C218.366 139.167 218.533 139.583 218.533 140.1C218.533 140.633 218.366 141.067 218.033 141.4C217.699 141.733 217.266 141.9 216.733 141.9ZM231.076 147.025C231.043 146.192 231.126 145.492 231.326 144.925C231.543 144.358 231.818 143.9 232.151 143.55C232.484 143.183 232.901 142.808 233.401 142.425C234.084 141.925 234.551 141.475 234.801 141.075C235.068 140.658 235.201 140.192 235.201 139.675C235.201 139.058 234.926 138.533 234.376 138.1C233.826 137.667 233.093 137.45 232.176 137.45C231.243 137.45 230.459 137.708 229.826 138.225C229.193 138.725 228.834 139.4 228.751 140.25L226.551 140.25C226.584 139.283 226.834 138.425 227.301 137.675C227.768 136.925 228.418 136.333 229.251 135.9C230.101 135.467 231.076 135.25 232.176 135.25C233.959 135.25 235.309 135.65 236.226 136.45C237.143 137.233 237.601 138.267 237.601 139.55C237.601 140.383 237.401 141.133 237.001 141.8C236.601 142.467 235.984 143.092 235.151 143.675C234.468 144.158 233.968 144.625 233.651 145.075C233.351 145.525 233.184 146.075 233.151 146.725L233.101 147.7L231.101 147.7L231.076 147.025ZM232.101 153C231.618 153 231.193 152.825 230.826 152.475C230.476 152.108 230.301 151.683 230.301 151.2C230.301 150.717 230.476 150.3 230.826 149.95C231.193 149.583 231.618 149.4 232.101 149.4C232.584 149.4 233.001 149.583 233.351 149.95C233.718 150.3 233.901 150.717 233.901 151.2C233.901 151.683 233.718 152.108 233.351 152.475C233.001 152.825 232.584 153 232.101 153ZM247.335 135.25C247.869 135.25 248.302 135.442 248.635 135.825C248.969 136.192 249.135 136.675 249.135 137.275C249.135 138.292 248.827 139.217 248.21 140.05C247.594 140.867 246.644 141.483 245.36 141.9L245.06 141.175C246.36 140.708 247.102 139.933 247.285 138.85C246.769 138.8 246.344 138.617 246.01 138.3C245.694 137.983 245.535 137.567 245.535 137.05C245.535 136.517 245.702 136.083 246.035 135.75C246.369 135.417 246.802 135.25 247.335 135.25ZM258.679 141.9C258.146 141.9 257.712 141.717 257.379 141.35C257.046 140.967 256.879 140.475 256.879 139.875C256.879 138.858 257.187 137.942 257.804 137.125C258.421 136.292 259.371 135.667 260.654 135.25L260.954 135.975C259.654 136.442 258.912 137.217 258.729 138.3C259.246 138.35 259.662 138.533 259.979 138.85C260.312 139.167 260.479 139.583 260.479 140.1C260.479 140.633 260.312 141.067 259.979 141.4C259.646 141.733 259.212 141.9 258.679 141.9ZM263.179 141.9C262.646 141.9 262.212 141.717 261.879 141.35C261.546 140.967 261.379 140.475 261.379 139.875C261.379 138.858 261.687 137.942 262.304 137.125C262.921 136.292 263.871 135.667 265.154 135.25L265.454 135.975C264.154 136.442 263.412 137.217 263.229 138.3C263.746 138.35 264.162 138.533 264.479 138.85C264.812 139.167 264.979 139.583 264.979 140.1C264.979 140.633 264.812 141.067 264.479 141.4C264.146 141.733 263.712 141.9 263.179 141.9ZM274.014 135.5L276.914 135.5L276.464 147.7L274.464 147.7L274.014 135.5ZM275.464 153C274.981 153 274.556 152.825 274.189 152.475C273.839 152.108 273.664 151.683 273.664 151.2C273.664 150.717 273.839 150.3 274.189 149.95C274.556 149.583 274.981 149.4 275.464 149.4C275.947 149.4 276.364 149.583 276.714 149.95C277.081 150.3 277.264 150.717 277.264 151.2C277.264 151.683 277.081 152.108 276.714 152.475C276.364 152.825 275.947 153 275.464 153ZM287.744 135.25C288.277 135.25 288.71 135.442 289.044 135.825C289.377 136.192 289.544 136.675 289.544 137.275C289.544 138.292 289.235 139.217 288.619 140.05C288.002 140.867 287.052 141.483 285.769 141.9L285.469 141.175C286.769 140.708 287.51 139.933 287.694 138.85C287.177 138.8 286.752 138.617 286.419 138.3C286.102 137.983 285.944 137.567 285.944 137.05C285.944 136.517 286.11 136.083 286.444 135.75C286.777 135.417 287.21 135.25 287.744 135.25ZM292.244 135.25C292.777 135.25 293.21 135.442 293.544 135.825C293.877 136.192 294.044 136.675 294.044 137.275C294.044 138.292 293.735 139.217 293.119 140.05C292.502 140.867 291.552 141.483 290.269 141.9L289.969 141.175C291.269 140.708 292.01 139.933 292.194 138.85C291.677 138.8 291.252 138.617 290.919 138.3C290.602 137.983 290.444 137.567 290.444 137.05C290.444 136.517 290.61 136.083 290.944 135.75C291.277 135.417 291.71 135.25 292.244 135.25ZM301.654 146L304.254 140.5L306.354 140.5L304.054 146L306.354 151.5L304.254 151.5L301.654 146ZM305.904 146L308.504 140.5L310.604 140.5L308.304 146L310.604 151.5L308.504 151.5L305.904 146ZM318.357 151.5L320.657 146L318.357 140.5L320.457 140.5L323.057 146L320.457 151.5L318.357 151.5ZM322.607 151.5L324.907 146L322.607 140.5L324.707 140.5L327.307 146L324.707 151.5L322.607 151.5ZM339.561 155.4C338.094 154 336.953 152.392 336.136 150.575C335.319 148.758 334.911 146.65 334.911 144.25C334.911 141.85 335.319 139.742 336.136 137.925C336.953 136.108 338.094 134.5 339.561 133.1L341.111 134.675C339.861 135.992 338.911 137.433 338.261 139C337.628 140.55 337.311 142.3 337.311 144.25C337.311 146.2 337.628 147.958 338.261 149.525C338.911 151.075 339.861 152.508 341.111 153.825L339.561 155.4ZM352.657 143.85C351.824 143.85 351.082 143.667 350.432 143.3C349.799 142.933 349.299 142.425 348.932 141.775C348.582 141.108 348.407 140.367 348.407 139.55C348.407 138.733 348.582 138 348.932 137.35C349.299 136.683 349.799 136.167 350.432 135.8C351.082 135.433 351.824 135.25 352.657 135.25C353.491 135.25 354.224 135.433 354.857 135.8C355.507 136.167 356.007 136.683 356.357 137.35C356.724 138 356.907 138.733 356.907 139.55C356.907 140.367 356.724 141.108 356.357 141.775C356.007 142.425 355.507 142.933 354.857 143.3C354.224 143.667 353.491 143.85 352.657 143.85ZM350.407 151.625L363.582 135.7L365.007 136.875L351.832 152.8L350.407 151.625ZM352.657 142.15C353.374 142.15 353.957 141.925 354.407 141.475C354.874 141.008 355.107 140.367 355.107 139.55C355.107 138.733 354.874 138.1 354.407 137.65C353.957 137.183 353.374 136.95 352.657 136.95C351.941 136.95 351.349 137.183 350.882 137.65C350.432 138.1 350.207 138.733 350.207 139.55C350.207 140.367 350.432 141.008 350.882 141.475C351.349 141.925 351.941 142.15 352.657 142.15ZM362.757 153.25C361.924 153.25 361.182 153.067 360.532 152.7C359.899 152.333 359.399 151.825 359.032 151.175C358.682 150.508 358.507 149.767 358.507 148.95C358.507 148.133 358.682 147.4 359.032 146.75C359.399 146.083 359.899 145.567 360.532 145.2C361.182 144.833 361.924 144.65 362.757 144.65C363.591 144.65 364.324 144.833 364.957 145.2C365.607 145.567 366.107 146.083 366.457 146.75C366.824 147.4 367.007 148.133 367.007 148.95C367.007 149.767 366.824 150.508 366.457 151.175C366.107 151.825 365.607 152.333 364.957 152.7C364.324 153.067 363.591 153.25 362.757 153.25ZM362.757 151.55C363.474 151.55 364.057 151.325 364.507 150.875C364.974 150.408 365.207 149.767 365.207 148.95C365.207 148.133 364.974 147.5 364.507 147.05C364.057 146.583 363.474 146.35 362.757 146.35C362.041 146.35 361.449 146.583 360.982 147.05C360.532 147.5 360.307 148.133 360.307 148.95C360.307 149.767 360.532 150.408 360.982 150.875C361.449 151.325 362.041 151.55 362.757 151.55ZM374.313 153.825C375.563 152.508 376.504 151.075 377.138 149.525C377.788 147.958 378.113 146.2 378.113 144.25C378.113 142.3 377.788 140.55 377.138 139C376.504 137.433 375.563 135.992 374.313 134.675L375.863 133.1C377.329 134.5 378.471 136.108 379.288 137.925C380.104 139.742 380.513 141.85 380.513 144.25C380.513 146.65 380.104 148.758 379.288 150.575C378.471 152.392 377.329 154 375.863 155.4L374.313 153.825ZM388.259 135.5L393.034 135.5L393.034 137.45L390.409 137.45L390.409 156.05L393.034 156.05L393.034 158L388.259 158L388.259 135.5ZM403.295 148.25L400.345 148.25L400.72 146.2L403.67 146.2L404.345 142.3L401.395 142.3L401.77 140.25L404.72 140.25L405.545 135.5L407.795 135.5L406.97 140.25L410.87 140.25L411.695 135.5L413.945 135.5L413.12 140.25L416.07 140.25L415.695 142.3L412.745 142.3L412.07 146.2L415.02 146.2L414.645 148.25L411.695 148.25L410.87 153L408.62 153L409.445 148.25L405.545 148.25L404.72 153L402.47 153L403.295 148.25ZM409.82 146.2L410.495 142.3L406.595 142.3L405.92 146.2L409.82 146.2ZM423.358 158L423.358 156.05L425.983 156.05L425.983 137.45L423.358 137.45L423.358 135.5L428.133 135.5L428.133 158L423.358 158ZM440.744 158C438.794 158 437.819 157.058 437.819 155.175L437.819 150.075C437.819 149.192 437.669 148.583 437.369 148.25C437.069 147.9 436.602 147.725 435.969 147.725L435.594 147.725L435.594 145.775L435.969 145.775C436.602 145.775 437.069 145.608 437.369 145.275C437.669 144.925 437.819 144.308 437.819 143.425L437.819 138.325C437.819 136.442 438.794 135.5 440.744 135.5L441.944 135.5L441.944 137.45L441.469 137.45C440.935 137.45 440.552 137.583 440.319 137.85C440.085 138.117 439.969 138.517 439.969 139.05L439.969 144.3C439.969 145 439.827 145.542 439.544 145.925C439.277 146.308 438.885 146.583 438.369 146.75C438.885 146.917 439.277 147.192 439.544 147.575C439.827 147.958 439.969 148.5 439.969 149.2L439.969 154.45C439.969 154.983 440.085 155.383 440.319 155.65C440.552 155.917 440.935 156.05 441.469 156.05L441.944 156.05L441.944 158L440.744 158ZM458.838 158.25C457.322 158.25 455.863 157.867 454.463 157.1C453.08 156.333 451.938 155.083 451.038 153.35C450.138 151.633 449.688 149.433 449.688 146.75C449.688 144.35 450.088 142.283 450.888 140.55C451.688 138.817 452.772 137.5 454.138 136.6C455.522 135.7 457.055 135.25 458.738 135.25C461.138 135.25 462.947 135.833 464.163 137C465.38 138.15 465.988 139.733 465.988 141.75L465.988 153L463.788 153L463.788 151.625C463.355 152.075 462.805 152.458 462.138 152.775C461.472 153.092 460.697 153.25 459.813 153.25C458.78 153.25 457.822 152.983 456.938 152.45C456.072 151.917 455.38 151.158 454.863 150.175C454.347 149.192 454.088 148.05 454.088 146.75C454.088 145.45 454.338 144.308 454.838 143.325C455.338 142.342 456.022 141.583 456.888 141.05C457.772 140.517 458.763 140.25 459.863 140.25C460.663 140.25 461.397 140.392 462.063 140.675C462.73 140.942 463.305 141.325 463.788 141.825C463.788 140.442 463.372 139.333 462.538 138.5C461.705 137.667 460.438 137.25 458.738 137.25C457.638 137.25 456.572 137.55 455.538 138.15C454.505 138.75 453.638 139.758 452.938 141.175C452.238 142.592 451.888 144.45 451.888 146.75C451.888 148.783 452.205 150.517 452.838 151.95C453.472 153.383 454.313 154.458 455.363 155.175C456.43 155.892 457.588 156.25 458.838 156.25C459.855 156.25 460.688 156.142 461.338 155.925C461.988 155.708 462.58 155.292 463.113 154.675L465.263 154.675C464.58 155.942 463.747 156.85 462.763 157.4C461.78 157.967 460.472 158.25 458.838 158.25ZM460.163 151.25C460.813 151.25 461.413 151.1 461.963 150.8C462.53 150.5 462.972 150.1 463.288 149.6C463.622 149.1 463.788 148.558 463.788 147.975L463.788 145.575C463.788 144.992 463.622 144.45 463.288 143.95C462.955 143.433 462.513 143.025 461.963 142.725C461.413 142.408 460.813 142.25 460.163 142.25C459.03 142.25 458.097 142.625 457.363 143.375C456.647 144.125 456.288 145.25 456.288 146.75C456.288 148.25 456.647 149.375 457.363 150.125C458.097 150.875 459.03 151.25 460.163 151.25ZM474.25 158L474.25 156.05L474.725 156.05C475.258 156.05 475.642 155.917 475.875 155.65C476.108 155.383 476.225 154.983 476.225 154.45L476.225 149.2C476.225 148.5 476.358 147.958 476.625 147.575C476.908 147.192 477.308 146.917 477.825 146.75C477.308 146.583 476.908 146.308 476.625 145.925C476.358 145.542 476.225 145 476.225 144.3L476.225 139.05C476.225 138.517 476.108 138.117 475.875 137.85C475.642 137.583 475.258 137.45 474.725 137.45L474.25 137.45L474.25 135.5L475.45 135.5C477.4 135.5 478.375 136.442 478.375 138.325L478.375 143.425C478.375 144.308 478.525 144.925 478.825 145.275C479.125 145.608 479.592 145.775 480.225 145.775L480.6 145.775L480.6 147.725L480.225 147.725C479.592 147.725 479.125 147.9 478.825 148.25C478.525 148.583 478.375 149.192 478.375 150.075L478.375 155.175C478.375 157.058 477.4 158 475.45 158L474.25 158ZM497.02 135.5L499.445 135.5L489.92 153L487.495 153L497.02 135.5ZM512.549 153.25C511.433 153.25 510.424 153.025 509.524 152.575C508.624 152.125 507.916 151.483 507.399 150.65C506.899 149.817 506.649 148.833 506.649 147.7C506.649 146.533 506.958 145.517 507.574 144.65C508.208 143.767 509.083 143.033 510.199 142.45C509.466 141.367 509.099 140.275 509.099 139.175C509.099 138.392 509.283 137.708 509.649 137.125C510.016 136.525 510.499 136.067 511.099 135.75C511.716 135.417 512.383 135.25 513.099 135.25C514.249 135.25 515.174 135.567 515.874 136.2C516.591 136.833 516.949 137.633 516.949 138.6C516.949 139.617 516.658 140.475 516.074 141.175C515.508 141.858 514.624 142.467 513.424 143L517.099 147.575C517.349 146.692 517.474 145.567 517.474 144.2L517.474 143.8L519.824 143.8L519.824 144.7C519.824 146.6 519.466 148.233 518.749 149.6L521.524 153L518.574 153L517.324 151.475C516.091 152.658 514.499 153.25 512.549 153.25ZM512.224 141.525C513.074 141.175 513.699 140.783 514.099 140.35C514.499 139.917 514.699 139.408 514.699 138.825C514.699 138.392 514.549 138.033 514.249 137.75C513.949 137.45 513.566 137.3 513.099 137.3C512.666 137.3 512.274 137.467 511.924 137.8C511.591 138.117 511.424 138.533 511.424 139.05C511.424 139.567 511.483 140.008 511.599 140.375C511.733 140.725 511.941 141.108 512.224 141.525ZM512.574 151.05C514.058 151.05 515.183 150.625 515.949 149.775L511.349 144.025C510.533 144.425 509.941 144.933 509.574 145.55C509.224 146.167 509.049 146.892 509.049 147.725C509.049 148.725 509.383 149.533 510.049 150.15C510.733 150.75 511.574 151.05 512.574 151.05ZM527.975 135.5L530.4 135.5L539.9 153L537.475 153L527.975 135.5ZM546.855 144.25L552.28 139.875L552.28 143.025L561.93 143.025L561.93 145.475L552.28 145.475L552.28 148.625L546.855 144.25ZM573.371 146L569.421 146L569.421 144L573.371 144L573.371 140.05L575.371 140.05L575.371 144L579.346 144L579.346 146L575.371 146L575.371 149.975L573.371 149.975L573.371 146ZM592.073 142.475C591.589 142.475 591.164 142.3 590.798 141.95C590.448 141.583 590.273 141.158 590.273 140.675C590.273 140.192 590.448 139.775 590.798 139.425C591.164 139.058 591.589 138.875 592.073 138.875C592.556 138.875 592.973 139.058 593.323 139.425C593.689 139.775 593.873 140.192 593.873 140.675C593.873 141.158 593.689 141.583 593.323 141.95C592.973 142.3 592.556 142.475 592.073 142.475ZM587.098 144L597.023 144L597.023 146L587.098 146L587.098 144ZM592.073 151.125C591.589 151.125 591.164 150.95 590.798 150.6C590.448 150.233 590.273 149.808 590.273 149.325C590.273 148.842 590.448 148.425 590.798 148.075C591.164 147.708 591.589 147.525 592.073 147.525C592.556 147.525 592.973 147.708 593.323 148.075C593.689 148.425 593.873 148.842 593.873 149.325C593.873 149.808 593.689 150.233 593.323 150.6C592.973 150.95 592.556 151.125 592.073 151.125ZM604.924 147.8L607.699 145.025L604.924 142.225L606.324 140.8L609.124 143.6L611.924 140.8L613.349 142.2L610.524 145.025L613.349 147.825L611.924 149.225L609.124 146.425L606.324 149.225L604.924 147.8ZM621.255 146.35L631.18 146.35L631.18 148.35L621.255 148.35L621.255 146.35ZM621.255 141.625L631.18 141.625L631.18 143.625L621.255 143.625L621.255 141.625ZM639.632 149.05L646.207 145.5L639.632 141.95L639.632 139.65L648.657 144.55L648.657 146.45L639.632 151.35L639.632 149.05ZM665.755 153.25C664.088 153.25 662.563 152.85 661.18 152.05C659.813 151.233 658.73 150.142 657.93 148.775C657.147 147.392 656.755 145.883 656.755 144.25C656.755 142.617 657.147 141.117 657.93 139.75C658.73 138.367 659.813 137.275 661.18 136.475C662.563 135.658 664.088 135.25 665.755 135.25C667.422 135.25 668.938 135.658 670.305 136.475C671.688 137.275 672.772 138.367 673.555 139.75C674.355 141.117 674.755 142.617 674.755 144.25C674.755 145.883 674.355 147.392 673.555 148.775C672.772 150.142 671.688 151.233 670.305 152.05C668.938 152.85 667.422 153.25 665.755 153.25ZM665.755 151.55C667.072 151.55 668.28 151.225 669.38 150.575C670.48 149.908 671.347 149.017 671.98 147.9C672.63 146.783 672.955 145.567 672.955 144.25C672.955 142.933 672.63 141.717 671.98 140.6C671.347 139.483 670.48 138.6 669.38 137.95C668.28 137.283 667.072 136.95 665.755 136.95C664.438 136.95 663.23 137.283 662.13 137.95C661.03 138.6 660.155 139.483 659.505 140.6C658.872 141.717 658.555 142.933 658.555 144.25C658.555 145.567 658.872 146.783 659.505 147.9C660.155 149.017 661.03 149.908 662.13 150.575C663.23 151.225 664.438 151.55 665.755 151.55ZM662.455 139.15L665.68 139.15C666.897 139.15 667.83 139.442 668.48 140.025C669.13 140.608 669.455 141.408 669.455 142.425C669.455 143.075 669.297 143.633 668.98 144.1C668.68 144.567 668.222 144.975 667.605 145.325L669.655 149.35L667.905 149.35L666.055 145.65L664.055 145.65L664.055 149.35L662.455 149.35L662.455 139.15ZM665.73 144.2C666.397 144.2 666.913 144.05 667.28 143.75C667.647 143.45 667.83 143 667.83 142.4C667.83 141.2 667.13 140.6 665.73 140.6L664.055 140.6L664.055 144.2L665.73 144.2ZM691.513 153.25C689.846 153.25 688.321 152.85 686.938 152.05C685.571 151.233 684.488 150.142 683.688 148.775C682.904 147.392 682.513 145.883 682.513 144.25C682.513 142.617 682.904 141.117 683.688 139.75C684.488 138.367 685.571 137.275 686.938 136.475C688.321 135.658 689.846 135.25 691.513 135.25C693.179 135.25 694.696 135.658 696.063 136.475C697.446 137.275 698.529 138.367 699.313 139.75C700.113 141.117 700.513 142.617 700.513 144.25C700.513 145.883 700.113 147.392 699.313 148.775C698.529 150.142 697.446 151.233 696.063 152.05C694.696 152.85 693.179 153.25 691.513 153.25ZM691.513 151.55C692.829 151.55 694.038 151.225 695.138 150.575C696.238 149.908 697.104 149.017 697.738 147.9C698.388 146.783 698.713 145.567 698.713 144.25C698.713 142.933 698.388 141.717 697.738 140.6C697.104 139.483 696.238 138.6 695.138 137.95C694.038 137.283 692.829 136.95 691.513 136.95C690.196 136.95 688.988 137.283 687.888 137.95C686.788 138.6 685.913 139.483 685.263 140.6C684.629 141.717 684.313 142.933 684.313 144.25C684.313 145.567 684.629 146.783 685.263 147.9C685.913 149.017 686.788 149.908 687.888 150.575C688.988 151.225 690.196 151.55 691.513 151.55ZM691.513 149.35C690.579 149.35 689.729 149.142 688.963 148.725C688.213 148.292 687.621 147.692 687.188 146.925C686.754 146.142 686.538 145.25 686.538 144.25C686.538 143.25 686.754 142.367 687.188 141.6C687.621 140.817 688.213 140.217 688.963 139.8C689.729 139.367 690.579 139.15 691.513 139.15C692.779 139.15 693.829 139.483 694.663 140.15C695.496 140.8 695.996 141.717 696.163 142.9L694.538 142.9C694.371 142.217 694.029 141.683 693.513 141.3C693.013 140.917 692.354 140.725 691.538 140.725C690.588 140.725 689.804 141.042 689.188 141.675C688.571 142.308 688.263 143.167 688.263 144.25C688.263 145.333 688.571 146.192 689.188 146.825C689.804 147.458 690.588 147.775 691.538 147.775C692.354 147.775 692.996 147.6 693.463 147.25C693.946 146.9 694.304 146.35 694.538 145.6L696.163 145.6C695.946 146.783 695.429 147.708 694.613 148.375C693.813 149.025 692.779 149.35 691.513 149.35ZM6.69999 198.175C5.13332 197.992 3.82499 197.4 2.77499 196.4C1.74166 195.4 1.18332 194.117 1.09999 192.55L3.42499 192.55C3.50832 193.483 3.84166 194.25 4.42499 194.85C5.02499 195.433 5.78332 195.808 6.69999 195.975L6.69999 189.275L6.29999 189.175C4.93332 188.825 3.86666 188.275 3.09999 187.525C2.33332 186.775 1.94999 185.792 1.94999 184.575C1.94999 183.392 2.39166 182.417 3.27499 181.65C4.15832 180.867 5.29999 180.408 6.69999 180.275L6.69999 178L8.49999 178L8.49999 180.325C9.93332 180.492 11.075 181.008 11.925 181.875C12.7917 182.725 13.275 183.85 13.375 185.25L11.1 185.25C10.8833 183.733 10.0167 182.833 8.49999 182.55L8.49999 187.525C10.4167 187.908 11.7917 188.5 12.625 189.3C13.475 190.1 13.9 191.242 13.9 192.725C13.9 193.725 13.6667 194.625 13.2 195.425C12.7333 196.208 12.0917 196.842 11.275 197.325C10.4583 197.808 9.53332 198.1 8.49999 198.2L8.49999 200.5L6.69999 200.5L6.69999 198.175ZM6.69999 182.5C5.94999 182.583 5.35832 182.817 4.92499 183.2C4.50832 183.567 4.29999 184.033 4.29999 184.6C4.29999 185.15 4.48332 185.617 4.84999 186C5.23332 186.383 5.84999 186.725 6.69999 187.025L6.69999 182.5ZM8.49999 196C9.41666 195.883 10.1417 195.55 10.675 195C11.225 194.45 11.5 193.717 11.5 192.8C11.5 191.917 11.2833 191.25 10.85 190.8C10.4333 190.333 9.64999 189.95 8.49999 189.65L8.49999 196ZM30.9838 198.25C29.0004 198.25 27.3421 197.667 26.0088 196.5C24.6921 195.317 23.8254 193.742 23.4088 191.775L21.2588 191.775L21.7588 189.775L23.1588 189.775L23.1588 189.25L23.1838 188.225L21.2588 188.225L21.7588 186.225L23.5338 186.225C24.0171 184.408 24.9088 182.958 26.2088 181.875C27.5088 180.792 29.1004 180.25 30.9838 180.25C32.7671 180.25 34.2588 180.683 35.4588 181.55C36.6754 182.4 37.4921 183.633 37.9088 185.25L35.4338 185.25C35.0838 184.283 34.5421 183.575 33.8088 183.125C33.0921 182.675 32.1504 182.45 30.9838 182.45C29.7671 182.45 28.7338 182.783 27.8838 183.45C27.0504 184.117 26.4421 185.042 26.0588 186.225L31.6838 186.225L31.1838 188.225L25.6588 188.225C25.6254 188.558 25.6088 188.9 25.6088 189.25L25.6088 189.775L31.6838 189.775L31.1838 191.775L25.9088 191.775C26.2421 193.108 26.8421 194.158 27.7088 194.925C28.5921 195.675 29.6838 196.05 30.9838 196.05C32.1504 196.05 33.0921 195.825 33.8088 195.375C34.5421 194.925 35.0838 194.217 35.4338 193.25L37.9088 193.25C37.4921 194.867 36.6754 196.108 35.4588 196.975C34.2588 197.825 32.7671 198.25 30.9838 198.25ZM46.0111 196.075C46.8445 195.358 47.4611 194.717 47.8611 194.15C48.2611 193.567 48.4611 192.867 48.4611 192.05C48.4611 191.65 48.4028 191.2 48.2861 190.7L45.7611 190.7L45.7611 188.7L47.4111 188.7C47.0278 187.967 46.7445 187.342 46.5611 186.825C46.3778 186.308 46.2861 185.7 46.2861 185C46.2861 184.15 46.5111 183.367 46.9611 182.65C47.4111 181.917 48.0528 181.333 48.8861 180.9C49.7195 180.467 50.7028 180.25 51.8361 180.25C53.6361 180.25 55.0195 180.683 55.9861 181.55C56.9528 182.4 57.4778 183.567 57.5611 185.05L55.1611 185.05C55.0611 184.217 54.6945 183.575 54.0611 183.125C53.4445 182.675 52.7028 182.45 51.8361 182.45C50.8361 182.45 50.0611 182.7 49.5111 183.2C48.9611 183.7 48.6861 184.333 48.6861 185.1C48.6861 185.617 48.7695 186.1 48.9361 186.55C49.1195 187 49.3945 187.567 49.7611 188.25L50.0111 188.7L55.1861 188.7L55.1861 190.7L50.7611 190.7C50.8278 190.983 50.8611 191.308 50.8611 191.675C50.8611 193.358 50.1861 194.733 48.8361 195.8L57.2861 195.8L57.2861 198L46.0111 198L46.0111 196.075ZM69.9631 193.85L66.1881 193.85L66.1881 191.85L69.9631 191.85L69.9631 190.35L66.1881 190.35L66.1881 188.35L68.9381 188.35L64.6131 180.5L67.2131 180.5L70.7881 187.275L71.1631 188.35L71.5381 187.275L75.1131 180.5L77.7131 180.5L73.3881 188.35L76.1381 188.35L76.1381 190.35L72.3631 190.35L72.3631 191.85L76.1381 191.85L76.1381 193.85L72.3631 193.85L72.3631 198L69.9631 198L69.9631 193.85ZM91.5523 196.175C92.3357 196.058 92.969 195.767 93.4523 195.3C93.9523 194.833 94.294 194.225 94.4773 193.475L96.5523 193.475C96.3523 194.825 95.8107 195.917 94.9273 196.75C94.044 197.567 92.919 198.05 91.5523 198.2L91.5523 200.5L89.7523 200.5L89.7523 198.2C88.719 198.067 87.794 197.717 86.9773 197.15C86.1607 196.583 85.5273 195.833 85.0773 194.9C84.6273 193.967 84.4023 192.917 84.4023 191.75C84.4023 190.583 84.6273 189.533 85.0773 188.6C85.5273 187.667 86.1607 186.917 86.9773 186.35C87.794 185.783 88.719 185.433 89.7523 185.3L89.7523 182.75L91.5523 182.75L91.5523 185.3C92.919 185.45 94.044 185.942 94.9273 186.775C95.8107 187.592 96.3523 188.675 96.5523 190.025L94.4773 190.025C94.294 189.275 93.9523 188.667 93.4523 188.2C92.969 187.733 92.3357 187.442 91.5523 187.325L91.5523 196.175ZM86.6023 191.75C86.6023 192.95 86.8857 193.933 87.4523 194.7C88.019 195.467 88.7857 195.95 89.7523 196.15L89.7523 187.35C88.7857 187.55 88.019 188.033 87.4523 188.8C86.8857 189.567 86.6023 190.55 86.6023 191.75ZM105.862 198C105.379 198 104.954 197.825 104.587 197.475C104.237 197.108 104.062 196.683 104.062 196.2C104.062 195.717 104.237 195.3 104.587 194.95C104.954 194.583 105.379 194.4 105.862 194.4C106.346 194.4 106.762 194.583 107.112 194.95C107.479 195.3 107.662 195.717 107.662 196.2C107.662 196.683 107.479 197.108 107.112 197.475C106.762 197.825 106.346 198 105.862 198ZM105.862 188.85C105.379 188.85 104.954 188.675 104.587 188.325C104.237 187.958 104.062 187.533 104.062 187.05C104.062 186.567 104.237 186.15 104.587 185.8C104.954 185.433 105.379 185.25 105.862 185.25C106.346 185.25 106.762 185.433 107.112 185.8C107.479 186.15 107.662 186.567 107.662 187.05C107.662 187.533 107.479 187.958 107.112 188.325C106.762 188.675 106.346 188.85 105.862 188.85ZM117.266 188.85C116.783 188.85 116.358 188.675 115.991 188.325C115.641 187.958 115.466 187.533 115.466 187.05C115.466 186.567 115.641 186.15 115.991 185.8C116.358 185.433 116.783 185.25 117.266 185.25C117.749 185.25 118.166 185.433 118.516 185.8C118.883 186.15 119.066 186.567 119.066 187.05C119.066 187.533 118.883 187.958 118.516 188.325C118.166 188.675 117.749 188.85 117.266 188.85ZM115.416 200.85C115.883 200.433 116.216 200 116.416 199.55C116.633 199.1 116.758 198.567 116.791 197.95C116.408 197.833 116.091 197.617 115.841 197.3C115.591 196.967 115.466 196.6 115.466 196.2C115.466 195.717 115.641 195.3 115.991 194.95C116.358 194.583 116.783 194.4 117.266 194.4C117.749 194.4 118.166 194.583 118.516 194.95C118.883 195.3 119.066 195.717 119.066 196.2C119.066 198.183 118.024 199.9 115.941 201.35L115.416 200.85ZM126.768 200.85C127.335 200.333 127.768 199.858 128.068 199.425C128.368 199.008 128.535 198.533 128.568 198C128.035 198 127.61 197.825 127.293 197.475C126.977 197.108 126.818 196.7 126.818 196.25C126.818 195.733 126.985 195.3 127.318 194.95C127.668 194.583 128.102 194.4 128.618 194.4C129.152 194.4 129.585 194.583 129.918 194.95C130.252 195.3 130.418 195.742 130.418 196.275C130.418 197.308 130.16 198.225 129.643 199.025C129.127 199.825 128.343 200.6 127.293 201.35L126.768 200.85ZM139.972 198C139.489 198 139.064 197.825 138.697 197.475C138.347 197.108 138.172 196.683 138.172 196.2C138.172 195.717 138.347 195.3 138.697 194.95C139.064 194.583 139.489 194.4 139.972 194.4C140.455 194.4 140.872 194.583 141.222 194.95C141.589 195.3 141.772 195.717 141.772 196.2C141.772 196.683 141.589 197.108 141.222 197.475C140.872 197.825 140.455 198 139.972 198ZM148.936 187L151.011 184.825L148.036 184.275L148.711 182.2L151.436 183.5L151.036 180.5L153.236 180.5L152.836 183.5L155.561 182.2L156.236 184.275L153.261 184.825L155.336 187L153.561 188.3L152.136 185.675L150.711 188.3L148.936 187ZM3.99999 228.85C3.59999 229.2 3.14999 229.442 2.64999 229.575C2.16665 229.692 1.49999 229.75 0.649987 229.75L0.649987 227.75L1.04999 227.75C1.94999 227.75 2.64165 227.575 3.12499 227.225C3.60832 226.858 3.89999 226.283 3.99999 225.5L6.39999 225.5L6.39999 243L3.99999 243L3.99999 228.85ZM14.4543 240.95L21.6793 234.45C22.4126 233.783 22.9626 233.158 23.3293 232.575C23.696 231.975 23.8793 231.267 23.8793 230.45C23.8793 229.517 23.571 228.783 22.9543 228.25C22.3543 227.717 21.5876 227.45 20.6543 227.45C19.571 227.45 18.6876 227.758 18.0043 228.375C17.3376 228.992 16.9793 229.842 16.9293 230.925L14.6293 230.925C14.6793 229.842 14.971 228.867 15.5043 228C16.0376 227.133 16.746 226.458 17.6293 225.975C18.5126 225.492 19.5126 225.25 20.6293 225.25C21.6793 225.25 22.621 225.458 23.4543 225.875C24.3043 226.292 24.971 226.883 25.4543 227.65C25.9376 228.417 26.1793 229.308 26.1793 230.325C26.1793 231.408 25.9293 232.383 25.4293 233.25C24.946 234.1 24.221 234.95 23.2543 235.8L17.5793 240.8L26.5293 240.8L26.5293 243L14.4543 243L14.4543 240.95ZM40.458 243.25C39.158 243.25 38.0247 242.967 37.058 242.4C36.108 241.833 35.3663 241.083 34.833 240.15C34.2997 239.2 33.9997 238.158 33.933 237.025L36.183 237.025C36.2663 238.225 36.6747 239.2 37.408 239.95C38.158 240.683 39.158 241.05 40.408 241.05C41.608 241.05 42.5497 240.692 43.233 239.975C43.933 239.242 44.283 238.233 44.283 236.95C44.283 235.7 43.8663 234.742 43.033 234.075C42.1997 233.392 41.1747 233.05 39.958 233.05L39.408 233.05L39.408 230.875L42.908 227.7L34.708 227.7L34.708 225.5L45.908 225.5L45.908 227.775L41.933 231.2C43.2997 231.533 44.4413 232.175 45.358 233.125C46.2747 234.058 46.733 235.333 46.733 236.95C46.733 238.117 46.458 239.183 45.908 240.15C45.358 241.117 44.5997 241.875 43.633 242.425C42.683 242.975 41.6247 243.25 40.458 243.25ZM62.3756 239.15L54.2256 239.15L54.2256 236.95L62.5256 225.5L64.7756 225.5L64.7756 236.95L66.8756 236.95L66.8756 239.15L64.7756 239.15L64.7756 243L62.3756 243L62.3756 239.15ZM62.3756 236.95L62.3756 229.275L56.7756 236.95L62.3756 236.95ZM80.424 243.25C79.274 243.25 78.2323 243.008 77.299 242.525C76.3657 242.042 75.6157 241.367 75.049 240.5C74.499 239.633 74.1907 238.642 74.124 237.525L76.524 237.525C76.6407 238.508 77.0323 239.342 77.699 240.025C78.3657 240.708 79.274 241.05 80.424 241.05C81.6573 241.05 82.6323 240.675 83.349 239.925C84.0823 239.175 84.449 238.133 84.449 236.8C84.449 235.483 84.0823 234.467 83.349 233.75C82.6323 233.017 81.724 232.65 80.624 232.65C79.6407 232.65 78.8157 232.792 78.149 233.075C77.499 233.342 76.8907 233.675 76.324 234.075L74.599 233.25L75.699 225.5L85.549 225.5L85.549 227.7L77.524 227.7L76.799 231.875C77.3323 231.508 77.9657 231.208 78.699 230.975C79.4323 230.742 80.1823 230.625 80.949 230.625C82.7657 230.625 84.2073 231.175 85.274 232.275C86.3573 233.358 86.899 234.842 86.899 236.725C86.899 237.892 86.6407 238.975 86.124 239.975C85.6073 240.958 84.8573 241.75 83.874 242.35C82.8907 242.95 81.7407 243.25 80.424 243.25ZM100.989 243.25C100.089 243.25 99.197 243.033 98.3137 242.6C97.4303 242.15 96.7053 241.542 96.1387 240.775C95.622 240.058 95.2387 239.217 94.9887 238.25C94.7553 237.283 94.6387 236.167 94.6387 234.9C94.6387 232.967 94.9053 231.275 95.4387 229.825C95.972 228.375 96.747 227.25 97.7637 226.45C98.7803 225.65 99.997 225.25 101.414 225.25C102.897 225.25 104.114 225.667 105.064 226.5C106.014 227.317 106.572 228.417 106.739 229.8L104.414 229.8C104.164 228.933 103.797 228.325 103.314 227.975C102.83 227.625 102.172 227.45 101.339 227.45C100.555 227.45 99.8553 227.683 99.2387 228.15C98.622 228.6 98.1303 229.258 97.7637 230.125C97.397 230.992 97.2137 232.017 97.2137 233.2C97.797 232.517 98.4637 232.008 99.2137 231.675C99.9803 231.342 100.805 231.175 101.689 231.175C102.739 231.175 103.697 231.433 104.564 231.95C105.43 232.45 106.105 233.158 106.589 234.075C107.089 234.975 107.339 235.992 107.339 237.125C107.339 238.275 107.072 239.317 106.539 240.25C106.005 241.183 105.255 241.917 104.289 242.45C103.322 242.983 102.222 243.25 100.989 243.25ZM101.114 241.05C101.88 241.05 102.547 240.867 103.114 240.5C103.68 240.133 104.114 239.658 104.414 239.075C104.73 238.475 104.889 237.842 104.889 237.175C104.889 236.508 104.73 235.883 104.414 235.3C104.114 234.7 103.68 234.217 103.114 233.85C102.547 233.483 101.88 233.3 101.114 233.3C100.347 233.3 99.6803 233.483 99.1137 233.85C98.547 234.217 98.1053 234.7 97.7887 235.3C97.4887 235.883 97.3387 236.508 97.3387 237.175C97.3387 238.275 97.6803 239.2 98.3637 239.95C99.047 240.683 99.9637 241.05 101.114 241.05ZM122.454 227.7L113.629 227.7L113.629 225.5L124.929 225.5L124.929 227.4L118.229 243L115.904 243L122.454 227.7ZM137.477 243.25C136.31 243.25 135.285 243.017 134.402 242.55C133.518 242.067 132.843 241.408 132.377 240.575C131.91 239.742 131.677 238.8 131.677 237.75C131.677 236.783 131.918 235.917 132.402 235.15C132.885 234.367 133.518 233.758 134.302 233.325C133.735 232.908 133.285 232.383 132.952 231.75C132.635 231.1 132.477 230.417 132.477 229.7C132.477 228.85 132.693 228.092 133.127 227.425C133.577 226.742 134.185 226.208 134.952 225.825C135.718 225.442 136.56 225.25 137.477 225.25C138.393 225.25 139.235 225.442 140.002 225.825C140.768 226.208 141.368 226.742 141.802 227.425C142.252 228.092 142.477 228.85 142.477 229.7C142.477 230.417 142.31 231.1 141.977 231.75C141.66 232.383 141.218 232.908 140.652 233.325C141.435 233.758 142.068 234.367 142.552 235.15C143.035 235.917 143.277 236.783 143.277 237.75C143.277 238.8 143.043 239.742 142.577 240.575C142.11 241.408 141.435 242.067 140.552 242.55C139.668 243.017 138.643 243.25 137.477 243.25ZM137.477 232.45C138.277 232.45 138.927 232.208 139.427 231.725C139.927 231.242 140.177 230.608 140.177 229.825C140.177 229.042 139.927 228.408 139.427 227.925C138.927 227.442 138.277 227.2 137.477 227.2C136.677 227.2 136.027 227.442 135.527 227.925C135.027 228.408 134.777 229.042 134.777 229.825C134.777 230.608 135.027 231.242 135.527 231.725C136.027 232.208 136.677 232.45 137.477 232.45ZM137.477 241.05C138.41 241.05 139.202 240.742 139.852 240.125C140.502 239.492 140.827 238.683 140.827 237.7C140.827 236.717 140.502 235.917 139.852 235.3C139.202 234.667 138.41 234.35 137.477 234.35C136.543 234.35 135.752 234.667 135.102 235.3C134.452 235.917 134.127 236.717 134.127 237.7C134.127 238.683 134.452 239.492 135.102 240.125C135.752 240.742 136.543 241.05 137.477 241.05ZM156.713 243.25C155.23 243.25 154.013 242.842 153.063 242.025C152.113 241.192 151.555 240.083 151.388 238.7L153.713 238.7C153.963 239.567 154.33 240.175 154.813 240.525C155.296 240.875 155.955 241.05 156.788 241.05C157.571 241.05 158.271 240.817 158.888 240.35C159.521 239.883 160.013 239.208 160.363 238.325C160.73 237.425 160.913 236.375 160.913 235.175C160.33 235.875 159.671 236.367 158.938 236.65C158.221 236.933 157.388 237.075 156.438 237.075C155.371 237.075 154.405 236.842 153.538 236.375C152.688 235.908 152.013 235.242 151.513 234.375C151.03 233.508 150.788 232.508 150.788 231.375C150.788 230.225 151.055 229.183 151.588 228.25C152.121 227.317 152.871 226.583 153.838 226.05C154.805 225.517 155.905 225.25 157.138 225.25C158.038 225.25 158.93 225.475 159.813 225.925C160.696 226.358 161.421 226.958 161.988 227.725C162.505 228.442 162.88 229.283 163.113 230.25C163.363 231.217 163.488 232.333 163.488 233.6C163.488 235.533 163.221 237.225 162.688 238.675C162.155 240.125 161.38 241.25 160.363 242.05C159.346 242.85 158.13 243.25 156.713 243.25ZM157.013 235.2C157.78 235.2 158.446 235.017 159.013 234.65C159.58 234.283 160.013 233.808 160.313 233.225C160.63 232.625 160.788 231.992 160.788 231.325C160.788 230.225 160.446 229.308 159.763 228.575C159.08 227.825 158.163 227.45 157.013 227.45C156.246 227.45 155.58 227.633 155.013 228C154.446 228.367 154.005 228.85 153.688 229.45C153.388 230.033 153.238 230.658 153.238 231.325C153.238 231.992 153.388 232.625 153.688 233.225C154.005 233.808 154.446 234.283 155.013 234.65C155.58 235.017 156.246 235.2 157.013 235.2ZM178.304 243.25C176.838 243.25 175.571 242.867 174.504 242.1C173.438 241.317 172.621 240.242 172.054 238.875C171.504 237.508 171.229 235.967 171.229 234.25C171.229 232.533 171.504 230.992 172.054 229.625C172.621 228.258 173.438 227.192 174.504 226.425C175.571 225.642 176.838 225.25 178.304 225.25C179.771 225.25 181.038 225.642 182.104 226.425C183.171 227.192 183.979 228.258 184.529 229.625C185.096 230.992 185.379 232.533 185.379 234.25C185.379 235.967 185.096 237.508 184.529 238.875C183.979 240.242 183.171 241.317 182.104 242.1C181.038 242.867 179.771 243.25 178.304 243.25ZM178.304 241.05C179.838 241.05 180.988 240.442 181.754 239.225C182.538 237.992 182.929 236.333 182.929 234.25C182.929 232.167 182.538 230.517 181.754 229.3C180.988 228.067 179.838 227.45 178.304 227.45C176.771 227.45 175.613 228.067 174.829 229.3C174.063 230.517 173.679 232.167 173.679 234.25C173.679 236.333 174.063 237.992 174.829 239.225C175.613 240.442 176.771 241.05 178.304 241.05Z" fill="#F5F5F5"/>
</svg>
