<svg width="609" height="97" viewBox="0 0 609 97" fill="none" xmlns="http://www.w3.org/2000/svg">
<path d="M0.0800018 3.99961H13.6L35.18 71.2096L37.52 82.6496L39.86 71.2096L61.44 3.99961H74.96L44.8 94.9996H30.24L0.0800018 3.99961Z" fill="white"/>
<path d="M91.3918 20.1196C89.2251 20.1196 87.3618 19.3829 85.8018 17.9096C84.3285 16.3496 83.5918 14.4863 83.5918 12.3196C83.5918 10.1529 84.3285 8.33294 85.8018 6.85961C87.3618 5.29961 89.2251 4.51961 91.3918 4.51961C93.5585 4.51961 95.3785 5.29961 96.8518 6.85961C98.4118 8.33294 99.1918 10.1529 99.1918 12.3196C99.1918 14.4863 98.4118 16.3496 96.8518 17.9096C95.3785 19.3829 93.5585 20.1196 91.3918 20.1196ZM85.6718 29.9996H97.1118V94.9996H85.6718V29.9996Z" fill="white"/>
<path d="M136.596 96.2996C128.883 96.2996 122.643 94.3929 117.876 90.5796C113.11 86.7663 110.423 81.4796 109.816 74.7196H120.606C121.56 78.2729 123.25 81.0463 125.676 83.0396C128.19 84.9463 131.916 85.8996 136.856 85.8996C140.496 85.8996 143.573 85.0763 146.086 83.4296C148.686 81.7829 149.986 79.5296 149.986 76.6696C149.986 73.8963 148.556 71.6863 145.696 70.0396C142.923 68.3929 138.113 66.7029 131.266 64.9696C124.68 63.3229 119.826 61.0263 116.706 58.0796C113.673 55.1329 112.156 51.1896 112.156 46.2496C112.156 43.1296 113.066 40.2263 114.886 37.5396C116.793 34.8529 119.393 32.7296 122.686 31.1696C126.066 29.5229 129.88 28.6996 134.126 28.6996C141.146 28.6996 146.823 30.4763 151.156 34.0296C155.49 37.5829 157.96 42.6529 158.566 49.2396H147.256C146.823 45.7729 145.436 43.1296 143.096 41.3096C140.756 39.4896 137.766 38.5796 134.126 38.5796C131.266 38.5796 128.71 39.2296 126.456 40.5296C124.203 41.7429 123.076 43.5629 123.076 45.9896C123.076 48.3296 124.376 50.2796 126.976 51.8396C129.576 53.3129 133.953 54.8729 140.106 56.5196C147.3 58.4263 152.586 60.8096 155.966 63.6696C159.433 66.5296 161.166 70.3863 161.166 75.2396C161.166 79.2263 160.126 82.8229 158.046 86.0296C156.053 89.2363 153.193 91.7496 149.466 93.5696C145.74 95.3896 141.45 96.2996 136.596 96.2996Z" fill="white"/>
<path d="M195.596 96.2996C188.749 96.2996 183.463 94.3929 179.736 90.5796C176.009 86.7663 174.146 81.5229 174.146 74.8496V29.9996H185.586V72.7696C185.586 77.1029 186.713 80.4396 188.966 82.7796C191.306 85.0329 194.599 86.1596 198.846 86.1596C202.573 86.1596 206.083 85.0329 209.376 82.7796C212.756 80.5263 215.746 77.4929 218.346 73.6796V29.9996H229.786V94.9996H218.346V86.5496C215.833 89.2363 212.539 91.5329 208.466 93.4396C204.393 95.3463 200.103 96.2996 195.596 96.2996Z" fill="white"/>
<path d="M275.242 96.2996C268.742 96.2996 263.109 94.9129 258.342 92.1396C253.576 89.2796 249.892 85.3363 247.292 80.3096C244.779 75.1963 243.522 69.2596 243.522 62.4996C243.522 55.9129 244.952 50.0629 247.812 44.9496C250.672 39.8363 254.529 35.8496 259.382 32.9896C264.236 30.1296 269.522 28.6996 275.242 28.6996C281.049 28.6996 286.249 30.0429 290.842 32.7296C295.522 35.3296 299.162 39.0996 301.762 44.0396C304.449 48.9796 305.792 54.8729 305.792 61.7196V66.1396H255.092C255.266 72.2929 257.172 77.1463 260.812 80.6996C264.539 84.1663 269.392 85.8996 275.372 85.8996C280.312 85.8996 284.429 84.7296 287.722 82.3896C291.016 79.9629 293.269 76.7563 294.482 72.7696H305.142C303.322 80.1363 299.856 85.8996 294.742 90.0596C289.629 94.2196 283.129 96.2996 275.242 96.2996ZM295.002 56.2596C294.569 50.7996 292.489 46.5963 288.762 43.6496C285.122 40.6163 280.616 39.0996 275.242 39.0996C270.042 39.0996 265.622 40.6163 261.982 43.6496C258.342 46.6829 256.089 50.8863 255.222 56.2596H295.002Z" fill="white"/>
<path d="M318.758 0.0996094H330.198V94.9996H318.758V0.0996094Z" fill="white"/>
<path d="M370.722 96.2996C365.696 96.2996 361.752 94.9129 358.892 92.1396C356.119 89.2796 354.732 85.2063 354.732 79.9196V40.3996H341.862V29.9996H354.732V10.4996L366.172 14.6596V29.9996H381.772V40.3996H366.172V79.1396C366.172 81.3929 366.822 83.1263 368.122 84.3396C369.509 85.5529 371.546 86.1596 374.232 86.1596C375.879 86.1596 377.309 86.0729 378.522 85.8996C379.822 85.6396 380.689 85.4663 381.122 85.3796V94.9996C377.742 95.8663 374.276 96.2996 370.722 96.2996Z" fill="white"/>
<path d="M422.872 3.99961H454.071C464.298 3.99961 472.445 6.68627 478.511 12.0596C484.665 17.3463 487.742 24.5829 487.742 33.7696C487.742 42.9563 484.665 50.2363 478.511 55.6096C472.445 60.8963 464.298 63.5396 454.071 63.5396H435.351V94.9996H422.872V3.99961ZM454.331 52.0996C468.285 52.0996 475.261 45.9896 475.261 33.7696C475.261 21.5496 468.285 15.4396 454.331 15.4396H435.351V52.0996H454.331Z" fill="white"/>
<path d="M500.555 29.9996H511.995V38.4496C514.508 35.5896 517.368 33.2496 520.575 31.4296C523.781 29.6096 527.291 28.6996 531.105 28.6996C533.358 28.6996 535.091 29.0463 536.305 29.7396L534.485 39.2296C533.445 38.9696 532.058 38.8396 530.325 38.8396C526.685 38.8396 523.261 39.9229 520.055 42.0896C516.848 44.2563 514.161 47.3329 511.995 51.3196V94.9996H500.555V29.9996Z" fill="white"/>
<path d="M575.145 96.2996C568.645 96.2996 562.838 94.8696 557.725 92.0096C552.698 89.0629 548.755 85.0329 545.895 79.9196C543.122 74.7196 541.735 68.9129 541.735 62.4996C541.735 56.0863 543.122 50.3229 545.895 45.2096C548.755 40.0096 552.698 35.9796 557.725 33.1196C562.838 30.1729 568.645 28.6996 575.145 28.6996C581.645 28.6996 587.408 30.1729 592.435 33.1196C597.549 35.9796 601.492 40.0096 604.265 45.2096C607.125 50.3229 608.555 56.0863 608.555 62.4996C608.555 68.9129 607.125 74.7196 604.265 79.9196C601.492 85.0329 597.549 89.0629 592.435 92.0096C587.408 94.8696 581.645 96.2996 575.145 96.2996ZM575.145 85.8996C581.558 85.8996 586.802 83.8629 590.875 79.7896C595.035 75.7163 597.115 69.9529 597.115 62.4996C597.115 55.0463 595.035 49.2829 590.875 45.2096C586.802 41.1363 581.558 39.0996 575.145 39.0996C568.732 39.0996 563.445 41.1363 559.285 45.2096C555.212 49.2829 553.175 55.0463 553.175 62.4996C553.175 69.9529 555.212 75.7163 559.285 79.7896C563.445 83.8629 568.732 85.8996 575.145 85.8996Z" fill="white"/>
</svg>
