<svg width="36" height="36" viewBox="0 0 36 36" fill="none" xmlns="http://www.w3.org/2000/svg">
<path fill-rule="evenodd" clip-rule="evenodd" d="M25.178 1.32422H30.5871C32.8251 1.32422 34.6406 3.15546 34.6406 5.41457V10.8689C34.6406 13.1263 32.8251 14.9593 30.5871 14.9593H25.178C22.9383 14.9593 21.1229 13.1263 21.1229 10.8689V5.41457C21.1229 3.15546 22.9383 1.32422 25.178 1.32422Z" stroke="white" stroke-width="1.98707" stroke-linecap="round" stroke-linejoin="round"/>
<path fill-rule="evenodd" clip-rule="evenodd" d="M5.578 1.32422H10.9854C13.2251 1.32422 15.0406 3.15546 15.0406 5.41457V10.8689C15.0406 13.1263 13.2251 14.9593 10.9854 14.9593H5.578C3.33834 14.9593 1.52286 13.1263 1.52286 10.8689V5.41457C1.52286 3.15546 3.33834 1.32422 5.578 1.32422Z" stroke="white" stroke-width="1.98707" stroke-linecap="round" stroke-linejoin="round"/>
<path fill-rule="evenodd" clip-rule="evenodd" d="M5.57797 20.8066H10.9854C13.225 20.8066 15.0405 22.6379 15.0405 24.8987V30.3514C15.0405 32.6105 13.225 34.4417 10.9854 34.4417H5.57797C3.33831 34.4417 1.52283 32.6105 1.52283 30.3514V24.8987C1.52283 22.6379 3.33831 20.8066 5.57797 20.8066Z" stroke="white" stroke-width="1.98707" stroke-linecap="round" stroke-linejoin="round"/>
<path fill-rule="evenodd" clip-rule="evenodd" d="M25.178 20.8066H30.5871C32.8251 20.8066 34.6406 22.6379 34.6406 24.8987V30.3514C34.6406 32.6105 32.8251 34.4417 30.5871 34.4417H25.178C22.9383 34.4417 21.1229 32.6105 21.1229 30.3514V24.8987C21.1229 22.6379 22.9383 20.8066 25.178 20.8066Z" stroke="white" stroke-width="1.98707" stroke-linecap="round" stroke-linejoin="round"/>
</svg>
