<svg width="35" height="36" viewBox="0 0 35 36" fill="none" xmlns="http://www.w3.org/2000/svg">
<path fill-rule="evenodd" clip-rule="evenodd" d="M32.8269 10.4417L31.7275 8.53398C30.7975 6.91974 28.7363 6.36286 27.1198 7.28909V7.28909C26.3504 7.74237 25.4322 7.87097 24.5679 7.64654C23.7035 7.4221 22.9639 6.86307 22.5122 6.09271C22.2215 5.60306 22.0654 5.04535 22.0595 4.47598V4.47598C22.0857 3.56313 21.7413 2.67854 21.1048 2.02372C20.4682 1.36891 19.5937 0.999624 18.6805 1H16.4656C15.5709 0.99999 14.7131 1.3565 14.082 1.99065C13.4509 2.6248 13.0985 3.4843 13.1028 4.37897V4.37897C13.0762 6.22616 11.5712 7.70963 9.72379 7.70944C9.15442 7.70353 8.59671 7.54737 8.10706 7.25676V7.25676C6.49061 6.33053 4.42945 6.8874 3.49937 8.50164L2.31915 10.4417C1.3902 12.0539 1.9395 14.1138 3.54787 15.0494V15.0494C4.59334 15.653 5.23738 16.7685 5.23738 17.9757C5.23738 19.1829 4.59334 20.2984 3.54787 20.902V20.902C1.94154 21.8313 1.39165 23.8862 2.31915 25.4935V25.4935L3.4347 27.4174C3.87048 28.2037 4.60164 28.784 5.4664 29.0298C6.33115 29.2755 7.25819 29.1666 8.04239 28.727V28.727C8.8133 28.2771 9.73196 28.1539 10.5942 28.3846C11.4564 28.6154 12.1907 29.181 12.6339 29.9557C12.9245 30.4453 13.0807 31.0031 13.0866 31.5724V31.5724C13.0866 33.4386 14.5994 34.9514 16.4656 34.9514H18.6805C20.5404 34.9514 22.0506 33.4484 22.0595 31.5886V31.5886C22.0551 30.6911 22.4098 29.8291 23.0444 29.1945C23.679 28.5599 24.541 28.2053 25.4384 28.2096C26.0064 28.2248 26.5619 28.3803 27.0552 28.6623V28.6623C28.6674 29.5913 30.7273 29.042 31.6629 27.4336V27.4336L32.8269 25.4935C33.2775 24.7201 33.4012 23.799 33.1705 22.9342C32.9399 22.0694 32.374 21.3322 31.5982 20.8858V20.8858C30.8224 20.4395 30.2565 19.7023 30.0259 18.8374C29.7952 17.9726 29.9189 17.0515 30.3695 16.2781C30.6625 15.7666 31.0866 15.3424 31.5982 15.0494V15.0494C33.1969 14.1143 33.7449 12.0665 32.8269 10.4579V10.4579V10.4417Z" stroke="white" stroke-width="1.98707" stroke-linecap="round" stroke-linejoin="round"/>
<ellipse cx="17.5812" cy="17.9755" rx="4.65619" ry="4.65619" stroke="white" stroke-width="1.98707" stroke-linecap="round" stroke-linejoin="round"/>
</svg>
