<svg width="680" height="162" viewBox="0 0 680 162" fill="none" xmlns="http://www.w3.org/2000/svg">
<circle cx="110.634" cy="40.5" r="40.5" fill="#F08573"/>
<circle cx="110.634" cy="121.5" r="40.5" fill="#1AAEA6"/>
<circle cx="40.5" cy="81" r="40.5" fill="#5551FD"/>
<path d="M216.176 3.71011H231.635L258.347 71.2341L285.184 3.71011H300.643V90.2794H285.802V35.9881H285.308L284.689 41.4296L265.52 90.2794H251.298L232.129 41.4296L231.511 35.9881H231.016V90.2794H216.176V3.71011Z" fill="#171614"/>
<path d="M317.503 3.71011H345.453C354.769 3.71011 362.849 5.48272 369.692 9.02794C376.618 12.4907 381.936 17.4787 385.646 23.992C389.356 30.5054 391.211 38.1729 391.211 46.9947C391.211 55.8166 389.356 63.4841 385.646 69.9974C381.936 76.5107 376.618 81.54 369.692 85.0852C362.849 88.548 354.769 90.2794 345.453 90.2794H317.503V3.71011ZM344.958 76.6756C354.687 76.6756 362.231 74.2022 367.59 69.2554C373.031 64.2261 375.752 56.8059 375.752 46.9947C375.752 37.1836 373.031 29.8046 367.59 24.8577C362.231 19.8285 354.687 17.3138 344.958 17.3138H332.962V76.6756H344.958Z" fill="#171614"/>
<path d="M405.546 3.71011H440.421C445.945 3.71011 450.768 4.65825 454.89 6.55452C459.095 8.4508 462.311 11.0891 464.537 14.4694C466.763 17.7673 467.876 21.4774 467.876 25.5998C467.876 29.887 466.969 33.4734 465.155 36.3591C463.341 39.2447 460.744 41.6769 457.364 43.6556V44.1503C461.734 45.5519 465.402 48.0665 468.371 51.6942C471.339 55.3219 472.823 59.7328 472.823 64.9269C472.823 69.9562 471.545 74.4083 468.989 78.2833C466.516 82.0759 462.929 85.044 458.23 87.1876C453.613 89.2488 448.171 90.2794 441.905 90.2794H405.546V3.71011ZM440.792 39.2035C449.202 39.2035 453.406 35.5346 453.406 28.1968C453.406 20.9415 449.202 17.3138 440.792 17.3138H421.005V39.2035H440.792ZM444.379 76.6756C448.501 76.6756 451.758 75.6863 454.148 73.7075C456.539 71.6464 457.735 68.6783 457.735 64.8033C457.735 60.9283 456.539 57.9602 454.148 55.899C451.758 53.8378 448.501 52.8072 444.379 52.8072H421.005V76.6756H444.379Z" fill="#171614"/>
<path d="M501.698 91.5161C496.091 91.5161 491.392 89.8671 487.599 86.5693C483.889 83.1889 482.034 78.6956 482.034 73.0892C482.034 67.4004 483.972 62.907 487.847 59.6091C491.804 56.2288 496.998 54.2088 503.429 53.5493L521.361 51.6942V48.3551C521.361 45.1397 520.29 42.7075 518.146 41.0586C516.002 39.3272 513.117 38.4615 509.489 38.4615C506.274 38.4615 503.635 39.2447 501.574 40.8112C499.595 42.3777 498.318 44.6862 497.74 47.7368L485.497 47.1184L484.879 46.6237C486.033 40.3578 488.919 35.5758 493.536 32.278C498.153 28.8976 503.635 27.2075 509.984 27.2075C517.486 27.2075 523.546 29.1038 528.163 32.8963C532.78 36.6064 535.089 41.7181 535.089 48.2314V73.5839C535.089 77.7062 536.738 79.7674 540.036 79.7674C540.778 79.7674 541.685 79.6437 542.756 79.3964L543.127 79.6437V89.7847C540.572 90.6092 537.974 91.0214 535.336 91.0214C532.368 91.0214 529.689 90.3206 527.298 88.919C524.989 87.5174 523.299 85.2089 522.227 81.9934H521.856C519.218 84.8791 516.167 87.1876 512.704 88.919C509.324 90.6504 505.655 91.5161 501.698 91.5161ZM504.295 80.0147C507.593 80.0147 510.602 79.2315 513.323 77.665C516.044 76.0161 518.723 73.6663 521.361 70.6158V61.5878L505.284 63.4429C502.069 63.8551 499.637 64.8857 497.988 66.5347C496.339 68.1011 495.514 70.0386 495.514 72.3472C495.514 74.8206 496.339 76.7169 497.988 78.036C499.637 79.3552 501.739 80.0147 504.295 80.0147Z" fill="#171614"/>
<path d="M554.446 28.4442H568.545V36.4828C571.1 33.8445 574.192 31.6596 577.82 29.9282C581.53 28.1144 585.487 27.2075 589.692 27.2075C596.288 27.2075 601.4 29.1038 605.027 32.8963C608.737 36.6064 610.592 41.5532 610.592 47.7368V90.2794H596.494V51.3232C596.494 47.5306 595.505 44.645 593.526 42.6663C591.63 40.6051 588.826 39.5745 585.116 39.5745C581.983 39.5745 578.933 40.5639 575.965 42.5426C573.079 44.4389 570.606 46.9123 568.545 49.9628V90.2794H554.446V28.4442Z" fill="#171614"/>
<path d="M625.943 0H640.041V49.7155H640.536L660.2 28.4442H677.514L651.914 55.899L679.492 90.2794H662.302L640.536 63.4429H640.041V90.2794H625.943V0Z" fill="#171614"/>
<path d="M222.358 129.419H215.33V125.944H233.175V129.419H226.148V153.581H222.358V129.419Z" fill="#025893"/>
<path d="M237.219 124.76H240.693V136.407C241.456 135.591 242.483 134.893 243.773 134.314C245.062 133.735 246.418 133.446 247.839 133.446C249.945 133.446 251.59 134.038 252.774 135.222C253.985 136.381 254.59 137.96 254.59 139.96V153.581H251.116V140.592C251.116 139.302 250.734 138.302 249.971 137.591C249.208 136.881 248.168 136.525 246.852 136.525C245.72 136.525 244.602 136.854 243.496 137.512C242.391 138.17 241.456 139.026 240.693 140.079V153.581H237.219V124.76Z" fill="#025893"/>
<path d="M268.265 153.976C266.291 153.976 264.58 153.555 263.133 152.713C261.685 151.844 260.566 150.646 259.777 149.12C259.013 147.567 258.632 145.764 258.632 143.711C258.632 141.71 259.066 139.934 259.935 138.381C260.803 136.828 261.974 135.617 263.448 134.749C264.922 133.88 266.528 133.446 268.265 133.446C270.029 133.446 271.608 133.854 273.003 134.67C274.424 135.459 275.53 136.604 276.319 138.105C277.135 139.605 277.543 141.395 277.543 143.474V144.816H262.145C262.198 146.685 262.777 148.159 263.883 149.238C265.014 150.291 266.488 150.817 268.305 150.817C269.805 150.817 271.055 150.462 272.055 149.751C273.055 149.014 273.74 148.041 274.108 146.83H277.346C276.793 149.067 275.74 150.817 274.187 152.081C272.634 153.344 270.66 153.976 268.265 153.976ZM274.266 141.816C274.135 140.158 273.503 138.881 272.371 137.986C271.266 137.065 269.897 136.604 268.265 136.604C266.686 136.604 265.343 137.065 264.238 137.986C263.133 138.907 262.448 140.184 262.185 141.816H274.266Z" fill="#025893"/>
<path d="M291.665 136.999H288.27V133.841H291.665V130.09C291.665 128.168 292.179 126.734 293.205 125.786C294.258 124.839 295.587 124.365 297.193 124.365C298.166 124.365 298.996 124.497 299.68 124.76V127.879C298.811 127.589 298.061 127.445 297.43 127.445C296.745 127.445 296.192 127.655 295.771 128.076C295.35 128.497 295.14 129.103 295.14 129.892V133.841H306.431V153.581H302.957V136.999H295.14V153.581H291.665V136.999ZM304.694 130.84C304.036 130.84 303.47 130.616 302.996 130.169C302.549 129.695 302.325 129.129 302.325 128.471C302.325 127.813 302.549 127.26 302.996 126.813C303.47 126.339 304.036 126.102 304.694 126.102C305.352 126.102 305.905 126.339 306.352 126.813C306.826 127.26 307.063 127.813 307.063 128.471C307.063 129.129 306.826 129.695 306.352 130.169C305.905 130.616 305.352 130.84 304.694 130.84Z" fill="#025893"/>
<path d="M311.631 133.841H315.106V136.407C315.869 135.538 316.737 134.828 317.711 134.275C318.685 133.722 319.751 133.446 320.909 133.446C321.594 133.446 322.12 133.551 322.489 133.762L321.936 136.644C321.62 136.565 321.199 136.525 320.672 136.525C319.567 136.525 318.527 136.854 317.553 137.512C316.58 138.17 315.764 139.105 315.106 140.315V153.581H311.631V133.841Z" fill="#025893"/>
<path d="M332.302 153.976C329.96 153.976 328.064 153.397 326.617 152.239C325.169 151.081 324.353 149.475 324.169 147.422H327.446C327.735 148.501 328.249 149.343 328.986 149.949C329.749 150.528 330.881 150.817 332.381 150.817C333.487 150.817 334.421 150.567 335.184 150.067C335.974 149.567 336.369 148.883 336.369 148.014C336.369 147.172 335.934 146.501 335.066 146.001C334.223 145.501 332.763 144.987 330.683 144.461C328.683 143.961 327.209 143.263 326.261 142.368C325.34 141.474 324.88 140.276 324.88 138.776C324.88 137.828 325.156 136.946 325.709 136.13C326.288 135.315 327.077 134.67 328.078 134.196C329.104 133.696 330.262 133.446 331.552 133.446C333.684 133.446 335.408 133.985 336.724 135.064C338.04 136.144 338.79 137.683 338.974 139.684H335.54C335.408 138.631 334.987 137.828 334.276 137.275C333.565 136.723 332.657 136.446 331.552 136.446C330.683 136.446 329.907 136.644 329.223 137.039C328.538 137.407 328.196 137.96 328.196 138.697C328.196 139.407 328.591 140 329.38 140.473C330.17 140.921 331.499 141.395 333.368 141.895C335.553 142.474 337.158 143.198 338.185 144.066C339.238 144.935 339.764 146.106 339.764 147.58C339.764 148.791 339.448 149.883 338.816 150.857C338.211 151.831 337.343 152.594 336.211 153.147C335.079 153.7 333.776 153.976 332.302 153.976Z" fill="#025893"/>
<path d="M350.354 153.976C348.827 153.976 347.629 153.555 346.761 152.713C345.919 151.844 345.497 150.607 345.497 149.001V136.999H341.589V133.841H345.497V127.918L348.972 129.182V133.841H353.709V136.999H348.972V148.764C348.972 149.449 349.169 149.975 349.564 150.344C349.985 150.712 350.604 150.896 351.42 150.896C351.92 150.896 352.354 150.87 352.722 150.817C353.117 150.738 353.38 150.686 353.512 150.659V153.581C352.486 153.844 351.433 153.976 350.354 153.976Z" fill="#025893"/>
<path d="M369.745 131.235C369.113 131.788 368.402 132.169 367.613 132.38C366.849 132.564 365.797 132.656 364.454 132.656V129.498H365.086C366.507 129.498 367.599 129.221 368.363 128.669C369.126 128.089 369.587 127.181 369.745 125.944H373.535V153.581H369.745V131.235Z" fill="#025893"/>
<path d="M389.452 153.976C387.136 153.976 385.136 153.371 383.451 152.16C381.767 150.923 380.477 149.225 379.582 147.067C378.714 144.908 378.279 142.474 378.279 139.763C378.279 137.052 378.714 134.617 379.582 132.459C380.477 130.3 381.767 128.616 383.451 127.405C385.136 126.168 387.136 125.55 389.452 125.55C391.769 125.55 393.769 126.168 395.454 127.405C397.138 128.616 398.415 130.3 399.283 132.459C400.178 134.617 400.626 137.052 400.626 139.763C400.626 142.474 400.178 144.908 399.283 147.067C398.415 149.225 397.138 150.923 395.454 152.16C393.769 153.371 391.769 153.976 389.452 153.976ZM389.452 150.502C391.874 150.502 393.69 149.541 394.901 147.619C396.138 145.672 396.756 143.053 396.756 139.763C396.756 136.473 396.138 133.867 394.901 131.945C393.69 129.998 391.874 129.024 389.452 129.024C387.031 129.024 385.202 129.998 383.965 131.945C382.754 133.867 382.148 136.473 382.148 139.763C382.148 143.053 382.754 145.672 383.965 147.619C385.202 149.541 387.031 150.502 389.452 150.502Z" fill="#025893"/>
<path d="M415.747 153.976C413.431 153.976 411.431 153.371 409.746 152.16C408.062 150.923 406.772 149.225 405.877 147.067C405.009 144.908 404.574 142.474 404.574 139.763C404.574 137.052 405.009 134.617 405.877 132.459C406.772 130.3 408.062 128.616 409.746 127.405C411.431 126.168 413.431 125.55 415.747 125.55C418.064 125.55 420.064 126.168 421.749 127.405C423.433 128.616 424.71 130.3 425.578 132.459C426.473 134.617 426.921 137.052 426.921 139.763C426.921 142.474 426.473 144.908 425.578 147.067C424.71 149.225 423.433 150.923 421.749 152.16C420.064 153.371 418.064 153.976 415.747 153.976ZM415.747 150.502C418.169 150.502 419.985 149.541 421.196 147.619C422.433 145.672 423.051 143.053 423.051 139.763C423.051 136.473 422.433 133.867 421.196 131.945C419.985 129.998 418.169 129.024 415.747 129.024C413.326 129.024 411.497 129.998 410.26 131.945C409.049 133.867 408.443 136.473 408.443 139.763C408.443 143.053 409.049 145.672 410.26 147.619C411.497 149.541 413.326 150.502 415.747 150.502Z" fill="#025893"/>
<path d="M437.186 139.131C435.87 139.131 434.699 138.841 433.672 138.262C432.672 137.683 431.883 136.881 431.304 135.854C430.751 134.801 430.474 133.63 430.474 132.34C430.474 131.051 430.751 129.892 431.304 128.866C431.883 127.813 432.672 126.997 433.672 126.418C434.699 125.839 435.87 125.55 437.186 125.55C438.502 125.55 439.66 125.839 440.661 126.418C441.687 126.997 442.477 127.813 443.029 128.866C443.609 129.892 443.898 131.051 443.898 132.34C443.898 133.63 443.609 134.801 443.029 135.854C442.477 136.881 441.687 137.683 440.661 138.262C439.66 138.841 438.502 139.131 437.186 139.131ZM433.633 151.41L454.44 126.26L456.69 128.116L435.883 153.265L433.633 151.41ZM437.186 136.446C438.318 136.446 439.239 136.091 439.95 135.38C440.687 134.643 441.055 133.63 441.055 132.34C441.055 131.051 440.687 130.05 439.95 129.34C439.239 128.603 438.318 128.234 437.186 128.234C436.054 128.234 435.12 128.603 434.383 129.34C433.672 130.05 433.317 131.051 433.317 132.34C433.317 133.63 433.672 134.643 434.383 135.38C435.12 136.091 436.054 136.446 437.186 136.446ZM453.137 153.976C451.821 153.976 450.649 153.686 449.623 153.107C448.623 152.528 447.833 151.725 447.254 150.699C446.701 149.646 446.425 148.475 446.425 147.185C446.425 145.895 446.701 144.737 447.254 143.711C447.833 142.658 448.623 141.842 449.623 141.263C450.649 140.684 451.821 140.394 453.137 140.394C454.453 140.394 455.611 140.684 456.611 141.263C457.637 141.842 458.427 142.658 458.98 143.711C459.559 144.737 459.848 145.895 459.848 147.185C459.848 148.475 459.559 149.646 458.98 150.699C458.427 151.725 457.637 152.528 456.611 153.107C455.611 153.686 454.453 153.976 453.137 153.976ZM453.137 151.291C454.268 151.291 455.19 150.936 455.9 150.225C456.637 149.488 457.006 148.475 457.006 147.185C457.006 145.895 456.637 144.895 455.9 144.185C455.19 143.448 454.268 143.079 453.137 143.079C452.005 143.079 451.07 143.448 450.333 144.185C449.623 144.895 449.267 145.895 449.267 147.185C449.267 148.475 449.623 149.488 450.333 150.225C451.07 150.936 452.005 151.291 453.137 151.291Z" fill="#025893"/>
<path d="M480.346 153.976C478.714 153.976 477.201 153.555 475.806 152.713C474.437 151.87 473.345 150.673 472.529 149.12C471.713 147.567 471.305 145.764 471.305 143.711C471.305 141.658 471.687 139.855 472.45 138.302C473.213 136.749 474.279 135.551 475.648 134.709C477.017 133.867 478.556 133.446 480.267 133.446C481.531 133.446 482.715 133.669 483.82 134.117C484.952 134.538 485.887 135.143 486.624 135.933V124.76H490.098V153.581H486.624V151.41C485.939 152.12 485.071 152.726 484.018 153.226C482.965 153.726 481.741 153.976 480.346 153.976ZM480.899 150.817C481.925 150.817 482.873 150.581 483.742 150.107C484.636 149.633 485.334 149.001 485.834 148.212C486.36 147.422 486.624 146.567 486.624 145.645V141.855C486.624 140.934 486.36 140.079 485.834 139.289C485.308 138.473 484.61 137.828 483.742 137.354C482.873 136.854 481.925 136.604 480.899 136.604C479.109 136.604 477.635 137.196 476.477 138.381C475.345 139.565 474.779 141.342 474.779 143.711C474.779 146.08 475.345 147.856 476.477 149.041C477.635 150.225 479.109 150.817 480.899 150.817Z" fill="#025893"/>
<path d="M497.048 130.84C496.39 130.84 495.824 130.616 495.35 130.169C494.903 129.695 494.679 129.129 494.679 128.471C494.679 127.813 494.903 127.26 495.35 126.813C495.824 126.339 496.39 126.102 497.048 126.102C497.706 126.102 498.259 126.339 498.706 126.813C499.18 127.26 499.417 127.813 499.417 128.471C499.417 129.129 499.18 129.695 498.706 130.169C498.259 130.616 497.706 130.84 497.048 130.84ZM495.311 133.841H498.785V153.581H495.311V133.841Z" fill="#025893"/>
<path d="M512.672 161.872C510.197 161.872 508.25 161.319 506.828 160.214C505.407 159.108 504.578 157.621 504.341 155.753H508.131C508.579 157.727 510.053 158.714 512.553 158.714C514.606 158.714 516.067 158.2 516.936 157.174C517.83 156.174 518.278 154.871 518.278 153.265V150.975C517.383 151.87 516.435 152.528 515.435 152.949C514.461 153.371 513.29 153.581 511.921 153.581C510.184 153.581 508.631 153.186 507.263 152.397C505.92 151.581 504.867 150.409 504.104 148.883C503.341 147.356 502.959 145.566 502.959 143.513C502.959 141.487 503.367 139.71 504.183 138.183C504.999 136.657 506.091 135.486 507.46 134.67C508.855 133.854 510.369 133.446 512 133.446C513.395 133.446 514.619 133.696 515.672 134.196C516.725 134.696 517.594 135.301 518.278 136.012V133.841H521.752V153.463C521.752 156.016 520.949 158.056 519.344 159.582C517.765 161.109 515.541 161.872 512.672 161.872ZM512.553 150.423C514.264 150.423 515.646 149.896 516.699 148.843C517.751 147.764 518.278 146.422 518.278 144.816V142.29C518.278 141.21 518.015 140.236 517.488 139.368C516.988 138.499 516.291 137.828 515.396 137.354C514.527 136.854 513.58 136.604 512.553 136.604C510.763 136.604 509.289 137.17 508.131 138.302C506.999 139.434 506.434 141.171 506.434 143.513C506.434 145.856 506.999 147.593 508.131 148.725C509.289 149.857 510.763 150.423 512.553 150.423Z" fill="#025893"/>
<path d="M528.702 130.84C528.044 130.84 527.478 130.616 527.004 130.169C526.557 129.695 526.333 129.129 526.333 128.471C526.333 127.813 526.557 127.26 527.004 126.813C527.478 126.339 528.044 126.102 528.702 126.102C529.36 126.102 529.913 126.339 530.36 126.813C530.834 127.26 531.071 127.813 531.071 128.471C531.071 129.129 530.834 129.695 530.36 130.169C529.913 130.616 529.36 130.84 528.702 130.84ZM526.965 133.841H530.439V153.581H526.965V133.841Z" fill="#025893"/>
<path d="M542.747 153.976C541.22 153.976 540.022 153.555 539.154 152.713C538.312 151.844 537.89 150.607 537.89 149.001V136.999H533.982V133.841H537.89V127.918L541.365 129.182V133.841H546.102V136.999H541.365V148.764C541.365 149.449 541.562 149.975 541.957 150.344C542.378 150.712 542.997 150.896 543.813 150.896C544.313 150.896 544.747 150.87 545.115 150.817C545.51 150.738 545.773 150.686 545.905 150.659V153.581C544.879 153.844 543.826 153.976 542.747 153.976Z" fill="#025893"/>
<path d="M555.467 153.976C553.598 153.976 552.085 153.463 550.927 152.436C549.768 151.383 549.189 149.988 549.189 148.251C549.189 146.409 549.821 144.961 551.084 143.908C552.348 142.855 553.94 142.237 555.862 142.053L562.021 141.421V140.079C562.021 138.947 561.613 138.091 560.797 137.512C560.007 136.907 558.954 136.604 557.638 136.604C556.533 136.604 555.598 136.867 554.835 137.394C554.098 137.92 553.598 138.723 553.335 139.802H550.058C550.347 137.723 551.229 136.144 552.703 135.064C554.203 133.985 555.927 133.446 557.875 133.446C560.191 133.446 562.034 134.025 563.403 135.183C564.798 136.315 565.495 137.815 565.495 139.684V148.922C565.495 149.58 565.64 150.094 565.929 150.462C566.219 150.804 566.653 150.975 567.232 150.975C567.574 150.975 567.917 150.923 568.259 150.817V153.423C567.469 153.686 566.732 153.818 566.048 153.818C563.916 153.818 562.613 152.791 562.139 150.738C561.376 151.607 560.389 152.37 559.178 153.028C557.967 153.66 556.73 153.976 555.467 153.976ZM555.862 150.817C557.915 150.817 559.968 149.791 562.021 147.738V144.185L556.099 144.856C554.993 144.987 554.138 145.356 553.532 145.961C552.953 146.54 552.664 147.251 552.664 148.093C552.664 148.988 552.953 149.672 553.532 150.146C554.138 150.594 554.914 150.817 555.862 150.817Z" fill="#025893"/>
<path d="M572.037 124.76H575.511V153.581H572.037V124.76Z" fill="#025893"/>
<path d="M598.753 153.976C597.358 153.976 596.134 153.726 595.081 153.226C594.028 152.726 593.16 152.12 592.475 151.41V153.581H589.001V124.76H592.475V135.933C593.212 135.143 594.134 134.538 595.239 134.117C596.371 133.669 597.569 133.446 598.832 133.446C600.543 133.446 602.082 133.867 603.451 134.709C604.82 135.551 605.886 136.749 606.649 138.302C607.412 139.855 607.794 141.658 607.794 143.711C607.794 145.764 607.386 147.567 606.57 149.12C605.754 150.673 604.649 151.87 603.254 152.713C601.885 153.555 600.385 153.976 598.753 153.976ZM598.2 150.817C599.99 150.817 601.451 150.225 602.583 149.041C603.741 147.856 604.32 146.08 604.32 143.711C604.32 141.342 603.741 139.565 602.583 138.381C601.451 137.196 599.99 136.604 598.2 136.604C597.174 136.604 596.226 136.854 595.358 137.354C594.489 137.828 593.791 138.473 593.265 139.289C592.739 140.079 592.475 140.934 592.475 141.855V145.645C592.475 146.567 592.725 147.422 593.226 148.212C593.752 149.001 594.45 149.633 595.318 150.107C596.213 150.581 597.174 150.817 598.2 150.817Z" fill="#025893"/>
<path d="M617.31 153.976C615.441 153.976 613.928 153.463 612.77 152.436C611.612 151.383 611.033 149.988 611.033 148.251C611.033 146.409 611.664 144.961 612.928 143.908C614.191 142.855 615.784 142.237 617.705 142.053L623.864 141.421V140.079C623.864 138.947 623.456 138.091 622.64 137.512C621.851 136.907 620.798 136.604 619.482 136.604C618.376 136.604 617.442 136.867 616.679 137.394C615.942 137.92 615.441 138.723 615.178 139.802H611.901C612.191 137.723 613.073 136.144 614.547 135.064C616.047 133.985 617.771 133.446 619.719 133.446C622.035 133.446 623.877 134.025 625.246 135.183C626.641 136.315 627.338 137.815 627.338 139.684V148.922C627.338 149.58 627.483 150.094 627.773 150.462C628.062 150.804 628.497 150.975 629.076 150.975C629.418 150.975 629.76 150.923 630.102 150.817V153.423C629.312 153.686 628.576 153.818 627.891 153.818C625.759 153.818 624.456 152.791 623.983 150.738C623.219 151.607 622.232 152.37 621.021 153.028C619.811 153.66 618.574 153.976 617.31 153.976ZM617.705 150.817C619.758 150.817 621.811 149.791 623.864 147.738V144.185L617.942 144.856C616.836 144.987 615.981 145.356 615.376 145.961C614.797 146.54 614.507 147.251 614.507 148.093C614.507 148.988 614.797 149.672 615.376 150.146C615.981 150.594 616.758 150.817 617.705 150.817Z" fill="#025893"/>
<path d="M633.88 133.841H637.354V136.407C638.118 135.591 639.118 134.893 640.355 134.314C641.592 133.735 642.895 133.446 644.263 133.446C646.343 133.446 647.948 134.025 649.08 135.183C650.212 136.341 650.778 137.933 650.778 139.96V153.581H647.304V140.592C647.304 139.276 646.948 138.276 646.238 137.591C645.553 136.881 644.566 136.525 643.276 136.525C642.145 136.525 641.065 136.867 640.039 137.552C639.039 138.236 638.144 139.157 637.354 140.315V153.581H633.88V133.841Z" fill="#025893"/>
<path d="M655.818 124.76H659.292V140.947L666.281 133.841H670.781L661.977 142.724L671.611 153.581H667.189L659.292 144.737V153.581H655.818V124.76Z" fill="#025893"/>
<path d="M676.767 153.581C676.004 153.581 675.333 153.305 674.754 152.752C674.201 152.173 673.925 151.502 673.925 150.738C673.925 149.975 674.201 149.317 674.754 148.764C675.333 148.185 676.004 147.896 676.767 147.896C677.53 147.896 678.188 148.185 678.741 148.764C679.32 149.317 679.61 149.975 679.61 150.738C679.61 151.502 679.32 152.173 678.741 152.752C678.188 153.305 677.53 153.581 676.767 153.581Z" fill="#025893"/>
</svg>
