<svg width="33" height="33" viewBox="0 0 33 33" fill="none" xmlns="http://www.w3.org/2000/svg">
<path fill-rule="evenodd" clip-rule="evenodd" d="M1.78629 5.02822C2.29355 4.18834 5.08837 1.13345 7.08279 1.22568C7.67898 1.27508 8.20599 1.63574 8.63419 2.05404C9.6174 3.01414 12.432 6.64542 12.5917 7.40955C12.9804 9.28365 10.7472 10.364 11.4307 12.2529C13.1731 16.5166 16.1754 19.5187 20.441 21.2595C22.3283 21.9429 23.4087 19.7098 25.2829 20.1001C26.0454 20.2598 29.6785 23.0743 30.6387 24.0574C31.0554 24.484 31.4177 25.0126 31.4671 25.6088C31.5412 27.7085 28.2968 30.5427 27.6644 30.905C26.1723 31.9721 24.2256 31.954 21.8524 30.8506C15.2301 28.0955 4.647 17.7122 1.84064 10.8399C0.766851 8.48 0.692739 6.52026 1.78629 5.02822Z" stroke="white" stroke-width="1.98707" stroke-linecap="round" stroke-linejoin="round"/>
</svg>
