<svg width="33" height="35" viewBox="0 0 33 35" fill="none" xmlns="http://www.w3.org/2000/svg">
<path d="M11.6562 31.3724V26.4635C11.6561 25.215 12.674 24.2004 13.9352 24.192H18.5549C19.8221 24.192 20.8494 25.209 20.8494 26.4635V26.4635V31.3877C20.8491 32.4478 21.7038 33.3142 22.7743 33.339H25.8541C28.9243 33.339 31.4132 30.8751 31.4132 27.8356V27.8356V13.8712C31.3968 12.6754 30.8297 11.5526 29.8732 10.8222L19.3403 2.42215C17.495 0.959543 14.8719 0.959543 13.0267 2.42215L2.53991 10.8374C1.57986 11.5649 1.01182 12.6896 1 13.8864V27.8356C1 30.8751 3.48888 33.339 6.55906 33.339H9.63888C10.736 33.339 11.6254 32.4586 11.6254 31.3724V31.3724" stroke="white" stroke-width="1.98707" stroke-linecap="round" stroke-linejoin="round"/>
</svg>
