<svg width="25" height="28" viewBox="0 0 25 28" fill="none" xmlns="http://www.w3.org/2000/svg">
<path fill-rule="evenodd" clip-rule="evenodd" d="M10.5693 25.6941C10.7053 26.6968 11.5649 27.4697 12.6049 27.4697C13.7395 27.4697 14.6593 26.5499 14.6593 25.4153L14.6593 8.00368L21.4158 14.7901L21.6458 14.9896C22.4488 15.588 23.5903 15.5241 24.3212 14.7963C25.1252 13.9958 25.128 12.695 24.3274 11.891L14.0608 1.58057L14.0576 1.57776C13.9882 1.50835 13.9138 1.44389 13.8351 1.38494L13.8301 1.38063C13.0246 0.780813 11.8793 0.84746 11.1493 1.58057L0.8827 11.891L0.684273 12.1218C0.0892372 12.9273 0.157974 14.0685 0.888887 14.7963L1.11973 14.9948C1.92526 15.5898 3.06645 15.5211 3.79425 14.7901L10.5505 8.00774L10.5505 25.4153L10.5693 25.6941Z" fill="white"/>
</svg>
