<svg width="346" height="208" viewBox="0 0 346 208" fill="none" xmlns="http://www.w3.org/2000/svg">
<path fill-rule="evenodd" clip-rule="evenodd" d="M30.1866 119.633C30.1794 119.645 30.177 119.661 30.1674 119.68C30.099 119.842 29.8599 120.412 29.5031 121.25C27.7337 125.431 23.122 136.352 22.6091 137.521C22.0854 138.72 24.3017 140.421 26.3294 141.216C26.7402 141.378 27.1426 141.505 27.5138 141.578C27.5186 141.583 27.5187 141.583 27.5211 141.583C29.2352 141.932 30.9446 132.123 31.6173 127.749C31.6762 127.375 31.7266 127.045 31.7675 126.762C31.8648 126.092 31.9201 125.696 31.9201 125.696L30.1866 119.633Z" fill="#1A62C6"/>
<path fill-rule="evenodd" clip-rule="evenodd" d="M29.337 116.177L29.2313 116.055L29.1184 115.921L28.9754 115.757L28.9394 115.71L28.8889 115.651C26.2954 115.656 26.4276 117.603 26.4276 117.603C26.4276 117.603 26.1705 117.744 25.9519 117.687C25.7296 117.628 24.3878 116.759 24.2833 116.441C24.1752 116.124 24.2016 115.447 24.3566 115.151C24.3842 115.095 24.4599 115.006 24.5704 114.895C25.0545 114.403 26.1825 113.485 26.5621 113.478C27.027 113.463 28.3724 113.513 28.5778 113.757L28.5826 113.759C28.782 114.005 29.3034 115.617 29.3478 115.748C29.3899 115.877 29.3418 116.145 29.337 116.177Z" fill="#242930"/>
<path d="M52.1478 55.0044V64.8415C52.1478 66.9689 51.1808 68.9306 49.5435 70.5198C47.1049 72.9103 43.148 74.4659 38.6997 74.4659C37.2666 74.4659 35.8912 74.311 34.601 74.0107C33.9908 73.8677 33.4058 73.7007 32.8424 73.5085C31.7553 73.1289 30.751 72.6497 29.8549 72.0863C27.0439 70.3168 25.2637 67.7221 25.2637 64.8415V55.0044H52.1478Z" fill="#FFC13E"/>
<path opacity="0.9" d="M72.3159 15.6138L71.3369 17.5262L52.148 55.0042H25.2627L29.8539 47.5804L32.8414 42.7382L34.6001 39.8924L49.6014 15.6138H72.3159Z" fill="#FFC13E"/>
<path d="M316.345 72.0872V193.057H29.8535V72.0872C30.7497 72.6506 31.7539 73.1287 32.841 73.5095C33.4044 73.7017 33.9894 73.8687 34.5997 74.0117C35.8898 74.312 37.2653 74.4669 38.6984 74.4669C43.1466 74.4669 47.1036 72.9113 49.5421 70.5208C51.1794 68.9327 52.1464 66.9711 52.1464 64.8425V55.0054H294.05V64.8425C294.05 66.9699 295.017 68.9315 296.656 70.5208C299.095 72.9113 303.052 74.4669 307.498 74.4669C308.933 74.4669 310.319 74.312 311.61 74.0117C312.221 73.8687 312.795 73.7017 313.355 73.5095C314.445 73.1287 315.45 72.6506 316.345 72.0872Z" fill="#F2F2F2"/>
<path d="M316.345 9.80466V47.5806L313.356 42.7383L311.611 39.9178L296.597 15.6139H49.601L34.5997 39.8925L32.841 42.7383L29.8535 47.5806V9.80466C29.8535 4.38699 34.2405 0 39.6678 0H306.529C311.959 0 316.345 4.38699 316.345 9.80466Z" fill="#DFE1E4"/>
<path d="M311.611 74.0107V195.614H34.5996V74.0107C35.8898 74.311 37.2652 74.4659 38.6983 74.4659C43.1466 74.4659 47.1035 72.9103 49.5421 70.5198C51.1794 68.9318 52.1464 66.9701 52.1464 64.8415V55.0044H294.05V64.8415C294.05 66.9689 295.017 68.9306 296.656 70.5198C299.095 72.9103 303.052 74.4659 307.498 74.4659C308.934 74.4659 310.319 74.311 311.611 74.0107Z" fill="#A2DFFF"/>
<path d="M311.611 10.3897V39.9191L296.597 15.6152H49.6009L34.5996 39.8938V10.3897C34.5996 7.04425 37.3145 4.31738 40.672 4.31738H305.537C308.885 4.31738 311.611 7.04304 311.611 10.3897Z" fill="#A2DFFF"/>
<path d="M305.537 2.57178H40.6718C36.3557 2.57178 32.8408 6.07466 32.8408 10.3896V42.7394L34.5994 39.8936L49.6008 15.615H296.596L311.609 39.9189L313.355 42.7394V10.3896C313.356 6.07466 309.842 2.57178 305.537 2.57178ZM311.611 74.0105C310.32 74.3109 308.934 74.4658 307.499 74.4658C303.053 74.4658 299.096 72.9102 296.657 70.5197C295.018 68.9316 294.051 66.97 294.051 64.8413V55.0043H52.1474V64.8413C52.1474 66.9688 51.1804 68.9304 49.5431 70.5197C47.1045 72.9102 43.1476 74.4658 38.6993 74.4658C37.2663 74.4658 35.8908 74.3109 34.6007 74.0105C33.9904 73.8676 33.4054 73.7006 32.842 73.5084V195.614C32.842 196.583 33.6312 197.371 34.6007 197.371H311.612C312.57 197.371 313.357 196.583 313.357 195.614V73.5084C312.796 73.7018 312.221 73.8676 311.611 74.0105Z" fill="#EAEBEC"/>
<path d="M0.25706 196.23C0.25706 202.715 9.33136 207.972 20.5259 207.972H325.672C336.867 207.972 345.942 202.715 345.942 196.23V193.058H0.255859V196.23H0.25706Z" fill="#D8DBDE"/>
<path d="M294.05 64.8425V55.0054H52.1473V64.8425C52.1473 66.9699 51.1803 68.9315 49.543 70.5208V177.804C49.543 178.773 50.3202 179.549 51.2872 179.549H294.912C295.88 179.549 296.657 178.773 296.657 177.804V70.5208C295.016 68.9315 294.05 66.9699 294.05 64.8425Z" fill="white"/>
<path d="M320.937 55.0039V64.841C320.937 67.7216 319.155 70.3175 316.345 72.0858C315.45 72.6492 314.445 73.1273 313.356 73.5081C312.796 73.7003 312.222 73.8672 311.611 74.0102C310.321 74.3105 308.934 74.4655 307.499 74.4655C303.053 74.4655 299.096 72.9098 296.657 70.5193C295.018 68.9313 294.051 66.9696 294.051 64.841V55.0039H320.937Z" fill="#FFC13E"/>
<path opacity="0.9" d="M320.937 55.0042H294.051L274.863 17.5262L273.882 15.6138H296.598L311.611 39.9188L313.356 42.7382L316.345 47.5804L320.937 55.0042Z" fill="#FFC13E"/>
<path opacity="0.4" d="M294.051 55.0042H267.175L254.397 17.5262L253.74 15.6138H273.882L274.863 17.5262L294.051 55.0042Z" fill="#FFC13E"/>
<path opacity="0.9" d="M267.175 55.0042H240.3L233.154 17.5262L232.795 15.6138H253.74L254.397 17.5262L267.175 55.0042Z" fill="#FFC13E"/>
<path opacity="0.4" d="M240.3 55.0042H213.416V15.6138H232.795L233.154 17.5262L240.3 55.0042Z" fill="#FFC13E"/>
<path opacity="0.9" d="M213.415 15.6138H186.542V55.0042H213.415V15.6138Z" fill="#FFC13E"/>
<path opacity="0.4" d="M186.543 15.6138H159.657V55.0042H186.543V15.6138Z" fill="#FFC13E"/>
<path d="M345.942 196.23C345.942 198.046 345.23 199.765 343.959 201.301H2.23989C0.968959 199.767 0.257812 198.046 0.257812 196.23V193.058H345.944V196.23H345.942Z" fill="#EAEBEC"/>
<path d="M211.997 193.058H134.206V196.706H211.997V193.058Z" fill="#D8DBDE"/>
<path d="M198.734 147.028H147.468C146.073 147.028 144.941 145.897 144.941 144.5V93.233C144.941 91.8396 146.072 90.708 147.468 90.708H198.734C200.127 90.708 201.259 91.8384 201.259 93.233V144.5C201.258 145.896 200.127 147.028 198.734 147.028Z" fill="#EC0B43"/>
<path d="M129.406 146.462H78.1407C76.7449 146.462 75.6133 145.332 75.6133 143.935V92.6676C75.6133 91.2742 76.7437 90.1426 78.1407 90.1426H129.406C130.801 90.1426 131.932 91.273 131.932 92.6676V143.935C131.932 145.332 130.801 146.462 129.406 146.462Z" fill="#EC0B43"/>
<path d="M268.06 147.247H216.795C215.401 147.247 214.269 146.115 214.269 144.72V93.4528C214.269 92.0593 215.4 90.9277 216.795 90.9277H268.06C269.457 90.9277 270.587 92.0581 270.587 93.4528V144.72C270.586 146.115 269.457 147.247 268.06 147.247Z" fill="#EC0B43"/>
<path d="M200.191 156.251C206.526 156.251 211.661 151.116 211.661 144.78C211.661 138.445 206.526 133.31 200.191 133.31C193.855 133.31 188.72 138.445 188.72 144.78C188.72 151.116 193.855 156.251 200.191 156.251Z" fill="#F3BE22"/>
<path d="M197.866 149.566L193.52 144.63L195.225 143.128L198.076 146.366L205.365 139.993L206.86 141.704L197.866 149.566Z" fill="white"/>
<path d="M163.83 157.695C163.83 159.251 162.566 160.511 161.01 160.511C159.45 160.511 158.188 159.251 158.188 157.695C158.188 156.135 159.45 154.872 161.01 154.872C162.566 154.873 163.83 156.136 163.83 157.695Z" fill="#F3BE22"/>
<path opacity="0.3" d="M175.919 157.695C175.919 159.251 174.659 160.511 173.1 160.511C171.543 160.511 170.28 159.251 170.28 157.695C170.28 156.135 171.543 154.872 173.1 154.872C174.659 154.873 175.919 156.136 175.919 157.695Z" fill="#F3BE22"/>
<path opacity="0.3" d="M188.011 157.695C188.011 159.251 186.747 160.511 185.191 160.511C183.634 160.511 182.369 159.251 182.369 157.695C182.369 156.135 183.634 154.872 185.191 154.872C186.747 154.873 188.011 156.136 188.011 157.695Z" fill="#F3BE22"/>
<path d="M117.543 133.408C116.137 131.632 111.566 125.499 110.943 120.256C110.711 118.254 110.743 116.265 111.212 114.569C112.223 110.933 113.346 108.396 113.394 108.281C113.394 108.281 111.139 104.609 111.257 97.4461L110.768 97.2707C110.015 97.0029 109.193 97.4329 108.988 98.2065C108.443 100.243 106.954 102.741 104.297 102.741C101.435 102.741 99.983 100.247 99.2262 98.108C98.9487 97.3224 97.9769 97.0425 97.3102 97.5446L96.36 98.263C96.7588 100.37 97.4507 105.736 94.9677 109C94.9677 109 98.8358 115.978 97.4459 120.257C96.0669 124.534 89.5957 133.591 89.5957 133.591C89.5957 133.591 94.808 139.419 103.774 139.419C113.694 139.419 117.951 133.91 117.951 133.91C117.951 133.91 117.804 133.727 117.543 133.408Z" fill="white"/>
<path d="M251.39 115.363C251.633 123.119 251.683 132.652 251.662 134.991C245.549 136.57 239.443 136.575 233.346 134.991C233.315 132.603 233.28 122.927 233.468 115.166C233.47 115.092 233.472 115.02 233.477 114.945C232.175 114.91 231.092 114.312 230.371 113.773C229.763 113.321 229.417 112.91 229.417 112.91C230.728 109.525 233.606 105.67 234.228 104.9H234.23C234.232 104.895 234.232 104.895 234.232 104.895C234.636 104.324 236.109 103.389 237.656 102.488C237.933 102.328 238.229 102.207 238.536 102.121C238.842 102.036 239.158 101.995 239.479 101.995C239.654 101.995 239.798 102.138 239.798 102.315V102.329C239.798 103.953 241.142 105.264 242.78 105.204C244.337 105.147 245.551 103.822 245.551 102.264C245.551 102.262 245.551 102.262 245.551 102.262C245.551 102.116 245.669 101.996 245.814 101.996C246.315 101.996 246.809 102.132 247.242 102.39C248.704 103.252 250.123 104.168 250.536 104.751C251.123 105.472 254.058 109.61 255.44 112.892C254.717 113.906 252.559 115.082 251.39 115.363Z" fill="white"/>
<path d="M161.243 135.125C160.288 134.32 151.048 126.189 163.855 123.302C163.874 123.295 163.897 123.292 163.918 123.292H165.215C166.156 123.292 166.918 124.057 166.918 124.996C166.918 125.101 166.978 125.2 167.074 125.244C168.081 125.744 173.796 127.699 179.512 111.4C185.623 93.9816 188.876 107.501 189.065 108.328C189.073 108.353 189.073 108.38 189.073 108.405L187.456 134.926C187.449 135.072 187.328 135.187 187.181 135.187H185.38C185.231 135.187 185.105 135.067 185.104 134.914L184.652 117.553C184.646 117.381 184.491 117.257 184.324 117.285L182.227 117.667C182.134 117.684 182.056 117.746 182.02 117.836L174.919 135.015C174.879 135.119 174.773 135.187 174.662 135.187H161.421C161.356 135.188 161.294 135.168 161.243 135.125Z" fill="white"/>
<path opacity="0.9" d="M113.405 15.6138L113.045 17.5262L105.897 55.0042H79.0234L91.8012 17.5262L92.4595 15.6138H113.405Z" fill="#FFC13E"/>
<path opacity="0.9" d="M159.658 15.6138H132.782V55.0042H159.658V15.6138Z" fill="#FFC13E"/>
<path opacity="0.6" d="M79.0234 55.0044V64.8415C79.0234 70.151 73.0099 74.4659 65.5861 74.4659C58.1612 74.4659 52.1465 70.151 52.1465 64.8415V55.0044H79.0234Z" fill="#FFC13E"/>
<path d="M105.897 55.0044V64.8415C105.897 70.151 99.8847 74.4659 92.4597 74.4659C85.048 74.4659 79.0225 70.151 79.0225 64.8415V55.0044H105.897Z" fill="#FFC13E"/>
<path opacity="0.6" d="M132.782 55.0044V64.8415C132.782 70.151 126.768 74.4659 119.345 74.4659C111.921 74.4659 105.896 70.151 105.896 64.8415V55.0044H132.782Z" fill="#FFC13E"/>
<path d="M159.658 55.0044V64.8415C159.658 70.151 153.643 74.4659 146.22 74.4659C138.795 74.4659 132.781 70.151 132.781 64.8415V55.0044H159.658Z" fill="#FFC13E"/>
<path opacity="0.6" d="M186.542 55.0044V64.8415C186.542 70.151 180.516 74.4659 173.104 74.4659C165.667 74.4659 159.656 70.151 159.656 64.8415V55.0044H186.542Z" fill="#FFC13E"/>
<path d="M213.417 55.0044V64.8415C213.417 70.151 207.403 74.4659 199.979 74.4659C192.554 74.4659 186.542 70.151 186.542 64.8415V55.0044H213.417Z" fill="#FFC13E"/>
<path opacity="0.6" d="M240.3 55.0044V64.8415C240.3 70.151 234.276 74.4659 226.855 74.4659C219.441 74.4659 213.415 70.151 213.415 64.8415V55.0044H240.3Z" fill="#FFC13E"/>
<path d="M267.176 55.0044V64.8415C267.176 70.151 261.163 74.4659 253.739 74.4659C246.314 74.4659 240.3 70.151 240.3 64.8415V55.0044H267.176Z" fill="#FFC13E"/>
<path opacity="0.6" d="M294.051 55.0044V64.8415C294.051 70.151 288.037 74.4659 280.613 74.4659C273.19 74.4659 267.175 70.151 267.175 64.8415V55.0044H294.051Z" fill="#FFC13E"/>
<path opacity="0.4" d="M92.4592 15.6138L91.801 17.5262L79.0232 55.0042H52.1475L71.3363 17.5262L72.3154 15.6138H92.4592Z" fill="#FFC13E"/>
<path opacity="0.4" d="M132.782 15.6138V55.0042H105.896L113.045 17.5262L113.404 15.6138H132.782Z" fill="#FFC13E"/>
<path d="M339.833 193.269H282.812L290.665 129.814H331.978L339.833 193.269Z" fill="#1A62C6"/>
<path d="M302.249 134.939C303.324 134.939 304.196 134.068 304.196 132.992C304.196 131.917 303.324 131.045 302.249 131.045C301.174 131.045 300.302 131.917 300.302 132.992C300.302 134.068 301.174 134.939 302.249 134.939Z" fill="#ECF0F6"/>
<path d="M322.175 134.941C323.251 134.941 324.123 134.068 324.123 132.992C324.123 131.916 323.251 131.044 322.175 131.044C321.099 131.044 320.227 131.916 320.227 132.992C320.227 134.068 321.099 134.941 322.175 134.941Z" fill="#ECF0F6"/>
<path d="M302.296 132.765C301.841 132.753 301.484 132.369 301.508 131.914C301.606 129.937 301.954 124.718 303.029 119.556C304.922 110.472 308.085 105.864 312.432 105.864C316.786 105.864 319.87 110.477 321.597 119.571C322.576 124.735 322.825 129.951 322.889 131.928C322.902 132.386 322.54 132.76 322.084 132.765C321.639 132.77 321.275 132.418 321.263 131.975C321.082 124.455 319.24 107.494 312.431 107.494C305.61 107.494 303.452 124.467 303.13 131.992C303.112 132.434 302.739 132.778 302.296 132.765Z" fill="#242930"/>
<path d="M335.45 193.375H248.452L256.462 152.648H327.441L335.45 193.375Z" fill="#242930"/>
<path d="M274.75 158.293C275.825 158.293 276.697 157.421 276.697 156.346C276.697 155.27 275.825 154.398 274.75 154.398C273.675 154.398 272.803 155.27 272.803 156.346C272.803 157.421 273.675 158.293 274.75 158.293Z" fill="#ECF0F6"/>
<path d="M308.712 158.294C309.788 158.294 310.661 157.422 310.661 156.346C310.661 155.27 309.788 154.397 308.712 154.397C307.636 154.397 306.764 155.27 306.764 156.346C306.764 157.422 307.636 158.294 308.712 158.294Z" fill="#ECF0F6"/>
<path d="M274.735 156.117H274.732C274.21 156.102 273.807 155.652 273.857 155.134C274.009 153.416 274.528 149.644 276.245 145.827C279.321 138.985 284.764 135.372 291.987 135.372C299.219 135.372 304.568 138.993 307.456 145.843C309.067 149.663 309.477 153.435 309.582 155.156C309.614 155.679 309.199 156.118 308.676 156.118C308.198 156.118 307.801 155.744 307.771 155.266C307.67 153.668 307.276 150.057 305.768 146.503C303.143 140.319 298.508 137.184 291.987 137.184C285.437 137.184 280.698 140.342 277.896 146.568C276.296 150.122 275.809 153.702 275.663 155.291C275.621 155.769 275.215 156.131 274.735 156.117Z" fill="#242930"/>
<path fill-rule="evenodd" clip-rule="evenodd" d="M31.3058 180.468C31.3058 180.468 30.7112 180.264 30.3688 180.471C30.0253 180.673 27.3969 184.392 27.1711 184.769C26.9416 185.144 26.872 185.86 26.8527 186.797C26.8347 187.73 26.8527 189.539 26.8527 189.978C26.8527 190.421 26.9584 190.745 27.3969 190.745C27.8365 190.745 28.3291 190.745 28.3291 190.745C28.3291 190.745 29.6817 192.924 30.0169 193.317C30.3496 193.709 30.3316 193.681 30.6307 193.681C30.9298 193.681 35.0261 193.681 35.5174 193.681C36.0099 193.681 36.255 193.029 36.0976 192.365C35.9402 191.7 34.2681 189.945 34.2681 189.945C34.2681 189.945 33.778 188.362 33.8645 186.25C33.9534 184.138 34.7606 183.678 34.8495 183.341C34.936 182.998 34.5143 182.533 34.5143 182.533C34.5143 182.533 31.6169 182.945 31.3058 180.468Z" fill="#242930"/>
<path fill-rule="evenodd" clip-rule="evenodd" d="M40.2111 182.113C40.2111 182.113 39.8772 181.951 38.796 182.071C37.7161 182.188 36.1857 182.13 35.9491 182.43C35.9491 182.43 35.9226 182.796 36.0728 183.166C36.2217 183.543 37.7341 184.522 37.7341 184.522L40.4213 182.657C40.4213 182.657 40.4309 182.256 40.2111 182.113Z" fill="#7D1416"/>
<path fill-rule="evenodd" clip-rule="evenodd" d="M39.2451 180.658L39.6463 181.188L40.0776 182.692C40.0776 182.692 37.7243 184.053 37.663 184.046C37.5994 184.034 36.6071 183.79 36.5362 183.703C36.4654 183.619 36.0449 182.842 36.0449 182.842L36.1146 181.789L39.2451 180.658Z" fill="#EEBEA7"/>
<path fill-rule="evenodd" clip-rule="evenodd" d="M35.9489 183.124C35.9489 183.124 35.9489 187.314 35.9489 188.302C35.9489 189.287 36.5279 189.476 36.5279 189.476C36.5279 189.476 36.5279 190.006 36.5279 190.583C36.5279 191.162 37.1778 192.508 37.5298 193.018C37.8818 193.529 38.1448 193.68 38.832 193.68C39.5167 193.68 42.1522 193.68 42.6616 193.68C43.1733 193.68 43.7175 193.446 43.7175 192.507C43.7175 191.571 43.7175 191.364 43.7175 190.771C43.7175 190.175 43.1217 189.424 42.4694 188.762C41.8195 188.096 40.8705 186.889 40.8705 185.271C40.8705 183.654 40.8705 183.244 40.8705 182.736C40.8705 182.221 40.211 182.113 40.211 182.113C40.211 182.113 40.7035 182.869 36.3345 182.869C36.3345 182.869 36.0546 182.812 35.9489 182.43C35.9489 182.429 35.7123 182.8 35.9489 183.124Z" fill="#242930"/>
<path fill-rule="evenodd" clip-rule="evenodd" d="M31.6169 179.858L31.4608 180.262C31.4608 180.262 31.1256 180.708 31.0355 180.818C30.9454 180.929 30.8001 181.466 31.5893 182.243C32.3797 183.015 34.1996 183.179 34.393 182.94C34.5864 182.701 34.4375 182.361 34.6921 181.797C34.9468 181.235 31.6169 179.858 31.6169 179.858Z" fill="#EEBEA7"/>
<path fill-rule="evenodd" clip-rule="evenodd" d="M39.6466 181.188C39.5601 181.397 39.4123 181.474 39.4123 181.474C38.5642 182.053 36.6602 182.298 36.1017 182.051C36.02 182.018 35.9683 181.971 35.9491 181.917C35.9227 181.84 35.8182 181.464 35.6536 180.876C35.2464 179.426 34.4884 176.686 33.7772 174.03C33.1129 171.559 32.4907 169.166 32.2216 167.953C31.5549 164.922 31.5525 160.019 31.06 157.909C30.6948 156.339 29.4551 150.113 28.3451 145.165C28.0544 143.839 27.7685 142.605 27.5151 141.578C27.4406 141.282 27.3649 141.002 27.2976 140.748C27.0898 139.955 26.9241 139.16 26.7871 138.382C27.2664 135.475 27.8899 131.83 28.4761 128.524C29.3999 128.034 30.5014 127.81 31.6174 127.749C31.9453 127.727 32.2756 127.721 32.6012 127.73C32.7706 127.735 32.9375 127.737 33.1069 127.749H33.1117C33.161 127.749 33.2126 127.751 33.2595 127.756C33.5322 127.773 33.8012 127.793 34.0619 127.822C36.1509 128.046 37.8279 128.573 37.8279 128.573C37.8279 128.573 37.8279 128.622 37.8279 128.716C37.8399 129.745 37.9012 136.066 37.9936 142.402V142.404C38.0141 143.864 38.0345 145.326 38.0561 146.719C38.1402 151.505 38.2315 155.539 38.3228 156.226C38.3985 156.801 38.5558 159.349 38.73 162.603C38.939 166.362 39.1757 171.066 39.3643 174.736V174.739C39.5324 178.037 39.6634 180.496 39.6898 180.693C39.7222 180.907 39.6934 181.07 39.6466 181.188Z" fill="#3A414E"/>
<path fill-rule="evenodd" clip-rule="evenodd" d="M49.897 140.948C49.897 140.948 49.897 140.951 49.897 140.955C49.897 140.958 49.897 140.958 49.897 140.963C49.897 141.392 49.8946 141.829 49.891 142.267C49.8838 143.382 49.8742 144.512 49.8658 145.615C49.8202 149.987 49.7361 153.982 49.5703 155.405C49.1487 159.082 46.5467 164.122 42.5393 169.912C41.409 171.544 40.3326 173.198 39.3632 174.734V174.736C37.7163 177.352 36.3889 179.618 35.6525 180.876C35.2934 181.496 35.0747 181.868 35.0327 181.917C34.9077 182.058 34.7276 182.119 34.5726 182.141C34.5089 182.153 34.4477 182.155 34.3996 182.155C34.2411 182.155 32.289 181.643 31.4842 180.419C31.4842 180.419 31.4734 180.358 31.4589 180.262V180.259C31.4301 180.025 31.3845 179.598 31.4445 179.38C31.4734 179.279 32.4572 177.039 33.7738 174.031C35.2994 170.547 37.273 166.031 38.7266 162.602C39.7993 160.071 40.5933 158.135 40.711 157.654C41.069 156.209 40.5885 153.553 38.9704 146.582C38.6821 145.332 38.3529 143.945 37.9914 142.403V142.401C35.5877 132.239 34.6627 128.776 34.6627 128.776L37.8256 128.715L45.8872 128.567L48.13 128.522C48.9661 133.159 49.5763 137.755 49.897 140.948Z" fill="#242930"/>
<path opacity="0.8" fill-rule="evenodd" clip-rule="evenodd" d="M50.0178 142.233V142.236C49.9758 142.246 49.9325 142.255 49.8905 142.266C49.6166 142.332 49.3439 142.376 49.0808 142.404C47.6045 142.557 46.5185 134.768 45.8903 128.566C45.4771 124.49 45.2656 121.105 45.2656 121.105L46.2363 119.83C46.2399 119.837 46.2422 119.847 46.2471 119.855C46.2495 119.86 46.2495 119.867 46.2519 119.872C46.9606 122.526 47.5925 125.531 48.133 128.52C48.9655 133.156 49.5757 137.753 49.8965 140.946C49.8965 140.946 49.8965 140.948 49.8965 140.953C49.8965 140.955 49.8965 140.955 49.8965 140.96C49.9445 141.415 49.9818 141.839 50.0178 142.233Z" fill="#FFBE55"/>
<path fill-rule="evenodd" clip-rule="evenodd" d="M34.3831 83.856C33.3404 82.4313 33.3272 84.5792 33.4918 85.0897C33.6984 85.7348 34.1225 86.0255 34.4252 85.897C34.7291 85.7696 34.3831 83.856 34.3831 83.856Z" fill="white"/>
<path fill-rule="evenodd" clip-rule="evenodd" d="M42.2349 84.5108C43.513 83.2796 43.1466 85.3974 42.8944 85.8743C42.576 86.4749 42.1063 86.6935 41.8313 86.5169C41.5562 86.338 42.2349 84.5108 42.2349 84.5108Z" fill="white"/>
<path fill-rule="evenodd" clip-rule="evenodd" d="M40.9973 88.7382V88.8859C40.9408 88.9868 40.8796 89.0877 40.8231 89.179C40.3114 90.0211 39.6291 90.5472 38.9912 90.8331C38.4963 91.0602 38.0266 91.1455 37.6902 91.1166C37.5905 91.107 37.4872 91.089 37.3719 91.0554C36.865 90.9244 36.2223 90.5605 35.6865 89.9334V88.7369C35.6865 88.0775 35.946 87.4792 36.3688 87.0216C36.8542 86.4978 37.5629 86.1675 38.3437 86.1675C39.3239 86.1675 40.1876 86.6912 40.6453 87.46C40.8712 87.8396 40.9973 88.2733 40.9973 88.7382Z" fill="#F16A5B"/>
<path fill-rule="evenodd" clip-rule="evenodd" d="M50.0181 142.234C49.9821 141.84 49.9436 141.414 49.8956 140.962C49.8956 140.957 49.8956 140.957 49.8956 140.954C49.8956 140.95 49.8956 140.947 49.8956 140.947C49.5749 137.754 48.9658 133.158 48.1321 128.521C47.5916 125.533 46.9585 122.527 46.251 119.874C46.6126 120.765 52.3305 135.007 53.4922 137.564C54.5397 139.878 52.2489 141.657 50.0181 142.234Z" fill="#1A62C6"/>
<path fill-rule="evenodd" clip-rule="evenodd" d="M50.1205 145.16C50.0592 145.354 49.9703 145.504 49.8658 145.615C49.437 146.087 48.7474 145.908 48.7474 145.908C45.5905 145.295 42.0204 146.095 38.9728 146.582C38.6605 146.631 38.3554 146.676 38.0551 146.718C36.5499 146.929 35.2069 147.008 34.1582 146.727C32.3383 146.242 30.0427 145.711 28.3441 145.164C26.9554 144.719 25.9668 144.256 25.9668 143.796C25.9668 143.604 26.1025 142.644 26.3284 141.216C26.4569 140.404 26.6119 139.442 26.7861 138.382C27.2654 135.475 27.8888 131.829 28.475 128.523C28.9387 125.894 29.3784 123.482 29.7039 121.828C29.7039 121.825 29.7039 121.825 29.7039 121.825C29.9177 120.71 30.0859 119.939 30.1664 119.681C30.176 119.662 30.1784 119.646 30.1856 119.634C30.3634 119.172 30.5256 118.482 30.6409 117.724C31.6872 118.975 32.8152 120.316 32.8944 120.441C33.0434 120.671 34.1041 121.323 34.3732 121.549C34.6459 121.781 35.9312 123.895 36.0177 124.134C36.1018 124.368 36.9919 126.492 37.0472 126.741C37.1049 126.989 36.4045 126.968 36.133 126.583C35.8615 126.204 35.339 124.899 35.2477 124.7C35.1612 124.5 34.3396 123.583 34.2315 123.457C34.1209 123.334 34.02 123.581 34.0284 123.789C34.0368 123.996 34.1606 125.124 34.1822 125.357C34.1966 125.549 34.1113 127.161 34.0597 127.823C36.1487 128.047 37.8256 128.574 37.8256 128.574C37.8256 128.574 37.8256 128.623 37.8256 128.717L45.8873 128.569C45.474 124.493 45.2626 121.108 45.2626 121.108L46.2332 119.834C46.2368 119.841 46.2392 119.85 46.244 119.859C46.2464 119.864 46.2464 119.871 46.2488 119.876C46.9576 122.529 47.5894 125.535 48.13 128.523C48.9625 133.159 49.5727 137.756 49.8934 140.949C49.8934 140.949 49.8934 140.952 49.8934 140.956C49.8934 140.959 49.8934 140.959 49.8934 140.964C49.9415 141.417 49.9787 141.841 50.016 142.236V142.238C50.1565 143.85 50.1925 144.916 50.1205 145.16Z" fill="#1A62C6"/>
<path fill-rule="evenodd" clip-rule="evenodd" d="M37.0489 126.74C37.1065 126.989 36.4062 126.967 36.1347 126.583C35.8632 126.203 35.3407 124.898 35.2494 124.699C35.1629 124.5 34.3412 123.582 34.2331 123.456C34.1226 123.333 34.0217 123.581 34.0301 123.788C34.0385 123.995 34.1623 125.123 34.1839 125.356C34.1983 125.548 34.113 127.16 34.0613 127.822C34.0493 127.97 34.0373 128.071 34.0325 128.097C33.9989 128.226 33.4703 128.273 33.2589 127.757C33.2445 127.73 33.2337 127.694 33.2241 127.657C33.2241 127.657 33.1796 127.701 33.1111 127.75H33.1063C33.0138 127.807 32.8745 127.866 32.722 127.821C32.6751 127.804 32.6378 127.777 32.6006 127.732C32.4456 127.523 32.4144 126.981 32.2426 126.181C32.036 125.21 31.7249 124.091 31.5783 123.796C31.4318 123.503 31.6697 124.861 31.9556 125.811C31.9556 125.811 32.1045 126.388 31.9435 126.724C31.9435 126.724 31.8763 126.798 31.7657 126.764C31.7045 126.75 31.63 126.698 31.5423 126.586C31.3057 126.271 30.4636 124.219 30.3627 123.853C30.2642 123.485 30.2642 123.173 30.0612 122.775C29.9783 122.608 29.8425 122.233 29.7032 121.832C29.7032 121.829 29.7032 121.829 29.7032 121.829C29.6335 121.637 29.5663 121.442 29.5014 121.259V121.254C29.3668 120.874 29.2455 120.54 29.177 120.432C29.0569 120.235 27.3271 118.504 26.425 117.607C26.425 117.607 26.2928 115.66 28.8863 115.655L28.9368 115.714L28.9728 115.76L29.1158 115.925L29.2287 116.058L29.3344 116.181C29.3344 116.183 29.3344 116.183 29.3344 116.183C29.6756 116.589 30.1501 117.146 30.639 117.727C31.6853 118.977 32.8132 120.319 32.8925 120.444C33.0415 120.674 34.1022 121.326 34.3713 121.552C34.644 121.784 35.9293 123.898 36.0158 124.137C36.1035 124.367 36.9924 126.491 37.0489 126.74Z" fill="#EEBEA7"/>
<path fill-rule="evenodd" clip-rule="evenodd" d="M40.9973 88.8857V90.9999C40.6777 91.3219 40.1492 91.49 39.6483 91.5813C38.9732 91.7063 38.3437 91.6847 38.3437 91.6847C38.3437 91.6847 37.5244 91.7123 36.7484 91.5201C36.3424 91.4192 35.9484 91.257 35.6865 90.9987V89.9332C36.2223 90.5591 36.865 90.9231 37.3719 91.0552C37.4872 91.0876 37.5905 91.1069 37.6902 91.1165C38.0266 91.1441 38.4963 91.06 38.9912 90.833C39.6291 90.5471 40.3126 90.0209 40.8231 89.1788C40.8808 89.0875 40.9408 88.9866 40.9973 88.8857Z" fill="#C38E74"/>
<path fill-rule="evenodd" clip-rule="evenodd" d="M37.3735 91.0562C36.8666 90.9253 36.2239 90.5613 35.6881 89.9342C35.401 89.5991 35.1404 89.1835 34.9506 88.6909C34.7872 88.2657 34.6358 87.8092 34.5049 87.3299C34.9013 86.7761 35.1944 86.0554 35.4106 85.2529C35.7109 85.8343 36.0389 86.4398 36.3716 87.0224C36.6167 87.4476 36.8654 87.8573 37.108 88.2381C37.9933 89.6063 37.9104 90.4784 37.3735 91.0562Z" fill="#070C16"/>
<path fill-rule="evenodd" clip-rule="evenodd" d="M41.8779 87.0514V87.0538C41.6196 87.7061 41.3157 88.3284 40.9985 88.8857C40.9421 88.9866 40.8808 89.0875 40.8244 89.1788C40.3126 90.0209 39.6303 90.547 38.9924 90.8329L38.6309 90.4269L40.6466 87.4611L41.6364 86.0063C41.6736 86.4184 41.7469 86.7787 41.8779 87.0514Z" fill="#070C16"/>
<path fill-rule="evenodd" clip-rule="evenodd" d="M46.6712 95.5778C46.6675 95.6271 46.6651 95.6763 46.6567 95.7232C46.6567 95.7352 46.6567 95.7508 46.6543 95.7628C46.6519 95.8121 46.6447 95.8661 46.6351 95.9202C46.6219 96.0115 46.6111 96.1028 46.5907 96.1965C46.5775 96.271 46.5654 96.3466 46.5462 96.4223C46.5282 96.5088 46.5102 96.5977 46.4874 96.6878C46.4633 96.7767 46.4381 96.8656 46.4105 96.9484C46.4069 96.9557 46.4069 96.9605 46.4045 96.9677C46.3756 97.0542 46.3432 97.1371 46.3096 97.2139C46.2771 97.2908 46.2411 97.3641 46.2051 97.4398C46.1666 97.513 46.1282 97.5803 46.0861 97.6488C46.0669 97.6788 46.0465 97.71 46.0249 97.7401C45.9456 97.865 45.8579 97.9791 45.7618 98.0848C45.7246 98.1317 45.6861 98.1761 45.6441 98.2158C45.6248 98.2374 45.6032 98.2554 45.5828 98.277C45.4218 98.4368 45.2428 98.5774 45.0567 98.7023C45.0242 98.7239 44.9918 98.7419 44.9605 98.7611C44.8272 98.8476 44.6903 98.9209 44.5473 98.987C44.4885 99.0146 44.4272 99.041 44.3647 99.0639C44.2902 99.0963 44.2122 99.1275 44.1377 99.1504C44.08 99.1696 44.0212 99.1876 43.9659 99.2068C43.9359 99.2164 43.9071 99.226 43.8794 99.232C43.8085 99.2489 43.7389 99.2693 43.6692 99.2837C43.6656 99.2861 43.6656 99.2861 43.6632 99.2861C43.5839 99.3005 43.5034 99.3209 43.4266 99.3353C43.3232 99.3546 43.2211 99.3654 43.1214 99.375C43.047 99.3846 42.9749 99.3918 42.9004 99.3966C41.7928 99.4699 40.7321 99.1504 40.2168 98.5353C39.8985 98.1581 39.7387 97.5503 39.6798 96.8488C40.4666 96.4031 40.9964 95.573 40.9964 94.6312V88.888C41.3147 88.3294 41.6187 87.7084 41.8757 87.0561V87.0537C41.746 86.781 41.6715 86.4206 41.6343 86.0098C41.4913 84.4266 41.8925 82.185 41.8925 82.185C41.1417 82.0985 40.6865 81.8114 40.4126 81.451C40.2889 81.564 40.1663 81.6649 40.0438 81.749C38.7056 82.2931 36.2827 80.0432 35.7409 83.6349C35.6556 84.2007 35.5475 84.7473 35.4082 85.2566C35.1919 86.0591 34.8988 86.7798 34.5024 87.3336C34.6333 87.8117 34.7847 88.2694 34.9481 88.6946C35.1379 89.1871 35.3985 89.6028 35.6856 89.9379V90.595C35.6676 90.595 35.1006 90.5974 35.1006 90.9398V92.117C34.309 92.4317 34.2321 92.9411 34.4388 93.5669C34.5445 93.8997 34.7318 94.2709 34.9289 94.6601C36.6262 98.0404 32.4158 100.265 29.6193 98.7095C29.5821 98.6951 29.546 98.6723 29.5112 98.6506C28.8541 98.2614 28.3472 97.5779 28.1322 96.6734C28.0649 96.3851 28.0264 96.0727 28.0264 95.7376C28.0216 94.7802 28.3147 93.6594 29.0235 92.4317C29.7502 91.1716 30.5058 90.2563 30.7857 89.2364C30.0986 87.8597 28.6535 84.4013 30.6776 83.0559C33.9823 80.8648 32.6296 78.4767 34.5505 76.9343C36.4713 75.3859 40.7405 76.5824 41.2763 77.8353C41.412 78.15 41.4865 78.4611 41.5105 78.7614C45.375 78.8671 45.232 83.343 44.3563 85.1834C44.223 85.462 44.0776 85.7095 43.9203 85.9245V85.9269C43.6764 86.8867 43.5947 88.1865 44.2843 89.4887C45.3618 91.5248 46.6327 92.9471 46.6832 95.03C46.6904 95.209 46.6868 95.3892 46.6712 95.5778Z" fill="#242930"/>
<path fill-rule="evenodd" clip-rule="evenodd" d="M41.6368 86.0074C41.674 86.4183 41.7485 86.7799 41.8782 87.0513V87.0537C41.6199 87.706 41.316 88.3283 40.9989 88.8857C40.9424 88.9866 40.8812 89.0875 40.8247 89.1788C40.313 90.0208 39.6306 90.547 38.9928 90.8329C38.4979 91.0599 38.0282 91.1452 37.6918 91.1164C37.5921 91.1068 37.4888 91.0888 37.3735 91.0551C36.8666 90.9242 36.2239 90.5602 35.6881 89.9332C35.401 89.598 35.1404 89.1824 34.9506 88.6898C34.7872 88.2646 34.6358 87.8081 34.5049 87.3288C34.9013 86.7751 35.1944 86.0543 35.4106 85.2519C35.55 84.7425 35.6581 84.196 35.7434 83.6302C36.2852 80.0384 38.7081 82.2884 40.0463 81.7442C40.1688 81.6601 40.2913 81.5592 40.4151 81.4463C40.6902 81.8079 41.1442 82.0938 41.895 82.1803C41.8938 82.1827 41.4926 84.423 41.6368 86.0074Z" fill="#EEBEA7"/>
<path d="M64.0608 98.1437C63.9106 98.2205 63.8121 98.2722 63.7881 98.2818C63.8085 98.265 63.8914 98.2025 64.0151 98.104C64.0307 98.116 64.0476 98.128 64.0608 98.1437Z" fill="#EEA987"/>
<path d="M64.6762 98.8153C64.5261 98.8885 64.4179 98.9414 64.3711 98.9654C64.4179 98.9378 64.5164 98.8765 64.6558 98.79C64.6618 98.7984 64.6702 98.8056 64.6762 98.8153Z" fill="#EEA987"/>
<path d="M65.111 99.5934C64.9392 99.6666 64.8227 99.7159 64.7891 99.7291C64.8215 99.7099 64.9332 99.645 65.0942 99.5537C65.1014 99.5681 65.1038 99.5825 65.111 99.5934Z" fill="#EEA987"/>
<path d="M64.9872 100.443L64.9834 100.445V100.443H64.9872Z" fill="#EEA987"/>
<path d="M54.3676 109.713C53.4871 110.227 52.1933 110.919 51.6071 110.919C51.5362 110.919 51.4798 110.91 51.4317 110.894C50.7266 110.601 49.5325 108.454 47.5168 105.05C47.3943 104.841 47.2693 104.639 47.1456 104.44C46.2062 108.968 45.0626 113.735 45.0879 114.831C45.1227 116.259 45.9311 118.747 45.9311 118.747C46.0345 119.101 46.1366 119.465 46.2339 119.833L45.2632 121.107C45.2632 121.107 45.4747 124.492 45.8879 128.568L37.8263 128.716C37.8263 128.622 37.8263 128.573 37.8263 128.573C37.8263 128.573 36.1493 128.046 34.0603 127.822C34.112 127.16 34.1961 125.548 34.1829 125.356C34.1612 125.124 34.0375 123.995 34.0291 123.788C34.0207 123.579 34.1216 123.333 34.2321 123.456C34.3402 123.582 35.1607 124.499 35.2484 124.699C35.3397 124.898 35.8634 126.203 36.1337 126.582C36.4052 126.967 37.1055 126.988 37.0479 126.74C36.9914 126.491 36.1025 124.367 36.0184 124.133C35.9319 123.894 34.6453 121.78 34.3739 121.548C34.1036 121.322 33.0441 120.671 32.8951 120.44C32.8158 120.315 31.6878 118.974 30.6415 117.723C30.8181 116.541 30.8854 115.187 30.7148 114.218C30.5899 113.524 29.8163 110.018 29.1388 106.222C28.6655 108.634 28.1057 111.626 28.2066 111.712C28.3808 111.855 28.5045 112.096 28.4613 112.301C28.436 112.414 28.5081 113.138 28.5778 113.758C28.3724 113.514 27.027 113.465 26.5621 113.479C26.1825 113.486 25.0545 114.404 24.5704 114.897C24.4419 114.419 24.3157 113.865 24.3073 113.742C24.3025 113.538 24.3313 112.898 24.2749 112.635C24.2196 112.374 24.0334 112.384 24.1415 112.034C24.2533 111.682 24.4299 111.18 24.5572 110.653C24.6833 110.12 24.7025 100.297 25.5194 98.2556C26.0708 96.8801 27.2912 96.0969 28.03 95.7354C28.03 96.0705 28.0685 96.3828 28.1357 96.6711C28.352 97.5769 28.8589 98.2592 29.5148 98.6484C29.5496 98.67 29.5857 98.6929 29.6229 98.7073C32.4194 100.263 36.6298 98.0382 34.9324 94.6578C34.7354 94.2686 34.548 93.8974 34.4423 93.5647C34.8496 93.3773 35.1042 93.2127 35.1042 93.077V90.9375C35.1042 90.5952 35.6724 90.5928 35.6892 90.5928V91.0012C35.9511 91.2595 36.3451 91.4216 36.7511 91.5225C37.5272 91.7147 38.3464 91.6871 38.3464 91.6871C38.3464 91.6871 38.9747 91.7087 39.651 91.5838C40.1519 91.4925 40.6805 91.3231 41 91.0024V94.6314C41 95.572 40.4714 96.4033 39.6834 96.8489C39.7423 97.5505 39.9032 98.1583 40.2204 98.5355C40.7369 99.1505 41.7964 99.4689 42.904 99.3968C42.9785 99.392 43.0493 99.3848 43.125 99.3752C43.2247 99.3656 43.3268 99.3535 43.4301 99.3355C43.507 99.3211 43.5875 99.3007 43.6668 99.2863C43.6692 99.2863 43.6692 99.2863 43.6728 99.2839C43.7425 99.2694 43.8121 99.249 43.883 99.2322C43.9106 99.225 43.9395 99.2154 43.9695 99.207C44.0248 99.1878 44.0836 99.1698 44.1413 99.1505C44.2158 99.1265 44.2938 99.0965 44.3683 99.064C44.432 99.04 44.4933 99.0148 44.5509 98.9872C44.6939 98.9211 44.8296 98.849 44.9641 98.7613C44.9954 98.7421 45.0278 98.7241 45.0602 98.7025C45.2452 98.5775 45.4254 98.437 45.5864 98.2772C45.6068 98.2556 45.6284 98.2376 45.6477 98.216C45.6885 98.1763 45.7269 98.1319 45.7654 98.085C45.8615 97.9793 45.948 97.864 46.0285 97.7402C46.0501 97.7102 46.0705 97.679 46.0897 97.649C46.1306 97.5805 46.169 97.5132 46.2086 97.4399C46.2447 97.3655 46.2807 97.2922 46.3132 97.2141C46.3468 97.1372 46.3792 97.0543 46.408 96.9678C46.4105 96.9606 46.4105 96.9558 46.4141 96.9486C46.4417 96.8669 46.4681 96.7768 46.4909 96.688C46.5138 96.5991 46.5318 96.5102 46.5498 96.4225C46.569 96.348 46.581 96.2723 46.5942 96.1966C46.6159 96.1029 46.6255 96.0116 46.6387 95.9203C46.6483 95.8663 46.6555 95.8122 46.6579 95.763C46.6603 95.751 46.6603 95.7354 46.6603 95.7234C46.6687 95.6765 46.6711 95.6272 46.6747 95.578C46.6903 95.3906 46.6939 95.2092 46.6879 95.029C47.3186 95.2212 47.8267 95.3762 48.0598 95.4795C48.1859 95.5336 48.27 95.6981 48.3193 95.9552L52.0852 104.059C52.0852 104.059 52.3615 104.529 52.657 104.972C52.4227 105.408 52.2402 106.485 52.1969 106.905C52.1429 107.4 53.4006 109.272 53.6985 109.481C53.8414 109.585 54.1009 109.664 54.3676 109.713Z" fill="#1A62C6"/>
<path fill-rule="evenodd" clip-rule="evenodd" d="M68.408 97.6142C68.1918 97.7452 65.9382 99.0618 65.0938 99.5543C64.9328 99.6456 64.8211 99.7116 64.7886 99.7297C64.8211 99.7152 64.9388 99.666 65.1106 99.5939C65.8566 99.2744 67.6284 98.5452 67.775 98.6509C67.8891 98.7374 68.0501 98.9236 67.3173 99.2191C66.6025 99.5002 65.0829 100.388 64.9892 100.444C64.9892 100.444 64.9892 100.444 64.9844 100.444V100.447C64.9724 100.461 64.9568 100.477 64.94 100.486C64.0174 101.272 62.7477 101.592 62.6108 101.761C62.5315 101.862 62.278 102.066 62.0834 102.214C62.0834 102.214 62.081 102.216 62.0714 102.226C61.8612 102.452 59.043 105.438 56.7006 107.77C56.6814 107.676 56.6561 107.612 56.6561 107.612C56.6561 107.612 54.5167 107.486 54.8843 104.729L55.5738 104.04L55.5834 104.03C55.9582 103.769 56.3522 103.486 56.8916 103.038C58.4532 101.733 60.5038 100.187 60.6011 100.112C60.6047 100.112 60.6047 100.112 60.6047 100.112C60.7668 99.8438 60.8785 99.5435 60.7981 99.2816C60.6323 98.7182 60.8833 98.0851 60.9446 97.8293C61.0287 97.4845 61.0623 96.3601 61.329 96.4238C61.7795 96.5271 61.6738 98.317 61.7302 98.7002C61.7795 99.0305 62.6973 98.0995 63.1982 97.8184C63.2066 97.8112 63.2162 97.804 63.2258 97.7992C63.7507 97.4124 66.1497 95.655 66.4428 95.6646C66.7719 95.6814 66.8848 95.8424 66.6134 96.061C66.3947 96.2388 64.6493 97.6118 64.0186 98.1068C63.8937 98.2053 63.8108 98.2689 63.7916 98.2845C63.8156 98.2749 63.9141 98.2233 64.0643 98.1464C64.9688 97.6863 67.8326 96.2292 68.056 96.1896C68.2146 96.1643 68.3348 96.4574 68.2026 96.5884C68.0897 96.6941 65.5538 98.2449 64.6589 98.7915C64.5196 98.878 64.4211 98.9392 64.3742 98.9669C64.4211 98.9428 64.5292 98.89 64.6793 98.8167C65.5971 98.347 68.1281 97.0785 68.3191 97.1013C68.5258 97.1217 68.6759 97.4569 68.408 97.6142Z" fill="#EEBEA7"/>
<path fill-rule="evenodd" clip-rule="evenodd" d="M56.6766 108.128C56.5817 108.355 55.4453 109.669 55.0874 109.737C54.9096 109.77 54.6369 109.759 54.3714 109.713C54.3714 109.713 54.3714 109.713 54.3678 109.713C54.1011 109.664 53.8417 109.585 53.6927 109.481C53.3948 109.272 52.1371 107.401 52.1911 106.905C52.2344 106.484 52.417 105.408 52.6512 104.972C52.6921 104.888 52.7365 104.826 52.7846 104.796C53.0825 104.621 54.9048 104.285 55.0561 104.255C55.1967 104.227 55.5366 104.053 55.5823 104.029L55.5727 104.038L54.8832 104.728C54.5144 107.485 56.655 107.611 56.655 107.611C56.655 107.611 56.6802 107.675 56.6995 107.768C56.7175 107.872 56.7271 108.007 56.6766 108.128Z" fill="#242930"/>
</svg>
