<svg width="355" height="294" viewBox="0 0 355 294" fill="none" xmlns="http://www.w3.org/2000/svg">
<path opacity="0.1" d="M122.147 54.7476C122.147 54.7476 119 50.613 117.071 48.7181C113.598 45.3057 109.614 39.2745 96.8735 43.7198C95.883 44.0653 94.9238 44.5234 93.9705 44.985C92.8474 45.5286 89.3683 45.5428 85.805 42.3113C80.1434 37.1762 77.929 33.3016 70.1715 33.1813C61.1458 33.041 59.7261 45.8929 52.7109 49.1821C48.2467 51.2757 36.4683 53.3562 34.0322 54.2836L122.147 54.7476Z" fill="#2A94F4"/>
<path d="M30.9879 227.363C31.5827 227.399 46.6014 225.596 47.2841 211.63C47.9668 197.664 38.3958 194.205 40.915 178.658C43.4342 163.11 50.0415 158.642 35.2327 147.295C35.2327 147.295 28.6296 142.725 28.3218 136.316C27.954 128.644 14.7094 119.739 5.82579 124.857C-3.05779 129.975 -0.97014 137.883 6.63644 150.678C14.243 163.473 6.91295 165.707 5.45082 169.844C3.98929 173.98 0.598701 178.32 8.3627 188.207C16.1267 198.094 6.87699 210.166 13.486 219.633C13.4866 219.634 19.2862 226.641 30.9879 227.363Z" fill="#1A62C6"/>
<path d="M28.6422 248.77C28.3203 248.688 28.1128 248.368 28.1758 248.037C36.2435 205.409 19.7981 147.275 19.6312 146.693C19.5346 146.356 19.7291 146.005 20.0658 145.909C20.4018 145.811 20.7538 146.006 20.8499 146.343C21.0179 146.928 37.5446 205.352 29.4216 248.273C29.3567 248.618 29.0248 248.843 28.6805 248.778C28.6681 248.776 28.6551 248.773 28.6422 248.77Z" fill="#242930"/>
<path d="M25.2745 169.511C25.2397 169.502 25.2049 169.491 25.1713 169.475C24.8517 169.332 24.7085 168.957 24.8511 168.638C24.8847 168.562 28.237 161.029 29.6125 154.596C29.6862 154.253 30.0228 154.035 30.3654 154.108C30.7108 154.18 30.926 154.519 30.8529 154.861C29.4498 161.427 26.0432 169.079 26.0091 169.155C25.8811 169.441 25.5681 169.586 25.2745 169.511Z" fill="#242930"/>
<path d="M27.4437 182.407C27.3558 182.385 27.2709 182.343 27.196 182.281C24.0083 179.645 15.989 174.681 15.9082 174.631C15.6105 174.447 15.5179 174.056 15.7024 173.758C15.8858 173.461 16.2749 173.365 16.575 173.553C16.9069 173.758 24.7488 178.612 28.0043 181.304C28.2744 181.527 28.3121 181.927 28.0886 182.197C27.9277 182.393 27.6742 182.466 27.4437 182.407Z" fill="#242930"/>
<path d="M29.2444 194.964C29.2002 194.953 29.1565 194.937 29.1135 194.915C28.801 194.757 28.676 194.375 28.834 194.063L33.3035 185.234C33.4615 184.922 33.8418 184.795 34.156 184.955C34.4685 185.114 34.5935 185.495 34.4349 185.808L29.9654 194.636C29.8292 194.906 29.5256 195.036 29.2444 194.964Z" fill="#242930"/>
<path d="M167.909 86.9399L167.354 85.3569L166.799 86.9399C166.332 88.2747 165.22 89.4014 163.716 90.0664C165.22 90.732 166.331 91.8587 166.799 93.1929L167.354 94.7765L167.909 93.1929C168.376 91.8581 169.488 90.732 170.992 90.0664C169.488 89.4014 168.377 88.2747 167.909 86.9399Z" fill="white"/>
<path d="M260.878 69.0288L259.947 66.374L259.017 69.0288C258.232 71.2668 256.369 73.1558 253.847 74.2719C256.369 75.3879 258.232 77.2769 259.017 79.5149L259.947 82.1697L260.878 79.5149C261.662 77.2769 263.525 75.3879 266.048 74.2719C263.525 73.1552 261.662 71.2662 260.878 69.0288Z" fill="white"/>
<path d="M307.846 235.583H74.3662V109.526C74.3662 108.391 75.2859 107.471 76.4208 107.471H305.791C306.926 107.471 307.846 108.391 307.846 109.526V235.583Z" fill="#E5EDFA"/>
<path d="M318.763 249.129H63.4493C62.2808 249.129 61.334 248.181 61.334 247.013V235.584H320.879V247.013C320.878 248.181 319.931 249.129 318.763 249.129Z" fill="#D1DEF4"/>
<path opacity="0.5" d="M160.773 235.583L163.506 238.212C164.59 239.255 166.036 239.837 167.54 239.837H215.071C216.747 239.837 218.341 239.115 219.446 237.855L221.439 235.583H160.773Z" fill="white"/>
<path d="M299.159 115.946H83.0527V228.248H299.159V115.946Z" fill="white"/>
<path d="M196.784 86.6639C212.915 86.6639 225.992 73.5872 225.992 57.4562C225.992 41.3253 212.915 28.2485 196.784 28.2485C180.653 28.2485 167.576 41.3253 167.576 57.4562C167.576 73.5872 180.653 86.6639 196.784 86.6639Z" fill="#EF6587"/>
<path d="M196.784 82.1688C183.157 82.1688 172.071 71.0826 172.071 57.456C172.071 43.8294 183.158 32.7432 196.784 32.7432C210.411 32.7432 221.497 43.8294 221.497 57.456C221.497 71.0826 210.411 82.1688 196.784 82.1688Z" fill="#EC0B43"/>
<path d="M74.3195 130.143C84.7634 130.143 93.2299 121.677 93.2299 111.233C93.2299 100.789 84.7634 92.3223 74.3195 92.3223C63.8756 92.3223 55.4092 100.789 55.4092 111.233C55.4092 121.677 63.8756 130.143 74.3195 130.143Z" fill="#EF6587"/>
<path d="M74.3196 127.233C65.4967 127.233 58.3193 120.055 58.3193 111.233C58.3193 102.41 65.4973 95.2324 74.3196 95.2324C83.1418 95.2324 90.3198 102.41 90.3198 111.233C90.3198 120.055 83.1424 127.233 74.3196 127.233Z" fill="#EC0B43"/>
<path d="M218.861 275.524H181.041V280.917H218.861V275.524Z" fill="#FFBE55"/>
<path d="M199.951 267.877C189.507 267.877 181.041 273.715 181.041 280.917C181.041 288.119 189.508 293.958 199.951 293.958C210.395 293.958 218.861 288.119 218.861 280.917C218.862 273.715 210.395 267.877 199.951 267.877Z" fill="#EF6587"/>
<path d="M199.951 288.565C210.395 288.565 218.862 282.726 218.862 275.524C218.862 268.322 210.395 262.483 199.951 262.483C189.507 262.483 181.041 268.322 181.041 275.524C181.041 282.726 189.507 288.565 199.951 288.565Z" fill="#EF6587"/>
<path d="M199.951 286.558C191.129 286.558 183.951 281.608 183.951 275.524C183.951 269.44 191.129 264.49 199.951 264.49C208.774 264.49 215.952 269.44 215.952 275.524C215.952 281.608 208.774 286.558 199.951 286.558Z" fill="#EC0B43"/>
<path opacity="0.16" d="M189.484 163.567H104.778C104.442 163.567 104.17 163.294 104.17 162.959V136.046C104.17 135.711 104.442 135.438 104.778 135.438H189.483C189.819 135.438 190.091 135.711 190.091 136.046V162.959C190.092 163.294 189.819 163.567 189.484 163.567Z" fill="#B8B8B8"/>
<path d="M196.115 155.707H114.869C114.54 155.707 114.273 155.441 114.273 155.112V128.174C114.273 127.845 114.54 127.579 114.869 127.579H196.115C196.444 127.579 196.71 127.845 196.71 128.174V155.112C196.71 155.441 196.443 155.707 196.115 155.707Z" fill="#FFBE55"/>
<path d="M183.289 138.026H125.107C124.602 138.026 124.193 137.618 124.193 137.112C124.193 136.607 124.601 136.199 125.107 136.199H183.289C183.794 136.199 184.202 136.607 184.202 137.112C184.202 137.617 183.794 138.026 183.289 138.026Z" fill="white"/>
<path d="M151.99 147.087H125.107C124.602 147.087 124.193 146.679 124.193 146.174C124.193 145.669 124.601 145.261 125.107 145.261H151.99C152.495 145.261 152.903 145.669 152.903 146.174C152.903 146.679 152.495 147.087 151.99 147.087Z" fill="white"/>
<path opacity="0.16" d="M152.927 211.957H74.3672V182.372C74.3672 182.038 74.6378 181.768 74.9715 181.768H152.927C153.261 181.768 153.532 182.038 153.532 182.372V211.353C153.532 211.687 153.261 211.957 152.927 211.957Z" fill="#B8B8B8"/>
<path d="M166.635 203.522H55.799C55.4016 203.522 55.0791 203.199 55.0791 202.802V174.052C55.0791 173.655 55.4016 173.332 55.799 173.332H166.635C167.032 173.332 167.355 173.655 167.355 174.052V202.802C167.355 203.2 167.032 203.522 166.635 203.522Z" fill="#FFBE55"/>
<path d="M154.04 184.545H91.5941C91.0523 184.545 90.6143 184.107 90.6143 183.565C90.6143 183.023 91.0523 182.585 91.5941 182.585H154.04C154.582 182.585 155.02 183.023 155.02 183.565C155.02 184.107 154.582 184.545 154.04 184.545Z" fill="white"/>
<path d="M120.447 194.271H91.5941C91.0523 194.271 90.6143 193.833 90.6143 193.291C90.6143 192.749 91.0523 192.311 91.5941 192.311H120.447C120.989 192.311 121.427 192.749 121.427 193.291C121.427 193.833 120.99 194.271 120.447 194.271Z" fill="white"/>
<path d="M82.1044 196.862H64.0383C63.6846 196.862 63.3975 196.575 63.3975 196.222V179.932C63.3975 179.578 63.6846 179.291 64.0383 179.291H82.1044C82.4582 179.291 82.7453 179.578 82.7453 179.932V196.222C82.7453 196.576 82.4582 196.862 82.1044 196.862Z" fill="white"/>
<path opacity="0.11" d="M280.86 220.656H198.741C198.303 220.656 197.948 220.301 197.948 219.863V172.32C197.948 171.882 198.303 171.527 198.741 171.527H280.86C281.298 171.527 281.652 171.882 281.652 172.32V219.863C281.652 220.301 281.298 220.656 280.86 220.656Z" fill="#1A62C6"/>
<path d="M262.836 182.521H262.254V211.673H262.836V182.521Z" fill="white"/>
<path d="M254.039 182.521H253.456V211.673H254.039V182.521Z" fill="white"/>
<path d="M245.24 182.521H244.657V211.673H245.24V182.521Z" fill="white"/>
<path d="M236.443 182.521H235.86V211.673H236.443V182.521Z" fill="white"/>
<path d="M227.644 182.521H227.062V211.673H227.644V182.521Z" fill="white"/>
<path d="M218.846 182.521H218.264V211.673H218.846V182.521Z" fill="white"/>
<path d="M269.085 215.028H211.298V215.61H269.085V215.028Z" fill="white"/>
<path d="M231.792 210.704C231.559 210.704 231.32 210.675 231.079 210.616C227.727 209.792 225.998 206.712 224.606 204.238C223.637 202.512 222.721 200.881 221.719 200.881C218.455 200.881 216.401 204.737 214.749 207.836C214.431 208.435 214.131 208.995 213.845 209.486C213.54 210.014 212.867 210.2 212.332 209.885C211.804 209.579 211.625 208.9 211.933 208.372C212.206 207.904 212.491 207.367 212.796 206.795C214.624 203.365 217.127 198.668 221.719 198.668C224.018 198.668 225.241 200.847 226.537 203.154C227.84 205.474 229.187 207.872 231.608 208.467C231.81 208.518 231.95 208.496 232.113 208.388C233.544 207.445 234.374 202.44 235.041 198.419C236.045 192.367 236.842 187.571 239.808 187.571C239.847 187.571 239.888 187.571 239.929 187.575C242.912 187.702 243.806 191.59 244.75 195.708C245.538 199.146 246.432 203.044 248.363 203.326C250.646 203.663 251.533 202.886 252.66 201.91C253.706 201.005 255.017 199.883 257.383 200.096C259.496 200.291 260.693 201.683 261.747 202.912C263.19 204.59 264.539 206.175 268.408 205.785C269.02 205.748 269.559 206.168 269.621 206.775C269.682 207.383 269.24 207.926 268.631 207.989C263.62 208.498 261.652 206.2 260.068 204.356C259.002 203.115 258.344 202.408 257.179 202.3C255.743 202.166 255.06 202.762 254.11 203.585C252.869 204.661 251.329 205.994 248.041 205.517C244.613 205.016 243.586 200.537 242.592 196.205C241.941 193.37 241.132 189.842 239.834 189.786C239.83 189.786 239.826 189.786 239.82 189.786C238.718 189.786 237.71 195.858 237.226 198.782C236.373 203.915 235.569 208.761 233.332 210.237C232.86 210.547 232.337 210.704 231.792 210.704Z" fill="#EC0B43"/>
<path d="M155.496 272.932L98.4447 263.942C97.96 263.866 97.6287 263.411 97.7054 262.926C97.782 262.441 98.2366 262.11 98.7218 262.186L155.773 271.177C156.258 271.253 156.589 271.708 156.512 272.192C156.436 272.678 155.98 273.008 155.496 272.932Z" fill="#ECF0F6"/>
<path d="M136.345 276.781H85.0088C84.5725 276.781 84.2188 276.427 84.2188 275.991C84.2188 275.555 84.5725 275.201 85.0088 275.201H136.345C136.781 275.201 137.135 275.555 137.135 275.991C137.135 276.427 136.781 276.781 136.345 276.781Z" fill="#ECF0F6"/>
<path opacity="0.1" d="M214.051 9.47129C214.051 9.47129 215.63 7.65543 216.597 6.82355C218.34 5.32487 220.338 2.67596 226.729 4.6286C227.226 4.78012 227.707 4.98175 228.185 5.18456C228.749 5.42333 230.494 5.42923 232.281 4.01014C235.121 1.75505 236.232 0.0535662 240.123 0.000505257C244.651 -0.0613992 245.363 5.58311 248.882 7.02755C251.122 7.94668 257.03 8.8605 258.252 9.26789L214.051 9.47129Z" fill="#2A94F4"/>
<path d="M333.107 262.278C333.107 262.278 335.359 268.919 335.821 270.019C336.204 270.927 337.023 271.536 337.8 272.142C338.049 272.336 338.296 272.774 338.506 273.143C338.674 273.44 338.664 273.79 338.529 274.104C336.171 279.579 329.788 281.48 329.665 281.053C329.442 280.281 330.454 278.81 331.808 278.12C333.171 277.426 334.014 276.006 334.156 274.483C334.269 273.271 334.067 272.051 333.572 270.94L331.288 265.961L333.107 262.278Z" fill="#EEBEA7"/>
<path d="M323.657 269.915L321.712 276.769C321.118 278.865 321.296 281.109 322.211 283.085C322.211 283.086 322.211 283.087 322.211 283.087C322.725 284.192 322.142 285.494 320.973 285.84C317.195 286.958 309.871 289.075 309.566 288.786C308.009 287.311 312.452 285.269 315.775 283.047C318.016 281.548 319.255 274.056 319.765 268.286L323.139 269.336C323.4 269.425 323.597 269.645 323.657 269.915Z" fill="#EEBEA7"/>
<path d="M316.393 285.06C314.831 285.481 313.14 285.551 311.589 285.656C311.411 285.668 311.238 285.728 311.091 285.829C309.549 286.893 308.74 288.004 309.565 288.786C309.897 289.1 318.504 286.577 321.861 285.577C322.563 285.367 322.908 284.586 322.599 283.922L322.037 282.712C320.256 283.712 318.373 284.528 316.393 285.06Z" fill="#0B4870"/>
<path d="M325.006 192.496C329.056 193.278 332.273 198.174 331.266 203.388C330.688 206.383 327.283 217.034 323.722 225.405C322.356 228.617 322.635 232.36 324.708 235.169C325.046 235.627 325.335 236.097 325.559 236.571C326.716 239.013 330.901 253.298 333.296 262.808C332.996 264.019 332.181 265.53 331.235 266.02C326.553 257.798 319.026 242.846 317.795 240.248C317.112 238.805 316.37 237.139 315.847 235.584C312.774 231.014 314.767 206.535 315.701 201.699C316.709 196.486 320.956 191.714 325.006 192.496Z" fill="#242930"/>
<path d="M331.815 163.4C332.062 158.924 329.449 155.14 325.979 154.949C322.509 154.757 319.496 158.231 319.249 162.707C319.002 167.183 321.615 170.967 325.085 171.159C328.555 171.35 331.568 167.877 331.815 163.4Z" fill="#242930"/>
<path d="M326.976 163.973C327.323 159.492 331.163 155.922 335.657 155.913C339.644 155.905 342.941 158.53 344.034 162.078C344.416 163.321 345.567 164.18 346.867 164.232C347.407 164.254 347.959 164.334 348.518 164.481C351.764 165.335 354.16 168.249 354.322 171.602C354.468 174.626 352.912 177.246 350.566 178.661C349.566 179.264 348.957 180.322 348.733 181.469C347.698 186.775 342.599 190.433 337.063 189.517C332.328 188.732 328.733 184.602 328.591 179.805C328.503 176.863 329.657 174.232 331.535 172.335C328.601 170.744 326.699 167.541 326.976 163.973Z" fill="#242930"/>
<path d="M326.108 152.29C326.108 152.29 322.45 154.32 322.715 157.341C322.715 157.341 320.901 155.899 320.728 151.271C320.607 148.063 326.108 152.29 326.108 152.29Z" fill="#242930"/>
<path d="M322.852 170.429C322.768 171.48 322.538 172.643 321.914 173.795C321.586 174.368 321.16 174.915 320.642 175.374C320.118 175.824 319.53 176.168 318.938 176.407C317.747 176.868 316.616 176.95 315.597 176.911C314.571 176.872 313.623 176.71 312.718 176.494C310.912 176.055 309.263 175.411 307.669 174.705C306.076 173.996 304.546 173.211 303.059 172.365C300.086 170.677 297.253 168.822 294.498 166.869C291.743 164.914 289.076 162.861 286.552 160.589C286.274 160.339 286.252 159.912 286.501 159.635C286.734 159.377 287.12 159.34 287.396 159.537L287.405 159.544C288.738 160.507 290.131 161.413 291.535 162.292C292.938 163.174 294.353 164.038 295.787 164.865C298.652 166.52 301.578 168.065 304.56 169.408C306.053 170.07 307.55 170.705 309.058 171.238C310.562 171.772 312.086 172.215 313.551 172.458C314.281 172.583 314.996 172.646 315.64 172.625C316.288 172.612 316.848 172.487 317.205 172.306C317.562 172.118 317.712 171.943 317.873 171.625C318.018 171.29 318.132 170.782 318.142 170.169C318.165 168.866 319.239 167.828 320.542 167.85C321.845 167.873 322.884 168.947 322.861 170.25C322.861 170.298 322.858 170.344 322.855 170.39L322.852 170.429Z" fill="#EEBEA7"/>
<path d="M320.287 185.865C319.108 181.525 316.761 172.342 317.167 169.405C317.427 167.524 319.086 166.164 320.982 166.268L333.286 166.947C335.326 167.06 336.906 168.769 336.853 170.812C336.76 174.381 334.671 182.401 333.514 186.595L320.287 185.865Z" fill="#1A62C6"/>
<path d="M319.756 269.787C319.569 269.659 319.474 269.433 319.493 269.207C320.252 260.172 321.438 248.667 321.759 246.468C321.796 246.216 321.84 245.968 321.89 245.725C320.541 234.921 321.517 211.907 321.546 207.869C321.585 202.559 325.104 196.76 329.229 196.79C333.354 196.82 337.585 201.325 338.638 206.25C339.333 209.499 335.023 226.352 330.69 238.5C329.778 241.057 329.506 243.784 329.745 246.488C329.91 248.358 329.885 250.275 329.673 251.729C329.357 253.894 326.431 262.618 323.727 270.077C323.649 270.293 323.464 270.457 323.237 270.494C322.041 270.689 320.813 270.514 319.756 269.787Z" fill="#3A414E"/>
<path d="M334.623 192.076C334.085 190.254 333.999 188.331 334.37 186.468C335.231 182.142 336.769 173.987 336.861 170.494C336.911 168.627 335.465 167.068 333.6 166.965L331.776 166.864C330.992 168.437 329.451 169.601 327.162 169.474C324.876 169.348 323.472 168.022 322.865 166.372L321.152 166.278C322.794 170.366 321.834 175.588 318.462 178.479C318.941 180.616 319.325 182.761 319.605 184.498C319.984 186.85 319.626 189.26 318.59 191.405C316.809 195.092 315.23 201.076 315.468 203.495C328.209 207.877 337.518 201.878 337.518 201.878L334.623 192.076Z" fill="#1A62C6"/>
<path d="M325.277 167.355L330.891 167.077L329.462 160.872L325.827 161.119L325.277 167.355Z" fill="#EEBEA7"/>
<path d="M325.828 161.119L329.462 160.872L329.909 162.809C329.05 163.676 327.903 165.586 326.589 165.514C326.172 165.491 325.799 165.352 325.47 165.117L325.828 161.119Z" fill="#C38E74"/>
<path d="M325.539 164.065C326.765 164.132 328.125 163.592 330.039 162.097C331.138 161.239 332.003 159.685 332.062 158.605L332.391 152.636L323.202 152.129C323.202 152.129 322.337 155.261 322.833 158.442C323.206 160.83 324.575 164.012 325.539 164.065Z" fill="#EEBEA7"/>
<path d="M330.567 157.391C330.503 158.555 331.008 159.53 331.696 159.568C332.383 159.606 333.226 158.121 333.29 156.957C333.354 155.792 332.616 155.389 331.928 155.351C331.241 155.312 330.631 156.226 330.567 157.391Z" fill="#EEBEA7"/>
<path d="M333.485 153.422C333.588 151.559 332.16 149.964 330.296 149.862L327.194 149.693C326.307 149.644 325.46 149.364 324.729 148.895C323.669 148.213 322.274 148.344 321.471 149.316C320.604 150.366 320.174 151.813 322.146 153.283C323.126 154.014 324.655 153.349 325.627 153.727C325.689 153.728 325.743 153.721 325.807 153.725L328.541 153.876C329.491 153.928 330.175 154.745 330.15 155.696C330.134 156.297 330.6 156.806 331.205 156.839L331.326 156.846L331.841 155.467L333.254 157.609L333.485 153.422Z" fill="#242930"/>
<path d="M287.087 156.825C287.087 156.825 288.56 159.713 287.827 160.454C287.095 161.196 286.467 161.56 285.347 160.534C284.228 159.508 283.181 157.568 282.786 156.279C282.391 154.989 282.642 152.549 282.841 152.306C283.567 151.419 284.037 153.83 284.321 154.986C284.606 156.142 285.042 157.42 285.56 157.126C286.078 156.832 285.366 154.658 285.848 154.125C286.329 153.592 287.087 156.825 287.087 156.825Z" fill="#EEBEA7"/>
<path d="M313.733 194.034C313.733 194.034 316.956 193.689 317.388 194.638C317.819 195.587 317.935 196.303 316.578 196.983C315.22 197.663 313.034 197.948 311.688 197.857C310.343 197.766 308.153 196.661 307.997 196.389C307.427 195.395 309.847 195.815 311.028 195.962C312.21 196.108 313.559 196.157 313.468 195.568C313.378 194.979 311.094 194.869 310.768 194.228C310.442 193.589 313.733 194.034 313.733 194.034Z" fill="#EEBEA7"/>
<path d="M323.895 152.063C324.128 153.444 323.632 154.164 327.984 156.539C332.336 158.914 333.801 158.083 335.07 160.451C335.07 160.451 334.67 156.622 332.273 155.183C329.876 153.744 325.642 152.657 324.435 149.564C324.435 149.564 323.735 151.12 323.895 152.063Z" fill="#242930"/>
<path d="M336.376 169.711C337.005 170.647 337.506 171.503 338.016 172.424C338.516 173.333 338.997 174.253 339.434 175.198C340.305 177.088 341.066 179.048 341.627 181.113C342.169 183.18 342.516 185.366 342.373 187.665C342.292 188.812 342.074 189.987 341.652 191.125C341.242 192.264 340.582 193.344 339.758 194.244C338.936 195.15 337.96 195.871 336.944 196.415C335.925 196.961 334.867 197.34 333.813 197.62C332.757 197.898 331.702 198.052 330.655 198.169C329.608 198.253 328.567 198.301 327.539 198.273C323.421 198.205 319.451 197.481 315.571 196.534C315.209 196.446 314.987 196.08 315.075 195.717C315.156 195.384 315.472 195.17 315.804 195.206L315.811 195.207C319.719 195.627 323.648 195.913 327.452 195.609C329.347 195.448 331.207 195.137 332.896 194.561C334.573 193.974 336.047 193.08 336.962 191.868C337.89 190.67 338.295 189.155 338.311 187.494C338.32 185.829 337.94 184.07 337.391 182.341C336.848 180.604 336.11 178.885 335.26 177.213C334.839 176.375 334.398 175.542 333.928 174.727C333.462 173.925 332.949 173.081 332.48 172.37L332.45 172.324C331.732 171.237 332.032 169.775 333.119 169.057C334.201 168.345 335.654 168.638 336.376 169.711Z" fill="#EEBEA7"/>
<path d="M324.74 152.365C324.74 152.365 324.317 156.949 320.182 158.933C320.182 158.933 322.142 155.559 322.147 153.283C322.151 151.006 325.091 150.811 324.74 152.365Z" fill="#242930"/>
<path d="M339.92 275.779C340.202 275.488 340.232 275.037 339.989 274.714C339.789 274.449 339.261 273.724 338.864 273.18C338.691 272.944 338.34 272.977 338.199 273.234C336.608 276.139 334.097 278.335 330.967 278.591C329.922 279.217 329.195 280.72 329.371 281.33C329.412 281.474 330.79 281.569 332.285 280.82C338.923 277.49 339.92 275.779 339.92 275.779Z" fill="#0B4870"/>
<path d="M283.205 158.395C294.455 158.395 303.575 149.275 303.575 138.025C303.575 126.775 294.455 117.655 283.205 117.655C271.955 117.655 262.835 126.775 262.835 138.025C262.835 149.275 271.955 158.395 283.205 158.395Z" fill="#EF6587"/>
<path d="M283.205 155.26C273.701 155.26 265.97 147.529 265.97 138.025C265.97 128.522 273.701 120.79 283.205 120.79C292.708 120.79 300.441 128.521 300.441 138.025C300.441 147.529 292.708 155.26 283.205 155.26Z" fill="#EC0B43"/>
<path d="M206.35 62.7018C206.35 64.5833 205.691 66.1744 204.373 67.4752C203.078 68.7527 201.333 69.5541 199.136 69.8793V73.7467H195.599V69.949C194.05 69.8328 192.605 69.5308 191.264 69.0431C189.946 68.5553 188.79 67.8933 187.796 67.0571L189.322 63.7819C191.333 65.3614 193.507 66.2325 195.842 66.3951V59.148C194.293 58.7531 192.986 58.3234 191.923 57.8588C190.859 57.371 189.969 56.6626 189.252 55.7335C188.536 54.7811 188.177 53.55 188.177 52.0402C188.177 50.7859 188.489 49.6477 189.114 48.6257C189.738 47.5804 190.605 46.721 191.715 46.0474C192.848 45.3506 194.142 44.9092 195.599 44.7234V40.856H199.136V44.6886C200.477 44.8512 201.737 45.1764 202.916 45.6641C204.095 46.1519 205.09 46.7675 205.899 47.5108L204.373 50.7859C202.685 49.3922 200.859 48.556 198.893 48.2773V55.838C200.443 56.2329 201.726 56.6626 202.743 57.1271C203.76 57.5685 204.616 58.2421 205.309 59.148C206.003 60.0538 206.35 61.2385 206.35 62.7018ZM192.651 51.7963C192.651 52.6093 192.929 53.2713 193.483 53.7823C194.038 54.2701 194.824 54.6882 195.842 55.0366V48.3121C194.847 48.5212 194.061 48.9277 193.483 49.5316C192.929 50.1355 192.651 50.8904 192.651 51.7963ZM198.893 66.2209C199.865 66.0118 200.604 65.6286 201.113 65.0711C201.622 64.4904 201.876 63.7471 201.876 62.8412C201.876 62.1211 201.622 61.5404 201.113 61.0991C200.604 60.6578 199.865 60.2861 198.893 59.9842V66.2209Z" fill="white"/>
<path d="M294.058 138.321C294.058 139.149 293.386 139.821 292.558 139.821H286.555C285.727 139.821 285.055 140.492 285.055 141.321V147.305C285.055 148.134 284.384 148.805 283.555 148.805H282.633C281.805 148.805 281.133 148.134 281.133 147.305V141.321C281.133 140.492 280.462 139.821 279.633 139.821H273.631C272.802 139.821 272.131 139.149 272.131 138.321V137.362C272.131 136.534 272.802 135.862 273.631 135.862H279.633C280.462 135.862 281.133 135.191 281.133 134.362V128.378C281.133 127.55 281.805 126.878 282.633 126.878H283.555C284.384 126.878 285.055 127.55 285.055 128.378V134.362C285.055 135.191 285.727 135.862 286.555 135.862H292.558C293.386 135.862 294.058 136.534 294.058 137.362V138.321Z" fill="white"/>
<path d="M84.0631 107.599C84.0631 108.597 83.2548 109.405 82.2576 109.405H66.4715C65.4744 109.405 64.666 108.597 64.666 107.599V107.599C64.666 106.602 65.4744 105.794 66.4715 105.794H82.2576C83.2548 105.794 84.0631 106.602 84.0631 107.599V107.599ZM84.0631 115.795C84.0631 116.793 83.2548 117.601 82.2576 117.601H66.4715C65.4744 117.601 64.666 116.793 64.666 115.795V115.795C64.666 114.798 65.4744 113.99 66.4715 113.99H82.2576C83.2548 113.99 84.0631 114.798 84.0631 115.795V115.795Z" fill="white"/>
<path d="M206.015 270.136C206.801 270.398 206.963 271.085 206.377 271.671L203.997 274.051C203.412 274.636 203.574 275.324 204.36 275.585L209.402 277.266C210.128 277.508 210.278 278.143 209.737 278.685V278.685C209.195 279.226 208.167 279.469 207.441 279.227L202.399 277.546C201.613 277.284 200.501 277.547 199.915 278.133L197.535 280.512C196.949 281.098 195.837 281.36 195.051 281.099L194.469 280.905C193.683 280.643 193.521 279.955 194.107 279.37L196.487 276.99C197.073 276.404 196.911 275.717 196.125 275.455L191.082 273.774C190.356 273.532 190.206 272.897 190.747 272.356V272.356C191.289 271.814 192.317 271.572 193.043 271.814L198.086 273.494C198.871 273.756 199.983 273.494 200.569 272.908L202.949 270.528C203.535 269.942 204.647 269.68 205.433 269.942L206.015 270.136Z" fill="white"/>
</svg>
