<svg width="278" height="333" viewBox="0 0 278 333" fill="none" xmlns="http://www.w3.org/2000/svg">
<path opacity="0.1" d="M164.505 54.7476C164.505 54.7476 167.652 50.613 169.581 48.7181C173.055 45.3057 177.038 39.2745 189.779 43.7198C190.769 44.0653 191.729 44.5234 192.682 44.985C193.805 45.5286 197.284 45.5428 200.847 42.3113C206.509 37.1762 208.723 33.3016 216.481 33.1813C225.507 33.041 226.926 45.8929 233.941 49.1821C238.406 51.2757 250.184 53.3563 252.62 54.2836L164.505 54.7476Z" fill="#2A94F4"/>
<path opacity="0.1" d="M72.6016 9.47129C72.6016 9.47129 71.0227 7.65543 70.0552 6.82355C68.3125 5.32487 66.3144 2.67596 59.9235 4.6286C59.4265 4.78012 58.9454 4.98175 58.4673 5.18456C57.9037 5.42333 56.1586 5.42922 54.371 4.01014C51.531 1.75505 50.4203 0.0535662 46.5292 0.000505257C42.0013 -0.0613991 41.2891 5.58311 37.7706 7.02754C35.5308 7.94668 29.6228 8.8605 28.4006 9.26789L72.6016 9.47129Z" fill="#2A94F4"/>
<path opacity="0.1" d="M35.1852 145.105C36.1916 148.556 37.5892 151.884 39.3558 155.008L34.3208 161.355C32.6772 163.431 32.8633 166.39 34.712 168.258L43.3813 176.927C45.2521 178.798 48.2081 178.962 50.2839 177.318L56.5903 172.324C59.8366 174.195 63.2879 175.652 66.8843 176.681L67.8307 184.795C68.1399 187.426 70.3577 189.398 72.9888 189.398H85.2545C87.8856 189.398 90.1034 187.426 90.4125 184.795L91.318 176.968C95.1794 175.962 98.8799 174.46 102.35 172.51L108.451 177.337C110.527 178.981 113.486 178.795 115.354 176.946L124.023 168.277C125.894 166.406 126.058 163.45 124.415 161.374L119.67 155.355C121.642 151.944 123.184 148.307 124.21 144.505L131.522 143.663C134.153 143.354 136.125 141.136 136.125 138.505V126.239C136.125 123.608 134.153 121.39 131.522 121.081L124.31 120.239C123.323 116.478 121.847 112.885 119.954 109.516L124.393 103.907C126.036 101.831 125.85 98.8717 124.001 97.0041L115.351 88.3537C113.48 86.4829 110.524 86.3189 108.448 87.9625L103.003 92.2782C99.4699 90.2024 95.6905 88.6219 91.7249 87.5524L90.9047 80.5047C90.5955 77.8736 88.3777 75.9019 85.7466 75.9019H73.4809C70.8498 75.9019 68.632 77.8736 68.3229 80.5047L67.5026 87.5524C63.4362 88.6408 59.5526 90.2844 55.9373 92.4423L50.2871 87.9625C48.2113 86.3189 45.2521 86.505 43.3845 88.3537L34.7152 97.023C32.8444 98.8938 32.6804 101.85 34.324 103.926L39.0498 109.904C37.1601 113.314 35.7216 116.952 34.7751 120.731L27.2132 121.595C24.5821 121.905 22.6104 124.122 22.6104 126.754V139.019C22.6104 141.65 24.5821 143.868 27.2132 144.177L35.1852 145.105ZM79.6232 111.923C90.8006 111.923 99.9021 121.024 99.9021 132.202C99.9021 143.379 90.8006 152.481 79.6232 152.481C68.4459 152.481 59.3444 143.379 59.3444 132.202C59.3444 121.024 68.4491 111.923 79.6232 111.923Z" fill="#1A62C6"/>
<path opacity="0.1" d="M200.88 148.124L194.41 142.66C192.416 140.975 189.479 141.057 187.589 142.846L184.015 146.196C180.996 144.739 177.791 143.71 174.481 143.114L173.475 138.183C172.961 135.634 170.598 133.868 168.011 134.076L159.565 134.795C156.975 135.022 154.944 137.136 154.862 139.745L154.698 144.758C151.451 145.928 148.391 147.531 145.596 149.544L141.321 146.707C139.145 145.269 136.245 145.679 134.561 147.673L129.097 154.184C127.412 156.178 127.494 159.115 129.28 161.005L133.018 164.989C131.725 167.907 130.8 170.968 130.264 174.11L124.923 175.198C122.374 175.712 120.607 178.075 120.815 180.662L121.535 189.107C121.762 191.698 123.876 193.729 126.485 193.811L132.258 193.997C133.305 196.751 134.684 199.36 136.346 201.805L133.122 206.673C131.684 208.85 132.094 211.749 134.088 213.434L140.558 218.898C142.552 220.583 145.489 220.501 147.379 218.712L151.612 214.746C154.385 216.04 157.303 217.005 160.304 217.582L161.474 223.375C161.988 225.924 164.351 227.69 166.938 227.482L175.383 226.763C177.973 226.536 180.005 224.422 180.087 221.813L180.273 216.144C183.356 215.055 186.274 213.576 188.965 211.746L193.627 214.828C195.804 216.267 198.7 215.857 200.388 213.863L205.852 207.392C207.537 205.399 207.455 202.462 205.666 200.572L201.906 196.587C203.281 193.669 204.291 190.587 204.865 187.423L210.001 186.375C212.55 185.861 214.316 183.498 214.108 180.911L213.389 172.466C213.162 169.876 211.048 167.844 208.439 167.762L203.281 167.598C202.212 164.598 200.773 161.765 198.987 159.134L201.801 154.9C203.284 152.727 202.874 149.809 200.88 148.124ZM169.058 196.941C159.938 197.723 151.884 190.921 151.123 181.798C150.341 172.677 157.143 164.623 166.266 163.863C175.387 163.084 183.441 169.882 184.201 179.006C184.98 188.126 178.179 196.18 169.058 196.941Z" fill="#EC0B43"/>
<path opacity="0.2" d="M64.73 219.662C62.14 219.93 60.1493 222.107 60.1272 224.716L60.0641 229.915C60.0231 232.524 61.9538 234.742 64.5439 235.073L68.3643 235.565C69.0016 237.887 69.9038 240.105 71.0774 242.203L68.6135 245.244C66.9699 247.279 67.0929 250.194 68.9227 252.064L72.5601 255.784C74.3899 257.655 77.3049 257.86 79.3807 256.257L82.4409 253.894C84.5987 255.169 86.8796 256.175 89.2615 256.872L89.6716 260.816C89.9397 263.406 92.1165 265.396 94.7255 265.418L99.9246 265.482C102.534 265.523 104.751 263.592 105.083 261.002L105.556 257.263C108.146 256.626 110.61 255.661 112.951 254.386L115.828 256.708C117.863 258.352 120.781 258.229 122.648 256.399L126.368 252.762C128.239 250.932 128.444 248.017 126.841 245.941L124.642 243.086C125.999 240.827 127.046 238.423 127.765 235.896L131.176 235.546C133.766 235.278 135.756 233.101 135.778 230.492L135.838 225.293C135.879 222.684 133.949 220.466 131.359 220.135L128.03 219.703C127.393 217.195 126.45 214.772 125.216 212.513L127.292 209.964C128.936 207.929 128.813 205.014 126.983 203.143L123.346 199.424C121.516 197.553 118.601 197.348 116.525 198.951L114.039 200.863C111.698 199.446 109.19 198.355 106.562 197.616L106.234 194.392C105.966 191.802 103.789 189.811 101.18 189.789L95.9811 189.726C93.3721 189.685 91.1543 191.616 90.8231 194.206L90.413 197.411C87.6999 198.108 85.0909 199.178 82.668 200.575L80.1 198.481C78.0652 196.837 75.1471 196.96 73.2794 198.79L69.541 202.446C67.6703 204.276 67.4652 207.191 69.0678 209.267L71.2667 212.103C69.9922 214.362 68.9858 216.766 68.3296 219.293L64.73 219.662ZM98.2809 213.788C105.739 213.87 111.717 220.012 111.635 227.47C111.553 234.928 105.411 240.906 97.9529 240.824C90.495 240.742 84.5167 234.6 84.5987 227.142C84.6808 219.684 90.8231 213.706 98.2809 213.788Z" fill="#F3BE22" stroke="#F3BE22" stroke-width="3" stroke-miterlimit="10"/>
<path d="M211.543 117.176L213.461 112.608C213.461 112.608 211.199 109.317 209.767 108.642C208.331 107.967 205.214 109.463 205.214 109.463L204.221 111.343L204.978 114.097L209.196 121.028L212.653 119.283L211.543 117.176Z" fill="#EEBEA7"/>
<path d="M240.552 161.813C230.649 155.475 216.862 144.692 213.641 117.655C211.178 117.466 207.389 117.655 207.389 117.655C207.389 117.655 210.36 156.409 233.132 168.841C235.513 170.141 239.063 182.331 241.899 182.984C242.643 180.413 240.552 161.813 240.552 161.813Z" fill="#165CBF"/>
<path d="M250.281 317.03L234.819 331.628L240.523 332.527C242.091 332.776 243.7 332.539 245.132 331.852L254.123 327.53V315.851L250.281 317.03Z" fill="#5D6A7F"/>
<path d="M229.913 318.614L222.613 320.844C219.72 321.727 217.083 323.295 214.925 325.415H237.904L236.825 315.856L229.913 318.614Z" fill="#5D6A7F"/>
<path d="M237.904 226.305C237.904 226.305 223.216 266.251 221.925 269.16C220.632 272.072 229.916 318.614 229.916 318.614H237.835L232.352 272.69L251.851 239.751L248.883 224.236L237.904 226.305Z" fill="#242930"/>
<path d="M237.904 215.595L247.072 319.623H255.795L256.054 212.573L237.904 215.595Z" fill="#383F49"/>
<path d="M235.901 170.087L234.822 174.154V210.522L256.24 209.995L249.296 164.882L245.489 162.21L238.356 166.078L235.901 170.087Z" fill="#F7F7F7"/>
<path d="M237.904 169.318L234.822 190.846L233.687 230.776H259.84C259.84 230.776 254.312 166.652 249.896 164.062C245.801 162.564 242.45 162.138 238.845 165.633C238.778 166.923 237.904 169.318 237.904 169.318Z" fill="#1A62C6"/>
<path d="M237.904 155.437C237.904 155.642 238.586 162.775 238.586 162.775H243.819L246.066 159.106L239.321 155.024L237.904 155.437Z" fill="#C38E74"/>
<path d="M239.79 139.228C239.478 139.694 233.411 149.493 235.125 155.096C237.926 157.273 241.813 158.828 241.813 158.828C241.813 158.828 245.545 157.74 248.034 152.607C250.523 147.471 250.059 139.849 239.79 139.228Z" fill="#EEBEA7"/>
<path d="M256.852 147.222C257.858 149.374 252.697 160.806 244.529 161.614C242.554 160.292 242.056 158.828 242.056 158.828L240.778 144.774L256.303 145.121L256.852 147.222Z" fill="#242930"/>
<path d="M240.782 144.774C238.772 140.969 237.056 136.884 240.782 133.051C243.851 134.584 260.723 141.707 256.669 147.515C255.136 149.027 240.782 144.774 240.782 144.774Z" fill="#242930"/>
<path d="M240.782 142.833C240.804 142.998 239.321 147.84 239.321 147.84L240.05 148.209L243.817 144.37L240.782 142.833Z" fill="#242930"/>
<path d="M242.618 149.971C243.615 148.636 243.865 147.137 243.175 146.622C242.486 146.107 241.119 146.771 240.122 148.105C239.125 149.439 238.875 150.938 239.565 151.453C240.254 151.969 241.621 151.305 242.618 149.971Z" fill="#EEBEA7"/>
<path d="M247.94 161.614C244.116 161.317 238.882 161.046 236.516 164.775C235.97 167.233 235.879 170.69 235.879 170.69C235.879 170.69 239.945 162.409 248.88 163.501C249.533 162.68 249.896 162.043 249.896 162.043L247.94 161.614Z" fill="#F2F2F2"/>
<path d="M247.202 209.086L216.303 200.223L213.867 208.716L244.766 217.579L247.202 209.086Z" fill="#CCE9FF"/>
<path d="M228.55 205.103L228.497 203.421L213.237 199.045L212.796 200.582L211.966 203.475L206.271 223.331L241.248 233.363L247.772 210.614L228.55 205.103Z" fill="#F3BE22"/>
<path d="M220.805 220.873C220.805 220.873 217.915 225.529 216.489 227.233C216.145 227.646 215.584 227.807 215.073 227.64C213.044 226.981 208.426 224.63 208.426 224.63L218.543 218.273L220.805 220.873Z" fill="#EEBEA7"/>
<path d="M252.454 177.268C254 170.381 245.788 162.891 242.056 167.15C233.86 176.498 236.98 206.295 215.076 218.863C216.411 220.198 219.572 223.64 219.572 223.64C219.572 223.64 234.021 219.567 252.454 177.268Z" fill="#2875DF"/>
<path d="M216.045 112.28L215.745 113.709L203.126 110.687L201.631 109.69H203.524L216.045 112.28Z" fill="#242930"/>
<path d="M201.618 109.718L191.677 111.973L193.813 114.381L149.356 153.478L123.582 142.448L106.716 161.32L82.2132 151.682L62.2624 175.627L41.0877 164.951L0 209.251L2.86768 211.91L41.9552 169.769L63.2751 180.517L83.412 156.355L107.817 165.958L124.626 147.149L150.085 158.046L196.403 117.308L198.037 119.141L201.618 109.718Z" fill="#EC0B43"/>
<path d="M271.092 135.521C271.092 135.774 270.997 136.004 270.84 136.178C270.997 136.351 271.092 136.581 271.092 136.834V137.654C271.092 137.834 271.045 138.001 270.96 138.146C271.045 138.291 271.092 138.458 271.092 138.638V139.458C271.092 140.001 270.65 140.443 270.108 140.443H261.574C261.032 140.443 260.59 140.001 260.59 139.458V138.638C260.59 138.458 260.637 138.291 260.722 138.146C260.637 138.001 260.59 137.834 260.59 137.654V136.834C260.59 136.581 260.684 136.351 260.842 136.178C260.684 136.004 260.59 135.774 260.59 135.521V134.701C260.59 134.158 261.032 133.717 261.574 133.717H270.108C270.65 133.717 271.092 134.158 271.092 134.701V135.521Z" fill="#242930"/>
<path d="M277.904 116.939C277.904 121.719 275.124 125.848 271.092 127.801V132.249C271.092 132.584 270.818 132.855 270.487 132.855H261.199C260.865 132.855 260.593 132.58 260.593 132.249V127.801C256.562 125.848 253.782 121.719 253.782 116.939C253.782 110.276 259.183 104.878 265.843 104.878C272.503 104.878 277.904 110.279 277.904 116.939Z" fill="#F3BE22"/>
<path d="M269.951 136.455H261.868C261.755 136.455 261.66 136.363 261.66 136.246C261.66 136.133 261.752 136.038 261.868 136.038H269.954C270.068 136.038 270.162 136.13 270.162 136.246C270.159 136.363 270.068 136.455 269.951 136.455Z" fill="#F7F7F7"/>
<path d="M269.951 138.31H261.868C261.755 138.31 261.66 138.218 261.66 138.102C261.66 137.988 261.752 137.894 261.868 137.894H269.954C270.068 137.894 270.162 137.985 270.162 138.102C270.159 138.218 270.068 138.31 269.951 138.31Z" fill="#F7F7F7"/>
<path d="M267.909 118.425C267.758 118.289 267.553 118.226 267.329 118.248C267.054 118.277 266.78 118.431 266.616 118.655C266.468 118.854 266.389 119.091 266.345 119.318C266.222 119.255 266.095 119.185 265.972 119.11L265.925 119.081H265.758L265.711 119.11C265.584 119.185 265.461 119.255 265.338 119.318C265.294 119.091 265.215 118.854 265.067 118.655C264.903 118.431 264.628 118.277 264.354 118.248C264.133 118.226 263.928 118.289 263.774 118.425C263.575 118.605 263.502 118.873 263.581 119.16C263.682 119.526 263.997 119.832 264.348 119.905C264.572 119.949 264.789 119.933 265.004 119.876V119.883C265.338 124.183 265.461 128.546 265.37 132.858H265.767C265.856 128.536 265.733 124.16 265.398 119.851C265.395 119.813 265.392 119.775 265.389 119.734C265.54 119.665 265.692 119.583 265.837 119.498C265.985 119.583 266.133 119.665 266.285 119.734C266.282 119.775 266.278 119.813 266.275 119.851C265.941 124.16 265.818 128.533 265.906 132.858H266.304C266.241 128.555 266.458 124.23 266.67 119.883V119.876C266.884 119.933 267.102 119.952 267.326 119.905C267.676 119.832 267.991 119.529 268.092 119.16C268.181 118.873 268.111 118.608 267.909 118.425ZM264.427 119.514C264.225 119.473 264.026 119.274 263.966 119.056C263.941 118.958 263.931 118.823 264.042 118.722C264.111 118.659 264.196 118.643 264.269 118.643C264.285 118.643 264.3 118.643 264.316 118.646C264.48 118.662 264.651 118.76 264.748 118.892C264.868 119.053 264.928 119.252 264.963 119.476C264.783 119.529 264.603 119.551 264.427 119.514ZM267.717 119.056C267.657 119.277 267.458 119.473 267.256 119.514C267.08 119.548 266.9 119.529 266.72 119.473C266.755 119.249 266.815 119.05 266.935 118.889C267.032 118.756 267.203 118.659 267.367 118.643C267.446 118.633 267.556 118.643 267.641 118.719C267.755 118.823 267.745 118.958 267.717 119.056Z" fill="white"/>
<path d="M254.975 118.532C254.814 118.532 254.675 118.406 254.665 118.242C254.268 111.989 258.928 107.973 262.158 106.797C262.319 106.737 262.499 106.822 262.556 106.983C262.615 107.144 262.53 107.323 262.369 107.38C259.316 108.491 254.905 112.289 255.284 118.201C255.293 118.371 255.164 118.52 254.994 118.532C254.987 118.532 254.981 118.532 254.975 118.532Z" fill="white"/>
</svg>
