<svg width="142" height="147" viewBox="0 0 142 147" fill="none" xmlns="http://www.w3.org/2000/svg">
<path d="M73 20.1265C78.525 20.1265 83 15.7633 83 10.3765C83 4.98959 78.525 0.626465 73 0.626465C67.475 0.626465 63 4.98959 63 10.3765C63 15.7633 67.475 20.1265 73 20.1265ZM73 25.0015C66.325 25.0015 53 28.2677 53 34.7515V39.6265H93V34.7515C93 28.2677 79.675 25.0015 73 25.0015Z" fill="#242930"/>
<path d="M73 127.126C67.475 127.126 63 131.49 63 136.876C63 142.263 67.475 146.626 73 146.626C78.525 146.626 83 142.263 83 136.876C83 131.49 78.525 127.126 73 127.126ZM73 122.251C79.675 122.251 93 118.985 93 112.501L93 107.626L53 107.626L53 112.501C53 118.985 66.325 122.251 73 122.251Z" fill="#242930"/>
<path d="M122.5 73.1265C122.5 78.5133 126.863 82.8765 132.25 82.8765C137.637 82.8765 142 78.5133 142 73.1265C142 67.7396 137.637 63.3765 132.25 63.3765C126.863 63.3765 122.5 67.7396 122.5 73.1265ZM117.625 73.1265C117.625 66.6183 114.359 53.6265 107.875 53.6265L103 53.6265L103 92.6265L107.875 92.6265C114.359 92.6265 117.625 79.6346 117.625 73.1265Z" fill="#242930"/>
<path d="M19.5 73.1265C19.5 67.7396 15.1369 63.3765 9.75 63.3765C4.36313 63.3765 2.96773e-07 67.7396 2.32535e-07 73.1265C1.68297e-07 78.5133 4.36313 82.8765 9.75 82.8765C15.1369 82.8765 19.5 78.5133 19.5 73.1265ZM24.375 73.1265C24.375 79.6346 27.6412 92.6265 34.125 92.6265L39 92.6265L39 53.6265L34.125 53.6265C27.6413 53.6265 24.375 66.6183 24.375 73.1265Z" fill="#242930"/>
<path d="M22.1698 37.1839C22.4776 37.6424 23.0989 37.7646 23.5574 37.4567L31.0296 32.4401C31.4881 32.1323 31.6103 31.511 31.3024 31.0525C30.9946 30.5939 30.3733 30.4718 29.9148 30.7796L23.2728 35.2388L18.8136 28.5969C18.5058 28.1383 17.8845 28.0162 17.426 28.324C16.9675 28.6319 16.8453 29.2531 17.1532 29.7117L22.1698 37.1839ZM41.8648 17.1285C42.1421 16.6509 41.9797 16.0389 41.502 15.7616L33.7185 11.2432C33.2408 10.966 32.6288 11.1284 32.3516 11.606C32.0743 12.0837 32.2367 12.6956 32.7144 12.9729L39.6331 16.9893L35.6168 23.908C35.3395 24.3856 35.5019 24.9976 35.9796 25.2749C36.4572 25.5522 37.0692 25.3897 37.3465 24.9121L41.8648 17.1285ZM23.9812 36.8194C24.481 34.2774 25.9566 30.203 28.7488 26.3917C31.5328 22.5916 35.5916 19.0966 41.2565 17.593L40.7435 15.6599C34.5348 17.3078 30.1199 21.136 27.1354 25.2097C24.1592 29.2721 22.5716 33.622 22.0188 36.4335L23.9812 36.8194Z" fill="#EC0B43"/>
<path d="M123.328 107.331C123.272 106.781 122.782 106.381 122.232 106.437L113.278 107.342C112.728 107.397 112.328 107.888 112.384 108.437C112.439 108.987 112.93 109.387 113.479 109.332L121.439 108.527L122.243 116.486C122.299 117.036 122.789 117.436 123.339 117.381C123.888 117.325 124.289 116.835 124.233 116.285L123.328 107.331ZM100.185 123.512C99.8251 123.931 99.8727 124.562 100.291 124.922L107.116 130.79C107.535 131.15 108.166 131.102 108.526 130.683C108.886 130.264 108.839 129.633 108.42 129.273L102.354 124.057L107.569 117.991C107.929 117.573 107.882 116.941 107.463 116.581C107.044 116.221 106.413 116.269 106.053 116.687L100.185 123.512ZM121.558 106.799C120.575 108.003 119.474 109.639 118.266 111.313C117.037 113.017 115.652 114.832 114.023 116.522C110.774 119.895 106.6 122.734 100.868 123.167L101.019 125.161C107.401 124.68 112.005 121.501 115.464 117.909C117.19 116.118 118.64 114.214 119.888 112.483C121.158 110.723 122.174 109.207 123.108 108.064L121.558 106.799Z" fill="#EC0B43"/>
<path d="M35.7885 123.088C36.3311 122.985 36.6878 122.462 36.5851 121.919L34.9119 113.076C34.8092 112.533 34.2861 112.177 33.7434 112.279C33.2008 112.382 32.8441 112.905 32.9468 113.448L34.4341 121.308L26.5736 122.796C26.0309 122.898 25.6742 123.422 25.7769 123.964C25.8796 124.507 26.4027 124.864 26.9454 124.761L35.7885 123.088ZM19.825 99.6748C19.3921 99.3319 18.7631 99.4049 18.4202 99.8378L12.8322 106.893C12.4893 107.326 12.5623 107.955 12.9952 108.298C13.4282 108.641 14.0571 108.568 14.4 108.135L19.3671 101.864L25.6383 106.831C26.0713 107.174 26.7002 107.101 27.0431 106.668C27.386 106.235 27.313 105.606 26.8801 105.263L19.825 99.6748ZM36.1659 121.279C33.6177 119.542 29.9266 116.977 26.7112 113.487C23.4991 110.002 20.813 105.648 20.1974 100.343L18.2108 100.574C18.8911 106.437 21.853 111.167 25.2405 114.843C28.6246 118.515 32.4848 121.19 35.0393 122.931L36.1659 121.279Z" fill="#EC0B43"/>
<path d="M104.428 21.806C103.975 22.1217 103.864 22.745 104.18 23.1981L109.324 30.5826C109.64 31.0357 110.263 31.1471 110.717 30.8314C111.17 30.5157 111.281 29.8924 110.965 29.4393L106.392 22.8753L112.956 18.3021C113.409 17.9864 113.521 17.3631 113.205 16.9099C112.889 16.4568 112.266 16.3454 111.813 16.6611L104.428 21.806ZM126.684 41.5752C127.208 41.7498 127.774 41.4666 127.949 40.9427L130.795 32.4045C130.969 31.8806 130.686 31.3143 130.162 31.1396C129.638 30.965 129.072 31.2481 128.897 31.7721L126.368 39.3616L118.778 36.8317C118.254 36.6571 117.688 36.9402 117.513 37.4642C117.339 37.9881 117.622 38.5545 118.146 38.7291L126.684 41.5752ZM104.824 23.6109C110.434 24.6137 120.261 29.3843 126.106 41.0737L127.894 40.1793C121.739 27.8687 111.343 22.7445 105.176 21.6421L104.824 23.6109Z" fill="#EC0B43"/>
</svg>
