<svg width="348" height="305" viewBox="0 0 348 305" fill="none" xmlns="http://www.w3.org/2000/svg">
<path d="M101.169 85.0023C99.1248 79.2534 96.7827 72.7806 99.3803 66.1375C102.872 57.1948 95.4626 52.5957 88.9472 48.4651C83.3261 44.9731 78.0457 41.6516 79.8342 36.1582C81.7931 30.1964 81.6653 25.5974 79.4509 22.5739C77.5772 20.0188 74.2557 18.6561 69.8269 18.6987C66.2924 18.7413 63.1412 14.3977 59.777 9.8412C55.8167 4.4756 51.7712 -1.06034 46.6611 0.174603C45.7668 0.387524 45.0429 0.898537 44.6171 1.70764C42.8285 5.07179 45.6391 13.0776 48.6626 21.5944C51.899 30.7926 55.6038 41.1832 53.1765 45.6119C50.5363 50.4665 55.3057 54.8953 60.3732 59.6221C65.7388 64.6045 71.8284 70.2682 70.2102 77.3797C68.6771 84.0228 68.3365 86.4927 69.2733 87.9406C69.9972 89.0904 71.4877 89.3459 73.7446 89.7717C75.2777 90.0698 77.2366 90.4105 79.6213 91.177C89.8841 94.3708 92.8649 101.014 92.9075 101.099L93.0353 101.397L93.3334 101.355C98.2731 100.588 101.169 99.1828 102.532 96.9258C102.617 96.7981 102.659 96.6703 102.744 96.5426C104.192 93.5191 102.787 89.5588 101.169 85.0023Z" fill="#FFBE55"/>
<path d="M74.9375 72.3123C76.6408 74.9525 77.8758 77.252 77.748 80.4884C77.6628 83.5119 77.1944 86.4928 76.9389 89.4737C76.8963 90.1124 76.8537 90.7086 76.8112 91.3048C75.9595 90.5809 75.1504 89.8569 74.2987 89.133C73.9154 89.0904 73.5322 89.0904 73.1063 89.0904C74.2987 90.0699 75.5336 91.1345 76.726 92.1991C76.5982 94.2857 76.5556 96.3723 76.5556 98.4589C76.5556 99.6939 76.5131 101.014 76.5982 102.249C75.491 101.568 74.3413 100.886 73.2767 100.205C69.9551 98.1608 66.8465 96.2446 64.4617 95.2225C62.6306 94.456 60.5866 93.7747 58.6277 93.1359C53.5176 91.4751 48.2798 89.7718 46.5338 86.1521C45.6395 84.2784 45.7247 82.0215 46.7893 79.2961C49.4721 72.2697 46.9597 71.0773 42.7438 69.0333C39.6778 67.5428 35.5045 65.5414 31.3313 60.4739C29.5001 58.2595 27.8819 56.3432 26.4341 54.6824C22.1331 49.6149 19.7484 46.8469 20.0465 45.2287C20.1316 44.8455 20.3445 44.5048 20.7704 44.1641C20.9833 43.9938 21.2388 43.8235 21.5795 43.6531C23.1977 42.7588 24.8159 43.4402 26.647 44.2067C29.1169 45.2287 32.1404 46.5488 36.3562 44.377C39.6778 42.6737 43.3826 41.0981 45.597 42.3756C47.13 43.2273 48.0243 45.4417 48.3223 49.0613C48.4075 50.2111 48.7908 51.0202 49.4295 51.4886C50.3664 52.1699 51.8142 52.0848 53.475 51.7441C54.6248 53.3197 56.1153 54.0862 57.9038 54.725C60.4163 55.6193 62.2899 56.4284 64.1211 58.4724C68.0388 62.9012 71.8288 67.4151 74.9375 72.3123Z" fill="#2A94F4"/>
<path d="M61.3527 79.3384C58.7977 77.6351 56.5833 73.5044 54.4541 69.5015C51.5584 64.0507 48.5349 58.4296 44.4042 58.5574C37.7611 58.7277 31.8419 50.8922 31.7567 50.8496L31.2031 51.2755C31.4586 51.6161 37.4204 59.4516 44.4042 59.2813C48.109 59.1961 51.0474 64.6043 53.8153 69.8847C55.9871 73.9302 58.2441 78.1461 60.9269 79.9772C62.5451 81.0418 65.526 83.2136 69.0604 85.9816C69.0604 85.6835 69.0604 85.3854 69.0604 85.0873C65.9518 82.4897 63.1838 80.5308 61.3527 79.3384Z" fill="white"/>
<path d="M273.008 218.04C273.008 218.04 276.84 208.501 269.856 194.96C262.83 181.418 257.166 183.504 274.072 173.071C290.978 162.638 274.157 129.848 288.551 125.675C302.944 121.502 315.421 68.3995 326.365 75.1703C337.31 81.9412 322.703 107.96 330.539 115.796C338.332 123.631 339.396 133.553 323.257 141.602C307.117 149.65 334.712 180.396 312.824 189.764C290.935 199.133 297.238 235.883 273.008 218.04Z" fill="#F3BE22"/>
<path d="M279.693 228.132C279.651 228.005 277.309 215.826 284.761 200.069C292.341 184.015 295.96 166.471 294.47 153.099C293.661 145.86 298.303 143.049 302.774 140.324C307.203 137.641 311.759 134.831 311.504 127.719C311.291 121.289 314.016 106.214 314.101 105.575L315.081 105.746C315.038 105.916 312.27 121.374 312.483 127.676C312.739 135.384 307.927 138.322 303.285 141.133C298.856 143.816 294.725 146.371 295.449 152.971C296.982 166.471 293.32 184.228 285.655 200.453C278.373 215.911 280.63 227.792 280.673 227.92L279.693 228.132Z" fill="white"/>
<path d="M337.821 149.012C343.91 146.116 350.383 147.436 347.019 153.525C343.655 159.615 338.63 160.083 339.567 164.895C340.503 169.707 342.973 174.945 335.053 178.011C327.132 181.035 323.427 180.524 318.615 189.424C313.761 198.324 312.1 204.925 303.796 202.795C295.492 200.624 302.391 189.679 306.692 185.08C306.692 185.08 312.526 180.141 312.44 171.24C312.355 162.34 308.693 156.379 320.191 156.975C331.688 157.486 333.69 150.97 337.821 149.012Z" fill="#0E538C"/>
<path d="M302.476 209.012C302.816 207.863 310.822 180.311 317.38 177.33C324.066 174.264 327.685 166.258 329.261 161.787C331.305 155.953 340.035 154.803 340.375 154.76L340.503 155.74C340.418 155.74 332.029 156.847 330.198 162.085C328.239 167.748 324.492 175.158 317.806 178.224C311.674 181.035 303.54 209.013 303.455 209.311L302.476 209.012Z" fill="white"/>
<path d="M104.32 100.886C91.2044 97.6071 91.0341 90.5382 90.8637 83.7247C90.736 78.1462 90.6082 72.8657 83.4967 69.6294C74.0856 65.3284 73.8726 57.3651 73.6597 50.3387C73.4894 45.1009 73.3616 40.1611 69.4439 37.4783C60.0328 31.0481 52.0695 15.4623 51.9844 15.2919L52.7083 14.9087C52.7935 15.079 60.629 30.4519 69.9123 36.797C74.1707 39.6927 74.3411 44.8454 74.4688 50.2961C74.6817 57.4077 74.8947 64.8173 83.8373 68.8628C91.3747 72.3122 91.5451 78.1036 91.6728 83.6821C91.8432 90.4956 92.0135 96.9684 104.533 100.077L104.32 100.886Z" fill="white"/>
<path d="M73.8838 180.524H289.317V25.0064C289.317 22.7921 287.529 20.9609 285.272 20.9609H77.9293C75.7149 20.9609 73.8838 22.7495 73.8838 25.0064V180.524Z" fill="#F7F7F7"/>
<path d="M86.4929 151.53L276.298 151.53C279.059 151.53 281.298 149.291 281.298 146.53V33.7596C281.298 30.9982 279.059 28.7596 276.298 28.7596L86.4929 28.7596C83.7315 28.7596 81.4929 30.9982 81.4929 33.7596L81.4929 146.53C81.4929 149.291 83.7315 151.53 86.4929 151.53Z" fill="#3A414E" stroke="white" stroke-width="0.5" stroke-miterlimit="10"/>
<path d="M289.317 157.486H181.621H73.9686L50.377 245.592H182.345H312.866L289.317 157.486Z" fill="white"/>
<path d="M82.1022 172.944H95.3459C95.8995 172.944 96.3254 173.37 96.1976 173.838L94.9201 179.587C94.8349 179.928 94.4942 180.183 94.0684 180.183H80.6118C80.0582 180.183 79.6324 179.757 79.7601 179.246L81.2506 173.497C81.3357 173.199 81.6764 172.944 82.1022 172.944Z" fill="#DFE3EB" stroke="white" stroke-width="0.5" stroke-miterlimit="10"/>
<path d="M100.891 175.326C101.183 173.938 102.408 172.944 103.827 172.944H107.807C109.678 172.944 111.093 174.638 110.759 176.479L110.526 177.761C110.268 179.188 109.025 180.226 107.575 180.226H103.557C101.651 180.226 100.229 178.472 100.621 176.608L100.891 175.326Z" fill="#DFE3EB" stroke="white" stroke-width="0.5" stroke-miterlimit="10"/>
<path d="M115.959 175.442C116.203 174 117.453 172.944 118.916 172.944H122.939C124.762 172.944 126.163 174.556 125.91 176.361L125.73 177.643C125.522 179.124 124.255 180.226 122.759 180.226H118.699C116.842 180.226 115.431 178.555 115.741 176.724L115.959 175.442Z" fill="#DFE3EB" stroke="white" stroke-width="0.5" stroke-miterlimit="10"/>
<path d="M131.065 175.544C131.266 174.055 132.536 172.944 134.038 172.944H138.09C139.871 172.944 141.26 174.487 141.073 176.258L140.938 177.54C140.778 179.067 139.49 180.226 137.955 180.226H133.866C132.05 180.226 130.651 178.625 130.893 176.826L131.065 175.544Z" fill="#DFE3EB" stroke="white" stroke-width="0.5" stroke-miterlimit="10"/>
<path d="M146.149 175.664C146.294 174.123 147.588 172.944 149.136 172.944H153.212C154.945 172.944 156.317 174.407 156.206 176.136L156.123 177.418C156.022 178.997 154.712 180.226 153.13 180.226H149.016C147.249 180.226 145.865 178.706 146.03 176.946L146.149 175.664Z" fill="#DFE3EB" stroke="white" stroke-width="0.5" stroke-miterlimit="10"/>
<path d="M161.244 175.786C161.328 174.193 162.645 172.944 164.24 172.944H168.33C170.015 172.944 171.369 174.33 171.329 176.014L171.299 177.296C171.261 178.925 169.93 180.226 168.3 180.226H164.173C162.454 180.226 161.087 178.784 161.177 177.068L161.244 175.786Z" fill="#DFE3EB" stroke="white" stroke-width="0.5" stroke-miterlimit="10"/>
<path d="M281.481 172.944H266.449L268.067 180.226H283.355L281.481 172.944Z" fill="#0B4870" stroke="white" stroke-width="0.5" stroke-miterlimit="10"/>
<path d="M261.466 172.944H251.459L252.779 180.226H262.999L261.466 172.944Z" fill="#0B4870" stroke="white" stroke-width="0.5" stroke-miterlimit="10"/>
<path d="M246.477 172.944H236.47L237.492 180.226H247.712L246.477 172.944Z" fill="#0B4870" stroke="white" stroke-width="0.5" stroke-miterlimit="10"/>
<path d="M231.794 175.544C231.594 174.055 230.324 172.944 228.821 172.944H224.77C222.989 172.944 221.6 174.487 221.786 176.258L221.921 177.54C222.082 179.067 223.37 180.226 224.905 180.226H228.994C230.809 180.226 232.209 178.625 231.967 176.826L231.794 175.544Z" fill="#DFE3EB" stroke="white" stroke-width="0.5" stroke-miterlimit="10"/>
<path d="M216.71 175.664C216.566 174.123 215.272 172.944 213.723 172.944H209.647C207.915 172.944 206.542 174.407 206.654 176.136L206.736 177.418C206.838 178.997 208.148 180.226 209.73 180.226H213.843C215.61 180.226 216.995 178.706 216.83 176.946L216.71 175.664Z" fill="#DFE3EB" stroke="white" stroke-width="0.5" stroke-miterlimit="10"/>
<path d="M201.615 175.786C201.531 174.193 200.215 172.944 198.619 172.944H194.529C192.845 172.944 191.49 174.33 191.53 176.014L191.56 177.296C191.598 178.925 192.929 180.226 194.559 180.226H198.687C200.405 180.226 201.773 178.784 201.682 177.068L201.615 175.786Z" fill="#DFE3EB" stroke="white" stroke-width="0.5" stroke-miterlimit="10"/>
<path d="M176.426 175.944C176.426 174.287 177.769 172.944 179.426 172.944H183.485C185.122 172.944 186.456 174.255 186.485 175.891L186.507 177.173C186.537 178.85 185.185 180.226 183.508 180.226H179.426C177.769 180.226 176.426 178.883 176.426 177.226V175.944Z" fill="#DFE3EB" stroke="white" stroke-width="0.5" stroke-miterlimit="10"/>
<path d="M77.2048 188.001C77.503 186.62 78.7244 185.634 80.1373 185.634H95.0671C96.912 185.634 98.3197 187.283 98.0298 189.105L97.792 190.6C97.5603 192.057 96.3042 193.129 94.8293 193.129H79.8145C77.9027 193.129 76.4786 191.364 76.8821 189.495L77.2048 188.001Z" fill="#DFE3EB" stroke="white" stroke-width="0.5" stroke-miterlimit="10"/>
<path d="M284.718 185.634H258.912L260.36 193.129H286.72L284.718 185.634Z" fill="#0B4870" stroke="white" stroke-width="0.5" stroke-miterlimit="10"/>
<path d="M253.717 185.634H243.411L244.561 193.129H255.122L253.717 185.634Z" fill="#0B4870" stroke="white" stroke-width="0.5" stroke-miterlimit="10"/>
<path d="M238.216 185.634H227.91L228.762 193.129H239.323L238.216 185.634Z" fill="#0B4870" stroke="white" stroke-width="0.5" stroke-miterlimit="10"/>
<path d="M223.005 188.312C222.84 186.788 221.554 185.634 220.022 185.634H215.658C213.908 185.634 212.529 187.127 212.668 188.872L212.787 190.367C212.911 191.926 214.213 193.129 215.777 193.129H220.183C221.968 193.129 223.358 191.581 223.166 189.807L223.005 188.312Z" fill="#DFE3EB" stroke="white" stroke-width="0.5" stroke-miterlimit="10"/>
<path d="M207.405 188.43C207.298 186.856 205.99 185.634 204.412 185.634H200.031C198.327 185.634 196.966 187.051 197.033 188.753L197.093 190.248C197.157 191.857 198.48 193.129 200.09 193.129H204.514C206.251 193.129 207.625 191.658 207.507 189.925L207.405 188.43Z" fill="#DFE3EB" stroke="white" stroke-width="0.5" stroke-miterlimit="10"/>
<path d="M73.9762 201.2C74.3228 199.882 75.5145 198.963 76.8777 198.963H92.241C94.1476 198.963 95.5705 200.718 95.1761 202.583L94.8691 204.036C94.5758 205.423 93.3516 206.415 91.9339 206.415H76.4959C74.5293 206.415 73.0945 204.555 73.5945 202.652L73.9762 201.2Z" fill="#DFE3EB" stroke="white" stroke-width="0.5" stroke-miterlimit="10"/>
<path d="M100.794 201.391C101.067 199.981 102.302 198.963 103.738 198.963H108.416C110.269 198.963 111.678 200.626 111.375 202.453L111.135 203.906C110.895 205.353 109.643 206.415 108.175 206.415H103.456C101.57 206.415 100.152 204.695 100.511 202.843L100.794 201.391Z" fill="#DFE3EB" stroke="white" stroke-width="0.5" stroke-miterlimit="10"/>
<path d="M116.915 201.489C117.148 200.034 118.404 198.963 119.877 198.963H128.008H194.538C196.148 198.963 197.471 200.234 197.535 201.843L197.593 203.295C197.662 204.998 196.3 206.415 194.596 206.415H119.645C117.799 206.415 116.391 204.764 116.683 202.941L116.915 201.489Z" fill="#DFE3EB" stroke="white" stroke-width="0.5" stroke-miterlimit="10"/>
<path d="M202.948 202.117C202.86 200.402 204.227 198.963 205.944 198.963H210.705C212.269 198.963 213.571 200.165 213.696 201.724L213.812 203.176C213.951 204.921 212.573 206.415 210.821 206.415H206.019C204.422 206.415 203.105 205.164 203.023 203.569L202.948 202.117Z" fill="#DFE3EB" stroke="white" stroke-width="0.5" stroke-miterlimit="10"/>
<path d="M219.096 202.236C218.935 200.479 220.319 198.963 222.084 198.963H226.824C228.343 198.963 229.622 200.098 229.803 201.605L229.977 203.058C230.191 204.843 228.797 206.415 226.998 206.415H222.216C220.665 206.415 219.37 205.233 219.229 203.688L219.096 202.236Z" fill="#DFE3EB" stroke="white" stroke-width="0.5" stroke-miterlimit="10"/>
<path d="M234.852 198.963H245.54L246.69 206.415H235.831L234.852 198.963Z" fill="#0B4870" stroke="white" stroke-width="0.5" stroke-miterlimit="10"/>
<path d="M250.863 198.963H261.552L263 206.415H252.141L250.863 198.963Z" fill="#0B4870" stroke="white" stroke-width="0.5" stroke-miterlimit="10"/>
<path d="M266.875 198.963H288.252L290.211 206.415H268.451L266.875 198.963Z" fill="#0B4870" stroke="white" stroke-width="0.5" stroke-miterlimit="10"/>
<path d="M191.824 188.566C191.787 186.936 190.455 185.634 188.824 185.634H184.494C182.837 185.634 181.494 186.977 181.494 188.634V190.129C181.494 191.785 182.837 193.129 184.494 193.129H188.858C190.542 193.129 191.896 191.744 191.858 190.06L191.824 188.566Z" fill="#DFE3EB" stroke="white" stroke-width="0.5" stroke-miterlimit="10"/>
<path d="M176.221 188.668C176.24 186.998 174.891 185.634 173.221 185.634H168.791C167.18 185.634 165.857 186.905 165.793 188.515L165.733 190.009C165.666 191.712 167.027 193.129 168.731 193.129H173.204C174.848 193.129 176.185 191.806 176.204 190.163L176.221 188.668Z" fill="#DFE3EB" stroke="white" stroke-width="0.5" stroke-miterlimit="10"/>
<path d="M160.593 188.787C160.681 187.072 159.314 185.634 157.597 185.634H153.178C151.613 185.634 150.311 186.836 150.187 188.396L150.068 189.891C149.929 191.636 151.308 193.129 153.059 193.129H157.521C159.118 193.129 160.435 191.877 160.517 190.282L160.593 188.787Z" fill="#DFE3EB" stroke="white" stroke-width="0.5" stroke-miterlimit="10"/>
<path d="M144.958 188.905C145.117 187.149 143.734 185.634 141.97 185.634H137.57C136.051 185.634 134.771 186.77 134.591 188.278L134.413 189.773C134.2 191.558 135.594 193.129 137.392 193.129H141.834C143.386 193.129 144.681 191.945 144.822 190.4L144.958 188.905Z" fill="#DFE3EB" stroke="white" stroke-width="0.5" stroke-miterlimit="10"/>
<path d="M129.311 189.023C129.546 187.227 128.148 185.634 126.337 185.634H121.967C120.492 185.634 119.236 186.706 119.004 188.162L118.766 189.657C118.476 191.479 119.884 193.129 121.729 193.129H126.141C127.648 193.129 128.921 192.011 129.116 190.517L129.311 189.023Z" fill="#DFE3EB" stroke="white" stroke-width="0.5" stroke-miterlimit="10"/>
<path d="M113.656 189.138C113.968 187.306 112.557 185.634 110.698 185.634H106.381C104.943 185.634 103.708 186.653 103.435 188.065L103.147 189.56C102.789 191.41 104.207 193.129 106.092 193.129H110.443C111.906 193.129 113.155 192.074 113.401 190.633L113.656 189.138Z" fill="#DFE3EB" stroke="white" stroke-width="0.5" stroke-miterlimit="10"/>
<path d="M82.5703 168.387L84.2737 161.915H89.1283L87.5527 168.387H82.5703Z" fill="#0B4870" stroke="white" stroke-width="0.5" stroke-miterlimit="10"/>
<path d="M93.4365 164.223C93.7569 162.87 94.9652 161.915 96.3557 161.915H100.019C101.917 161.915 103.338 163.655 102.958 165.514L102.862 165.987C102.577 167.384 101.348 168.387 99.9224 168.387H96.2437C94.3074 168.387 92.8782 166.58 93.3245 164.696L93.4365 164.223Z" fill="#DFE3EB" stroke="white" stroke-width="0.5" stroke-miterlimit="10"/>
<path d="M108.113 164.334C108.39 162.928 109.623 161.915 111.056 161.915H114.742C116.601 161.915 118.013 163.588 117.7 165.42L117.619 165.893C117.372 167.334 116.123 168.387 114.662 168.387H110.962C109.072 168.387 107.653 166.661 108.019 164.806L108.113 164.334Z" fill="#DFE3EB" stroke="white" stroke-width="0.5" stroke-miterlimit="10"/>
<path d="M122.753 164.447C122.983 162.989 124.24 161.915 125.716 161.915H129.441C131.254 161.915 132.652 163.509 132.416 165.306L132.354 165.779C132.157 167.271 130.885 168.387 129.379 168.387H125.642C123.798 168.387 122.391 166.74 122.678 164.919L122.753 164.447Z" fill="#DFE3EB" stroke="white" stroke-width="0.5" stroke-miterlimit="10"/>
<path d="M137.403 164.562C137.582 163.052 138.862 161.915 140.382 161.915H144.137C145.902 161.915 147.286 163.432 147.124 165.19L147.081 165.663C146.939 167.206 145.644 168.387 144.093 168.387H140.326C138.53 168.387 137.136 166.819 137.347 165.035L137.403 164.562Z" fill="#DFE3EB" stroke="white" stroke-width="0.5" stroke-miterlimit="10"/>
<path d="M152.062 164.678C152.186 163.118 153.488 161.915 155.053 161.915H158.828C160.546 161.915 161.914 163.356 161.824 165.072L161.799 165.545C161.715 167.138 160.398 168.387 158.803 168.387H155.016C153.266 168.387 151.887 166.896 152.025 165.151L152.062 164.678Z" fill="#DFE3EB" stroke="white" stroke-width="0.5" stroke-miterlimit="10"/>
<path d="M166.731 164.796C166.794 163.187 168.117 161.915 169.728 161.915H173.514C175.186 161.915 176.536 163.282 176.514 164.954L176.507 165.427C176.486 167.068 175.149 168.387 173.508 168.387H169.71C168.006 168.387 166.645 166.971 166.712 165.269L166.731 164.796Z" fill="#DFE3EB" stroke="white" stroke-width="0.5" stroke-miterlimit="10"/>
<path d="M181.408 164.915C181.408 163.258 182.751 161.915 184.408 161.915H188.195C189.821 161.915 191.151 163.21 191.194 164.836L191.207 165.308C191.251 166.996 189.896 168.387 188.208 168.387H184.408C182.751 168.387 181.408 167.044 181.408 165.387V164.915Z" fill="#DFE3EB" stroke="white" stroke-width="0.5" stroke-miterlimit="10"/>
<path d="M196.096 165.033C196.029 163.331 197.39 161.915 199.093 161.915H202.873C204.453 161.915 205.763 163.141 205.866 164.718L205.897 165.19C206.011 166.921 204.638 168.387 202.904 168.387H199.112C197.501 168.387 196.178 167.115 196.114 165.506L196.096 165.033Z" fill="#DFE3EB" stroke="white" stroke-width="0.5" stroke-miterlimit="10"/>
<path d="M210.792 165.151C210.654 163.406 212.032 161.915 213.782 161.915H217.569C219.112 161.915 220.403 163.085 220.555 164.62L220.602 165.093C220.776 166.857 219.389 168.387 217.616 168.387H213.82C212.254 168.387 210.952 167.184 210.829 165.623L210.792 165.151Z" fill="#DFE3EB" stroke="white" stroke-width="0.5" stroke-miterlimit="10"/>
<path d="M225.54 165.267C225.328 163.483 226.722 161.915 228.519 161.915H232.255C233.746 161.915 235.01 163.009 235.224 164.485L235.292 164.958C235.554 166.767 234.151 168.387 232.323 168.387H228.575C227.054 168.387 225.774 167.25 225.596 165.74L225.54 165.267Z" fill="#DFE3EB" stroke="white" stroke-width="0.5" stroke-miterlimit="10"/>
<path d="M239.706 161.915H249.415L250.608 168.387H240.728L239.706 161.915Z" fill="#0B4870" stroke="white" stroke-width="0.5" stroke-miterlimit="10"/>
<path d="M254.27 161.915H263.979L265.427 168.387H255.547L254.27 161.915Z" fill="#0B4870" stroke="white" stroke-width="0.5" stroke-miterlimit="10"/>
<path d="M268.834 161.915H278.543L280.247 168.387H270.367L268.834 161.915Z" fill="#0B4870" stroke="white" stroke-width="0.5" stroke-miterlimit="10"/>
<path d="M306.01 252.448H57.233C53.443 252.448 50.377 249.382 50.377 245.592H312.866C312.866 249.382 309.8 252.448 306.01 252.448Z" fill="#DFE3EB"/>
<path d="M212.154 217.104C211.899 215.571 210.536 214.421 209.003 214.421H181.664H154.282C152.707 214.421 151.387 215.571 151.131 217.104L147.724 237.757C147.384 239.716 148.917 241.504 150.876 241.504H181.621H212.367C214.369 241.504 215.859 239.716 215.518 237.757L212.154 217.104Z" fill="#DFE3EB"/>
<path d="M117.234 39.187H94.9629V41.4866H117.234V39.187Z" fill="#F3BE22"/>
<path d="M139.548 56.3486H123.494V58.6482H139.548V56.3486Z" fill="#F3BE22"/>
<path d="M152.707 56.3486H142.061V58.6482H152.707V56.3486Z" fill="#F7F7F7"/>
<path d="M105.865 99.5293H95.2188V101.829H105.865V99.5293Z" fill="#F7F7F7"/>
<path d="M180.599 56.3486H154.836V58.6482H180.599V56.3486Z" fill="#F7F7F7"/>
<path d="M111.784 90.8843H95.2188V93.1838H111.784V90.8843Z" fill="#F7F7F7"/>
<path d="M128.391 108.088H118.299V110.388H128.391V108.088Z" fill="#1A62C6"/>
<path d="M115.233 108.088H95.2188V110.388H115.233V108.088Z" fill="#F7F7F7"/>
<path d="M106.248 116.69H95.2188V118.99H106.248V116.69Z" fill="#1A62C6"/>
<path d="M137.377 39.1875H121.578V41.487H137.377V39.1875Z" fill="#F7F7F7"/>
<path d="M137.377 64.9507H121.578V67.2502H137.377V64.9507Z" fill="#EC0B43"/>
<path d="M120.428 73.5103H113.657V75.8098H120.428V73.5103Z" fill="#F7F7F7"/>
<path d="M122.089 82.2397H106.929V84.5393H122.089V82.2397Z" fill="#F3BE22"/>
<path d="M145.34 82.2397H124.389V84.5393H145.34V82.2397Z" fill="#F7F7F7"/>
<path d="M111.017 73.5952H95.2188V75.8948H111.017V73.5952Z" fill="#F7F7F7"/>
<path d="M104.587 82.2397H95.2188V84.5393H104.587V82.2397Z" fill="#F7F7F7"/>
<path d="M132.48 73.5952H123.622V75.8948H132.48V73.5952Z" fill="#F7F7F7"/>
<path d="M104.374 125.25H95.5166V127.55H104.374V125.25Z" fill="#F7F7F7"/>
<path d="M110.974 56.3486H95.1758V58.6482H110.974V56.3486Z" fill="#F7F7F7"/>
<path d="M124.942 99.5293H109.144V101.829H124.942V99.5293Z" fill="#EC0B43"/>
<path d="M125.155 116.69H109.356V118.99H125.155V116.69Z" fill="#F7F7F7"/>
<path d="M153.218 116.69H137.419V118.99H153.218V116.69Z" fill="#F7F7F7"/>
<path d="M117.703 64.9507H95.1758V67.2502H117.703V64.9507Z" fill="#F3BE22"/>
<path d="M216.541 39.1875H200.742V41.487H216.541V39.1875Z" fill="#F7F7F7"/>
<path d="M160.244 125.25H144.445V127.55H160.244V125.25Z" fill="#F7F7F7"/>
<path d="M231.998 39.1875H221.438V41.487H231.998V39.1875Z" fill="#EC0B43"/>
<path d="M267.812 47.7891H257.251V50.0886H267.812V47.7891Z" fill="#1A62C6"/>
<path d="M161.777 39.1875H141.635V41.487H161.777V39.1875Z" fill="#F7F7F7"/>
<path d="M240.218 47.7891H220.075V50.0886H240.218V47.7891Z" fill="#F3BE22"/>
<path d="M215.518 56.3486H195.376V58.6482H215.518V56.3486Z" fill="#EC0B43"/>
<path d="M189.33 64.9507H169.188V67.2502H189.33V64.9507Z" fill="#1A62C6"/>
<path d="M232.34 56.3486H218.031V58.6482H232.34V56.3486Z" fill="#F7F7F7"/>
<path d="M196.782 39.1875H176.64V41.487H196.782V39.1875Z" fill="#F7F7F7"/>
<path d="M165.482 64.9507H153.687V67.2502H165.482V64.9507Z" fill="#F7F7F7"/>
<path d="M156.241 99.6567H144.445V101.956H156.241V99.6567Z" fill="#F3BE22"/>
<path d="M172.849 39.1875H165.482V41.487H172.849V39.1875Z" fill="#EC0B43"/>
<path d="M149.002 64.9507H141.635V67.2502H149.002V64.9507Z" fill="#F7F7F7"/>
<path d="M252.439 47.7891H245.072V50.0886H252.439V47.7891Z" fill="#F7F7F7"/>
<path d="M106.503 47.7891H94.9629V50.0886H106.503V47.7891Z" fill="#F7F7F7"/>
<path d="M134.864 90.9268H125.751V93.2263H134.864V90.9268Z" fill="#F7F7F7"/>
<path d="M113.061 47.7891H109.356V50.0886H113.061V47.7891Z" fill="#EC0B43"/>
<path d="M216.54 47.7891H185.752V50.0886H216.54V47.7891Z" fill="#F7F7F7"/>
<path d="M187.03 116.69H156.241V118.99H187.03V116.69Z" fill="#EC0B43"/>
<path d="M119.576 47.7891H115.786V50.0886H119.576V47.7891Z" fill="#F7F7F7"/>
<path d="M182.899 47.7891H172.85V50.0886H182.899V47.7891Z" fill="#F3BE22"/>
<path d="M192.991 56.3486H182.941V58.6482H192.991V56.3486Z" fill="#F7F7F7"/>
<path d="M141.209 125.25H131.159V127.55H141.209V125.25Z" fill="#1A62C6"/>
<path d="M170.209 47.7891H148.789V50.0886H170.209V47.7891Z" fill="#F7F7F7"/>
<path d="M141.337 99.6567H128.817V101.956H141.337V99.6567Z" fill="#F7F7F7"/>
<path d="M134.311 116.69H128.051V118.99H134.311V116.69Z" fill="#F7F7F7"/>
<path d="M145.724 47.7891H138.356V50.0886H145.724V47.7891Z" fill="#1A62C6"/>
<path d="M120.939 56.3486H113.572V58.6482H120.939V56.3486Z" fill="#F7F7F7"/>
<path d="M122.387 90.9268H115.02V93.2263H122.387V90.9268Z" fill="#F7F7F7"/>
<path d="M135.588 47.7891H122.728V50.0886H135.588V47.7891Z" fill="#F7F7F7"/>
<path d="M66.3895 206.926C66.3895 206.926 66.2191 208.714 57.8726 208.714C49.5261 208.714 37.3896 206.543 37.3896 206.543L56.7654 204.669C56.7654 204.669 64.2177 204.286 66.3895 206.926Z" fill="#0E538C"/>
<path d="M45.1397 207.565C40.4129 207.565 38.4114 209.992 36.5377 210.758C34.664 211.525 32.7903 212.675 32.7903 212.632C33.8549 210.546 35.3454 210.503 36.1119 209.822C36.8784 209.14 36.6655 209.481 35.0047 209.353C34.0678 209.268 32.3645 211.014 31.1721 211.993C30.1075 212.803 29.4688 212.888 29.4688 212.888C29.4688 212.888 30.7037 211.142 32.2367 209.736C34.1104 208.033 36.4526 206.628 37.0062 206.372C38.0282 205.946 41.1794 205.861 43.3938 206.159C45.9488 206.5 48.5465 207.565 45.1397 207.565Z" fill="#0E538C"/>
<path d="M37.3041 206.458C37.3041 206.458 33.6844 207.394 33.0456 207.905C32.6198 208.246 30.7461 210.247 30.7461 210.247C30.7461 210.247 32.1088 210.035 32.8753 209.268C33.6844 208.459 37.3041 206.458 37.3041 206.458Z" fill="#0E538C"/>
<path d="M59.5327 203.264C59.5327 203.264 68.6457 203.86 68.007 209.481C67.6663 212.675 65.5797 213.782 62.8117 213.526C57.7016 213.101 51.9101 212.334 51.9101 212.334L49.3125 203.604L59.5327 203.264Z" fill="#1358B7"/>
<path d="M61.4493 204.03L70.392 175.201C70.392 175.201 71.7121 170.985 73.8839 171.751C76.9925 172.901 75.4595 176.35 75.204 178.394C74.6504 182.568 75.0337 184.399 72.1379 194.449C70.3494 200.666 68.8164 207.82 67.2833 211.908C66.2187 214.719 64.3876 210.673 61.6196 209.566C56.4244 207.479 61.4493 204.03 61.4493 204.03Z" fill="#1358B7"/>
<path d="M62.1308 159.53C63.8767 164.555 69.2849 167.152 74.2673 165.321C79.207 163.49 81.8472 157.912 80.1013 152.887C78.3553 147.862 72.9472 145.264 67.9648 147.095C63.025 148.926 60.3848 154.505 62.1308 159.53Z" fill="#242930"/>
<path d="M52.3357 159.998C55.0611 164.086 60.5119 165.108 64.4722 162.298L63.9186 157.486C67.879 154.633 68.8584 149.011 66.133 144.923L64.2593 142.155C61.5339 138.067 56.0831 137.045 52.1228 139.856L50.3343 141.133C46.3739 143.987 45.3945 149.608 48.1199 153.696L52.3357 159.998Z" fill="#242930"/>
<path d="M48.7592 146.584C49.2276 147.265 49.7386 147.904 50.3348 148.543C54.2525 152.801 59.4904 154.419 62.812 152.674C64.345 154.76 66.0909 156.421 67.6666 157.698C69.4977 159.189 74.1819 159.785 74.1819 159.785C76.9073 162.766 66.6871 180.183 65.9632 180.098C64.4727 179.97 62.5564 170.346 63.9617 166.854C64.6005 165.278 65.6225 163.405 65.3244 162.553C64.2598 159.615 62.7694 160.126 62.7694 160.126C62.7694 160.126 60.8105 162.425 59.2775 162.34C57.7019 162.212 54.9765 159.743 54.8487 159.7C54.3803 159.317 53.9544 158.848 53.5712 158.295L49.4831 152.163C48.4185 150.459 48.163 148.415 48.7592 146.584Z" fill="#EEBEA7"/>
<path d="M80.0154 219.957C80.0154 219.957 76.6938 223.96 75.6718 224.385C74.3091 224.982 70.1358 223.704 70.1358 223.704C70.1358 223.704 69.0287 205.35 67.7511 198.196C66.4736 191.042 64.5999 189.168 64.5147 186.911C64.387 183.292 61.3635 181.844 61.8745 179.033C62.3855 176.223 63.2798 166.173 63.5779 167.493C66.1755 178.905 69.3693 169.409 70.0933 167.919C70.4765 167.11 80.0154 219.957 80.0154 219.957Z" fill="white"/>
<path d="M64.8981 164.086C64.8981 164.086 60.8526 168.515 61.1506 170.261C61.4062 172.007 59.4047 177.458 61.4062 185.038C63.6631 193.682 64.8555 199.559 65.2813 205.223C65.7072 210.886 63.7909 216.082 64.5574 223.023C65.1536 228.473 66.3885 228.772 66.3885 228.772C66.3885 228.772 68.8158 229.368 70.5192 227.239C72.2225 225.152 69.6675 206.585 68.8158 201.986C67.9641 197.344 65.2387 186.528 64.5148 183.334C63.6205 179.417 63.7909 175.414 63.8335 174.264C64.0464 170.218 64.5574 167.706 64.9832 166.173C65.0258 165.96 65.2387 163.575 64.8981 164.086Z" fill="#1358B7"/>
<path d="M71.9676 169.282C74.1819 175.669 81.0806 178.948 87.383 176.606C93.6855 174.264 97.007 167.195 94.7927 160.807C92.5783 154.42 85.6797 151.141 79.3772 153.483C73.0748 155.782 69.7532 162.894 71.9676 169.282Z" fill="#242930"/>
<path d="M50.2923 279.063L52.5492 297.077L42.7549 301.718L37.3467 302.911L46.9707 295.458L43.8195 279.191L50.2923 279.063Z" fill="#EEBEA7"/>
<path d="M53.188 299.802L51.0588 300.356L49.6109 299.035L41.7754 302.953L34.8342 304.614C34.8342 304.614 34.749 304.06 34.962 303.762C35.8136 302.612 40.7108 300.1 40.7108 300.1C40.7108 300.1 40.796 301.761 41.4773 301.803C42.1587 301.846 48.1631 298.695 49.5683 297.843C51.953 296.353 52.4215 295.373 52.5918 295.501C53.1028 295.756 53.188 299.802 53.188 299.802Z" fill="#5D6A7F"/>
<path d="M26.6573 254.024L18.8644 269.354L8.13319 268.843L2.76758 267.268L14.6486 265.266L21.1214 252.15L26.6573 254.024Z" fill="#EEBEA7"/>
<path d="M18.226 272.08L16.0968 271.569L15.4155 269.695L5.74886 269.567L0 268.205C0 268.205 0.681349 267.438 1.10719 267.225C2.38472 266.672 6.94122 266.416 6.94122 266.416C6.94122 266.416 6.4728 267.736 7.06897 268.077C7.66515 268.46 14.3083 268.673 15.9265 268.545C18.737 268.332 19.5461 267.736 19.6313 267.906C19.9294 268.503 18.226 272.08 18.226 272.08Z" fill="#5D6A7F"/>
<path d="M83.5071 208.161L77.7157 210.758L77.7583 218.722L37.8569 212.206C37.8569 212.206 34.0669 210.971 31.6396 217.231C28.1903 226.089 19.418 253.641 19.418 253.641L24.9539 259.645L42.3708 228.516C42.3708 228.516 78.0564 245.848 89.8096 242.1C94.3235 240.652 97.7728 232.391 97.1341 224.045C96.6231 217.487 95.3455 211.482 95.3455 211.482L83.5071 208.161Z" fill="#242930"/>
<path d="M78.4406 241.93L49.8666 239.801L52.3365 285.451L43.9048 285.749L37.6875 232.264C37.6875 232.264 39.3483 224.3 44.7991 225.493C50.2924 226.728 63.4935 237.203 78.4406 241.93Z" fill="#242930"/>
<path d="M97.6878 253.385C97.6878 253.385 82.6982 236.565 78.823 227.068C74.1813 215.698 74.5646 201.433 73.7129 196.706C72.1373 188.019 70.221 171.155 69.8803 169.069C69.4971 166.982 70.8172 164.64 70.8172 164.64C70.8172 164.64 69.8378 158.337 72.6483 159.019C76.6938 159.998 80.6967 162.213 82.102 162.894C84.7422 164.086 90.1504 195.854 90.4485 197.387C91.5557 202.923 95.6012 207.948 98.4969 213.101C105.31 225.322 107.056 239.758 107.056 239.758C107.056 239.758 106.205 250.319 97.6878 253.385Z" fill="#1A62C6"/>
<path d="M82.2297 209.396C82.2297 209.396 82.102 211.44 72.5631 210.971C63.0243 210.46 49.0566 207.267 49.0566 207.267L71.1578 206.245C71.1578 206.245 79.6321 206.287 82.2297 209.396Z" fill="#EEBEA7"/>
<path d="M56.552 208.374C51.9954 208.289 50.0366 210.631 48.248 211.355C46.4595 212.079 44.6284 213.143 44.6284 213.143C45.6504 211.142 47.0983 211.099 47.8648 210.461C48.5887 209.822 48.4184 210.162 46.8002 209.992C45.8633 209.907 44.2451 211.568 43.0954 212.505C42.0733 213.314 41.4346 213.356 41.4346 213.356C41.4346 213.356 42.6269 211.653 44.1174 210.29C45.9485 208.672 48.1629 207.309 48.7165 207.096C49.6959 206.713 52.7194 206.671 54.8912 207.011C57.3185 207.352 59.8309 208.459 56.552 208.374Z" fill="#EEBEA7"/>
<path d="M48.9294 207.139C48.9294 207.139 45.4375 207.991 44.8413 208.459C44.4155 208.8 42.627 210.716 42.627 210.716C42.627 210.716 43.9045 210.503 44.671 209.779C45.4375 209.098 48.9294 207.139 48.9294 207.139Z" fill="#FFE3CA"/>
<path d="M74.6074 207.139L88.7454 199.687C88.7454 199.687 88.788 208.714 88.8731 212.164C88.9583 215.613 90.4062 220.468 87.6808 221.192C84.9554 221.915 83.5501 221.532 86.3607 223.193C89.1712 224.811 88.5325 226.515 87.4678 227.92C86.4032 229.325 91.0449 243.633 89.9377 244.443C85.5516 238.907 80.8247 232.05 78.7807 227.068C76.183 220.595 75.161 213.186 74.6074 207.139Z" fill="#1358B7"/>
<path d="M79.1644 203.519L78.6108 174.733C78.6108 174.733 78.6534 165.747 78.8237 163.107C78.9941 160.382 83.6358 163.575 83.6358 163.575C83.6358 163.575 90.1511 172.39 90.2789 193.64C90.3641 207.863 89.5976 215.273 83.0396 214.676C76.9501 214.123 70.0088 213.186 70.0088 213.186L66.9854 205.308L79.1644 203.519Z" fill="#1A62C6"/>
<path d="M77.7157 218.721L29.042 212.632L29.1697 211.61L77.8435 217.699L77.7157 218.721Z" fill="#5D6A7F"/>
<path d="M56.3814 214.974C56.2962 215.783 55.6574 216.379 54.9761 216.294L30.0218 213.186C29.3404 213.1 28.4888 212.462 27.8926 210.333L18.2686 185.421C18.3963 184.399 19.2054 183.888 19.8867 184.143L45.3947 188.146C46.076 188.402 46.5444 188.998 46.7999 190.105L56.3814 214.974Z" fill="#5D6A7F"/>
<path d="M53.2304 215.655L53.4859 215.698L77.8441 218.764C76.9072 219.147 75.4168 219.275 73.756 219.062L53.3582 216.507L53.1027 216.464L32.7049 213.909C31.0441 213.696 29.6388 213.185 28.7871 212.632L53.2304 215.655Z" fill="#5D6A7F"/>
<path d="M79.1638 203.519L78.6102 174.732C78.6102 174.732 79.036 172.305 79.8877 170.133C80.1006 173.284 81.5485 195.981 81.7188 198.962C81.9317 202.199 84.572 202.539 85.1256 203.604C85.7217 204.626 85.2107 204.839 83.2519 204.456C81.3356 204.03 82.0169 204.37 82.4427 205.392C82.8686 206.457 81.804 206.159 78.0566 204.796C75.3312 203.817 70.0933 204.796 67.4531 205.392L79.1638 203.519Z" fill="#1358B7"/>
<path d="M247.456 132.872C242.772 134.107 234.127 138.451 232.296 145.903C229.571 157.102 235.022 173.497 226.42 189.594C223.652 194.704 273.986 201.603 273.986 201.603L283.695 145.051C283.695 145.051 271.559 132.787 269.089 131.935C263.936 130.232 256.825 130.402 247.456 132.872Z" fill="#1A62C6"/>
<path d="M283.738 145.093C285.484 149.607 289.913 176.478 284.973 182.823C284.419 183.547 287.528 184.697 286.974 188.018C286.889 188.572 285.952 191.255 285.952 191.255L281.949 192.319L273.22 182.227C273.22 182.227 276.754 176.734 281.396 155.91C282.759 149.778 283.355 144.071 283.738 145.093Z" fill="#1358B7"/>
<path d="M250.693 177.202C250.693 177.202 254.909 188.316 265.086 191.297C266.832 191.808 267.94 193.767 267.088 194.406C265.981 195.215 264.533 195.385 261.978 195.385C256.655 195.385 249.415 193.682 244.433 188.657C237.023 181.247 234.681 177.841 235.448 174.136C236.129 170.346 250.693 177.202 250.693 177.202Z" fill="#EEBEA7"/>
<path d="M233.744 142.155C231.572 145.818 230.337 151.694 230.38 160.126C230.38 166.641 235.831 177.33 236.64 180.609C236.768 181.163 237.108 183.505 237.108 183.505L243.113 189.637L255.164 181.163L251.502 175.329L250.395 175.456C250.395 175.456 249.713 172.22 249.884 170.985C250.054 169.75 246.562 152.929 244.816 142.155C243.837 135.896 235.873 138.536 233.744 142.155Z" fill="#2C73D6"/>
<path d="M244.561 175.201L248.095 174.094L249.543 173.71C249.628 174.732 250.48 175.414 250.48 175.414L247.712 175.754L244.518 176.777L240.771 179.459L244.561 175.201Z" fill="#1358B7"/>
<path d="M264.32 191.255L270.452 189.509C270.452 189.509 272.198 191.936 271.858 192.532C271.517 193.128 271.858 196.705 271.858 196.705L268.877 199.346L266.45 198.494C266.45 198.494 266.279 197.387 267.088 197.302C267.94 197.174 266.535 196.578 266.109 196.322C265.683 196.024 262.149 194.15 264.32 191.255Z" fill="#EEBEA7"/>
<path d="M254.866 132.318C254.185 134.32 255.207 136.577 257.166 137.258L260.658 138.535C262.617 139.259 264.746 138.152 265.427 136.151L268.536 126.953C269.217 124.951 268.195 122.694 266.236 121.97L262.744 120.693C260.785 119.969 258.656 121.076 257.975 123.077L254.866 132.318Z" fill="#D8A68D"/>
<path d="M270.112 140.409C269.771 141.73 268.408 142.539 267.131 142.155L256.612 139.132C255.335 138.749 254.568 137.386 254.909 136.023L259.21 119.884C259.551 118.564 260.913 117.755 262.191 118.138L272.709 121.119C273.987 121.502 274.753 122.865 274.413 124.227L270.112 140.409Z" fill="#EEBEA7"/>
<path d="M275.562 122.609C275.647 122.524 274.582 121.332 275.136 118.99C275.86 115.838 273.518 114.561 271.772 114.518C270.75 114.476 267.301 116.137 265.469 116.69C263.638 117.244 263.809 116.52 260.487 115.924C258.273 115.498 257.762 116.733 256.995 118.436C256.229 120.182 256.144 126.825 256.144 126.825C256.442 127.251 256.91 127.592 257.208 127.251C257.506 126.91 258.699 121.587 259.678 120.012C260.615 118.436 264.447 120.949 266.534 122.184C268.578 123.418 270.409 123.631 273.688 122.95C274.071 123.376 274.412 123.844 274.412 124.057C274.412 124.483 273.475 127.507 273.475 127.507C273.475 127.507 275.306 126.357 275.817 125.463C276.073 125.164 276.158 123.717 275.562 122.609Z" fill="#242930"/>
<path d="M258.23 132.659C258.102 133.085 257.677 133.383 257.251 133.255L254.994 132.617C254.568 132.489 254.312 132.02 254.44 131.595L255.59 127.293C255.718 126.868 256.144 126.57 256.569 126.697L258.826 127.336C259.252 127.464 259.508 127.932 259.38 128.358L258.23 132.659Z" fill="#EEBEA7"/>
<path d="M256.825 128.571C256.825 128.571 255.122 134.916 254.568 137.045C254.057 138.961 253.674 143.39 264.107 146.371C270.282 148.117 271.304 143.348 271.73 141.814C272.028 140.622 271.687 136.747 271.219 135.895C271.219 135.853 270.537 138.536 270.537 138.536C270.537 138.536 269.941 135.597 267.003 134.788C262.276 133.425 260.402 136.023 258.358 135.342C256.74 134.788 256.272 131.722 256.825 128.571Z" fill="#242930"/>
<path d="M263.937 138.323L267.173 139.26C267.599 139.388 268.067 139.132 268.153 138.664L268.28 138.195L263.468 136.833L263.341 137.301C263.255 137.769 263.511 138.195 263.937 138.323Z" fill="#FCD2B1"/>
<path d="M315.251 202.838C313.76 207.139 287.528 222.937 278.713 222L252.183 223.321C229.656 220.467 218.968 184.186 218.968 184.186C219.862 175.073 242.091 188.274 250.012 192.362C262.531 198.835 270.495 199.175 270.495 199.175C278.884 200.07 288.593 193.341 299.196 193.128C310.822 192.83 317.635 196.067 315.251 202.838Z" fill="#242930"/>
<path d="M257.592 198.494C257.592 198.452 257.592 198.452 257.592 198.494V197.302L303.199 196.45V197.6V197.643L303.072 197.855C302.518 198.877 301.453 199.048 300.261 199.09L260.573 199.857C259.38 199.9 258.316 199.729 257.72 198.75L257.592 198.494Z" fill="#5D6A7F"/>
<path d="M268.579 198.452C268.579 198.452 268.579 198.494 268.579 198.452L268.451 198.664C268.281 198.92 268.068 199.133 267.812 199.261L260.871 199.388C259.721 199.431 258.699 199.303 258.103 198.494L257.975 198.324C257.975 198.324 257.975 198.324 257.933 198.281V197.728L268.493 197.515L268.579 198.452Z" fill="#5D6A7F"/>
<path d="M274.754 198.026L297.536 197.6V196.791L274.711 197.259L274.754 198.026Z" fill="#5D6A7F"/>
<path d="M268.714 197.213L274.207 173.877C274.335 173.281 274.931 172.77 275.527 172.727L307.551 172.131C308.147 172.131 308.487 172.599 308.36 173.238L302.866 196.574L268.714 197.213Z" fill="#5D6A7F"/>
<path d="M248.18 229.325C251.332 229.879 253.759 226.089 253.759 226.089L261.935 219.446L260.189 214.932L244.263 222.341C244.263 222.341 244.987 228.772 248.18 229.325Z" fill="#EEBEA7"/>
<path d="M253.717 225.833C253.717 225.833 253.717 226.216 253.121 227.962C252.525 229.708 251.758 230.304 250.992 230.56C247.925 231.497 245.754 231.028 238.429 232.476C231.105 233.924 228.89 232.817 226.761 229.325C224.632 225.833 226.846 223.065 230.423 222.81C235.576 222.426 238.472 223.023 241.155 222.597C243.965 222.171 244.135 221.49 245.796 220.425C247.329 219.445 248.777 225.322 247.329 226.685C246.009 227.877 252.652 228.048 253.717 225.833Z" fill="#5D6A7F"/>
<path d="M252.183 229.197C249.16 230.134 246.945 229.666 239.621 231.114C232.296 232.561 230.082 231.454 227.953 227.962C226.973 226.344 226.931 224.896 227.484 223.789C225.866 224.939 225.313 226.94 226.761 229.325C228.89 232.817 231.104 233.924 238.429 232.476C245.753 231.028 247.967 231.497 250.991 230.56C251.587 230.39 252.183 229.964 252.694 228.984C252.524 229.069 252.354 229.155 252.183 229.197Z" fill="white"/>
<path d="M253.716 225.961C253.716 225.876 253.716 225.876 253.716 225.876C253.716 225.919 253.673 225.961 253.631 226.004C253.673 225.961 253.716 225.961 253.716 225.961Z" fill="#E9D6B8"/>
<path d="M237.918 228.559C237.705 228.644 237.492 228.176 237.407 227.537C237.279 226.217 236.981 224.939 236.555 223.619C236.342 222.98 236.342 222.427 236.598 222.342C236.853 222.256 237.279 222.725 237.449 223.364C237.875 224.641 238.131 225.961 238.258 227.239C238.344 227.877 238.131 228.474 237.918 228.559Z" fill="white"/>
<path d="M240.175 228.133C239.919 228.176 239.706 227.75 239.621 227.154C239.493 225.919 239.195 224.684 238.77 223.491C238.557 222.895 238.557 222.384 238.855 222.342C239.11 222.299 239.536 222.767 239.749 223.364C240.132 224.556 240.43 225.791 240.558 226.983C240.601 227.579 240.43 228.09 240.175 228.133Z" fill="white"/>
<path d="M242.559 228.048C242.304 228.09 242.048 227.622 241.963 226.983C241.75 225.706 241.452 224.471 240.984 223.193C240.771 222.554 240.771 222.043 241.026 222.043C241.325 222.043 241.75 222.512 241.963 223.151C242.432 224.386 242.73 225.663 242.9 226.898C242.985 227.494 242.815 228.005 242.559 228.048Z" fill="white"/>
<path d="M248.734 218.466C248.734 218.466 304.818 194.576 308.012 194.534C318.828 194.449 316.358 205.776 310.865 211.142C304.392 217.444 255.165 228.984 255.165 228.984L248.734 218.466Z" fill="#313740"/>
<path d="M270.963 222.639L255.633 207.565L262.191 200.879L278.884 219.105L270.963 222.639Z" fill="#EEBEA7"/>
<path d="M274.114 210.801C274.114 210.801 235.15 173.795 232.552 172.688C223.652 168.941 218.159 179.118 218.457 182.653C218.883 187.209 258.443 224.257 258.443 224.257L274.114 210.801Z" fill="#313740"/>
<path d="M297.195 223.789C298.089 224.641 298.259 227.239 298.259 227.239C298.259 227.239 285.271 232.349 280.715 232.434C279.522 232.477 277.393 231.966 275.349 231.369C275.008 231.284 274.199 230.347 273.859 230.262C273.22 230.092 273.092 230.688 272.581 230.518C271.218 230.049 270.196 229.666 270.154 229.581C267.386 223.534 268.323 220.553 268.323 220.553C268.323 220.553 274.284 222.342 273.262 220.936C271.091 217.955 277.35 214.932 278.713 216.508C284.334 222.853 294.554 221.277 297.195 223.789Z" fill="#5D6A7F"/>
<path d="M297.919 225.067C293.916 226.728 285.527 230.092 283.866 230.22C277.01 230.731 272.241 228.219 269.047 226.728C269.345 227.58 269.686 228.559 270.154 229.581C270.197 229.666 271.176 230.05 272.581 230.518C273.135 230.688 273.263 230.05 273.859 230.263C274.2 230.348 274.966 231.285 275.349 231.37C277.393 231.966 279.523 232.434 280.715 232.434C285.271 232.349 298.26 227.239 298.26 227.239C298.26 227.239 298.26 226.047 297.919 225.067Z" fill="white"/>
<path d="M288.763 221.15C288.89 221.405 288.379 221.661 287.656 221.831C286.165 222.129 284.717 222.598 283.269 223.194C282.545 223.492 281.907 223.577 281.821 223.322C281.736 223.066 282.205 222.598 282.929 222.3C284.334 221.704 285.824 221.278 287.272 220.98C287.954 220.767 288.635 220.894 288.763 221.15Z" fill="white"/>
<path d="M285.825 220.085C285.953 220.34 285.442 220.681 284.718 220.894C283.27 221.32 281.864 221.916 280.459 222.64C279.778 222.98 279.139 223.108 279.054 222.853C278.969 222.597 279.437 222.044 280.119 221.703C281.481 221.021 282.887 220.425 284.334 220.042C285.058 219.744 285.74 219.829 285.825 220.085Z" fill="white"/>
<path d="M283.014 219.148C283.099 219.404 282.631 219.787 281.949 220.043C280.544 220.596 279.181 221.277 277.861 222.087C277.222 222.512 276.626 222.64 276.541 222.342C276.456 222.087 276.882 221.49 277.563 221.065C278.883 220.255 280.246 219.574 281.609 219.063C282.29 218.85 282.929 218.893 283.014 219.148Z" fill="white"/>
</svg>
