<svg width="150" height="154" viewBox="0 0 150 154" fill="none" xmlns="http://www.w3.org/2000/svg">
<path d="M74.6679 16.7358C79.4097 16.7358 83.2504 12.9912 83.2504 8.36792C83.2504 3.74465 79.4097 0 74.6679 0C69.9261 0 66.0854 3.74465 66.0854 8.36792C66.0854 12.9912 69.9261 16.7358 74.6679 16.7358ZM74.6679 20.9198C68.9391 20.9198 57.5029 23.7231 57.5029 29.2877V33.4717H91.8329V29.2877C91.8329 23.7231 80.3967 20.9198 74.6679 20.9198Z" fill="#242930"/>
<path d="M132.599 76.8135C132.599 81.4368 136.344 85.1814 140.967 85.1814C145.59 85.1814 149.335 81.4368 149.335 76.8135C149.335 72.1902 145.59 68.4456 140.967 68.4456C136.344 68.4456 132.599 72.1902 132.599 76.8135ZM128.415 76.8135C128.415 71.2279 125.612 60.0776 120.047 60.0776L115.863 60.0776L115.863 93.5493L120.047 93.5493C125.612 93.5493 128.415 82.3991 128.415 76.8135Z" fill="#242930"/>
<path d="M74.668 136.891C69.9262 136.891 66.0856 140.635 66.0856 145.259C66.0856 149.882 69.9262 153.626 74.668 153.626C79.4099 153.626 83.2505 149.882 83.2505 145.259C83.2505 140.635 79.4099 136.891 74.668 136.891ZM74.668 132.707C80.3968 132.707 91.833 129.903 91.833 124.339L91.833 120.155L57.5031 120.155L57.5031 124.339C57.5031 129.903 68.9392 132.707 74.668 132.707Z" fill="#242930"/>
<path d="M16.7358 76.8135C16.7358 72.1902 12.9912 68.4455 8.36792 68.4455C3.74465 68.4455 1.61257e-06 72.1902 1.26352e-06 76.8135C9.14473e-07 81.4367 3.74465 85.1814 8.36792 85.1814C12.9912 85.1814 16.7358 81.4367 16.7358 76.8135ZM20.9198 76.8135C20.9198 82.3991 23.7231 93.5493 29.2877 93.5493L33.4717 93.5493L33.4717 60.0776L29.2877 60.0776C23.7231 60.0776 20.9198 71.2279 20.9198 76.8135Z" fill="#242930"/>
<path d="M75.0044 51.6265C73.7561 51.6265 72.4807 51.7338 71.2053 52.0023C63.7156 53.4249 57.7455 59.4107 56.3344 66.8191C55.0319 73.8249 57.637 80.267 62.3588 84.4275C63.5256 85.4475 64.1498 86.8702 64.1498 88.3733V94.5738C64.1498 97.5265 66.5921 99.9423 69.5771 99.9423H70.3369C71.2867 101.553 72.9963 102.626 75.0044 102.626C77.0125 102.626 78.7492 101.553 79.6719 99.9423H80.4317C83.4167 99.9423 85.859 97.5265 85.859 94.5738V88.3733C85.859 86.897 86.456 85.4475 87.5958 84.4544C91.5306 81.0186 94 75.9991 94 70.4159C94 60.028 85.5063 51.6265 75.0044 51.6265ZM80.4317 94.5738H69.5771V91.8896H80.4317V94.5738ZM80.4317 89.2054H69.5771V86.5212H80.4317V89.2054ZM76.3612 74.2007V81.1528H73.6476V74.2007L68.6816 69.3154L70.6083 67.4096L75.0044 71.758L79.4005 67.4096L81.3272 69.3154L76.3612 74.2007Z" fill="#EC0B43"/>
</svg>
