<svg width="332" height="272" viewBox="0 0 332 272" fill="none" xmlns="http://www.w3.org/2000/svg">
<path d="M274.128 150.732C274.128 150.732 274.462 150.539 274.975 150.348C275.765 150.049 276.983 149.737 278.087 150.059C278.087 150.059 279.146 156.405 279.869 158.744C279.936 158.944 280.008 159.167 280.087 159.386C280.087 159.386 280.101 159.444 280.133 159.545C280.785 161.341 281.814 163.58 282.29 165.851C286.755 163.009 295.387 156.644 299.653 156.715L299.663 156.714C300.736 156.735 301.526 157.152 301.911 158.139C301.911 158.139 303.177 164.02 294.884 168.525C291.99 170.094 289.158 171.009 286.702 171.527C283.941 172.11 281.655 172.202 280.262 172.178H280.263C280.263 172.178 278.024 172.407 277.015 171.35C276.009 170.293 275.825 168.321 275.825 168.321C274.752 163.46 274.128 150.732 274.128 150.732Z" fill="#165CBF"/>
<path d="M36.7047 259.252C36.7047 259.252 35.7214 261.088 35.0791 261.815C34.4356 262.545 31.9738 263.847 31.961 266.01C31.9471 268.358 36.1113 267.706 37.7402 267.621C39.369 267.536 39.4926 266.282 40.1786 264.953C40.8626 263.626 41.555 263.85 41.6828 262.778C41.8107 261.706 41.0181 259.252 41.0181 259.252H36.7047Z" fill="#5D6A7F"/>
<path d="M61.4972 259.038C61.4972 259.038 63.5053 261.279 65.5422 261.749C67.5801 262.217 69.0044 262.817 69.0214 264.102C69.0363 265.389 63.158 266.235 60.825 264.94C57.3468 263.004 56.9932 263.587 56.6065 262.621C56.2208 261.653 57.0699 259.068 57.0454 258.761C57.0134 258.381 61.4972 259.038 61.4972 259.038Z" fill="#5D6A7F"/>
<path d="M61.2723 257.966C61.2723 257.966 61.5375 259.016 61.4971 259.038C61.4576 259.06 56.9056 259.601 57.0441 258.761C57.1549 258.077 57.3147 257.333 57.3147 257.333L61.2723 257.966Z" fill="#5D6A7F"/>
<path d="M40.9614 258.545C40.9614 258.545 41.1531 259.544 41.1158 259.569C41.0786 259.593 36.501 260.411 36.5255 259.579C36.5457 258.92 36.9474 258.149 36.9474 258.149L40.9614 258.545Z" fill="#5D6A7F"/>
<path d="M55.0315 194.027C55.0315 194.027 58.7888 211.203 59.6496 216.706C60.6584 223.142 60.9993 228.457 61.2795 231.789C61.6321 235.977 61.7003 256.584 61.9485 257.81C62.1946 259.033 56.4654 258.148 56.4654 258.148C56.4654 258.148 53.6466 231.224 52.5941 226.761C51.6151 222.608 47.9804 204.723 47.0866 205.857C46.1939 206.991 45.0859 226.727 44.4233 230.004C43.7618 233.28 41.7484 258.93 41.7484 258.93C41.7484 258.93 37.1889 259.838 35.9745 258.812C35.9745 258.812 35.4227 236.707 35.8445 230.565C36.0043 228.222 33.1014 202.495 36.8246 192.139C38.7922 186.666 55.0315 194.027 55.0315 194.027Z" fill="#242930"/>
<path d="M78.5879 165.829C78.5879 165.829 81.8956 162.203 82.3079 162.163C82.7223 162.123 82.9013 162.33 82.604 162.682C82.3079 163.036 79.503 166.288 79.503 166.288C79.503 166.288 84.105 162.713 84.4374 162.601C84.6313 162.535 84.9956 162.914 84.8529 163.12C84.7123 163.323 80.3446 167.149 80.3446 167.149C80.3446 167.149 84.6483 163.821 84.953 163.814C85.2193 163.81 85.4729 164.247 85.1693 164.518C84.8667 164.788 81.0402 168.122 81.0402 168.122C81.0402 168.122 84.3202 165.914 84.5823 166.072C84.7421 166.168 85.0713 166.48 84.2073 167.023C83.3444 167.563 81.4376 169.072 81.4376 169.072L78.5879 165.829Z" fill="#F1B99E"/>
<path d="M75.4092 170.643C75.4092 170.643 76.4255 169.376 76.0484 168.492C75.7266 167.742 75.8151 166.535 75.8438 166.163C75.8779 165.667 75.4539 164.088 76.0409 164.141C76.63 164.196 76.858 166.712 77.0039 167.232C77.1499 167.751 78.392 165.761 78.8895 165.595C79.388 165.426 82.3964 167.876 81.3951 169.132C80.3937 170.39 78.5337 171.01 78.4005 171.27C78.2663 171.528 77.706 172.215 77.706 172.215L75.4092 170.643Z" fill="#EEBEA7"/>
<path d="M48.7873 156.905C48.667 156.818 48.5285 156.741 48.4092 156.689L48.3484 157.413L49.2742 158.629L49.6662 162.867C49.6662 162.867 46.9912 160.217 46.2328 159.726C45.6724 159.372 45.617 157.853 44.9267 157.475C44.116 157.026 43.2979 156.63 42.6512 156.457C42.6512 156.457 42.6001 156.484 42.5042 156.545C42.4265 155.631 42.2464 153.992 41.832 151.633C41.832 151.633 41.9705 151.255 42.1772 150.737C42.4094 151.289 42.6587 151.728 42.9176 151.995C43.1157 152.202 43.3842 152.408 43.7006 152.615C43.7006 152.615 44.5198 154.753 48.7501 156.174C48.7607 156.429 48.7703 156.68 48.7873 156.905Z" fill="#EEBEA7"/>
<path d="M46.8661 158.628C45.7028 158.628 44.2721 158.394 43.1099 157.757C42.9203 157.662 42.7317 157.552 42.5581 157.422C42.5581 157.422 42.5495 157.129 42.5059 156.544C42.6017 156.483 42.6529 156.457 42.6529 156.457C43.2984 156.629 44.1176 157.025 44.9283 157.474C45.6176 157.851 46.3047 158.274 46.8661 158.628Z" fill="#EEBEA7"/>
<path d="M48.7609 154.793C48.7524 155.103 48.7428 155.456 48.7524 155.809V156.171C44.5211 154.75 43.7029 152.612 43.7029 152.612C43.3855 152.405 43.117 152.199 42.9199 151.992C42.6611 151.725 42.4107 151.286 42.1796 150.734C41.9729 151.25 41.8344 151.63 41.8344 151.63C41.8344 151.63 41.8344 151.63 41.8259 151.612C41.7652 151.268 41.6959 150.906 41.6267 150.526C41.5936 150.336 41.7396 150.284 42.024 150.327C42.1093 150.345 42.2126 150.371 42.3244 150.395C44.1248 150.948 48.795 153.783 48.795 153.783C48.795 153.783 48.779 154.215 48.7609 154.793Z" fill="#F1B99E"/>
<path d="M49.0463 157.972C49.1411 158.179 48.813 158.378 48.2441 158.499L48.3485 157.412L48.4093 156.688C48.5286 156.74 48.6671 156.816 48.7875 156.904C48.796 156.963 48.796 157.023 48.8045 157.074C48.8141 157.196 48.8492 157.351 48.9004 157.496C48.9504 157.697 49.0197 157.894 49.0463 157.972Z" fill="#F1B99E"/>
<path d="M52.9837 150.889C52.6908 151.199 51.8044 155.034 50.6571 155.146C50.312 155.18 49.6142 155.042 48.7609 154.793C48.7609 154.793 48.6746 154.767 48.5191 154.716C47.3036 154.354 45.8399 153.785 44.6595 153.164C44.2803 152.974 43.9532 152.786 43.7029 152.612C43.3854 152.405 43.117 152.199 42.9199 151.992C42.661 151.725 42.4107 151.286 42.1795 150.734C42.1273 150.604 42.0751 150.475 42.024 150.328C41.0929 147.752 40.5581 143.271 41.2911 141.109C42.2306 138.317 49.8219 137.163 52.6993 142.427C52.6993 142.427 53.0199 143.022 53.3118 143.728C53.6644 144.607 53.9659 145.65 53.5185 145.918C52.8463 146.304 54.294 149.261 54.4826 149.743C54.6733 150.226 53.2767 150.578 52.9837 150.889Z" fill="#EEBEA7"/>
<path d="M53.3116 143.729C53.3031 143.738 53.3031 143.746 53.3031 143.746C49.3477 146.263 49.1495 143.867 47.4866 144.273C45.8226 144.669 46.8826 147.495 46.8826 147.495C46.8826 147.495 46.2637 147.442 45.5222 147.504C44.8671 147.563 44.1182 147.702 43.6356 148.056C43.6015 148.081 43.5674 148.116 43.5248 148.159C43.1541 148.547 42.68 149.563 42.3263 150.399C42.2741 150.521 42.2315 150.633 42.1804 150.736C41.9737 151.253 41.8352 151.632 41.8352 151.632C41.8352 151.632 41.8352 151.632 41.8267 151.614C41.7585 151.494 41.4304 150.736 40.0764 146.047C38.2846 139.801 41.8342 139.559 42.4638 139.396C43.0923 139.232 48.5285 136.533 52.1835 137.776C54.965 138.714 53.4139 143.41 53.3116 143.729Z" fill="#242930"/>
<path d="M45.114 145.875C44.968 145.487 44.494 143.821 43.0643 144.8C41.6358 145.777 43.9549 148.916 44.2031 148.956C44.4535 148.997 46.3486 149.135 45.114 145.875Z" fill="#EEBEA7"/>
<path d="M48.7517 155.809V156.171C44.5203 154.75 43.7021 152.612 43.7021 152.612C43.9525 152.784 44.2795 152.974 44.6588 153.164C45.9851 153.819 47.8643 154.482 48.5184 154.716C48.6739 154.767 48.7602 154.792 48.7602 154.792C48.7516 155.102 48.7431 155.456 48.7517 155.809Z" fill="#C38E74"/>
<path d="M78.5006 171.682C78.5006 171.682 78.3685 171.316 78.0905 170.833C77.6665 170.085 76.9048 169.044 75.7778 168.554C75.7778 168.554 70.3735 172.601 68.113 173.874C67.9137 173.979 67.6954 174.099 67.4759 174.21C67.4759 174.21 67.4227 174.243 67.3246 174.298C65.5083 175.21 63.0699 176.205 61.0565 177.59C59.4809 172.502 57.0541 162.014 53.5504 159.238L53.5429 159.232C52.6619 158.536 51.7213 158.324 50.7018 158.809C50.7018 158.809 45.4606 162.372 48.9462 171.243C50.1649 174.336 51.8012 176.899 53.4172 178.914C55.2336 181.18 57.019 182.764 58.1631 183.67H58.161C58.161 183.67 59.8111 185.326 61.3846 185.202C62.958 185.078 64.5187 183.724 64.5187 183.724H64.5176C68.8736 180.797 78.5006 171.682 78.5006 171.682Z" fill="#165CBF"/>
<path d="M57.3427 176.127C56.9038 185.493 55.4646 185.063 55.6287 193.421C55.6287 193.549 55.6713 193.946 55.715 194.273C55.732 194.48 55.7576 194.661 55.7757 194.74C55.8183 194.973 55.862 195.541 55.2931 195.653C55.2761 195.808 55.259 195.954 55.2324 196.083C54.7402 198.727 52.0866 198.771 49.0377 197.833C44.246 196.369 38.4285 193.976 38.4285 193.976C38.4285 193.976 35.0536 194.491 36.0017 190.321C36.4758 188.21 38.6447 184.037 37.8521 182.029C36.5173 178.617 34.5359 173.12 33.7167 168.544C33.3886 166.745 33.1904 165.279 33.1734 164.064C33.1393 160.436 34.7756 159.136 39.791 157.971C40.4451 157.816 41.1002 157.671 41.7383 157.532C42.2049 157.428 42.6598 157.343 43.1072 157.256C43.7294 157.136 43.1637 157.662 43.7581 157.593C44.4463 157.972 45.3806 158.959 45.9409 159.311C46.6994 159.803 48.3655 160.475 48.3655 160.475L48.7607 158.338L48.7948 156.886C48.9163 156.894 48.8641 156.92 48.9855 156.937C49.0462 156.945 49.1293 157.033 49.189 157.05C49.4383 157.092 49.3818 157.083 49.613 157.135C51.6978 157.592 52.9996 158.351 54.6092 159.84C57.1702 162.202 57.7912 166.511 57.3427 176.127Z" fill="#1A62C6"/>
<path d="M48.0176 162.371C48.0176 162.371 49.1617 180.237 48.187 186.583C48.187 186.583 49.4589 190.004 50.2835 190.293C51.108 190.584 51.7099 188.563 52.5174 186.371C53.3259 184.177 49.558 162.215 49.558 162.215L48.0176 162.371Z" fill="#0E538C"/>
<path d="M47.0654 161.245L48.0167 162.371L49.555 162.215C49.555 162.215 49.6413 161.677 49.6658 160.263C49.6658 160.263 48.7603 159.691 48.1861 159.726L47.0654 161.245Z" fill="#0E538C"/>
<path d="M48.1848 159.722L47.307 161.532L47.1685 161.816C47.1685 161.816 43.7138 159.368 42.9904 158.929C42.559 158.662 42.102 158.429 41.7664 158.265C41.4905 158.128 41.2998 158.05 41.2998 158.05C41.7749 157.327 42.0647 156.886 42.3054 156.732C42.4003 156.672 42.4514 156.645 42.4514 156.645C43.098 156.818 44.1441 157.258 44.9538 157.706C45.643 158.084 46.3322 158.507 46.8926 158.861C47.6511 159.352 48.1848 159.722 48.1848 159.722Z" fill="#043E6F"/>
<path d="M50.1228 161.022C50.0876 160.946 50.0536 160.875 50.0014 160.799V160.79C49.5454 160.049 48.4492 159.745 48.4492 159.745L48.6239 158.713L48.7262 157.627L48.7869 156.904C48.9084 156.955 49.0468 157.032 49.1662 157.118C49.5795 157.377 49.9491 157.729 49.9491 157.729C49.9673 157.773 49.9843 157.816 49.9928 157.85C50.7172 159.886 50.1228 161.022 50.1228 161.022Z" fill="#043E6F"/>
<path d="M48.685 123.122C50.5674 121.973 52.3251 120.639 53.9348 119.132L53.8027 118.776C53.8261 118.753 53.8517 118.733 53.8751 118.711L53.6961 118.227C53.7483 118.178 53.8048 118.132 53.857 118.082L52.111 113.369C52.8929 112.48 53.6258 111.543 54.2874 110.549L60.1358 111.152C61.1798 109.247 62.0438 107.218 62.6915 105.083L62.5338 104.952C62.5636 104.854 62.5999 104.76 62.6297 104.66L62.4528 104.513C62.5061 104.354 62.5636 104.195 62.6126 104.034L58.3174 100.47C58.3834 100.119 58.442 99.7633 58.49 99.4033C58.5794 98.7577 58.6359 98.11 58.6774 97.4698L64.0625 95.0611C64.0455 94.3303 63.9943 93.6081 63.9293 92.8879C63.8217 91.046 63.5629 89.2382 63.1528 87.4784L57.3586 86.4887C57.0326 85.4948 56.6374 84.536 56.2028 83.5954L59.4018 79.1744C59.3464 79.0839 59.2847 78.9965 59.2271 78.907L59.3401 78.7515C59.2687 78.6354 59.1898 78.5224 59.1174 78.4074L59.3219 78.123C58.1746 76.2427 56.8388 74.4839 55.3324 72.8743L49.827 74.9122C48.9183 74.0908 47.9435 73.3387 46.9241 72.6452L47.4322 67.7236C47.4002 67.7054 47.3661 67.6905 47.3321 67.6714L47.3715 67.3006C47.3459 67.2857 47.3172 67.2751 47.2937 67.2602L47.3544 66.6721C45.4476 65.6271 43.4214 64.7631 41.2865 64.1197L37.5207 68.6557C36.8901 68.5225 36.2551 68.4053 35.6064 68.3169C34.9576 68.2285 34.3121 68.171 33.6707 68.1294L31.2621 62.7476C29.0325 62.7944 26.8454 63.0831 24.7297 63.5785L23.7401 69.3726C22.499 69.7774 21.2942 70.2728 20.133 70.8502L15.3775 67.4093C13.4941 68.5545 11.7353 69.8904 10.1256 71.3946L10.3056 71.8771C10.2524 71.9283 10.1959 71.9719 10.1448 72.0231L10.2758 72.3821C10.2534 72.4034 10.2279 72.4236 10.2045 72.4449L11.9505 77.1589C11.1685 78.0494 10.4356 78.9869 9.77514 79.9798L3.92667 79.3779C2.88055 81.2837 2.01767 83.3099 1.3721 85.4479L1.54894 85.5949C1.49674 85.7547 1.43815 85.9113 1.38914 86.0743L1.54681 86.2053C1.51592 86.3033 1.47969 86.3992 1.44986 86.4972L5.743 90.0574C5.67801 90.4132 5.61836 90.7669 5.56935 91.127C5.48093 91.7747 5.42341 92.4192 5.38506 93.0605L0 95.4691C0.00639176 95.679 0.0223705 95.8846 0.0308928 96.0913L0.0181082 96.0966C0.0436752 97.3249 0.150203 98.5372 0.316389 99.7335C0.458073 100.856 0.654086 101.963 0.909757 103.053L6.70602 104.039C7.02881 105.032 7.42403 105.993 7.85974 106.934L4.66173 111.355C4.73203 111.471 4.81193 111.583 4.88224 111.699L4.67983 111.981C4.73523 112.072 4.79489 112.159 4.85241 112.249L4.73949 112.404C5.88575 114.288 7.22269 116.046 8.72689 117.658L14.2334 115.616C15.1442 116.437 16.1158 117.192 17.1374 117.883L16.6292 122.806C16.6548 122.818 16.6825 122.832 16.7081 122.846L16.6473 123.432C16.6793 123.451 16.7134 123.465 16.7464 123.483L16.707 123.856C18.6128 124.903 20.6401 125.765 22.776 126.412L26.5418 121.872C27.1735 122.006 27.8074 122.125 28.4561 122.213C29.1028 122.302 29.7473 122.358 30.3907 122.397L32.8004 127.783C35.0322 127.733 37.216 127.447 39.3328 126.952L40.3203 121.155C41.5624 120.751 42.7673 120.255 43.9285 119.678L48.685 123.122ZM26.7389 95.6641C26.7442 95.4659 26.7591 95.2688 26.7857 95.0675C27.1831 92.1529 29.8794 90.1064 32.7919 90.507C35.1195 90.8255 36.8901 92.6109 37.3055 94.7991C37.3109 94.8427 37.3172 94.8864 37.3215 94.9301C37.3151 95.108 37.3002 95.2848 37.2757 95.4627C36.8783 98.3731 34.1832 100.422 31.2674 100.024C28.9174 99.7026 27.132 97.8852 26.7389 95.6641Z" fill="#242930"/>
<path d="M88.4688 60.6694C89.9261 59.3751 91.1437 57.8091 92.0535 56.0407L98.2663 54.7943C98.5741 53.7642 98.8277 52.7117 98.9811 51.6133C99.1292 50.5182 99.1654 49.4348 99.1483 48.361L99.0823 48.3269C99.0812 48.197 99.0897 48.0659 99.0865 47.9381L99.062 47.9242C99.0631 47.7197 99.0738 47.5141 99.0706 47.3096L93.4213 44.4429C93.0538 42.6755 92.388 41.0083 91.4825 39.4903L93.3137 34.0658C93.2647 34.0147 93.2104 33.9678 93.1603 33.9156L93.253 33.6418C93.1976 33.5822 93.1369 33.531 93.0815 33.4725L93.236 33.0144C91.752 31.4452 90.0241 30.1051 88.1076 29.0387L82.7993 32.4956C81.881 32.192 80.9254 31.9576 79.9347 31.8202C78.9408 31.6849 77.9565 31.6551 76.9913 31.7019L72.8058 26.9443C70.673 27.4578 68.649 28.2855 66.7964 29.3988L66.8295 30.0177C66.8241 30.0209 66.8177 30.022 66.8135 30.0262L67.1213 35.7426C65.6694 37.0337 64.4581 38.5933 63.5484 40.3575L57.3366 41.6038C57.0309 42.634 56.7763 43.6886 56.625 44.7827C56.4759 45.8789 56.4386 46.9633 56.4578 48.0372L56.4833 48.0521C56.4833 48.2545 56.4716 48.4622 56.4748 48.6646L56.5409 48.6976C56.5409 48.8276 56.5345 48.9586 56.5366 49.0865L62.1837 51.9564C62.5491 53.7237 63.217 55.3887 64.1225 56.9078L62.2902 62.3323C62.3456 62.3909 62.4064 62.4431 62.4639 62.5006L62.3084 62.9598C62.3574 63.0109 62.4117 63.0589 62.4618 63.11L62.368 63.3838C63.853 64.9529 65.5809 66.2931 67.4985 67.3595L72.8058 63.9026C73.723 64.2051 74.6796 64.4427 75.6703 64.5801C76.6653 64.7133 77.6475 64.741 78.6148 64.6983L82.7993 69.4527C84.9331 68.9403 86.9582 68.1105 88.8086 66.9994L88.4688 60.6694ZM72.5096 48.5922C72.5149 48.3962 72.5277 48.2012 72.5544 48.0009C72.9549 45.0874 75.649 43.042 78.5637 43.4383C80.8935 43.7568 82.6629 45.5444 83.0784 47.7346C83.0826 47.7783 83.089 47.8198 83.0933 47.8614C83.0869 48.0393 83.0709 48.2172 83.0475 48.3951C82.6491 51.3087 79.9539 53.3572 77.0392 52.9577C74.686 52.6371 72.9006 50.8165 72.5096 48.5922Z" fill="#EC0B43"/>
<path d="M180.177 186.813L191.365 194.382C193.389 192.429 195.294 190.399 197.071 188.287L196.829 187.977C196.885 187.912 196.942 187.847 196.996 187.781L196.681 187.376C196.778 187.262 196.88 187.149 196.975 187.035L189.195 177.066C189.985 176.018 190.754 174.961 191.474 173.874L204.221 178.281C205.663 175.889 206.979 173.43 208.149 170.918L207.918 170.743C207.971 170.633 208.027 170.524 208.078 170.414L207.798 170.203C207.883 170.023 207.972 169.846 208.055 169.667L197.73 161.878C198.181 160.741 198.609 159.597 198.996 158.439L212.436 159.397C213.207 156.714 213.827 153.997 214.31 151.254L214.155 151.19C214.182 151.044 214.213 150.897 214.24 150.75L214.088 150.688C214.13 150.459 214.176 150.23 214.218 150.001L201.957 145.042C202.091 143.893 202.201 142.74 202.273 141.585L215.499 139.037C215.553 136.25 215.471 133.464 215.233 130.683L215.213 130.68C215.184 130.263 215.175 129.847 215.14 129.432L201.761 127.78C201.614 126.648 201.43 125.518 201.225 124.391L213.242 118.551C213.203 118.392 213.158 118.231 213.118 118.073L213.171 118.047C213.115 117.824 213.053 117.599 212.996 117.375L213.15 117.301C212.49 114.613 211.669 111.947 210.716 109.315L197.357 111.189C196.9 110.084 196.396 108.992 195.872 107.907L205.72 99.3771C205.648 99.2504 205.574 99.1247 205.501 98.9979L205.647 98.8733C205.552 98.7017 205.451 98.5324 205.355 98.3608L205.626 98.1254C204.287 95.7072 202.814 93.3465 201.202 91.0455L188.767 96.3187C188.298 95.7051 187.834 95.0904 187.34 94.4906C187.018 94.1007 186.687 93.7194 186.354 93.3412L193.485 82.8033C193.404 82.7202 193.322 82.6392 193.24 82.5561L193.413 82.2994C193.31 82.1918 193.204 82.0906 193.101 81.9841L193.392 81.5537C191.443 79.5254 189.409 77.6249 187.298 75.848L176.651 84.153C175.557 83.3093 174.442 82.5018 173.305 81.7337L177.387 69.9452C177.319 69.9058 177.25 69.8674 177.182 69.8269L177.315 69.4424C177.238 69.3966 177.159 69.3518 177.081 69.306L177.293 68.6956C174.898 67.2521 172.441 65.9365 169.927 64.7668L161.798 75.5444C160.423 74.9734 159.031 74.4589 157.627 73.9837L158.501 61.7286C158.465 61.7179 158.431 61.7105 158.394 61.6998L158.429 61.2258C158.405 61.2194 158.379 61.2109 158.355 61.2045L158.408 60.4769C155.724 59.7067 153.006 59.0888 150.262 58.6051L145.212 71.0925C143.68 70.8891 142.141 70.741 140.597 70.6408L138.048 57.4173C135.262 57.363 132.474 57.4461 129.694 57.6847L128.043 71.0616C126.511 71.2608 124.982 71.5069 123.462 71.8159L117.563 59.6747C114.874 60.3373 112.207 61.1555 109.58 62.11L109.679 62.829C109.654 62.8386 109.627 62.8471 109.599 62.8567L111.372 75.5018C109.972 76.0813 108.596 76.7226 107.228 77.4023L98.386 67.1989C95.9668 68.5348 93.6071 70.0112 91.304 71.6252L91.5532 72.2153C91.4776 72.2686 91.3998 72.3197 91.3242 72.3709L91.5053 72.8013C91.4702 72.8258 91.4329 72.8492 91.3956 72.8758L96.2448 84.3117C95.7431 84.6931 95.2434 85.0788 94.7502 85.4846C94.1504 85.98 93.5741 86.4913 92.9989 86.9995L81.8122 79.4316C79.786 81.3822 77.8823 83.4137 76.1054 85.5294L76.4208 85.9331C76.3238 86.0482 76.2215 86.16 76.1257 86.274L76.3686 86.583C76.3121 86.6501 76.2556 86.7129 76.1992 86.78L83.9833 96.7491C83.1907 97.7962 82.4184 98.8562 81.6972 99.9428L68.9541 95.5314C67.5117 97.9273 66.1939 100.384 65.0253 102.895L65.3055 103.108C65.2203 103.285 65.1308 103.464 65.0477 103.643L65.2788 103.816C65.2256 103.927 65.1702 104.036 65.1191 104.148L75.4481 111.935C74.9965 113.073 74.5693 114.219 74.1826 115.375L60.7386 114.416C59.9673 117.101 59.3484 119.818 58.8647 122.562L59.0171 122.623C58.9744 122.851 58.9276 123.079 58.8882 123.31L59.0437 123.373C59.017 123.521 58.9862 123.666 58.9595 123.814L71.22 128.775C71.089 129.922 70.976 131.073 70.9025 132.228L57.6801 134.777C57.6513 136.261 57.6641 137.743 57.7153 139.228C57.7547 140.778 57.8346 142.329 57.9667 143.878L58.0029 143.882C58.0178 144.049 58.0253 144.215 58.0391 144.382L71.416 146.032C71.5619 147.165 71.7473 148.295 71.9519 149.421L59.9353 155.26C59.9907 155.485 60.0525 155.709 60.11 155.934L59.9545 156.007C59.995 156.167 60.0387 156.326 60.0791 156.484L60.0259 156.511C60.6885 159.203 61.5098 161.865 62.4612 164.495L75.8189 162.622C76.2769 163.726 76.7787 164.819 77.3039 165.905L67.4627 174.439C67.5575 174.61 67.6577 174.78 67.7535 174.95L67.4829 175.185C67.5511 175.312 67.6268 175.438 67.6981 175.565L67.5533 175.689C68.8891 178.103 70.3646 180.464 71.9763 182.769L84.4137 177.497C84.8824 178.108 85.3469 178.724 85.838 179.324C86.1607 179.715 86.4931 180.097 86.8265 180.473L79.6944 191.014C79.7967 191.119 79.9032 191.223 80.0065 191.329L79.7157 191.76C79.7956 191.844 79.8787 191.923 79.9597 192.008L79.7871 192.263C81.7344 194.285 83.767 196.188 85.8838 197.968L96.525 189.655C97.6201 190.502 98.7365 191.31 99.8721 192.078L95.791 203.866C95.8677 203.912 95.9465 203.955 96.0243 204.002L95.8123 204.613C95.8805 204.655 95.9497 204.692 96.0168 204.733L95.8847 205.116C98.2817 206.558 100.739 207.878 103.251 209.045L111.38 198.27C112.755 198.838 114.147 199.355 115.55 199.827L114.679 212.085C114.702 212.093 114.728 212.099 114.751 212.105L114.699 212.834C114.735 212.845 114.769 212.854 114.805 212.863L114.772 213.336C117.456 214.104 120.172 214.723 122.917 215.205L127.966 202.719C129.499 202.92 131.037 203.075 132.58 203.171L135.132 216.398C137.915 216.45 140.703 216.366 143.485 216.127L145.134 202.752C146.668 202.552 148.194 202.305 149.717 201.995L155.615 214.139C158.303 213.474 160.97 212.659 163.598 211.703L163.426 210.48C163.452 210.47 163.479 210.462 163.504 210.452L161.803 198.315C163.205 197.736 164.584 197.091 165.952 196.412L174.795 206.614C177.21 205.276 179.57 203.8 181.875 202.191L181.692 201.761C181.729 201.738 181.766 201.712 181.803 201.688L181.554 201.096C181.629 201.042 181.706 200.993 181.782 200.94L176.933 189.497C177.434 189.115 177.937 188.733 178.43 188.329C179.028 187.836 179.604 187.324 180.177 186.813ZM165.114 171.012C145.966 186.764 117.567 184.001 101.816 164.854C97.9024 160.097 95.1348 154.767 93.4729 149.203C89.0562 132.763 94.241 114.489 108.217 102.992C127.264 87.3201 155.511 90.0697 171.181 109.116C178.005 117.414 181.333 127.455 181.345 137.443C181.319 140.058 181.065 142.664 180.588 145.235C178.61 155.011 173.4 164.196 165.114 171.012Z" fill="#F3BE22"/>
<path d="M280.797 146.512L290.254 153.492C291.729 152.144 293.089 150.71 294.355 149.209L294.161 148.971C294.215 148.907 294.273 148.847 294.325 148.782L294.078 148.476C294.171 148.368 294.267 148.264 294.357 148.155L287.374 139.506C288.117 138.446 288.807 137.356 289.422 136.231L300.819 139.062C301.653 137.262 302.363 135.413 302.956 133.528L302.812 133.449C302.85 133.334 302.891 133.218 302.927 133.102L302.779 133.02C302.837 132.838 302.902 132.657 302.959 132.474L292.856 126.969C293.107 125.8 293.316 124.624 293.449 123.435L305.047 121.69C305.094 120.649 305.102 119.609 305.078 118.567C305.078 117.28 305.045 115.99 304.937 114.701L293.26 113.459C293.08 112.269 292.823 111.091 292.518 109.92L302.334 104.007C302.29 103.887 302.241 103.767 302.197 103.646L302.307 103.58C302.245 103.415 302.182 103.25 302.117 103.086L302.337 102.954C301.667 101.112 300.879 99.2966 299.957 97.524L288.678 100.847C288.286 100.201 287.908 99.548 287.467 98.9195C287.151 98.4657 286.814 98.0428 286.472 97.622L293.049 88.714C292.986 88.6458 292.92 88.5809 292.856 88.5116L293.021 88.2879C292.942 88.2005 292.859 88.1185 292.778 88.0322L293.052 87.6615C291.703 86.1882 290.271 84.8246 288.769 83.5655L279.638 90.9373C278.475 90.0819 277.262 89.3212 276.016 88.6288L278.617 78.1538C278.577 78.1357 278.536 78.1207 278.497 78.1005L278.59 77.7255C278.552 77.7095 278.515 77.6946 278.478 77.6765L278.622 77.0991C276.82 76.2639 274.972 75.5544 273.086 74.96L267.473 85.2593C265.999 84.8992 264.502 84.634 262.992 84.4688L261.248 72.871C259.272 72.7826 257.292 72.8156 255.314 72.9818L254.072 84.6606C252.575 84.8875 251.09 85.2071 249.621 85.6343L243.567 75.58C241.723 76.2533 239.91 77.0448 238.137 77.9641L238.293 78.4978C238.232 78.5298 238.168 78.5596 238.104 78.5905L238.217 78.9762C238.19 78.9911 238.159 79.0017 238.132 79.0166L241.192 89.4033C240.635 89.7399 240.072 90.0733 239.531 90.4515C238.901 90.8925 238.323 91.3751 237.732 91.8492L228.275 84.863C226.8 86.2159 225.438 87.6466 224.174 89.1487L224.422 89.4533C224.33 89.562 224.236 89.6664 224.144 89.774L224.336 90.0115C224.28 90.0765 224.226 90.1373 224.171 90.2012L231.155 98.8535C230.413 99.9113 229.721 101 229.108 102.127L217.71 99.2956C216.876 101.097 216.167 102.944 215.574 104.831L215.722 104.913C215.665 105.095 215.601 105.275 215.542 105.458L215.686 105.536C215.649 105.652 215.607 105.768 215.572 105.884L225.673 111.389C225.422 112.557 225.213 113.735 225.082 114.923L213.482 116.668C213.474 116.875 213.482 117.085 213.474 117.292L213.451 117.297C213.366 119.271 213.397 121.25 213.565 123.23H213.57C213.582 123.371 213.581 123.514 213.594 123.656L225.268 124.899C225.449 126.088 225.706 127.267 226.013 128.437L216.193 134.349C216.254 134.514 216.319 134.679 216.383 134.844L216.161 134.975C216.207 135.096 216.255 135.217 216.301 135.337L216.19 135.403C216.861 137.245 217.651 139.058 218.57 140.831L229.849 137.51C230.242 138.155 230.621 138.808 231.063 139.438C231.377 139.89 231.714 140.313 232.055 140.733L225.478 149.642C225.557 149.729 225.639 149.811 225.72 149.897L225.445 150.268C225.51 150.337 225.576 150.403 225.639 150.471L225.474 150.694C226.826 152.168 228.259 153.53 229.76 154.79L238.889 147.418C240.052 148.274 241.264 149.034 242.511 149.728L239.91 160.202C239.947 160.219 239.984 160.234 240.021 160.252L239.878 160.828C239.917 160.847 239.958 160.862 239.998 160.882L239.905 161.255C241.707 162.09 243.555 162.801 245.441 163.395L251.053 153.097C252.53 153.457 254.024 153.721 255.535 153.888L257.281 165.487C259.257 165.575 261.235 165.542 263.212 165.371L264.456 153.696C265.952 153.47 267.436 153.151 268.906 152.721L274.96 162.775C276.802 162.103 278.616 161.316 280.389 160.391L280.277 160.008C280.304 159.993 280.334 159.979 280.362 159.965L280.207 159.432C280.269 159.402 280.331 159.37 280.394 159.338L277.335 148.954C277.894 148.618 278.455 148.284 278.999 147.905C279.627 147.466 280.208 146.981 280.797 146.512ZM275.057 141.214C262.618 149.917 245.414 146.882 236.709 134.442C233.464 129.803 231.853 124.508 231.75 119.235C231.905 110.722 235.982 102.393 243.476 97.1479C255.917 88.4434 273.117 91.4795 281.825 103.92C284.774 108.134 286.371 112.893 286.715 117.68C286.759 118.47 286.773 119.259 286.75 120.046C286.326 128.235 282.28 136.157 275.057 141.214Z" fill="#EC0B43"/>
<path d="M227.621 83.1282C229.294 82.1737 230.86 81.0136 232.296 79.6734L232.122 79.3496C232.159 79.3155 232.199 79.2835 232.234 79.2494L232 78.8137C232.072 78.7488 232.147 78.688 232.217 78.622L228.062 70.8816C228.381 70.4597 228.69 70.0251 228.968 69.5627C229.332 68.9619 229.636 68.3451 229.912 67.7198L239.461 67.7752C239.972 65.8789 240.265 63.9529 240.328 62.0268L240.243 62.0013C240.25 61.8692 240.264 61.7371 240.267 61.6039L240.211 61.5869C240.224 61.3845 240.243 61.1799 240.249 60.9765L231.103 58.2195C230.977 57.1403 230.739 56.0804 230.401 55.0492L236.982 48.5456C236.923 48.4444 236.858 48.3453 236.798 48.2462L236.922 48.1226C236.843 47.9863 236.756 47.8563 236.675 47.7221L236.903 47.4952C235.948 45.8237 234.787 44.2588 233.446 42.8196L225.034 47.3364C224.497 46.9125 223.941 46.5087 223.34 46.1486C222.767 45.8024 222.174 45.5105 221.579 45.2453L221.63 36.7059C221.608 36.7016 221.587 36.6974 221.566 36.692L221.568 36.283C221.561 36.2808 221.553 36.2808 221.546 36.2787L221.55 35.6544C219.653 35.142 217.727 34.8491 215.801 34.7852L213.042 43.9339C211.669 44.0979 210.324 44.4293 209.035 44.931L202.317 38.1344C200.647 39.0911 199.081 40.2501 197.643 41.5892L197.876 42.026C197.806 42.0909 197.731 42.1506 197.66 42.2166L197.835 42.5405C197.799 42.5756 197.758 42.6065 197.722 42.6406L201.877 50.3843C201.557 50.8061 201.249 51.2375 200.969 51.7009C200.607 52.2996 200.304 52.9207 200.029 53.545L190.479 53.4885C189.965 55.3858 189.672 57.3108 189.609 59.2368L189.667 59.2539C189.655 59.4573 189.635 59.6608 189.629 59.8643L189.713 59.8877C189.707 60.022 189.691 60.1541 189.689 60.2862L198.838 63.0463C198.965 64.1255 199.202 65.1876 199.538 66.2177L192.959 72.7203C193.036 72.8577 193.124 72.9887 193.204 73.1219L192.977 73.3466C193.034 73.4489 193.1 73.5469 193.162 73.6481L193.037 73.7706C193.993 75.4431 195.153 77.0091 196.492 78.4441L204.906 73.9315C205.441 74.3523 206 74.7571 206.6 75.1193C207.175 75.4655 207.763 75.7553 208.361 76.0227L208.312 84.5589C208.319 84.5621 208.327 84.5642 208.333 84.5642L208.33 85.1874C208.352 85.1927 208.372 85.197 208.394 85.2023L208.392 85.6103C210.285 86.1227 212.215 86.4167 214.139 86.4785L216.899 77.3308C218.269 77.1679 219.616 76.8344 220.907 76.3359L227.621 83.1282ZM204.159 61.426C204.107 59.4254 204.594 57.3896 205.699 55.553C208.791 50.4215 215.48 48.7575 220.613 51.848C223.444 53.5524 225.209 56.3531 225.714 59.3796C225.741 59.5937 225.764 59.8068 225.779 60.023C225.797 61.9629 225.311 63.9305 224.238 65.7117C221.146 70.8432 214.461 72.5072 209.326 69.4136C206.354 67.6239 204.555 64.6272 204.159 61.426Z" fill="#1A62C6"/>
<path d="M320.242 103.483L320.149 102.886C320.172 102.875 320.199 102.865 320.222 102.857L319.315 96.9435C319.712 96.691 320.101 96.4225 320.475 96.1147C320.873 95.7876 321.233 95.4361 321.576 95.0717L328.157 97.4452C328.974 96.2617 329.646 95.0036 330.162 93.6901L329.976 93.5558C330.018 93.4578 330.061 93.363 330.099 93.2671L329.882 93.1084C329.949 92.9518 330.02 92.7984 330.083 92.6408L324.664 88.663C324.768 87.9599 324.833 87.2525 324.815 86.5409L331.146 83.5644C331.121 83.427 331.087 83.2907 331.059 83.1543L331.085 83.1415C331.05 82.9477 331.004 82.7559 330.963 82.562L331.068 82.5141C330.818 81.1249 330.399 79.7592 329.824 78.4415L322.911 79.5014C322.645 79.0785 322.358 78.6641 322.032 78.2657C321.809 77.994 321.569 77.7426 321.326 77.4987L323.441 71.6353C323.383 71.5969 323.326 71.5629 323.267 71.5234L323.379 71.2134C323.314 71.1698 323.247 71.1282 323.181 71.0856L323.362 70.5849C322.178 69.7678 320.921 69.0946 319.606 68.5811L315.464 74.2208C314.475 73.997 313.466 73.899 312.453 73.9289L309.478 67.5957C308.09 67.8471 306.725 68.2658 305.406 68.8389L305.499 69.4365C305.473 69.4482 305.449 69.4568 305.425 69.4674L305.49 69.8893C305.489 69.8903 305.487 69.8903 305.486 69.8903L306.393 75.8027C305.995 76.0563 305.606 76.3258 305.232 76.6326C304.834 76.9596 304.474 77.3122 304.13 77.6755L297.552 75.302C296.735 76.4856 296.062 77.7437 295.547 79.0583L295.764 79.2159C295.698 79.3725 295.626 79.527 295.564 79.6836L295.748 79.8178C295.707 79.9158 295.663 80.0106 295.624 80.1065L301.044 84.0854C300.94 84.7874 300.875 85.4948 300.894 86.2053L294.561 89.1839C294.596 89.3767 294.641 89.5674 294.683 89.7623L294.578 89.8103C294.602 89.9477 294.637 90.0851 294.664 90.2215L294.639 90.2353C294.891 91.6213 295.309 92.9859 295.883 94.3069L302.795 93.2458C303.062 93.6688 303.348 94.0853 303.675 94.4816C303.898 94.7543 304.139 95.0046 304.38 95.2497L302.267 101.112C302.332 101.157 302.398 101.195 302.465 101.24L302.284 101.739C302.341 101.778 302.4 101.813 302.458 101.851L302.346 102.161C303.53 102.978 304.789 103.652 306.102 104.166L310.245 98.5254C311.231 98.7502 312.241 98.8482 313.254 98.8184L316.23 105.153C317.619 104.899 318.982 104.48 320.301 103.906L320.235 103.484C320.237 103.484 320.239 103.483 320.242 103.483ZM311.207 84.8492C312.338 83.9192 314.012 84.0832 314.94 85.2114C315.18 85.5022 315.343 85.8293 315.441 86.168C315.36 86.821 315.045 87.4453 314.5 87.8949C313.368 88.8238 311.696 88.6608 310.766 87.5316C310.526 87.2408 310.363 86.9137 310.266 86.576C310.346 85.923 310.66 85.2988 311.207 84.8492Z" fill="#242930"/>
<path d="M110.704 91.077C110.704 91.077 111.356 95.0505 110.988 96.0508C110.62 97.049 106.916 101.648 107.759 103.863C108.674 106.266 114.377 101.657 116.006 100.922C117.635 100.19 117.265 98.8611 117.44 97.2333C117.613 95.6034 118.408 95.5598 118.114 94.4146C117.821 93.2694 115.11 89.3672 115.11 89.3672L110.704 91.077Z" fill="#5D6A7F"/>
<path d="M129.924 92.1518C129.924 92.1518 131.351 95.5522 132.544 97.3409C133.736 99.1295 139.932 100.813 140.067 103.255C140.202 105.696 132.732 104.181 130.403 103.386C128.073 102.592 127.72 100.208 126.312 99.6121C124.901 99.0144 124.169 98.5319 124.278 97.3686C124.388 96.2053 125.068 92.0783 125.068 92.0783C125.068 92.0783 126.124 92.0208 126.641 92.0783C127.153 92.1326 128.704 92.4895 129.924 92.1518Z" fill="#5D6A7F"/>
<path d="M114.047 28.2388C114.047 28.2388 114.942 33.5493 115.661 37.0583C115.953 38.4794 116.216 39.6076 116.38 39.9623C116.585 40.4087 118.263 42.209 120.314 44.3215C123.914 48.0277 128.672 52.6968 128.672 52.6968L130.531 49.1654C130.531 49.1654 126.306 44.2128 123.443 40.9072C122.116 39.3775 121.082 38.2035 120.892 38.0341C120.294 37.4962 119.598 32.2176 118.621 27.8691C117.644 23.5206 115.686 21.1162 115.686 21.1162L114.047 28.2388Z" fill="#165CBF"/>
<path d="M120.313 44.3215C123.913 48.0277 128.672 52.6968 128.672 52.6968L130.531 49.1654C130.531 49.1654 126.306 44.2128 123.442 40.9072C122.562 41.3387 120.953 42.3656 120.313 44.3215Z" fill="#EEBEA7"/>
<path d="M97.0075 51.9779C96.8754 52.4498 121.486 51.9779 121.486 51.9779C121.486 51.9779 114.677 47.0243 114.238 45.6991C113.795 44.376 115.97 36.4342 116.255 33.8477C116.482 31.781 117.05 22.5279 115.687 21.1163C114.263 19.6377 109.132 18.0898 109.132 18.0898L101.652 18.3679C101.652 18.3679 100.419 18.6257 99.5354 19.0369C98.6544 19.4449 93.6071 21.2431 92.7868 23.7647C91.9665 26.2851 97.8224 34.392 97.8224 34.392C97.8224 34.392 97.8352 34.7585 97.8522 35.3529C97.8746 36.1498 97.9077 37.361 97.9385 38.6724C97.978 40.3715 98.012 42.2432 98.012 43.6111C98.011 46.8261 97.1396 51.5038 97.0075 51.9779Z" fill="#1A62C6"/>
<path d="M97.0077 51.9778C97.0077 51.9778 93.6605 56.8952 93.6126 60.253C93.5647 63.6076 99.5527 74.8518 100.46 76.4583C103.184 81.2926 110.655 91.7229 110.655 91.7229C110.655 91.7229 111.941 91.6888 115.959 90.1292C115.959 90.1292 110.99 76.3549 110.36 74.9242C107.687 68.8606 106.197 64.5589 107.095 63.5181C107.994 62.4773 110.443 61.4344 111.152 60.8197C111.861 60.2051 124.214 63.1549 125.51 63.4894C128.861 64.3587 127.334 70.1911 126.592 72.8064C125.352 77.1773 124.267 92.9767 124.267 92.9767C124.267 92.9767 126.654 93.9941 130.653 93.1322C130.653 93.1322 138.505 64.609 138.758 61.7721C139.008 58.9352 139.134 54.2586 119.783 50.7026L97.0077 51.9778Z" fill="#242930"/>
<path d="M107.079 1.83668C107.079 1.83668 113.572 0.372968 112.088 8.54484C110.605 16.7167 109.043 17.358 105.125 15.6674C101.207 13.9768 101.56 8.74192 101.363 6.17456C101.167 3.6072 105.007 1.92723 107.079 1.83668Z" fill="#EEBEA7"/>
<path d="M108.796 20.1883C108.796 20.1883 105.921 23.2351 101.376 20.4653C101.376 20.4653 102.392 13.8584 101.859 10.6412C101.323 7.42188 107.788 15.6278 107.788 15.6278C107.702 15.6715 107.646 15.9783 107.632 16.4151C107.622 16.7858 107.641 17.2492 107.701 17.7254C107.834 18.7939 108.167 19.9252 108.796 20.1883Z" fill="#EEBEA7"/>
<path d="M101.68 10.3652C101.68 10.3652 101.846 7.7915 102.787 7.71053C103.727 7.6317 103.871 8.66717 103.871 8.66717L104.822 8.8472C104.822 8.8472 104.523 6.59091 105.463 6.19675C106.401 5.80259 111.545 7.43888 112.299 6.77627C113.054 6.11366 114.605 0.450556 113.112 0.593305C107.098 1.16643 106.207 -1.11862 103.449 0.748842C103.449 0.748842 101.299 0.502755 100.981 2.23705C100.66 3.97135 101.095 9.07624 101.68 10.3652Z" fill="#242930"/>
<path d="M107.701 17.7251C103.011 16.2784 102.66 13.4543 102.653 13.4106C104.197 16.0622 107.632 16.4137 107.632 16.4137C107.622 16.7855 107.641 17.2489 107.701 17.7251Z" fill="#C38E74"/>
<path d="M124.3 51.6315C124.3 51.6315 107.305 53.727 97.0068 51.9767L116.683 49.519C116.683 49.5201 116.798 50.0197 124.3 51.6315Z" fill="#0B4870"/>
<path d="M111.588 48.7466L112.855 49.3879C112.855 49.3879 112.567 51.3992 111.872 52.0075L110.453 51.6442C110.453 51.6442 110.748 49.4401 111.588 48.7466Z" fill="#EEBEA7"/>
<path d="M97.8496 35.3527C97.872 36.1496 97.905 37.3608 97.9359 38.6722C100.243 33.0155 98.9096 28.5039 98.8872 28.4272C99.1365 29.9623 97.8677 35.2782 97.8496 35.3527Z" fill="#1050AB"/>
<path d="M115.66 37.0591C115.952 38.4802 116.215 39.6083 116.379 39.9631C117.168 36.1493 116.458 31.2671 116.458 31.2671C116.349 33.599 115.66 37.0591 115.66 37.0591Z" fill="#1050AB"/>
<path d="M111.955 51.8127L136.112 51.459L123.915 57.6515L111.955 51.8127Z" fill="#C8CCD2"/>
<path d="M123.915 57.6514L111.955 53.0174V51.8125L124.861 56.47L123.915 57.6514Z" fill="#5D6A7F"/>
<path d="M91.9236 44.6281C92.1761 44.92 95.5169 46.2634 99.2912 47.7175H99.2923C104.448 49.7053 110.265 51.5824 110.265 51.5824L111.588 48.7466C111.588 48.7466 105.498 45.4378 101.382 43.1133C99.4372 42.0182 97.9351 41.1414 97.721 40.939C97.0584 40.3084 96.8879 39.2985 97.3748 37.5365C97.8616 35.7734 98.9823 27.6708 99.1091 26.7259C99.2348 25.7799 98.7937 23.2583 96.4277 23.1337C94.0649 23.0069 92.8611 23.6738 92.8611 23.6738C92.8611 23.6738 92.2677 23.9209 91.8267 29.6576C91.3857 35.3942 91.3228 43.9357 91.9236 44.6281Z" fill="#2875DF"/>
<path d="M99.291 47.7185C104.448 49.7063 110.454 51.6451 110.454 51.6451L111.588 48.7475C111.588 48.7475 105.497 45.4387 101.382 43.1143C101.382 43.1132 99.8833 43.844 99.291 47.7185Z" fill="#EEBEA7"/>
<path d="M112.582 49.4314C112.582 49.4314 114.091 49.1959 115.135 48.9541C115.942 48.7645 117.949 49.0234 118.459 49.5432C118.97 50.061 120.596 53.6691 120.902 53.8896C121.211 54.1102 120.745 54.6215 120.206 54.3637C120.206 54.3637 119.709 55.9425 118.487 55.3523C117.264 54.76 116.433 53.4699 115.792 53.243C115.152 53.0161 111.421 51.8688 111.421 51.8688C111.421 51.8688 111.621 49.0468 112.582 49.4314Z" fill="#EEBEA7"/>
<path d="M118.089 49.3057C118.089 49.3057 119.059 49.7723 119.312 49.9832C119.565 50.192 120.59 50.959 120.84 51.1401C121.089 51.3212 120.465 51.8347 118.63 51.0389C116.796 50.2452 118.089 49.3057 118.089 49.3057Z" fill="#EEBEA7"/>
<path d="M123.915 57.6516L131.1 38.0342L154.265 38.4113L147.416 56.4915L123.915 57.6516Z" fill="#5D6A7F"/>
<path d="M141.545 45.0269C140.575 44.5424 139.216 45.2956 138.51 46.7093C137.804 48.123 138.018 49.6619 138.988 50.1465C139.958 50.6311 141.317 49.8779 142.023 48.4641C142.729 47.0504 142.515 45.5115 141.545 45.0269Z" fill="#242930"/>
<path d="M103.852 7.57607C103.767 6.85486 102.341 6.5928 102.227 7.67408C102.112 8.75429 102.874 10.6505 103.415 10.4641C103.956 10.2777 103.97 8.57105 103.852 7.57607Z" fill="#EEBEA7"/>
<path d="M63.0555 167.955C63.0555 167.955 62.8552 167.623 62.4877 167.203C61.9263 166.553 60.976 165.681 59.7754 165.42C59.7754 165.42 55.2661 170.445 53.2963 172.136C53.1227 172.277 52.9309 172.437 52.7381 172.589C52.7381 172.589 52.6923 172.632 52.6071 172.704C51.0038 173.954 48.8072 175.406 47.1016 177.156C44.5631 172.474 40.1378 162.663 36.1589 160.623L36.1504 160.619C35.1512 160.108 34.1871 160.084 33.2816 160.758C33.2816 160.758 28.8361 165.275 33.9857 173.297C35.785 176.093 37.8911 178.287 39.8694 179.946C42.0937 181.815 44.1529 183.02 45.4515 183.685H45.4504C45.4504 183.685 47.3914 184.987 48.9116 184.559C50.4296 184.13 51.6962 182.497 51.6962 182.497H51.6952C55.3939 178.777 63.0555 167.955 63.0555 167.955Z" fill="#2875DF"/>
<path d="M63.5156 161.523C63.5156 161.523 66.8234 157.897 67.2356 157.858C67.65 157.817 67.829 158.025 67.5318 158.376C67.2356 158.73 64.4307 161.982 64.4307 161.982C64.4307 161.982 69.0328 158.407 69.3652 158.295C69.5591 158.229 69.9234 158.609 69.7806 158.814C69.64 159.018 65.2723 162.843 65.2723 162.843C65.2723 162.843 69.5761 159.515 69.8808 159.509C70.1471 159.504 70.4006 159.941 70.097 160.212C69.7945 160.482 65.9679 163.817 65.9679 163.817C65.9679 163.817 69.248 161.608 69.51 161.766C69.6698 161.862 69.999 162.174 69.1351 162.717C68.2722 163.258 66.3653 164.766 66.3653 164.766L63.5156 161.523Z" fill="#EEBEA7"/>
<path d="M60.3359 166.337C60.3359 166.337 61.3522 165.071 60.9751 164.186C60.6534 163.436 60.7418 162.23 60.7706 161.858C60.8047 161.361 60.3807 159.783 60.9677 159.836C61.5568 159.89 61.7847 162.406 61.9307 162.926C62.0766 163.445 63.3188 161.455 63.8163 161.289C64.3148 161.121 67.3232 163.571 66.3218 164.827C65.3204 166.085 63.4605 166.705 63.3273 166.965C63.1931 167.223 62.6327 167.91 62.6327 167.91L60.3359 166.337Z" fill="#EEBEA7"/>
<path d="M275.119 160.528C275.119 160.528 270.829 158.144 270.426 158.239C270.019 158.331 269.917 158.585 270.311 158.825C270.704 159.066 274.398 161.256 274.398 161.256C274.398 161.256 268.897 159.331 268.547 159.329C268.344 159.331 268.117 159.805 268.318 159.955C268.518 160.104 273.876 162.338 273.876 162.338C273.876 162.338 268.737 160.555 268.445 160.644C268.192 160.725 268.09 161.22 268.465 161.38C268.838 161.539 273.526 163.483 273.526 163.483C273.526 163.483 269.715 162.434 269.516 162.667C269.394 162.809 269.182 163.209 270.173 163.448C271.162 163.687 273.451 164.508 273.451 164.508L275.119 160.528Z" fill="#EEBEA7"/>
<path d="M279.664 164.08C279.664 164.08 278.299 163.201 278.376 162.244C278.441 161.43 277.974 160.315 277.828 159.972C277.637 159.511 277.538 157.88 276.999 158.117C276.458 158.356 277.043 160.814 277.068 161.353C277.094 161.893 275.284 160.4 274.76 160.401C274.234 160.4 272.163 163.679 273.511 164.552C274.862 165.425 276.821 165.421 277.03 165.627C277.239 165.827 277.989 166.3 277.989 166.3L279.664 164.08Z" fill="#EEBEA7"/>
<path d="M281.352 265.678C281.352 265.678 278.159 269.977 278.596 270.658C279.034 271.34 282.391 271.436 284.438 270.658C286.481 269.88 286.529 264.841 287.453 262.677C287.84 261.769 287.012 259.097 285.846 258.901C284.683 258.707 283.416 259.278 283.416 259.278C283.416 259.278 284.625 262.326 281.352 265.678Z" fill="#5D6A7F"/>
<path d="M283.394 259.241C283.394 259.241 282.723 261.073 282.478 262.82C282.275 264.27 280.202 267.347 280.3 267.737C280.397 268.126 283.025 268.479 284.096 267.476C285.167 266.473 285.856 263.553 286.09 261.807C286.312 260.18 286.589 259.377 286.589 259.377C286.589 259.377 284.418 258.172 283.394 259.241Z" fill="#EEBEA7"/>
<path d="M309.149 265.749C309.149 265.749 306.069 269.978 306.508 270.658C306.948 271.34 310.303 271.436 312.347 270.658C314.392 269.88 314.442 264.84 315.366 262.677C315.752 261.769 314.923 259.096 313.759 258.9C312.595 258.706 311.229 259.318 311.229 259.318C311.229 259.318 312.42 262.396 309.149 265.749Z" fill="#5D6A7F"/>
<path d="M311.229 259.318C311.229 259.318 310.985 261.312 310.594 262.726C310.206 264.136 308.114 267.348 308.21 267.738C308.308 268.127 310.936 268.479 312.007 267.477C313.076 266.474 313.904 263.567 314.002 261.808C314.1 260.049 313.758 258.9 313.758 258.9C313.758 258.9 312.251 258.247 311.229 259.318Z" fill="#EEBEA7"/>
<path d="M287.539 262.298V266.799H286.956V263.319L287.539 262.298Z" fill="#5D6A7F"/>
<path d="M315.45 262.298V266.799H314.865V263.319L315.45 262.298Z" fill="#5D6A7F"/>
<path d="M314.751 144.393C313.256 143.292 310.91 143.941 309.511 145.841C308.112 147.742 308.189 150.174 309.684 151.275C311.179 152.375 313.525 151.727 314.924 149.827C316.323 147.926 316.246 145.493 314.751 144.393Z" fill="#242930"/>
<path d="M295.845 189.327C295.845 189.327 293.107 202.076 292.477 205.285C291.848 208.494 290.086 224.039 289.896 226.683C289.707 229.323 287.035 239.285 287.163 240.23C287.288 241.173 283.204 260.136 283.204 260.136C283.204 260.136 284.598 261.261 286.07 260.238C286.825 259.713 295.032 242.485 295.032 237.765C295.032 231.241 299.857 222.725 300.48 221.265C306.261 207.704 305.124 203.557 305.879 202.677C306.634 201.797 306.699 203.223 307.14 205.173C307.581 207.124 308.524 223.99 309.09 226.131C309.655 228.27 309.216 235.506 309.531 239.158C309.845 242.807 311.229 259.318 311.229 259.318C311.229 259.318 312.299 260.995 313.798 259.363C314.122 259.01 316.393 240.968 316.455 236.627C316.518 232.285 316.584 226.296 316.704 224.418C317.872 206.422 320.737 203.852 316.224 191.116C307.773 167.271 295.845 189.327 295.845 189.327Z" fill="#EEBEA7"/>
<path d="M314.248 185.767C314.248 185.767 322.056 196.691 318.694 219.933C318.694 219.933 300.179 222.452 290.257 217.02C290.257 217.02 294.36 193.058 295.845 189.328C297.331 185.597 314.248 185.767 314.248 185.767Z" fill="#242930"/>
<path d="M303.769 154.718C303.769 154.718 300.394 156.124 299.397 156.324C298.398 156.524 295.022 161.509 294.344 163.345C293.663 165.184 294.344 167.939 295.741 171.175C297.14 174.412 295.821 175.491 296.46 178.726C297.099 181.963 295.036 188.86 294.917 190.659C294.798 192.457 313.698 192.748 317.41 189.472C317.41 189.472 313.678 183.879 313.197 183.08C312.72 182.281 313.118 177.926 313.557 176.809C313.997 175.69 316.922 166.178 316.922 166.178C316.922 166.178 319.314 158.873 317.155 157.193C315.275 155.735 310.16 155.217 309.241 154.897C308.32 154.577 305.648 154.439 303.769 154.718Z" fill="#1A62C6"/>
<path d="M302.398 151.399C302.398 151.399 302.476 152.12 302.569 153.117C302.61 153.558 302.655 154.056 302.696 154.564C302.812 156.02 302.907 157.591 302.851 158.392C302.851 158.392 305.841 161.388 309.24 154.897C309.24 154.897 307.809 152.221 308.886 148.575C309.963 144.93 302.398 151.399 302.398 151.399Z" fill="#EEBEA7"/>
<path d="M306.309 134.777C306.309 134.777 299.289 134.535 298.876 146.652C298.466 158.767 311.386 149.638 312.823 142.673C314.263 135.711 306.309 134.777 306.309 134.777Z" fill="#EEBEA7"/>
<path d="M300.531 139.894C300.531 139.894 302.586 144.083 307.706 146.32C307.706 146.32 308.892 149.401 308.721 150.384C308.721 150.384 317.453 143.135 312.147 137.22C306.526 130.951 299.109 137.175 300.531 139.894Z" fill="#242930"/>
<path d="M307.771 146.271C308.089 145.494 309.215 143.858 310.217 144.781C311.218 145.701 308.67 148.94 307.967 148.438C307.967 148.438 307.011 148.117 307.771 146.271Z" fill="#EEBEA7"/>
<path d="M302.569 153.117C302.611 153.558 302.656 154.056 302.696 154.565C306.573 152.654 307.163 149.894 307.182 149.809C304.422 153.376 302.569 153.117 302.569 153.117Z" fill="#C48E74"/>
<path d="M309.734 155.019C309.734 155.019 305.981 161.133 303.002 161.059C300.025 160.989 302.056 155.406 302.056 155.406C302.056 155.406 304.341 153.58 309.734 155.019Z" fill="#EEBEA7"/>
<path d="M292.779 172.748C291.67 172.843 288.129 170.873 284.717 169.402C281.752 168.126 278.571 167.214 277.161 166.696C277.013 166.645 276.943 166.472 276.929 166.233C276.885 165.339 277.79 162.508 278.493 162.698C279.266 162.903 280.058 163.123 280.853 163.346C282.513 163.812 284.186 164.295 285.741 164.737C285.928 164.79 286.111 164.84 286.29 164.892C287.875 165.342 289.314 165.738 290.465 166.018C291.692 166.319 292.582 166.482 292.955 166.429C293.778 166.306 299.332 163.81 303.125 162.053C303.224 162.004 303.325 161.961 303.424 161.91C305.188 161.092 306.508 160.461 306.674 160.353C307.2 160.021 313.853 155.951 315.948 156.53C319.654 157.555 317.146 164.612 317.146 164.612C317.362 166.94 316.59 165.067 315.948 165.538C315.268 166.037 313.926 166.219 311.32 167.334C309.716 168.022 308.327 168.446 307.333 168.835C304.747 169.848 294.849 172.573 292.779 172.748Z" fill="#2875DF"/>
</svg>
