<svg width="813" height="189" viewBox="0 0 813 189" fill="none" xmlns="http://www.w3.org/2000/svg">
<path d="M65.185 76.9045C64.7315 76.7365 64.3403 76.4338 64.064 76.0371C63.7878 75.6404 63.6397 75.1687 63.6397 74.6854C63.6397 74.2022 63.7878 73.7305 64.064 73.3337C64.3403 72.937 64.7315 72.6343 65.185 72.4663C78.786 67.5413 102.629 51.8497 103.344 2.36151C103.35 2.0538 103.294 1.74807 103.18 1.46213C103.066 1.17618 102.897 0.91574 102.681 0.695963C102.465 0.476186 102.208 0.301468 101.924 0.181984C101.64 0.0625001 101.335 0.00063788 101.027 0L70.0469 0C69.4521 0.000542888 68.8801 0.229154 68.449 0.638681C68.0179 1.04821 67.7605 1.60742 67.73 2.20097C67.2065 12.429 61.4271 55.5784 1.66902 72.4612C1.20699 72.5843 0.796401 72.8517 0.49711 73.2243C0.197818 73.5969 0.0254688 74.0553 0.00518329 74.5327H0C0 74.5896 0 74.6414 0 74.6932C0 74.745 0 74.802 0 74.8589C0.0202855 75.3363 0.192635 75.7947 0.491926 76.1673C0.791217 76.5399 1.2018 76.8073 1.66384 76.9304C61.4219 93.8132 67.2013 136.942 67.7248 147.191C67.7554 147.784 68.0127 148.343 68.4438 148.753C68.8749 149.162 69.4469 149.391 70.0418 149.392H101.022C101.33 149.391 101.635 149.329 101.919 149.21C102.203 149.09 102.46 148.915 102.676 148.696C102.891 148.476 103.061 148.215 103.175 147.929C103.289 147.644 103.345 147.338 103.339 147.03C102.629 97.516 78.786 81.8244 65.185 76.9045Z" fill="#242930"/>
<path d="M318.39 149.483H285.249V96.9892C285.249 92.3778 284.231 89.0361 282.197 86.9643C281.289 85.9857 280.195 85.2058 278.98 84.6723C277.766 84.1389 276.457 83.8631 275.134 83.8619C272.342 83.8619 269.377 85.1036 266.239 87.5869C263.097 90.0724 260.683 93.3839 259.259 97.1634V149.478H226.117V54.9028H255.947V70.0381C259.203 64.9517 263.767 61.0825 269.638 58.4303C275.509 55.7781 282.457 54.4484 290.48 54.4414C296.759 54.4414 301.731 55.5934 305.395 57.8974C308.858 59.9959 311.738 62.9555 313.766 66.4977C315.675 69.8957 316.947 73.6239 317.518 77.4934C318.069 81.0138 318.36 84.5711 318.39 88.1357V149.483Z" fill="#242930"/>
<path d="M355.709 149.483L324.849 54.4414H358.848L375.24 122.56L391.799 54.4414H422.659L391.799 149.483H355.709Z" fill="#242930"/>
<path d="M473.394 151.328C465.436 151.328 458.343 150.056 452.115 147.511C446.247 145.211 440.915 141.675 436.461 137.131C432.296 132.825 429.032 127.692 426.866 122.047C424.67 116.343 423.555 110.261 423.582 104.128C423.547 97.5972 424.629 91.1105 426.779 84.9631C428.83 79.0695 432.073 73.6878 436.297 69.1716C440.711 64.5312 446.012 60.8753 451.867 58.4328C458.044 55.7719 465.223 54.4414 473.404 54.4414C481.475 54.4414 488.627 55.7719 494.859 58.4328C500.729 60.8623 506.053 64.4949 510.507 69.1083C514.697 73.5065 517.943 78.7563 520.035 84.5196C522.173 90.3922 523.258 96.6133 523.236 102.882C523.236 104.661 523.149 106.462 522.979 108.299C522.809 110.136 522.603 111.757 522.372 113.178H458.544C458.887 118.144 460.675 121.722 463.907 123.911C467.024 126.066 470.701 127.21 474.459 127.195C477.978 127.211 481.449 126.358 484.579 124.708C487.75 123.058 489.855 120.752 490.895 117.792L518.748 125.954C515.055 133.402 509.376 139.495 501.71 144.232C494.044 148.97 484.605 151.335 473.394 151.328ZM487.93 92.9459C487.347 88.4512 485.731 84.9032 483.081 82.3021C480.432 79.701 477.03 78.3987 472.874 78.3952C468.725 78.3952 465.323 79.6975 462.667 82.3021C460.011 84.9068 458.396 88.4547 457.823 92.9459H487.93Z" fill="#242930"/>
<path d="M597.055 84.9339C591.131 84.864 585.224 85.5733 579.481 87.0439C574.211 88.4505 570.286 90.8154 567.706 94.1386V149.483H534.31V54.6349H564.888V73.9569C568.164 67.6938 572.236 62.8778 577.102 59.5089C581.7 56.2225 587.196 54.4568 592.831 54.4556C594.238 54.4112 595.646 54.4711 597.045 54.6349L597.055 84.9339Z" fill="#242930"/>
<path d="M642.449 148.937C636.825 149.002 631.261 147.767 626.18 145.325C621.329 142.981 617.027 139.617 613.562 135.456C609.981 131.104 607.236 126.112 605.469 120.738C603.507 114.825 602.536 108.622 602.595 102.386C602.523 95.8475 603.574 89.3466 605.702 83.1733C607.627 77.5869 610.618 72.4381 614.504 68.0196C618.263 63.7916 622.847 60.3992 627.966 58.0569C633.386 55.6076 639.264 54.3751 645.198 54.4442C651.812 54.4442 657.613 55.7655 662.601 58.4082C667.559 61.0206 671.667 65.026 674.432 69.944V54.4442H703.169V140.48C703.169 147.761 701.835 154.34 699.167 160.216C696.556 166.008 692.689 171.129 687.853 175.197C682.646 179.492 676.683 182.752 670.28 184.803C663.428 187.089 655.834 188.234 647.497 188.238C637.753 188.238 629.283 186.71 622.09 183.655C614.889 180.601 608.372 176.105 602.932 170.436L620.334 152.11C623.912 155.424 627.995 158.131 632.425 160.127C637.151 162.305 642.289 163.418 647.482 163.389C650.396 163.401 653.296 162.986 656.092 162.156C658.762 161.375 661.234 160.021 663.341 158.187C665.525 156.235 667.224 153.791 668.302 151.051C669.517 148.114 670.126 144.591 670.13 140.48V134.486C667.604 139.284 663.605 143.119 658.738 145.414C653.635 147.802 648.07 149.005 642.449 148.937ZM654.285 122.526C657.383 122.603 660.438 121.778 663.088 120.151C665.577 118.564 667.926 116.183 670.135 113.009V96.4185C668.693 92.4495 666.182 88.9691 662.886 86.3719C659.71 83.9074 656.379 82.6752 652.893 82.6752C650.611 82.6636 648.365 83.2391 646.363 84.3479C644.335 85.4629 642.534 86.9575 641.056 88.7524C639.491 90.6788 638.309 92.8939 637.576 95.2754C636.754 97.8657 636.344 100.572 636.36 103.293C636.36 109.05 638.041 113.691 641.403 117.214C644.765 120.738 649.059 122.508 654.285 122.526Z" fill="#242930"/>
<path d="M764.711 125.072C776.603 125.072 786.243 115.44 786.243 103.559C786.243 91.6784 776.603 82.0469 764.711 82.0469C752.82 82.0469 743.18 91.6784 743.18 103.559C743.18 115.44 752.82 125.072 764.711 125.072Z" fill="#EC0B43"/>
<path d="M766.377 125.492C779.372 125.492 789.906 114.957 789.906 101.962C789.906 88.967 779.372 78.4324 766.377 78.4324C753.381 78.4324 742.847 88.967 742.847 101.962C742.847 114.957 753.381 125.492 766.377 125.492Z" fill="#EC0B43"/>
<path fill-rule="evenodd" clip-rule="evenodd" d="M200.145 68.7769C204.142 73.0987 207.235 78.2579 209.222 83.9205V83.9464C213.293 95.5728 213.293 108.351 209.222 119.977C207.235 125.64 204.142 130.799 200.145 135.121C195.893 139.637 190.813 143.191 185.216 145.567C179.273 148.177 172.452 149.483 164.755 149.483C156.949 149.483 150.101 148.177 144.21 145.567C138.644 143.177 133.594 139.624 129.365 135.121C125.364 130.802 122.271 125.642 120.288 119.977C116.216 108.351 116.216 95.5728 120.288 83.9464C122.271 78.2819 125.364 73.122 129.365 68.8028C133.592 64.2964 138.642 60.7426 144.21 58.3566C150.094 55.7463 156.943 54.4412 164.755 54.4412C172.456 54.4412 179.276 55.7463 185.216 58.3566C190.813 60.7213 195.893 64.2672 200.145 68.7769ZM165.216 124.569C177.447 124.569 187.362 114.654 187.362 102.423C187.362 90.1926 177.447 80.2777 165.216 80.2777C152.986 80.2777 143.071 90.1926 143.071 102.423C143.071 114.654 152.986 124.569 165.216 124.569Z" fill="#242930"/>
<path fill-rule="evenodd" clip-rule="evenodd" d="M799.921 68.7769C803.918 73.0987 807.011 78.2579 808.998 83.9205V83.9464C813.069 95.5728 813.069 108.351 808.998 119.977C807.011 125.64 803.918 130.799 799.921 135.121C795.669 139.637 790.589 143.191 784.992 145.567C779.049 148.177 772.228 149.483 764.531 149.483C756.725 149.483 749.877 148.177 743.986 145.567C738.42 143.177 733.37 139.624 729.14 135.121C725.14 130.802 722.047 125.642 720.063 119.977C715.992 108.351 715.992 95.5728 720.063 83.9464C722.047 78.2819 725.14 73.122 729.14 68.8028C733.368 64.2964 738.418 60.7426 743.986 58.3566C749.87 55.7463 756.719 54.4412 764.531 54.4412C772.232 54.4412 779.052 55.7463 784.992 58.3566C790.589 60.7213 795.669 64.2672 799.921 68.7769ZM764.992 124.569C777.223 124.569 787.138 114.654 787.138 102.423C787.138 90.1926 777.223 80.2777 764.992 80.2777C752.761 80.2777 742.847 90.1926 742.847 102.423C742.847 114.654 752.761 124.569 764.992 124.569Z" fill="#242930"/>
</svg>
