<svg width="1920" height="298" viewBox="0 0 1920 298" fill="none" xmlns="http://www.w3.org/2000/svg">
<g clip-path="url(#clip0)">
<path d="M319.297 179.285C313.993 174.777 309.406 169.488 305.693 163.6C303.385 165.271 300.99 166.819 298.52 168.239C257.371 191.79 209.839 145.501 178.972 112.482C174.334 107.508 191.094 94.3342 195.278 92.7562C200.634 90.7478 221.411 79.5581 206.659 58.0395C206.659 58.0395 205.32 57.0353 203.838 45.6304C202.356 34.2255 185.284 3.21482 150.257 8.85748C150.257 8.85748 141.721 9.26394 129.455 18.8756C117.19 28.4872 110.471 26.3593 107.1 28.9654C104.194 31.1109 102.008 34.0893 100.834 37.5055C99.6597 40.9217 99.5518 44.6142 100.525 48.0931C103.442 57.6569 106.861 68.2967 100.525 66.1209C94.1886 63.9451 27.5527 27.2439 5.98622 26.0006C-9.00508 25.1399 -36.4772 27.7939 -59 47.7105V66.5274L-56.3699 67.6272C-53.6361 68.8289 -51.0053 70.2522 -48.5037 71.8831C-43.7109 67.1719 -38.2875 63.1486 -32.3886 59.9283C7.80335 37.3577 44.7915 78.004 57.6548 87.5678C70.5182 97.1316 75.5631 105.643 77.2846 111.621C79.0061 117.598 80.0103 128.836 74.1524 151.717C68.2946 174.599 74.5828 183.35 72.3114 198.939C70.04 214.528 60.3566 231.695 62.7475 242.526C65.1385 253.357 68.5815 260.171 70.1117 262.108C71.6419 264.044 71.1876 264.833 69.8965 265.957C68.6054 267.081 51.8687 283.507 55.3595 291.062C58.8503 298.618 68.0077 299.096 79.6994 297.087C83.4532 296.657 91.6542 289.317 93.5909 288.097C99.9377 284.951 106.951 283.384 114.034 283.531C125.008 283.531 125.534 264.403 104.47 239.92C104.47 239.92 101.385 232.747 113.866 231.288C126.347 229.83 129.623 224.689 135.911 222.561C142.199 220.433 145.762 222.944 145.475 227.75C145.188 232.555 143.634 253.811 151.117 258.832C158.601 263.853 167.424 264.499 176.438 268.563C185.451 272.628 192.074 279.442 199.893 279.729C207.711 280.016 210.365 275.736 210.365 275.736C210.365 275.736 227.437 275.545 221.411 262.466C215.386 249.388 187.795 240.183 183.921 233.416C180.048 226.65 195.326 204.557 192.935 184.425C192.935 184.425 192.385 182.035 188.153 179.644C183.921 177.253 165.678 175.053 163.383 170.223C161.088 165.393 164.435 158.268 167.997 158.842C171.56 159.416 219.188 188.514 227.604 191.598C235.542 194.515 273.367 220.29 320.971 180.648L319.297 179.285Z" fill="#EC0B43"/>
<path d="M627.205 66.8381C608.555 76.4019 563.366 90.5325 559.732 90.5325C559.732 90.5325 564.753 78.0756 561.238 71.8352C557.724 65.5948 548.614 61.5302 542.804 61.7693C536.994 62.0084 523.126 49.4319 506.653 51.4643C490.179 53.4966 470.095 56.557 458.834 80.5861C458.834 80.5861 447.046 88.1415 450.585 98.9248L450.776 99.4747C454.076 109.828 452.354 113.223 457.59 116.211C462.826 119.2 475.068 126.038 475.068 126.038C475.068 126.038 408.408 173.857 361.856 168.549C360.015 168.334 358.246 168.095 356.548 167.808C350.363 166.867 344.372 164.929 338.807 162.07L338.425 161.855C338.429 161.918 338.429 161.982 338.425 162.046C327.881 156.116 324.892 147.915 324.868 141.388V140.862C324.694 137.564 325.619 134.301 327.498 131.585C328.68 124.86 328.112 117.944 325.849 111.501C324.501 112.12 322.966 112.189 321.569 111.692C313.798 105.07 315.998 91.6562 317.576 88.0459C315.502 89.5159 313.522 91.1129 311.646 92.8278C311.646 92.8278 304.473 90.676 298.998 102.392C293.523 114.107 287.784 121.519 293.308 124.173C293.308 124.173 293.451 152.291 313.415 173.738C315.225 175.677 317.149 177.505 319.178 179.213C323.7 183.031 328.699 186.246 334.049 188.777C336.44 189.877 338.831 190.881 341.222 191.813C389.042 209.148 473.777 155.256 485.325 157.145C496.874 159.033 487.86 163.481 479.946 164.891C472.032 166.302 454.339 167.737 454.984 177.061C455.63 186.386 460.196 198.891 460.029 199.823C459.862 200.756 438.056 210.75 430.333 214.169C423.328 217.301 418.546 221.461 419.407 230.021C419.407 230.953 419.67 231.934 419.885 232.986C422.276 243.578 416.896 252.568 437.745 253.357C458.594 254.146 494.65 238.676 496.228 232.029C497.017 228.778 496.874 222.059 498.284 216.345C499.695 210.63 502.947 205.514 510.622 206.781C518.601 208.098 526.472 210 534.173 212.471C529.992 217.397 527.383 223.461 526.68 229.883C525.977 236.305 527.212 242.79 530.228 248.503C531.074 249.814 532.325 250.813 533.79 251.348C546.453 257.074 559.963 260.7 573.791 262.084C576.744 262.594 579.781 262.246 582.542 261.08C584.019 260.299 585.302 259.198 586.299 257.858C587.296 256.518 587.981 254.972 588.304 253.333C589.224 248.764 589.224 244.058 588.304 239.489C588.304 239.489 588.447 230.953 581.968 227.797C581.968 227.797 593.66 209.626 580.39 186.386C580.39 186.386 582.446 164.867 581.824 156.045C581.203 147.222 575.345 133.761 582.446 127.76C589.547 121.758 639.973 85.0811 678.706 87.759C682.532 88.022 686.07 88.4045 689.322 88.8349C690.254 86.3005 690.9 84.7225 690.9 84.7225C694.036 76.5781 698.181 68.859 703.237 61.7454C673.47 54.0943 643.105 58.8762 627.205 66.8381Z" fill="#F3BE22"/>
<path d="M1500.93 178.424C1506.43 172.925 1499.02 172.088 1496.72 162.596C1496.37 161.186 1495.91 159.631 1495.36 157.958C1490.99 160.349 1483.86 164.198 1477.33 167.211C1484.1 172.901 1496.94 182.489 1500.93 178.424Z" fill="#EC0B43"/>
<path d="M1474.77 119.463C1476.35 114.084 1483.48 115.973 1483.48 115.973L1483.91 114.562C1483.25 113.399 1482.21 112.5 1480.96 112.02C1479.71 111.54 1478.34 111.509 1477.07 111.932C1475.04 106.885 1474.33 101.405 1475.01 96.0081C1467.06 92.5124 1458.62 90.2315 1449.98 89.2417C1447.21 96.821 1441.97 112.864 1444.24 120.635C1444.24 120.635 1438.96 123.026 1441.49 127.808C1444.03 132.59 1444.91 134.789 1444.91 134.789C1444.91 134.789 1442.04 142.488 1457.7 157.193C1460.09 151.048 1473.05 131.633 1473.05 131.633C1473.18 127.526 1473.76 123.445 1474.77 119.463V119.463Z" fill="#EC0B43"/>
<path d="M1516.26 124.054C1516.26 124.054 1514.06 89.2414 1487.4 71.8831C1480.58 78.2336 1476.2 86.7676 1475.01 96.0078C1484.1 100.288 1486.73 104.878 1486.47 106.026C1486.2 107.174 1484.67 112.195 1483.91 114.562L1483.48 115.972C1483.48 115.972 1476.31 114.083 1474.78 119.463C1473.75 123.444 1473.16 127.525 1473.03 131.633C1473.03 131.633 1459.98 151.048 1457.68 157.192L1457.54 157.551C1456.63 160.131 1456.68 162.949 1457.66 165.499C1458.65 168.05 1460.51 170.165 1462.92 171.466C1464.83 172.471 1470.76 170.319 1477.26 167.306C1483.77 164.294 1490.91 160.444 1495.29 158.053L1499.35 155.806C1501.27 154.873 1509.47 157.384 1514.06 140.336C1514.25 140.336 1521.02 130.844 1516.26 124.054Z" fill="#F2B80C"/>
<path d="M1464.04 62.1521C1458.93 69.2732 1454.74 77.009 1451.56 85.177C1451.56 85.177 1450.91 86.7551 1449.98 89.2895C1458.62 90.2793 1467.06 92.5602 1475.01 96.0559C1476.2 86.8157 1480.58 78.2816 1487.4 71.9311C1484.89 70.2953 1482.25 68.8718 1479.51 67.6752C1474.5 65.4405 1469.33 63.594 1464.04 62.1521V62.1521Z" fill="#EC0B43"/>
<path d="M1137.1 90.078C1133.81 83.8727 1129.88 78.0237 1125.38 72.624C1122.54 69.1332 1104.06 47.1843 1098.53 52.5161C1098.12 53.0746 1097.84 53.7199 1097.71 54.4033C1097.58 55.0867 1097.61 55.7904 1097.79 56.4612C1098.27 60.1672 1099.75 69.2528 1101.71 77.9798C1102.87 84.0201 1104.66 89.9196 1107.07 95.5772C1105.31 95.1299 1103.47 95.1299 1101.71 95.5772C1100.28 96.3902 1095.23 110.425 1101.45 118.985C1101.79 119.439 1102.17 119.893 1102.57 120.348C1103.91 120.985 1105.45 121.07 1106.85 120.587C1108.41 127.498 1108.19 134.693 1106.2 141.494C1104.22 148.295 1100.53 154.479 1095.5 159.464C1096.82 160.43 1098.2 161.309 1099.63 162.094C1105.2 164.953 1111.19 166.891 1117.37 167.832C1119.98 164.389 1122.42 160.922 1124.71 157.742C1134.28 144.64 1141.79 130.39 1142.67 115.494C1143.19 106.671 1141.26 97.8753 1137.1 90.078V90.078Z" fill="#242931"/>
<path d="M1388.01 66.8381C1369.36 76.4019 1324.14 90.5325 1320.51 90.5325C1320.51 90.5325 1325.53 78.0756 1322.04 71.8352C1319.99 68.8129 1317.25 66.3232 1314.04 64.5726C1310.84 62.8221 1307.26 61.861 1303.61 61.7693C1297.8 62.0084 1283.93 49.4319 1267.43 51.4643C1250.93 53.4966 1230.9 56.557 1219.61 80.5861C1219.61 80.5861 1207.82 88.1415 1211.39 98.9248C1211.39 99.116 1211.39 99.2834 1211.55 99.4747C1214.88 109.828 1213.13 113.223 1218.37 116.211C1223.61 119.2 1235.87 126.038 1235.87 126.038C1235.87 126.038 1169.21 173.857 1122.66 168.549C1120.79 168.334 1119.02 168.095 1117.33 167.808C1111.14 166.867 1105.15 164.929 1099.59 162.07C1098.15 161.285 1096.77 160.406 1095.45 159.44C1080.58 148.37 1085.89 131.824 1089.07 130.916C1089.07 130.916 1097.22 132.279 1099.54 127.162C1100.52 124.524 1101.15 121.766 1101.4 118.961C1095.19 110.401 1100.23 96.3664 1101.67 95.5535C1103.42 95.1062 1105.26 95.1062 1107.02 95.5535C1104.63 89.9093 1102.85 84.0261 1101.71 78.0039L1099.85 78.4103C1089.6 80.7309 1080.12 85.6742 1072.35 92.7561C1072.35 92.7561 1065.18 90.6042 1059.71 102.32C1054.23 114.036 1048.49 121.448 1054.01 124.102C1054.01 124.102 1054.16 152.219 1074.12 173.666C1075.93 175.605 1077.86 177.433 1079.88 179.141C1084.41 182.949 1089.41 186.163 1094.76 188.705C1097.03 189.805 1099.42 190.809 1101.93 191.742C1149.65 209.507 1234.51 155.495 1246.06 157.384C1257.6 159.273 1248.59 163.72 1240.7 165.13C1232.81 166.541 1215.09 167.976 1215.72 177.3C1216.34 186.625 1220.93 199.13 1220.78 200.062C1220.64 200.995 1198.81 210.989 1191.06 214.408C1184.08 217.54 1179.28 221.7 1180.14 230.26C1180.14 231.193 1180.4 232.173 1180.62 233.225C1183.01 243.817 1177.63 252.807 1198.48 253.596C1219.33 254.385 1255.38 238.915 1256.96 232.268C1257.75 229.017 1257.6 222.298 1259.04 216.584C1260.47 210.869 1263.68 205.753 1271.35 207.02C1279.33 208.337 1287.2 210.239 1294.9 212.71C1290.72 217.636 1288.11 223.7 1287.41 230.122C1286.71 236.544 1287.94 243.029 1290.96 248.742C1291.81 250.057 1293.07 251.056 1294.54 251.587C1307.21 257.313 1320.72 260.939 1334.55 262.323C1337.49 262.832 1340.52 262.483 1343.27 261.319C1344.75 260.538 1346.03 259.437 1347.03 258.097C1348.03 256.757 1348.71 255.211 1349.03 253.572C1349.96 249.003 1349.96 244.297 1349.03 239.728C1349.03 239.728 1349.18 231.193 1342.7 228.036C1342.7 228.036 1354.41 209.865 1341.12 186.625C1341.12 186.625 1343.18 165.106 1342.56 156.284C1341.93 147.461 1336.08 134 1343.18 127.999C1350.28 121.998 1400.73 85.3202 1439.44 87.9981C1443.26 88.2611 1446.8 88.6436 1450.05 89.074C1450.99 86.5396 1451.63 84.9616 1451.63 84.9616C1454.8 76.8719 1458.97 69.2095 1464.04 62.1518C1434.2 54.0943 1403.86 58.8762 1388.01 66.8381Z" fill="#F3BE22"/>
<path d="M1854 87.257C1853.77 87.4744 1853.6 87.7455 1853.5 88.046C1854.12 87.5917 1854.77 87.1613 1855.42 86.731C1854.91 86.7993 1854.43 86.979 1854 87.257V87.257Z" fill="#EC0B43"/>
<path d="M1859.31 86.6829C1858.98 86.1808 1858.64 85.5831 1858.31 84.9614C1857.35 85.5113 1856.4 86.1091 1855.42 86.7307C1856.71 86.5526 1858.02 86.5365 1859.31 86.6829V86.6829Z" fill="#F3BE22"/>
<path d="M1841.6 163.6C1839.29 165.271 1836.89 166.819 1834.42 168.239C1793.27 191.79 1745.74 145.501 1714.88 112.482C1710.24 107.508 1727 94.3342 1731.18 92.7562C1736.54 90.7478 1757.31 79.5581 1742.56 58.0395C1742.56 58.0395 1741.22 57.0353 1739.74 45.6304C1738.26 34.2255 1721.16 3.21482 1686.16 8.85748C1686.16 8.85748 1677.6 9.26394 1665.36 18.8756C1653.12 28.4872 1646.37 26.3593 1643 28.9654C1640.09 31.1079 1637.9 34.0849 1636.72 37.5013C1635.55 40.9177 1635.43 44.6118 1636.4 48.0931C1639.32 57.6569 1642.76 68.2967 1636.4 66.1209C1630.04 63.9451 1563.41 27.22 1541.87 25.9767C1523.81 24.9486 1487.73 28.9654 1464.04 62.1519C1469.37 63.5725 1474.58 65.403 1479.63 67.6272C1482.37 68.8237 1485.01 70.2473 1487.52 71.8831C1492.32 67.1793 1497.74 63.1568 1503.63 59.9283C1543.71 37.3577 1580.69 78.004 1593.53 87.5678C1606.37 97.1316 1611.44 105.691 1613.19 111.669C1614.93 117.646 1615.91 128.884 1610.06 151.765C1604.2 174.646 1610.46 183.397 1608.21 198.986C1605.97 214.575 1596.26 231.743 1598.65 242.574C1601.04 253.405 1604.56 260.219 1606.11 262.036C1607.66 263.853 1607.19 264.762 1605.9 265.885C1604.6 267.009 1587.84 283.435 1591.36 290.99C1594.87 298.546 1603.98 299.024 1615.7 297.016C1619.45 296.585 1627.65 289.245 1629.57 288.026C1635.92 284.886 1642.93 283.32 1650.01 283.459C1661.01 283.459 1661.51 264.331 1640.44 239.848C1640.44 239.848 1637.36 232.675 1649.82 231.217C1662.27 229.758 1665.57 224.617 1671.89 222.49C1678.2 220.362 1681.74 222.872 1681.45 227.678C1681.16 232.484 1679.58 253.739 1687.07 258.76C1694.55 263.781 1703.23 264.403 1712.27 268.492C1721.31 272.58 1727.91 279.37 1735.72 279.657C1743.54 279.944 1746.17 275.736 1746.17 275.736C1746.17 275.736 1763.24 275.545 1757.22 262.466C1751.19 249.388 1723.7 240.183 1719.87 233.416C1716.05 226.65 1731.28 204.557 1728.89 184.425C1728.89 184.425 1728.34 182.035 1724.1 179.644C1719.87 177.253 1701.63 175.053 1699.31 170.223C1696.99 165.393 1700.39 158.268 1703.92 158.842C1707.46 159.416 1755.14 188.514 1763.56 191.598C1771.49 194.515 1809.32 220.29 1856.92 180.648C1856.3 180.17 1855.7 179.691 1855.13 179.189C1849.86 174.705 1845.3 169.449 1841.6 163.6V163.6Z" fill="#EC0B43"/>
<path d="M1235.92 126.134C1235.92 126.134 1223.75 119.439 1218.42 116.307C1213.09 113.175 1214.93 109.828 1211.6 99.5703" fill="#F3BE22"/>
<path d="M1079.89 179.405C1077.86 177.696 1075.93 175.868 1074.12 173.929L1073.67 174.12C1030.27 193.248 987.857 142.225 960.648 106.122C956.536 100.694 974.587 89.385 978.939 88.2373C984.462 86.8027 1006.29 77.8366 993.882 54.9073C993.882 54.9073 992.663 53.7597 992.376 42.2592C992.089 30.7587 978.365 -1.85399 942.955 0.0826898C942.955 0.0826898 934.395 -0.419412 921.221 7.8533C908.047 16.126 901.544 13.3286 897.909 15.5522C894.792 17.3802 892.306 20.1142 890.781 23.3902C889.256 26.6662 888.765 30.3289 889.374 33.8908C891.262 43.6938 893.558 54.6683 887.556 51.8469C881.555 49.0256 819.056 5.51017 797.752 2.01937C779.916 -0.921509 743.573 -0.730232 716.46 29.7784C710.687 36.3102 705.755 43.5393 701.779 51.297C701.779 51.297 700.966 52.8033 699.771 55.2182C699.292 56.1985 698.743 57.3461 698.169 58.5894C694.511 66.5035 689.513 78.9604 690.757 85.8224C689.645 86.2615 688.654 86.958 687.864 87.8547C687.301 88.5359 686.945 89.3643 686.839 90.2417C686.733 91.1191 686.881 92.0084 687.266 92.804C689.274 97.849 689.92 99.9769 689.92 99.9769C689.92 99.9769 686.573 106.695 698.527 121.496C698.945 122.325 699.551 123.046 700.297 123.6C706.24 127.954 712.41 131.993 718.779 135.698L721.17 138.089C723.561 134.311 725.473 131.561 725.473 131.561C725.592 127.453 726.169 123.371 727.195 119.391C728.343 115.494 732.407 115.422 734.559 115.662C733.411 109.756 732.622 103.707 732.168 98.4706C731.331 90.1979 731.068 84.1248 731.068 84.1248C730.535 82.8985 729.593 81.8949 728.403 81.2846C727.213 80.6744 725.848 80.4952 724.541 80.7775C723.059 75.5482 722.927 70.0283 724.158 64.7342C724.158 64.7342 724.158 64.5907 724.158 64.519C726.354 55.5453 731.582 47.6057 738.958 42.044C744.23 37.8776 750.046 34.4507 756.245 31.8585C798.589 13.496 831.106 57.8721 842.893 68.7271C854.681 79.582 858.793 88.6198 859.893 94.7407C860.993 100.862 860.802 112.171 852.577 134.311C844.352 156.451 849.66 165.8 845.786 181.078C841.913 196.356 830.556 212.4 831.656 223.398C832.756 234.397 835.649 241.569 837.012 243.554C838.374 245.538 837.777 246.375 836.39 247.356C835.003 248.336 816.617 262.897 819.295 270.787C821.972 278.677 831.034 280.088 842.869 279.323C846.671 279.323 855.518 272.843 857.622 271.839C864.274 269.396 871.414 268.576 878.447 269.448C889.374 270.476 891.884 251.683 873.545 225.096C873.545 225.096 871.155 217.684 883.803 217.492C896.451 217.301 900.157 212.567 906.636 211.109C913.116 209.65 916.391 212.519 915.698 217.301C915.005 222.083 911.107 243.028 918.089 248.886C925.071 254.744 933.558 256.226 941.999 261.223C950.439 266.22 956.344 273.68 964.163 274.78C971.981 275.88 974.994 271.911 974.994 271.911C974.994 271.911 991.994 273.513 987.379 259.956C982.764 246.399 956.297 234.277 953.14 227.128C949.984 219.979 967.486 199.632 967.247 179.309C967.247 179.309 966.96 176.918 963.087 174.192C959.213 171.467 941.233 167.258 939.44 162.237C937.647 157.216 941.831 150.426 945.226 151.406C948.622 152.387 993.046 186.29 1001.08 190.236C1008.66 193.965 1043.54 223.446 1094.95 189.207C1089.52 186.605 1084.46 183.31 1079.89 179.405V179.405Z" fill="#242931"/>
<path d="M1303.01 74.5132C1300.86 73.9437 1298.75 73.2246 1296.7 72.3613C1295.22 71.3837 1294.02 70.0307 1293.23 68.4402C1292.27 66.7591 1291.18 65.1597 1289.95 63.6583C1287.3 60.1154 1283.59 57.4975 1279.36 56.1746C1275.61 55.3482 1271.7 55.5213 1268.03 56.6767C1265.92 57.2661 1264.02 58.4436 1262.55 60.0718C1261.15 62.0832 1259.03 63.4784 1256.62 63.9691C1253.35 64.256 1250.38 62.2237 1247.06 62.1519C1244.56 62.2196 1242.09 62.6878 1239.74 63.5387C1237.92 64.0895 1236.27 65.1121 1234.96 66.5035C1231.52 70.3051 1231.59 76.0673 1232.33 80.8492C1232.74 83.5032 1234.08 85.8702 1234.53 88.4764C1234.66 89.3161 1234.66 90.1711 1234.53 91.0108C1234.33 92.6044 1233.82 94.1452 1233.05 95.5536C1231.28 98.877 1232.83 102.727 1237.09 104.926C1241.35 107.126 1246.92 105.5 1251.17 104.926C1256.72 104.328 1261.24 107.317 1266.45 108.56C1271.36 109.815 1276.51 109.815 1281.42 108.56C1285.79 107.671 1289.75 105.389 1292.7 102.057C1295.29 98.8053 1295.1 94.6929 1297.03 91.1543C1299.61 86.3723 1306.76 86.3723 1308.82 81.0644C1310.4 77.5736 1305.45 75.4696 1303.01 74.5132Z" fill="#E2AB23"/>
<path d="M1256.58 102.463C1256.71 102.368 1256.87 102.318 1257.03 102.32C1258.19 102.337 1259.36 102.233 1260.5 102.009C1263.59 101.326 1266.5 100.007 1269.06 98.1357C1270.47 97.0119 1271.21 95.147 1273 94.5492C1275.51 94.1782 1278.07 94.1782 1280.58 94.5492C1282.56 94.5735 1284.55 94.4537 1286.51 94.1906C1287.82 94.0617 1289.11 93.7478 1290.34 93.2581C1290.74 93.0074 1291.22 92.8982 1291.7 92.9473C1291.91 93.0237 1292.11 93.1539 1292.26 93.3255C1292.41 93.4971 1292.51 93.7043 1292.56 93.9276C1292.72 94.9536 1292.59 96.0027 1292.2 96.9641C1291.72 98.3005 1290.89 99.4874 1289.81 100.407C1287.45 102.297 1284.73 103.695 1281.82 104.52C1276.31 106.232 1270.49 106.681 1264.78 105.835C1263.3 105.575 1261.85 105.208 1260.43 104.735C1259.51 104.465 1258.6 104.138 1257.72 103.754C1257.27 103.491 1256.27 102.774 1256.58 102.463Z" fill="#F3BE22"/>
<path d="M1271.97 102.655C1273.66 103.082 1275.43 103.064 1277.1 102.603C1278.78 102.142 1280.31 101.254 1281.54 100.025C1281.61 99.9803 1281.66 99.91 1281.67 99.8293C1281.69 99.7486 1281.68 99.6641 1281.63 99.5943C1281.59 99.5246 1281.52 99.4753 1281.44 99.4574C1281.36 99.4394 1281.27 99.4543 1281.2 99.4987C1278.28 100.782 1275.17 101.589 1272 101.89C1271.92 101.915 1271.85 101.965 1271.8 102.032C1271.75 102.099 1271.72 102.18 1271.72 102.264C1271.71 102.348 1271.74 102.43 1271.78 102.5C1271.83 102.57 1271.9 102.624 1271.97 102.655V102.655Z" fill="#E2AB23"/>
<path d="M1239.1 87.5677C1239.1 87.5677 1231.76 70.831 1240.89 67.1728C1250.03 63.5146 1255.36 67.4119 1258.78 73.2219C1262.2 79.0319 1263.3 81.3273 1261.17 82.6662C1259.04 84.0051 1242.9 91.1302 1239.1 87.5677Z" fill="#F3BE22"/>
<path d="M1238.95 82.5708C1238.95 82.5708 1239.58 86.468 1240.77 87.1853C1241.97 87.9026 1253.87 85.8464 1255.12 83.8619C1256.36 81.8774 1250.69 76.689 1245.79 78.3388C1240.89 79.9885 1238.5 80.6102 1238.95 82.5708Z" fill="#E2AB23"/>
<path d="M1269.37 80.3947C1269.37 80.3947 1261 64.0644 1269.89 59.952C1278.79 55.8395 1284.24 59.2825 1288.14 64.8773C1292.04 70.4722 1293.11 72.6958 1290.96 74.1782C1288.81 75.6606 1273.39 83.742 1269.37 80.3947Z" fill="#F3BE22"/>
<path d="M1268.91 75.4455C1268.91 75.4455 1269.77 79.2949 1270.99 79.9405C1272.21 80.5861 1284.02 77.7887 1285.34 75.7324C1286.65 73.6762 1280.56 68.8226 1275.78 70.7831C1270.99 72.7437 1268.34 73.4849 1268.91 75.4455Z" fill="#E2AB23"/>
<path d="M1261.45 86.9699C1261.24 86.9307 1261.03 86.8413 1260.86 86.7087C1260.68 86.5762 1260.54 86.4042 1260.44 86.2066C1260.34 86.0091 1260.29 85.7914 1260.29 85.571C1260.3 85.3506 1260.35 85.1337 1260.45 84.9376C1260.81 84.0776 1261.33 83.2989 1262 82.6494C1262.66 81.9998 1263.46 81.493 1264.32 81.1599C1267.41 80.4187 1271.5 81.9011 1272 83.0966C1272.5 84.292 1268.72 88.4284 1261.45 86.9699Z" fill="#F3BE22"/>
<path d="M1219.56 87.5679C1219.51 87.3185 1219.39 87.0878 1219.22 86.8995C1219.05 86.7113 1218.83 86.5722 1218.59 86.4967C1218.34 86.4212 1218.08 86.412 1217.83 86.47C1217.59 86.528 1217.36 86.6511 1217.17 86.8267C1214.59 89.4807 1211.36 94.1909 1213.9 99.4271C1214.56 101.2 1215.82 102.693 1217.45 103.658C1219.08 104.623 1220.99 105.003 1222.86 104.735C1223.15 104.697 1223.42 104.595 1223.66 104.436C1223.89 104.278 1224.09 104.068 1224.24 103.822C1224.38 103.575 1224.47 103.299 1224.49 103.014C1224.52 102.729 1224.47 102.443 1224.37 102.177C1222.35 97.4541 1220.74 92.5665 1219.56 87.5679V87.5679Z" fill="#E2AB23"/>
<path d="M1305.73 64.2322C1305.73 64.2322 1316.52 65.1646 1319.24 70.3291C1320.3 72.1274 1320.61 74.2692 1320.1 76.2915C1319.59 78.3138 1318.3 80.0541 1316.52 81.1362C1314.27 82.0209 1302.53 64.3517 1305.73 64.2322Z" fill="#E2AB23"/>
<path d="M909.338 21.3143C909.463 20.9798 909.502 20.619 909.452 20.2652C909.401 19.9115 909.262 19.5763 909.048 19.2904C908.833 19.0045 908.55 18.7773 908.225 18.6295C907.9 18.4818 907.542 18.4184 907.186 18.4452C903.743 18.7321 897.383 19.8558 895.685 24.2791C893.793 28.3705 893.453 33.0103 894.729 37.3338C895.399 39.8682 906.947 27.5547 909.338 21.3143Z" fill="#111316"/>
<path d="M986.805 58.5655C987.146 58.2345 987.56 57.9895 988.015 57.8508C988.469 57.7121 988.95 57.6836 989.417 57.7677C989.884 57.8519 990.325 58.0462 990.702 58.3346C991.08 58.6231 991.383 58.9973 991.587 59.4263C993.021 62.2954 995.173 67.7707 993.332 71.931C990.726 77.8605 986.709 81.184 980.541 81.6622C975.4 82.0447 981.067 63.6582 986.805 58.5655Z" fill="#111316"/>
<path d="M939.296 38.0513C940.468 38.0513 941.95 34.9909 941.137 29.4199C940.324 23.849 931.454 22.2471 929.685 22.2471C927.915 22.2471 925.74 26.2639 924.903 27.7224C924.768 27.9285 924.696 28.1695 924.696 28.4157C924.696 28.662 924.768 28.903 924.903 29.1091C926.935 32.1695 938.244 37.9796 939.296 38.0513Z" fill="#111316"/>
<path d="M958.687 39.438C957.42 39.438 955.363 42.4506 954.287 44.2199C954.005 44.6765 953.884 45.2149 953.945 45.7484C954.006 46.2818 954.244 46.7794 954.622 47.1608C958.733 50.5807 963.346 53.3468 968.298 55.3618C969.47 55.3618 970.928 52.3013 970.139 46.7065C969.35 41.1117 960.432 39.438 958.687 39.438Z" fill="#111316"/>
<path d="M983.051 30.7348C983.051 30.7348 976.954 20.2624 969.566 21.171C967.458 21.5163 965.302 21.4268 963.23 20.908C962.254 20.6017 961.373 20.0501 960.672 19.3061C959.297 17.7004 958.285 15.8162 957.707 13.7829C955.316 6.61007 943.242 5.72542 943.242 5.72542C925.19 4.33867 917.85 22.1513 913.546 26.455C909.242 30.7587 901.017 29.109 905.991 41.6854C910.964 54.2619 910.51 63.3236 918.854 70.5921C921.185 72.7955 923.769 74.7138 926.553 76.3065V76.3065C929.287 78.154 932.309 79.5356 935.495 80.395C946.015 83.7902 953.116 80.6819 966.577 79.7973C980.039 78.9126 975.041 72.1701 977.074 66.4318C979.106 60.6935 992.065 46.4673 983.051 30.7348ZM928.466 18.2301C931.598 14.5241 935.639 10.4117 940.827 9.81396C943.25 9.62013 945.676 10.145 947.803 11.323C949.929 12.501 951.661 14.2798 952.782 16.4369C954.029 18.4927 954.455 20.9427 953.977 23.299C952.71 29.4198 948.382 37.4056 943.768 39.7487C940.301 41.4941 935.065 38.0273 932.195 36.4014C929.924 35.0864 923.014 32.2172 922.082 29.8502C920.815 26.6941 926.529 20.6211 928.466 18.2301ZM949.147 74.4176C948.747 74.4927 948.355 74.6048 947.976 74.7524C944.976 75.7389 941.782 75.9888 938.665 75.4811C935.548 74.9734 932.599 73.723 930.068 71.8354C929.757 71.5963 929.446 71.3572 929.111 71.142C923.741 67.5687 919.956 62.062 918.543 55.7682C918.521 55.5868 918.473 55.4096 918.4 55.2421C917.539 52.5882 922.895 54.5009 929.279 55.7203C930.574 55.9456 931.885 56.0655 933.2 56.079C935.01 56.0945 936.78 56.6095 938.316 57.5672C939.851 58.5249 941.093 59.8881 941.903 61.5064C942.462 62.6722 943.126 63.7847 943.887 64.8299C947.593 70.0661 951.562 74.0112 949.1 74.4893L949.147 74.4176ZM950.678 50.2211C950.679 50.4918 950.62 50.7594 950.506 51.0048C950.391 51.2502 950.224 51.4674 950.017 51.641C949.809 51.8145 949.565 51.9401 949.304 52.0087C949.042 52.0774 948.768 52.0875 948.502 52.0383C946.723 51.6569 945.029 50.9518 943.505 49.9581L943.003 49.6473C941.411 48.7213 940.008 47.5047 938.866 46.0609C938.706 45.8424 938.596 45.5913 938.545 45.3254C938.493 45.0596 938.5 44.7857 938.567 44.5231C938.633 44.2605 938.756 44.0157 938.928 43.8062C939.099 43.5968 939.315 43.4278 939.56 43.3113C940.53 42.726 941.609 42.3456 942.732 42.1934C943.854 42.0413 944.996 42.1206 946.087 42.4266C946.471 42.5928 946.839 42.7928 947.187 43.0244L947.761 43.3591C948.086 43.5216 948.391 43.7223 948.669 43.9568C949.414 44.8213 949.973 45.8302 950.31 46.9204C950.647 48.0106 950.756 49.1587 950.63 50.2929L950.678 50.2211ZM978.102 49.456C976.883 52.1578 973.798 59.9523 970.331 60.1914C967.773 60.3588 962.226 55.4095 960.074 53.8554C957.348 51.9665 951.993 48.7387 952.064 44.8415C952.064 40.4899 955.962 34.6321 960.146 30.6392C961.978 28.829 964.314 27.6141 966.848 27.1533C969.382 26.6926 971.996 27.0075 974.348 28.057C975.764 28.6715 977.033 29.5797 978.072 30.7214C979.111 31.8631 979.895 33.2124 980.373 34.6799C981.975 39.6053 980.062 45.1045 978.054 49.5278L978.102 49.456Z" fill="#111316"/>
<path d="M940.946 68.2729C940.42 68.1294 937.551 66.7427 934.371 65.1885C933.701 64.8671 933.068 64.4743 932.482 64.017C929.852 61.9368 928.011 60.5023 927.7 60.0719C927.389 59.6415 926.361 59.4502 927.342 61.2195C928.288 62.9819 929.47 64.6069 930.856 66.0493C931.732 66.9853 932.836 67.6775 934.06 68.0577C936.054 68.6619 938.122 68.9916 940.205 69.038C942.094 69.2053 941.903 68.4402 940.946 68.2729Z" fill="#111316"/>
<path d="M1654.17 33.819C1654.27 33.4745 1654.27 33.1111 1654.19 32.7624C1654.11 32.4137 1653.95 32.0909 1653.71 31.824C1653.47 31.557 1653.17 31.3545 1652.83 31.2351C1652.49 31.1158 1652.13 31.0834 1651.78 31.1411C1648.38 31.7149 1642.21 33.3408 1640.8 37.9075C1639.24 42.1264 1639.28 46.7726 1640.92 50.9621C1641.93 53.4487 1652.33 40.2267 1654.17 33.819Z" fill="#C20A37"/>
<path d="M1736.9 61.2673C1737.21 60.9211 1737.6 60.6533 1738.04 60.4855C1738.47 60.3177 1738.94 60.2545 1739.41 60.301C1739.87 60.3475 1740.32 60.5024 1740.71 60.7533C1741.11 61.0041 1741.44 61.344 1741.68 61.7455C1743.35 64.4951 1745.96 69.7552 1744.48 74.0829C1743.77 76.8536 1742.25 79.3523 1740.13 81.2631C1738 83.1739 1735.35 84.411 1732.52 84.8183C1727.45 85.4877 1731.83 66.6948 1736.9 61.2673Z" fill="#C20A37"/>
<path d="M1686.16 47.6866C1687.33 47.6866 1688.55 44.411 1687.28 38.9118C1686.02 33.4126 1677 32.4562 1675.33 32.5996C1673.65 32.7431 1671.72 36.9273 1670.98 38.4575C1670.87 38.6752 1670.83 38.9185 1670.85 39.1595C1670.88 39.4005 1670.97 39.6295 1671.12 39.8203C1673.34 42.809 1685.08 47.6866 1686.16 47.6866Z" fill="#C20A37"/>
<path d="M1705.53 47.4475C1704.28 47.4475 1702.49 50.747 1701.56 52.5881C1701.31 53.0677 1701.23 53.617 1701.34 54.1466C1701.44 54.6762 1701.72 55.155 1702.13 55.5051C1706.52 58.5801 1711.36 60.9518 1716.48 62.5345C1717.65 62.5345 1718.87 59.2589 1717.6 53.7597C1716.33 48.2605 1707.34 47.3041 1705.53 47.4475Z" fill="#C20A37"/>
<path d="M1729.15 36.76C1729.15 36.76 1722.22 26.8375 1714.8 28.3438C1712.73 28.8507 1710.57 28.932 1708.47 28.5829C1707.47 28.371 1706.54 27.8918 1705.79 27.1961C1704.28 25.7204 1703.12 23.9334 1702.37 21.96C1699.41 15.0979 1687.31 15.0979 1687.31 15.0979C1669.18 15.2174 1663.4 33.5561 1659.41 38.1945C1655.41 42.833 1647.14 41.9005 1653.14 53.9988C1659.14 66.097 1659.43 75.2066 1668.35 81.7578C1670.84 83.7663 1673.57 85.4607 1676.48 86.8027V86.8027C1679.33 88.4449 1682.45 89.6004 1685.68 90.2218C1696.47 92.6127 1703.28 89.0502 1716.76 87.0418C1730.25 85.0334 1724.58 78.7452 1726.14 72.8634C1727.69 66.9817 1739.43 51.7035 1729.15 36.76ZM1673.68 28.8698C1676.5 24.9247 1680.3 20.4776 1685.3 19.4734C1687.71 19.065 1690.18 19.3811 1692.41 20.3816C1694.63 21.382 1696.51 23.0216 1697.8 25.0921C1699.24 27.0287 1699.86 29.4459 1699.55 31.8346C1698.81 38.0272 1695.17 46.3477 1690.75 49.0495C1687.43 51.0818 1681.93 48.0692 1678.94 46.6585C1676.55 45.5587 1669.38 43.2634 1668.32 40.992C1666.79 37.8598 1672.05 31.2847 1673.68 28.8698ZM1698.9 83.1685C1698.52 83.2869 1698.14 83.4307 1697.78 83.5988C1694.87 84.8302 1691.72 85.3448 1688.57 85.0993C1685.42 84.8538 1682.38 83.8554 1679.7 82.1882C1679.37 81.9636 1679.03 81.7561 1678.68 81.5665C1673.05 78.4743 1668.83 73.3381 1666.89 67.2208C1666.84 67.0496 1666.77 66.8819 1666.7 66.7187C1665.62 64.1364 1671.1 65.6188 1677.58 66.2883C1678.89 66.4193 1680.21 66.4193 1681.52 66.2883C1683.33 66.1657 1685.14 66.5477 1686.75 67.3918C1688.36 68.236 1689.7 69.5092 1690.63 71.0702C1691.3 72.1797 1692.05 73.235 1692.88 74.2263C1697.06 78.8886 1701.32 82.499 1698.9 83.1685V83.1685ZM1698.35 58.8763C1698.38 59.1459 1698.34 59.4174 1698.25 59.6708C1698.15 59.9242 1698 60.1533 1697.81 60.3412C1697.61 60.5291 1697.38 60.6711 1697.12 60.7569C1696.86 60.8426 1696.59 60.87 1696.32 60.8369C1694.53 60.5998 1692.8 60.0494 1691.2 59.2111C1691.03 59.0969 1690.85 59.0008 1690.66 58.9242C1689.07 58.1247 1687.63 57.057 1686.4 55.7681C1686.22 55.5644 1686.09 55.3226 1686.01 55.0606C1685.94 54.7986 1685.92 54.5231 1685.97 54.2545C1686.01 53.9858 1686.12 53.731 1686.28 53.5087C1686.43 53.2865 1686.64 53.1026 1686.88 52.9707C1687.79 52.3036 1688.84 51.8321 1689.94 51.5853C1691.05 51.3386 1692.2 51.3218 1693.31 51.5361C1693.7 51.6815 1694.09 51.8574 1694.46 52.0621L1695.05 52.349C1695.39 52.4734 1695.72 52.6422 1696.01 52.8511C1696.78 53.6483 1697.39 54.5921 1697.79 55.6269C1698.19 56.6616 1698.39 57.7665 1698.35 58.8763ZM1725.61 55.8398C1724.63 58.6372 1722.19 66.6469 1718.75 67.173C1716.24 67.5555 1710.28 63.0366 1708.01 61.7216C1705.14 60.0479 1699.53 57.2744 1699.31 53.401C1699.05 49.0495 1702.35 42.9047 1706.17 38.5771C1707.88 36.6273 1710.13 35.239 1712.64 34.5946C1715.15 33.9503 1717.8 34.08 1720.23 34.9668C1721.69 35.4697 1723.03 36.2747 1724.16 37.3293C1725.29 38.3839 1726.18 39.6645 1726.78 41.0876C1728.81 45.7022 1727.36 51.3448 1725.71 55.9115L1725.61 55.8398Z" fill="#C20A37"/>
<path d="M1690.3 77.6452C1689.75 77.6452 1686.76 76.4258 1683.48 75.2543C1682.79 74.9743 1682.12 74.6301 1681.5 74.2261C1678.7 72.3612 1676.71 71.094 1676.33 70.7114C1675.95 70.3289 1674.95 70.1854 1676.07 71.8591C1677.14 73.5644 1678.43 75.1167 1679.92 76.4737C1680.86 77.3352 1682.02 77.9295 1683.27 78.1951C1685.31 78.6414 1687.4 78.8023 1689.48 78.6733C1691.51 78.4821 1691.18 77.8365 1690.3 77.6452Z" fill="#C20A37"/>
<path d="M768.534 123.91C768.534 123.91 766.334 89.1219 739.579 71.7397C737.07 70.122 734.44 68.6992 731.713 67.4837C729.107 66.36 726.501 65.3319 723.871 64.3994C723.871 64.3994 723.871 64.5429 723.871 64.6146C722.639 69.9087 722.771 75.4286 724.253 80.6579C725.56 80.3756 726.925 80.5548 728.115 81.165C729.305 81.7753 730.247 82.7789 730.781 84.0053C730.781 84.0053 731.044 90.15 731.88 98.351C737.26 101.77 738.91 104.902 738.719 105.835C738.36 107.341 736.901 112.003 736.16 114.37C735.897 115.231 735.706 115.781 735.706 115.781C735.266 115.671 734.818 115.591 734.367 115.542C732.215 115.303 728.151 115.375 727.003 119.272C725.977 123.252 725.4 127.334 725.281 131.442C725.281 131.442 723.416 134.191 720.978 137.969C716.837 144.074 713.138 150.466 709.908 157.097C709.857 157.213 709.817 157.333 709.788 157.455C708.913 160.023 708.976 162.817 709.965 165.342C710.954 167.868 712.806 169.961 715.192 171.251C717.08 172.256 723.034 170.104 729.537 167.067C736.041 164.031 743.214 160.229 747.589 157.814L751.654 155.591C753.542 154.634 761.767 157.169 766.334 140.097C766.382 140.169 773.268 130.725 768.534 123.91Z" fill="#F3BE22"/>
<path d="M1855.42 86.7311C1854.77 87.1615 1854.12 87.5919 1853.5 88.0462C1854.2 87.5441 1854.87 87.0659 1855.56 86.6355L1855.42 86.7311Z" fill="#EC0B43"/>
<path d="M1859.31 86.6832C1858.98 86.1811 1858.64 85.6072 1858.31 84.9856C1857.38 85.5116 1856.44 86.1094 1855.51 86.731C1856.77 86.566 1858.05 86.5499 1859.31 86.6832Z" fill="#F3BE22"/>
<path d="M2163.16 66.8381C2144.51 76.4019 2099.32 90.5325 2095.66 90.5325C2095.66 90.5325 2100.68 78.0756 2097.19 71.8352C2093.7 65.5948 2084.56 61.5302 2078.75 61.7693C2072.94 62.0084 2059.08 49.4319 2042.65 51.4643C2026.23 53.4966 2006.05 56.4853 1994.83 80.5861C1994.83 80.5861 1983.04 88.1415 1986.58 98.9248L1986.77 99.4747C1990.07 109.828 1988.33 113.223 1993.59 116.211C1998.85 119.2 2011.07 126.038 2011.07 126.038C2011.07 126.038 1944.41 173.857 1897.85 168.549C1895.99 168.334 1894.22 168.095 1892.55 167.808C1886.36 166.871 1880.37 164.933 1874.81 162.07L1874.42 161.855V162.046C1863.88 156.116 1860.87 147.915 1860.84 141.388V140.862C1860.67 137.564 1861.59 134.301 1863.47 131.585C1864.65 124.86 1864.09 117.944 1861.82 111.501C1860.48 112.12 1858.94 112.189 1857.54 111.692C1849.77 105.07 1851.97 91.6562 1853.55 88.0459C1851.47 89.5099 1849.49 91.1072 1847.62 92.8278C1847.62 92.8278 1840.45 90.676 1834.97 102.392C1829.5 114.107 1823.73 121.519 1829.28 124.173C1829.28 124.173 1829.28 152.291 1849.39 173.738C1851.19 175.682 1853.1 177.511 1855.13 179.213C1859.66 183.021 1864.66 186.235 1870 188.777C1872.39 189.877 1874.78 190.881 1877.17 191.813C1924.8 209.507 2009.68 155.495 2021.13 157.384C2032.58 159.273 2023.67 163.72 2015.75 165.13C2007.84 166.541 1990.15 167.976 1990.79 177.3C1991.44 186.625 1996 199.13 1995.84 200.062C1995.67 200.995 1973.86 210.989 1966.12 214.408C1959.13 217.54 1954.33 221.7 1955.21 230.26C1955.31 231.257 1955.47 232.247 1955.69 233.225C1958.08 243.817 1952.68 252.807 1973.55 253.596C1994.43 254.385 2030.46 238.915 2032.04 232.268C2032.8 229.017 2032.68 222.298 2034.09 216.584C2035.5 210.869 2038.75 205.753 2046.43 207.02C2054.41 208.337 2062.28 210.239 2069.98 212.71C2065.8 217.636 2063.19 223.699 2062.48 230.119C2061.78 236.54 2063 243.025 2066.01 248.742C2066.87 250.051 2068.13 251.049 2069.6 251.587C2082.25 257.371 2095.76 261.054 2109.6 262.49C2112.54 263.002 2115.57 262.653 2118.32 261.486C2119.81 260.71 2121.1 259.611 2122.1 258.27C2123.1 256.929 2123.79 255.381 2124.11 253.739C2125.04 249.172 2125.04 244.463 2124.11 239.896C2124.11 239.896 2124.28 231.36 2117.8 228.204C2117.8 228.204 2129.49 210.033 2116.22 186.792C2116.22 186.792 2118.28 165.274 2117.63 156.451C2116.99 147.629 2111.15 134.167 2118.28 128.166C2125.4 122.165 2175.8 85.4876 2214.54 88.1655C2218.36 88.4285 2221.88 88.811 2225.15 89.2414C2226.09 86.707 2226.73 85.1289 2226.73 85.1289C2229.87 76.9846 2234.01 69.2654 2239.07 62.1518C2209.35 54.0943 2178.94 58.8762 2163.16 66.8381Z" fill="#F3BE22"/>
<path d="M1860.72 141.484C1860.72 148.011 1863.76 156.212 1874.3 162.142V161.95C1873 161.234 1871.73 160.435 1870.53 159.56C1867.6 157.519 1865.18 154.822 1863.48 151.684C1861.78 148.545 1860.84 145.052 1860.72 141.484Z" fill="#F3BE22"/>
<path d="M1896.8 102.774C1896.4 93.9196 1893.56 85.3475 1888.6 78.0039C1884.67 72.1809 1880.15 66.7734 1875.12 61.865C1871.94 58.685 1851.21 38.8161 1846.42 44.6979C1846.07 45.2954 1845.86 45.966 1845.81 46.6582C1845.75 47.3504 1845.86 48.0457 1846.11 48.6908C1847.57 54.8355 1853.48 75.8521 1858.43 84.9616C1858.76 85.5833 1859.1 86.1571 1859.43 86.6592C1858.17 86.5101 1856.89 86.5101 1855.63 86.6592C1854.94 87.0896 1854.27 87.5677 1853.57 88.0698C1852 91.6802 1849.8 105.093 1857.57 111.716C1858.96 112.213 1860.5 112.144 1861.85 111.525C1864.11 117.968 1864.68 124.884 1863.5 131.609V131.609C1862.95 134.776 1862.08 137.877 1860.89 140.862C1860.89 141.006 1860.89 141.149 1860.89 141.316C1861.02 144.891 1861.98 148.386 1863.71 151.521C1865.43 154.655 1867.86 157.343 1870.81 159.368C1872.02 160.244 1873.28 161.042 1874.59 161.759C1877.82 156.786 1880.88 151.143 1883.56 146.457C1891.45 132.637 1897.5 117.694 1896.8 102.774Z" fill="#EC0B43"/>
<path d="M118.266 33.819C118.37 33.4741 118.383 33.1082 118.306 32.7564C118.228 32.4046 118.061 32.0787 117.821 31.8099C117.581 31.5411 117.276 31.3385 116.935 31.2214C116.594 31.1043 116.229 31.0767 115.875 31.1412C112.479 31.715 106.311 33.3408 104.9 37.9076C103.354 42.1309 103.405 46.7738 105.044 50.9622C105.976 53.4488 116.425 40.2268 118.266 33.819Z" fill="#C20A37"/>
<path d="M201.017 61.2674C201.333 60.9258 201.725 60.6621 202.16 60.4972C202.595 60.3323 203.063 60.2706 203.527 60.317C203.99 60.3633 204.436 60.5164 204.831 60.7643C205.225 61.0122 205.556 61.3481 205.799 61.7456C207.448 64.4952 210.055 69.7553 208.572 74.0829C207.864 76.8537 206.35 79.3523 204.222 81.2631C202.095 83.1739 199.448 84.4111 196.617 84.8183C191.572 85.4878 195.804 66.6949 201.017 61.2674Z" fill="#C20A37"/>
<path d="M150.256 47.6868C151.428 47.6868 152.647 44.4112 151.38 38.912C150.113 33.4128 141.123 32.5759 139.449 32.5759C137.776 32.5759 135.863 36.9036 135.122 38.4338C134.995 38.6383 134.927 38.8744 134.927 39.1152C134.927 39.356 134.995 39.5921 135.122 39.7966C137.465 42.8092 149.204 47.6868 150.256 47.6868Z" fill="#C20A37"/>
<path d="M169.672 47.4475C168.428 47.4475 166.635 50.747 165.703 52.5881C165.455 53.0677 165.377 53.617 165.481 54.1466C165.585 54.6762 165.866 55.155 166.276 55.5051C170.666 58.5754 175.506 60.9467 180.622 62.5345C181.794 62.5345 183.013 59.2589 181.746 53.7597C180.479 48.2605 171.441 47.3041 169.672 47.4475Z" fill="#C20A37"/>
<path d="M193.27 36.76C193.27 36.76 186.312 26.8375 178.924 28.3438C176.85 28.8507 174.694 28.932 172.588 28.5829C171.588 28.3666 170.664 27.8879 169.91 27.1961C168.41 25.7142 167.245 23.929 166.491 21.96C163.55 15.0979 151.428 15.0979 151.428 15.0979C133.305 15.2174 127.518 33.5561 123.549 38.1945C119.58 42.833 111.356 41.9005 117.357 54.0944C123.358 66.2883 123.645 75.3022 132.563 81.8534C135.064 83.8625 137.803 85.5568 140.717 86.8984V86.8984C143.584 88.5367 146.703 89.6918 149.946 90.3174C160.705 92.7084 167.519 89.1459 180.885 87.1374C194.25 85.129 188.703 78.8408 190.257 72.9591C191.811 67.0773 203.527 51.7035 193.27 36.76ZM137.776 28.8698C140.597 24.9247 144.399 20.4776 149.42 19.4734C151.823 19.0668 154.292 19.3839 156.515 20.3844C158.737 21.3849 160.612 23.0236 161.9 25.0921C163.331 27.0307 163.964 29.4435 163.67 31.8346C162.905 38.0272 159.27 46.3477 154.847 49.0495C151.524 51.0818 146.048 48.0692 143.036 46.6585C140.645 45.5587 133.472 43.2634 132.42 40.992C130.89 37.8598 136.078 31.2847 137.776 28.8698ZM163 83.1685C162.618 83.2909 162.243 83.4346 161.876 83.5988C158.972 84.8322 155.813 85.3479 152.666 85.1024C149.52 84.8568 146.479 83.8572 143.801 82.1882C143.472 81.9584 143.129 81.7507 142.773 81.5665C137.148 78.4743 132.928 73.3381 130.985 67.2208C130.932 67.0496 130.868 66.8819 130.794 66.7187C129.718 64.1364 135.217 65.6188 141.697 66.2883C143.001 66.4193 144.314 66.4193 145.618 66.2883C147.43 66.1657 149.241 66.5477 150.849 67.3918C152.457 68.236 153.799 69.5092 154.728 71.0702C155.392 72.1797 156.144 73.235 156.975 74.2263C161.159 78.8886 165.439 82.499 163 83.1685ZM162.546 58.8763C162.569 59.1459 162.532 59.4174 162.437 59.6708C162.342 59.9242 162.192 60.1533 161.997 60.3412C161.802 60.5291 161.568 60.6711 161.312 60.7569C161.055 60.8426 160.782 60.87 160.514 60.8369C158.726 60.5998 156.994 60.0494 155.397 59.2111C155.224 59.0969 155.04 59.0008 154.847 58.9242C153.192 58.1198 151.695 57.0268 150.424 55.6964C150.247 55.4909 150.118 55.2489 150.045 54.9876C149.973 54.7264 149.959 54.4523 150.004 54.1851C150.05 53.9178 150.154 53.664 150.309 53.4416C150.465 53.2193 150.667 53.034 150.902 52.8989C151.819 52.2319 152.862 51.7604 153.969 51.5136C155.075 51.2668 156.221 51.2501 157.334 51.4644C157.729 51.6098 158.113 51.7856 158.481 51.9904L159.079 52.2773C159.419 52.4016 159.74 52.5705 160.035 52.7794C160.847 53.571 161.489 54.5201 161.92 55.5686C162.352 56.617 162.565 57.7426 162.546 58.8763V58.8763ZM189.803 55.8398C188.823 58.6372 186.384 66.6469 182.941 67.173C180.55 67.5555 174.477 63.0366 172.205 61.7216C169.36 60.0479 163.741 57.2744 163.502 53.401C163.239 49.0495 166.539 42.9047 170.364 38.5771C172.063 36.6463 174.302 35.2699 176.791 34.6261C179.281 33.9824 181.906 34.1011 184.328 34.9668C185.788 35.4697 187.126 36.2747 188.255 37.3293C189.384 38.3839 190.278 39.6645 190.879 41.0876C192.911 45.7022 191.453 51.3448 189.803 55.9115V55.8398Z" fill="#C20A37"/>
<path d="M154.393 77.6452C153.843 77.6452 150.854 76.4258 147.579 75.2543C146.886 74.9743 146.222 74.6301 145.594 74.2261C142.797 72.3612 140.812 71.094 140.453 70.7114C140.095 70.3289 139.067 70.1854 140.167 71.8591C141.235 73.5644 142.53 75.1167 144.016 76.4737C144.965 77.339 146.13 77.9335 147.387 78.1951C149.427 78.6414 151.519 78.8023 153.604 78.6733C155.612 78.4821 155.349 77.8365 154.393 77.6452Z" fill="#C20A37"/>
<path d="M360.923 102.774C360.539 93.9169 357.699 85.3408 352.722 78.0039C348.778 72.1803 344.252 66.7729 339.213 61.865C336.033 58.685 315.304 38.8161 310.402 44.6979C310.054 45.2973 309.845 45.9676 309.791 46.6589C309.737 47.3501 309.84 48.0446 310.092 48.6908C311.55 54.8355 317.456 75.8521 322.405 84.9616C322.74 85.5833 323.074 86.1571 323.385 86.6592C322.122 86.5101 320.847 86.5101 319.584 86.6592C318.914 87.0896 318.221 87.5677 317.527 88.0698C315.949 91.6802 313.75 105.093 321.52 111.716C322.917 112.213 324.453 112.144 325.8 111.525C328.063 117.968 328.632 124.884 327.45 131.609C326.887 134.774 326.005 137.874 324.82 140.862C324.82 141.006 324.82 141.149 324.82 141.316C324.94 144.893 325.901 148.391 327.625 151.528C329.349 154.664 331.787 157.35 334.742 159.368C335.942 160.244 337.195 161.043 338.496 161.759C341.724 156.786 344.784 151.143 347.486 146.457C355.544 132.637 361.593 117.694 360.923 102.774Z" fill="#EC0B43"/>
<path d="M542.254 74.5132C540.11 73.9435 538.009 73.2245 535.965 72.3613C534.483 71.3837 533.287 70.0307 532.498 68.4402C531.516 66.7628 530.405 65.1641 529.175 63.6583C526.516 60.1154 522.811 57.4975 518.583 56.1746C514.827 55.3482 510.919 55.5213 507.25 56.6767C505.14 57.2661 503.241 58.4436 501.775 60.0718C500.365 62.0883 498.233 63.4841 495.821 63.9691C492.57 64.256 489.605 62.2237 486.257 62.1519C483.76 62.2171 481.289 62.6854 478.941 63.5387C477.114 64.0895 475.465 65.1121 474.159 66.5035C470.716 70.3051 470.788 76.0673 471.529 80.8492C471.936 83.5032 473.274 85.8702 473.729 88.4764C473.86 89.3161 473.86 90.1711 473.729 91.0108C473.542 92.6054 473.047 94.1484 472.27 95.5536C470.501 98.877 472.031 102.727 476.311 104.926C480.591 107.126 486.114 105.5 490.37 104.926C495.941 104.328 500.46 107.317 505.648 108.56C510.566 109.815 515.721 109.815 520.639 108.56C525.006 107.671 528.966 105.389 531.925 102.057C534.507 98.8053 534.316 94.6929 536.252 91.1543C538.811 86.3723 545.984 86.3723 548.016 81.0644C549.666 77.5736 544.716 75.4696 542.254 74.5132Z" fill="#E2AB23"/>
<path d="M495.845 102.463C495.977 102.369 496.137 102.318 496.299 102.32C497.466 102.306 498.628 102.17 499.766 101.914C502.856 101.226 505.77 99.9071 508.326 98.0402C509.713 96.9164 510.478 95.0515 512.271 94.4538C514.784 94.0827 517.338 94.0827 519.85 94.4538C521.833 94.4781 523.815 94.3582 525.78 94.0951C527.092 93.9634 528.38 93.6496 529.605 93.1626C530.013 92.9119 530.492 92.8027 530.968 92.8518C531.183 92.9283 531.376 93.0585 531.526 93.23C531.677 93.4016 531.781 93.6089 531.829 93.8321C531.985 94.8581 531.861 95.9072 531.47 96.8686C530.954 98.2185 530.087 99.4068 528.96 100.312C526.596 102.197 523.882 103.594 520.974 104.424C515.462 106.136 509.636 106.585 503.927 105.739C502.451 105.48 500.997 105.112 499.575 104.639C498.654 104.373 497.751 104.046 496.873 103.659C496.515 103.492 495.534 102.774 495.845 102.463Z" fill="#F3BE22"/>
<path d="M511.243 102.655C512.929 103.082 514.696 103.064 516.372 102.603C518.049 102.142 519.577 101.254 520.807 100.025C520.877 99.9803 520.926 99.91 520.944 99.8293C520.962 99.7486 520.947 99.6641 520.903 99.5943C520.858 99.5246 520.788 99.4753 520.707 99.4574C520.626 99.4394 520.542 99.4543 520.472 99.4987C517.551 100.782 514.443 101.589 511.267 101.89C511.187 101.915 511.117 101.965 511.067 102.032C511.017 102.099 510.988 102.18 510.986 102.264C510.983 102.348 511.006 102.43 511.052 102.5C511.098 102.57 511.165 102.624 511.243 102.655Z" fill="#E2AB23"/>
<path d="M478.368 87.5677C478.368 87.5677 471.027 70.831 480.161 67.1728C489.294 63.5146 494.507 67.4119 498.045 73.2219C501.584 79.0319 502.564 81.3273 500.293 82.6662C498.021 84.0051 482.169 91.1302 478.368 87.5677Z" fill="#F3BE22"/>
<path d="M478.224 82.5708C478.224 82.5708 478.846 86.468 480.042 87.1853C481.237 87.9026 493.144 85.8464 494.387 83.8619C495.631 81.8774 489.964 76.689 485.063 78.3388C480.161 79.9885 477.77 80.6102 478.224 82.5708Z" fill="#E2AB23"/>
<path d="M508.638 80.3947C508.638 80.3947 500.269 64.0644 509.164 59.952C518.058 55.8395 523.509 59.2825 527.383 64.8773C531.256 70.4722 532.38 72.6958 530.228 74.1782C528.076 75.6606 512.63 83.742 508.638 80.3947Z" fill="#F3BE22"/>
<path d="M508.183 75.4455C508.183 75.4455 509.043 79.2949 510.263 79.9405C511.482 80.5861 523.27 77.7887 524.489 75.7324C525.708 73.6762 519.707 68.8226 514.925 70.7831C510.143 72.7437 507.657 73.4849 508.183 75.4455Z" fill="#E2AB23"/>
<path d="M500.699 86.9699C500.485 86.9263 500.283 86.8342 500.11 86.7007C499.937 86.5672 499.796 86.3958 499.699 86.1997C499.602 86.0036 499.552 85.7879 499.551 85.5692C499.55 85.3504 499.599 85.1344 499.695 84.9376C500.058 84.0789 500.59 83.302 501.26 82.6531C501.929 82.0041 502.723 81.4963 503.592 81.1599C506.676 80.4187 510.765 81.9011 511.267 83.0966C511.769 84.292 507.991 88.4284 500.699 86.9699Z" fill="#F3BE22"/>
<path d="M458.81 87.5679C458.756 87.3185 458.638 87.0878 458.466 86.8995C458.294 86.7113 458.075 86.5722 457.831 86.4967C457.588 86.4212 457.328 86.412 457.08 86.47C456.832 86.528 456.604 86.6511 456.419 86.8267C453.86 89.4807 450.609 94.1909 453.167 99.4271C453.83 101.203 455.082 102.698 456.713 103.664C458.344 104.63 460.257 105.008 462.133 104.735C462.416 104.697 462.687 104.595 462.925 104.436C463.163 104.278 463.362 104.068 463.507 103.822C463.652 103.575 463.74 103.299 463.762 103.014C463.785 102.729 463.743 102.443 463.639 102.177C461.613 97.4549 459.997 92.5672 458.81 87.5679V87.5679Z" fill="#E2AB23"/>
<path d="M545.003 64.2322C545.003 64.2322 555.786 65.1646 558.512 70.3291C559.569 72.1274 559.875 74.2692 559.365 76.2915C558.855 78.3138 557.569 80.0541 555.786 81.1362C553.539 82.0209 541.799 64.3517 545.003 64.2322Z" fill="#E2AB23"/>
</g>
<defs>
<clipPath id="clip0">
<rect width="1920" height="298" fill="white"/>
</clipPath>
</defs>
</svg>
