<svg width="405" height="273" viewBox="0 0 405 273" fill="none" xmlns="http://www.w3.org/2000/svg">
<path d="M74.035 156.526C80.2335 164.561 88.1743 172.15 97.7906 176.752L110.485 181.416L112.16 171.018C110.877 158.823 109.792 147.849 107.411 137.573C106.396 141.537 105.113 145.708 103.628 148.725C103.628 148.725 105.441 141.205 106.435 133.684C104.008 124.716 100.405 116.247 94.5869 107.912C94.402 113.069 93.8332 122.365 92.0848 128.146C92.0848 128.146 93.2729 112.972 91.8123 104.164C88.2211 99.5822 89.1137 100.271 83.8999 95.6763C83.9537 100.973 83.7764 108.271 82.6335 113.189C82.6335 113.189 82.7924 102.363 81.6465 93.7322C77.9892 90.6529 68.7122 82.3076 64.1761 79.1699C64.1761 79.1699 58.3215 85.0223 57.8295 103.378C61.0324 107.117 64.2068 112.46 70.3447 117.427C70.3447 117.427 67.5026 115.797 57.798 106.537C57.8663 113.913 56.8601 122.53 59.538 130.354C62.6035 132.207 65.9652 132.893 75.3052 138.591C75.3052 138.591 65.8662 133.78 61.3048 134.942C63.5222 140.075 66.8226 146.351 71.1652 152.606L81.6457 159.393L74.035 156.526Z" fill="#242930"/>
<path d="M104.92 183.322C105.203 182.896 109.935 170.471 97.8869 161.425C85.8397 152.378 78.754 157.481 66.0831 146.084C53.4116 134.686 52.2487 126.976 35.9896 131.208C35.9896 131.208 29.1732 133.395 23.3824 129.712C16.4514 125.302 3.0088 129.848 3.78803 139.672C4.56725 149.496 12.4308 152.753 26.9353 154.834C41.4397 156.916 40.3258 163.807 43.3634 167.437C46.4013 171.065 48.8069 176.273 60.809 176.46C72.811 176.646 79.5774 190.994 90.7224 191.795C90.7231 191.795 99.3547 191.703 104.92 183.322Z" fill="#1A62C6"/>
<path d="M118.732 196.698C118.538 196.887 118.191 196.851 117.941 196.608C85.6937 165.305 30.9382 142.944 30.3892 142.722C30.0715 142.594 29.856 142.241 29.9084 141.935C29.9591 141.628 30.2594 141.483 30.5773 141.612C31.1292 141.835 86.1577 164.308 118.626 195.826C118.886 196.078 118.944 196.458 118.754 196.675C118.747 196.682 118.74 196.69 118.732 196.698Z" fill="white"/>
<path d="M53.0708 152.371C53.0486 152.392 53.0238 152.411 52.9964 152.427C52.7379 152.58 52.3502 152.46 52.1301 152.158C52.0781 152.087 46.8849 144.983 41.8307 140.036C41.5618 139.772 41.5113 139.386 41.718 139.173C41.9249 138.957 42.3106 139.001 42.5797 139.264C47.7383 144.313 53.0126 151.53 53.0654 151.602C53.2617 151.872 53.2582 152.196 53.0708 152.371Z" fill="white"/>
<path d="M63.9079 158.568C63.845 158.621 63.7645 158.66 63.6691 158.679C59.6074 159.467 51.018 162.509 50.9314 162.539C50.6128 162.653 50.1882 162.476 49.9839 162.144C49.7791 161.813 49.8671 161.451 50.1908 161.338C50.5461 161.212 58.9462 158.238 63.0936 157.433C63.4372 157.366 63.8449 157.591 64.0039 157.935C64.1197 158.184 64.0725 158.427 63.9079 158.568Z" fill="white"/>
<path d="M75.8463 164.082C75.8173 164.109 75.7837 164.132 75.7462 164.151C75.4705 164.291 75.074 164.15 74.8612 163.839L68.8513 155.023C68.6391 154.712 68.6878 154.345 68.9664 154.206C69.2427 154.067 69.6387 154.207 69.8512 154.519L75.8611 163.335C76.0446 163.604 76.0308 163.913 75.8463 164.082Z" fill="white"/>
<path opacity="0.41" d="M377.76 41.9592L352.636 29.9722L340.649 55.096L365.772 67.0831L377.76 41.9592Z" fill="#EC0B43"/>
<path opacity="0.22" d="M298.548 22.7632C304.833 22.7632 309.929 17.6675 309.929 11.3816C309.929 5.09572 304.833 0 298.548 0C292.262 0 287.166 5.09572 287.166 11.3816C287.166 17.6675 292.262 22.7632 298.548 22.7632Z" fill="#1A62C6"/>
<path opacity="0.22" d="M393.427 102.94C399.713 102.94 404.809 97.8442 404.809 91.5583C404.809 85.2725 399.713 80.1768 393.427 80.1768C387.142 80.1768 382.046 85.2725 382.046 91.5583C382.046 97.8442 387.142 102.94 393.427 102.94Z" fill="#F3BE22"/>
<path opacity="0.41" d="M50.4182 62.1699L64.1006 37.9258L39.8564 24.2434L26.174 48.4875L50.4182 62.1699Z" fill="#F3BE22"/>
<path opacity="0.22" d="M171.62 25.5103C177.906 25.5103 183.001 20.4145 183.001 14.1287C183.001 7.84277 177.906 2.74707 171.62 2.74707C165.334 2.74707 160.238 7.84277 160.238 14.1287C160.238 20.4145 165.334 25.5103 171.62 25.5103Z" fill="#FFBE55"/>
<path opacity="0.22" d="M28.2361 112.666C34.522 112.666 39.6177 107.57 39.6177 101.284C39.6177 94.9981 34.522 89.9023 28.2361 89.9023C21.9502 89.9023 16.8545 94.9981 16.8545 101.284C16.8545 107.57 21.9502 112.666 28.2361 112.666Z" fill="#EC0B43"/>
<path d="M331.394 219.46H97.5391V47.7553C97.5391 41.6724 102.52 36.6914 108.603 36.6914H320.33C326.413 36.6914 331.394 41.6724 331.394 47.7553V219.46Z" fill="white" stroke="#ECF0F6" stroke-width="2"/>
<path d="M319.09 57.417H109.575C104.93 57.417 101.13 53.617 101.13 48.9719C101.13 44.3269 104.93 40.5269 109.575 40.5269H319.091C323.736 40.5269 327.536 44.3269 327.536 48.9719C327.535 53.6162 323.735 57.417 319.09 57.417Z" fill="#ECF0F6"/>
<path d="M110.832 52.4408C112.747 52.4408 114.3 50.8879 114.3 48.9723C114.3 47.0568 112.747 45.5039 110.832 45.5039C108.916 45.5039 107.363 47.0568 107.363 48.9723C107.363 50.8879 108.916 52.4408 110.832 52.4408Z" fill="#F7F7F7"/>
<path d="M121.087 52.4408C123.002 52.4408 124.555 50.8879 124.555 48.9723C124.555 47.0568 123.002 45.5039 121.087 45.5039C119.171 45.5039 117.618 47.0568 117.618 48.9723C117.618 50.8879 119.171 52.4408 121.087 52.4408Z" fill="#FDA7C3"/>
<path d="M131.34 52.4408C133.256 52.4408 134.809 50.8879 134.809 48.9723C134.809 47.0568 133.256 45.5039 131.34 45.5039C129.425 45.5039 127.872 47.0568 127.872 48.9723C127.872 50.8879 129.425 52.4408 131.34 52.4408Z" fill="#2A94F4"/>
<path d="M296.243 44.146H142.741V53.7976H296.243V44.146Z" fill="#ECF0F6"/>
<path d="M163.664 134.796H113.797C110.307 134.796 107.451 131.941 107.451 128.45V78.5834C107.451 75.0935 110.306 72.2383 113.797 72.2383H163.664C167.154 72.2383 170.01 75.0935 170.01 78.5842V128.451C170.009 131.94 167.154 134.796 163.664 134.796Z" fill="#EC0B43"/>
<path d="M239.4 134.796H189.533C186.043 134.796 183.188 131.941 183.188 128.45V78.5834C183.188 75.0935 186.043 72.2383 189.533 72.2383H239.399C242.889 72.2383 245.745 75.0935 245.745 78.5842V128.451C245.745 131.94 242.89 134.796 239.4 134.796Z" fill="#EC0B43"/>
<path d="M315.135 134.796H265.269C261.779 134.796 258.923 131.941 258.923 128.45V78.5834C258.923 75.0935 261.778 72.2383 265.269 72.2383H315.135C318.625 72.2383 321.481 75.0935 321.481 78.5842V128.451C321.481 131.94 318.625 134.796 315.135 134.796Z" fill="#EC0B43"/>
<path d="M163.664 203.862H113.797C110.307 203.862 107.451 201.007 107.451 197.516V147.649C107.451 144.159 110.306 141.303 113.797 141.303H163.664C167.154 141.303 170.01 144.158 170.01 147.649V197.516C170.009 201.007 167.154 203.862 163.664 203.862Z" fill="#EC0B43"/>
<path d="M239.4 203.862H189.533C186.043 203.862 183.188 201.007 183.188 197.516V147.649C183.188 144.159 186.043 141.303 189.533 141.303H239.4C242.89 141.303 245.746 144.158 245.746 147.649V197.516C245.745 201.007 242.89 203.862 239.4 203.862Z" fill="#EC0B43"/>
<path d="M315.135 203.862H265.269C261.779 203.862 258.923 201.007 258.923 197.516V147.649C258.923 144.159 261.778 141.303 265.269 141.303H315.135C318.625 141.303 321.481 144.158 321.481 147.649V197.516C321.481 201.007 318.625 203.862 315.135 203.862Z" fill="#EC0B43"/>
<path d="M209.242 110.723H221.784V114.374H205.253V110.622C205.253 107.985 206.188 106.069 208.059 104.875C208.69 104.469 209.422 104.108 210.256 103.793L214.752 102.069C215.744 101.686 216.465 101.212 216.916 100.649C217.389 100.063 217.626 99.3418 217.626 98.4854C217.626 97.6289 217.322 96.919 216.713 96.3556C216.105 95.7696 215.237 95.4766 214.11 95.4766C212.983 95.4766 212.048 95.7471 211.304 96.288C210.583 96.8289 210.166 97.6289 210.053 98.6882H205.625C205.67 96.5472 206.492 94.8681 208.093 93.6511C209.558 92.5468 211.53 91.9946 214.009 91.9946C216.285 91.9946 218.167 92.6031 219.654 93.8201C221.164 95.0822 221.919 96.626 221.919 98.4516C221.919 100.277 221.457 101.742 220.533 102.846C219.632 103.928 218.223 104.841 216.307 105.585L211.744 107.343C210.865 107.681 210.222 108.064 209.817 108.492C209.434 108.898 209.242 109.427 209.242 110.081V110.723Z" fill="white"/>
<path d="M134.557 94.0905C136.247 93.8426 137.734 93.2454 139.019 92.2988H142.028V114.374H138.039V97.0655C136.889 97.6289 135.729 97.9106 134.557 97.9106V94.0905Z" fill="white"/>
<path d="M290.142 95.6119C287.686 95.6119 286.254 96.5472 285.849 98.4177H281.657C281.882 96.2542 282.761 94.6202 284.294 93.5159C285.736 92.5017 287.629 91.9946 289.973 91.9946C292.385 91.9946 294.345 92.5581 295.855 93.6849C297.433 94.8343 298.222 96.3105 298.222 98.1135C298.222 99.2404 297.918 100.221 297.309 101.055C296.701 101.866 295.799 102.474 294.605 102.88C295.934 103.331 296.993 104.007 297.782 104.908C298.594 105.787 298.999 106.802 298.999 107.951C298.999 109.1 298.785 110.081 298.357 110.892C297.951 111.703 297.365 112.402 296.599 112.988C294.976 114.228 292.869 114.847 290.277 114.847C287.798 114.847 285.714 114.216 284.023 112.954C282.13 111.58 281.184 109.754 281.184 107.478H285.443C285.511 108.627 285.973 109.529 286.829 110.182C287.708 110.836 288.846 111.163 290.244 111.163C291.641 111.163 292.723 110.858 293.489 110.25C294.278 109.619 294.672 108.83 294.672 107.883C294.672 106.914 294.312 106.159 293.59 105.618C292.892 105.078 291.776 104.807 290.244 104.807H287.336V101.663H289.838C291.123 101.663 292.125 101.393 292.847 100.852C293.568 100.288 293.928 99.5559 293.928 98.6544C293.928 97.7529 293.613 97.0204 292.982 96.457C292.373 95.8936 291.427 95.6119 290.142 95.6119Z" fill="white"/>
<path d="M144.179 161.274V175.169H147.999V178.583H144.179V183.451H140.224V178.583H129.102V175.574L140.325 161.274H144.179ZM133.834 175.574H140.427V167.19L133.834 175.574Z" fill="white"/>
<path d="M211.012 170.098C212.229 169.895 213.389 169.794 214.494 169.794C216.77 169.794 218.584 170.346 219.936 171.45C221.289 172.532 221.965 174.098 221.965 176.149C221.965 178.38 221.21 180.217 219.7 181.66C218.1 183.17 216.083 183.925 213.649 183.925C211.237 183.925 209.31 183.316 207.868 182.099C206.358 180.837 205.58 179.102 205.535 176.893H209.626C209.626 178.042 210.009 178.887 210.775 179.428C211.541 179.969 212.522 180.24 213.716 180.24C214.911 180.24 215.891 179.857 216.657 179.09C217.446 178.301 217.841 177.321 217.841 176.149C217.841 173.918 216.331 172.802 213.311 172.802H206.617L207.631 161.511H220.782V165.162H211.485L211.012 170.098Z" fill="white"/>
<path d="M294.084 167.528C293.972 166.649 293.656 165.962 293.138 165.466C292.619 164.948 291.898 164.689 290.974 164.689C290.073 164.689 289.273 164.891 288.574 165.297C287.898 165.68 287.312 166.244 286.816 166.987C285.824 168.52 285.329 170.593 285.329 173.208C285.329 174.177 285.362 174.909 285.43 175.405C285.678 173.467 286.41 172.047 287.627 171.145C288.687 170.379 290.005 169.996 291.583 169.996C293.611 169.996 295.29 170.65 296.62 171.957C297.927 173.219 298.58 174.887 298.58 176.96C298.58 179.033 297.848 180.713 296.383 181.997C294.918 183.282 293.003 183.924 290.636 183.924C287.887 183.924 285.644 182.887 283.909 180.814C282.173 178.741 281.306 176.092 281.306 172.87C281.306 169.128 282.173 166.21 283.909 164.114C285.599 162.085 287.898 161.071 290.805 161.071C293.014 161.071 294.794 161.657 296.146 162.829C297.521 164.024 298.254 165.59 298.344 167.528H294.084ZM290.636 173.275C289.554 173.275 288.642 173.602 287.898 174.256C287.177 174.887 286.816 175.732 286.816 176.791C286.816 177.85 287.177 178.695 287.898 179.326C288.642 179.935 289.543 180.239 290.602 180.239C291.684 180.239 292.597 179.935 293.341 179.326C294.084 178.695 294.456 177.85 294.456 176.791C294.456 175.732 294.073 174.864 293.307 174.188C292.608 173.579 291.718 173.275 290.636 173.275Z" fill="white"/>
<path d="M71.1626 87.3213H185.319C189.437 87.3213 192.777 83.9831 192.777 79.8638V16.6812C192.777 12.563 189.439 9.22363 185.319 9.22363H71.1626C67.0444 9.22363 63.7051 12.5619 63.7051 16.6812V79.8638C63.7051 83.9831 67.0433 87.3213 71.1626 87.3213Z" fill="#1A62C6"/>
<path d="M63.7037 38.0122L192.775 38.0122L192.775 19.7945L63.7037 19.7945L63.7037 38.0122Z" fill="#242930"/>
<path d="M69.9279 53.1045L160.738 53.1045L160.738 48.5806L69.9279 48.5806L69.9279 53.1045Z" fill="#ECF0F6"/>
<path d="M69.9276 60.3037L136.607 60.3037L136.607 56.8897L69.9276 56.8897L69.9276 60.3037Z" fill="#ECF0F6"/>
<path d="M69.9276 67.5015L136.607 67.5015L136.607 64.0875L69.9276 64.0875L69.9276 67.5015Z" fill="#ECF0F6"/>
</svg>
