<svg width="585" height="247" viewBox="0 0 585 247" fill="none" xmlns="http://www.w3.org/2000/svg">
<path d="M0.299998 21L0.299998 20.475L2.75 19.475L9.975 0.499999L10.375 0.499999L17.2 20.1L19.5 20.475L19.5 21L12.15 21L12.15 20.475L14.2 20.15L12.075 14.225L5.425 14.225L3.4 19.475L5.65 20.475L5.65 21L0.299998 21ZM5.625 13.7L11.9 13.7L8.9 4.9L5.625 13.7ZM25.2187 20.475L27.5187 20.1L27.5187 1.9L25.2187 1.55L25.2187 1L32.8438 1C34.6437 1 36.0771 1.16667 37.1437 1.5C38.2104 1.83333 38.9854 2.34167 39.4687 3.025C39.9521 3.69167 40.1938 4.575 40.1938 5.675C40.1938 8.075 38.6771 9.60833 35.6437 10.275L35.6437 10.4C37.4937 10.65 38.9271 11.2 39.9437 12.05C40.9771 12.9 41.4937 14.0833 41.4937 15.6C41.4937 17.4333 40.8187 18.7917 39.4687 19.675C38.1354 20.5583 36.3271 21 34.0437 21L25.2187 21L25.2187 20.475ZM33.0437 10.2C34.3771 10.2 35.4021 9.825 36.1187 9.075C36.8354 8.325 37.1938 7.25833 37.1938 5.875L37.1938 5.725C37.1938 2.99167 35.7438 1.625 32.8438 1.625L30.2687 1.625L30.2687 10.2L33.0437 10.2ZM34.0437 20.4C35.4604 20.4 36.5604 19.9917 37.3437 19.175C38.1271 18.3417 38.5187 17.1583 38.5187 15.625L38.5187 15.35C38.5187 13.8333 38.1271 12.7 37.3437 11.95C36.5771 11.2 35.4771 10.825 34.0437 10.825L30.2687 10.825L30.2687 20.4L34.0437 20.4ZM58.4967 21.5C56.68 21.5 55.0883 21.0583 53.7217 20.175C52.355 19.2917 51.2967 18.0583 50.5467 16.475C49.8133 14.8917 49.4467 13.0667 49.4467 11C49.4467 8.93334 49.8217 7.10833 50.5717 5.525C51.3383 3.925 52.4133 2.69167 53.7967 1.825C55.1967 0.941668 56.805 0.500002 58.6217 0.500002C59.3383 0.500002 60.0633 0.625002 60.7967 0.875001C61.5467 1.125 62.2217 1.475 62.8217 1.925L64.4967 0.500002L65.0217 0.500002L65.0217 6.7L64.4967 6.7L62.9467 2.825C62.3633 2.29167 61.68 1.86667 60.8967 1.55C60.13 1.23334 59.3717 1.075 58.6217 1.075C57.455 1.075 56.4217 1.375 55.5217 1.975C54.6383 2.575 53.9467 3.45 53.4467 4.6C52.9467 5.75 52.6967 7.11667 52.6967 8.7L52.6967 13.275C52.6967 14.8583 52.9383 16.225 53.4217 17.375C53.905 18.525 54.58 19.4083 55.4467 20.025C56.3133 20.625 57.33 20.925 58.4967 20.925C59.3467 20.925 60.1967 20.7417 61.0467 20.375C61.8967 19.9917 62.605 19.4833 63.1717 18.85L64.6217 14.825L65.1467 14.825L65.1467 21.25L64.6217 21.25L62.8217 19.975C62.2217 20.4583 61.5383 20.8333 60.7717 21.1C60.005 21.3667 59.2467 21.5 58.4967 21.5ZM72.9746 20.475L75.2746 20.1L75.2746 1.9L72.9746 1.55L72.9746 1L82.5496 1C84.3829 1 86.0079 1.41667 87.4246 2.25C88.8579 3.06667 89.9746 4.23334 90.7746 5.75C91.5746 7.25 91.9746 9 91.9746 11C91.9746 13 91.5746 14.7583 90.7746 16.275C89.9746 17.775 88.8579 18.9417 87.4246 19.775C85.9913 20.5917 84.3663 21 82.5496 21L72.9746 21L72.9746 20.475ZM82.5496 20.4C83.7663 20.4 84.8413 20.1167 85.7746 19.55C86.7246 18.9833 87.4663 18.1417 87.9996 17.025C88.5329 15.8917 88.7996 14.525 88.7996 12.925L88.7996 9.075C88.7996 7.475 88.5329 6.11667 87.9996 5C87.4663 3.88334 86.7246 3.04167 85.7746 2.475C84.8413 1.90834 83.7663 1.625 82.5496 1.625L78.0246 1.625L78.0246 20.4L82.5496 20.4ZM99.5625 21L99.5625 20.475L101.862 20.1L101.862 1.9L99.5625 1.55L99.5625 1L114.612 1.00001L114.612 6.725L113.937 6.725L112.013 1.625L104.612 1.625L104.612 10.625L107.862 10.625L109.337 7.00001L109.987 7.00001L109.987 14.9L109.337 14.9L107.837 11.225L104.612 11.225L104.612 20.4L112.462 20.4L114.512 14.9L115.162 14.9L115.162 21L99.5625 21ZM122.83 21L122.83 20.475L125.13 20.1L125.13 1.90001L122.83 1.55L122.83 1.00001L137.88 1.00001L137.88 6.72501L137.205 6.72501L135.28 1.62501L127.88 1.62501L127.88 11L132.105 11L133.58 7.37501L134.255 7.37501L134.255 15.275L133.58 15.275L132.105 11.6L127.88 11.6L127.88 20.1L130.18 20.475L130.18 21L122.83 21ZM154.277 21.5C152.46 21.5 150.869 21.0583 149.502 20.175C148.135 19.2917 147.077 18.0583 146.327 16.475C145.594 14.8917 145.227 13.0667 145.227 11C145.227 8.93334 145.619 7.10834 146.402 5.52501C147.185 3.94167 148.277 2.70834 149.677 1.82501C151.094 0.941673 152.71 0.500007 154.527 0.500007C156.244 0.500007 157.694 0.933341 158.877 1.80001L160.402 0.500007L160.927 0.500007L160.927 6.70001L160.402 6.70001L158.752 2.57501C157.552 1.57501 156.144 1.07501 154.527 1.07501C153.36 1.07501 152.31 1.37501 151.377 1.97501C150.46 2.57501 149.735 3.45001 149.202 4.60001C148.685 5.75001 148.427 7.11667 148.427 8.70001L148.427 13.275C148.427 14.8583 148.669 16.225 149.152 17.375C149.652 18.525 150.335 19.4083 151.202 20.025C152.085 20.625 153.11 20.925 154.277 20.925C155.71 20.925 156.819 20.4833 157.602 19.6C158.402 18.7167 158.802 17.5333 158.802 16.05L158.802 13.725L156.477 13.375L156.477 12.825L163.952 12.825L163.952 13.375L161.627 13.725L161.627 16.05C161.627 17 161.369 17.8917 160.852 18.725C160.335 19.5417 159.527 20.2083 158.427 20.725C157.327 21.2417 155.944 21.5 154.277 21.5ZM170.464 21L170.464 20.475L172.764 20.1L172.764 1.90001L170.464 1.55001L170.464 1.00001L177.814 1.00001L177.814 1.55001L175.514 1.90001L175.514 10.1L185.014 10.1L185.014 1.90001L182.689 1.55001L182.689 1.00001L190.089 1.00001L190.089 1.55001L187.764 1.90001L187.764 20.1L190.089 20.475L190.089 21L182.689 21L182.689 20.475L185.014 20.1L185.014 10.725L175.514 10.725L175.514 20.1L177.814 20.475L177.814 21L170.464 21ZM197.345 21L197.345 20.475L199.645 20.1L199.645 1.90001L197.345 1.55001L197.345 1.00001L204.695 1.00001L204.695 1.55001L202.395 1.90001L202.395 20.1L204.695 20.475L204.695 21L197.345 21ZM214.595 21.5C213.595 21.5 212.762 21.2833 212.095 20.85C211.445 20.4167 211.12 19.7833 211.12 18.95C211.12 18.4 211.27 17.9583 211.57 17.625C211.887 17.275 212.295 17.1 212.795 17.1C213.195 17.1 213.512 17.2083 213.745 17.425C213.979 17.6417 214.137 17.875 214.22 18.125C214.32 18.3583 214.37 18.5083 214.37 18.575C213.887 18.925 213.645 19.3333 213.645 19.8C213.645 20.1167 213.745 20.3833 213.945 20.6C214.145 20.8167 214.42 20.925 214.77 20.925C215.304 20.925 215.72 20.5667 216.02 19.85C216.337 19.1167 216.495 17.8583 216.495 16.075L216.495 1.90001L214.195 1.55001L214.195 1.00001L221.445 1.00001L221.445 1.55001L219.145 1.90001L219.145 16.075C219.145 17.2417 219.029 18.2167 218.795 19C218.579 19.7667 218.137 20.375 217.47 20.825C216.804 21.275 215.845 21.5 214.595 21.5ZM228.401 21L228.401 20.475L230.701 20.1L230.701 1.90001L228.401 1.55001L228.401 1.00001L235.751 1.00001L235.751 1.55001L233.451 1.90001L233.451 10.9L241.576 2.60001L238.851 1.55001L238.851 1.00001L244.626 1.00001L244.626 1.55001L242.576 2.60001L236.901 8.30001L244.901 20.1L246.601 20.475L246.601 21L239.226 21L239.226 20.475L241.501 20.125L234.951 10.25L233.451 11.775L233.451 20.1L235.751 20.475L235.751 21L228.401 21ZM252.108 21L252.108 20.475L254.408 20.1L254.408 1.90001L252.108 1.55001L252.108 1.00001L259.458 1.00001L259.458 1.55001L257.158 1.90001L257.158 20.4L264.633 20.4L266.683 14.9L267.358 14.9L267.358 21L252.108 21ZM284.629 21.25L277.179 1.90001L277.179 19.475L279.579 20.475L279.579 21L274.229 21L274.229 20.475L276.579 19.475L276.579 1.90001L274.279 1.55001L274.279 1.00001L279.804 1.00001L286.079 17.05L292.479 1.00001L297.529 1.00002L297.529 1.55001L295.229 1.90001L295.229 20.1L297.529 20.475L297.529 21L290.179 21L290.179 20.475L292.479 20.1L292.479 2.65001L285.079 21.25L284.629 21.25ZM304.846 21L304.846 20.475L307.171 19.475L307.171 2.52502L304.846 1.55001L304.846 1.00002L309.496 1.00002L320.271 16.1L320.271 2.52502L317.946 1.55002L317.946 1.00002L323.271 1.00002L323.271 1.55002L320.896 2.52502L320.896 21L320.271 21L307.796 3.47502L307.796 19.475L310.196 20.475L310.196 21L304.846 21ZM340.158 21.5C338.341 21.5 336.716 21.0584 335.283 20.175C333.849 19.2917 332.733 18.0584 331.933 16.475C331.133 14.875 330.733 13.05 330.733 11C330.733 8.95002 331.133 7.13335 331.933 5.55002C332.733 3.95002 333.849 2.70835 335.283 1.82502C336.716 0.941683 338.341 0.500016 340.158 0.500016C341.974 0.500017 343.599 0.941684 345.033 1.82502C346.466 2.70835 347.583 3.95002 348.383 5.55002C349.183 7.13335 349.583 8.95002 349.583 11C349.583 13.05 349.183 14.875 348.383 16.475C347.583 18.0584 346.466 19.2917 345.033 20.175C343.599 21.0584 341.974 21.5 340.158 21.5ZM340.158 20.925C341.358 20.925 342.433 20.6084 343.383 19.975C344.349 19.3417 345.108 18.425 345.658 17.225C346.208 16.0084 346.483 14.575 346.483 12.925L346.483 9.07502C346.483 7.42502 346.208 6.00002 345.658 4.80002C345.108 3.58335 344.349 2.65835 343.383 2.02502C342.433 1.39168 341.358 1.07502 340.158 1.07502C338.941 1.07502 337.858 1.39168 336.908 2.02502C335.958 2.65835 335.208 3.58335 334.658 4.80002C334.108 6.00002 333.833 7.42502 333.833 9.07502L333.833 12.925C333.833 14.575 334.108 16.0084 334.658 17.225C335.208 18.425 335.958 19.3417 336.908 19.975C337.858 20.6084 338.941 20.925 340.158 20.925ZM357.19 20.475L359.49 20.1L359.49 1.90002L357.19 1.55002L357.19 1.00002L365.04 1.00002C367.507 1.00002 369.34 1.52502 370.54 2.57502C371.74 3.62502 372.34 5.14169 372.34 7.12502C372.34 9.10835 371.74 10.625 370.54 11.675C369.34 12.725 367.507 13.25 365.04 13.25L362.24 13.25L362.24 20.1L364.54 20.475L364.54 21L357.19 21L357.19 20.475ZM364.69 12.65C367.774 12.65 369.315 10.975 369.315 7.62502L369.315 6.62502C369.315 3.29168 367.774 1.62502 364.69 1.62502L362.24 1.62502L362.24 12.65L364.69 12.65ZM393.105 26.775C389.572 26.775 387.805 25.3334 387.805 22.45L387.805 21.375C386.239 21.1584 384.855 20.5834 383.655 19.65C382.455 18.7167 381.522 17.5084 380.855 16.025C380.205 14.5417 379.88 12.8667 379.88 11C379.88 8.95002 380.28 7.13335 381.08 5.55002C381.88 3.95002 382.997 2.70835 384.43 1.82502C385.864 0.941686 387.489 0.500019 389.305 0.500019C391.122 0.500019 392.747 0.941686 394.18 1.82502C395.614 2.70835 396.73 3.95002 397.53 5.55002C398.33 7.13335 398.73 8.95002 398.73 11C398.73 12.85 398.397 14.5167 397.73 16C397.08 17.4834 396.164 18.6917 394.98 19.625C393.797 20.5584 392.43 21.1417 390.88 21.375L390.88 23.05C390.88 25.15 391.897 26.2 393.93 26.2L393.93 26.775L393.105 26.775ZM389.305 20.925C390.505 20.925 391.58 20.6084 392.53 19.975C393.48 19.3417 394.222 18.425 394.755 17.225C395.305 16.025 395.58 14.5917 395.58 12.925L395.58 9.07502C395.58 7.40835 395.305 5.97502 394.755 4.77502C394.222 3.57502 393.48 2.65835 392.53 2.02502C391.58 1.39169 390.505 1.07502 389.305 1.07502C388.089 1.07502 387.005 1.39169 386.055 2.02502C385.122 2.65835 384.38 3.57502 383.83 4.77502C383.297 5.97502 383.03 7.40835 383.03 9.07502L383.03 12.925C383.03 14.5917 383.297 16.025 383.83 17.225C384.38 18.425 385.122 19.3417 386.055 19.975C387.005 20.6084 388.089 20.925 389.305 20.925ZM420.863 21.25C419.93 21.25 419.23 21.025 418.763 20.575C418.296 20.125 417.98 19.3584 417.813 18.275L417.338 14.925C417.171 13.7917 416.78 12.9084 416.163 12.275C415.563 11.625 414.621 11.3 413.338 11.3L411.388 11.3L411.388 20.1L413.688 20.475L413.688 21L406.338 21L406.338 20.475L408.638 20.1L408.638 1.90002L406.338 1.55002L406.338 1.00002L413.338 1.00002C416.055 1.00002 418.021 1.42502 419.238 2.27502C420.455 3.12502 421.063 4.41669 421.063 6.15002C421.063 9.01669 419.33 10.675 415.863 11.125L415.863 11.275C417.146 11.4584 418.171 11.9167 418.938 12.65C419.721 13.3834 420.213 14.3584 420.413 15.575L420.738 17.725C420.871 18.6584 421.021 19.2917 421.188 19.625C421.371 19.9584 421.646 20.125 422.013 20.125C422.263 20.125 422.53 20.05 422.813 19.9C423.096 19.7334 423.363 19.525 423.613 19.275L424.038 19.725C423.555 20.275 423.055 20.6667 422.538 20.9C422.021 21.1334 421.463 21.25 420.863 21.25ZM414.188 10.7C415.405 10.7 416.346 10.3334 417.013 9.60002C417.696 8.85002 418.038 7.75002 418.038 6.30002L418.038 5.77502C418.038 3.00835 416.471 1.62502 413.338 1.62502L411.388 1.62502L411.388 10.7L414.188 10.7ZM437.677 21.5C436.127 21.5 434.602 21.0584 433.102 20.175L430.977 21.25L430.427 21.25L430.427 14.825L430.977 14.825L433.127 19.475C434.51 20.4584 436.094 20.95 437.877 20.95C439.344 20.95 440.552 20.5667 441.502 19.8C442.469 19.0167 442.952 17.925 442.952 16.525C442.952 15.5084 442.644 14.7084 442.027 14.125C441.41 13.525 440.41 13.05 439.027 12.7L434.877 11.625C433.427 11.2417 432.335 10.5917 431.602 9.67502C430.869 8.74169 430.502 7.64169 430.502 6.37502C430.502 5.22502 430.727 4.20835 431.177 3.32502C431.644 2.42502 432.319 1.73336 433.202 1.25002C434.085 0.750022 435.135 0.500021 436.352 0.500021C437.869 0.500022 439.227 0.758355 440.427 1.27502L442.252 0.500022L442.802 0.500022L442.802 5.60002L442.252 5.60002L440.452 1.95002C439.202 1.35002 437.844 1.05002 436.377 1.05002C434.927 1.05002 433.785 1.42502 432.952 2.17502C432.119 2.90835 431.702 3.88335 431.702 5.10002C431.702 6.00002 431.994 6.70836 432.577 7.22502C433.177 7.74169 434.052 8.15002 435.202 8.45002L439.677 9.62502C441.127 9.99169 442.202 10.625 442.902 11.525C443.619 12.4084 443.977 13.7584 443.977 15.575C443.977 17.425 443.402 18.875 442.252 19.925C441.119 20.975 439.594 21.5 437.677 21.5ZM455.727 21L455.727 20.475L458.027 20.1L458.027 1.62502L453.902 1.62502L452.002 6.57502L451.277 6.57502L451.277 1.00002L467.552 1.00002L467.552 6.57502L466.802 6.57502L464.927 1.62502L460.777 1.62502L460.777 20.1L463.077 20.475L463.077 21L455.727 21ZM483.457 21.5C481.007 21.5 479.216 20.9584 478.082 19.875C476.949 18.775 476.382 17.325 476.382 15.525L476.382 1.90002L474.082 1.55002L474.082 1.00002L481.432 1.00002L481.432 1.55002L479.132 1.90002L479.132 15.525C479.132 17.1584 479.591 18.4167 480.507 19.3C481.424 20.1667 482.816 20.6 484.682 20.6C488.216 20.6 489.982 18.9084 489.982 15.525L489.982 2.52503L487.657 1.55002L487.657 1.00003L492.982 1.00003L492.982 1.55002L490.582 2.52503L490.582 15.525C490.582 17.525 490.024 19.025 488.907 20.025C487.791 21.0084 485.974 21.5 483.457 21.5ZM507.347 21.5L500.147 1.90002L498.147 1.55002L498.147 1.00003L505.472 1.00003L505.472 1.55003L503.122 1.85003L508.622 16.825L514.022 2.67503L511.147 1.55003L511.147 1.00003L516.522 1.00003L516.522 1.55003L514.697 2.65003L507.547 21.5L507.347 21.5ZM521.189 21L521.189 20.475L523.664 19.075L529.389 11.425L523.064 1.90003L520.939 1.55003L520.939 1.00003L528.514 1.00003L528.514 1.55003L526.539 1.85003L531.389 9.20003L536.214 2.75003L533.239 1.55003L533.239 1.00003L539.214 1.00003L539.214 1.55003L536.839 2.87503L531.739 9.70003L538.664 20.125L540.814 20.475L540.814 21L533.214 21L533.214 20.475L535.189 20.15L529.739 11.95L524.214 19.3L527.164 20.475L527.164 21L521.189 21ZM550.283 21L550.283 20.475L552.608 20.1L552.608 12.5L546.533 1.90003L544.558 1.55003L544.558 1.00003L552.083 1.00003L552.083 1.55003L549.758 1.90003L555.008 10.975L559.833 2.75003L556.833 1.55003L556.833 1.00003L562.433 1.00003L562.433 1.55003L560.508 2.77503L555.308 11.675L555.308 20.1L557.633 20.475L557.633 21L550.283 21ZM567.888 21L567.888 20.4L579.588 1.62503L571.838 1.62503L569.263 6.62503L568.613 6.62503L569.213 1.00003L582.963 1.00003L582.963 1.62503L571.238 20.4L579.988 20.4L582.563 15.025L583.213 15.025L582.613 21L567.888 21ZM5.8 66.25C4.73333 66.25 3.85833 65.975 3.175 65.425C2.49166 64.8583 2.15 64.025 2.15 62.925C2.15 61.3583 2.80833 60.25 4.125 59.6C5.44166 58.9333 6.96666 58.6 8.7 58.6L10.375 58.6L10.375 56.675C10.375 55.8083 10.275 55.1417 10.075 54.675C9.89166 54.1917 9.6 53.8583 9.2 53.675C8.8 53.475 8.25833 53.375 7.575 53.375C6.79166 53.375 6.20833 53.5333 5.825 53.85C5.44166 54.15 5.25 54.5583 5.25 55.075C5.25 55.5583 5.48333 55.875 5.95 56.025C5.95 56.4417 5.79166 56.8083 5.475 57.125C5.15833 57.4417 4.78333 57.6 4.35 57.6C3.88333 57.6 3.50833 57.475 3.225 57.225C2.94166 56.9583 2.8 56.5583 2.8 56.025C2.8 55.0583 3.28333 54.2833 4.25 53.7C5.21666 53.1167 6.425 52.825 7.875 52.825C11.2083 52.825 12.875 54.275 12.875 57.175L12.875 64.325C12.875 64.6917 12.95 64.975 13.1 65.175C13.2667 65.3583 13.5 65.45 13.8 65.45C14.0833 65.45 14.3083 65.3583 14.475 65.175C14.6417 64.975 14.725 64.7083 14.725 64.375L15.25 64.375C15.25 64.9583 15.0583 65.4167 14.675 65.75C14.3083 66.0833 13.7917 66.25 13.125 66.25C12.3583 66.25 11.7083 66.0333 11.175 65.6C10.6583 65.15 10.3917 64.4583 10.375 63.525C9.975 64.375 9.35833 65.0417 8.525 65.525C7.70833 66.0083 6.8 66.25 5.8 66.25ZM7.175 65.15C7.625 65.15 8.08333 65.0167 8.55 64.75C9.03333 64.4833 9.44166 64.1 9.775 63.6C10.1083 63.0833 10.3083 62.4667 10.375 61.75L10.375 59.15L8.7 59.15C7.33333 59.15 6.30833 59.4583 5.625 60.075C4.95833 60.675 4.625 61.525 4.625 62.625C4.625 63.5417 4.84166 64.1917 5.275 64.575C5.70833 64.9583 6.34166 65.15 7.175 65.15ZM29.4096 66.25C28.4262 66.25 27.5762 66 26.8596 65.5C26.1596 64.9833 25.6012 64.2833 25.1846 63.4L25.1846 66L20.9346 66L20.9346 65.5L22.6846 65.25L22.6846 46.75L20.9346 46.5L20.9346 46L25.1846 46L25.1846 55.675C25.6012 54.7917 26.1596 54.1 26.8596 53.6C27.5762 53.0833 28.4262 52.825 29.4096 52.825C30.5929 52.825 31.6346 53.1 32.5346 53.65C33.4346 54.2 34.1346 54.9833 34.6346 56C35.1346 57 35.3846 58.175 35.3846 59.525C35.3846 60.875 35.1346 62.0583 34.6346 63.075C34.1346 64.075 33.4346 64.8583 32.5346 65.425C31.6346 65.975 30.5929 66.25 29.4096 66.25ZM29.1596 65.625C31.4762 65.625 32.6346 64.0083 32.6346 60.775L32.6346 58.275C32.6346 55.0583 31.4762 53.45 29.1596 53.45C28.4262 53.45 27.7596 53.6667 27.1596 54.1C26.5596 54.5167 26.0846 55.0833 25.7346 55.8C25.3846 56.5 25.2012 57.2667 25.1846 58.1L25.1846 60.775C25.1846 61.625 25.3512 62.425 25.6846 63.175C26.0346 63.925 26.5096 64.525 27.1096 64.975C27.7262 65.4083 28.4096 65.625 29.1596 65.625ZM49.2502 66.25C48.0502 66.25 46.9585 65.975 45.9752 65.425C44.9919 64.8583 44.2085 64.0667 43.6252 63.05C43.0585 62.0167 42.7752 60.8417 42.7752 59.525C42.7752 58.1417 43.0752 56.9417 43.6752 55.925C44.2919 54.9083 45.0919 54.1417 46.0752 53.625C47.0585 53.0917 48.1169 52.825 49.2502 52.825C50.2002 52.825 51.0669 52.9917 51.8502 53.325C52.6335 53.6417 53.2502 54.0917 53.7002 54.675C54.1669 55.2583 54.4002 55.9167 54.4002 56.65C54.4002 57.2 54.2585 57.625 53.9752 57.925C53.6919 58.2083 53.3169 58.35 52.8502 58.35C52.4002 58.35 52.0252 58.2 51.7252 57.9C51.4252 57.6 51.2752 57.225 51.2752 56.775C51.5252 56.6083 51.7002 56.425 51.8002 56.225C51.9002 56.025 51.9502 55.775 51.9502 55.475C51.9502 54.8583 51.7002 54.3583 51.2002 53.975C50.7169 53.575 50.0669 53.375 49.2502 53.375C48.0502 53.375 47.1252 53.8083 46.4752 54.675C45.8419 55.525 45.5252 56.725 45.5252 58.275L45.5252 60.775C45.5252 62.2583 45.8335 63.45 46.4502 64.35C47.0835 65.25 48.0169 65.7 49.2502 65.7C50.3835 65.7 51.3669 65.3833 52.2002 64.75C53.0502 64.1 53.5752 63.25 53.7752 62.2L54.3502 62.2C54.1169 63.4333 53.5335 64.4167 52.6002 65.15C51.6835 65.8833 50.5669 66.25 49.2502 66.25ZM67.6721 66.25C66.4887 66.25 65.4471 65.975 64.5471 65.425C63.6471 64.8583 62.9471 64.075 62.4471 63.075C61.9471 62.0583 61.6971 60.875 61.6971 59.525C61.6971 58.175 61.9471 57 62.4471 56C62.9471 54.9833 63.6471 54.2 64.5471 53.65C65.4471 53.1 66.4887 52.825 67.6721 52.825C68.6387 52.825 69.4804 53.0833 70.1971 53.6C70.9137 54.1 71.4804 54.7917 71.8971 55.675L71.8971 46.75L70.1471 46.5L70.1471 46L74.3971 46L74.3971 65.25L76.1471 65.5L76.1471 66L71.8971 66L71.8971 63.4C71.4804 64.2833 70.9137 64.9833 70.1971 65.5C69.4804 66 68.6387 66.25 67.6721 66.25ZM67.9221 65.625C68.6554 65.625 69.3137 65.4167 69.8971 65C70.4971 64.5667 70.9721 64 71.3221 63.3C71.6887 62.5833 71.8804 61.8083 71.8971 60.975L71.8971 58.1C71.8804 57.2667 71.6887 56.5 71.3221 55.8C70.9721 55.0833 70.4971 54.5167 69.8971 54.1C69.3137 53.6667 68.6554 53.45 67.9221 53.45C65.6054 53.45 64.4471 55.0583 64.4471 58.275L64.4471 60.775C64.4471 64.0083 65.6054 65.625 67.9221 65.625ZM89.5871 66.25C88.3538 66.25 87.2371 65.975 86.2371 65.425C85.2371 64.8583 84.4454 64.0667 83.8621 63.05C83.2788 62.0333 82.9871 60.8583 82.9871 59.525C82.9871 58.1917 83.2704 57.025 83.8371 56.025C84.4204 55.0083 85.1954 54.225 86.1621 53.675C87.1454 53.1083 88.2371 52.825 89.4371 52.825C90.4871 52.825 91.4288 53.0583 92.2621 53.525C93.0954 53.9917 93.7454 54.6417 94.2121 55.475C94.6788 56.2917 94.9204 57.2333 94.9371 58.3L85.7371 58.3L85.7371 60.775C85.7371 62.2417 86.0621 63.4333 86.7121 64.35C87.3788 65.25 88.3371 65.7 89.5871 65.7C90.7371 65.7 91.7538 65.375 92.6371 64.725C93.5204 64.075 94.0621 63.2333 94.2621 62.2L94.8371 62.2C94.6038 63.4333 94.0121 64.4167 93.0621 65.15C92.1121 65.8833 90.9538 66.25 89.5871 66.25ZM92.1871 57.675C92.1871 56.225 91.9621 55.15 91.5121 54.45C91.0621 53.7333 90.3621 53.375 89.4121 53.375C88.2954 53.375 87.4288 53.7667 86.8121 54.55C86.1954 55.3333 85.8454 56.375 85.7621 57.675L92.1871 57.675ZM101.851 65.5L103.601 65.25L103.601 53.8L101.851 53.55L101.851 53.05L103.601 53.05L103.601 50.95C103.601 49.35 103.926 48.0833 104.576 47.15C105.226 46.2167 106.334 45.75 107.901 45.75C108.884 45.75 109.692 45.9917 110.326 46.475C110.976 46.9417 111.301 47.5833 111.301 48.4C111.301 48.9 111.159 49.3083 110.876 49.625C110.609 49.9417 110.242 50.1 109.776 50.1C109.359 50.1 108.992 49.9417 108.676 49.625C108.359 49.3083 108.201 48.9417 108.201 48.525C108.767 48.3583 109.051 47.9667 109.051 47.35C109.051 47.0667 108.934 46.825 108.701 46.625C108.484 46.4083 108.217 46.3 107.901 46.3C107.251 46.3 106.784 46.6083 106.501 47.225C106.234 47.825 106.101 48.8083 106.101 50.175L106.101 53.05L109.351 53.05L109.351 53.55L106.101 53.8L106.101 65.25L109.076 65.5L109.076 66L101.851 66L101.851 65.5ZM128.178 51.875C128.178 52.525 127.936 53.0833 127.453 53.55C126.969 54.0167 126.203 54.3167 125.153 54.45C125.586 55.0833 125.803 55.95 125.803 57.05C125.803 58.35 125.336 59.375 124.403 60.125C123.486 60.875 122.319 61.25 120.903 61.25C120.319 61.25 119.786 61.2 119.303 61.1C118.236 61.1667 117.703 61.5833 117.703 62.35C117.703 62.7833 117.878 63.1 118.228 63.3C118.594 63.5 119.169 63.6 119.953 63.6L122.753 63.6C124.103 63.6 125.103 63.875 125.753 64.425C126.419 64.975 126.753 65.9167 126.753 67.25C126.753 68.1833 126.511 69.0417 126.028 69.825C125.561 70.6083 124.878 71.225 123.978 71.675C123.078 72.1417 122.003 72.375 120.753 72.375C118.869 72.375 117.478 72.0917 116.578 71.525C115.694 70.9583 115.253 70.2083 115.253 69.275C115.253 68.7083 115.469 68.2083 115.903 67.775C116.336 67.3417 116.928 67.125 117.678 67.125C117.828 67.125 118.136 67.1583 118.603 67.225C118.086 67.775 117.828 68.425 117.828 69.175C117.828 69.8917 118.078 70.5167 118.578 71.05C119.078 71.5833 119.894 71.85 121.028 71.85C122.011 71.85 122.886 71.6583 123.653 71.275C124.436 70.9083 125.036 70.425 125.453 69.825C125.869 69.225 126.078 68.6083 126.078 67.975C126.078 67.275 125.853 66.7667 125.403 66.45C124.953 66.15 124.153 66 123.003 66L119.953 66C118.786 66 117.903 65.775 117.303 65.325C116.719 64.8583 116.428 64.175 116.428 63.275C116.428 62.675 116.594 62.15 116.928 61.7C117.278 61.2333 117.719 60.9333 118.253 60.8C116.803 60.1833 116.078 58.9333 116.078 57.05C116.078 55.7333 116.536 54.7 117.453 53.95C118.369 53.2 119.519 52.825 120.903 52.825C122.653 52.825 123.919 53.1917 124.703 53.925C125.169 53.8417 125.519 53.6917 125.753 53.475C125.986 53.2417 126.103 52.9833 126.103 52.7C126.103 52.4333 126.028 52.2333 125.878 52.1C125.728 51.95 125.553 51.875 125.353 51.875C125.353 51.5083 125.486 51.1917 125.753 50.925C126.036 50.6417 126.369 50.5 126.753 50.5C127.169 50.5 127.511 50.625 127.778 50.875C128.044 51.125 128.178 51.4583 128.178 51.875ZM123.453 56.425C123.453 55.4083 123.236 54.625 122.803 54.075C122.386 53.525 121.753 53.25 120.903 53.25C119.253 53.25 118.428 54.3083 118.428 56.425L118.428 57.65C118.428 58.6333 118.628 59.4083 119.028 59.975C119.444 60.5417 120.069 60.825 120.903 60.825C121.753 60.825 122.386 60.5417 122.803 59.975C123.236 59.4083 123.453 58.6333 123.453 57.65L123.453 56.425ZM133.832 65.5L135.582 65.25L135.582 46.75L133.832 46.5L133.832 46L138.082 46L138.082 55.75C138.698 54.85 139.423 54.1417 140.257 53.625C141.09 53.0917 141.99 52.825 142.957 52.825C144.157 52.825 145.098 53.125 145.782 53.725C146.482 54.325 146.832 55.2167 146.832 56.4L146.832 65.25L148.582 65.5L148.582 66L142.832 66L142.832 65.5L144.332 65.25L144.332 56.45C144.332 55.5833 144.157 54.9167 143.807 54.45C143.457 53.9667 142.915 53.725 142.182 53.725C141.415 53.725 140.673 54.0083 139.957 54.575C139.257 55.125 138.632 55.8083 138.082 56.625L138.082 65.25L139.582 65.5L139.582 66L133.832 66L133.832 65.5ZM157.629 50.15C157.163 50.15 156.763 49.9917 156.429 49.675C156.096 49.3417 155.929 48.9417 155.929 48.475C155.929 48.0083 156.088 47.6167 156.404 47.3C156.738 46.9833 157.146 46.825 157.629 46.825C158.079 46.825 158.463 46.9833 158.779 47.3C159.096 47.6167 159.254 48.0083 159.254 48.475C159.254 48.9417 159.096 49.3417 158.779 49.675C158.463 49.9917 158.079 50.15 157.629 50.15ZM154.979 66L154.979 65.5L156.729 65.25L156.729 53.825L154.979 53.575L154.979 53.075L159.229 53.075L159.229 65.25L160.979 65.5L160.979 66L154.979 66ZM170.131 50.15C169.664 50.15 169.264 49.9917 168.931 49.675C168.598 49.3417 168.431 48.9417 168.431 48.475C168.431 48.0083 168.589 47.6167 168.906 47.3C169.239 46.9833 169.648 46.825 170.131 46.825C170.581 46.825 170.964 46.9833 171.281 47.3C171.598 47.6167 171.756 48.0083 171.756 48.475C171.756 48.9417 171.598 49.3417 171.281 49.675C170.964 49.9917 170.581 50.15 170.131 50.15ZM167.556 73.3C166.623 73.3 165.881 73.0833 165.331 72.65C164.781 72.2333 164.506 71.6667 164.506 70.95C164.506 70.5 164.631 70.1333 164.881 69.85C165.131 69.5667 165.464 69.425 165.881 69.425C166.264 69.425 166.598 69.5667 166.881 69.85C167.164 70.1333 167.306 70.4667 167.306 70.85C166.789 71 166.531 71.325 166.531 71.825C166.531 72.0583 166.623 72.2667 166.806 72.45C167.006 72.65 167.256 72.75 167.556 72.75C168.156 72.75 168.573 72.4583 168.806 71.875C169.056 71.3083 169.181 70.3083 169.181 68.875L169.181 53.8L167.306 53.55L167.306 53.05L171.681 53.05L171.681 68.6C171.681 70.05 171.364 71.1917 170.731 72.025C170.114 72.875 169.056 73.3 167.556 73.3ZM179.464 66L179.464 65.5L181.214 65.25L181.214 46.75L179.464 46.5L179.464 46L183.714 46L183.714 58.825L189.439 54.125L187.264 53.55L187.264 53.05L191.964 53.05L191.964 53.55L190.364 54.125L186.214 57.525L192.064 65.275L193.414 65.5L193.414 66L187.564 66L187.564 65.5L189.064 65.25L184.364 59.05L183.714 59.6L183.714 65.25L185.214 65.5L185.214 66L179.464 66ZM198.85 66L198.85 65.5L200.725 65.25L200.725 46.75L198.85 46.5L198.85 46L203.225 46L203.225 65.25L204.975 65.5L204.975 66L198.85 66ZM211.428 65.5L213.178 65.25L213.178 53.8L211.428 53.55L211.428 53.05L215.678 53.05L215.678 55.35C216.278 54.5667 216.953 53.95 217.703 53.5C218.47 53.05 219.295 52.825 220.178 52.825C221.195 52.825 222.02 53.05 222.653 53.5C223.303 53.9333 223.711 54.5917 223.878 55.475C224.478 54.6583 225.161 54.0167 225.928 53.55C226.695 53.0667 227.536 52.825 228.453 52.825C229.636 52.825 230.553 53.125 231.203 53.725C231.87 54.3083 232.203 55.2 232.203 56.4L232.203 65.25L233.953 65.5L233.953 66L228.203 66L228.203 65.5L229.703 65.25L229.703 56.45C229.703 55.5667 229.545 54.8917 229.228 54.425C228.911 53.9583 228.395 53.725 227.678 53.725C226.995 53.725 226.328 53.9583 225.678 54.425C225.045 54.8917 224.47 55.4917 223.953 56.225L223.953 65.25L225.453 65.5L225.453 66L219.928 66L219.928 65.5L221.428 65.25L221.428 56.45C221.428 55.5667 221.27 54.8917 220.953 54.425C220.636 53.9583 220.12 53.725 219.403 53.725C218.72 53.725 218.053 53.9583 217.403 54.425C216.77 54.8917 216.195 55.4917 215.678 56.225L215.678 65.25L217.178 65.5L217.178 66L211.428 66L211.428 65.5ZM240.335 65.5L242.085 65.25L242.085 53.8L240.335 53.55L240.335 53.05L244.585 53.05L244.585 55.75C245.202 54.85 245.927 54.1417 246.76 53.625C247.593 53.0917 248.493 52.825 249.46 52.825C250.66 52.825 251.602 53.125 252.285 53.725C252.985 54.325 253.335 55.2167 253.335 56.4L253.335 65.25L255.085 65.5L255.085 66L249.335 66L249.335 65.5L250.835 65.25L250.835 56.45C250.835 55.5833 250.66 54.9167 250.31 54.45C249.96 53.9667 249.418 53.725 248.685 53.725C247.918 53.725 247.177 54.0083 246.46 54.575C245.76 55.125 245.135 55.8083 244.585 56.625L244.585 65.25L246.085 65.5L246.085 66L240.335 66L240.335 65.5ZM268.329 66.25C267.129 66.25 266.038 65.975 265.054 65.425C264.071 64.8583 263.288 64.0667 262.704 63.05C262.138 62.0167 261.854 60.8417 261.854 59.525C261.854 58.2083 262.138 57.0417 262.704 56.025C263.288 55.0083 264.071 54.225 265.054 53.675C266.038 53.1083 267.129 52.825 268.329 52.825C269.529 52.825 270.621 53.1083 271.604 53.675C272.588 54.225 273.363 55.0083 273.929 56.025C274.513 57.0417 274.804 58.2083 274.804 59.525C274.804 60.8417 274.513 62.0167 273.929 63.05C273.363 64.0667 272.588 64.8583 271.604 65.425C270.621 65.975 269.529 66.25 268.329 66.25ZM268.329 65.7C269.563 65.7 270.488 65.25 271.104 64.35C271.738 63.45 272.054 62.2583 272.054 60.775L272.054 58.275C272.054 56.7917 271.738 55.6083 271.104 54.725C270.488 53.825 269.563 53.375 268.329 53.375C267.096 53.375 266.163 53.825 265.529 54.725C264.913 55.6083 264.604 56.7917 264.604 58.275L264.604 60.775C264.604 62.2583 264.913 63.45 265.529 64.35C266.163 65.25 267.096 65.7 268.329 65.7ZM281.642 72.575L283.392 72.325L283.392 53.825L281.642 53.575L281.642 53.075L285.892 53.075L285.892 55.7C286.309 54.8 286.867 54.1 287.567 53.6C288.284 53.0833 289.134 52.825 290.117 52.825C291.301 52.825 292.342 53.1083 293.242 53.675C294.142 54.225 294.842 55.0083 295.342 56.025C295.842 57.025 296.092 58.2 296.092 59.55C296.092 60.9 295.842 62.0833 295.342 63.1C294.842 64.1 294.142 64.875 293.242 65.425C292.342 65.975 291.301 66.25 290.117 66.25C289.134 66.25 288.284 66 287.567 65.5C286.867 64.9833 286.309 64.2833 285.892 63.4L285.892 72.325L288.242 72.575L288.242 73.075L281.642 73.075L281.642 72.575ZM289.867 65.625C292.184 65.625 293.342 64.0167 293.342 60.8L293.342 58.3C293.342 55.0667 292.184 53.45 289.867 53.45C289.134 53.45 288.467 53.6667 287.867 54.1C287.267 54.5167 286.792 55.0833 286.442 55.8C286.092 56.5167 285.909 57.2917 285.892 58.125L285.892 60.8C285.892 61.65 286.059 62.45 286.392 63.2C286.742 63.9333 287.217 64.525 287.817 64.975C288.434 65.4083 289.117 65.625 289.867 65.625ZM310.707 72.575L313.682 72.325L313.682 63.4C313.266 64.2833 312.699 64.9833 311.982 65.5C311.266 66 310.424 66.25 309.457 66.25C308.274 66.25 307.232 65.975 306.332 65.425C305.432 64.875 304.732 64.1 304.232 63.1C303.732 62.0833 303.482 60.9 303.482 59.55C303.482 58.2 303.732 57.025 304.232 56.025C304.732 55.0083 305.432 54.225 306.332 53.675C307.232 53.1083 308.274 52.825 309.457 52.825C310.424 52.825 311.266 53.0833 311.982 53.6C312.699 54.1 313.266 54.8 313.682 55.7L313.682 53.075L317.932 53.075L317.932 53.575L316.182 53.825L316.182 72.325L317.932 72.575L317.932 73.075L310.707 73.075L310.707 72.575ZM309.707 65.625C310.441 65.625 311.099 65.4167 311.682 65C312.282 64.5667 312.757 64 313.107 63.3C313.474 62.5833 313.666 61.8167 313.682 61L313.682 58.125C313.666 57.2917 313.474 56.5167 313.107 55.8C312.757 55.0833 312.282 54.5167 311.682 54.1C311.099 53.6667 310.441 53.45 309.707 53.45C307.391 53.45 306.232 55.0667 306.232 58.3L306.232 60.8C306.232 64.0167 307.391 65.625 309.707 65.625ZM324.372 65.5L326.122 65.25L326.122 53.8L324.372 53.55L324.372 53.05L328.622 53.05L328.622 54.975C329.672 53.5417 330.856 52.825 332.172 52.825C332.806 52.825 333.364 52.9917 333.847 53.325C334.331 53.6417 334.572 54.1 334.572 54.7C334.572 55.1334 334.431 55.5 334.147 55.8C333.864 56.0834 333.489 56.225 333.022 56.225C332.489 56.225 332.056 56.0167 331.722 55.6C331.906 55.3667 331.997 55.1167 331.997 54.85C331.997 54.5667 331.897 54.3417 331.697 54.175C331.514 53.9917 331.264 53.9 330.947 53.9C330.597 53.9 330.239 54.0667 329.872 54.4C329.506 54.7167 329.089 55.2167 328.622 55.9L328.622 65.25L330.622 65.5L330.622 66L324.372 66L324.372 65.5ZM346.007 66.25C344.64 66.25 343.498 65.9584 342.582 65.375C341.665 64.7917 341.207 64.0334 341.207 63.1C341.207 62.6167 341.332 62.2417 341.582 61.975C341.848 61.6917 342.198 61.55 342.632 61.55C342.965 61.55 343.248 61.6334 343.482 61.8C343.715 61.9667 343.882 62.2 343.982 62.5C343.615 62.9 343.432 63.325 343.432 63.775C343.432 64.2917 343.665 64.7417 344.132 65.125C344.598 65.5084 345.223 65.7 346.007 65.7C347.057 65.7 347.915 65.4667 348.582 65C349.248 64.5167 349.582 63.875 349.582 63.075C349.582 62.6084 349.44 62.2584 349.157 62.025C348.873 61.7917 348.323 61.525 347.507 61.225L343.732 59.85C342.248 59.3167 341.507 58.325 341.507 56.875C341.507 55.6917 341.915 54.725 342.732 53.975C343.548 53.2084 344.673 52.825 346.107 52.825C347.29 52.825 348.298 53.1 349.132 53.65C349.982 54.1834 350.407 54.95 350.407 55.95C350.407 56.35 350.298 56.675 350.082 56.925C349.865 57.1584 349.582 57.275 349.232 57.275C348.882 57.275 348.59 57.1834 348.357 57C348.14 56.8 348.032 56.5334 348.032 56.2C348.248 56.0334 348.398 55.8584 348.482 55.675C348.565 55.475 348.607 55.2417 348.607 54.975C348.607 54.5084 348.398 54.125 347.982 53.825C347.582 53.525 346.957 53.375 346.107 53.375C345.373 53.375 344.74 53.4917 344.207 53.725C343.69 53.9417 343.298 54.2334 343.032 54.6C342.765 54.9667 342.632 55.3417 342.632 55.725C342.632 56.125 342.773 56.4417 343.057 56.675C343.357 56.9084 343.898 57.1667 344.682 57.45L348.182 58.7C348.998 59 349.615 59.4167 350.032 59.95C350.448 60.4834 350.657 61.175 350.657 62.025C350.657 63.2417 350.273 64.25 349.507 65.05C348.74 65.85 347.573 66.25 346.007 66.25ZM362.996 66.25C361.896 66.25 361.013 65.975 360.346 65.425C359.696 64.875 359.371 64 359.371 62.8L359.371 53.8L357.596 53.55L357.596 53.05L359.371 53.05L359.371 50.975L361.871 50.35L361.871 53.05L365.121 53.05L365.121 53.55L361.871 53.8L361.871 62.75C361.871 64.5167 362.505 65.4 363.771 65.4C364.038 65.4 364.288 65.3584 364.521 65.275C364.771 65.1917 364.963 65.1084 365.096 65.025C365.246 64.9417 365.338 64.8834 365.371 64.85L365.696 65.25C364.946 65.9167 364.046 66.25 362.996 66.25ZM377.113 66.25C375.913 66.25 374.963 65.95 374.263 65.35C373.58 64.75 373.238 63.8584 373.238 62.675L373.238 53.8L371.488 53.55L371.488 53.05L375.738 53.05L375.738 62.625C375.738 63.475 375.913 64.1417 376.263 64.625C376.613 65.1084 377.155 65.35 377.888 65.35C378.655 65.35 379.388 65.1 380.088 64.6C380.805 64.0834 381.438 63.45 381.988 62.7L381.988 53.8L380.238 53.55L380.238 53.05L384.488 53.05L384.488 65.25L386.238 65.5L386.238 66L381.988 66L381.988 63.6C381.388 64.4334 380.663 65.0834 379.813 65.55C378.98 66.0167 378.08 66.25 377.113 66.25ZM398.734 66.5L393.384 53.8L391.759 53.55L391.759 53.05L397.984 53.05L397.984 53.55L396.184 53.875L399.959 63.275L403.334 54.2L401.134 53.575L401.134 53.075L405.609 53.075L405.609 53.575L404.034 54.175L399.434 66.5L398.734 66.5ZM423.516 65.275L425.116 65.5L425.116 66L419.016 66L419.016 65.5L420.516 65.25L417.066 60.525L413.391 64.925L415.416 65.5L415.416 66L410.941 66L410.941 65.5L412.616 64.875L416.666 59.95L412.166 53.775L410.641 53.55L410.641 53.05L416.741 53.05L416.741 53.55L415.166 53.825L418.291 58.1L421.641 54.15L419.666 53.575L419.666 53.075L424.266 53.075L424.266 53.575L422.441 54.225L418.691 58.675L423.516 65.275ZM433.245 73.3C432.378 73.3 431.678 73.0834 431.145 72.65C430.612 72.2167 430.345 71.6334 430.345 70.9C430.345 70.4 430.487 69.9917 430.77 69.675C431.07 69.375 431.437 69.225 431.87 69.225C432.187 69.225 432.47 69.2917 432.72 69.425C432.97 69.5584 433.17 69.7584 433.32 70.025C433.07 70.375 432.945 70.7417 432.945 71.125C432.945 71.4584 433.053 71.7334 433.27 71.95C433.487 72.1667 433.762 72.275 434.095 72.275C434.495 72.275 434.837 72.1417 435.12 71.875C435.42 71.6084 435.687 71.1417 435.92 70.475L437.42 66.175L431.62 53.825L429.945 53.575L429.945 53.075L436.17 53.075L436.17 53.575L434.42 53.875L438.595 62.8L441.57 54.2L439.42 53.575L439.42 53.075L443.92 53.075L443.92 53.575L442.22 54.2L436.62 70.475C436.27 71.4584 435.845 72.175 435.345 72.625C434.862 73.075 434.162 73.3 433.245 73.3ZM449.899 66L449.899 65.4L457.649 53.675L452.699 53.675L450.649 57.55L450.024 57.55L450.349 53.05L460.574 53.05L460.574 53.675L452.824 65.4L458.174 65.4L460.374 61.225L461.024 61.225L460.549 66L449.899 66ZM8.54999 156.25C7.34999 156.25 6.25832 155.975 5.27499 155.425C4.29166 154.858 3.50832 154.067 2.92499 153.05C2.35832 152.017 2.07499 150.842 2.07499 149.525C2.07499 148.142 2.37499 146.942 2.97499 145.925C3.59166 144.908 4.39166 144.142 5.37499 143.625C6.35833 143.092 7.41666 142.825 8.54999 142.825C9.49999 142.825 10.3667 142.992 11.15 143.325C11.9333 143.642 12.55 144.092 13 144.675C13.4667 145.258 13.7 145.917 13.7 146.65C13.7 147.2 13.5583 147.625 13.275 147.925C12.9917 148.208 12.6167 148.35 12.15 148.35C11.7 148.35 11.325 148.2 11.025 147.9C10.725 147.6 10.575 147.225 10.575 146.775C10.825 146.608 11 146.425 11.1 146.225C11.2 146.025 11.25 145.775 11.25 145.475C11.25 144.858 11 144.358 10.5 143.975C10.0167 143.575 9.36666 143.375 8.54999 143.375C7.34999 143.375 6.42499 143.808 5.77499 144.675C5.14166 145.525 4.82499 146.725 4.82499 148.275L4.82499 150.775C4.82499 152.258 5.13333 153.45 5.74999 154.35C6.38333 155.25 7.31666 155.7 8.54999 155.7C9.68332 155.7 10.6667 155.383 11.5 154.75C12.35 154.1 12.875 153.25 13.075 152.2L13.65 152.2C13.4167 153.433 12.8333 154.417 11.9 155.15C10.9833 155.883 9.86666 156.25 8.54999 156.25ZM14.9719 141.275L11.9719 137.375L12.4969 137.025L15.4469 139.375L18.4219 137.025L18.9469 137.375L15.9469 141.275L14.9719 141.275ZM32.7219 156.25C31.5219 156.25 30.4302 155.975 29.4469 155.425C28.4635 154.858 27.6802 154.067 27.0969 153.05C26.5302 152.017 26.2469 150.842 26.2469 149.525C26.2469 148.142 26.5469 146.942 27.1469 145.925C27.7635 144.908 28.5635 144.142 29.5469 143.625C30.5302 143.092 31.5885 142.825 32.7219 142.825C33.6719 142.825 34.5385 142.992 35.3219 143.325C36.1052 143.642 36.7219 144.092 37.1719 144.675C37.6385 145.258 37.8719 145.917 37.8719 146.65C37.8719 147.2 37.7302 147.625 37.4469 147.925C37.1635 148.208 36.7885 148.35 36.3219 148.35C35.8719 148.35 35.4969 148.2 35.1969 147.9C34.8969 147.6 34.7469 147.225 34.7469 146.775C34.9969 146.608 35.1719 146.425 35.2719 146.225C35.3719 146.025 35.4219 145.775 35.4219 145.475C35.4219 144.858 35.1719 144.358 34.6719 143.975C34.1885 143.575 33.5385 143.375 32.7219 143.375C31.5219 143.375 30.5969 143.808 29.9469 144.675C29.3135 145.525 28.9969 146.725 28.9969 148.275L28.9969 150.775C28.9969 152.258 29.3052 153.45 29.9219 154.35C30.5552 155.25 31.4885 155.7 32.7219 155.7C33.8552 155.7 34.8385 155.383 35.6719 154.75C36.5219 154.1 37.0469 153.25 37.2469 152.2L37.8219 152.2C37.5885 153.433 37.0052 154.417 36.0719 155.15C35.1552 155.883 34.0385 156.25 32.7219 156.25ZM38.9437 141.425L40.7937 137.475C40.8771 137.275 41.0187 137.108 41.2187 136.975C41.4187 136.842 41.6354 136.775 41.8687 136.775C42.1854 136.775 42.4604 136.892 42.6937 137.125C42.9271 137.358 43.0437 137.633 43.0437 137.95C43.0437 138.333 42.9021 138.625 42.6187 138.825L39.3437 141.725L38.9437 141.425ZM64.8687 155.5L64.8687 156L60.6187 156L60.6187 153.4C60.2021 154.283 59.6354 154.983 58.9187 155.5C58.2021 156 57.3604 156.25 56.3937 156.25C55.2104 156.25 54.1687 155.975 53.2687 155.425C52.3687 154.858 51.6687 154.075 51.1687 153.075C50.6687 152.058 50.4187 150.875 50.4187 149.525C50.4187 148.175 50.6687 147 51.1687 146C51.6687 144.983 52.3687 144.2 53.2687 143.65C54.1687 143.1 55.2104 142.825 56.3937 142.825C57.3604 142.825 58.2021 143.083 58.9187 143.6C59.6354 144.1 60.2021 144.792 60.6187 145.675L60.6187 140.85L57.1437 140.85L57.1437 140.025L60.6187 140.025L60.6187 136.75L58.8687 136.5L58.8687 136L63.1187 136L63.1187 140.025L63.8687 140.025L63.8687 140.85L63.1187 140.85L63.1187 155.25L64.8687 155.5ZM60.6187 148.1C60.6021 147.267 60.4104 146.5 60.0437 145.8C59.6937 145.083 59.2187 144.517 58.6187 144.1C58.0354 143.667 57.3771 143.45 56.6437 143.45C54.3271 143.45 53.1687 145.058 53.1687 148.275L53.1687 150.775C53.1687 154.008 54.3271 155.625 56.6437 155.625C57.3771 155.625 58.0354 155.417 58.6187 155C59.2187 154.567 59.6937 154 60.0437 153.3C60.4104 152.583 60.6021 151.808 60.6187 150.975L60.6187 148.1ZM75.584 156.25C74.2173 156.25 73.0756 155.958 72.159 155.375C71.2423 154.792 70.784 154.033 70.784 153.1C70.784 152.617 70.909 152.242 71.159 151.975C71.4256 151.692 71.7756 151.55 72.209 151.55C72.5423 151.55 72.8256 151.633 73.059 151.8C73.2923 151.967 73.459 152.2 73.559 152.5C73.1923 152.9 73.009 153.325 73.009 153.775C73.009 154.292 73.2423 154.742 73.709 155.125C74.1756 155.508 74.8006 155.7 75.584 155.7C76.634 155.7 77.4923 155.467 78.159 155C78.8256 154.517 79.159 153.875 79.159 153.075C79.159 152.608 79.0173 152.258 78.734 152.025C78.4506 151.792 77.9006 151.525 77.084 151.225L73.309 149.85C71.8256 149.317 71.084 148.325 71.084 146.875C71.084 145.692 71.4923 144.725 72.309 143.975C73.1256 143.208 74.2506 142.825 75.684 142.825C76.8673 142.825 77.8756 143.1 78.709 143.65C79.559 144.183 79.984 144.95 79.984 145.95C79.984 146.35 79.8756 146.675 79.659 146.925C79.4423 147.158 79.159 147.275 78.809 147.275C78.459 147.275 78.1673 147.183 77.934 147C77.7173 146.8 77.609 146.533 77.609 146.2C77.8256 146.033 77.9756 145.858 78.059 145.675C78.1423 145.475 78.184 145.242 78.184 144.975C78.184 144.508 77.9756 144.125 77.559 143.825C77.159 143.525 76.534 143.375 75.684 143.375C74.9506 143.375 74.3173 143.492 73.784 143.725C73.2673 143.942 72.8756 144.233 72.609 144.6C72.3423 144.967 72.209 145.342 72.209 145.725C72.209 146.125 72.3506 146.442 72.634 146.675C72.934 146.908 73.4756 147.167 74.259 147.45L77.759 148.7C78.5756 149 79.1923 149.417 79.609 149.95C80.0256 150.483 80.234 151.175 80.234 152.025C80.234 153.242 79.8506 154.25 79.084 155.05C78.3173 155.85 77.1506 156.25 75.584 156.25ZM81.7736 141.275L78.7736 137.375L79.2986 137.025L82.2486 139.375L85.2236 137.025L85.7486 137.375L82.7486 141.275L81.7736 141.275ZM92.9486 156L92.9486 155.4L100.699 143.675L95.7486 143.675L93.6986 147.55L93.0736 147.55L93.3986 143.05L103.624 143.05L103.624 143.675L95.8736 155.4L101.224 155.4L103.424 151.225L104.074 151.225L103.599 156L92.9486 156ZM105.189 141.275L102.189 137.375L102.714 137.025L105.664 139.375L108.639 137.025L109.164 137.375L106.164 141.275L105.189 141.275ZM120.189 156.25C119.122 156.25 118.247 155.975 117.564 155.425C116.88 154.858 116.539 154.025 116.539 152.925C116.539 151.358 117.197 150.25 118.514 149.6C119.83 148.933 121.355 148.6 123.089 148.6L124.764 148.6L124.764 146.675C124.764 145.808 124.664 145.142 124.464 144.675C124.28 144.192 123.989 143.858 123.589 143.675C123.189 143.475 122.647 143.375 121.964 143.375C121.18 143.375 120.597 143.533 120.214 143.85C119.83 144.15 119.639 144.558 119.639 145.075C119.639 145.558 119.872 145.875 120.339 146.025C120.339 146.442 120.18 146.808 119.864 147.125C119.547 147.442 119.172 147.6 118.739 147.6C118.272 147.6 117.897 147.475 117.614 147.225C117.33 146.958 117.189 146.558 117.189 146.025C117.189 145.058 117.672 144.283 118.639 143.7C119.605 143.117 120.814 142.825 122.264 142.825C125.597 142.825 127.264 144.275 127.264 147.175L127.264 154.325C127.264 154.692 127.339 154.975 127.489 155.175C127.655 155.358 127.889 155.45 128.189 155.45C128.472 155.45 128.697 155.358 128.864 155.175C129.03 154.975 129.114 154.708 129.114 154.375L129.639 154.375C129.639 154.958 129.447 155.417 129.064 155.75C128.697 156.083 128.18 156.25 127.514 156.25C126.747 156.25 126.097 156.033 125.564 155.6C125.047 155.15 124.78 154.458 124.764 153.525C124.364 154.375 123.747 155.042 122.914 155.525C122.097 156.008 121.189 156.25 120.189 156.25ZM121.564 155.15C122.014 155.15 122.472 155.017 122.939 154.75C123.422 154.483 123.83 154.1 124.164 153.6C124.497 153.083 124.697 152.467 124.764 151.75L124.764 149.15L123.089 149.15C121.722 149.15 120.697 149.458 120.014 150.075C119.347 150.675 119.014 151.525 119.014 152.625C119.014 153.542 119.23 154.192 119.664 154.575C120.097 154.958 120.73 155.15 121.564 155.15ZM119.314 141.275L118.789 140.9L121.789 137.025L122.764 137.025L125.764 140.9L125.239 141.275L122.264 138.925L119.314 141.275ZM142.254 156.25C141.021 156.25 139.904 155.975 138.904 155.425C137.904 154.858 137.112 154.067 136.529 153.05C135.946 152.033 135.654 150.858 135.654 149.525C135.654 148.192 135.937 147.025 136.504 146.025C137.087 145.008 137.862 144.225 138.829 143.675C139.812 143.108 140.904 142.825 142.104 142.825C143.154 142.825 144.096 143.058 144.929 143.525C145.762 143.992 146.412 144.642 146.879 145.475C147.346 146.292 147.587 147.233 147.604 148.3L138.404 148.3L138.404 150.775C138.404 152.242 138.729 153.433 139.379 154.35C140.046 155.25 141.004 155.7 142.254 155.7C143.404 155.7 144.421 155.375 145.304 154.725C146.187 154.075 146.729 153.233 146.929 152.2L147.504 152.2C147.271 153.433 146.679 154.417 145.729 155.15C144.779 155.883 143.621 156.25 142.254 156.25ZM144.854 147.675C144.854 146.225 144.629 145.15 144.179 144.45C143.729 143.733 143.029 143.375 142.079 143.375C140.962 143.375 140.096 143.767 139.479 144.55C138.862 145.333 138.512 146.375 138.429 147.675L144.854 147.675ZM139.204 141.275L138.679 140.9L141.679 137.025L142.654 137.025L145.654 140.9L145.129 141.275L142.154 138.925L139.204 141.275ZM161.344 156.25C160.144 156.25 159.052 155.975 158.069 155.425C157.086 154.858 156.302 154.067 155.719 153.05C155.152 152.017 154.869 150.842 154.869 149.525C154.869 148.208 155.152 147.042 155.719 146.025C156.302 145.008 157.086 144.225 158.069 143.675C159.052 143.108 160.144 142.825 161.344 142.825C162.544 142.825 163.636 143.108 164.619 143.675C165.602 144.225 166.377 145.008 166.944 146.025C167.527 147.042 167.819 148.208 167.819 149.525C167.819 150.842 167.527 152.017 166.944 153.05C166.377 154.067 165.602 154.858 164.619 155.425C163.636 155.975 162.544 156.25 161.344 156.25ZM161.344 155.7C162.577 155.7 163.502 155.25 164.119 154.35C164.752 153.45 165.069 152.258 165.069 150.775L165.069 148.275C165.069 146.792 164.752 145.608 164.119 144.725C163.502 143.825 162.577 143.375 161.344 143.375C160.111 143.375 159.177 143.825 158.544 144.725C157.927 145.608 157.619 146.792 157.619 148.275L157.619 150.775C157.619 152.258 157.927 153.45 158.544 154.35C159.177 155.25 160.111 155.7 161.344 155.7ZM158.394 141.275L157.869 140.9L160.869 137.025L161.844 137.025L164.844 140.9L164.319 141.275L161.344 138.925L158.394 141.275ZM188.058 140.6C188.491 140.6 188.816 140.717 189.033 140.95C189.25 141.183 189.358 141.483 189.358 141.85C189.358 142.117 189.3 142.392 189.183 142.675C189.066 142.942 188.9 143.183 188.683 143.4C187.916 144.133 187.058 144.517 186.108 144.55C186.741 145.15 187.233 145.875 187.583 146.725C187.933 147.575 188.108 148.508 188.108 149.525C188.108 150.842 187.816 152.017 187.233 153.05C186.666 154.067 185.891 154.858 184.908 155.425C183.925 155.975 182.833 156.25 181.633 156.25C180.433 156.25 179.341 155.975 178.358 155.425C177.375 154.858 176.591 154.067 176.008 153.05C175.441 152.017 175.158 150.842 175.158 149.525C175.158 148.208 175.441 147.042 176.008 146.025C176.591 145.008 177.375 144.225 178.358 143.675C179.341 143.108 180.433 142.825 181.633 142.825C182.95 142.825 184.133 143.158 185.183 143.825C185.533 143.825 185.858 143.767 186.158 143.65C186.458 143.533 186.708 143.375 186.908 143.175C186.975 143.108 187.008 143.025 187.008 142.925C187.008 142.725 186.916 142.5 186.733 142.25C186.6 142.033 186.533 141.825 186.533 141.625C186.533 141.342 186.658 141.1 186.908 140.9C187.175 140.7 187.558 140.6 188.058 140.6ZM185.358 148.275C185.358 146.792 185.041 145.608 184.408 144.725C183.791 143.825 182.866 143.375 181.633 143.375C180.4 143.375 179.466 143.825 178.833 144.725C178.216 145.608 177.908 146.792 177.908 148.275L177.908 150.775C177.908 152.258 178.216 153.45 178.833 154.35C179.466 155.25 180.4 155.7 181.633 155.7C182.866 155.7 183.791 155.25 184.408 154.35C185.041 153.45 185.358 152.258 185.358 150.775L185.358 148.275ZM209.871 140.625C210.304 140.625 210.629 140.742 210.846 140.975C211.063 141.208 211.171 141.508 211.171 141.875C211.171 142.142 211.113 142.417 210.996 142.7C210.879 142.967 210.713 143.208 210.496 143.425C209.729 144.158 208.846 144.542 207.846 144.575L207.846 155.25L209.596 155.5L209.596 156L205.346 156L205.346 153.6C204.746 154.433 204.021 155.083 203.171 155.55C202.338 156.017 201.438 156.25 200.471 156.25C199.271 156.25 198.321 155.95 197.621 155.35C196.938 154.75 196.596 153.858 196.596 152.675L196.596 143.8L194.846 143.55L194.846 143.05L199.096 143.05L199.096 152.625C199.096 153.475 199.271 154.142 199.621 154.625C199.971 155.108 200.513 155.35 201.246 155.35C202.013 155.35 202.746 155.1 203.446 154.6C204.163 154.083 204.796 153.45 205.346 152.7L205.346 143.8L203.596 143.55L203.596 143.05L207.846 143.05L207.846 143.725C208.213 143.592 208.504 143.417 208.721 143.2C208.788 143.133 208.821 143.05 208.821 142.95C208.821 142.75 208.729 142.525 208.546 142.275C208.413 142.058 208.346 141.85 208.346 141.65C208.346 141.367 208.471 141.125 208.721 140.925C208.988 140.725 209.371 140.625 209.871 140.625ZM230.917 140.625C231.35 140.625 231.675 140.742 231.892 140.975C232.108 141.208 232.217 141.508 232.217 141.875C232.217 142.142 232.158 142.417 232.042 142.7C231.925 142.967 231.758 143.208 231.542 143.425C230.775 144.158 229.892 144.542 228.892 144.575L228.892 155.25L230.642 155.5L230.642 156L226.392 156L226.392 153.6C225.792 154.433 225.067 155.083 224.217 155.55C223.383 156.017 222.483 156.25 221.517 156.25C220.317 156.25 219.367 155.95 218.667 155.35C217.983 154.75 217.642 153.858 217.642 152.675L217.642 143.8L215.892 143.55L215.892 143.05L220.142 143.05L220.142 152.625C220.142 153.475 220.317 154.142 220.667 154.625C221.017 155.108 221.558 155.35 222.292 155.35C223.058 155.35 223.792 155.1 224.492 154.6C225.208 154.083 225.842 153.45 226.392 152.7L226.392 143.8L224.642 143.55L224.642 143.05L228.892 143.05L228.892 143.725C229.258 143.592 229.55 143.417 229.767 143.2C229.833 143.133 229.867 143.05 229.867 142.95C229.867 142.75 229.775 142.525 229.592 142.275C229.458 142.058 229.392 141.85 229.392 141.65C229.392 141.367 229.517 141.125 229.767 140.925C230.033 140.725 230.417 140.625 230.917 140.625ZM239.463 142.525C238.879 142.525 238.413 142.317 238.063 141.9C237.729 141.467 237.563 140.908 237.563 140.225C237.563 139.292 237.813 138.45 238.313 137.7C238.829 136.933 239.613 136.292 240.663 135.775L240.938 136.175C240.438 136.475 239.979 136.9 239.563 137.45C239.163 137.983 238.963 138.525 238.963 139.075C238.963 139.225 239.004 139.35 239.088 139.45C239.171 139.533 239.296 139.575 239.463 139.575C239.879 139.575 240.229 139.725 240.513 140.025C240.813 140.308 240.963 140.658 240.963 141.075C240.963 141.492 240.813 141.842 240.513 142.125C240.229 142.392 239.879 142.525 239.463 142.525ZM252.954 151.875C252.954 150.625 253.112 149.542 253.429 148.625C253.762 147.692 254.237 146.65 254.854 145.5C255.404 144.45 255.804 143.583 256.054 142.9C256.304 142.217 256.429 141.45 256.429 140.6C256.429 138.9 256.187 137.717 255.704 137.05C255.22 136.383 254.545 136.05 253.679 136.05C252.862 136.05 252.145 136.267 251.529 136.7C250.912 137.133 250.604 137.692 250.604 138.375C250.604 139.242 251.02 139.875 251.854 140.275C251.854 140.858 251.679 141.308 251.329 141.625C250.995 141.925 250.587 142.075 250.104 142.075C249.604 142.075 249.162 141.892 248.779 141.525C248.412 141.142 248.229 140.625 248.229 139.975C248.229 139.108 248.495 138.333 249.029 137.65C249.579 136.967 250.295 136.442 251.179 136.075C252.079 135.692 253.045 135.5 254.079 135.5C255.879 135.5 257.229 135.875 258.129 136.625C259.029 137.375 259.479 138.642 259.479 140.425C259.479 141.142 259.345 141.808 259.079 142.425C258.829 143.025 258.512 143.567 258.129 144.05C257.762 144.533 257.254 145.117 256.604 145.8C255.904 146.567 255.354 147.217 254.954 147.75C254.554 148.267 254.212 148.875 253.929 149.575C253.645 150.275 253.504 151.042 253.504 151.875L252.954 151.875ZM253.229 156.25C252.812 156.25 252.462 156.108 252.179 155.825C251.895 155.525 251.754 155.167 251.754 154.75C251.754 154.333 251.895 153.992 252.179 153.725C252.462 153.442 252.812 153.3 253.229 153.3C253.645 153.3 253.995 153.442 254.279 153.725C254.562 153.992 254.704 154.333 254.704 154.75C254.704 155.167 254.562 155.525 254.279 155.825C253.995 156.108 253.645 156.25 253.229 156.25ZM267.063 142.125C267.563 141.825 268.013 141.408 268.413 140.875C268.829 140.325 269.038 139.775 269.038 139.225C269.038 139.075 268.996 138.958 268.913 138.875C268.829 138.775 268.704 138.725 268.538 138.725C268.121 138.725 267.763 138.583 267.463 138.3C267.179 138 267.038 137.642 267.038 137.225C267.038 136.808 267.179 136.467 267.463 136.2C267.763 135.917 268.121 135.775 268.538 135.775C269.121 135.775 269.579 135.992 269.913 136.425C270.263 136.842 270.438 137.392 270.438 138.075C270.438 139.008 270.179 139.858 269.663 140.625C269.163 141.375 268.388 142.008 267.338 142.525L267.063 142.125ZM279.529 142.525C278.946 142.525 278.479 142.317 278.129 141.9C277.796 141.467 277.629 140.908 277.629 140.225C277.629 139.292 277.879 138.45 278.379 137.7C278.896 136.933 279.679 136.292 280.729 135.775L281.004 136.175C280.504 136.475 280.046 136.9 279.629 137.45C279.229 137.983 279.029 138.525 279.029 139.075C279.029 139.225 279.071 139.35 279.154 139.45C279.237 139.533 279.362 139.575 279.529 139.575C279.946 139.575 280.296 139.725 280.579 140.025C280.879 140.308 281.029 140.658 281.029 141.075C281.029 141.492 280.879 141.842 280.579 142.125C280.296 142.392 279.946 142.525 279.529 142.525ZM283.854 142.525C283.271 142.525 282.804 142.317 282.454 141.9C282.121 141.467 281.954 140.908 281.954 140.225C281.954 139.292 282.204 138.45 282.704 137.7C283.221 136.933 284.004 136.292 285.054 135.775L285.329 136.175C284.829 136.475 284.371 136.9 283.954 137.45C283.554 137.983 283.354 138.525 283.354 139.075C283.354 139.225 283.396 139.35 283.479 139.45C283.562 139.533 283.687 139.575 283.854 139.575C284.271 139.575 284.621 139.725 284.904 140.025C285.204 140.308 285.354 140.658 285.354 141.075C285.354 141.492 285.204 141.842 284.904 142.125C284.621 142.392 284.271 142.525 283.854 142.525ZM294.741 151.875C294.724 150.208 294.649 148.6 294.516 147.05C294.399 145.5 294.241 143.825 294.041 142.025C293.941 141.075 293.849 140.167 293.766 139.3C293.699 138.433 293.666 137.733 293.666 137.2C293.666 136.817 293.791 136.483 294.041 136.2C294.291 135.9 294.624 135.75 295.041 135.75C295.457 135.75 295.791 135.9 296.041 136.2C296.291 136.483 296.416 136.817 296.416 137.2C296.416 137.733 296.374 138.442 296.291 139.325C296.224 140.208 296.141 141.133 296.041 142.1C295.841 144.117 295.682 145.85 295.566 147.3C295.449 148.733 295.374 150.258 295.341 151.875L294.741 151.875ZM295.041 156.25C294.624 156.25 294.274 156.108 293.991 155.825C293.707 155.525 293.566 155.167 293.566 154.75C293.566 154.333 293.707 153.992 293.991 153.725C294.274 153.442 294.624 153.3 295.041 153.3C295.457 153.3 295.807 153.442 296.091 153.725C296.374 153.992 296.516 154.333 296.516 154.75C296.516 155.167 296.374 155.525 296.091 155.825C295.807 156.108 295.457 156.25 295.041 156.25ZM304.859 142.125C305.359 141.825 305.809 141.408 306.209 140.875C306.625 140.325 306.834 139.775 306.834 139.225C306.834 139.075 306.792 138.958 306.709 138.875C306.625 138.775 306.5 138.725 306.334 138.725C305.917 138.725 305.559 138.583 305.259 138.3C304.975 138 304.834 137.642 304.834 137.225C304.834 136.808 304.975 136.467 305.259 136.2C305.559 135.917 305.917 135.775 306.334 135.775C306.917 135.775 307.375 135.992 307.709 136.425C308.059 136.842 308.234 137.392 308.234 138.075C308.234 139.008 307.975 139.858 307.459 140.625C306.959 141.375 306.184 142.008 305.134 142.525L304.859 142.125ZM309.184 142.125C309.684 141.825 310.134 141.408 310.534 140.875C310.95 140.325 311.159 139.775 311.159 139.225C311.159 139.075 311.117 138.958 311.034 138.875C310.95 138.775 310.825 138.725 310.659 138.725C310.242 138.725 309.884 138.583 309.584 138.3C309.3 138 309.159 137.642 309.159 137.225C309.159 136.808 309.3 136.467 309.584 136.2C309.884 135.917 310.242 135.775 310.659 135.775C311.242 135.775 311.7 135.992 312.034 136.425C312.384 136.842 312.559 137.392 312.559 138.075C312.559 139.008 312.3 139.858 311.784 140.625C311.284 141.375 310.509 142.008 309.459 142.525L309.184 142.125ZM324.221 154.25L319.896 149.475L319.896 149.025L324.221 144.25L324.446 144.5L322.096 149.25L324.446 154.025L324.221 154.25ZM326.371 152.375L323.596 149.425L323.596 149.075L326.371 146.125L326.596 146.35L325.496 149.25L326.596 152.175L326.371 152.375ZM336.974 154.25L336.749 154.025L339.099 149.25L336.749 144.5L336.974 144.25L341.299 149.025L341.299 149.475L336.974 154.25ZM334.824 152.375L334.599 152.175L335.699 149.25L334.599 146.35L334.824 146.125L337.599 149.075L337.599 149.425L334.824 152.375ZM356.377 160.875C354.81 160.425 353.452 159.567 352.302 158.3C351.152 157.033 350.26 155.442 349.627 153.525C349.01 151.608 348.702 149.467 348.702 147.1C348.702 144.717 349.01 142.575 349.627 140.675C350.243 138.758 351.127 137.167 352.277 135.9C353.427 134.633 354.785 133.775 356.352 133.325L356.527 133.9C355.043 134.433 353.868 135.767 353.002 137.9C352.135 140.033 351.702 143.1 351.702 147.1C351.702 149.7 351.943 151.933 352.427 153.8C352.927 155.65 353.543 157.092 354.277 158.125C355.01 159.175 355.76 159.892 356.527 160.275L356.377 160.875ZM366.519 146.75C365.336 146.75 364.377 146.283 363.644 145.35C362.927 144.4 362.569 143.05 362.569 141.3C362.569 139.55 362.927 138.208 363.644 137.275C364.377 136.342 365.336 135.875 366.519 135.875C367.719 135.875 368.677 136.342 369.394 137.275C370.127 138.208 370.494 139.55 370.494 141.3C370.494 143.05 370.127 144.4 369.394 145.35C368.677 146.283 367.719 146.75 366.519 146.75ZM366.344 156L376.344 136L377.619 136L367.644 156L366.344 156ZM366.519 146.2C367.186 146.2 367.686 145.917 368.019 145.35C368.369 144.783 368.544 143.858 368.544 142.575L368.544 140.025C368.544 138.742 368.369 137.817 368.019 137.25C367.686 136.683 367.186 136.4 366.519 136.4C365.869 136.4 365.369 136.683 365.019 137.25C364.669 137.817 364.494 138.742 364.494 140.025L364.494 142.575C364.494 143.858 364.669 144.783 365.019 145.35C365.369 145.917 365.869 146.2 366.519 146.2ZM377.444 156.125C376.244 156.125 375.277 155.658 374.544 154.725C373.827 153.775 373.469 152.425 373.469 150.675C373.469 148.925 373.827 147.583 374.544 146.65C375.277 145.717 376.244 145.25 377.444 145.25C378.627 145.25 379.577 145.717 380.294 146.65C381.027 147.583 381.394 148.925 381.394 150.675C381.394 152.425 381.027 153.775 380.294 154.725C379.577 155.658 378.627 156.125 377.444 156.125ZM377.444 155.575C378.094 155.575 378.594 155.292 378.944 154.725C379.294 154.158 379.469 153.233 379.469 151.95L379.469 149.4C379.469 148.117 379.294 147.192 378.944 146.625C378.594 146.058 378.094 145.775 377.444 145.775C376.777 145.775 376.269 146.058 375.919 146.625C375.586 147.192 375.419 148.117 375.419 149.4L375.419 151.95C375.419 153.233 375.586 154.158 375.919 154.725C376.269 155.292 376.777 155.575 377.444 155.575ZM387.447 160.275C388.213 159.892 388.963 159.175 389.697 158.125C390.43 157.092 391.038 155.65 391.522 153.8C392.022 151.933 392.272 149.7 392.272 147.1C392.272 143.1 391.838 140.033 390.972 137.9C390.105 135.767 388.93 134.433 387.447 133.9L387.622 133.325C389.188 133.775 390.547 134.633 391.697 135.9C392.847 137.167 393.73 138.758 394.347 140.675C394.963 142.575 395.272 144.717 395.272 147.1C395.272 149.467 394.955 151.608 394.322 153.525C393.705 155.442 392.822 157.033 391.672 158.3C390.522 159.567 389.163 160.425 387.597 160.875L387.447 160.275ZM403.739 160.625L403.739 133.575L409.089 133.575L409.089 134.325L406.264 134.325L406.264 159.875L409.089 159.875L409.089 160.625L403.739 160.625ZM417.175 156L418.15 150.75L415.575 150.75L415.575 149.625L418.375 149.625L418.975 146.425L416.4 146.425L416.4 145.3L419.175 145.3L420.525 138.125L421.675 138.125L420.3 145.3L424.175 145.3L425.525 138.125L426.675 138.125L425.3 145.3L428.2 145.3L428.2 146.425L425.1 146.425L424.5 149.625L427.375 149.625L427.375 150.75L424.275 150.75L423.3 156L422.175 156L423.15 150.75L419.275 150.75L418.3 156L417.175 156ZM419.5 149.625L423.375 149.625L423.975 146.425L420.1 146.425L419.5 149.625ZM434.799 160.625L434.799 159.875L437.624 159.875L437.624 134.325L434.799 134.325L434.799 133.575L440.149 133.575L440.149 160.625L434.799 160.625ZM454.91 160.85C453.426 160.85 452.301 160.558 451.535 159.975C450.768 159.408 450.385 158.467 450.385 157.15C450.385 156.467 450.476 155.425 450.66 154.025C450.826 152.558 450.91 151.583 450.91 151.1C450.91 149.983 450.685 149.075 450.235 148.375C449.785 147.658 449.026 147.3 447.96 147.3L447.96 146.875C449.026 146.875 449.785 146.525 450.235 145.825C450.685 145.108 450.91 144.192 450.91 143.075C450.91 142.592 450.826 141.617 450.66 140.15C450.476 138.75 450.385 137.7 450.385 137C450.385 135.683 450.768 134.742 451.535 134.175C452.301 133.608 453.426 133.325 454.91 133.325L454.91 133.775C454.143 133.775 453.601 133.992 453.285 134.425C452.968 134.842 452.81 135.558 452.81 136.575C452.81 137.042 452.893 138.092 453.06 139.725C453.093 140.042 453.135 140.542 453.185 141.225C453.251 141.908 453.285 142.408 453.285 142.725C453.285 143.875 452.968 144.833 452.335 145.6C451.701 146.35 450.801 146.85 449.635 147.1C450.801 147.333 451.701 147.833 452.335 148.6C452.968 149.35 453.285 150.3 453.285 151.45C453.285 151.783 453.251 152.3 453.185 153C453.118 153.683 453.076 154.167 453.06 154.45C452.893 156.083 452.81 157.125 452.81 157.575C452.81 158.592 452.968 159.308 453.285 159.725C453.601 160.158 454.143 160.375 454.91 160.375L454.91 160.85ZM472.395 156.25C470.495 156.25 468.754 155.8 467.17 154.9C465.604 154 464.37 152.767 463.47 151.2C462.57 149.633 462.12 147.9 462.12 146C462.12 144.1 462.57 142.367 463.471 140.8C464.371 139.233 465.604 138 467.171 137.1C468.754 136.2 470.496 135.75 472.396 135.75C474.346 135.75 476.037 136.108 477.471 136.825C478.921 137.542 480.029 138.558 480.796 139.875C481.579 141.175 481.971 142.683 481.971 144.4C481.971 145.733 481.721 146.933 481.221 148C480.721 149.067 480.029 149.9 479.145 150.5C478.279 151.1 477.312 151.4 476.245 151.4C475.596 151.4 475.012 151.283 474.496 151.05C473.979 150.817 473.595 150.45 473.346 149.95C472.946 150.367 472.454 150.708 471.871 150.975C471.287 151.242 470.695 151.375 470.096 151.375C468.746 151.375 467.72 150.967 467.02 150.15C466.32 149.317 465.97 148.267 465.97 147C465.97 145.667 466.279 144.467 466.895 143.4C467.529 142.317 468.337 141.475 469.321 140.875C470.321 140.258 471.346 139.95 472.396 139.95C473.079 139.95 473.687 140.108 474.221 140.425C474.771 140.725 475.179 141.117 475.446 141.6L475.846 140.375L477.896 140.375L475.521 148.7C475.421 149.067 475.371 149.375 475.371 149.625C475.371 149.975 475.479 150.233 475.695 150.4C475.912 150.55 476.262 150.625 476.746 150.625C477.546 150.625 478.287 150.342 478.971 149.775C479.671 149.192 480.221 148.425 480.621 147.475C481.021 146.508 481.221 145.483 481.221 144.4C481.221 142.783 480.854 141.375 480.121 140.175C479.404 138.975 478.379 138.05 477.046 137.4C475.712 136.75 474.162 136.425 472.396 136.425C470.629 136.425 469.012 136.85 467.546 137.7C466.096 138.533 464.946 139.683 464.095 141.15C463.262 142.617 462.845 144.233 462.845 146C462.845 147.767 463.262 149.375 464.095 150.825C464.945 152.275 466.095 153.417 467.545 154.25C469.012 155.083 470.629 155.5 472.396 155.5C473.645 155.5 474.712 155.375 475.596 155.125C476.495 154.875 477.437 154.475 478.421 153.925L478.77 154.575C477.72 155.158 476.712 155.583 475.746 155.85C474.779 156.117 473.662 156.25 472.395 156.25ZM470.47 150.475C471.57 150.475 472.487 149.975 473.221 148.975L475.171 142.45C474.637 141.3 473.787 140.725 472.621 140.725C471.821 140.725 471.087 141.083 470.421 141.8C469.77 142.5 469.262 143.4 468.896 144.5C468.529 145.6 468.345 146.717 468.345 147.85C468.345 148.633 468.52 149.267 468.87 149.75C469.22 150.233 469.754 150.475 470.47 150.475ZM488.788 160.375C489.555 160.375 490.097 160.158 490.413 159.725C490.73 159.308 490.888 158.592 490.888 157.575C490.888 157.125 490.805 156.083 490.638 154.45C490.622 154.167 490.58 153.683 490.513 153C490.447 152.3 490.413 151.783 490.413 151.45C490.413 150.3 490.73 149.35 491.363 148.6C491.997 147.833 492.897 147.333 494.063 147.1C492.897 146.85 491.997 146.35 491.363 145.6C490.73 144.833 490.413 143.875 490.413 142.725C490.413 142.408 490.438 141.908 490.488 141.225C490.555 140.542 490.605 140.042 490.638 139.725C490.805 138.092 490.888 137.042 490.888 136.575C490.888 135.558 490.73 134.842 490.413 134.425C490.097 133.992 489.555 133.775 488.788 133.775L488.788 133.325C490.272 133.325 491.397 133.608 492.163 134.175C492.93 134.742 493.313 135.683 493.313 137C493.313 137.7 493.222 138.75 493.038 140.15C492.872 141.617 492.788 142.592 492.788 143.075C492.788 144.192 493.013 145.108 493.463 145.825C493.913 146.525 494.672 146.875 495.738 146.875L495.738 147.3C494.672 147.3 493.913 147.658 493.463 148.375C493.013 149.075 492.788 149.983 492.788 151.1C492.788 151.583 492.872 152.558 493.038 154.025C493.222 155.425 493.313 156.467 493.313 157.15C493.313 158.467 492.93 159.408 492.163 159.975C491.397 160.558 490.272 160.85 488.788 160.85L488.788 160.375ZM502.174 156L509.949 138.5L511.224 138.5L503.474 156L502.174 156ZM526.96 156.5C524.26 156.5 522.243 155.967 520.91 154.9C519.593 153.817 518.935 152.367 518.935 150.55C518.935 148.8 519.568 147.45 520.835 146.5C522.118 145.533 523.793 145 525.86 144.9L525.86 144.825C523.793 144.558 522.26 144.067 521.26 143.35C520.277 142.617 519.785 141.458 519.785 139.875C519.785 138.475 520.343 137.4 521.46 136.65C522.593 135.883 524.168 135.5 526.185 135.5C527.535 135.5 528.66 135.825 529.56 136.475C530.477 137.125 530.935 137.992 530.935 139.075C530.935 139.625 530.777 140.058 530.46 140.375C530.16 140.675 529.81 140.825 529.41 140.825C528.993 140.825 528.643 140.7 528.36 140.45C528.077 140.2 527.935 139.833 527.935 139.35C528.635 139.033 528.985 138.508 528.985 137.775C528.985 137.258 528.76 136.85 528.31 136.55C527.86 136.233 527.243 136.075 526.46 136.075C525.327 136.075 524.418 136.408 523.735 137.075C523.068 137.742 522.735 138.633 522.735 139.75C522.735 141.35 523.202 142.533 524.135 143.3C525.085 144.05 526.468 144.475 528.285 144.575L528.285 145.125C526.318 145.242 524.835 145.758 523.835 146.675C522.852 147.592 522.36 148.883 522.36 150.55C522.36 151.667 522.568 152.633 522.985 153.45C523.418 154.25 523.993 154.867 524.71 155.3C525.443 155.717 526.26 155.925 527.16 155.925C528.51 155.925 529.61 155.517 530.46 154.7C531.31 153.867 531.735 152.675 531.735 151.125C531.735 150.508 531.643 149.85 531.46 149.15L530.485 149C529.735 148.85 529.143 148.775 528.71 148.775C527.993 148.775 527.393 148.883 526.91 149.1C526.443 149.317 526.21 149.667 526.21 150.15C526.21 150.383 526.285 150.558 526.435 150.675C526.585 150.792 526.777 150.85 527.01 150.85C527.227 150.85 527.443 150.792 527.66 150.675C527.877 150.558 528.035 150.392 528.135 150.175C528.535 150.275 528.835 150.45 529.035 150.7C529.252 150.933 529.36 151.217 529.36 151.55C529.36 151.95 529.21 152.3 528.91 152.6C528.627 152.9 528.268 153.05 527.835 153.05C527.202 153.05 526.677 152.775 526.26 152.225C525.843 151.675 525.635 151 525.635 150.2C525.635 149.55 525.793 148.95 526.11 148.4C526.427 147.85 526.885 147.417 527.485 147.1C528.102 146.767 528.818 146.6 529.635 146.6C530.435 146.6 531.368 146.683 532.435 146.85C533.268 147 533.968 147.075 534.535 147.075C535.318 147.075 535.943 146.958 536.41 146.725C536.893 146.475 537.135 146.133 537.135 145.7C537.135 145.467 537.06 145.292 536.91 145.175C536.777 145.042 536.593 144.975 536.36 144.975C536.127 144.975 535.902 145.033 535.685 145.15C535.485 145.267 535.335 145.442 535.235 145.675C534.818 145.575 534.51 145.408 534.31 145.175C534.11 144.925 534.01 144.633 534.01 144.3C534.01 143.9 534.152 143.55 534.435 143.25C534.735 142.95 535.102 142.8 535.535 142.8C536.168 142.8 536.677 143.05 537.06 143.55C537.46 144.033 537.66 144.658 537.66 145.425C537.66 148.042 536.41 149.35 533.91 149.35C533.193 149.35 532.602 149.317 532.135 149.25C532.268 149.917 532.335 150.525 532.335 151.075C532.335 152.792 531.852 154.125 530.885 155.075C529.918 156.025 528.61 156.5 526.96 156.5ZM552.217 156L544.467 138.5L545.742 138.5L553.517 156L552.217 156ZM570.178 152.525L560.453 147.325L560.453 146.825L570.178 141.575L570.178 142.525L561.803 147.075L570.178 151.575L570.178 152.525ZM578.783 149.575L578.783 148.75L584.258 148.75L584.258 149.575L578.783 149.575ZM7.12499 197.825L7.12499 192.55L1.87499 192.55L1.87499 191.6L7.12499 191.6L7.12499 186.35L8.07499 186.35L8.07499 191.6L13.35 191.6L13.35 192.55L8.07499 192.55L8.07499 197.825L7.12499 197.825ZM26.9824 189.425C26.6157 189.425 26.2991 189.292 26.0324 189.025C25.7657 188.742 25.6324 188.417 25.6324 188.05C25.6324 187.683 25.7657 187.375 26.0324 187.125C26.2991 186.858 26.6157 186.725 26.9824 186.725C27.3491 186.725 27.6657 186.858 27.9324 187.125C28.1991 187.375 28.3324 187.683 28.3324 188.05C28.3324 188.417 28.1991 188.742 27.9324 189.025C27.6657 189.292 27.3491 189.425 26.9824 189.425ZM21.3574 192.55L21.3574 191.6L32.5824 191.6L32.5824 192.55L21.3574 192.55ZM26.9824 197.425C26.6157 197.425 26.2991 197.292 26.0324 197.025C25.7657 196.758 25.6324 196.442 25.6324 196.075C25.6324 195.708 25.7657 195.4 26.0324 195.15C26.2991 194.883 26.6157 194.75 26.9824 194.75C27.3657 194.75 27.6824 194.883 27.9324 195.15C28.1991 195.4 28.3324 195.708 28.3324 196.075C28.3324 196.442 28.1991 196.758 27.9324 197.025C27.6657 197.292 27.3491 197.425 26.9824 197.425ZM49.8482 196.75L45.8732 192.75L41.8982 196.725L41.2232 196.05L45.1732 192.1L41.2232 188.125L41.8982 187.45L45.8482 191.425L49.8482 187.425L50.5232 188.1L46.5232 192.1L50.5232 196.075L49.8482 196.75ZM59.2262 190.475L59.2262 189.525L70.7012 189.525L70.7012 190.475L59.2262 190.475ZM59.2262 194.625L59.2262 193.675L70.7012 193.675L70.7012 194.625L59.2262 194.625ZM79.5844 197.525L79.5844 196.575L87.9594 192.075L79.5844 187.525L79.5844 186.575L89.3094 191.825L89.3094 192.325L79.5844 197.525ZM106.915 201.25C105.065 201.25 103.348 200.792 101.765 199.875C100.198 198.958 98.9563 197.717 98.0396 196.15C97.123 194.583 96.6646 192.875 96.6646 191.025C96.6646 189.175 97.123 187.467 98.0396 185.9C98.973 184.317 100.223 183.067 101.79 182.15C103.356 181.217 105.065 180.75 106.915 180.75C108.765 180.75 110.473 181.217 112.04 182.15C113.606 183.067 114.848 184.317 115.765 185.9C116.698 187.467 117.165 189.175 117.165 191.025C117.165 192.875 116.706 194.583 115.79 196.15C114.873 197.717 113.623 198.958 112.04 199.875C110.473 200.792 108.765 201.25 106.915 201.25ZM106.915 200.325C108.615 200.325 110.173 199.917 111.59 199.1C113.006 198.267 114.123 197.142 114.94 195.725C115.773 194.292 116.19 192.725 116.19 191.025C116.19 189.325 115.773 187.767 114.94 186.35C114.123 184.917 113.006 183.792 111.59 182.975C110.173 182.142 108.615 181.725 106.915 181.725C105.215 181.725 103.648 182.142 102.215 182.975C100.798 183.792 99.673 184.917 98.8396 186.35C98.023 187.767 97.6146 189.325 97.6146 191.025C97.6146 192.725 98.023 194.292 98.8396 195.725C99.673 197.142 100.798 198.267 102.215 199.1C103.648 199.917 105.215 200.325 106.915 200.325ZM111.04 197.6C110.423 197.6 109.931 197.45 109.565 197.15C109.215 196.85 108.99 196.367 108.89 195.7L108.565 193.55C108.465 192.85 108.231 192.317 107.865 191.95C107.515 191.567 106.923 191.375 106.09 191.375L105.09 191.375L105.09 196.625L106.565 196.85L106.565 197.45L101.54 197.45L101.54 196.85L103.04 196.625L103.04 185.475L101.54 185.25L101.54 184.65L107.015 184.65C108.781 184.65 110.048 184.925 110.815 185.475C111.598 186.008 111.99 186.833 111.99 187.95C111.99 189.783 110.648 190.842 107.965 191.125L107.965 191.225C109.681 191.458 110.673 192.408 110.94 194.075L111.165 195.45C111.215 195.867 111.281 196.167 111.365 196.35C111.448 196.533 111.598 196.625 111.815 196.625C112.131 196.625 112.465 196.467 112.815 196.15L113.24 196.625C112.64 197.275 111.906 197.6 111.04 197.6ZM106.64 190.725C108.69 190.725 109.715 189.825 109.715 188.025L109.715 187.7C109.715 186.1 108.69 185.3 106.64 185.3L105.09 185.3L105.09 190.725L106.64 190.725ZM135.212 201.25C133.362 201.25 131.645 200.792 130.062 199.875C128.495 198.958 127.253 197.717 126.337 196.15C125.42 194.583 124.962 192.875 124.962 191.025C124.962 189.175 125.42 187.467 126.337 185.9C127.27 184.317 128.52 183.067 130.087 182.15C131.653 181.217 133.362 180.75 135.212 180.75C137.062 180.75 138.77 181.217 140.337 182.15C141.903 183.067 143.145 184.317 144.062 185.9C144.995 187.467 145.462 189.175 145.462 191.025C145.462 192.875 145.003 194.583 144.087 196.15C143.17 197.717 141.92 198.958 140.337 199.875C138.77 200.792 137.062 201.25 135.212 201.25ZM135.212 200.325C136.912 200.325 138.47 199.917 139.887 199.1C141.303 198.267 142.42 197.142 143.237 195.725C144.07 194.292 144.487 192.725 144.487 191.025C144.487 189.325 144.07 187.767 143.237 186.35C142.42 184.917 141.303 183.792 139.887 182.975C138.47 182.142 136.912 181.725 135.212 181.725C133.512 181.725 131.945 182.142 130.512 182.975C129.095 183.792 127.97 184.917 127.137 186.35C126.32 187.767 125.912 189.325 125.912 191.025C125.912 192.725 126.32 194.292 127.137 195.725C127.97 197.142 129.095 198.267 130.512 199.1C131.945 199.917 133.512 200.325 135.212 200.325ZM135.237 197.55C134.07 197.55 133.037 197.275 132.137 196.725C131.237 196.175 130.537 195.408 130.037 194.425C129.553 193.425 129.312 192.283 129.312 191C129.312 189.717 129.553 188.583 130.037 187.6C130.537 186.6 131.237 185.825 132.137 185.275C133.037 184.725 134.07 184.45 135.237 184.45C136.17 184.45 137.062 184.758 137.912 185.375L138.987 184.45L139.462 184.45L139.462 188.4L138.987 188.4L138.012 186.3C137.645 185.933 137.212 185.658 136.712 185.475C136.228 185.275 135.737 185.175 135.237 185.175C134.103 185.175 133.228 185.533 132.612 186.25C132.012 186.967 131.712 188.067 131.712 189.55L131.712 192.475C131.712 193.942 132.012 195.033 132.612 195.75C133.228 196.467 134.103 196.825 135.237 196.825C135.77 196.825 136.312 196.7 136.862 196.45C137.412 196.2 137.87 195.875 138.237 195.475L139.137 193.275L139.612 193.275L139.612 197.4L139.137 197.4L137.987 196.575C137.603 196.875 137.162 197.117 136.662 197.3C136.178 197.467 135.703 197.55 135.237 197.55ZM167.208 195.575C167.208 197.258 166.733 198.617 165.783 199.65C164.833 200.667 163.542 201.267 161.908 201.45L161.908 203.6L161.283 203.6L161.283 201.5L160.908 201.5C160.408 201.5 159.908 201.45 159.408 201.35L159.408 203.6L158.783 203.6L158.783 201.2C157.95 200.983 157.133 200.642 156.333 200.175L154.208 201.25L153.658 201.25L153.658 194.825L154.208 194.825L156.358 199.475C157.058 199.992 157.867 200.383 158.783 200.65L158.783 191.8L158.108 191.625C156.658 191.242 155.567 190.592 154.833 189.675C154.1 188.742 153.733 187.642 153.733 186.375C153.733 184.758 154.175 183.425 155.058 182.375C155.958 181.325 157.2 180.717 158.783 180.55L158.783 178.6L159.408 178.6L159.408 180.5L159.583 180.5C160.25 180.5 160.817 180.542 161.283 180.625L161.283 178.6L161.908 178.6L161.908 180.725C162.525 180.858 163.108 181.042 163.658 181.275L165.483 180.5L166.033 180.5L166.033 185.6L165.483 185.6L163.683 181.95C163.05 181.65 162.458 181.442 161.908 181.325L161.908 189.35L162.908 189.625C164.358 189.992 165.433 190.625 166.133 191.525C166.85 192.408 167.208 193.758 167.208 195.575ZM159.408 181.05L159.408 188.7L161.283 189.2L161.283 181.2C160.733 181.1 160.175 181.05 159.608 181.05L159.408 181.05ZM158.783 188.55L158.783 181.1C157.567 181.233 156.617 181.667 155.933 182.4C155.267 183.117 154.933 184.017 154.933 185.1C154.933 186 155.225 186.708 155.808 187.225C156.408 187.742 157.283 188.15 158.433 188.45L158.783 188.55ZM161.283 200.95L161.283 192.45L159.408 191.95L159.408 200.8C159.958 200.9 160.525 200.95 161.108 200.95L161.283 200.95ZM161.908 200.9C163.175 200.767 164.2 200.325 164.983 199.575C165.783 198.808 166.183 197.792 166.183 196.525C166.183 195.508 165.875 194.708 165.258 194.125C164.642 193.525 163.642 193.05 162.258 192.7L161.908 192.6L161.908 200.9ZM190.616 194.825L190.616 201.25L190.091 201.25L188.291 199.975C187.691 200.458 187.008 200.833 186.241 201.1C185.475 201.367 184.716 201.5 183.966 201.5C182.316 201.5 180.85 201.133 179.566 200.4C178.283 199.667 177.241 198.633 176.441 197.3C175.658 195.95 175.175 194.392 174.991 192.625L173.441 192.625L173.441 192L174.941 192C174.925 191.783 174.916 191.45 174.916 191C174.916 190.6 174.925 190.308 174.941 190.125L173.441 190.125L173.441 189.5L174.991 189.5C175.175 187.7 175.666 186.125 176.466 184.775C177.266 183.408 178.316 182.358 179.616 181.625C180.933 180.875 182.425 180.5 184.091 180.5C184.808 180.5 185.533 180.625 186.266 180.875C187.016 181.125 187.691 181.475 188.291 181.925L189.966 180.5L190.491 180.5L190.491 186.7L189.966 186.7L188.416 182.825C187.833 182.292 187.15 181.867 186.366 181.55C185.6 181.233 184.841 181.075 184.091 181.075C182.925 181.075 181.891 181.375 180.991 181.975C180.108 182.575 179.416 183.45 178.916 184.6C178.416 185.75 178.166 187.117 178.166 188.7L178.166 189.5L186.591 189.5L186.266 190.125L178.166 190.125L178.166 192L185.591 192L185.291 192.625L178.166 192.625L178.166 193.275C178.166 194.858 178.408 196.225 178.891 197.375C179.375 198.525 180.05 199.408 180.916 200.025C181.783 200.625 182.8 200.925 183.966 200.925C184.816 200.925 185.666 200.742 186.516 200.375C187.366 199.992 188.075 199.483 188.641 198.85L190.091 194.825L190.616 194.825ZM210.995 194.175L211.67 194.175L211.67 201L199.095 201L199.095 199.075C199.095 199.125 199.404 198.867 200.02 198.3C200.637 197.717 201.212 197.008 201.745 196.175C202.295 195.325 202.629 194.392 202.745 193.375L199.095 193.375L199.095 192.75L202.77 192.75C202.77 192.117 202.629 191.492 202.345 190.875L199.095 190.875L199.095 190.25L202.02 190.25C201.82 189.95 201.52 189.55 201.12 189.05C200.52 188.317 200.07 187.658 199.77 187.075C199.47 186.475 199.32 185.75 199.32 184.9C199.32 184.117 199.545 183.392 199.995 182.725C200.445 182.058 201.145 181.525 202.095 181.125C203.045 180.708 204.212 180.5 205.595 180.5C206.662 180.5 207.662 180.7 208.595 181.1C209.529 181.483 210.279 182.033 210.845 182.75C211.412 183.45 211.695 184.25 211.695 185.15C211.695 185.833 211.504 186.375 211.12 186.775C210.737 187.158 210.279 187.35 209.745 187.35C209.245 187.35 208.812 187.192 208.445 186.875C208.095 186.558 207.92 186.1 207.92 185.5C208.787 185.083 209.22 184.425 209.22 183.525C209.22 182.792 208.895 182.2 208.245 181.75C207.612 181.3 206.87 181.075 206.02 181.075C204.97 181.075 204.12 181.383 203.47 182C202.837 182.6 202.52 183.425 202.52 184.475C202.52 185.192 202.595 185.833 202.745 186.4C202.895 186.95 203.129 187.625 203.445 188.425C203.745 189.142 203.962 189.75 204.095 190.25L207.995 190.25L207.995 190.875L204.22 190.875C204.287 191.375 204.32 191.783 204.32 192.1C204.32 192.4 204.312 192.617 204.295 192.75L207.995 192.75L207.995 193.375L204.195 193.375C204.012 194.325 203.67 195.158 203.17 195.875C202.687 196.592 202.179 197.175 201.645 197.625C201.112 198.058 200.845 198.25 200.845 198.2L209.47 198.2L210.995 194.175ZM230.038 181L235.638 181L235.638 181.55L233.713 182.775L228.538 191.65L232.663 191.65L232.663 192.275L228.513 192.275L228.513 194.15L232.663 194.15L232.663 194.775L228.513 194.775L228.513 200.1L230.838 200.475L230.838 201L223.488 201L223.488 200.475L225.813 200.1L225.813 194.775L221.763 194.775L221.763 194.15L225.813 194.15L225.813 192.5L225.688 192.275L221.763 192.275L221.763 191.65L225.338 191.65L219.738 181.9L217.763 181.55L217.763 181L225.288 181L225.288 181.55L222.963 181.9L228.213 190.975L233.038 182.75L230.038 181.55L230.038 181ZM245.967 200.7C247.067 200.667 248.017 200.333 248.817 199.7C249.617 199.05 250.117 198.217 250.317 197.2L250.892 197.2C250.659 198.417 250.101 199.392 249.217 200.125C248.334 200.842 247.251 201.217 245.967 201.25L245.967 204.575L245.342 204.575L245.342 201.225C244.209 201.158 243.184 200.842 242.267 200.275C241.351 199.692 240.626 198.908 240.092 197.925C239.576 196.925 239.317 195.792 239.317 194.525C239.317 193.208 239.592 192.058 240.142 191.075C240.709 190.092 241.451 189.325 242.367 188.775C243.284 188.225 244.276 187.917 245.342 187.85L245.342 184.45L245.967 184.45L245.967 187.825C246.901 187.842 247.742 188.025 248.492 188.375C249.259 188.708 249.859 189.158 250.292 189.725C250.726 190.292 250.942 190.933 250.942 191.65C250.942 192.2 250.801 192.625 250.517 192.925C250.234 193.208 249.859 193.35 249.392 193.35C248.942 193.35 248.567 193.2 248.267 192.9C247.967 192.6 247.817 192.225 247.817 191.775C248.067 191.608 248.242 191.425 248.342 191.225C248.442 191.025 248.492 190.775 248.492 190.475C248.492 189.875 248.259 189.383 247.792 189C247.342 188.617 246.734 188.408 245.967 188.375L245.967 200.7ZM242.067 195.775C242.067 197.158 242.342 198.292 242.892 199.175C243.442 200.058 244.259 200.558 245.342 200.675L245.342 188.4C244.292 188.517 243.484 189 242.917 189.85C242.351 190.683 242.067 191.825 242.067 193.275L242.067 195.775ZM260.24 192.475C259.824 192.475 259.465 192.333 259.165 192.05C258.882 191.75 258.74 191.392 258.74 190.975C258.74 190.558 258.882 190.217 259.165 189.95C259.465 189.667 259.824 189.525 260.24 189.525C260.657 189.525 261.007 189.667 261.29 189.95C261.574 190.217 261.715 190.558 261.715 190.975C261.715 191.392 261.574 191.75 261.29 192.05C261.007 192.333 260.657 192.475 260.24 192.475ZM260.24 201.25C259.824 201.25 259.465 201.108 259.165 200.825C258.882 200.525 258.74 200.167 258.74 199.75C258.74 199.333 258.882 198.992 259.165 198.725C259.465 198.442 259.824 198.3 260.24 198.3C260.657 198.3 261.007 198.442 261.29 198.725C261.574 198.992 261.715 199.333 261.715 199.75C261.715 200.167 261.574 200.525 261.29 200.825C261.007 201.108 260.657 201.25 260.24 201.25ZM271.866 192.475C271.449 192.475 271.091 192.333 270.791 192.05C270.507 191.75 270.366 191.392 270.366 190.975C270.366 190.558 270.507 190.217 270.791 189.95C271.091 189.667 271.449 189.525 271.866 189.525C272.282 189.525 272.632 189.667 272.916 189.95C273.199 190.217 273.341 190.558 273.341 190.975C273.341 191.392 273.199 191.75 272.916 192.05C272.632 192.333 272.282 192.475 271.866 192.475ZM270.391 204.65C270.891 204.35 271.341 203.925 271.741 203.375C272.157 202.842 272.366 202.3 272.366 201.75C272.366 201.6 272.324 201.475 272.241 201.375C272.157 201.292 272.032 201.25 271.866 201.25C271.449 201.25 271.091 201.108 270.791 200.825C270.507 200.525 270.366 200.167 270.366 199.75C270.366 199.333 270.507 198.992 270.791 198.725C271.091 198.442 271.449 198.3 271.866 198.3C272.449 198.3 272.907 198.517 273.241 198.95C273.591 199.367 273.766 199.917 273.766 200.6C273.766 201.533 273.507 202.375 272.991 203.125C272.491 203.892 271.716 204.533 270.666 205.05L270.391 204.65ZM281.976 204.65C282.476 204.35 282.926 203.925 283.326 203.375C283.743 202.842 283.951 202.3 283.951 201.75C283.951 201.6 283.909 201.475 283.826 201.375C283.743 201.292 283.618 201.25 283.451 201.25C283.034 201.25 282.676 201.108 282.376 200.825C282.093 200.525 281.951 200.167 281.951 199.75C281.951 199.333 282.093 198.992 282.376 198.725C282.676 198.442 283.034 198.3 283.451 198.3C284.034 198.3 284.493 198.517 284.826 198.95C285.176 199.367 285.351 199.917 285.351 200.6C285.351 201.533 285.093 202.375 284.576 203.125C284.076 203.892 283.301 204.533 282.251 205.05L281.976 204.65ZM294.512 201.25C294.095 201.25 293.737 201.108 293.437 200.825C293.153 200.525 293.012 200.167 293.012 199.75C293.012 199.333 293.153 198.992 293.437 198.725C293.737 198.442 294.095 198.3 294.512 198.3C294.928 198.3 295.278 198.442 295.562 198.725C295.845 198.992 295.987 199.333 295.987 199.75C295.987 200.167 295.845 200.525 295.562 200.825C295.278 201.108 294.928 201.25 294.512 201.25ZM308.205 191.675C308.005 191.658 307.839 191.592 307.705 191.475C307.589 191.342 307.53 191.175 307.53 190.975C307.53 190.875 307.555 190.642 307.605 190.275C307.672 189.892 307.722 189.575 307.755 189.325C307.939 188.008 308.03 187.3 308.03 187.2C307.88 187.283 307.339 187.7 306.405 188.45C305.539 189.133 305.08 189.492 305.03 189.525C304.914 189.592 304.789 189.625 304.655 189.625C304.455 189.625 304.289 189.567 304.155 189.45C304.039 189.317 303.98 189.15 303.98 188.95C303.98 188.7 304.105 188.508 304.355 188.375C304.489 188.292 305.072 188.042 306.105 187.625C307.089 187.242 307.672 187 307.855 186.9C307.755 186.833 307.489 186.717 307.055 186.55C306.639 186.383 306.322 186.258 306.105 186.175C305.072 185.775 304.48 185.533 304.33 185.45C304.08 185.317 303.955 185.117 303.955 184.85C303.955 184.667 304.022 184.517 304.155 184.4C304.289 184.267 304.447 184.2 304.63 184.2C304.764 184.2 304.889 184.233 305.005 184.3C305.155 184.383 305.664 184.775 306.53 185.475C307.397 186.158 307.897 186.542 308.03 186.625C308.03 186.325 307.939 185.675 307.755 184.675C307.589 183.608 307.505 182.992 307.505 182.825C307.505 182.625 307.564 182.458 307.68 182.325C307.814 182.192 307.98 182.125 308.18 182.125C308.38 182.125 308.539 182.192 308.655 182.325C308.789 182.458 308.855 182.625 308.855 182.825C308.855 182.992 308.772 183.608 308.605 184.675C308.439 185.775 308.355 186.425 308.355 186.625C308.572 186.508 309.047 186.142 309.78 185.525C309.947 185.392 310.222 185.175 310.605 184.875C311.005 184.558 311.272 184.367 311.405 184.3C311.539 184.217 311.664 184.175 311.78 184.175C311.997 184.175 312.18 184.292 312.33 184.525C312.397 184.658 312.43 184.767 312.43 184.85C312.43 185.117 312.305 185.317 312.055 185.45C311.955 185.517 311.372 185.758 310.305 186.175C310.122 186.242 309.805 186.358 309.355 186.525C308.922 186.692 308.647 186.817 308.53 186.9C308.63 186.967 309.214 187.208 310.28 187.625C311.28 188.008 311.864 188.258 312.03 188.375C312.28 188.508 312.405 188.7 312.405 188.95C312.405 189.067 312.372 189.183 312.305 189.3C312.189 189.517 312.005 189.625 311.755 189.625C311.622 189.625 311.497 189.592 311.38 189.525C311.264 189.458 310.789 189.092 309.955 188.425C309.039 187.675 308.505 187.267 308.355 187.2C308.355 187.467 308.447 188.092 308.63 189.075C308.797 190.175 308.88 190.808 308.88 190.975C308.88 191.175 308.814 191.342 308.68 191.475C308.564 191.608 308.405 191.675 308.205 191.675ZM2.37499 246L2.37499 245.5L4.12499 245.25L4.12499 226.75L2.37499 226.5L2.37499 226L6.62499 226L6.62499 245.25L8.37499 245.5L8.37499 246L2.37499 246ZM15.8182 244.075L21.0932 238.7C22.4765 237.267 23.5265 235.875 24.2432 234.525C24.9765 233.158 25.3432 231.75 25.3432 230.3C25.3432 228.833 25.0265 227.767 24.3932 227.1C23.7765 226.417 22.9348 226.075 21.8682 226.075C21.0348 226.075 20.3098 226.3 19.6932 226.75C19.0765 227.2 18.7682 227.792 18.7682 228.525C18.7682 229.408 19.2098 230.067 20.0932 230.5C20.0932 231.1 19.9098 231.558 19.5432 231.875C19.1765 232.192 18.7432 232.35 18.2432 232.35C17.7098 232.35 17.2515 232.158 16.8682 231.775C16.4848 231.375 16.2932 230.833 16.2932 230.15C16.2932 229.25 16.5682 228.45 17.1182 227.75C17.6682 227.033 18.4015 226.483 19.3182 226.1C20.2348 225.7 21.2182 225.5 22.2682 225.5C24.3015 225.5 25.8098 225.983 26.7932 226.95C27.7765 227.9 28.2682 229.158 28.2682 230.725C28.2682 231.675 28.0682 232.55 27.6682 233.35C27.2848 234.133 26.8182 234.817 26.2682 235.4C25.7348 235.983 25.0015 236.683 24.0682 237.5L23.3682 238.1L17.3932 243.375L26.7182 243.375L27.7432 239.675L28.3932 239.675L28.3932 246L15.8182 246L15.8182 244.075ZM42.1252 246.5C41.0918 246.5 40.1418 246.3 39.2752 245.9C38.4252 245.5 37.7502 244.958 37.2502 244.275C36.7502 243.592 36.5002 242.825 36.5002 241.975C36.5002 241.292 36.6918 240.758 37.0752 240.375C37.4585 239.975 37.9168 239.775 38.4502 239.775C38.9502 239.775 39.3835 239.933 39.7502 240.25C40.1168 240.567 40.3002 241.025 40.3002 241.625C39.4168 242.058 38.9752 242.725 38.9752 243.625C38.9752 244.308 39.2585 244.867 39.8252 245.3C40.4085 245.717 41.1752 245.925 42.1252 245.925C43.3252 245.925 44.3002 245.475 45.0502 244.575C45.8002 243.675 46.1752 242.417 46.1752 240.8C46.1752 239.05 45.6752 237.7 44.6752 236.75C43.6752 235.783 42.2002 235.242 40.2502 235.125L40.2502 234.575C42.0002 234.475 43.3585 234.008 44.3252 233.175C45.3085 232.325 45.8002 231.183 45.8002 229.75C45.8002 228.633 45.4919 227.742 44.8752 227.075C44.2752 226.408 43.4669 226.075 42.4502 226.075C41.5335 226.075 40.8085 226.233 40.2752 226.55C39.7585 226.85 39.5002 227.275 39.5002 227.825C39.5002 228.708 39.9168 229.342 40.7502 229.725C40.7502 230.292 40.5752 230.733 40.2252 231.05C39.8918 231.35 39.4835 231.5 39.0002 231.5C38.5002 231.5 38.0668 231.308 37.7002 230.925C37.3335 230.542 37.1502 230.033 37.1502 229.4C37.1502 228.65 37.4085 227.983 37.9252 227.4C38.4418 226.8 39.1252 226.333 39.9752 226C40.8418 225.667 41.7585 225.5 42.7252 225.5C44.6252 225.5 46.1085 225.883 47.1752 226.65C48.2419 227.417 48.7752 228.492 48.7752 229.875C48.7752 231.325 48.2502 232.45 47.2002 233.25C46.1668 234.033 44.6585 234.558 42.6752 234.825L42.6752 234.9C44.7585 235 46.4335 235.558 47.7002 236.575C48.9835 237.575 49.6252 238.983 49.6252 240.8C49.6252 241.817 49.3418 242.758 48.7752 243.625C48.2252 244.492 47.3835 245.192 46.2502 245.725C45.1335 246.242 43.7585 246.5 42.1252 246.5ZM62.3281 246L62.3281 245.475L64.6281 245.1L64.6281 241.2L56.2031 241.2L56.2031 240.675L66.8031 226L67.3781 226L67.3781 240.025L69.6781 240.025L69.6781 241.2L67.3781 241.2L67.3781 245.1L69.6781 245.475L69.6781 246L62.3281 246ZM57.4281 240.025L64.6281 240.025L64.6281 230.05L57.4281 240.025ZM82.3521 246.5C81.3188 246.5 80.3688 246.3 79.5021 245.9C78.6521 245.5 77.9771 244.958 77.4771 244.275C76.9771 243.592 76.7271 242.825 76.7271 241.975C76.7271 241.292 76.9188 240.758 77.3021 240.375C77.6855 239.975 78.1438 239.775 78.6771 239.775C79.1771 239.775 79.6105 239.933 79.9771 240.25C80.3438 240.567 80.5271 241.025 80.5271 241.625C79.6438 242.058 79.2021 242.725 79.2021 243.625C79.2021 244.308 79.4855 244.867 80.0521 245.3C80.6355 245.717 81.4021 245.925 82.3521 245.925C83.6021 245.925 84.5855 245.392 85.3021 244.325C86.0355 243.258 86.4021 241.875 86.4021 240.175C86.4021 238.208 85.9688 236.733 85.1021 235.75C84.2521 234.75 83.1188 234.25 81.7021 234.25C80.9521 234.25 80.1355 234.392 79.2521 234.675L78.8021 234.35L79.9021 226L86.5271 226C87.5271 226 88.2521 225.925 88.7021 225.775C89.1688 225.608 89.4855 225.233 89.6521 224.65L90.2271 224.675C90.0938 226.292 89.6855 227.408 89.0021 228.025C88.3355 228.625 87.3855 228.925 86.1521 228.925L80.1771 228.925L79.5271 233.9C80.3605 233.667 81.2355 233.55 82.1521 233.55C83.6355 233.55 84.9605 233.842 86.1271 234.425C87.3105 235.008 88.2271 235.808 88.8771 236.825C89.5271 237.842 89.8521 238.967 89.8521 240.2C89.8521 241.25 89.5855 242.258 89.0521 243.225C88.5188 244.175 87.6855 244.958 86.5521 245.575C85.4355 246.192 84.0355 246.5 82.3521 246.5ZM104.713 246.5C102.263 246.5 100.53 245.558 99.5133 243.675C98.4966 241.792 97.9883 239.15 97.9883 235.75C97.9883 232.383 98.6383 229.833 99.9383 228.1C101.255 226.367 103.063 225.5 105.363 225.5C106.397 225.5 107.322 225.65 108.138 225.95C108.972 226.233 109.622 226.633 110.088 227.15C110.572 227.667 110.813 228.242 110.813 228.875C110.813 229.442 110.63 229.925 110.263 230.325C109.913 230.708 109.472 230.9 108.938 230.9C108.488 230.9 108.113 230.775 107.813 230.525C107.513 230.275 107.363 229.933 107.363 229.5C107.613 229.3 107.788 229.1 107.888 228.9C108.005 228.7 108.063 228.458 108.063 228.175C108.063 227.558 107.813 227.042 107.313 226.625C106.813 226.208 106.163 226 105.363 226C104.08 226 103.047 226.517 102.263 227.55C101.497 228.583 101.105 230.275 101.088 232.625L101.063 235.425C101.563 234.825 102.172 234.367 102.888 234.05C103.605 233.717 104.355 233.55 105.138 233.55C106.372 233.55 107.463 233.8 108.413 234.3C109.363 234.8 110.105 235.525 110.638 236.475C111.172 237.425 111.438 238.567 111.438 239.9C111.438 241.267 111.13 242.45 110.513 243.45C109.913 244.433 109.097 245.192 108.063 245.725C107.047 246.242 105.93 246.5 104.713 246.5ZM104.713 245.95C105.913 245.95 106.83 245.525 107.463 244.675C108.113 243.825 108.438 242.65 108.438 241.15L108.438 238.7C108.438 237.25 108.147 236.133 107.563 235.35C106.997 234.55 106.13 234.15 104.963 234.15C104.147 234.15 103.388 234.375 102.688 234.825C101.988 235.258 101.447 235.858 101.063 236.625L101.038 240.1C101.022 241.983 101.313 243.433 101.913 244.45C102.53 245.45 103.463 245.95 104.713 245.95ZM121.499 246C121.615 244.767 121.849 243.6 122.199 242.5C122.565 241.4 122.974 240.4 123.424 239.5C123.89 238.6 124.499 237.483 125.249 236.15C126.132 234.6 126.84 233.283 127.374 232.2C127.907 231.1 128.357 229.9 128.724 228.6L120.349 228.6L119.674 231.575L119.024 231.575L119.024 226L129.999 226C129.799 227.717 129.49 229.333 129.074 230.85C128.657 232.35 128.09 234.167 127.374 236.3C126.657 238.35 126.099 240.092 125.699 241.525C125.315 242.942 125.057 244.433 124.924 246L121.499 246ZM143.899 246.5C141.749 246.5 140.074 246.05 138.874 245.15C137.674 244.25 137.074 242.967 137.074 241.3C137.074 239.8 137.499 238.592 138.349 237.675C139.199 236.758 140.324 235.942 141.724 235.225L140.574 234.475C139.707 233.875 139.032 233.225 138.549 232.525C138.082 231.808 137.849 231.058 137.849 230.275C137.849 229.308 138.124 228.467 138.674 227.75C139.24 227.033 139.99 226.483 140.924 226.1C141.857 225.7 142.865 225.5 143.949 225.5C144.882 225.5 145.774 225.658 146.624 225.975C147.49 226.292 148.19 226.767 148.724 227.4C149.274 228.033 149.549 228.8 149.549 229.7C149.549 230.5 149.382 231.2 149.049 231.8C148.715 232.383 148.299 232.883 147.799 233.3C147.299 233.7 146.674 234.117 145.924 234.55L146.574 234.95C147.857 235.767 148.857 236.608 149.574 237.475C150.307 238.325 150.674 239.383 150.674 240.65C150.674 241.9 150.349 242.967 149.699 243.85C149.049 244.733 148.207 245.4 147.174 245.85C146.14 246.283 145.049 246.5 143.899 246.5ZM145.224 234.125C146.024 233.542 146.565 232.883 146.849 232.15C147.132 231.4 147.274 230.608 147.274 229.775C147.274 228.675 146.94 227.783 146.274 227.1C145.607 226.417 144.732 226.075 143.649 226.075C143.032 226.075 142.449 226.2 141.899 226.45C141.349 226.683 140.907 227.017 140.574 227.45C140.24 227.883 140.074 228.375 140.074 228.925C140.074 229.625 140.282 230.25 140.699 230.8C141.115 231.35 141.74 231.9 142.574 232.45L145.224 234.125ZM143.774 245.925C144.674 245.925 145.465 245.75 146.149 245.4C146.849 245.05 147.382 244.583 147.749 244C148.115 243.417 148.299 242.792 148.299 242.125C148.299 241.258 148.04 240.45 147.524 239.7C147.024 238.95 146.24 238.2 145.174 237.45L142.449 235.7C141.515 236.383 140.807 237.233 140.324 238.25C139.857 239.267 139.624 240.333 139.624 241.45C139.624 242.733 139.957 243.8 140.624 244.65C141.307 245.5 142.357 245.925 143.774 245.925ZM164.535 246.5C163.501 246.5 162.568 246.35 161.735 246.05C160.918 245.767 160.268 245.367 159.785 244.85C159.318 244.333 159.085 243.758 159.085 243.125C159.085 242.558 159.26 242.083 159.61 241.7C159.976 241.3 160.426 241.1 160.96 241.1C161.41 241.1 161.785 241.225 162.085 241.475C162.385 241.725 162.535 242.067 162.535 242.5C162.285 242.7 162.101 242.9 161.985 243.1C161.885 243.3 161.835 243.542 161.835 243.825C161.835 244.442 162.085 244.958 162.585 245.375C163.085 245.792 163.735 246 164.535 246C165.818 246 166.843 245.483 167.61 244.45C168.393 243.417 168.793 241.725 168.81 239.375L168.81 236.575C168.326 237.175 167.726 237.642 167.01 237.975C166.31 238.292 165.56 238.45 164.76 238.45C163.526 238.45 162.435 238.2 161.485 237.7C160.535 237.2 159.793 236.475 159.26 235.525C158.726 234.575 158.46 233.433 158.46 232.1C158.46 230.733 158.76 229.558 159.36 228.575C159.976 227.575 160.793 226.817 161.81 226.3C162.843 225.767 163.968 225.5 165.185 225.5C167.635 225.5 169.368 226.442 170.385 228.325C171.401 230.208 171.91 232.85 171.91 236.25C171.91 239.617 171.251 242.167 169.935 243.9C168.635 245.633 166.835 246.5 164.535 246.5ZM164.935 237.85C165.735 237.85 166.485 237.633 167.185 237.2C167.901 236.75 168.451 236.142 168.835 235.375L168.86 231.9C168.876 230.017 168.576 228.575 167.96 227.575C167.36 226.558 166.435 226.05 165.185 226.05C163.985 226.05 163.06 226.475 162.41 227.325C161.776 228.175 161.46 229.35 161.46 230.85L161.46 233.3C161.46 234.75 161.743 235.875 162.31 236.675C162.893 237.458 163.768 237.85 164.935 237.85ZM187.37 246.5C185.92 246.5 184.653 246.108 183.57 245.325C182.487 244.542 181.645 243.367 181.045 241.8C180.445 240.217 180.145 238.283 180.145 236C180.145 233.717 180.445 231.792 181.045 230.225C181.645 228.642 182.487 227.458 183.57 226.675C184.653 225.892 185.92 225.5 187.37 225.5C188.82 225.5 190.087 225.892 191.17 226.675C192.253 227.458 193.095 228.642 193.695 230.225C194.295 231.792 194.595 233.717 194.595 236C194.595 238.283 194.295 240.217 193.695 241.8C193.095 243.367 192.253 244.542 191.17 245.325C190.087 246.108 188.82 246.5 187.37 246.5ZM187.37 245.925C188.62 245.925 189.603 245.317 190.32 244.1C191.037 242.883 191.395 240.983 191.395 238.4L191.395 233.575C191.395 231.008 191.037 229.117 190.32 227.9C189.603 226.683 188.62 226.075 187.37 226.075C186.12 226.075 185.137 226.683 184.42 227.9C183.703 229.117 183.345 231.008 183.345 233.575L183.345 238.4C183.345 240.967 183.703 242.867 184.42 244.1C185.137 245.317 186.12 245.925 187.37 245.925Z" fill="#F5F5F5"/>
</svg>
