<svg width="546" height="120" viewBox="0 0 546 120" fill="none" xmlns="http://www.w3.org/2000/svg">
<path d="M40.71 94.56C35.0767 94.56 29.9633 93.65 25.37 91.83C20.7767 90.01 16.9633 87.5833 13.93 84.55C10.9833 81.43 8.47 77.8333 6.39 73.76C4.39667 69.6867 2.96667 65.4833 2.1 61.15C1.23333 56.73 0.8 52.18 0.8 47.5C0.8 42.82 1.23333 38.3133 2.1 33.98C2.96667 29.56 4.39667 25.3133 6.39 21.24C8.47 17.1667 10.9833 13.6133 13.93 10.58C16.9633 7.46 20.7767 4.99 25.37 3.16999C29.9633 1.35 35.0767 0.439998 40.71 0.439998C47.73 0.439998 53.8833 1.82667 59.17 4.6C64.5433 7.28666 68.7033 10.97 71.65 15.65C74.6833 20.2433 76.9367 25.2267 78.41 30.6C79.8833 35.9733 80.62 41.6067 80.62 47.5C80.62 53.3933 79.8833 59.0267 78.41 64.4C76.9367 69.7733 74.6833 74.8 71.65 79.48C68.7033 84.0733 64.5433 87.7567 59.17 90.53C53.8833 93.2167 47.73 94.56 40.71 94.56ZM40.71 79.61C44.87 79.61 48.5533 78.6133 51.76 76.62C54.9667 74.6267 57.4367 72.0267 59.17 68.82C60.99 65.5267 62.3333 62.1033 63.2 58.55C64.0667 54.91 64.5 51.2267 64.5 47.5C64.5 43.5133 64.0667 39.7433 63.2 36.19C62.3333 32.55 60.99 29.1267 59.17 25.92C57.4367 22.7133 54.9667 20.1567 51.76 18.25C48.64 16.3433 44.9567 15.39 40.71 15.39C35.1633 15.39 30.5267 17.1667 26.8 20.72C23.0733 24.1867 20.4733 28.2167 19 32.81C17.6133 37.4033 16.92 42.3 16.92 47.5C16.92 51.4 17.3533 55.17 18.22 58.81C19.0867 62.45 20.3867 65.8733 22.12 69.08C23.94 72.2867 26.41 74.8433 29.53 76.75C32.7367 78.6567 36.4633 79.61 40.71 79.61ZM115.013 93L90.7031 26.57H106.173L120.863 68.04C121.903 71.5067 122.51 73.5 122.683 74.02C123.203 71.7667 123.81 69.7733 124.503 68.04L138.933 26.57H154.403L130.093 93H115.013ZM194.203 94.56C184.757 94.56 177.26 91.4833 171.713 85.33C166.253 79.09 163.523 70.5533 163.523 59.72C163.523 48.9733 166.297 40.5233 171.843 34.37C177.39 28.13 184.843 25.01 194.203 25.01C202.697 25.01 209.63 27.6533 215.003 32.94C220.463 38.2267 223.193 45.9833 223.193 56.21C223.193 59.7633 223.02 62.8833 222.673 65.57H178.603C178.863 70.25 180.467 74.02 183.413 76.88C186.447 79.74 190.043 81.17 194.203 81.17C200.097 81.17 204.777 78.8733 208.243 74.28L217.863 84.16C212.057 91.0933 204.17 94.56 194.203 94.56ZM178.733 52.96H208.113C207.767 48.1933 206.293 44.5967 203.693 42.17C201.093 39.6567 197.93 38.4 194.203 38.4C189.87 38.4 186.273 39.6133 183.413 42.04C180.64 44.38 179.08 48.02 178.733 52.96ZM238.756 93V26.57H253.966V33.46C256.653 27.8267 261.203 25.01 267.616 25.01C272.296 25.01 276.413 26.5267 279.966 29.56L277.756 43.47C274.463 41.13 270.693 39.96 266.446 39.96C262.979 39.96 260.033 41.1733 257.606 43.6C255.179 46.0267 253.966 50.1 253.966 55.82V93H238.756ZM321.478 94.56C315.064 94.56 310.038 92.2633 306.398 87.67V112.11L291.188 119.13V26.57H306.398V31.64C310.038 27.22 315.108 25.01 321.608 25.01C330.014 25.01 336.644 28.0867 341.498 34.24C346.438 40.3067 348.908 48.8433 348.908 59.85C348.908 70.5967 346.394 79.09 341.368 85.33C336.341 91.4833 329.711 94.56 321.478 94.56ZM319.268 80C323.861 80 327.414 78.2667 329.928 74.8C332.441 71.3333 333.698 66.35 333.698 59.85C333.698 53.6967 332.441 48.7567 329.928 45.03C327.414 41.3033 323.861 39.44 319.268 39.44C313.634 39.44 309.344 41.6067 306.398 45.94V73.5C309.431 77.8333 313.721 80 319.268 80ZM403.031 93V87.67C398.611 92.2633 392.718 94.56 385.351 94.56C378.245 94.56 372.438 92.6533 367.931 88.84C363.511 84.94 361.301 79.48 361.301 72.46C361.301 65.2667 363.815 59.8067 368.841 56.08C373.955 52.3533 380.108 50.49 387.301 50.49C393.628 50.49 398.871 51.66 403.031 54V50.49C403.031 46.2433 401.948 43.1667 399.781 41.26C397.701 39.3533 394.451 38.4 390.031 38.4C382.838 38.4 376.251 40.48 370.271 44.64L365.591 32.29C372.785 27.4367 381.451 25.01 391.591 25.01C395.058 25.01 398.091 25.3133 400.691 25.92C403.378 26.44 406.108 27.5233 408.881 29.17C411.741 30.8167 413.951 33.4167 415.511 36.97C417.071 40.5233 417.851 44.9433 417.851 50.23V93H403.031ZM388.211 81.17C394.018 81.17 398.958 79.0467 403.031 74.8V66.22C399.218 64.4 394.798 63.49 389.771 63.49C385.698 63.49 382.405 64.2267 379.891 65.7C377.378 67.1733 376.121 69.4267 376.121 72.46C376.121 75.1467 377.161 77.27 379.241 78.83C381.321 80.39 384.311 81.17 388.211 81.17ZM457.361 94.56C451.988 94.56 446.918 93.52 442.151 91.44C437.471 89.36 433.918 86.5867 431.491 83.12L441.891 74.28C446.571 78.96 451.728 81.3 457.361 81.3C464.554 81.3 468.151 79.1333 468.151 74.8C468.151 73.3267 467.501 71.9833 466.201 70.77C464.988 69.5567 463.644 68.6467 462.171 68.04C460.784 67.3467 458.488 66.35 455.281 65.05C447.654 62.5367 442.064 59.6767 438.511 56.47C435.044 53.1767 433.311 48.8433 433.311 43.47C433.311 37.6633 435.521 33.1567 439.941 29.95C444.448 26.6567 450.124 25.01 456.971 25.01C467.024 25.01 474.954 28.4333 480.761 35.28L470.231 43.86C466.331 40.1333 461.911 38.27 456.971 38.27C450.991 38.27 448.001 40.09 448.001 43.73C448.001 45.55 449.084 47.11 451.251 48.41C453.504 49.71 456.754 51.0533 461.001 52.44C468.194 54.8667 473.611 57.7267 477.251 61.02C480.978 64.3133 482.841 68.9067 482.841 74.8C482.841 81.1267 480.544 86.0233 475.951 89.49C471.358 92.87 465.161 94.56 457.361 94.56ZM520.457 94.56C515.083 94.56 510.013 93.52 505.247 91.44C500.567 89.36 497.013 86.5867 494.587 83.12L504.987 74.28C509.667 78.96 514.823 81.3 520.457 81.3C527.65 81.3 531.247 79.1333 531.247 74.8C531.247 73.3267 530.597 71.9833 529.297 70.77C528.083 69.5567 526.74 68.6467 525.267 68.04C523.88 67.3467 521.583 66.35 518.377 65.05C510.75 62.5367 505.16 59.6767 501.607 56.47C498.14 53.1767 496.407 48.8433 496.407 43.47C496.407 37.6633 498.617 33.1567 503.037 29.95C507.543 26.6567 513.22 25.01 520.067 25.01C530.12 25.01 538.05 28.4333 543.857 35.28L533.327 43.86C529.427 40.1333 525.007 38.27 520.067 38.27C514.087 38.27 511.097 40.09 511.097 43.73C511.097 45.55 512.18 47.11 514.347 48.41C516.6 49.71 519.85 51.0533 524.097 52.44C531.29 54.8667 536.707 57.7267 540.347 61.02C544.073 64.3133 545.937 68.9067 545.937 74.8C545.937 81.1267 543.64 86.0233 539.047 89.49C534.453 92.87 528.257 94.56 520.457 94.56Z" fill="white"/>
</svg>
