<svg width="335" height="106" viewBox="0 0 335 106" fill="none" xmlns="http://www.w3.org/2000/svg">
<path d="M0.217578 101.27L12.1776 99.32V4.67999L0.217578 2.85999V-1.54972e-06H41.0376C53.8642 -1.54972e-06 63.3976 2.73 69.6376 8.18999C75.8776 13.65 78.9976 21.5367 78.9976 31.85C78.9976 42.1633 75.8776 50.05 69.6376 55.51C63.3976 60.97 53.8642 63.7 41.0376 63.7H26.4776V99.32L38.4376 101.27V104H0.217578V101.27ZM39.2176 60.58C55.2509 60.58 63.2676 51.87 63.2676 34.45V29.25C63.2676 11.9167 55.2509 3.25 39.2176 3.25H26.4776V60.58H39.2176ZM87.3948 101.4L96.4948 100.1V40.56L87.3948 39.26V36.66H109.495V46.67C114.955 39.2167 121.108 35.49 127.955 35.49C131.248 35.49 134.151 36.3567 136.665 38.09C139.178 39.7367 140.435 42.12 140.435 45.24C140.435 47.4933 139.698 49.4 138.225 50.96C136.751 52.4333 134.801 53.17 132.375 53.17C129.601 53.17 127.348 52.0867 125.615 49.92C126.568 48.7067 127.045 47.4067 127.045 46.02C127.045 44.5467 126.525 43.3767 125.485 42.51C124.531 41.5567 123.231 41.08 121.585 41.08C119.765 41.08 117.901 41.9467 115.995 43.68C114.088 45.3267 111.921 47.9267 109.495 51.48V100.1L119.895 101.4V104H87.3948V101.4ZM166.355 105.3C160.808 105.3 156.258 103.87 152.705 101.01C149.151 98.0633 147.375 93.73 147.375 88.01C147.375 79.8633 150.798 74.1 157.645 70.72C164.491 67.2533 172.421 65.52 181.435 65.52H190.145V55.51C190.145 51.0033 189.625 47.5367 188.585 45.11C187.631 42.5967 186.115 40.8633 184.035 39.91C181.955 38.87 179.138 38.35 175.585 38.35C171.511 38.35 168.478 39.1733 166.485 40.82C164.491 42.38 163.495 44.5033 163.495 47.19C163.495 49.7033 164.708 51.35 167.135 52.13C167.135 54.2967 166.311 56.2033 164.665 57.85C163.018 59.4967 161.068 60.32 158.815 60.32C156.388 60.32 154.438 59.67 152.965 58.37C151.491 56.9833 150.755 54.9033 150.755 52.13C150.755 47.1033 153.268 43.0733 158.295 40.04C163.321 37.0067 169.605 35.49 177.145 35.49C194.478 35.49 203.145 43.03 203.145 58.11V95.29C203.145 97.1967 203.535 98.67 204.315 99.71C205.181 100.663 206.395 101.14 207.955 101.14C209.428 101.14 210.598 100.663 211.465 99.71C212.331 98.67 212.765 97.2833 212.765 95.55H215.495C215.495 98.5833 214.498 100.967 212.505 102.7C210.598 104.433 207.911 105.3 204.445 105.3C200.458 105.3 197.078 104.173 194.305 101.92C191.618 99.58 190.231 95.9833 190.145 91.13C188.065 95.55 184.858 99.0167 180.525 101.53C176.278 104.043 171.555 105.3 166.355 105.3ZM173.505 99.58C175.845 99.58 178.228 98.8867 180.655 97.5C183.168 96.1133 185.291 94.12 187.025 91.52C188.758 88.8333 189.798 85.6267 190.145 81.9V68.38H181.435C174.328 68.38 168.998 69.9833 165.445 73.19C161.978 76.31 160.245 80.73 160.245 86.45C160.245 91.2167 161.371 94.5967 163.625 96.59C165.878 98.5833 169.171 99.58 173.505 99.58ZM245.574 105.3C239.854 105.3 235.261 103.87 231.794 101.01C228.414 98.15 226.724 93.6 226.724 87.36V40.56L217.494 39.26V36.66H226.724V25.87L239.724 22.62V36.66H256.624V39.26L239.724 40.56V87.1C239.724 96.2867 243.018 100.88 249.604 100.88C250.991 100.88 252.291 100.663 253.504 100.23C254.804 99.7967 255.801 99.3633 256.494 98.93C257.274 98.4967 257.751 98.1933 257.924 98.02L259.614 100.1C255.714 103.567 251.034 105.3 245.574 105.3ZM285.183 105.3C279.636 105.3 275.086 103.87 271.533 101.01C267.979 98.0633 266.203 93.73 266.203 88.01C266.203 79.8633 269.626 74.1 276.473 70.72C283.319 67.2533 291.249 65.52 300.263 65.52H308.973V55.51C308.973 51.0033 308.453 47.5367 307.413 45.11C306.459 42.5967 304.943 40.8633 302.863 39.91C300.783 38.87 297.966 38.35 294.413 38.35C290.339 38.35 287.306 39.1733 285.313 40.82C283.319 42.38 282.323 44.5033 282.323 47.19C282.323 49.7033 283.536 51.35 285.963 52.13C285.963 54.2967 285.139 56.2033 283.493 57.85C281.846 59.4967 279.896 60.32 277.643 60.32C275.216 60.32 273.266 59.67 271.793 58.37C270.319 56.9833 269.583 54.9033 269.583 52.13C269.583 47.1033 272.096 43.0733 277.123 40.04C282.149 37.0067 288.433 35.49 295.973 35.49C313.306 35.49 321.973 43.03 321.973 58.11V95.29C321.973 97.1967 322.363 98.67 323.143 99.71C324.009 100.663 325.223 101.14 326.783 101.14C328.256 101.14 329.426 100.663 330.293 99.71C331.159 98.67 331.593 97.2833 331.593 95.55H334.323C334.323 98.5833 333.326 100.967 331.333 102.7C329.426 104.433 326.739 105.3 323.273 105.3C319.286 105.3 315.906 104.173 313.133 101.92C310.446 99.58 309.059 95.9833 308.973 91.13C306.893 95.55 303.686 99.0167 299.353 101.53C295.106 104.043 290.383 105.3 285.183 105.3ZM292.333 99.58C294.673 99.58 297.056 98.8867 299.483 97.5C301.996 96.1133 304.119 94.12 305.853 91.52C307.586 88.8333 308.626 85.6267 308.973 81.9V68.38H300.263C293.156 68.38 287.826 69.9833 284.273 73.19C280.806 76.31 279.073 80.73 279.073 86.45C279.073 91.2167 280.199 94.5967 282.453 96.59C284.706 98.5833 287.999 99.58 292.333 99.58Z" fill="white"/>
</svg>
