<svg width="578" height="244" viewBox="0 0 578 244" fill="none" xmlns="http://www.w3.org/2000/svg">
<path d="M12.475 18L10.975 13.725L4.025 13.725L2.55 18L0.274998 18L6.475 0.499999L8.5 0.499999L14.7 18L12.475 18ZM10.3 11.8L8.05 5.325C7.76667 4.50833 7.58333 3.91667 7.5 3.55C7.31667 4.2 7.13333 4.79167 6.95 5.325L4.675 11.8L10.3 11.8ZM23.1795 0.5L29.3795 0.5C31.2962 0.5 32.6795 0.941668 33.5295 1.825C34.3962 2.70833 34.8295 3.80833 34.8295 5.125C34.8295 5.925 34.6045 6.65 34.1545 7.3C33.7045 7.93333 33.0712 8.425 32.2545 8.775C33.2712 9.09167 34.0545 9.625 34.6045 10.375C35.1712 11.1083 35.4545 11.975 35.4545 12.975C35.4545 13.6083 35.3545 14.2083 35.1545 14.775C34.9545 15.3417 34.6462 15.875 34.2295 16.375C33.8128 16.875 33.2212 17.275 32.4545 17.575C31.6878 17.8583 30.7962 18 29.7795 18L23.1795 18L23.1795 0.5ZM28.9545 7.925C30.1712 7.925 31.0962 7.68333 31.7295 7.2C32.3628 6.7 32.6795 6.01667 32.6795 5.15C32.6795 3.36667 31.6212 2.475 29.5045 2.475L25.3545 2.475L25.3545 7.925L28.9545 7.925ZM30.0295 16C31.2128 16 32.0545 15.725 32.5545 15.175C33.0545 14.625 33.3045 13.9417 33.3045 13.125C33.3045 10.975 31.9462 9.9 29.2295 9.9L25.3545 9.9L25.3545 16L30.0295 16ZM51.0916 18.3C49.8249 18.3 48.7083 18.0417 47.7416 17.525C46.7749 17.0083 46.0166 16.3083 45.4666 15.425C44.9166 14.5417 44.5083 13.5833 44.2416 12.55C43.9749 11.5167 43.8416 10.4167 43.8416 9.25C43.8416 8.1 43.9749 7.00833 44.2416 5.975C44.5249 4.925 44.9416 3.96667 45.4916 3.1C46.0583 2.21667 46.8166 1.51667 47.7666 1C48.7333 0.466669 49.8416 0.200002 51.0916 0.200002C53.8249 0.200003 55.7083 1.25 56.7416 3.35L54.7916 4.35C54.3249 3.65 53.8083 3.125 53.2416 2.775C52.6916 2.40834 51.9749 2.225 51.0916 2.225C49.9083 2.225 48.9249 2.6 48.1416 3.35C47.3583 4.1 46.8166 4.98334 46.5166 6C46.2333 7 46.0916 8.08334 46.0916 9.25C46.0916 11.1667 46.5166 12.8167 47.3666 14.2C48.2166 15.5667 49.4583 16.25 51.0916 16.25C52.7249 16.25 53.9916 15.5083 54.8916 14.025L56.8916 14.775C56.4083 15.8417 55.6833 16.7 54.7166 17.35C53.7499 17.9833 52.5416 18.3 51.0916 18.3ZM66.0281 0.500002L70.8031 0.500003C72.2365 0.500003 73.4948 0.750003 74.5781 1.25C75.6615 1.75 76.5115 2.425 77.1281 3.275C77.7448 4.125 78.1948 5.05 78.4781 6.05C78.7781 7.05 78.9281 8.11667 78.9281 9.25C78.9281 10.3333 78.7865 11.3667 78.5031 12.35C78.2365 13.3167 77.8031 14.2417 77.2031 15.125C76.6198 15.9917 75.7698 16.6917 74.6531 17.225C73.5365 17.7417 72.2198 18 70.7031 18L66.0281 18L66.0281 0.500002ZM70.9781 15.975C72.0115 15.975 72.9115 15.7833 73.6781 15.4C74.4615 15 75.0615 14.4667 75.4781 13.8C75.8948 13.1167 76.1948 12.4 76.3781 11.65C76.5781 10.9 76.6781 10.1 76.6781 9.25C76.6781 8.05 76.5031 6.95834 76.1531 5.975C75.8031 4.99167 75.2031 4.16667 74.3531 3.5C73.5031 2.83334 72.4698 2.5 71.2531 2.5L68.2031 2.5L68.2031 15.975L70.9781 15.975ZM88.3191 18L88.3191 0.500003L98.7191 0.500004L98.7191 2.55L90.4941 2.55L90.4941 7.925L95.9191 7.925L95.9191 9.975L90.4941 9.975L90.4941 15.925L99.2691 15.925L99.2691 18L88.3191 18ZM108.535 18L108.535 0.500005L119.06 0.500005L119.06 2.55001L110.71 2.55001L110.71 7.92501L116.235 7.92501L116.235 9.97501L110.71 9.97501L110.71 18L108.535 18ZM133.741 18.3C132.458 18.3 131.325 18.05 130.341 17.55C129.375 17.0333 128.6 16.3417 128.016 15.475C127.45 14.6083 127.025 13.65 126.741 12.6C126.458 11.55 126.316 10.4333 126.316 9.25001C126.316 8.08334 126.466 6.97501 126.766 5.92501C127.066 4.85834 127.508 3.90001 128.091 3.05001C128.675 2.18334 129.45 1.49167 130.416 0.975006C131.4 0.45834 132.508 0.200007 133.741 0.200007C135.225 0.200007 136.391 0.475007 137.241 1.02501C138.108 1.57501 138.833 2.32501 139.416 3.27501L137.466 4.40001C137 3.71667 136.483 3.19167 135.916 2.82501C135.35 2.44167 134.625 2.25001 133.741 2.25001C132.991 2.25001 132.316 2.39167 131.716 2.67501C131.116 2.95834 130.625 3.33334 130.241 3.80001C129.858 4.25001 129.533 4.78334 129.266 5.40001C129.016 6.01667 128.833 6.65001 128.716 7.30001C128.616 7.93334 128.566 8.58334 128.566 9.25001C128.566 11.2167 129 12.875 129.866 14.225C130.733 15.5583 132.025 16.225 133.741 16.225C134.925 16.225 135.875 15.8583 136.591 15.125C137.308 14.375 137.666 13.4 137.666 12.2L137.666 11.5L134.491 11.5L134.491 9.50001L139.941 9.50001L139.941 11.6C139.941 13.7167 139.358 15.3667 138.191 16.55C137.041 17.7167 135.558 18.3 133.741 18.3ZM159.953 18L159.953 9.95001L151.703 9.95001L151.703 18L149.528 18L149.528 0.500007L151.703 0.500007L151.703 7.90001L159.953 7.90001L159.953 0.500007L162.128 0.500007L162.128 18L159.953 18ZM172.333 18L172.333 0.500008L174.508 0.500008L174.508 18L172.333 18ZM187.767 18.3C185.3 18.3 183.617 17.25 182.717 15.15L184.517 14.225C184.867 14.9417 185.283 15.4583 185.767 15.775C186.25 16.0917 186.925 16.25 187.792 16.25C190.008 16.25 191.117 14.9417 191.117 12.325L191.117 0.500009L193.292 0.500009L193.292 12.25C193.292 13.4 193.125 14.3917 192.792 15.225C192.458 16.0417 192.008 16.6667 191.442 17.1C190.875 17.5167 190.283 17.8167 189.667 18C189.067 18.2 188.433 18.3 187.767 18.3ZM213.714 18L208.514 8.37501L205.539 12.025L205.539 18L203.364 18L203.364 0.50001L205.539 0.50001L205.539 9.07501L212.364 0.50001L214.814 0.50001L209.989 6.55001L216.239 18L213.714 18ZM225.118 18L225.118 0.500011L227.293 0.500011L227.293 15.9L235.893 15.9L235.893 18L225.118 18ZM259.533 18L257.358 18L257.358 7.25001C257.358 6.56668 257.374 5.92501 257.408 5.32501C257.241 5.79168 256.983 6.45001 256.633 7.30001L251.833 18.3L247.183 7.25001C246.783 6.28335 246.533 5.65001 246.433 5.35001C246.483 5.80001 246.508 6.43335 246.508 7.25001L246.508 18L244.333 18L244.333 0.500012L246.383 0.500012L251.458 12.275L251.908 13.45C251.974 13.25 252.124 12.8583 252.358 12.275L257.458 0.500012L259.533 0.500012L259.533 18ZM282.451 18L280.351 18L272.476 5.50001C272.176 5.01668 271.943 4.60835 271.776 4.27501C271.81 4.77501 271.826 5.18335 271.826 5.50001L271.826 18L269.651 18L269.651 0.500013L271.851 0.500013L279.601 12.95C279.868 13.3833 280.11 13.8167 280.326 14.25C280.293 13.65 280.276 13.225 280.276 12.975L280.276 0.500014L282.451 0.500014L282.451 18ZM299.276 18.3C297.96 18.3 296.801 18.0417 295.801 17.525C294.818 16.9917 294.043 16.2833 293.476 15.4C292.926 14.5 292.518 13.5417 292.251 12.525C291.985 11.4917 291.851 10.4 291.851 9.25001C291.851 8.10001 291.985 7.01668 292.251 6.00001C292.518 4.96668 292.926 4.00835 293.476 3.12501C294.043 2.22501 294.818 1.51668 295.801 1.00002C296.801 0.466682 297.96 0.200015 299.276 0.200015C300.343 0.200015 301.301 0.375015 302.151 0.725015C303.018 1.07502 303.726 1.54168 304.276 2.12501C304.843 2.70835 305.31 3.40002 305.676 4.20001C306.06 5.00002 306.326 5.81668 306.476 6.65002C306.643 7.48335 306.726 8.35002 306.726 9.25002C306.726 10.15 306.643 11.0167 306.476 11.85C306.326 12.6833 306.06 13.5 305.676 14.3C305.31 15.1 304.843 15.7917 304.276 16.375C303.726 16.9583 303.018 17.425 302.151 17.775C301.301 18.125 300.343 18.3 299.276 18.3ZM296.851 15.65C297.551 16.05 298.36 16.25 299.276 16.25C300.193 16.25 301.001 16.0417 301.701 15.625C302.401 15.1917 302.943 14.625 303.326 13.925C303.71 13.225 303.993 12.4833 304.176 11.7C304.36 10.9 304.451 10.0833 304.451 9.25002C304.451 8.01668 304.293 6.90002 303.976 5.90002C303.676 4.88335 303.118 4.01668 302.301 3.30002C301.501 2.58335 300.493 2.22501 299.276 2.22501C298.36 2.22501 297.551 2.44168 296.851 2.87502C296.168 3.29168 295.635 3.85835 295.251 4.57502C294.868 5.27501 294.576 6.01668 294.376 6.80002C294.193 7.58335 294.101 8.40001 294.101 9.25001C294.101 10.15 294.193 11 294.376 11.8C294.56 12.6 294.843 13.3417 295.226 14.025C295.626 14.7083 296.168 15.25 296.851 15.65ZM316.113 18L316.113 0.500015L322.813 0.500016C323.83 0.500016 324.713 0.650016 325.463 0.950016C326.23 1.25002 326.821 1.65835 327.238 2.17502C327.655 2.67502 327.963 3.22502 328.163 3.82502C328.363 4.42502 328.463 5.06668 328.463 5.75002C328.463 7.13335 327.988 8.35002 327.038 9.40002C326.105 10.45 324.696 10.975 322.813 10.975L318.288 10.975L318.288 18L316.113 18ZM322.963 8.95002C324.096 8.95002 324.93 8.63335 325.463 8.00002C326.013 7.36668 326.288 6.61668 326.288 5.75002C326.288 4.90002 326.03 4.15002 325.513 3.50002C324.996 2.85002 324.146 2.52502 322.963 2.52502L318.288 2.52502L318.288 8.95002L322.963 8.95002ZM343.541 18.3C342.224 18.3 341.066 18.0417 340.066 17.525C339.083 16.9917 338.308 16.2834 337.741 15.4C337.191 14.5 336.783 13.5417 336.516 12.525C336.249 11.4917 336.116 10.4 336.116 9.25002C336.116 8.10002 336.249 7.01668 336.516 6.00002C336.783 4.96668 337.191 4.00835 337.741 3.12502C338.308 2.22502 339.083 1.51668 340.066 1.00002C341.066 0.466684 342.224 0.200018 343.541 0.200018C344.608 0.200018 345.566 0.375018 346.416 0.725017C347.283 1.07502 347.991 1.54168 348.541 2.12502C349.108 2.70835 349.574 3.40002 349.941 4.20002C350.324 5.00002 350.591 5.81668 350.741 6.65002C350.908 7.48335 350.991 8.35002 350.991 9.25002C350.991 12.4834 350.099 14.925 348.316 16.575L349.641 18.525L348.041 19.65L346.691 17.65C345.774 18.0834 344.724 18.3 343.541 18.3ZM343.541 16.25C344.291 16.25 344.933 16.1167 345.466 15.85L344.216 13.975L345.866 12.85L347.066 14.65C348.166 13.3334 348.716 11.5334 348.716 9.25002C348.716 8.01668 348.558 6.90002 348.241 5.90002C347.941 4.88335 347.383 4.01668 346.566 3.30002C345.766 2.58335 344.758 2.22502 343.541 2.22502C342.624 2.22502 341.816 2.44168 341.116 2.87502C340.433 3.29168 339.899 3.85835 339.516 4.57502C339.133 5.27502 338.841 6.01668 338.641 6.80002C338.458 7.58335 338.366 8.40002 338.366 9.25002C338.366 10.15 338.458 11 338.641 11.8C338.824 12.6 339.108 13.3417 339.491 14.025C339.891 14.7084 340.433 15.25 341.116 15.65C341.816 16.05 342.624 16.25 343.541 16.25ZM360.378 18L360.378 0.500018L367.278 0.500018C369.211 0.500018 370.611 0.975019 371.478 1.92502C372.361 2.87502 372.803 4.05835 372.803 5.47502C372.803 6.62502 372.461 7.65835 371.778 8.57502C371.111 9.47502 370.094 10.0667 368.728 10.35L372.478 18L370.028 18L366.428 10.5L362.553 10.5L362.553 18L360.378 18ZM362.553 8.47502L367.328 8.47502C368.461 8.47502 369.286 8.19169 369.803 7.62502C370.336 7.05835 370.603 6.35835 370.603 5.52502C370.603 4.72502 370.344 4.02502 369.828 3.42502C369.328 2.82502 368.494 2.52502 367.328 2.52502L362.553 2.52502L362.553 8.47502ZM387.354 18.3C385.87 18.3 384.579 17.9417 383.479 17.225C382.395 16.4917 381.654 15.55 381.254 14.4L383.304 13.65C383.67 14.45 384.212 15.0834 384.929 15.55C385.645 16.0167 386.47 16.25 387.404 16.25C388.47 16.25 389.312 16 389.929 15.5C390.545 14.9834 390.854 14.25 390.854 13.3C390.854 12.3834 390.504 11.65 389.804 11.1C389.12 10.55 388.154 10.05 386.904 9.60002C386.304 9.38335 385.804 9.19169 385.404 9.02502C385.02 8.85835 384.57 8.62502 384.054 8.32502C383.554 8.00835 383.154 7.69169 382.854 7.37502C382.554 7.04169 382.295 6.63335 382.079 6.15002C381.879 5.65002 381.779 5.10835 381.779 4.52502C381.779 3.30835 382.262 2.28335 383.229 1.45002C384.195 0.616686 385.504 0.20002 387.154 0.20002C388.504 0.20002 389.629 0.491687 390.529 1.07502C391.429 1.64169 392.012 2.39169 392.279 3.32502L390.279 4.00002C390.045 3.48335 389.645 3.05835 389.079 2.72502C388.512 2.39169 387.82 2.22502 387.004 2.22502C386.087 2.22502 385.362 2.43335 384.829 2.85002C384.295 3.25002 384.029 3.80835 384.029 4.52502C384.029 4.90835 384.12 5.25835 384.304 5.57502C384.504 5.89169 384.804 6.17502 385.204 6.42502C385.62 6.67502 386.004 6.87502 386.354 7.02502C386.704 7.17502 387.187 7.36669 387.804 7.60002C388.57 7.88335 389.204 8.15835 389.704 8.42502C390.204 8.67502 390.745 9.01669 391.329 9.45002C391.912 9.88335 392.354 10.425 392.654 11.075C392.954 11.7084 393.104 12.4334 393.104 13.25C393.104 14.8167 392.57 16.05 391.504 16.95C390.437 17.85 389.054 18.3 387.354 18.3ZM408.395 2.57502L408.395 18L406.22 18L406.22 2.57502L401.345 2.57502L401.345 0.50002L413.27 0.500021L413.27 2.57502L408.395 2.57502ZM428.445 18.3C424.261 18.3 422.17 16.0084 422.17 11.425L422.17 0.500021L424.345 0.500021L424.345 11.425C424.345 13.2084 424.711 14.4584 425.445 15.175C426.178 15.8917 427.178 16.25 428.445 16.25C429.711 16.25 430.711 15.8917 431.445 15.175C432.195 14.4584 432.57 13.2084 432.57 11.425L432.57 0.500022L434.745 0.500022L434.745 11.425C434.745 16.0084 432.645 18.3 428.445 18.3ZM449.531 18L443.531 0.500022L445.856 0.500022L450.031 13.15C450.331 14.1667 450.506 14.7584 450.556 14.925C450.623 14.6084 450.789 14.0167 451.056 13.15L455.106 0.500023L457.431 0.500023L451.456 18L449.531 18ZM474.951 18L470.926 10.925L467.001 18L464.576 18L469.776 8.95002L464.951 0.500023L467.401 0.500023L471.001 6.82502L474.551 0.500024L476.951 0.500024L472.151 8.82502L477.401 18L474.951 18ZM490.274 18L490.274 11.125L484.324 0.500024L486.774 0.500024L491.349 9.00003L495.974 0.500025L498.349 0.500025L492.449 11.075L492.449 18L490.274 18ZM506.165 18L506.165 16.325L516.315 2.57503L506.74 2.57503L506.74 0.500025L519.14 0.500026L519.14 2.17503L509.04 15.925L519.14 15.925L519.14 18L506.165 18ZM8.4 63L8.4 61.825C7.35 62.8083 6.14166 63.3 4.775 63.3C3.425 63.3 2.34166 62.9333 1.525 62.2C0.724996 61.45 0.324996 60.3833 0.324996 59C0.324996 57.6167 0.78333 56.5667 1.7 55.85C2.61666 55.1333 3.75 54.775 5.1 54.775C6.33333 54.775 7.43333 55.05 8.4 55.6L8.4 54.7C8.4 53.6333 8.15833 52.8917 7.675 52.475C7.20833 52.0417 6.525 51.825 5.625 51.825C4.34166 51.825 3.1 52.25 1.9 53.1L1.275 51.275C2.64166 50.375 4.18333 49.925 5.9 49.925C8.93333 49.925 10.45 51.4583 10.45 54.525L10.45 63L8.4 63ZM5.1 61.375C6.35 61.375 7.45 60.8167 8.4 59.7L8.4 57.5C7.48333 56.9333 6.48333 56.65 5.4 56.65C4.51666 56.65 3.79166 56.85 3.225 57.25C2.65833 57.65 2.375 58.2333 2.375 59C2.375 59.7167 2.60833 60.2917 3.075 60.725C3.55833 61.1583 4.23333 61.375 5.1 61.375ZM24.9342 63.3C23.7175 63.3 22.6258 62.8333 21.6592 61.9L21.6592 63L19.4842 63L19.4842 45.975L21.6592 44.95L21.6592 51.325C22.5092 50.3917 23.5758 49.925 24.8592 49.925C26.4592 49.925 27.7425 50.5167 28.7092 51.7C29.6758 52.8833 30.1592 54.5167 30.1592 56.6C30.1592 58.75 29.6925 60.4083 28.7592 61.575C27.8425 62.725 26.5675 63.3 24.9342 63.3ZM24.6342 61.275C25.7175 61.275 26.5342 60.8667 27.0842 60.05C27.6508 59.2167 27.9342 58.0667 27.9342 56.6C27.9342 55.0833 27.6508 53.925 27.0842 53.125C26.5342 52.325 25.7175 51.925 24.6342 51.925C23.9675 51.925 23.3675 52.1 22.8342 52.45C22.3008 52.8 21.9092 53.1917 21.6592 53.625L21.6592 59.55C21.9758 60.0833 22.4008 60.5083 22.9342 60.825C23.4675 61.125 24.0342 61.275 24.6342 61.275ZM43.3223 63.3C41.6889 63.3 40.3973 62.7167 39.4473 61.55C38.4973 60.3667 38.0223 58.725 38.0223 56.625C38.0223 54.525 38.4973 52.8833 39.4473 51.7C40.4139 50.5167 41.7389 49.925 43.4223 49.925C45.6889 49.925 47.1806 50.9167 47.8973 52.9L45.8473 53.65C45.4139 52.5167 44.6139 51.95 43.4473 51.95C42.3806 51.95 41.5806 52.3583 41.0473 53.175C40.5139 53.9917 40.2473 55.1417 40.2473 56.625C40.2473 58.0917 40.5139 59.2333 41.0473 60.05C41.5806 60.85 42.3556 61.25 43.3723 61.25C44.7056 61.25 45.5723 60.6167 45.9723 59.35L47.9973 60.025C47.6806 61.075 47.1139 61.8833 46.2973 62.45C45.4973 63.0167 44.5056 63.3 43.3223 63.3ZM61.0473 63.3C59.4306 63.3 58.1473 62.7 57.1973 61.5C56.2473 60.3 55.7723 58.6667 55.7723 56.6C55.7723 54.5167 56.2473 52.8833 57.1973 51.7C58.1639 50.5167 59.4473 49.925 61.0473 49.925C62.2973 49.925 63.3723 50.325 64.2723 51.125L64.2723 45.975L66.4473 44.95L66.4473 63L64.2723 63L64.2723 62C63.4389 62.8667 62.3639 63.3 61.0473 63.3ZM61.3473 61.275C62.6139 61.275 63.5889 60.7 64.2723 59.55L64.2723 53.55C63.5889 52.4667 62.6139 51.925 61.3473 51.925C60.2639 51.925 59.4306 52.3333 58.8473 53.15C58.2639 53.95 57.9723 55.1 57.9723 56.6C57.9723 57.95 58.2723 59.0667 58.8723 59.95C59.4889 60.8333 60.3139 61.275 61.3473 61.275ZM80.7353 63.3C79.002 63.3 77.6187 62.6833 76.5853 61.45C75.5687 60.2 75.0603 58.5833 75.0603 56.6C75.0603 54.5167 75.577 52.8833 76.6103 51.7C77.6437 50.5167 79.0187 49.925 80.7353 49.925C82.2687 49.925 83.527 50.4417 84.5103 51.475C85.5103 52.4917 86.0103 54 86.0103 56C86.0103 56.4667 85.9853 56.95 85.9353 57.45L77.2853 57.45C77.3687 58.6167 77.727 59.5583 78.3603 60.275C79.0103 60.975 79.8187 61.325 80.7853 61.325C81.852 61.325 82.7687 60.9417 83.5353 60.175L84.8603 61.65C83.7603 62.75 82.3853 63.3 80.7353 63.3ZM77.2603 55.6L83.8103 55.6C83.7937 54.2833 83.477 53.3333 82.8603 52.75C82.2603 52.15 81.552 51.85 80.7353 51.85C79.752 51.85 78.9437 52.1667 78.3103 52.8C77.677 53.4167 77.327 54.35 77.2603 55.6ZM97.4125 52.125L97.4125 63L95.2375 63L95.2375 52.125L93.2625 52.125L93.2625 50.225L95.2375 50.225L95.2375 48.1C95.2375 47.0667 95.5042 46.325 96.0375 45.875C96.5708 45.425 97.2292 45.2 98.0125 45.2C98.8458 45.2 99.6375 45.4 100.387 45.8L100.387 47.625C99.7042 47.3083 99.0958 47.15 98.5625 47.15C98.0958 47.15 97.7875 47.2667 97.6375 47.5C97.4875 47.7333 97.4125 48.0583 97.4125 48.475L97.4125 50.225L100.387 50.225L100.387 52.125L97.4125 52.125ZM111.695 68.175L110.645 66.475C112.495 66.375 113.77 66.05 114.47 65.5C115.187 64.9667 115.545 64.2333 115.545 63.3L115.545 61.75C114.795 62.7833 113.695 63.3 112.245 63.3C110.745 63.3 109.495 62.7167 108.495 61.55C107.512 60.3833 107.02 58.7333 107.02 56.6C107.02 54.5333 107.504 52.9083 108.47 51.725C109.454 50.525 110.737 49.925 112.32 49.925C113.654 49.925 114.729 50.375 115.545 51.275L115.545 50.225L117.72 50.225L117.72 62.475C117.72 64.425 117.195 65.8333 116.145 66.7C115.112 67.5667 113.629 68.0583 111.695 68.175ZM112.695 61.275C113.229 61.275 113.754 61.1167 114.27 60.8C114.804 60.4667 115.229 60.025 115.545 59.475L115.545 53.625C115.245 53.125 114.82 52.7167 114.27 52.4C113.72 52.0833 113.195 51.925 112.695 51.925C111.562 51.925 110.695 52.3333 110.095 53.15C109.512 53.95 109.22 55.1 109.22 56.6C109.22 58.05 109.537 59.1917 110.17 60.025C110.82 60.8583 111.662 61.275 112.695 61.275ZM127.107 63L127.107 45.95L129.282 44.95L129.282 51.55C130.066 50.4667 131.166 49.925 132.582 49.925C134.082 49.925 135.216 50.3833 135.982 51.3C136.766 52.2 137.157 53.65 137.157 55.65L137.157 63L134.982 63L134.982 55.275C134.982 54.125 134.732 53.2833 134.232 52.75C133.749 52.2 133.082 51.925 132.232 51.925C130.266 51.925 129.282 53.025 129.282 55.225L129.282 63L127.107 63ZM148.519 47.525C148.252 47.775 147.927 47.9 147.544 47.9C147.161 47.9 146.836 47.7667 146.569 47.5C146.319 47.2333 146.194 46.9167 146.194 46.55C146.194 46.1667 146.327 45.8417 146.594 45.575C146.861 45.2917 147.177 45.15 147.544 45.15C147.927 45.15 148.252 45.2917 148.519 45.575C148.786 45.8417 148.919 46.1667 148.919 46.55C148.919 46.9333 148.786 47.2583 148.519 47.525ZM146.469 63L146.469 50.225L148.644 50.225L148.644 63L146.469 63ZM160.483 47.525C160.233 47.775 159.916 47.9 159.533 47.9C159.15 47.9 158.825 47.775 158.558 47.525C158.291 47.2583 158.158 46.9333 158.158 46.55C158.158 46.1667 158.291 45.8417 158.558 45.575C158.825 45.2917 159.15 45.15 159.533 45.15C159.916 45.15 160.233 45.2917 160.483 45.575C160.75 45.8417 160.883 46.1667 160.883 46.55C160.883 46.9333 160.75 47.2583 160.483 47.525ZM156.183 68.35L155.158 66.7C156.391 66.5 157.241 66.1833 157.708 65.75C158.191 65.3167 158.433 64.7 158.433 63.9L158.433 50.225L160.608 50.225L160.608 63.1C160.608 64.65 160.291 65.8 159.658 66.55C158.858 67.5333 157.7 68.1333 156.183 68.35ZM180.381 63L178.006 63L174.056 55.275L172.181 57.225L172.181 63L170.006 63L170.006 45.975L172.181 44.95L172.181 54.625L176.331 50.225L178.931 50.225L175.581 53.7L180.381 63ZM188.662 63L188.662 45.975L190.837 44.95L190.837 63L188.662 63ZM215.305 63L215.305 55.25C215.305 53.0333 214.447 51.925 212.73 51.925C211.913 51.925 211.247 52.2417 210.73 52.875C210.23 53.4917 209.98 54.3083 209.98 55.325L209.98 63L207.805 63L207.805 55.25C207.805 53.0333 206.955 51.925 205.255 51.925C204.405 51.925 203.73 52.225 203.23 52.825C202.747 53.4083 202.505 54.2083 202.505 55.225L202.505 63L200.33 63L200.33 50.225L202.505 50.225L202.505 51.425C203.255 50.425 204.372 49.925 205.855 49.925C206.572 49.925 207.23 50.0917 207.83 50.425C208.447 50.7417 208.93 51.2 209.28 51.8C210.097 50.55 211.33 49.925 212.98 49.925C214.313 49.925 215.397 50.3333 216.23 51.15C217.063 51.9667 217.48 53.125 217.48 54.625L217.48 63L215.305 63ZM234.597 63L234.597 55.275C234.597 54.125 234.347 53.2833 233.847 52.75C233.364 52.2 232.697 51.925 231.847 51.925C229.881 51.925 228.897 53.025 228.897 55.225L228.897 63L226.722 63L226.722 50.225L228.897 50.225L228.897 51.525C229.681 50.4583 230.781 49.925 232.197 49.925C233.697 49.925 234.831 50.3833 235.597 51.3C236.381 52.2 236.772 53.65 236.772 55.65L236.772 63L234.597 63ZM255.084 61.525C254.068 62.7083 252.693 63.3 250.959 63.3C249.226 63.3 247.851 62.7083 246.834 61.525C245.818 60.3417 245.309 58.7083 245.309 56.625C245.309 54.5417 245.818 52.9083 246.834 51.725C247.851 50.525 249.226 49.925 250.959 49.925C252.693 49.925 254.068 50.5167 255.084 51.7C256.101 52.8833 256.609 54.5167 256.609 56.6C256.609 58.6833 256.101 60.325 255.084 61.525ZM248.409 60.05C249.026 60.8667 249.876 61.275 250.959 61.275C252.043 61.275 252.884 60.8667 253.484 60.05C254.101 59.2167 254.409 58.0667 254.409 56.6C254.409 55.15 254.101 54.0083 253.484 53.175C252.884 52.3417 252.043 51.925 250.959 51.925C249.876 51.925 249.026 52.3417 248.409 53.175C247.809 53.9917 247.509 55.1417 247.509 56.625C247.509 58.075 247.809 59.2167 248.409 60.05ZM270.7 63.3C269.366 63.3 268.275 62.8 267.425 61.8L267.425 67.025L265.25 68.05L265.25 50.225L267.425 50.225L267.425 51.3C268.341 50.3833 269.433 49.925 270.7 49.925C272.316 49.925 273.6 50.525 274.55 51.725C275.5 52.925 275.975 54.55 275.975 56.6C275.975 58.6833 275.491 60.325 274.525 61.525C273.558 62.7083 272.283 63.3 270.7 63.3ZM270.425 61.275C271.491 61.275 272.308 60.875 272.875 60.075C273.458 59.2583 273.75 58.1 273.75 56.6C273.75 55.1833 273.45 54.05 272.85 53.2C272.266 52.35 271.458 51.925 270.425 51.925C269.075 51.925 268.075 52.5 267.425 53.65L267.425 59.55C268.308 60.7 269.308 61.275 270.425 61.275ZM289.161 63.3C287.544 63.3 286.253 62.7083 285.286 61.525C284.336 60.3417 283.861 58.7083 283.861 56.625C283.861 54.5583 284.328 52.925 285.261 51.725C286.194 50.525 287.469 49.925 289.086 49.925C290.269 49.925 291.369 50.3833 292.386 51.3L292.386 50.225L294.561 50.225L294.561 67.025L292.386 68L292.386 61.8C291.503 62.8 290.428 63.3 289.161 63.3ZM289.361 61.275C290.478 61.275 291.486 60.6917 292.386 59.525L292.386 53.65C291.703 52.5 290.694 51.925 289.361 51.925C288.344 51.925 287.536 52.3667 286.936 53.25C286.353 54.1333 286.061 55.2583 286.061 56.625C286.061 58.125 286.344 59.275 286.911 60.075C287.478 60.875 288.294 61.275 289.361 61.275ZM303.948 63L303.948 50.225L306.123 50.225L306.123 51.9C306.723 50.5833 307.731 49.925 309.148 49.925C309.948 49.925 310.606 50.1417 311.123 50.575L310.798 52.625C310.265 52.2583 309.656 52.075 308.973 52.075C308.223 52.075 307.556 52.3667 306.973 52.95C306.406 53.5333 306.123 54.4833 306.123 55.8L306.123 63L303.948 63ZM322.69 63.3C321.773 63.3 320.898 63.1084 320.065 62.725C319.248 62.325 318.582 61.8 318.065 61.15L319.615 59.825C320.565 60.8417 321.607 61.35 322.74 61.35C323.457 61.35 324.032 61.2167 324.465 60.95C324.898 60.6667 325.115 60.2584 325.115 59.725C325.115 59.325 324.957 58.9667 324.64 58.65C324.323 58.3167 323.998 58.075 323.665 57.925C323.332 57.7584 322.84 57.55 322.19 57.3C320.89 56.8167 319.907 56.275 319.24 55.675C318.573 55.075 318.24 54.2833 318.24 53.3C318.24 52.2667 318.64 51.45 319.44 50.85C320.257 50.2333 321.29 49.925 322.54 49.925C324.323 49.925 325.757 50.5667 326.84 51.85L325.34 53.1C324.557 52.2833 323.615 51.875 322.515 51.875C321.865 51.875 321.348 52 320.965 52.25C320.582 52.5 320.39 52.85 320.39 53.3C320.39 53.55 320.448 53.7833 320.565 54C320.698 54.2 320.923 54.3917 321.24 54.575C321.573 54.7584 321.832 54.9 322.015 55C322.215 55.0833 322.573 55.225 323.09 55.425C324.44 55.9084 325.465 56.4583 326.165 57.075C326.882 57.6917 327.24 58.5584 327.24 59.675C327.24 60.8084 326.832 61.7 326.015 62.35C325.198 62.9834 324.09 63.3 322.69 63.3ZM339.334 63.3C337.534 63.3 336.634 62.2834 336.634 60.25L336.634 52.125L334.559 52.125L334.559 50.225L336.634 50.225L336.634 46L338.809 44.95L338.809 50.225L341.959 50.225L341.959 52.125L338.809 52.125L338.809 59.525C338.809 60.0917 338.9 60.525 339.084 60.825C339.267 61.125 339.617 61.275 340.134 61.275C340.7 61.275 341.334 61.05 342.034 60.6L341.784 62.725C341.05 63.1084 340.234 63.3 339.334 63.3ZM357.599 63L357.599 61.775C356.816 62.7917 355.741 63.3 354.374 63.3C352.824 63.3 351.658 62.85 350.874 61.95C350.108 61.05 349.724 59.6 349.724 57.6L349.724 50.225L351.899 50.225L351.899 57.925C351.899 59.075 352.141 59.925 352.624 60.475C353.124 61.0084 353.799 61.275 354.649 61.275C356.616 61.275 357.599 60.175 357.599 57.975L357.599 50.225L359.774 50.225L359.774 63L357.599 63ZM372.611 63L367.936 50.225L370.136 50.225L373.161 58.75C373.378 59.3834 373.511 59.8 373.561 60C373.611 59.8 373.745 59.3834 373.961 58.75L376.936 50.225L379.111 50.225L374.436 63L372.611 63ZM386.104 63L390.379 56.35L386.429 50.225L388.854 50.225L390.879 53.325C391.263 53.9417 391.504 54.35 391.604 54.55C392.004 53.8834 392.254 53.475 392.354 53.325L394.354 50.225L396.804 50.225L392.829 56.35L397.129 63L394.679 63L392.329 59.375C392.146 59.0917 391.904 58.6834 391.604 58.15C391.454 58.45 391.213 58.8584 390.879 59.375L388.529 63L386.104 63ZM406.895 67.85L408.845 62.675L404.12 50.225L406.295 50.225L409.47 58.925C409.587 59.2084 409.72 59.6167 409.87 60.15C410.02 59.6167 410.153 59.2084 410.27 58.925L413.495 50.225L415.72 50.225L409.095 67.85L406.895 67.85ZM423.377 63L423.377 61.4L430.027 52.15L423.877 52.15L423.877 50.225L432.752 50.225L432.752 51.775L426.077 61.05L432.727 61.05L432.727 63L423.377 63ZM6.72499 138.6L4.64999 138.6L0.999992 134.7L3.07499 134.7L5.69999 136.95L8.32499 134.7L10.375 134.7L6.72499 138.6ZM5.62499 153.3C3.99166 153.3 2.69999 152.717 1.74999 151.55C0.799992 150.367 0.324992 148.725 0.324992 146.625C0.324992 144.525 0.799992 142.883 1.74999 141.7C2.71666 140.517 4.04166 139.925 5.72499 139.925C7.99166 139.925 9.48333 140.917 10.2 142.9L8.14999 143.65C7.71666 142.517 6.91666 141.95 5.74999 141.95C4.68333 141.95 3.88333 142.358 3.34999 143.175C2.81666 143.992 2.54999 145.142 2.54999 146.625C2.54999 148.092 2.81666 149.233 3.34999 150.05C3.88333 150.85 4.65833 151.25 5.67499 151.25C7.00832 151.25 7.87499 150.617 8.27499 149.35L10.3 150.025C9.98333 151.075 9.41666 151.883 8.59999 152.45C7.79999 153.017 6.80833 153.3 5.62499 153.3ZM20.625 138.6L24.175 134.7L27.275 134.7L22.825 138.6L20.625 138.6ZM23.375 153.3C21.7417 153.3 20.45 152.717 19.5 151.55C18.55 150.367 18.075 148.725 18.075 146.625C18.075 144.525 18.55 142.883 19.5 141.7C20.4667 140.517 21.7917 139.925 23.475 139.925C25.7417 139.925 27.2333 140.917 27.95 142.9L25.9 143.65C25.4667 142.517 24.6667 141.95 23.5 141.95C22.4333 141.95 21.6333 142.358 21.1 143.175C20.5667 143.992 20.3 145.142 20.3 146.625C20.3 148.092 20.5667 149.233 21.1 150.05C21.6333 150.85 22.4083 151.25 23.425 151.25C24.7583 151.25 25.625 150.617 26.025 149.35L28.05 150.025C27.7333 151.075 27.1667 151.883 26.35 152.45C25.55 153.017 24.5583 153.3 23.375 153.3ZM46.5 139.3L46.5 153L44.325 153L44.325 152C43.4583 152.867 42.3833 153.3 41.1 153.3C39.4833 153.3 38.2 152.725 37.25 151.575C36.3 150.408 35.825 148.875 35.825 146.975C35.825 145.058 36.3 143.542 37.25 142.425C38.2167 141.308 39.5 140.75 41.1 140.75C42.35 140.75 43.425 141.15 44.325 141.95L44.325 139.3L40.95 139.3L40.95 137.425L44.325 137.425L44.325 135.975L46.5 134.95L46.5 137.425L48.05 137.425L48.05 139.3L46.5 139.3ZM41.4 151.275C42.6667 151.275 43.6417 150.7 44.325 149.55L44.325 144.375C43.6417 143.292 42.6667 142.75 41.4 142.75C40.3333 142.75 39.5 143.125 38.9 143.875C38.3167 144.608 38.025 145.642 38.025 146.975C38.025 148.175 38.3333 149.192 38.95 150.025C39.5667 150.858 40.3833 151.275 41.4 151.275ZM60.5131 138.6L58.4381 138.6L54.7881 134.7L56.8631 134.7L59.4881 136.95L62.1131 134.7L64.1631 134.7L60.5131 138.6ZM59.6381 153.3C58.7214 153.3 57.8464 153.108 57.0131 152.725C56.1964 152.325 55.5297 151.8 55.0131 151.15L56.5631 149.825C57.5131 150.842 58.5547 151.35 59.6881 151.35C60.4047 151.35 60.9797 151.217 61.4131 150.95C61.8464 150.667 62.0631 150.258 62.0631 149.725C62.0631 149.325 61.9047 148.967 61.5881 148.65C61.2714 148.317 60.9464 148.075 60.6131 147.925C60.2797 147.758 59.7881 147.55 59.1381 147.3C57.8381 146.817 56.8547 146.275 56.1881 145.675C55.5214 145.075 55.1881 144.283 55.1881 143.3C55.1881 142.267 55.5881 141.45 56.3881 140.85C57.2047 140.233 58.2381 139.925 59.4881 139.925C61.2714 139.925 62.7047 140.567 63.7881 141.85L62.2881 143.1C61.5047 142.283 60.5631 141.875 59.4631 141.875C58.8131 141.875 58.2964 142 57.9131 142.25C57.5297 142.5 57.3381 142.85 57.3381 143.3C57.3381 143.55 57.3964 143.783 57.5131 144C57.6464 144.2 57.8714 144.392 58.1881 144.575C58.5214 144.758 58.7797 144.9 58.9631 145C59.1631 145.083 59.5214 145.225 60.0381 145.425C61.3881 145.908 62.4131 146.458 63.1131 147.075C63.8297 147.692 64.1881 148.558 64.1881 149.675C64.1881 150.808 63.7797 151.7 62.9631 152.35C62.1464 152.983 61.0381 153.3 59.6381 153.3ZM77.9144 138.6L75.8394 138.6L72.1894 134.7L74.2644 134.7L76.8894 136.95L79.5144 134.7L81.5644 134.7L77.9144 138.6ZM72.0144 153L72.0144 151.4L78.6644 142.15L72.5144 142.15L72.5144 140.225L81.3894 140.225L81.3894 141.775L74.7144 151.05L81.3644 151.05L81.3644 153L72.0144 153ZM97.8365 138.6L95.2115 136.35L92.5865 138.6L90.5115 138.6L94.1865 134.7L96.2365 134.7L99.8865 138.6L97.8365 138.6ZM97.7115 153L97.7115 151.825C96.6615 152.808 95.4532 153.3 94.0865 153.3C92.7365 153.3 91.6532 152.933 90.8365 152.2C90.0365 151.45 89.6365 150.383 89.6365 149C89.6365 147.617 90.0948 146.567 91.0115 145.85C91.9282 145.133 93.0615 144.775 94.4115 144.775C95.6448 144.775 96.7448 145.05 97.7115 145.6L97.7115 144.7C97.7115 143.633 97.4698 142.892 96.9865 142.475C96.5198 142.042 95.8365 141.825 94.9365 141.825C93.6532 141.825 92.4115 142.25 91.2115 143.1L90.5865 141.275C91.9532 140.375 93.4948 139.925 95.2115 139.925C98.2448 139.925 99.7615 141.458 99.7615 144.525L99.7615 153L97.7115 153ZM94.4115 151.375C95.6615 151.375 96.7615 150.817 97.7115 149.7L97.7115 147.5C96.7948 146.933 95.7948 146.65 94.7115 146.65C93.8282 146.65 93.1032 146.85 92.5365 147.25C91.9698 147.65 91.6865 148.233 91.6865 149C91.6865 149.717 91.9198 150.292 92.3865 150.725C92.8698 151.158 93.5448 151.375 94.4115 151.375ZM116.346 138.6L113.721 136.35L111.096 138.6L109.021 138.6L112.696 134.7L114.746 134.7L118.396 138.6L116.346 138.6ZM113.721 153.3C111.987 153.3 110.604 152.683 109.571 151.45C108.554 150.2 108.046 148.583 108.046 146.6C108.046 144.517 108.562 142.883 109.596 141.7C110.629 140.517 112.004 139.925 113.721 139.925C115.254 139.925 116.512 140.442 117.496 141.475C118.496 142.492 118.996 144 118.996 146C118.996 146.467 118.971 146.95 118.921 147.45L110.271 147.45C110.354 148.617 110.712 149.558 111.346 150.275C111.996 150.975 112.804 151.325 113.771 151.325C114.837 151.325 115.754 150.942 116.521 150.175L117.846 151.65C116.746 152.75 115.371 153.3 113.721 153.3ZM110.246 145.6L116.796 145.6C116.779 144.283 116.462 143.333 115.846 142.75C115.246 142.15 114.537 141.85 113.721 141.85C112.737 141.85 111.929 142.167 111.296 142.8C110.662 143.417 110.312 144.35 110.246 145.6ZM135.023 138.6L132.398 136.35L129.773 138.6L127.698 138.6L131.373 134.7L133.423 134.7L137.073 138.6L135.023 138.6ZM136.523 151.525C135.506 152.708 134.131 153.3 132.398 153.3C130.665 153.3 129.29 152.708 128.273 151.525C127.256 150.342 126.748 148.708 126.748 146.625C126.748 144.542 127.256 142.908 128.273 141.725C129.29 140.525 130.665 139.925 132.398 139.925C134.131 139.925 135.506 140.517 136.523 141.7C137.54 142.883 138.048 144.517 138.048 146.6C138.048 148.683 137.54 150.325 136.523 151.525ZM129.848 150.05C130.465 150.867 131.315 151.275 132.398 151.275C133.481 151.275 134.323 150.867 134.923 150.05C135.54 149.217 135.848 148.067 135.848 146.6C135.848 145.15 135.54 144.008 134.923 143.175C134.323 142.342 133.481 141.925 132.398 141.925C131.315 141.925 130.465 142.342 129.848 143.175C129.248 143.992 128.948 145.142 128.948 146.625C128.948 148.075 129.248 149.217 129.848 150.05ZM158.388 146.275C158.388 148.492 157.822 150.208 156.688 151.425C155.572 152.642 154.055 153.25 152.138 153.25C150.955 153.25 149.897 152.983 148.963 152.45C148.047 151.9 147.322 151.108 146.788 150.075C146.255 149.025 145.988 147.758 145.988 146.275C145.988 144.058 146.547 142.35 147.663 141.15C148.78 139.95 150.297 139.35 152.213 139.35C153.097 139.35 153.905 139.5 154.638 139.8C155.388 140.1 156.03 140.525 156.563 141.075C157.313 140.842 157.78 140.408 157.963 139.775C158.147 139.125 158.238 138.383 158.238 137.55L160.588 137.55L160.763 137.825C160.547 138.975 160.197 139.942 159.713 140.725C159.23 141.492 158.505 142.05 157.538 142.4C157.805 142.917 158.013 143.5 158.163 144.15C158.313 144.8 158.388 145.508 158.388 146.275ZM148.263 146.275C148.263 147.958 148.572 149.242 149.188 150.125C149.822 150.992 150.822 151.425 152.188 151.425C153.572 151.425 154.572 150.992 155.188 150.125C155.805 149.242 156.113 147.958 156.113 146.275C156.113 144.592 155.797 143.325 155.163 142.475C154.547 141.625 153.547 141.2 152.163 141.2C150.797 141.2 149.805 141.625 149.188 142.475C148.572 143.325 148.263 144.592 148.263 146.275ZM182.794 137.525L182.969 137.8C182.835 138.583 182.619 139.325 182.319 140.025C182.019 140.725 181.569 141.308 180.969 141.775C180.385 142.242 179.594 142.533 178.594 142.65L178.594 153L176.794 153L176.469 151.225L176.369 151.225C175.935 151.925 175.335 152.442 174.569 152.775C173.819 153.092 173.019 153.25 172.169 153.25C170.535 153.25 169.302 152.867 168.469 152.1C167.652 151.317 167.244 150.075 167.244 148.375L167.244 139.625L169.469 139.625L169.469 148.225C169.469 150.358 170.46 151.425 172.444 151.425C173.927 151.425 174.952 151.008 175.519 150.175C176.102 149.342 176.394 148.142 176.394 146.575L176.394 139.625L178.594 139.625L178.594 141.1C179.394 140.967 179.902 140.583 180.119 139.95C180.352 139.3 180.469 138.492 180.469 137.525L182.794 137.525ZM204.889 137.525L205.064 137.8C204.931 138.583 204.714 139.325 204.414 140.025C204.114 140.725 203.664 141.308 203.064 141.775C202.481 142.242 201.689 142.533 200.689 142.65L200.689 153L198.889 153L198.564 151.225L198.464 151.225C198.031 151.925 197.431 152.442 196.664 152.775C195.914 153.092 195.114 153.25 194.264 153.25C192.631 153.25 191.398 152.867 190.564 152.1C189.748 151.317 189.339 150.075 189.339 148.375L189.339 139.625L191.564 139.625L191.564 148.225C191.564 150.358 192.556 151.425 194.539 151.425C196.023 151.425 197.048 151.008 197.614 150.175C198.198 149.342 198.489 148.142 198.489 146.575L198.489 139.625L200.689 139.625L200.689 141.1C201.489 140.967 201.998 140.583 202.214 139.95C202.448 139.3 202.564 138.492 202.564 137.525L204.889 137.525ZM212.335 141.75C211.802 141.75 211.352 141.567 210.985 141.2C210.618 140.817 210.435 140.275 210.435 139.575C210.435 138.658 210.668 137.817 211.135 137.05C211.602 136.267 212.202 135.65 212.935 135.2L213.66 135.575C213.36 135.842 213.06 136.225 212.76 136.725C212.46 137.225 212.293 137.758 212.26 138.325C212.76 138.358 213.177 138.525 213.51 138.825C213.843 139.125 214.01 139.508 214.01 139.975C214.01 140.508 213.843 140.942 213.51 141.275C213.193 141.592 212.802 141.75 212.335 141.75ZM225.4 148.5L225.4 147.95C225.4 147.067 225.55 146.292 225.85 145.625C226.167 144.958 226.542 144.425 226.975 144.025C227.425 143.608 227.867 143.217 228.3 142.85C228.75 142.483 229.125 142.058 229.425 141.575C229.742 141.092 229.9 140.55 229.9 139.95C229.9 139.167 229.625 138.517 229.075 138C228.525 137.483 227.767 137.225 226.8 137.225C225.684 137.225 224.809 137.533 224.175 138.15C223.559 138.767 223.25 139.592 223.25 140.625L221.125 140.625C221.125 139.008 221.642 137.7 222.675 136.7C223.725 135.7 225.1 135.2 226.8 135.2C228.467 135.2 229.767 135.65 230.7 136.55C231.634 137.45 232.1 138.592 232.1 139.975C232.1 140.758 231.942 141.45 231.625 142.05C231.325 142.65 230.95 143.15 230.5 143.55C230.067 143.933 229.625 144.317 229.175 144.7C228.742 145.067 228.367 145.525 228.05 146.075C227.75 146.625 227.6 147.258 227.6 147.975L227.6 148.5L225.4 148.5ZM227.675 152.825C227.342 153.158 226.934 153.325 226.45 153.325C225.967 153.325 225.559 153.158 225.225 152.825C224.892 152.475 224.725 152.075 224.725 151.625C224.725 151.158 224.892 150.758 225.225 150.425C225.559 150.075 225.967 149.9 226.45 149.9C226.934 149.9 227.342 150.075 227.675 150.425C228.025 150.775 228.2 151.175 228.2 151.625C228.2 152.075 228.025 152.475 227.675 152.825ZM239.842 141.375C240.142 141.108 240.442 140.725 240.742 140.225C241.042 139.725 241.209 139.192 241.242 138.625C240.742 138.592 240.325 138.425 239.992 138.125C239.659 137.825 239.492 137.442 239.492 136.975C239.492 136.442 239.65 136.017 239.967 135.7C240.3 135.367 240.7 135.2 241.167 135.2C241.7 135.2 242.15 135.392 242.517 135.775C242.884 136.142 243.067 136.675 243.067 137.375C243.067 138.292 242.834 139.142 242.367 139.925C241.9 140.692 241.3 141.3 240.567 141.75L239.842 141.375ZM252.157 141.75C251.624 141.75 251.174 141.567 250.807 141.2C250.441 140.817 250.257 140.275 250.257 139.575C250.257 138.658 250.491 137.817 250.957 137.05C251.424 136.267 252.024 135.65 252.757 135.2L253.482 135.575C253.182 135.842 252.882 136.225 252.582 136.725C252.282 137.225 252.116 137.758 252.082 138.325C252.582 138.358 252.999 138.525 253.332 138.825C253.666 139.125 253.832 139.508 253.832 139.975C253.832 140.508 253.666 140.942 253.332 141.275C253.016 141.592 252.624 141.75 252.157 141.75ZM257.382 141.75C256.866 141.75 256.424 141.567 256.057 141.2C255.691 140.817 255.507 140.275 255.507 139.575C255.507 138.658 255.732 137.817 256.182 137.05C256.649 136.267 257.249 135.65 257.982 135.2L258.707 135.575C257.857 136.342 257.399 137.258 257.332 138.325C257.816 138.358 258.224 138.525 258.557 138.825C258.907 139.125 259.082 139.508 259.082 139.975C259.082 140.508 258.916 140.942 258.582 141.275C258.249 141.592 257.849 141.75 257.382 141.75ZM268.447 148.175L267.722 140.675L267.722 135.2L269.922 135.2L269.922 140.675L269.172 148.175L268.447 148.175ZM270.022 152.825C269.689 153.158 269.28 153.325 268.797 153.325C268.314 153.325 267.905 153.158 267.572 152.825C267.239 152.492 267.072 152.092 267.072 151.625C267.072 151.158 267.239 150.758 267.572 150.425C267.905 150.075 268.314 149.9 268.797 149.9C269.28 149.9 269.689 150.075 270.022 150.425C270.355 150.758 270.522 151.158 270.522 151.625C270.522 152.075 270.355 152.475 270.022 152.825ZM278.883 141.375C279.183 141.108 279.483 140.725 279.783 140.225C280.083 139.725 280.25 139.192 280.283 138.625C279.783 138.592 279.366 138.425 279.033 138.125C278.7 137.825 278.533 137.442 278.533 136.975C278.533 136.442 278.691 136.017 279.008 135.7C279.341 135.367 279.741 135.2 280.208 135.2C280.741 135.2 281.191 135.392 281.558 135.775C281.925 136.142 282.108 136.675 282.108 137.375C282.108 138.292 281.875 139.142 281.408 139.925C280.941 140.692 280.341 141.3 279.608 141.75L278.883 141.375ZM284.133 141.375C284.983 140.608 285.441 139.692 285.508 138.625C285.025 138.592 284.608 138.425 284.258 138.125C283.925 137.825 283.758 137.442 283.758 136.975C283.758 136.442 283.925 136.017 284.258 135.7C284.591 135.367 284.991 135.2 285.458 135.2C285.975 135.2 286.416 135.392 286.783 135.775C287.15 136.142 287.333 136.675 287.333 137.375C287.333 138.292 287.1 139.142 286.633 139.925C286.183 140.692 285.591 141.3 284.858 141.75L284.133 141.375ZM298.298 153L294.498 146.6L298.298 140.225L300.673 140.225L296.873 146.6L300.673 153L298.298 153ZM303.448 153L299.648 146.6L303.448 140.225L305.873 140.225L302.073 146.6L305.873 153L303.448 153ZM312.239 153L316.039 146.6L312.239 140.225L314.614 140.225L318.414 146.6L314.614 153L312.239 153ZM317.389 153L321.189 146.6L317.389 140.225L319.814 140.225L323.614 146.6L319.814 153L317.389 153ZM334.78 156.25C332.747 153.583 331.73 150.133 331.73 145.9C331.73 141.417 332.839 137.85 335.055 135.2L337.155 135.2C336.439 136.067 335.714 137.467 334.98 139.4C334.247 141.317 333.88 143.483 333.88 145.9C333.88 147.583 334.089 149.225 334.505 150.825C334.939 152.408 335.339 153.558 335.705 154.275C336.089 155.008 336.48 155.667 336.88 156.25L334.78 156.25ZM348.925 144.1C347.558 144.1 346.541 143.658 345.875 142.775C345.225 141.892 344.9 140.85 344.9 139.65C344.9 138.5 345.233 137.475 345.9 136.575C346.566 135.658 347.575 135.2 348.925 135.2C350.275 135.2 351.275 135.642 351.925 136.525C352.591 137.392 352.925 138.433 352.925 139.65C352.925 140.367 352.808 141.042 352.575 141.675C352.341 142.308 351.908 142.875 351.275 143.375C350.641 143.858 349.858 144.1 348.925 144.1ZM349.55 153.3L347.45 153.3L359.4 135.2L361.5 135.2L349.55 153.3ZM348.925 142.375C349.608 142.375 350.133 142.117 350.5 141.6C350.883 141.067 351.075 140.417 351.075 139.65C351.075 138.817 350.891 138.158 350.525 137.675C350.158 137.175 349.625 136.925 348.925 136.925C348.208 136.925 347.666 137.183 347.3 137.7C346.95 138.2 346.775 138.85 346.775 139.65C346.775 140.467 346.95 141.125 347.3 141.625C347.666 142.125 348.208 142.375 348.925 142.375ZM360.025 153.3C358.675 153.3 357.666 152.858 357 151.975C356.35 151.092 356.025 150.05 356.025 148.85C356.025 147.717 356.35 146.692 357 145.775C357.666 144.858 358.675 144.4 360.025 144.4C361.391 144.4 362.4 144.842 363.05 145.725C363.716 146.592 364.05 147.633 364.05 148.85C364.05 149.567 363.933 150.242 363.7 150.875C363.466 151.508 363.033 152.075 362.4 152.575C361.766 153.058 360.975 153.3 360.025 153.3ZM358.425 150.825C358.791 151.325 359.325 151.575 360.025 151.575C360.725 151.575 361.258 151.317 361.625 150.8C361.991 150.283 362.175 149.633 362.175 148.85C362.175 148.017 361.991 147.358 361.625 146.875C361.258 146.375 360.725 146.125 360.025 146.125C359.325 146.125 358.791 146.383 358.425 146.9C358.058 147.4 357.875 148.05 357.875 148.85C357.875 149.667 358.058 150.325 358.425 150.825ZM372.078 156.25C372.478 155.667 372.861 155.008 373.228 154.275C373.611 153.558 374.011 152.408 374.428 150.825C374.861 149.225 375.078 147.583 375.078 145.9C375.078 143.483 374.711 141.317 373.978 139.4C373.244 137.467 372.519 136.067 371.803 135.2L373.903 135.2C376.119 137.85 377.228 141.417 377.228 145.9C377.228 150.133 376.211 153.583 374.178 156.25L372.078 156.25ZM387.122 156.25L387.122 135.2L392.622 135.2L392.622 137.2L389.297 137.2L389.297 154.25L392.622 154.25L392.622 156.25L387.122 156.25ZM402.521 153L403.271 148.075L400.321 148.075L400.621 146.225L403.546 146.225L404.196 141.925L401.346 141.925L401.621 140.1L404.471 140.1L405.196 135.5L407.146 135.5L406.446 140.1L409.971 140.1L410.671 135.5L412.646 135.5L411.921 140.1L414.896 140.1L414.621 141.925L411.646 141.925L410.996 146.225L413.871 146.225L413.596 148.075L410.721 148.075L409.971 153L407.996 153L408.746 148.075L405.246 148.075L404.496 153L402.521 153ZM405.521 146.225L409.021 146.225L409.696 141.925L406.171 141.925L405.521 146.225ZM428.087 156.25L422.587 156.25L422.587 154.25L425.912 154.25L425.912 137.2L422.587 137.2L422.587 135.2L428.087 135.2L428.087 156.25ZM444.286 156.25C442.736 156.217 441.511 155.708 440.611 154.725C439.728 153.742 439.286 152.317 439.286 150.45L439.286 149.075C439.286 148.342 439.136 147.75 438.836 147.3C438.536 146.85 438.119 146.625 437.586 146.625L437.361 146.625L437.361 144.775L437.586 144.775C438.119 144.775 438.536 144.558 438.836 144.125C439.136 143.675 439.286 143.083 439.286 142.35L439.286 141C439.286 139.133 439.728 137.708 440.611 136.725C441.511 135.742 442.736 135.233 444.286 135.2L444.286 137.075C443.353 137.108 442.653 137.425 442.186 138.025C441.719 138.608 441.486 139.442 441.486 140.525L441.486 142.05C441.486 143.333 441.278 144.242 440.861 144.775C440.461 145.292 439.819 145.608 438.936 145.725C439.819 145.825 440.461 146.133 440.861 146.65C441.278 147.167 441.486 148.083 441.486 149.4L441.486 150.9C441.486 153.15 442.419 154.308 444.286 154.375L444.286 156.25ZM460.788 153.3C458.205 153.3 456.088 152.525 454.438 150.975C452.788 149.425 451.963 147.3 451.963 144.6C451.963 141.883 452.855 139.642 454.638 137.875C456.438 136.092 458.605 135.2 461.138 135.2C463.605 135.2 465.605 135.908 467.138 137.325C468.671 138.742 469.438 140.533 469.438 142.7C469.438 144.5 469.005 146 468.138 147.2C467.288 148.383 466.255 148.975 465.038 148.975C464.471 148.975 463.996 148.825 463.613 148.525C463.246 148.225 463.013 147.808 462.913 147.275C462.213 148.508 461.196 149.125 459.863 149.125C458.813 149.125 457.946 148.725 457.263 147.925C456.58 147.125 456.238 146.1 456.238 144.85C456.238 143.533 456.671 142.342 457.538 141.275C458.405 140.208 459.505 139.675 460.838 139.675C462.188 139.675 463.063 140.317 463.463 141.6L463.738 140L465.638 140L464.738 145.025C464.621 145.725 464.563 146.183 464.563 146.4C464.563 147.033 464.821 147.35 465.338 147.35C465.955 147.35 466.488 146.892 466.938 145.975C467.405 145.058 467.638 143.95 467.638 142.65C467.638 140.933 467.046 139.567 465.863 138.55C464.68 137.517 463.138 137 461.238 137C459.055 137 457.288 137.725 455.938 139.175C454.605 140.608 453.938 142.425 453.938 144.625C453.938 146.675 454.555 148.333 455.788 149.6C457.038 150.867 458.738 151.5 460.888 151.5C462.155 151.5 463.263 151.358 464.213 151.075L463.763 153.025C462.98 153.208 461.988 153.3 460.788 153.3ZM460.288 147.3C461.088 147.3 461.738 146.967 462.238 146.3C462.738 145.617 462.988 144.825 462.988 143.925C462.988 143.208 462.805 142.633 462.438 142.2C462.071 141.75 461.596 141.525 461.013 141.525C460.196 141.525 459.53 141.85 459.013 142.5C458.513 143.15 458.263 143.942 458.263 144.875C458.263 145.608 458.446 146.2 458.813 146.65C459.18 147.083 459.671 147.3 460.288 147.3ZM477.128 156.25L477.128 154.375C478.978 154.292 479.903 153.133 479.903 150.9L479.903 149.4C479.903 148.083 480.103 147.167 480.503 146.65C480.919 146.133 481.569 145.825 482.453 145.725C481.569 145.608 480.919 145.292 480.503 144.775C480.103 144.242 479.903 143.333 479.903 142.05L479.903 140.525C479.903 138.308 478.978 137.158 477.128 137.075L477.128 135.2C478.661 135.233 479.869 135.742 480.753 136.725C481.653 137.708 482.103 139.133 482.103 141L482.103 142.35C482.103 143.083 482.253 143.675 482.553 144.125C482.869 144.558 483.286 144.775 483.803 144.775L484.053 144.775L484.053 146.625L483.803 146.625C483.286 146.625 482.869 146.85 482.553 147.3C482.253 147.75 482.103 148.342 482.103 149.075L482.103 150.45C482.103 152.317 481.653 153.742 480.753 154.725C479.869 155.708 478.661 156.217 477.128 156.25ZM490.404 156.25L500.254 135.2L502.404 135.2L492.579 156.25L490.404 156.25ZM514.485 153.3C512.985 153.3 511.769 152.858 510.835 151.975C509.919 151.092 509.46 149.925 509.46 148.475C509.46 147.258 509.81 146.242 510.51 145.425C511.21 144.608 512.21 143.833 513.51 143.1C512.777 142.183 512.26 141.442 511.96 140.875C511.66 140.292 511.51 139.667 511.51 139C511.51 137.833 511.91 136.908 512.71 136.225C513.51 135.542 514.51 135.2 515.71 135.2C516.894 135.2 517.869 135.567 518.635 136.3C519.419 137.017 519.81 137.933 519.81 139.05C519.81 139.983 519.527 140.792 518.96 141.475C518.41 142.158 517.61 142.833 516.56 143.5L519.835 147.425C520.235 146.558 520.469 145.675 520.535 144.775L522.61 144.775C522.544 146.292 522.102 147.75 521.285 149.15L524.51 153L521.685 153L519.96 150.925C518.46 152.508 516.635 153.3 514.485 153.3ZM515.635 137.125C515.019 137.125 514.519 137.3 514.135 137.65C513.769 137.983 513.585 138.433 513.585 139C513.585 139.283 513.669 139.6 513.835 139.95C514.019 140.3 514.21 140.617 514.41 140.9C514.627 141.167 514.944 141.55 515.36 142.05C516.944 141.133 517.735 140.183 517.735 139.2C517.735 138.567 517.535 138.067 517.135 137.7C516.735 137.317 516.235 137.125 515.635 137.125ZM514.835 151.275C516.235 151.275 517.502 150.625 518.635 149.325L514.71 144.575C513.694 145.208 512.935 145.817 512.435 146.4C511.935 146.967 511.685 147.617 511.685 148.35C511.685 149.217 511.977 149.925 512.56 150.475C513.144 151.008 513.902 151.275 514.835 151.275ZM539.929 156.25L530.079 135.2L532.254 135.2L542.079 156.25L539.929 156.25ZM561.735 150.15L549.985 145.4L549.985 143.475L561.735 138.7L561.735 140.85L552.71 144.425L561.735 147.975L561.735 150.15ZM571.223 146.6L571.223 144.5L577.073 144.5L577.073 146.6L571.223 146.6ZM8.14999 190.475L8.14999 195.3L5.94999 195.3L5.94999 190.475L1.19999 190.475L1.19999 188.375L5.94999 188.375L5.94999 183.55L8.14999 183.55L8.14999 188.375L12.95 188.375L12.95 190.475L8.14999 190.475ZM29.4133 185.45C29.1466 185.717 28.8049 185.85 28.3883 185.85C27.9716 185.85 27.6299 185.717 27.3633 185.45C27.0966 185.183 26.9633 184.85 26.9633 184.45C26.9633 184.067 27.0966 183.742 27.3633 183.475C27.6466 183.192 27.9883 183.05 28.3883 183.05C28.7883 183.05 29.1299 183.192 29.4133 183.475C29.6966 183.742 29.8383 184.067 29.8383 184.45C29.8383 184.833 29.6966 185.167 29.4133 185.45ZM22.5633 190.475L22.5633 188.375L34.3133 188.375L34.3133 190.475L22.5633 190.475ZM29.4133 195.4C29.1466 195.667 28.8049 195.8 28.3883 195.8C27.9716 195.8 27.6299 195.667 27.3633 195.4C27.0966 195.133 26.9633 194.808 26.9633 194.425C26.9633 194.042 27.0966 193.717 27.3633 193.45C27.6299 193.167 27.9716 193.025 28.3883 193.025C28.8049 193.025 29.1466 193.167 29.4133 193.45C29.6966 193.717 29.8383 194.042 29.8383 194.425C29.8383 194.808 29.6966 195.133 29.4133 195.4ZM49.8266 190.95L45.7016 195.1L44.1266 193.525L48.2766 189.4L44.1516 185.3L45.6516 183.8L49.7766 187.9L53.8766 183.775L55.4516 185.35L51.3016 189.45L55.4266 193.575L53.9266 195.075L49.8266 190.95ZM65.2898 188.275L65.2898 186.175L77.0398 186.175L77.0398 188.275L65.2898 188.275ZM65.2898 192.675L65.2898 190.6L77.0398 190.6L77.0398 192.675L65.2898 192.675ZM98.4031 190.4L86.6531 195.15L86.6531 193L95.6531 189.425L86.6531 185.85L86.6531 183.7L98.4031 188.475L98.4031 190.4ZM123.016 195.7C121.283 197.433 119.133 198.3 116.566 198.3C114 198.3 111.85 197.433 110.116 195.7C108.383 193.967 107.516 191.817 107.516 189.25C107.516 186.683 108.383 184.533 110.116 182.8C111.85 181.067 114 180.2 116.566 180.2C119.133 180.2 121.283 181.067 123.016 182.8C124.75 184.533 125.616 186.683 125.616 189.25C125.616 191.817 124.75 193.967 123.016 195.7ZM111.291 194.6C112.691 196.017 114.45 196.725 116.566 196.725C118.683 196.725 120.433 196.017 121.816 194.6C123.216 193.167 123.916 191.383 123.916 189.25C123.916 187.117 123.216 185.342 121.816 183.925C120.433 182.492 118.683 181.775 116.566 181.775C114.45 181.775 112.691 182.492 111.291 183.925C109.891 185.342 109.191 187.117 109.191 189.25C109.191 191.383 109.891 193.167 111.291 194.6ZM112.866 194.55L112.866 183.975L117.541 183.975C118.625 183.975 119.425 184.283 119.941 184.9C120.458 185.517 120.716 186.242 120.716 187.075C120.716 187.792 120.5 188.45 120.066 189.05C119.65 189.633 119.066 190.008 118.316 190.175L120.791 194.55L118.791 194.55L116.541 190.275L114.616 190.275L114.616 194.55L112.866 194.55ZM114.616 188.7L117.566 188.7C118.033 188.7 118.383 188.55 118.616 188.25C118.85 187.95 118.966 187.567 118.966 187.1C118.966 186.7 118.85 186.358 118.616 186.075C118.4 185.775 118.05 185.625 117.566 185.625L114.616 185.625L114.616 188.7ZM149.751 195.7C148.017 197.433 145.867 198.3 143.301 198.3C140.734 198.3 138.584 197.433 136.851 195.7C135.117 193.967 134.251 191.817 134.251 189.25C134.251 186.683 135.117 184.533 136.851 182.8C138.584 181.067 140.734 180.2 143.301 180.2C145.867 180.2 148.017 181.067 149.751 182.8C151.484 184.533 152.351 186.683 152.351 189.25C152.351 191.817 151.484 193.967 149.751 195.7ZM138.026 194.6C139.426 196.017 141.184 196.725 143.301 196.725C145.417 196.725 147.167 196.017 148.551 194.6C149.951 193.167 150.651 191.383 150.651 189.25C150.651 187.117 149.951 185.342 148.551 183.925C147.167 182.492 145.417 181.775 143.301 181.775C141.184 181.775 139.426 182.492 138.026 183.925C136.626 185.342 135.926 187.117 135.926 189.25C135.926 191.383 136.626 193.167 138.026 194.6ZM143.426 194.625C141.959 194.625 140.842 194.125 140.076 193.125C139.326 192.108 138.951 190.792 138.951 189.175C138.951 187.625 139.342 186.333 140.126 185.3C140.909 184.25 142.042 183.725 143.526 183.725C144.426 183.725 145.192 183.958 145.826 184.425C146.459 184.875 146.917 185.475 147.201 186.225L145.601 186.95C145.134 185.95 144.401 185.45 143.401 185.45C141.634 185.45 140.751 186.692 140.751 189.175C140.751 191.675 141.651 192.925 143.451 192.925C144.567 192.925 145.317 192.375 145.701 191.275L147.251 191.85C146.967 192.717 146.492 193.4 145.826 193.9C145.159 194.383 144.359 194.625 143.426 194.625ZM165.51 200.45L165.51 198.2C164.343 198.017 163.335 197.583 162.485 196.9C161.652 196.217 161.068 195.383 160.735 194.4L162.785 193.65C163.135 194.45 163.652 195.083 164.335 195.55C165.035 196 165.843 196.225 166.76 196.225C167.793 196.225 168.602 195.975 169.185 195.475C169.768 194.975 170.06 194.25 170.06 193.3C170.06 192.4 169.718 191.675 169.035 191.125C168.368 190.558 167.435 190.05 166.235 189.6C165.485 189.317 164.877 189.067 164.41 188.85C163.96 188.617 163.452 188.3 162.885 187.9C162.335 187.5 161.927 187.025 161.66 186.475C161.393 185.908 161.26 185.258 161.26 184.525C161.26 183.442 161.635 182.508 162.385 181.725C163.152 180.925 164.193 180.442 165.51 180.275L165.51 178.275L167.71 178.275L167.71 180.3C168.693 180.467 169.51 180.817 170.16 181.35C170.827 181.883 171.277 182.542 171.51 183.325L169.51 184C168.993 182.833 167.952 182.25 166.385 182.25C165.485 182.25 164.785 182.45 164.285 182.85C163.785 183.25 163.535 183.808 163.535 184.525C163.535 184.908 163.627 185.258 163.81 185.575C163.993 185.875 164.277 186.15 164.66 186.4C165.06 186.65 165.427 186.858 165.76 187.025C166.11 187.175 166.585 187.367 167.185 187.6C167.918 187.883 168.527 188.15 169.01 188.4C169.51 188.65 170.043 189 170.61 189.45C171.177 189.883 171.602 190.425 171.885 191.075C172.185 191.708 172.335 192.433 172.335 193.25C172.335 194.65 171.91 195.783 171.06 196.65C170.21 197.517 169.093 198.042 167.71 198.225L167.71 200.45L165.51 200.45ZM188.607 198.3C185.141 198.3 183.049 196.325 182.332 192.375L180.282 192.375L181.082 190.55L182.107 190.55C182.091 190.267 182.082 189.842 182.082 189.275C182.082 188.842 182.091 188.508 182.107 188.275L180.307 188.275L181.107 186.45L182.332 186.45C182.682 184.633 183.391 183.142 184.457 181.975C185.541 180.792 187.016 180.2 188.882 180.2C190.482 180.2 191.924 180.642 193.207 181.525L192.357 183.575C191.357 182.692 190.191 182.25 188.857 182.25C186.624 182.25 185.224 183.65 184.657 186.45L191.157 186.45L190.407 188.275L184.407 188.275C184.374 188.558 184.357 188.958 184.357 189.475C184.357 189.958 184.374 190.317 184.407 190.55L189.482 190.55L188.732 192.375L184.682 192.375C185.299 194.942 186.599 196.225 188.582 196.225C189.966 196.225 191.082 195.625 191.932 194.425L193.707 195.55C193.207 196.367 192.524 197.033 191.657 197.55C190.791 198.05 189.774 198.3 188.607 198.3ZM202.161 198L202.161 195.7C202.894 195.367 203.428 194.767 203.761 193.9C204.111 193.033 204.311 192.133 204.361 191.2L204.361 190.7L202.036 190.7L202.036 188.85L203.861 188.85C203.828 188.783 203.761 188.65 203.661 188.45C203.561 188.233 203.486 188.083 203.436 188C203.403 187.917 203.344 187.775 203.261 187.575C203.178 187.375 203.111 187.2 203.061 187.05C203.028 186.9 202.986 186.725 202.936 186.525C202.886 186.308 202.853 186.083 202.836 185.85C202.819 185.617 202.811 185.375 202.811 185.125C202.811 183.758 203.303 182.6 204.286 181.65C205.269 180.683 206.678 180.2 208.511 180.2C210.461 180.2 212.178 180.758 213.661 181.875L212.811 183.925C212.428 183.608 212.103 183.358 211.836 183.175C211.586 182.992 211.153 182.8 210.536 182.6C209.919 182.383 209.244 182.275 208.511 182.275C207.394 182.275 206.544 182.558 205.961 183.125C205.394 183.692 205.111 184.358 205.111 185.125C205.111 185.742 205.303 186.5 205.686 187.4C206.086 188.283 206.294 188.767 206.311 188.85L210.436 188.85L210.436 190.7L206.661 190.7L206.661 191.15C206.578 193 205.828 194.592 204.411 195.925L213.936 195.925L213.936 198L202.161 198ZM228.303 190.025L231.978 190.025L231.978 191.9L228.278 191.9L228.278 193.55L231.978 193.55L231.978 195.425L228.278 195.425L228.278 198L226.103 198L226.103 195.425L222.228 195.425L222.228 193.55L226.103 193.55L226.103 191.9L222.228 191.9L222.228 190.025L226.053 190.025L220.703 180.5L223.153 180.5L227.178 187.975L231.328 180.5L233.703 180.5L228.303 190.025ZM245.063 198.3L245.063 195.8C243.78 195.517 242.78 194.808 242.063 193.675C241.346 192.525 240.988 191.05 240.988 189.25C240.988 187.45 241.346 185.992 242.063 184.875C242.78 183.742 243.78 183.025 245.063 182.725L245.063 180.2L247.188 180.2L247.188 182.625C249.055 182.842 250.296 183.825 250.913 185.575L248.813 186.325C248.396 185.225 247.63 184.675 246.513 184.675C245.446 184.675 244.63 185.075 244.063 185.875C243.496 186.675 243.213 187.8 243.213 189.25C243.213 190.7 243.488 191.825 244.038 192.625C244.588 193.425 245.371 193.825 246.388 193.825C247.005 193.825 247.53 193.658 247.963 193.325C248.413 192.992 248.721 192.525 248.888 191.925L250.963 192.6C250.38 194.583 249.121 195.675 247.188 195.875L247.188 198.3L245.063 198.3ZM261.679 188.825C261.346 189.158 260.938 189.325 260.454 189.325C259.971 189.325 259.563 189.158 259.229 188.825C258.896 188.475 258.729 188.075 258.729 187.625C258.729 187.158 258.896 186.758 259.229 186.425C259.563 186.075 259.971 185.9 260.454 185.9C260.938 185.9 261.346 186.075 261.679 186.425C262.029 186.775 262.204 187.175 262.204 187.625C262.204 188.075 262.029 188.475 261.679 188.825ZM261.679 197.825C261.346 198.158 260.938 198.325 260.454 198.325C259.971 198.325 259.563 198.158 259.229 197.825C258.896 197.475 258.729 197.075 258.729 196.625C258.729 196.158 258.896 195.758 259.229 195.425C259.563 195.075 259.971 194.9 260.454 194.9C260.938 194.9 261.346 195.075 261.679 195.425C262.029 195.775 262.204 196.175 262.204 196.625C262.204 197.075 262.029 197.475 261.679 197.825ZM272.545 188.825C272.211 189.158 271.803 189.325 271.32 189.325C270.836 189.325 270.428 189.158 270.095 188.825C269.761 188.492 269.595 188.092 269.595 187.625C269.595 187.158 269.761 186.758 270.095 186.425C270.428 186.075 270.836 185.9 271.32 185.9C271.803 185.9 272.211 186.075 272.545 186.425C272.878 186.758 273.045 187.158 273.045 187.625C273.045 188.075 272.878 188.475 272.545 188.825ZM269.945 201.15C270.245 200.883 270.528 200.5 270.795 200C271.078 199.5 271.236 198.958 271.27 198.375C270.803 198.358 270.403 198.2 270.07 197.9C269.753 197.583 269.595 197.192 269.595 196.725C269.595 196.208 269.753 195.783 270.07 195.45C270.403 195.117 270.803 194.95 271.27 194.95C271.803 194.95 272.253 195.142 272.62 195.525C272.986 195.892 273.17 196.433 273.17 197.15C273.17 198.067 272.936 198.908 272.47 199.675C272.003 200.458 271.403 201.075 270.67 201.525L269.945 201.15ZM280.81 201.15C281.11 200.883 281.41 200.5 281.71 200C282.01 199.5 282.176 198.967 282.21 198.4C281.71 198.367 281.293 198.2 280.96 197.9C280.626 197.583 280.46 197.192 280.46 196.725C280.46 196.208 280.618 195.783 280.935 195.45C281.268 195.117 281.668 194.95 282.135 194.95C282.668 194.95 283.118 195.142 283.485 195.525C283.851 195.892 284.035 196.433 284.035 197.15C284.035 198.067 283.801 198.908 283.335 199.675C282.868 200.458 282.268 201.075 281.535 201.525L280.81 201.15ZM294.031 197.825C293.698 198.158 293.289 198.325 292.806 198.325C292.323 198.325 291.914 198.158 291.581 197.825C291.248 197.475 291.081 197.075 291.081 196.625C291.081 196.158 291.248 195.758 291.581 195.425C291.914 195.075 292.323 194.9 292.806 194.9C293.289 194.9 293.698 195.075 294.031 195.425C294.381 195.775 294.556 196.175 294.556 196.625C294.556 197.075 294.381 197.475 294.031 197.825ZM308.196 188.25L307.521 186.4L306.846 188.25L305.146 190.575L303.521 189.35L305.171 187.075L306.596 185.85L304.796 185.8L302.221 184.95L302.871 183L305.371 183.825L306.946 184.925L306.521 183.075L306.521 180.25L308.546 180.25L308.546 183.075L308.071 184.925L309.671 183.825L312.196 183L312.846 184.95L310.246 185.8L308.421 185.85L309.896 187.075L311.546 189.35L309.921 190.575L308.196 188.25ZM2.92499 243L2.92499 229.05L-1.26087e-05 229.05L-1.25315e-05 227.575C1.88332 227.575 3.05832 226.883 3.52499 225.5L5.09999 225.5L5.09999 243L2.92499 243ZM15.3262 243C15.3262 241.9 15.4845 240.9 15.8012 240C16.1178 239.083 16.5762 238.283 17.1762 237.6C17.7762 236.917 18.3762 236.342 18.9762 235.875C19.5762 235.408 20.2928 234.933 21.1262 234.45C21.8928 233.983 22.4928 233.592 22.9262 233.275C23.3595 232.942 23.7595 232.5 24.1262 231.95C24.5095 231.4 24.7012 230.817 24.7012 230.2C24.7012 229.35 24.3845 228.642 23.7512 228.075C23.1345 227.508 22.3095 227.225 21.2762 227.225C19.3428 227.225 18.1012 228.083 17.5512 229.8L15.6012 228.925C15.9512 227.825 16.6428 226.933 17.6762 226.25C18.7095 225.55 19.9345 225.2 21.3512 225.2C23.0845 225.2 24.4512 225.667 25.4512 226.6C26.4512 227.517 26.9512 228.733 26.9512 230.25C26.9512 230.85 26.8595 231.408 26.6762 231.925C26.4928 232.442 26.2678 232.883 26.0012 233.25C25.7512 233.617 25.3845 234 24.9012 234.4C24.4178 234.8 23.9845 235.125 23.6012 235.375C23.2345 235.608 22.7345 235.917 22.1012 236.3C20.8678 237.017 19.8928 237.725 19.1762 238.425C18.4762 239.125 18.0345 239.942 17.8512 240.875L27.1012 240.875L27.1012 243L15.3262 243ZM41.4088 243.3C38.4588 243.3 36.4671 241.942 35.4338 239.225L37.4588 238.4C38.2421 240.283 39.5588 241.225 41.4088 241.225C42.5088 241.225 43.4088 240.958 44.1088 240.425C44.8088 239.892 45.1588 239.117 45.1588 238.1C45.1588 237.133 44.8504 236.367 44.2338 235.8C43.6171 235.217 42.7171 234.925 41.5338 234.925L40.2838 234.925L40.2838 232.875L41.4088 232.875C42.3254 232.875 43.0671 232.625 43.6338 232.125C44.2004 231.608 44.4838 230.933 44.4838 230.1C44.4838 229.233 44.2004 228.542 43.6338 228.025C43.0838 227.508 42.3671 227.25 41.4838 227.25C39.9004 227.25 38.7421 228.033 38.0088 229.6L35.9838 228.825C36.4004 227.758 37.0754 226.892 38.0088 226.225C38.9588 225.542 40.1171 225.2 41.4838 225.2C43.0004 225.2 44.2588 225.642 45.2588 226.525C46.2588 227.408 46.7588 228.517 46.7588 229.85C46.7588 230.65 46.5588 231.392 46.1588 232.075C45.7754 232.758 45.2254 233.283 44.5088 233.65C45.4254 234.017 46.1421 234.575 46.6588 235.325C47.1754 236.075 47.4338 236.975 47.4338 238.025C47.4338 239.608 46.8588 240.883 45.7088 241.85C44.5588 242.817 43.1254 243.3 41.4088 243.3ZM63.9978 243L63.9978 238.65L55.0478 238.65L55.0478 237.35L64.1228 225.5L66.1728 225.5L66.1728 236.7L68.6478 236.7L68.6478 238.65L66.1728 238.65L66.1728 243L63.9978 243ZM63.9978 236.7L63.9978 228.575L57.8978 236.7L63.9978 236.7ZM82.4752 243.3C81.1752 243.3 80.0418 243.108 79.0752 242.725C78.1085 242.342 77.3752 241.892 76.8752 241.375L78.1752 239.7C79.3918 240.767 80.8168 241.3 82.4502 241.3C83.6835 241.3 84.7002 240.925 85.5002 240.175C86.3168 239.425 86.7252 238.492 86.7252 237.375C86.7252 236.275 86.3918 235.383 85.7252 234.7C85.0752 234.017 84.2168 233.675 83.1502 233.675C81.6502 233.675 80.4752 234.15 79.6252 235.1L77.4752 234.35L78.5002 225.5L87.8502 225.5L87.8502 227.525L80.4002 227.525L79.7252 232.8C80.7252 232 81.9502 231.6 83.4002 231.6C85.0668 231.6 86.4168 232.142 87.4502 233.225C88.4835 234.308 89.0002 235.642 89.0002 237.225C89.0002 238.925 88.3918 240.367 87.1752 241.55C85.9752 242.717 84.4085 243.3 82.4752 243.3ZM103.528 243.3C101.628 243.3 100.161 242.675 99.1275 241.425C98.1109 240.158 97.6025 238.525 97.6025 236.525C97.6025 233.758 98.4275 231.325 100.078 229.225C101.744 227.125 104.003 225.783 106.853 225.2L106.853 227.125C105.269 227.492 103.853 228.258 102.603 229.425C101.369 230.575 100.578 231.933 100.228 233.5C101.061 232.55 102.336 232.075 104.053 232.075C105.553 232.075 106.811 232.608 107.828 233.675C108.844 234.742 109.353 236.042 109.353 237.575C109.353 239.225 108.794 240.592 107.678 241.675C106.578 242.758 105.194 243.3 103.528 243.3ZM103.503 241.25C104.586 241.25 105.469 240.925 106.153 240.275C106.836 239.625 107.178 238.767 107.178 237.7C107.178 236.617 106.836 235.75 106.153 235.1C105.486 234.433 104.603 234.1 103.503 234.1C102.419 234.1 101.528 234.433 100.828 235.1C100.144 235.75 99.8025 236.617 99.8025 237.7C99.8025 238.75 100.153 239.608 100.853 240.275C101.553 240.925 102.436 241.25 103.503 241.25ZM120.031 243C120.065 240.05 120.481 237.35 121.281 234.9C122.081 232.433 123.398 229.975 125.231 227.525L116.531 227.525L116.531 225.5L127.656 225.5L127.656 227.475C126.606 228.675 125.706 229.992 124.956 231.425C124.223 232.842 123.673 234.25 123.306 235.65C122.94 237.05 122.673 238.342 122.506 239.525C122.34 240.692 122.256 241.85 122.256 243L120.031 243ZM141.593 243.3C139.876 243.3 138.468 242.8 137.368 241.8C136.268 240.783 135.718 239.508 135.718 237.975C135.718 236.908 135.993 235.975 136.543 235.175C137.093 234.358 137.818 233.758 138.718 233.375C138.001 233.008 137.451 232.508 137.068 231.875C136.684 231.242 136.493 230.533 136.493 229.75C136.493 228.467 136.968 227.392 137.918 226.525C138.884 225.642 140.109 225.2 141.593 225.2C143.076 225.2 144.301 225.642 145.268 226.525C146.234 227.392 146.718 228.467 146.718 229.75C146.718 231.433 145.968 232.642 144.468 233.375C145.384 233.775 146.118 234.375 146.668 235.175C147.218 235.975 147.493 236.908 147.493 237.975C147.493 239.508 146.943 240.783 145.843 241.8C144.743 242.8 143.326 243.3 141.593 243.3ZM139.493 231.775C140.026 232.258 140.726 232.5 141.593 232.5C142.459 232.5 143.159 232.258 143.693 231.775C144.243 231.275 144.518 230.658 144.518 229.925C144.518 229.108 144.243 228.458 143.693 227.975C143.159 227.475 142.459 227.225 141.593 227.225C140.743 227.225 140.043 227.475 139.493 227.975C138.959 228.458 138.693 229.108 138.693 229.925C138.693 230.658 138.959 231.275 139.493 231.775ZM138.968 240.325C139.651 240.942 140.526 241.25 141.593 241.25C142.659 241.25 143.534 240.942 144.218 240.325C144.901 239.692 145.243 238.85 145.243 237.8C145.243 236.85 144.893 236.033 144.193 235.35C143.509 234.667 142.643 234.325 141.593 234.325C140.543 234.325 139.676 234.667 138.993 235.35C138.309 236.017 137.968 236.833 137.968 237.8C137.968 238.85 138.301 239.692 138.968 240.325ZM158.851 243.3L158.851 241.275C160.434 240.992 161.801 240.292 162.951 239.175C164.118 238.058 164.843 236.633 165.126 234.9C164.309 235.9 163.034 236.4 161.301 236.4C159.768 236.4 158.484 235.875 157.451 234.825C156.434 233.775 155.926 232.467 155.926 230.9C155.926 229.25 156.484 227.892 157.601 226.825C158.734 225.742 160.159 225.2 161.876 225.2C163.793 225.2 165.243 225.825 166.226 227.075C167.209 228.325 167.701 229.958 167.701 231.975C167.701 234.925 166.909 237.458 165.326 239.575C163.759 241.675 161.601 242.917 158.851 243.3ZM161.801 234.375C162.884 234.375 163.759 234.05 164.426 233.4C165.109 232.733 165.451 231.867 165.451 230.8C165.451 229.783 165.101 228.95 164.401 228.3C163.718 227.633 162.851 227.3 161.801 227.3C160.718 227.3 159.834 227.633 159.151 228.3C158.484 228.95 158.151 229.783 158.151 230.8C158.151 231.883 158.476 232.75 159.126 233.4C159.793 234.05 160.684 234.375 161.801 234.375ZM182.668 243.3C181.551 243.3 180.576 243.042 179.743 242.525C178.91 241.992 178.268 241.283 177.818 240.4C177.385 239.5 177.06 238.542 176.843 237.525C176.643 236.508 176.543 235.417 176.543 234.25C176.543 233.183 176.635 232.167 176.818 231.2C177.001 230.217 177.31 229.258 177.743 228.325C178.176 227.375 178.81 226.617 179.643 226.05C180.493 225.483 181.501 225.2 182.668 225.2C183.785 225.2 184.76 225.467 185.593 226C186.426 226.517 187.06 227.225 187.493 228.125C187.943 229.025 188.268 229.983 188.468 231C188.685 232.017 188.793 233.1 188.793 234.25C188.793 235.317 188.693 236.342 188.493 237.325C188.31 238.292 188.001 239.25 187.568 240.2C187.135 241.133 186.493 241.883 185.643 242.45C184.81 243.017 183.818 243.3 182.668 243.3ZM182.668 241.25C183.418 241.25 184.06 241.042 184.593 240.625C185.126 240.208 185.518 239.633 185.768 238.9C186.035 238.167 186.218 237.433 186.318 236.7C186.435 235.95 186.493 235.133 186.493 234.25C186.493 233.317 186.435 232.458 186.318 231.675C186.201 230.892 186.001 230.158 185.718 229.475C185.451 228.775 185.06 228.225 184.543 227.825C184.026 227.425 183.401 227.225 182.668 227.225C181.901 227.225 181.251 227.442 180.718 227.875C180.185 228.292 179.785 228.867 179.518 229.6C179.251 230.317 179.06 231.058 178.943 231.825C178.843 232.575 178.793 233.383 178.793 234.25C178.793 235.183 178.851 236.042 178.968 236.825C179.085 237.592 179.285 238.325 179.568 239.025C179.851 239.725 180.251 240.275 180.768 240.675C181.301 241.058 181.935 241.25 182.668 241.25Z" fill="#F5F5F5"/>
</svg>
