<svg width="116" height="89" viewBox="0 0 116 89" fill="none" xmlns="http://www.w3.org/2000/svg">
<circle cx="50.8652" cy="59.0156" r="29.5078" fill="#E3EBF9"/>
<circle cx="95.9946" cy="19.0933" r="19.0933" fill="#E3EBF9"/>
<path d="M15.4561 3.4707V26.3826" stroke="#0D478D" stroke-width="6.71503" stroke-linecap="round" stroke-linejoin="round"/>
<path d="M26.9119 14.9258L3.99995 14.9258" stroke="#0D478D" stroke-width="6.71503" stroke-linecap="round" stroke-linejoin="round"/>
<path fill-rule="evenodd" clip-rule="evenodd" d="M87.229 65.959C88.4153 65.959 89.377 66.9207 89.377 68.107V80.9949C89.377 82.1812 88.4153 83.1429 87.229 83.1429C86.0427 83.1429 85.0811 82.1812 85.0811 80.9949V68.107C85.0811 66.9207 86.0427 65.959 87.229 65.959Z" fill="#3991FB"/>
<path fill-rule="evenodd" clip-rule="evenodd" d="M95.8208 74.5523C95.8208 75.7386 94.8591 76.7003 93.6728 76.7003L80.7849 76.7003C79.5986 76.7003 78.6369 75.7386 78.6369 74.5523C78.6369 73.366 79.5986 72.4043 80.7849 72.4043L93.6728 72.4043C94.8591 72.4043 95.8208 73.366 95.8208 74.5523Z" fill="#3991FB"/>
<path d="M71.6941 12.1504L57.8081 62.4872" stroke="#3991FB" stroke-width="6.71503" stroke-linecap="round" stroke-linejoin="round"/>
<path d="M43.9221 20.8291L28.3003 37.3187L43.9221 53.8084" stroke="#0D478D" stroke-width="6.71503" stroke-linecap="round" stroke-linejoin="round"/>
<path d="M85.5801 53.8086L101.202 37.319L85.5801 20.8293" stroke="#0D478D" stroke-width="6.71503" stroke-linecap="round" stroke-linejoin="round"/>
</svg>
