<svg width="127" height="99" viewBox="0 0 127 99" fill="none" xmlns="http://www.w3.org/2000/svg">
<circle cx="97.2021" cy="36.623" r="29.5078" fill="#E3EBF9"/>
<path fill-rule="evenodd" clip-rule="evenodd" d="M44.7101 42.1709C44.8746 41.3219 46.3232 41.1437 46.8775 41.8075C48.0879 43.2569 49.7863 44.3144 51.7848 44.7017C56.3961 45.5951 60.8587 42.5812 61.7522 37.9698C62.6457 33.3584 59.6317 28.8958 55.0203 28.0023C53.0219 27.6151 51.0513 27.9618 49.3872 28.8543C48.6251 29.263 47.3479 28.5566 47.5124 27.7077L49.6196 16.8321C49.9723 15.0117 48.7825 13.25 46.962 12.8973L15.2132 6.74582C11.3162 5.99078 7.54505 8.53779 6.79001 12.4347L0.638558 44.1836C0.28584 46.004 1.47567 47.7657 3.29612 48.1185L17.0963 50.7923C14.8206 48.8693 13.6241 45.8051 14.2311 42.6722C15.1246 38.0608 19.5872 35.0468 24.1985 35.9403C28.8099 36.8338 31.8239 41.2963 30.9304 45.9077V45.9077C30.469 48.2892 31.7222 53.6261 34.1036 54.0875L38.8048 54.9984C40.6253 55.3511 42.3869 54.1613 42.7397 52.3408L44.7101 42.1709Z" fill="#0D478D"/>
<path d="M33.5406 46.526C33.5406 52.5794 28.6334 57.4866 22.58 57.4866C16.5266 57.4866 11.6194 52.5794 11.6194 46.526C11.6194 40.4727 16.5266 35.5654 22.58 35.5654C28.6334 35.5654 33.5406 40.4727 33.5406 46.526Z" fill="white"/>
<path fill-rule="evenodd" clip-rule="evenodd" d="M42.7643 69.5268C42.7643 70.3916 41.3761 70.8421 40.7057 70.2959C39.2417 69.1031 37.3731 68.388 35.3375 68.388C30.6403 68.388 26.8325 72.1958 26.8325 76.8929C26.8325 81.5901 30.6403 85.3979 35.3375 85.3979C37.3731 85.3979 39.2417 84.6827 40.7057 83.49C41.3761 82.9438 42.7643 83.3943 42.7643 84.259L42.7643 95.3368C42.7643 97.1911 44.2675 98.6943 46.1218 98.6943L78.4611 98.6943C82.4305 98.6943 85.6484 95.4765 85.6484 91.5071L85.6484 59.1678C85.6484 57.3135 84.1452 55.8103 82.2909 55.8103L71.4527 55.8103C70.5879 55.8103 70.1374 57.1985 70.6836 57.8689C71.8764 59.3329 72.5915 61.2015 72.5915 63.2371C72.5915 67.9343 68.7837 71.742 64.0866 71.742C59.3894 71.742 55.5816 67.9343 55.5816 63.2371C55.5816 61.2015 56.2968 59.3329 57.4895 57.8689C58.0357 57.1985 57.5852 55.8103 56.7205 55.8103L46.1218 55.8103C44.2675 55.8103 42.7643 57.3135 42.7643 59.1678L42.7643 69.5268Z" fill="#3991FB"/>
<path fill-rule="evenodd" clip-rule="evenodd" d="M30.3063 48.3819C30.3063 50.4175 29.5912 52.2861 28.3984 53.7501C27.8522 54.4205 28.3028 55.8087 29.1675 55.8087H38.354C38.3692 55.8087 38.3938 55.8088 38.426 55.809C39.2648 55.8141 39.8894 56.4663 39.8894 57.3051V63.8931C39.8894 65.1034 38.6321 65.9285 37.4423 65.7059C36.7603 65.5783 36.0567 65.5116 35.3374 65.5116C29.0525 65.5116 23.9576 70.6065 23.9576 76.8914C23.9576 83.1763 29.0525 88.2713 35.3374 88.2713C36.0567 88.2713 36.7603 88.2045 37.4423 88.0769C38.6321 87.8543 39.8894 88.6794 39.8894 89.8898V97.1965C39.8894 98.0353 39.2644 98.6814 38.4256 98.6886C38.0985 98.6914 37.8308 98.6928 37.7729 98.6928H7.18728C3.21785 98.6928 0 95.475 0 91.5056V59.2803C0 57.363 1.55424 55.8087 3.4715 55.8087H14.4353C15.3 55.8087 15.7506 54.4205 15.2044 53.7501C14.0116 52.2861 13.2965 50.4175 13.2965 48.3819C13.2965 43.6847 17.1043 39.877 21.8014 39.877C26.4986 39.877 30.3063 43.6847 30.3063 48.3819Z" fill="#1460BC"/>
<path fill-rule="evenodd" clip-rule="evenodd" d="M82.4482 0C84.4853 0 86.1367 1.65138 86.1367 3.68847V25.8193C86.1367 27.8564 84.4853 29.5078 82.4482 29.5078C80.4112 29.5078 78.7598 27.8564 78.7598 25.8193V3.68847C78.7598 1.65138 80.4112 0 82.4482 0Z" fill="#3991FB"/>
<path fill-rule="evenodd" clip-rule="evenodd" d="M97.2021 14.7539C97.2021 16.791 95.5508 18.4424 93.5137 18.4424L71.3829 18.4424C69.3458 18.4424 67.6944 16.791 67.6944 14.7539C67.6944 12.7168 69.3458 11.0654 71.3829 11.0654L93.5137 11.0654C95.5508 11.0654 97.2021 12.7168 97.2021 14.7539Z" fill="#3991FB"/>
</svg>
