<svg width="107" height="96" viewBox="0 0 107 96" fill="none" xmlns="http://www.w3.org/2000/svg">
<circle cx="81.5803" cy="76.9009" r="19.0933" fill="#E3EBF9"/>
<circle cx="39.9224" cy="36.9793" r="32.9793" fill="#E3EBF9"/>
<path d="M91.3005 4V26.9119" stroke="#0D478D" stroke-width="6.71503" stroke-linecap="round" stroke-linejoin="round"/>
<path d="M102.756 15.4551L79.8444 15.4551" stroke="#0D478D" stroke-width="6.71503" stroke-linecap="round" stroke-linejoin="round"/>
<path fill-rule="evenodd" clip-rule="evenodd" d="M8.59208 75.5996C9.77839 75.5996 10.7401 76.5613 10.7401 77.7476V90.6355C10.7401 91.8219 9.77839 92.7835 8.59208 92.7835C7.40578 92.7835 6.44409 91.8219 6.44409 90.6355V77.7476C6.44409 76.5613 7.40578 75.5996 8.59208 75.5996Z" fill="#3991FB"/>
<path fill-rule="evenodd" clip-rule="evenodd" d="M17.1838 84.1929C17.1838 85.3792 16.2221 86.3409 15.0358 86.3409L2.1479 86.3409C0.961595 86.3409 -9.36058e-05 85.3792 -9.3554e-05 84.1929C-9.35021e-05 83.0066 0.961595 82.0449 2.1479 82.0449L15.0358 82.0449C16.2221 82.0449 17.1838 83.0066 17.1838 84.1929Z" fill="#3991FB"/>
<path fill-rule="evenodd" clip-rule="evenodd" d="M23.4096 31.3098C23.4096 32.4239 24.3128 33.3272 25.427 33.3272H75.305C76.4205 33.3272 77.3247 32.4229 77.3247 31.3074V31.3074C77.3247 30.6267 76.9818 29.9918 76.4126 29.6185L55.0375 15.6004C52.2495 13.7719 48.6435 13.767 45.8505 15.5877L24.3253 29.6197C23.7541 29.9921 23.4096 30.6279 23.4096 31.3098V31.3098ZM78.7359 37.3047C78.7359 36.3861 77.9912 35.6414 77.0726 35.6414H23.8481C22.9295 35.6414 22.1848 36.3861 22.1848 37.3047V37.3047C22.1848 38.2233 22.9295 38.9679 23.8481 38.9679H77.0726C77.9912 38.9679 78.7359 38.2233 78.7359 37.3047V37.3047ZM31.7787 41.089C30.1279 41.089 28.7896 42.4272 28.7896 44.0781L28.7896 61.916C28.7896 63.5668 30.1279 64.905 31.7787 64.905V64.905C33.4295 64.905 34.7677 63.5668 34.7677 61.916L34.7677 44.078C34.7677 42.4272 33.4295 41.089 31.7787 41.089V41.089ZM44.4824 64.905C42.8316 64.905 41.4934 63.5668 41.4934 61.916L41.4934 44.078C41.4934 42.4272 42.8316 41.089 44.4824 41.089V41.089C46.1333 41.089 47.4715 42.4272 47.4715 44.0781V61.916C47.4715 63.5668 46.1333 64.905 44.4824 64.905V64.905ZM56.8118 41.089C55.161 41.089 53.8228 42.4272 53.8228 44.0781L53.8228 61.916C53.8228 63.5668 55.161 64.905 56.8118 64.905V64.905C58.4627 64.905 59.8009 63.5668 59.8009 61.916L59.8009 44.078C59.8009 42.4272 58.4627 41.089 56.8118 41.089V41.089ZM69.1418 64.905C67.4909 64.905 66.1527 63.5668 66.1527 61.916V44.078C66.1527 42.4272 67.4909 41.089 69.1418 41.089V41.089C70.7926 41.089 72.1308 42.4272 72.1308 44.078L72.1308 61.916C72.1308 63.5668 70.7926 64.905 69.1418 64.905V64.905Z" fill="#1460BC"/>
<rect x="23.8481" y="66.1338" width="52.6701" height="3.32653" rx="1.66327" fill="#1460BC"/>
<rect x="20.5217" y="71.6797" width="59.3231" height="3.88095" rx="1.94048" fill="#1460BC"/>
</svg>
