<svg width="115" height="91" viewBox="0 0 115 91" fill="none" xmlns="http://www.w3.org/2000/svg">
<circle cx="29.5079" cy="29.5078" r="29.5078" transform="rotate(90 29.5079 29.5078)" fill="#0D478D"/>
<circle cx="41.6581" cy="67.6937" r="22.5648" transform="rotate(90 41.6581 67.6937)" fill="#1460BC"/>
<circle cx="95.4663" cy="62.4868" r="19.0933" transform="rotate(90 95.4663 62.4868)" fill="#E3EBF9"/>
<circle cx="55.5442" cy="36.4507" r="19.0933" transform="rotate(90 55.5442 36.4507)" fill="#E3EBF9"/>
<path fill-rule="evenodd" clip-rule="evenodd" d="M17.3578 12.1514C18.3164 12.1514 19.0936 12.9285 19.0936 13.8871V24.3016C19.0936 25.2603 18.3164 26.0374 17.3578 26.0374C16.3992 26.0374 15.6221 25.2603 15.6221 24.3016V13.8871C15.6221 12.9285 16.3992 12.1514 17.3578 12.1514Z" fill="white"/>
<path fill-rule="evenodd" clip-rule="evenodd" d="M24.3005 19.0941C24.3005 20.0528 23.5234 20.8299 22.5648 20.8299L12.1503 20.8299C11.1917 20.8299 10.4145 20.0528 10.4145 19.0941C10.4145 18.1355 11.1917 17.3584 12.1503 17.3584L22.5648 17.3584C23.5234 17.3584 24.3005 18.1355 24.3005 19.0941Z" fill="white"/>
<path fill-rule="evenodd" clip-rule="evenodd" d="M97.202 5.20703C98.64 5.20703 99.8056 6.37271 99.8056 7.81066V23.4324C99.8056 24.8704 98.64 26.036 97.202 26.036C95.7641 26.036 94.5984 24.8704 94.5984 23.4324V7.81066C94.5984 6.37271 95.7641 5.20703 97.202 5.20703Z" fill="#0D478D"/>
<path fill-rule="evenodd" clip-rule="evenodd" d="M107.616 15.6222C107.616 17.0601 106.451 18.2258 105.013 18.2258L89.3911 18.2258C87.9531 18.2258 86.7874 17.0601 86.7874 15.6222C86.7874 14.1842 87.9531 13.0186 89.3911 13.0186L105.013 13.0186C106.451 13.0186 107.616 14.1842 107.616 15.6222Z" fill="#0D478D"/>
<path d="M93.2984 38.1357C93.56 37.5078 93.4168 36.784 92.9358 36.303L88.5136 31.8807C88.1988 31.5659 88.0219 31.1389 88.0219 30.6937V24.5654C88.0219 23.8877 87.6144 23.2765 86.9888 23.0158L81.2213 20.6127C80.808 20.4405 80.4806 20.1103 80.3119 19.6956L78.0226 14.0675C77.7652 13.435 77.1504 13.0213 76.4675 13.0213H70.2363C69.7846 13.0213 69.3521 12.8394 69.0362 12.5165L64.7409 8.12569C64.2604 7.6346 63.5293 7.48579 62.8951 7.75002L57.1446 10.1461C56.7314 10.3183 56.2665 10.3183 55.8533 10.1461L50.1027 7.75002C49.4686 7.48579 48.7374 7.6346 48.257 8.12569L43.9616 12.5165C43.6458 12.8394 43.2132 13.0213 42.7616 13.0213H36.5201C35.8423 13.0213 35.2311 13.4288 34.9704 14.0544L32.5673 19.822C32.3951 20.2352 32.0649 20.5626 31.6502 20.7313L26.0222 23.0207C25.3896 23.278 24.976 23.8928 24.976 24.5757V30.807C24.976 31.2586 24.794 31.6912 24.4711 32.007L20.0803 36.3024C19.5892 36.7828 19.4404 37.5139 19.7046 38.1481L22.1007 43.8986C22.2729 44.3119 22.2729 44.7768 22.1007 45.19L19.6995 50.9529C19.4378 51.5808 19.581 52.3046 20.062 52.7856L24.4843 57.2079C24.7991 57.5227 24.976 57.9497 24.976 58.3949V64.5232C24.976 65.2009 25.3835 65.8121 26.009 66.0728L31.7843 68.4791C32.193 68.6495 32.5179 68.9744 32.6882 69.3831L35.0945 75.1583C35.3552 75.7839 35.9664 76.1914 36.6442 76.1914H42.8854C43.3372 76.1914 43.7699 76.3735 44.0858 76.6965L48.257 80.9625C48.7374 81.4538 49.4687 81.6028 50.103 81.3385L55.8533 78.9425C56.2665 78.7704 56.7314 78.7704 57.1446 78.9425L62.9075 81.3438C63.5355 81.6054 64.2592 81.4622 64.7403 80.9812L69.1625 76.559C69.4773 76.2441 69.9043 76.0673 70.3495 76.0673H76.4778C77.1555 76.0673 77.7668 75.6598 78.0274 75.0342L80.4338 69.259C80.6041 68.8502 80.929 68.5253 81.3377 68.355L87.1129 65.9487C87.7385 65.688 88.146 65.0768 88.146 64.3991V58.2708C88.146 57.8256 88.3229 57.3986 88.6377 57.0838L92.9358 52.7856C93.4168 52.3046 93.56 51.5808 93.2984 50.9529L90.8972 45.19C90.725 44.7768 90.725 44.3119 90.8972 43.8986L93.2984 38.1357Z" fill="#3991FB"/>
<path fill-rule="evenodd" clip-rule="evenodd" d="M73.708 32.1682C74.9359 33.4116 74.9486 35.4405 73.7363 36.6999L53.1732 58.063C52.5862 58.6729 51.7854 59.0162 50.9498 59.0162C50.1142 59.0162 49.3135 58.6729 48.7264 58.063L39.0875 48.049C37.8752 46.7896 37.8879 44.7607 39.1159 43.5173C40.3438 42.274 42.322 42.287 43.5343 43.5464L50.9498 51.2505L69.2895 32.1973C70.5018 30.9379 72.48 30.9248 73.708 32.1682Z" fill="white"/>
</svg>
