<svg width="537" height="451" viewBox="0 0 537 451" fill="none" xmlns="http://www.w3.org/2000/svg">
<path opacity="0.07" d="M82.6373 410.871C184.918 464.306 350.754 464.306 453.047 410.871C555.34 357.435 555.328 270.806 453.047 217.37C350.767 163.935 184.918 163.923 82.6251 217.37C-19.6677 270.818 -19.6555 357.435 82.6373 410.871Z" fill="url(#paint0_linear)"/>
<path opacity="0.25" d="M353.428 420.686C374.107 420.686 390.871 412.695 390.871 402.838C390.871 392.98 374.107 384.989 353.428 384.989C332.749 384.989 315.986 392.98 315.986 402.838C315.986 412.695 332.749 420.686 353.428 420.686Z" fill="#2F5E97"/>
<path d="M60.6382 94.1897V155.597C60.6382 157.611 62.0543 158.442 63.8123 157.428L206.38 75.1082C207.303 74.5053 208.07 73.694 208.622 72.7397C209.173 71.7854 209.493 70.7149 209.554 69.6145V8.1583C209.554 6.14394 208.126 5.31378 206.38 6.32707L63.8123 88.6472C62.8812 89.2527 62.1077 90.0712 61.5558 91.035C61.0038 91.9988 60.6893 93.0802 60.6382 94.1897V94.1897Z" fill="#D3DEF1"/>
<path d="M70.5633 93.2254L113.292 68.5647C115.258 67.4294 116.833 68.345 116.833 70.6035V113.54C116.765 114.764 116.41 115.956 115.795 117.017C115.179 118.077 114.322 118.978 113.292 119.644L70.5633 144.317C68.61 145.44 67.0229 144.524 67.0229 142.266V99.3539C67.0891 98.1258 67.4442 96.9307 68.0594 95.8658C68.6746 94.8008 69.5325 93.8962 70.5633 93.2254V93.2254Z" fill="#FAFAFA"/>
<path d="M105.161 89.9906L92.4527 116.336L85.9823 112.6C85.361 112.26 84.6321 112.175 83.949 112.362C83.266 112.548 82.6819 112.993 82.3199 113.601L67.0229 139.983V142.291C67.0229 144.549 68.61 145.465 70.5633 144.342L113.292 119.669C114.32 119 115.176 118.1 115.791 117.039C116.406 115.979 116.763 114.789 116.833 113.565V98.4631L108.287 89.5022C108.096 89.2354 107.835 89.0268 107.532 88.8998C107.23 88.7727 106.898 88.7323 106.574 88.7829C106.249 88.8336 105.946 88.9733 105.696 89.1866C105.447 89.3998 105.262 89.6782 105.161 89.9906V89.9906Z" fill="#3991FB"/>
<path d="M73.4445 108.937C76.0846 107.215 78.2818 104.895 79.8577 102.165C81.4337 99.4355 82.3441 96.3726 82.5152 93.2252C82.5152 90.576 81.6606 88.6593 80.2567 87.6338L70.5633 93.2252C69.5357 93.8936 68.6798 94.7944 68.0648 95.8548C67.4497 96.9152 67.0929 98.1054 67.0229 99.3293V109.548C68.6955 110.524 70.9418 110.378 73.4445 108.937Z" fill="#FDC029"/>
<path d="M132.777 61.3251L196.98 24.2488C198.445 23.4064 199.629 24.0046 199.629 25.5917C199.564 26.481 199.291 27.3426 198.83 28.1063C198.37 28.87 197.736 29.5143 196.98 29.9866L132.777 67.0508C131.312 67.8931 130.127 67.2949 130.127 65.7079C130.194 64.8206 130.468 63.9615 130.928 63.2C131.389 62.4386 132.022 61.7963 132.777 61.3251Z" fill="#FAFAFA"/>
<path d="M132.777 74.0097L196.98 36.9333C198.445 36.091 199.629 36.6892 199.629 38.2762C199.564 39.1656 199.291 40.0272 198.83 40.7909C198.37 41.5546 197.736 42.1989 196.98 42.6712L132.777 79.7354C131.312 80.5777 130.127 79.9795 130.127 78.4047C130.192 77.5153 130.465 76.6537 130.926 75.89C131.386 75.1263 132.02 74.4821 132.777 74.0097V74.0097Z" fill="#FAFAFA"/>
<path d="M132.777 86.6932L196.98 49.629C198.445 48.7866 199.629 49.3848 199.629 50.9597C199.564 51.8491 199.291 52.7107 198.83 53.4744C198.37 54.2381 197.736 54.8823 196.98 55.3547L132.777 92.4188C131.312 93.2734 130.127 92.6752 130.127 91.0881C130.192 90.1988 130.465 89.3372 130.926 88.5735C131.386 87.8098 132.02 87.1655 132.777 86.6932Z" fill="#FAFAFA"/>
<path d="M132.777 99.3784L196.98 62.3142C198.445 61.4718 199.629 62.07 199.629 63.6571C199.563 64.5444 199.288 65.4035 198.828 66.1649C198.368 66.9264 197.734 67.5687 196.98 68.0399L132.777 105.177C131.312 106.02 130.127 105.421 130.127 103.834C130.183 102.934 130.452 102.061 130.912 101.286C131.373 100.511 132.012 99.8567 132.777 99.3784V99.3784Z" fill="#FAFAFA"/>
<path d="M30.8501 287.397V197.288C30.9088 196.187 31.2269 195.115 31.7785 194.161C32.3301 193.206 33.0996 192.395 34.0242 191.794L141.847 129.532C143.593 128.519 145.021 129.337 145.021 131.364V221.473C144.96 222.573 144.641 223.643 144.089 224.598C143.538 225.552 142.77 226.363 141.847 226.966L34.0242 289.228C32.2663 290.241 30.8501 289.424 30.8501 287.397Z" fill="#E2EAF7"/>
<path d="M30.8501 282.893V287.397C30.8501 289.424 32.2663 290.242 34.0242 289.229L141.847 226.967C142.77 226.364 143.538 225.553 144.089 224.598C144.641 223.644 144.96 222.573 145.021 221.473V216.956L30.8501 282.893Z" fill="#3991FB"/>
<path d="M83.0159 201.17L94.0032 200.597C95.3461 200.523 95.7124 201.28 94.8212 202.306L82.1979 216.663C81.3067 217.676 80.5864 217.395 80.5864 216.052V203.746C80.5912 203.09 80.8443 202.459 81.295 201.981C81.7456 201.503 82.3604 201.214 83.0159 201.17Z" fill="#3991FB"/>
<path d="M80.1836 224.537C78.867 224.555 77.5694 224.222 76.4235 223.573C73.7133 221.998 72.2239 218.69 72.2239 214.368C72.2239 205.554 78.4379 194.835 86.0802 190.379C89.8526 188.193 93.4052 187.864 96.1398 189.426C98.8744 190.989 100.352 194.31 100.352 198.619C100.352 207.446 94.1254 218.152 86.4953 222.608C84.5961 223.792 82.4199 224.457 80.1836 224.537V224.537ZM92.3919 189.292C90.3053 189.375 88.2766 190.002 86.5075 191.111C79.0971 195.384 73.0784 205.822 73.0784 214.368C73.0784 218.421 74.4214 221.436 76.863 222.84C79.3047 224.244 82.5765 223.915 86.0802 221.888C93.4906 217.603 99.5093 207.238 99.5093 198.619C99.5093 194.566 98.1664 191.563 95.7247 190.147C94.7032 189.575 93.5501 189.281 92.3797 189.292H92.3919Z" fill="#3991FB"/>
<path d="M36.7956 113.553L30.1177 109.719C26.9313 107.583 22.4998 107.668 17.6043 110.501C7.83768 116.116 0 130.363 0 142.327V145.05C0 157.014 16.0904 170.003 16.0904 170.003L22.6585 173.727C22.6585 173.727 18.7152 169.222 19.1669 168.294C23.5252 159.456 35.1841 134.478 35.1841 124.711V121.989C35.2088 120.018 34.9582 118.054 34.4394 116.153L35.1841 116.58L36.7956 113.553ZM17.592 140.985C12.7088 143.792 8.78992 141.509 8.78992 135.906C11.4025 135.491 17.9827 124.259 17.592 120.658C22.4753 117.85 26.382 120.133 26.3942 125.736C26.2287 128.791 25.3455 131.764 23.8162 134.413C22.2868 137.062 20.1544 139.314 17.592 140.985Z" fill="#0D478D"/>
<path d="M36.7954 113.552C36.7224 113.5 36.6448 113.455 36.5634 113.418C33.4259 111.66 29.2385 111.904 24.6238 114.565C17.6651 118.594 11.6465 127.03 8.7531 135.905C7.63423 139.282 7.0413 142.811 6.99512 146.368V149.127C6.99512 158.344 17.4331 169.038 22.231 173.47C22.3348 173.563 22.4449 173.649 22.5606 173.726C22.5606 173.726 22.5606 173.726 22.5606 173.726C22.8427 173.899 23.1579 174.011 23.4858 174.055C23.8138 174.098 24.1472 174.073 24.4647 173.979C24.7821 173.886 25.0765 173.728 25.3289 173.514C25.5813 173.3 25.7861 173.035 25.9301 172.738C30.0809 164.192 42.1548 138.701 42.1548 128.788V126.065C42.2281 119.913 40.1405 115.566 36.7954 113.552ZM15.9804 141.729C15.879 141.148 15.83 140.56 15.8339 139.971C15.9951 136.915 16.8752 133.94 18.4025 131.289C19.9299 128.637 22.0614 126.383 24.6238 124.71C25.1357 124.415 25.6705 124.162 26.2231 123.953C30.325 122.464 33.4259 124.82 33.4259 129.789C33.2615 132.842 32.3786 135.813 30.8491 138.461C29.3196 141.108 27.1866 143.357 24.6238 145.025C20.3143 147.54 16.7251 146.026 15.9804 141.729Z" fill="#3991FB"/>
<path d="M33.4263 129.801C33.2618 132.854 32.3789 135.825 30.8494 138.473C29.3199 141.12 27.187 143.369 24.6241 145.037C20.3146 147.479 16.7254 146.026 15.9807 141.728C16.5401 141.532 17.0797 141.282 17.5922 140.984C20.153 139.312 22.2835 137.06 23.8108 134.411C25.3381 131.762 26.219 128.789 26.3821 125.736C26.3877 125.142 26.3345 124.549 26.2234 123.965C30.3254 122.476 33.4263 124.832 33.4263 129.801Z" fill="#263A52"/>
<g opacity="0.2">
<path opacity="0.2" d="M33.4263 129.801C33.2618 132.854 32.3789 135.825 30.8494 138.473C29.3199 141.12 27.187 143.369 24.6241 145.037C20.3146 147.479 16.7254 146.026 15.9807 141.728C16.5401 141.532 17.0797 141.282 17.5922 140.984C20.153 139.312 22.2835 137.06 23.8108 134.411C25.3381 131.762 26.219 128.789 26.3821 125.736C26.3877 125.142 26.3345 124.549 26.2234 123.965C30.3254 122.476 33.4263 124.832 33.4263 129.801Z" fill="black"/>
</g>
<path d="M161.698 281.379C161.698 281.379 166.105 253.3 156.314 229.152C146.523 205.004 133.326 203.515 126.49 206.945C119.653 210.376 124.048 223.768 130.152 232.765C138.283 244.571 151.712 269.988 151.272 292.818L161.698 281.379Z" fill="#263A52"/>
<path d="M157.303 283.161C157.194 283.157 157.086 283.132 156.986 283.087C156.886 283.041 156.797 282.976 156.723 282.895C156.649 282.814 156.592 282.72 156.555 282.616C156.518 282.513 156.503 282.403 156.51 282.294C158.121 243.85 138.917 215.149 130.628 209.557C130.538 209.496 130.46 209.418 130.399 209.327C130.339 209.236 130.297 209.134 130.276 209.027C130.255 208.92 130.256 208.81 130.277 208.703C130.299 208.596 130.341 208.494 130.402 208.403C130.463 208.313 130.541 208.235 130.632 208.175C130.723 208.114 130.825 208.073 130.932 208.052C131.039 208.031 131.15 208.031 131.257 208.053C131.364 208.074 131.465 208.117 131.556 208.178C141.323 214.697 159.781 244.045 158.158 282.367C158.155 282.476 158.13 282.582 158.085 282.681C158.04 282.78 157.976 282.869 157.897 282.943C157.817 283.017 157.724 283.074 157.622 283.111C157.52 283.149 157.412 283.165 157.303 283.161Z" fill="white"/>
<path d="M159.964 314.72C158.292 310.52 153.97 305.832 142.873 300.827C131.776 295.822 123.425 289.144 121.887 284.309C121.424 282.974 121.363 281.532 121.713 280.162C122.062 278.793 122.806 277.556 123.852 276.606C123.852 276.606 113.39 275.385 112.071 268.976C110.423 260.894 119.567 260.369 119.567 260.369C119.567 260.369 107.567 243.473 104.38 235.952C101.194 228.432 104.869 227.98 112.609 230.849C120.349 233.718 135.096 248.161 137.379 252.568C137.379 252.568 141.371 247.684 145.668 250.895C149.966 254.106 150.173 263.714 147.634 267.181C149.346 266.862 151.115 267.046 152.724 267.711C154.334 268.377 155.717 269.494 156.705 270.929C161.075 276.655 162.516 290.975 162.516 290.975L159.964 314.72Z" fill="#3991FB"/>
<path d="M160.746 310.813C160.56 310.811 160.381 310.747 160.235 310.633C160.089 310.518 159.986 310.358 159.94 310.178C154.007 285.457 125.842 246 108.348 233.45C108.259 233.386 108.183 233.306 108.125 233.213C108.067 233.121 108.028 233.018 108.01 232.91C107.992 232.802 107.995 232.692 108.02 232.586C108.044 232.479 108.089 232.379 108.153 232.29C108.216 232.201 108.296 232.125 108.389 232.067C108.481 232.009 108.584 231.97 108.692 231.952C108.8 231.934 108.91 231.937 109.016 231.962C109.123 231.986 109.223 232.031 109.312 232.094C127.027 244.803 155.545 284.761 161.564 309.788C161.611 310.003 161.573 310.228 161.457 310.415C161.34 310.602 161.155 310.736 160.941 310.789L160.746 310.813Z" fill="white"/>
<path d="M381.727 61.8741C381.581 61.8723 381.439 61.8346 381.312 61.7642L377.881 59.7743C377.787 59.7197 377.704 59.6471 377.637 59.5606C377.571 59.474 377.522 59.3752 377.493 59.2698C377.465 59.1644 377.458 59.0544 377.472 58.9461C377.486 58.8379 377.521 58.7335 377.576 58.6389C377.63 58.5443 377.703 58.4614 377.79 58.3949C377.876 58.3283 377.975 58.2795 378.08 58.2512C378.186 58.2228 378.296 58.2155 378.404 58.2297C378.512 58.2438 378.617 58.2792 378.711 58.3337L382.142 60.3236C382.236 60.378 382.32 60.4506 382.386 60.5371C382.453 60.6237 382.502 60.7225 382.53 60.828C382.558 60.9334 382.566 61.0435 382.551 61.1517C382.537 61.26 382.502 61.3644 382.447 61.459C382.374 61.5854 382.269 61.6903 382.143 61.7632C382.016 61.8361 381.873 61.8743 381.727 61.8741V61.8741Z" fill="white"/>
<path d="M159.964 134.257V315.891C159.964 317.918 161.381 318.736 163.126 317.723L374.988 195.408C375.91 194.805 376.678 193.994 377.23 193.04C377.781 192.086 378.1 191.015 378.162 189.915V8.28061C378.162 6.25404 376.734 5.43609 374.988 6.44937L163.126 128.764C162.205 129.366 161.438 130.178 160.889 131.133C160.339 132.087 160.023 133.158 159.964 134.257V134.257Z" fill="#263A52"/>
<path d="M184.759 167.805C184.759 174.141 189.484 176.534 195.332 173.165L363.28 76.1946V53.292L195.332 150.25C189.484 153.631 184.759 161.481 184.759 167.805Z" fill="#F5F5F5"/>
<path d="M377.564 45.0758C383.399 41.7064 388.136 44.0992 388.136 50.423C388.136 56.7469 383.399 64.609 377.564 67.9785L363.341 76.1946V53.292L377.564 45.0758Z" fill="#FDC029"/>
<path d="M372.436 64.3772C371.828 64.3859 371.229 64.2298 370.703 63.9255C370.054 63.4914 369.535 62.8902 369.199 62.1854C368.864 61.4806 368.726 60.6983 368.798 59.9212C368.886 58.0104 369.431 56.1485 370.386 54.4917C371.342 52.8348 372.681 51.4313 374.292 50.3988C374.907 49.8974 375.659 49.595 376.45 49.5319C377.241 49.4688 378.032 49.648 378.719 50.0456C379.405 50.4432 379.955 51.0403 380.293 51.7577C380.632 52.475 380.745 53.2785 380.616 54.0613C380.525 55.9714 379.979 57.8322 379.023 59.4886C378.068 61.145 376.73 62.549 375.122 63.5837C374.312 64.0789 373.385 64.3526 372.436 64.3772V64.3772ZM376.965 51.2534C376.31 51.2857 375.675 51.4877 375.122 51.8394C373.774 52.7352 372.651 53.9309 371.842 55.3331C371.033 56.7352 370.559 58.3056 370.458 59.9212C370.332 60.4074 370.369 60.9215 370.564 61.3846C370.758 61.8477 371.099 62.2344 371.534 62.4852C371.969 62.736 372.474 62.8372 372.973 62.7732C373.471 62.7092 373.934 62.4836 374.292 62.1309C375.641 61.2365 376.765 60.0411 377.574 58.6387C378.384 57.2363 378.856 55.6652 378.955 54.0491C379.018 53.565 378.951 53.073 378.763 52.6228C378.574 52.1726 378.27 51.7802 377.881 51.4853C377.603 51.326 377.286 51.2457 376.965 51.2534V51.2534Z" fill="white"/>
<path d="M380.005 95.2033L217.636 188.889C216.71 189.489 215.94 190.299 215.388 191.254C214.836 192.209 214.519 193.281 214.462 194.383V244.351C214.462 246.378 215.878 247.196 217.636 246.182L380.005 152.46C380.93 151.859 381.7 151.048 382.251 150.094C382.803 149.139 383.121 148.067 383.18 146.966V97.0345C383.119 95.0079 381.702 94.19 380.005 95.2033Z" fill="#1460BC"/>
<path d="M276.663 163.141L306.084 146.147C307.549 145.305 308.734 145.903 308.734 147.49C308.667 148.377 308.393 149.237 307.933 149.998C307.472 150.759 306.839 151.402 306.084 151.873L276.663 168.867C275.198 169.709 274.013 169.111 274.013 167.524C274.08 166.637 274.354 165.777 274.814 165.016C275.275 164.255 275.908 163.612 276.663 163.141V163.141Z" fill="white"/>
<path d="M274.013 178.976C274.013 180.563 275.234 181.161 276.663 180.319L365.6 128.971C366.353 128.496 366.984 127.851 367.442 127.088C367.9 126.324 368.172 125.464 368.236 124.576C368.236 123.001 367.016 122.403 365.6 123.245L276.663 174.593C275.908 175.064 275.275 175.706 274.814 176.468C274.354 177.229 274.08 178.088 274.013 178.976Z" fill="white"/>
<path d="M274.013 190.427C274.013 192.014 275.234 192.612 276.663 191.77L365.6 140.422C366.353 139.948 366.984 139.303 367.442 138.539C367.9 137.776 368.172 136.915 368.236 136.027C368.236 134.452 367.016 133.854 365.6 134.696L276.663 186.044C275.908 186.515 275.275 187.158 274.814 187.919C274.354 188.681 274.08 189.54 274.013 190.427Z" fill="white"/>
<path d="M274.013 201.878C274.013 203.465 275.234 204.063 276.663 203.221L365.6 151.873C366.353 151.399 366.984 150.754 367.442 149.99C367.9 149.227 368.172 148.366 368.236 147.478C368.236 145.903 367.016 145.305 365.6 146.148L276.663 197.495C275.908 197.966 275.275 198.609 274.814 199.37C274.354 200.132 274.08 200.991 274.013 201.878V201.878Z" fill="white"/>
<path d="M222.641 191.745L260.926 169.636C262.684 168.635 264.1 169.453 264.1 171.467V209.96C264.041 211.061 263.722 212.132 263.171 213.087C262.619 214.041 261.85 214.852 260.926 215.454L222.641 237.551C220.895 238.564 219.467 237.746 219.467 235.731V197.239C219.526 196.138 219.844 195.066 220.395 194.112C220.947 193.157 221.717 192.346 222.641 191.745V191.745Z" fill="white"/>
<path d="M253.65 188.852L242.26 212.463L236.461 209.118C235.901 208.794 235.235 208.707 234.61 208.874C233.985 209.041 233.452 209.449 233.128 210.009L219.467 233.656V235.719C219.467 237.746 220.895 238.564 222.641 237.551L260.926 215.454C261.851 214.853 262.62 214.042 263.172 213.087C263.724 212.133 264.042 211.061 264.1 209.96V196.445L256.397 188.412C256.222 188.188 255.991 188.015 255.726 187.91C255.462 187.806 255.174 187.775 254.894 187.82C254.613 187.865 254.349 187.984 254.131 188.166C253.912 188.347 253.746 188.584 253.65 188.852V188.852Z" fill="#3991FB"/>
<path d="M225.217 205.834C227.584 204.29 229.554 202.21 230.966 199.762C232.379 197.314 233.195 194.568 233.348 191.746C233.429 190.809 233.288 189.866 232.936 188.994C232.583 188.123 232.03 187.346 231.321 186.729L222.641 191.746C221.717 192.347 220.947 193.158 220.395 194.112C219.844 195.067 219.526 196.139 219.467 197.24V206.396C220.944 207.251 222.971 207.128 225.217 205.834Z" fill="#FDC029"/>
<path d="M380.005 169.636L217.636 263.322C216.711 263.923 215.942 264.734 215.39 265.688C214.839 266.643 214.521 267.715 214.462 268.816V318.821C214.462 320.835 215.878 321.653 217.636 320.652L380.005 226.905C380.93 226.304 381.7 225.493 382.251 224.539C382.803 223.584 383.121 222.512 383.18 221.411V171.467C383.119 169.453 381.702 168.66 380.005 169.636Z" fill="#1460BC"/>
<path d="M276.663 237.576L306.084 220.594C307.549 219.751 308.734 220.35 308.734 221.925C308.669 222.814 308.396 223.676 307.935 224.439C307.475 225.203 306.841 225.847 306.084 226.32L276.663 243.301C275.198 244.144 274.013 243.545 274.013 241.97C274.078 241.081 274.351 240.219 274.812 239.456C275.272 238.692 275.906 238.048 276.663 237.576Z" fill="white"/>
<path d="M274.013 253.421C274.013 254.996 275.234 255.594 276.663 254.752L365.6 203.404C366.351 202.931 366.982 202.288 367.44 201.527C367.898 200.765 368.171 199.907 368.236 199.021C368.236 197.434 367.016 196.836 365.6 197.678L276.663 249.026C275.906 249.499 275.272 250.143 274.812 250.907C274.351 251.67 274.078 252.532 274.013 253.421Z" fill="white"/>
<path d="M274.013 264.872C274.013 266.447 275.234 267.045 276.663 266.203L365.6 214.855C366.351 214.382 366.982 213.739 367.44 212.978C367.898 212.217 368.171 211.358 368.236 210.473C368.236 208.885 367.016 208.287 365.6 209.13L276.663 260.477C275.906 260.95 275.272 261.594 274.812 262.358C274.351 263.121 274.078 263.983 274.013 264.872Z" fill="white"/>
<path d="M274.013 276.325C274.013 277.899 275.234 278.498 276.663 277.655L365.6 226.307C366.351 225.834 366.982 225.191 367.44 224.43C367.898 223.669 368.171 222.811 368.236 221.925C368.236 220.338 367.016 219.739 365.6 220.582L276.663 271.93C275.906 272.402 275.272 273.046 274.812 273.81C274.351 274.574 274.078 275.435 274.013 276.325Z" fill="white"/>
<path d="M222.641 266.191L260.926 244.082C262.684 243.069 264.1 243.887 264.1 245.913V284.394C264.044 285.495 263.726 286.568 263.175 287.523C262.623 288.478 261.852 289.288 260.926 289.887L222.641 311.997C220.895 313.01 219.467 312.192 219.467 310.165V271.685C219.526 270.584 219.844 269.512 220.395 268.558C220.947 267.603 221.717 266.792 222.641 266.191V266.191Z" fill="white"/>
<path d="M253.65 263.298L242.26 286.908L236.461 283.551C236.183 283.392 235.876 283.288 235.558 283.247C235.24 283.207 234.917 283.229 234.607 283.313C234.298 283.396 234.008 283.541 233.754 283.736C233.5 283.932 233.288 284.176 233.128 284.455L219.467 308.102V310.165C219.467 312.192 220.895 313.01 222.641 311.996L260.926 289.887C261.851 289.289 262.62 288.481 263.172 287.528C263.724 286.575 264.042 285.505 264.1 284.406V270.879L256.397 262.858C256.225 262.63 255.993 262.453 255.728 262.346C255.463 262.24 255.174 262.207 254.891 262.252C254.609 262.297 254.344 262.419 254.126 262.603C253.907 262.787 253.743 263.027 253.65 263.298V263.298Z" fill="#3991FB"/>
<path d="M225.217 280.267C227.584 278.726 229.554 276.648 230.966 274.202C232.379 271.756 233.195 269.012 233.348 266.191C233.429 265.255 233.288 264.312 232.936 263.44C232.583 262.568 232.03 261.791 231.321 261.174L222.641 266.191C221.717 266.792 220.947 267.603 220.395 268.558C219.844 269.512 219.526 270.584 219.467 271.685V280.841C220.944 281.684 222.971 281.562 225.217 280.267Z" fill="#FDC029"/>
<path d="M378.162 16.0573V8.28061C378.162 6.25404 376.734 5.43609 374.988 6.44937L163.139 128.764C162.214 129.364 161.444 130.175 160.893 131.13C160.341 132.085 160.023 133.156 159.964 134.257V142.046L378.162 16.0573Z" fill="#1460BC"/>
<path d="M352.171 22.6005C351.488 23.049 350.92 23.6516 350.513 24.3599C350.106 25.0682 349.871 25.8623 349.827 26.6781C349.827 28.1797 350.877 28.7901 352.171 28.0332C352.858 27.5909 353.429 26.9916 353.839 26.2848C354.249 25.5779 354.485 24.7837 354.527 23.9678C354.527 22.4662 353.477 21.8558 352.171 22.6005Z" fill="#F1F0EC"/>
<path d="M361.51 17.2779C360.825 17.725 360.254 18.3271 359.845 19.0354C359.436 19.7438 359.199 20.5386 359.154 21.3554C359.154 22.8571 360.216 23.4553 361.51 22.7106C362.197 22.2656 362.769 21.6641 363.178 20.9553C363.588 20.2464 363.824 19.4506 363.866 18.633C363.866 17.0704 362.816 16.4722 361.51 17.2779Z" fill="#F1F0EC"/>
<path d="M370.849 11.833C370.162 12.2752 369.59 12.8745 369.181 13.5814C368.771 14.2882 368.535 15.0824 368.493 15.8983C368.493 17.3999 369.543 18.0103 370.849 17.2656C371.532 16.8172 372.1 16.2145 372.507 15.5062C372.914 14.798 373.149 14.0039 373.193 13.1881C373.193 11.6865 372.143 11.0761 370.849 11.833Z" fill="#F1F0EC"/>
<path d="M381.544 394.781C381.913 395.719 382.167 396.699 382.301 397.699C382.645 398.733 382.724 399.837 382.533 400.909C381.71 402.279 380.403 403.29 378.87 403.742C377.779 403.993 376.648 404.014 375.549 403.804C374.45 403.594 373.406 403.157 372.485 402.521C370.251 401.19 368.579 399.567 365.404 398.675C363.141 398.188 361.009 397.217 359.154 395.831C357.396 394.427 355.052 390.52 358.409 389.617C361.766 388.713 369.079 391.9 375.733 392.193L381.544 394.781Z" fill="#172332"/>
<path d="M381.226 390.386C381.226 390.386 381.617 395.049 381.617 395.623C381.617 397.198 375.806 399.286 374.732 395.623L373.804 390.667L381.226 390.386Z" fill="#F4B68F"/>
<path d="M374.097 288.068C376.095 291.006 377.925 294.055 379.578 297.2C379.578 297.2 380.152 303.988 380.152 308.505C380.152 316.807 378.87 323.216 377.71 339.575C379.599 342.793 380.679 346.42 380.86 350.147C381.348 357.558 381.36 357.472 381.409 391.655C380.297 392.255 379.076 392.627 377.818 392.749C376.56 392.87 375.291 392.739 374.084 392.363L363.097 344.495L361.876 325.706L358.433 302.352L374.097 288.068Z" fill="#263A52"/>
<path d="M348.093 403.339C348.484 403.742 348.35 404.56 348.533 405.903C348.736 406.936 348.789 407.992 348.691 409.04C348.051 410.492 346.893 411.654 345.444 412.3C344.39 412.68 343.27 412.838 342.152 412.764C341.034 412.691 339.944 412.387 338.949 411.873C336.581 410.823 334.713 409.431 331.453 408.93C329.146 408.732 326.91 408.036 324.897 406.892C322.981 405.671 320.161 402.13 323.384 400.787C326.607 399.445 334.688 401.85 341.318 401.312L348.093 403.339Z" fill="#172332"/>
<path d="M349.619 397.478C349.619 397.478 348.398 402.801 348.069 403.985C347.336 406.83 341.024 406.976 341.024 403.692L341.452 396.123L349.619 397.478Z" fill="#F4B68F"/>
<path d="M359.849 289.521C363.011 295.735 366.063 301.217 366.161 307.834C366.393 321.837 360.582 337.256 358.446 347.376C359.082 351.039 359.262 354.767 358.983 358.474C358.555 362.71 348.899 401.202 348.899 401.202C348.899 401.202 343.527 402.326 341.244 399.896L343.954 325.78L344.687 304.257L359.849 289.521Z" fill="#263A52"/>
<path d="M355.503 251.566L357.493 262.59L367.455 261.857L365.368 249.368L355.503 251.566Z" fill="#F4B68F"/>
<path d="M377.966 261.052C376.978 258.061 373.181 254.801 369.421 255.509C363.773 256.469 358.206 257.857 352.769 259.66C349.289 260.881 346.115 263.921 345.822 275.372L344.736 304.183C346.24 305.521 348.045 306.476 349.997 306.967C355.284 308.42 358.775 309.286 366.808 307.528C377.271 305.245 379.761 298.909 379.761 298.909C379.761 298.909 379.358 283.661 379.041 275.372C378.784 268.328 378.638 263.115 377.966 261.052Z" fill="#344E6F"/>
<path d="M351.255 237.489L300.53 223.731C295.939 222.937 294.023 234.144 298.613 234.926L350.706 240.187L351.255 237.489Z" fill="#263238"/>
<path d="M336.666 260.734L326.301 261.052C326.301 261.052 327.864 245.633 328.828 243.606C329.793 241.58 332.1 241.165 334.395 240.518C336.69 239.871 336.678 238.772 336.678 238.772L334.615 238.564C332.808 238.381 332.088 236.123 332.869 234.597C333.248 233.889 333.858 232.765 334.957 233.071L337.691 233.815C337.734 232.609 337.433 231.415 336.825 230.373C335.909 229.359 335.299 229.677 333.467 229.042C332.112 228.566 329.341 227.723 327.107 228.639C324.873 229.555 323.176 233.754 322.602 236.721C322.021 240.151 321.08 243.511 319.794 246.744C317.804 252.238 314.911 263.518 314.606 268.035C314.471 270.123 314.667 271.368 316.986 271.917C319.306 272.467 336.373 272.503 336.373 272.503L336.666 260.734Z" fill="#F4B68F"/>
<path d="M348.13 238.515C348.13 238.515 345.688 242.079 346.03 242.47C346.581 242.838 347.193 243.106 347.837 243.264L348.13 238.515Z" fill="#F4B68F"/>
<path d="M355.491 227.26C353.172 228.481 349.167 230.593 348.056 239.09C346.921 247.806 348.423 250.614 349.595 251.774C350.4 252.555 354.722 252.604 356.919 251.945C359.63 251.139 365.746 248.807 368.542 244.327C371.826 239.053 372.558 231.997 368.859 229.189C366.977 227.761 364.763 226.835 362.424 226.497C360.086 226.16 357.7 226.422 355.491 227.26V227.26Z" fill="#F4B68F"/>
<path d="M362.316 332.457L367.602 317.514C371.699 316.062 375.371 313.612 378.284 310.385C378.284 310.385 377.063 314.645 368.713 319.016L362.914 333.153V341.015L362.316 332.457Z" fill="#263238"/>
<path d="M347.58 230.128C348.337 232.216 349.619 237.343 354.966 239.48C354.966 239.48 355.735 236.22 358.47 236.562C361.205 236.904 361.681 240.408 359.996 242.581C358.311 244.754 356.676 243.972 356.676 243.972C356.676 243.972 356.309 248.648 359.435 250.772C360.598 251.458 361.905 251.865 363.252 251.96C364.6 252.056 365.951 251.837 367.199 251.322C368.994 250.504 371.545 246.194 373.035 242.654C376.184 235.182 376.636 229.225 371.814 227.296C371.216 223.902 369.69 222.62 366.613 221.985C359.996 220.63 354.991 224.976 349.436 224.207C346.592 223.804 346.701 227.736 347.58 230.128Z" fill="#263238"/>
<path d="M371.972 228.481L375.098 226.539C374.825 226.159 374.418 225.896 373.959 225.804C373.5 225.713 373.023 225.799 372.626 226.046C372.228 226.293 371.939 226.682 371.818 227.134C371.697 227.586 371.752 228.068 371.972 228.481V228.481Z" fill="#263238"/>
<path d="M334.347 260.527C334.347 260.527 348.936 259.685 352.659 259.66C356.383 259.636 360.338 265.996 358.018 270.33C356.48 273.175 351.682 274.151 345.639 274.444C339.596 274.737 333.504 274.737 333.504 274.737C333.504 274.737 328.072 268.548 334.347 260.527Z" fill="#344E6F"/>
<path d="M345.823 274.444C345.823 274.444 355.064 274.322 358.092 270.33C358.092 270.33 357.384 272.772 353.794 274.273C351.222 275.262 348.512 275.847 345.761 276.007L345.823 274.444Z" fill="#263A52"/>
<path d="M300.53 223.731C295.939 222.937 294.023 234.144 298.613 234.926L305.938 235.658C302.959 235.353 305.022 224.939 307.293 225.55L300.53 223.731Z" fill="#455A64"/>
<path d="M485.265 220.74C485.266 223.013 484.582 225.233 483.302 227.111C482.022 228.989 480.206 230.438 478.09 231.268C475.975 232.098 473.658 232.272 471.443 231.766C469.227 231.26 467.216 230.098 465.671 228.432L464.926 227.528C463.188 225.211 462.406 222.315 462.742 219.438C463.077 216.561 464.503 213.922 466.727 212.067C468.951 210.211 471.802 209.279 474.693 209.465C477.583 209.65 480.293 210.937 482.261 213.061L483.031 213.989C484.481 215.942 485.264 218.309 485.265 220.74V220.74Z" fill="#455A64"/>
<path d="M485.265 220.74C485.266 223.012 484.581 225.233 483.302 227.111C482.022 228.989 480.206 230.437 478.09 231.268C475.975 232.098 473.658 232.271 471.443 231.765C469.227 231.259 467.216 230.097 465.67 228.431L464.926 227.528L417.851 170.674L437.689 159.223L482.261 213.037L483.031 213.964C484.485 215.923 485.269 218.3 485.265 220.74V220.74Z" fill="#455A64"/>
<path d="M446.32 205.053C448.297 207.126 450.988 208.372 453.848 208.538C456.708 208.704 459.525 207.777 461.728 205.946C463.931 204.115 465.357 201.515 465.717 198.673C466.078 195.831 465.345 192.958 463.668 190.635V190.635L457.845 183.615C459.585 185.934 460.369 188.832 460.033 191.712C459.697 194.591 458.268 197.232 456.041 199.088C453.814 200.943 450.959 201.873 448.066 201.683C445.173 201.494 442.463 200.2 440.497 198.07L446.32 205.053Z" fill="#FDC029"/>
<path d="M436.932 69.8465C440.486 70.242 443.922 71.3595 447.028 73.1305L432.708 64.8045C423.1 58.1998 409.268 58.5905 393.898 67.4537C364.879 84.2156 341.342 124.979 341.342 158.503C341.342 174.971 346.945 186.74 356.187 192.332L356.382 192.454L371.667 201.256C368.957 199.492 366.594 197.245 364.696 194.627C368.462 195.039 372.27 194.82 375.964 193.98C377.307 193.687 378.662 193.333 380.042 192.893C379.861 192.839 379.686 192.769 379.517 192.686C378.782 192.342 378.08 191.933 377.417 191.465C376.215 190.627 375.146 189.615 374.243 188.462C373.009 186.882 372.006 185.135 371.264 183.273C370.27 183.417 369.266 183.49 368.261 183.493C365.885 183.54 363.527 183.07 361.351 182.113C360.842 181.88 360.349 181.615 359.874 181.32C359.447 181.051 359.019 180.734 358.653 180.416C357.77 176.284 357.34 172.068 357.371 167.842C357.371 134.33 380.909 93.5549 409.952 76.793C413.66 74.6298 417.589 72.8699 421.672 71.5434C422.772 71.9929 423.807 72.5883 424.748 73.3136C425.745 74.0784 426.644 74.9642 427.422 75.9506C428.66 77.5339 429.667 79.285 430.413 81.1513C431.412 81.0114 432.42 80.942 433.429 80.9438C436.189 80.8696 438.919 81.5312 441.339 82.8605C441.952 83.1942 442.536 83.5781 443.085 84.008C442.866 83.0314 442.634 82.0669 442.353 81.1513C441.25 77.0842 439.413 73.2529 436.932 69.8465V69.8465Z" fill="#263238"/>
<path d="M447.028 73.1303L446.198 72.6786C443.312 71.1672 440.17 70.2067 436.932 69.8463C433.458 69.4588 429.944 69.6195 426.519 70.3224C424.869 70.6351 423.238 71.0427 421.635 71.5433C417.553 72.8698 413.623 74.6297 409.915 76.7928C380.872 93.5547 357.335 134.33 357.335 167.842C357.304 172.067 357.733 176.284 358.616 180.416C358.775 181.161 358.958 181.869 359.141 182.577C360.229 186.898 362.117 190.977 364.708 194.602C365.865 196.198 367.196 197.659 368.676 198.961C369.62 199.79 370.624 200.549 371.679 201.231C381.263 207.421 394.875 206.884 409.891 198.191C438.934 181.43 462.472 140.666 462.472 107.142C462.46 90.3806 456.563 78.5996 447.028 73.1303ZM441.291 82.8969C441.903 83.2307 442.487 83.6145 443.036 84.0445C443.957 84.7922 444.796 85.6352 445.539 86.5594C449.202 91.1497 451.143 98.2915 451.143 107.179C451.143 136.479 429.656 173.738 404.226 188.425C397.817 192.087 391.652 194.089 386.415 194.089C384.23 194.115 382.062 193.7 380.042 192.869C379.861 192.814 379.686 192.745 379.517 192.661C378.782 192.317 378.08 191.909 377.417 191.44C376.593 190.862 375.832 190.199 375.146 189.463V189.463C374.841 189.145 374.548 188.791 374.255 188.437C373.021 186.858 372.018 185.111 371.276 183.249C369.417 178.322 368.529 173.082 368.664 167.817C368.664 167.427 368.664 167.048 368.664 166.597C369.201 137.419 390.456 101.002 415.556 86.5228C416.129 86.1931 416.715 85.8635 417.301 85.5583C421.349 83.2973 425.769 81.7798 430.352 81.0779C431.351 80.938 432.359 80.8686 433.367 80.8703C435.54 80.8516 437.694 81.2667 439.704 82.0912C440.254 82.3099 440.785 82.5754 441.291 82.8847V82.8969Z" fill="#455A64"/>
<path opacity="0.6" d="M446.235 103.785C446.235 133.085 424.749 170.344 399.319 185.031C392.909 188.693 386.757 190.695 381.507 190.695C379.326 190.721 377.163 190.306 375.146 189.475V189.475C374.841 189.157 374.548 188.803 374.255 188.449C373.021 186.87 372.018 185.123 371.276 183.261C369.417 178.334 368.53 173.094 368.664 167.829C368.664 167.439 368.664 167.06 368.664 166.609C369.201 137.431 390.456 101.014 415.556 86.5348C416.13 86.2052 416.716 85.8756 417.302 85.5704C421.349 83.3094 425.769 81.7919 430.352 81.09C431.351 80.9501 432.359 80.8807 433.368 80.8824C435.54 80.8637 437.694 81.2788 439.704 82.1033C440.033 82.4329 440.339 82.7869 440.631 83.141C444.294 87.7557 446.235 94.8975 446.235 103.785Z" fill="white"/>
<path fill-rule="evenodd" clip-rule="evenodd" d="M442.232 83.3839C442.493 83.5583 442.747 83.7422 442.993 83.9355C443.914 84.6831 444.753 85.5262 445.496 86.4504C449.159 91.0407 451.423 98.1208 451.423 107.008C451.423 136.308 429.851 174.117 404.422 188.804C398.012 192.466 391.957 194.297 386.72 194.297C384.535 194.323 382.02 193.591 379.999 192.76C379.819 192.705 379.643 192.636 379.474 192.552C378.74 192.208 378.037 191.8 377.374 191.331C376.558 190.758 375.803 190.102 375.122 189.373C377.133 190.199 379.29 190.612 381.464 190.586C386.714 190.586 392.867 188.584 399.276 184.922C424.705 170.235 446.192 132.976 446.192 103.676C446.192 94.7886 444.251 87.6468 440.588 83.0321C440.295 82.6781 439.99 82.324 439.661 81.9944C437.651 81.1698 435.497 80.7548 433.325 80.7736C432.316 80.7718 431.308 80.8412 430.309 80.9812C429.343 81.1291 428.384 81.3135 427.434 81.5333C427.454 81.5245 427.475 81.5157 427.495 81.5069C428.425 81.2932 429.363 81.1138 430.309 80.9689C431.308 80.829 432.316 80.7596 433.325 80.7614C435.497 80.7426 437.651 81.1576 439.661 81.9822C440.211 82.2009 440.742 82.4664 441.248 82.7757V82.788C441.585 82.9717 441.913 83.1705 442.232 83.3839Z" fill="#172332"/>
<path fill-rule="evenodd" clip-rule="evenodd" d="M440.775 231.297C443.306 231.297 445.358 233.348 445.358 235.879L445.358 263.372C445.358 265.902 443.306 267.954 440.775 267.954C438.245 267.954 436.193 265.902 436.193 263.372L436.193 235.879C436.193 233.348 438.245 231.297 440.775 231.297Z" fill="#FDC029"/>
<path fill-rule="evenodd" clip-rule="evenodd" d="M459.104 249.625C459.104 252.156 457.053 254.207 454.522 254.207L427.029 254.207C424.499 254.207 422.447 252.156 422.447 249.625C422.447 247.094 424.499 245.043 427.029 245.043L454.522 245.043C457.053 245.043 459.104 247.094 459.104 249.625Z" fill="#FDC029"/>
<path fill-rule="evenodd" clip-rule="evenodd" d="M498.625 160.273C500.127 160.273 501.345 161.492 501.345 162.994L501.345 179.318C501.345 180.82 500.127 182.038 498.625 182.038C497.122 182.038 495.904 180.82 495.904 179.318L495.904 162.994C495.904 161.492 497.122 160.273 498.625 160.273Z" fill="#FDC029"/>
<path fill-rule="evenodd" clip-rule="evenodd" d="M509.507 171.156C509.507 172.659 508.289 173.877 506.787 173.877L490.463 173.877C488.96 173.877 487.742 172.659 487.742 171.156C487.742 169.654 488.96 168.436 490.463 168.436L506.787 168.436C508.289 168.436 509.507 169.654 509.507 171.156Z" fill="#FDC029"/>
<path fill-rule="evenodd" clip-rule="evenodd" d="M530.126 217.55C531.075 217.55 531.845 218.319 531.845 219.268L531.845 229.578C531.845 230.527 531.075 231.296 530.126 231.296C529.178 231.296 528.408 230.527 528.408 229.578L528.408 219.268C528.408 218.319 529.178 217.55 530.126 217.55Z" fill="#FDC029"/>
<path fill-rule="evenodd" clip-rule="evenodd" d="M537 224.423C537 225.372 536.231 226.142 535.282 226.142L524.972 226.142C524.023 226.142 523.254 225.372 523.254 224.423C523.254 223.474 524.023 222.705 524.972 222.705L535.282 222.705C536.231 222.705 537 223.474 537 224.423Z" fill="#FDC029"/>
<path fill-rule="evenodd" clip-rule="evenodd" d="M470.584 75.8584C471.217 75.8584 471.73 76.3713 471.73 77.0039L471.73 83.8771C471.73 84.5098 471.217 85.0226 470.584 85.0226C469.951 85.0226 469.438 84.5098 469.438 83.8771L469.438 77.0039C469.438 76.3713 469.951 75.8584 470.584 75.8584Z" fill="#FDC029"/>
<path fill-rule="evenodd" clip-rule="evenodd" d="M475.166 80.4405C475.166 81.0731 474.653 81.586 474.02 81.586L467.147 81.586C466.515 81.586 466.002 81.0731 466.002 80.4405C466.002 79.8078 466.515 79.2949 467.147 79.2949L474.02 79.2949C474.653 79.2949 475.166 79.8078 475.166 80.4405Z" fill="#FDC029"/>
<path fill-rule="evenodd" clip-rule="evenodd" d="M311.778 -5.00726e-08C312.411 -7.7727e-08 312.923 0.512871 312.923 1.14553L312.923 8.0187C312.923 8.65136 312.411 9.16423 311.778 9.16423C311.145 9.16423 310.632 8.65136 310.632 8.0187L310.632 1.14553C310.632 0.512871 311.145 -2.24183e-08 311.778 -5.00726e-08Z" fill="#FDC029"/>
<path fill-rule="evenodd" clip-rule="evenodd" d="M316.36 4.58205C316.36 5.21471 315.847 5.72758 315.214 5.72758L308.341 5.72758C307.709 5.72758 307.196 5.21471 307.196 4.58205C307.196 3.94939 307.709 3.43652 308.341 3.43652L315.214 3.43652C315.847 3.43652 316.36 3.94939 316.36 4.58205Z" fill="#FDC029"/>
<path fill-rule="evenodd" clip-rule="evenodd" d="M130.013 12.7617C130.804 12.7617 131.445 13.4028 131.445 14.1936L131.445 22.7851C131.445 23.5759 130.804 24.217 130.013 24.217C129.222 24.217 128.581 23.5759 128.581 22.7851L128.581 14.1936C128.581 13.4028 129.222 12.7617 130.013 12.7617Z" fill="#FDC029"/>
<path fill-rule="evenodd" clip-rule="evenodd" d="M135.74 18.4895C135.74 19.2804 135.099 19.9214 134.308 19.9214L125.717 19.9214C124.926 19.9214 124.285 19.2804 124.285 18.4895C124.285 17.6987 124.926 17.0576 125.717 17.0576L134.308 17.0576C135.099 17.0576 135.74 17.6987 135.74 18.4895Z" fill="#FDC029"/>
<defs>
<linearGradient id="paint0_linear" x1="530.112" y1="177.643" x2="76.7323" y2="373.732" gradientUnits="userSpaceOnUse">
<stop stop-color="#3777C5"/>
<stop offset="1" stop-color="#3777C5" stop-opacity="0"/>
</linearGradient>
</defs>
</svg>
