<svg width="118" height="93" viewBox="0 0 118 93" fill="none" xmlns="http://www.w3.org/2000/svg">
<circle cx="38.1865" cy="41.1865" r="38.1865" fill="#E3EBF9"/>
<rect x="45.8237" y="22.0928" width="26.7306" height="59.1891" fill="white"/>
<path d="M95.0342 45.2783C95.2959 44.6504 95.1527 43.9266 94.6717 43.4456L90.2494 39.0234C89.9346 38.7085 89.7577 38.2815 89.7577 37.8363V31.7081C89.7577 31.0303 89.3503 30.4191 88.7247 30.1584L82.9571 27.7553C82.5439 27.5831 82.2165 27.2529 82.0478 26.8382L79.7584 21.2102C79.5011 20.5776 78.8863 20.164 78.2034 20.164H71.9721C71.5205 20.164 71.0879 19.982 70.7721 19.6591L66.4767 15.2683C65.9963 14.7772 65.2652 14.6284 64.631 14.8926L58.8805 17.2887C58.4672 17.4609 58.0023 17.4609 57.5891 17.2887L51.8386 14.8926C51.2044 14.6284 50.4733 14.7772 49.9929 15.2683L45.6975 19.6592C45.3816 19.982 44.9491 20.164 44.4974 20.164H38.2559C37.5782 20.164 36.9669 20.5715 36.7063 21.197L34.3031 26.9646C34.1309 27.3779 33.8008 27.7052 33.3861 27.8739L27.758 30.1633C27.1255 30.4206 26.7118 31.0354 26.7118 31.7183V37.9496C26.7118 38.4012 26.5298 38.8338 26.207 39.1496L21.8162 43.445C21.3251 43.9254 21.1763 44.6566 21.4405 45.2907L23.8366 51.0413C24.0087 51.4545 24.0087 51.9194 23.8366 52.3326L21.4353 58.0955C21.1737 58.7235 21.3169 59.4472 21.7979 59.9283L26.2201 64.3505C26.5349 64.6653 26.7118 65.0923 26.7118 65.5375V71.6658C26.7118 72.3435 27.1193 72.9548 27.7449 73.2154L33.5201 75.6218C33.9288 75.7921 34.2537 76.117 34.4241 76.5257L36.8304 82.3009C37.091 82.9265 37.7023 83.334 38.38 83.334H44.6213C45.0731 83.334 45.5058 83.5161 45.8216 83.8391L49.9928 88.1051C50.4732 88.5964 51.2046 88.7454 51.8388 88.4811L57.5891 86.0852C58.0023 85.913 58.4672 85.913 58.8805 86.0852L64.6434 88.4864C65.2713 88.748 65.9951 88.6048 66.4761 88.1238L70.8983 83.7016C71.2132 83.3868 71.6402 83.2099 72.0854 83.2099H78.2137C78.8914 83.2099 79.5026 82.8024 79.7633 82.1768L82.1696 76.4016C82.3399 75.9929 82.6648 75.668 83.0736 75.4977L88.8488 73.0913C89.4744 72.8307 89.8819 72.2194 89.8819 71.5417V65.4134C89.8819 64.9682 90.0587 64.5412 90.3736 64.2264L94.6717 59.9283C95.1527 59.4472 95.2959 58.7235 95.0342 58.0955L92.633 52.3326C92.4608 51.9194 92.4608 51.4545 92.633 51.0413L95.0342 45.2783ZM62.163 71.8815C61.3473 72.0959 60.7169 72.7955 60.7169 73.6389V76.5082C60.7169 77.1665 60.4554 77.7978 59.9899 78.2633C59.5244 78.7288 58.8931 78.9903 58.2348 78.9903C57.5765 78.9903 56.9451 78.7288 56.4797 78.2633C56.0142 77.7978 55.7527 77.1665 55.7527 76.5082V73.5351C55.7527 72.7374 55.1867 72.0615 54.4275 71.8168C52.1595 71.0858 50.1398 69.7136 48.6208 67.8528C46.8115 65.6364 45.8236 62.8631 45.8242 60.002C45.8242 59.3437 46.0857 58.7124 46.5512 58.2469C47.0167 57.7814 47.648 57.5199 48.3063 57.5199C48.9646 57.5199 49.5959 57.7814 50.0614 58.2469C50.5269 58.7124 50.7884 59.3437 50.7884 60.002C50.7884 61.9769 51.5729 63.871 52.9694 65.2674C54.3659 66.6639 56.2599 67.4484 58.2348 67.4484C62.5785 67.4484 65.6812 64.7181 65.6812 60.8708C65.6812 57.0235 62.9508 55.4101 57.7384 54.1691C47.934 51.9351 45.8242 46.7227 45.8242 42.6272C45.8268 39.8475 46.8325 37.162 48.6565 35.0644C50.1598 33.3356 52.1358 32.1018 54.3252 31.5038C55.1321 31.2835 55.7527 30.5875 55.7527 29.751V26.8657C55.7527 26.2074 56.0142 25.5761 56.4797 25.1106C56.9451 24.6451 57.5765 24.3836 58.2348 24.3836C58.8931 24.3836 59.5244 24.6451 59.9899 25.1106C60.4554 25.5761 60.7169 26.2074 60.7169 26.8657V29.832C60.7169 30.6328 61.287 31.3104 62.0501 31.5528C63.9864 32.1678 65.7493 33.2513 67.1775 34.7157C68.8995 36.4813 70.0558 38.7192 70.5001 41.1433C70.5146 41.2222 70.5347 41.3001 70.5558 41.3775C70.6384 41.6801 70.663 41.9961 70.6278 42.3085C70.5881 42.661 70.4734 43.0008 70.2913 43.3052C70.1092 43.6096 69.8641 43.8714 69.5723 44.073C69.2805 44.2746 68.9489 44.4113 68.5998 44.474C68.2507 44.5367 67.8922 44.5238 67.5485 44.4362C67.2048 44.3487 66.8839 44.1885 66.6073 43.9664C66.3308 43.7444 66.105 43.4656 65.9452 43.149C65.7855 42.8323 65.6954 42.4851 65.6812 42.1308C65.3884 40.399 64.493 38.8265 63.1532 37.691C61.8133 36.5555 60.1152 35.9302 58.3589 35.9254C54.0152 35.9254 50.9125 38.6558 50.9125 42.5031C50.9125 43.7441 50.9125 47.3432 58.8553 49.2048C69.1561 51.5628 70.7695 57.3958 70.7695 60.7467C70.7628 63.5451 69.7396 66.2457 67.8904 68.3461C66.3677 70.0756 64.3703 71.301 62.163 71.8815Z" fill="#1560BC"/>
<path d="M103.104 3.9541V26.866" stroke="#0D478D" stroke-width="6.71503" stroke-linecap="round" stroke-linejoin="round"/>
<path d="M114.56 15.4092L91.6479 15.4092" stroke="#0D478D" stroke-width="6.71503" stroke-linecap="round" stroke-linejoin="round"/>
<path fill-rule="evenodd" clip-rule="evenodd" d="M12.4104 75.5527C13.5967 75.5527 14.5584 76.5144 14.5584 77.7007V90.5887C14.5584 91.775 13.5967 92.7367 12.4104 92.7367C11.2241 92.7367 10.2625 91.775 10.2625 90.5887V77.7007C10.2625 76.5144 11.2241 75.5527 12.4104 75.5527Z" fill="#3991FB"/>
<path fill-rule="evenodd" clip-rule="evenodd" d="M21.0022 84.146C21.0022 85.3323 20.0405 86.294 18.8542 86.294L5.96626 86.294C4.77995 86.294 3.81827 85.3323 3.81827 84.146C3.81827 82.9597 4.77995 81.998 5.96626 81.998L18.8542 81.998C20.0405 81.998 21.0022 82.9597 21.0022 84.146Z" fill="#3991FB"/>
</svg>
