<svg width="113" height="103" viewBox="0 0 113 103" fill="none" xmlns="http://www.w3.org/2000/svg">
<circle cx="69.4302" cy="65.9588" r="32.9793" fill="#E3EBF9"/>
<path fill-rule="evenodd" clip-rule="evenodd" d="M13.8862 0C15.5638 0 16.9238 1.35996 16.9238 3.03756V21.2629C16.9238 22.9405 15.5638 24.3005 13.8862 24.3005C12.2086 24.3005 10.8486 22.9405 10.8486 21.2629V3.03756C10.8486 1.35996 12.2086 0 13.8862 0Z" fill="#3991FB"/>
<path fill-rule="evenodd" clip-rule="evenodd" d="M26.0366 12.1499C26.0366 13.8275 24.6767 15.1874 22.9991 15.1874L4.77367 15.1874C3.09607 15.1874 1.73611 13.8275 1.73611 12.1499C1.73611 10.4723 3.09607 9.1123 4.77367 9.1123L22.9991 9.1123C24.6767 9.1123 26.0366 10.4723 26.0366 12.1499Z" fill="#3991FB"/>
<path fill-rule="evenodd" clip-rule="evenodd" d="M6.94327 88.5244C7.9019 88.5244 8.67902 89.3015 8.67902 90.2602V100.675C8.67902 101.633 7.9019 102.41 6.94327 102.41C5.98464 102.41 5.20752 101.633 5.20752 100.675V90.2602C5.20752 89.3015 5.98464 88.5244 6.94327 88.5244Z" fill="#0D478D"/>
<path fill-rule="evenodd" clip-rule="evenodd" d="M13.886 95.4672C13.886 96.4258 13.1089 97.2029 12.1502 97.2029L1.73573 97.2029C0.777102 97.2029 -2.01449e-05 96.4258 -2.0103e-05 95.4672C-2.00611e-05 94.5086 0.777102 93.7314 1.73573 93.7314L12.1502 93.7314C13.1089 93.7314 13.886 94.5086 13.886 95.4672Z" fill="#0D478D"/>
<path d="M110.425 20.2175C109.789 20.2175 109.179 19.9644 108.729 19.514C108.279 19.0636 108.026 18.4528 108.026 17.8158V12.6522L90.036 28.6233C89.6809 28.9376 89.2408 29.1396 88.7712 29.2037C88.3016 29.2678 87.8235 29.1912 87.3974 28.9835L74.5641 22.499L54.1749 42.9132C53.713 43.2601 53.1416 43.4285 52.5656 43.3875C51.9896 43.3465 51.4478 43.0989 51.0395 42.6901C50.6312 42.2813 50.3839 41.7388 50.343 41.1621C50.302 40.5855 50.4702 40.0134 50.8167 39.5509L72.4053 17.9359C72.7569 17.5767 73.2124 17.3371 73.7073 17.2509C74.2022 17.1647 74.7117 17.2363 75.1638 17.4555L88.117 23.94L103.829 10.0104H100.231C99.5944 10.0104 98.9843 9.75734 98.5344 9.30694C98.0846 8.85654 97.8319 8.24567 97.8319 7.6087C97.8319 6.97174 98.0846 6.36087 98.5344 5.91047C98.9843 5.46007 99.5944 5.20704 100.231 5.20704H112.824V17.8158C112.824 18.4528 112.571 19.0636 112.121 19.514C111.672 19.9644 111.061 20.2175 110.425 20.2175Z" fill="#3991FB"/>
<path fill-rule="evenodd" clip-rule="evenodd" d="M61.1547 35.9246L60.9775 35.9275L60.7812 36.2986L61.1547 35.9246ZM68.3896 35.8076L57.4852 46.7254L57.1989 46.9403C55.7671 48.0155 53.995 48.5381 52.2081 48.4109C50.4211 48.2838 48.7411 47.5156 47.476 46.249C46.2111 44.9825 45.4459 43.3028 45.3192 41.5186C45.1926 39.7344 45.7129 37.9636 46.7858 36.5313L47.0003 36.2449L47.5455 35.6991L34.773 35.699V30.9546C34.7752 29.0679 35.5257 27.259 36.8598 25.9249C38.194 24.5907 40.0028 23.8402 41.8896 23.838H46.6339C48.0491 23.8397 49.4203 24.2623 50.5804 25.0364C50.967 25.2943 51.3303 25.5915 51.6638 25.925C52.0447 26.3059 52.378 26.7255 52.66 27.1745C53.1285 27.9208 53.455 28.7485 53.622 29.6152L57.1908 26.0419C56.6315 24.6848 55.9011 23.4562 55.0168 22.5719C54.7389 22.294 54.4486 22.0312 54.1472 21.7842C53.8011 21.5005 53.4403 21.2375 53.0669 20.9962C51.1646 19.7664 48.9341 19.0965 46.634 19.0938H41.8897C38.7451 19.0975 35.7304 20.3484 33.5068 22.5719C31.2833 24.7955 30.0325 27.8101 30.0287 30.9547V35.6991H13.4233C12.1651 35.6991 10.9583 36.199 10.0686 37.0887C9.17881 37.9784 8.67896 39.1852 8.67896 40.4435V66.5375H34.773V57.0487L53.7506 57.0488V66.5375H79.8447V63.18V40.4434C79.8447 39.8143 79.7197 39.198 79.4836 38.6279C79.2474 38.0577 78.9 37.5336 78.4551 37.0887C78.3439 36.9775 78.2278 36.8724 78.1071 36.7735C77.6755 36.4199 77.1871 36.147 76.6657 35.9648C76.1672 35.7905 75.6385 35.6991 75.1004 35.6991H75.0945L68.3896 35.8076ZM77.4701 85.5131V71.2812H53.7507V76.0256L34.773 76.0255V71.2812H11.0488V85.5131H77.4701ZM39.5154 61.792V71.2807H49.004V61.792H39.5154Z" fill="#1460BC"/>
</svg>
