<svg width="570" height="1688" viewBox="0 0 570 1688" fill="none" xmlns="http://www.w3.org/2000/svg">
<g clip-path="url(#clip0)">
<path fill-rule="evenodd" clip-rule="evenodd" d="M558.642 642.993C560.715 654.812 562.54 666.659 564.119 678.526V97.7599C469.759 98.6487 380.961 122.802 303.184 164.76C333.09 193.365 361.007 224.156 386.686 256.939C474.876 369.527 533.939 502.127 558.642 642.993ZM569.521 731.482C572.449 772.633 572.441 813.888 569.521 854.935V1683.1V1684.69L571.43 1686.6L569.521 1688.51L567.611 1690.42L565.701 1688.51H564.119H7.75422H2.35263V1683.1V1125.16L0.442871 1123.25L2.35263 1121.34V659.501C2.35263 446.22 120.078 260.434 294.092 163.582C222.963 96.6992 140.777 42.1315 50.8689 2.47116L53.0491 -2.47095C144.056 37.6741 227.2 92.9983 299.066 160.846C377.976 117.957 468.202 93.2529 564.119 92.358C565.918 92.3412 567.718 92.3328 569.521 92.3328V97.7344V731.482ZM7.75422 1122.92V659.501C7.75422 447.642 125.032 263.174 298.208 167.477C328.397 196.239 356.559 227.237 382.433 260.27C470.076 372.158 528.772 503.935 553.322 643.926C558.428 673.045 562.025 702.333 564.119 731.675V854.743C559.086 925.261 545.4 995.161 523.177 1062.84C479.116 1197.02 402.845 1318.35 301.054 1416.22L7.75422 1122.92ZM7.75422 1130.56V1683.1H560.299L7.75422 1130.56ZM564.119 1679.28V907.894C557.066 960.91 545.113 1013.35 528.309 1064.52C483.983 1199.51 407.263 1321.57 304.874 1420.04L564.119 1679.28Z" fill="url(#paint0_linear)"/>
</g>
<defs>
<linearGradient id="paint0_linear" x1="572" y1="1690" x2="-2.26639e-05" y2="-2.00005" gradientUnits="userSpaceOnUse">
<stop stop-color="white"/>
<stop offset="1" stop-color="white" stop-opacity="0"/>
</linearGradient>
<clipPath id="clip0">
<rect width="569.869" height="1688" fill="white" transform="translate(0.131226)"/>
</clipPath>
</defs>
</svg>
