<svg width="744" height="594" viewBox="0 0 744 594" fill="none" xmlns="http://www.w3.org/2000/svg">
<path fill-rule="evenodd" clip-rule="evenodd" d="M742 589.172L658.42 505.592C703.708 459.694 734.16 399.122 742 331.652L742 589.172ZM447 592C528.462 592 602.212 558.981 655.596 505.596L447 297L238.403 88.4035C185.019 141.788 152 215.538 152 297C152 459.924 284.076 592 447 592ZM152 331.653C169.163 479.354 294.693 594 447 594C529.014 594 603.264 560.757 657.011 507.011L742 592L744 594L744 591.172L744 297L744 1.99992L744 -7.8156e-05L742 -7.79811e-05L447 -5.21914e-05L152.828 -2.64741e-05L152 -2.64017e-05L150 -2.62268e-05L1.99995 -1.32883e-05L-5.19291e-05 -1.31134e-05L-5.17543e-05 1.99999L-1.74846e-07 592L0 594L2 594L150 594L152 594L152 592L152 331.653ZM152 1.99997L152 262.347C159.921 194.18 190.924 133.054 236.989 86.9893L152 1.99997ZM150 297L150 592L2 592L1.99995 1.99999L150 1.99997L150 297ZM742 1.99992L742 262.347C726.157 126.013 617.987 17.8425 481.652 1.99994L742 1.99992ZM742 297C742 134.076 609.924 1.99993 447 1.99995C366.257 1.99995 293.091 34.4384 239.822 86.994L448.414 295.586L657.006 504.177C709.562 450.909 742 377.743 742 297ZM154.828 1.99997L238.408 85.5798C284.306 40.2924 344.878 9.84017 412.347 1.99995L154.828 1.99997Z" fill="white"/>
</svg>
