<svg width="1165" height="351" viewBox="0 0 1165 351" fill="none" xmlns="http://www.w3.org/2000/svg">
<path fill-rule="evenodd" clip-rule="evenodd" d="M416 0.99997L349 0.999967L348.293 0.292969L347.586 0.999967L1 0.999951L0.999985 347.586L0.292557 348.293L0.999985 349L1.70677 349.707L2.41396 349L583.773 349C607.444 350.407 631.202 350.41 654.923 349L1103 349V283C1103 233.992 1090.5 187.904 1068.51 147.75C1107.3 103.914 1139.59 54.4992 1164.2 1H1162C1137.62 53.7831 1105.73 102.563 1067.48 145.892C1019.32 59.4833 927.027 1.03108 821.085 1H416V0.99997ZM679.816 347C694.233 345.539 708.619 343.553 722.946 341.041C820.097 324.004 911.547 283.27 989.195 222.448C1017.39 200.367 1043.44 175.886 1067.1 149.34C1088.72 189.06 1101 234.596 1101 283V347L679.816 347ZM821 2.99999L348.414 2.99997L187.647 163.767C255.475 234.582 339.684 287.627 432.855 318.221C481.917 334.331 532.669 343.955 583.832 347H654.864C677.515 345.652 700.13 343.011 722.601 339.071C819.428 322.091 910.573 281.493 987.962 220.874C1016.25 198.72 1042.37 174.141 1066.08 147.479C1018.33 61.3231 926.478 2.99999 821 2.99999ZM3 2.99995L345.586 2.99997L2.99998 345.586L3 2.99995ZM558.878 347L4.41396 347L186.233 165.181C254.282 236.218 338.762 289.429 432.231 320.121C473.507 333.675 515.975 342.652 558.878 347Z" fill="#17252F"/>
</svg>
