<svg width="1920" height="1081" viewBox="0 0 1920 1081" fill="none" xmlns="http://www.w3.org/2000/svg">
<path fill-rule="evenodd" clip-rule="evenodd" d="M-482 563.586L-482.707 564.293L-482 565L-481.293 565.707L-480.586 565H-480H-143.5H193H195H529H531V563V-110V-112H529H195L194.293 -112.707L193.586 -112H193H-143.5H-480H-482V-110V226.5V563V563.586ZM-480 263.51V561.586L-383.562 465.148C-436.231 412.168 -471.481 341.852 -480 263.51ZM-382.147 463.733C-442.627 402.896 -480 319.062 -480 226.5C-480 40.6562 -329.344 -110 -143.5 -110C-50.9377 -110 32.8956 -72.6269 93.7334 -12.1475L-382.147 463.733ZM-382.147 466.562L-478.586 563H-180.51C-258.851 554.481 -329.168 519.231 -382.147 466.562ZM-143.5 563C-236.062 563 -319.895 525.627 -380.733 465.147L95.1475 -10.7333C155.627 50.1045 193 133.938 193 226.5C193 412.344 42.3439 563 -143.5 563ZM-106.49 563H193V263.51C175.886 420.892 50.8924 545.886 -106.49 563ZM195 226.5V563H529V-110H195V226.5ZM193 189.49V-108.586L96.5618 -12.1475C149.231 40.8322 184.481 111.149 193 189.49ZM95.1476 -13.5617L191.586 -110H-106.49C-28.1484 -101.481 42.1679 -66.2312 95.1476 -13.5617ZM-180.51 -110C-337.892 -92.8861 -462.886 32.1077 -480 189.49V-110H-180.51Z" fill="url(#paint0_linear)"/>
<path fill-rule="evenodd" clip-rule="evenodd" d="M1918.79 693.075C1919.56 697.451 1920.24 701.838 1920.82 706.232V491.197C1885.88 491.526 1853.01 500.469 1824.21 516.004C1835.28 526.595 1845.62 537.996 1855.13 550.134C1887.78 591.821 1909.65 640.918 1918.79 693.075ZM1922.82 725.839C1923.91 741.075 1923.9 756.351 1922.82 771.549V1078.19V1078.77L1923.53 1079.48L1922.82 1080.19L1922.12 1080.89L1921.41 1080.19H1920.82H1714.82H1712.82V1078.19V871.601L1712.12 870.894L1712.82 870.187V699.187C1712.82 620.217 1756.41 551.429 1820.84 515.568C1794.51 490.804 1764.08 470.6 1730.79 455.915L1731.59 454.085C1765.29 468.949 1796.07 489.434 1822.68 514.555C1851.9 498.675 1885.31 489.528 1920.82 489.196C1921.49 489.19 1922.15 489.187 1922.82 489.187V491.187V725.839ZM1714.82 870.773V699.187C1714.82 620.744 1758.25 552.443 1822.37 517.01C1833.54 527.66 1843.97 539.137 1853.55 551.368C1886 592.796 1907.73 641.587 1916.82 693.42C1918.72 704.202 1920.05 715.046 1920.82 725.91V771.478C1918.96 797.588 1913.89 823.469 1905.66 848.527C1889.35 898.21 1861.11 943.134 1823.42 979.37L1714.82 870.773ZM1714.82 873.601V1078.19H1919.41L1714.82 873.601ZM1920.82 1076.77V791.157C1918.21 810.787 1913.79 830.203 1907.56 849.151C1891.15 899.132 1862.74 944.326 1824.83 980.785L1920.82 1076.77Z" fill="url(#paint1_linear)"/>
<defs>
<linearGradient id="paint0_linear" x1="531" y1="566" x2="-6.50001" y2="-2.00003" gradientUnits="userSpaceOnUse">
<stop stop-color="#A87450" stop-opacity="0"/>
<stop offset="1" stop-color="#A87450"/>
</linearGradient>
<linearGradient id="paint1_linear" x1="1845.5" y1="923.5" x2="1845.5" y2="354.5" gradientUnits="userSpaceOnUse">
<stop stop-color="#A87450"/>
<stop offset="1" stop-color="#A87450" stop-opacity="0"/>
</linearGradient>
</defs>
</svg>
