<svg width="743" height="743" viewBox="0 0 743 743" fill="none" xmlns="http://www.w3.org/2000/svg">
<path fill-rule="evenodd" clip-rule="evenodd" d="M308.556 307.142L612.991 2.70711L4.12132 2.70711L308.556 307.142ZM2.70711 4.12132L2.70711 612.991L307.142 308.556L2.70711 4.12132ZM0.707107 2.12132V2.70711L0.707107 740.163L0.707107 742.163H2.70711H301.191C303.441 742.198 305.692 742.216 307.945 742.216C310.198 742.216 312.449 742.198 314.699 742.163H740.163H742.163V740.163L742.163 322.331C742.326 317.482 742.408 312.622 742.408 307.753C742.408 302.885 742.326 298.025 742.163 293.175V2.70711V0.707107L740.163 0.707107L615.322 0.707107L615.157 0.541478L614.991 0.707107L2.70711 0.707107H2.12132L1.41421 0L0.707107 0.707107L0 1.41421L0.707107 2.12132ZM3.56511 614.961C82.9332 693.6 189.614 738.427 301.207 740.163H314.683C426.942 738.416 534.229 693.063 613.742 613.55C691.41 535.883 736.485 431.714 740.163 322.298V293.208C736.507 184.456 691.956 80.8886 615.153 3.37317L309.359 309.167L3.56511 614.961ZM2.70711 616.926C73.9274 687.241 166.929 730.524 265.751 740.163H2.70711L2.70711 616.926ZM740.163 263.635C730.162 165.619 687.054 73.44 617.307 2.70711L740.163 2.70711V263.635ZM615.157 614.965C686.168 543.953 730.059 450.89 740.163 351.871L740.163 740.163H350.139C449.876 730.435 543.685 686.436 615.157 614.965Z" fill="#17252F"/>
</svg>
