<svg width="23" height="22" viewBox="0 0 23 22" fill="none" xmlns="http://www.w3.org/2000/svg">
<path d="M7.69294 17.7144C7.69294 17.8053 7.58629 17.8781 7.45181 17.8781C7.29879 17.8918 7.19214 17.819 7.19214 17.7144C7.19214 17.6234 7.29879 17.5506 7.43327 17.5506C7.57238 17.537 7.69294 17.6097 7.69294 17.7144ZM6.25081 17.5097C6.21835 17.6006 6.31109 17.7053 6.4502 17.7326C6.57077 17.7781 6.70988 17.7326 6.7377 17.6416C6.76552 17.5506 6.67742 17.446 6.53831 17.405C6.41774 17.3732 6.28327 17.4187 6.25081 17.5097ZM8.3004 17.4323C8.16593 17.4642 8.07318 17.5506 8.0871 17.6552C8.10101 17.7462 8.22157 17.8054 8.36069 17.7735C8.49516 17.7417 8.5879 17.6552 8.57399 17.5642C8.56008 17.4778 8.43488 17.4187 8.3004 17.4323ZM11.3516 0C4.91996 0 0 4.79025 0 11.0999C0 16.1449 3.23669 20.4621 7.85988 21.9815C8.45343 22.0861 8.6621 21.7267 8.6621 21.431C8.6621 21.149 8.64819 19.5932 8.64819 18.6378C8.64819 18.6378 5.40222 19.3202 4.72056 17.2822C4.72056 17.2822 4.19194 15.9584 3.43145 15.6172C3.43145 15.6172 2.36956 14.903 3.50565 14.9166C3.50565 14.9166 4.66028 15.0076 5.29556 16.0903C6.31109 17.8463 8.0129 17.3413 8.67601 17.0411C8.78266 16.3132 9.08407 15.8083 9.41794 15.508C6.82581 15.226 4.21048 14.8575 4.21048 10.4812C4.21048 9.23021 4.5629 8.60243 5.30484 7.80178C5.18427 7.50609 4.79012 6.28692 5.4254 4.71291C6.39456 4.41722 8.625 5.94118 8.625 5.94118C9.55242 5.68643 10.5494 5.55451 11.5371 5.55451C12.5248 5.55451 13.5218 5.68643 14.4492 5.94118C14.4492 5.94118 16.6796 4.41267 17.6488 4.71291C18.2841 6.29147 17.8899 7.50609 17.7694 7.80178C18.5113 8.60698 18.9657 9.23476 18.9657 10.4812C18.9657 14.8712 16.2345 15.2214 13.6423 15.508C14.069 15.8674 14.4306 16.5498 14.4306 17.6188C14.4306 19.1519 14.4167 21.0489 14.4167 21.4219C14.4167 21.7176 14.63 22.077 15.219 21.9724C19.856 20.4621 23 16.1449 23 11.0999C23 4.79025 17.7833 0 11.3516 0ZM4.50726 15.69C4.44698 15.7355 4.46089 15.8401 4.53972 15.9266C4.61391 15.9993 4.72056 16.0312 4.78085 15.972C4.84113 15.9266 4.82722 15.8219 4.74839 15.7355C4.67419 15.6627 4.56754 15.6309 4.50726 15.69ZM4.00645 15.3215C3.97399 15.3807 4.02036 15.4534 4.1131 15.4989C4.1873 15.5444 4.28004 15.5308 4.3125 15.4671C4.34496 15.408 4.29859 15.3352 4.20585 15.2897C4.1131 15.2624 4.03891 15.276 4.00645 15.3215ZM5.50887 16.941C5.43468 17.0002 5.4625 17.1366 5.56915 17.2231C5.67581 17.3277 5.81028 17.3413 5.87056 17.2686C5.93085 17.2094 5.90302 17.0729 5.81028 16.9865C5.70827 16.8819 5.56915 16.8682 5.50887 16.941ZM4.98024 16.2723C4.90605 16.3178 4.90605 16.4361 4.98024 16.5407C5.05444 16.6453 5.17964 16.6908 5.23992 16.6453C5.31411 16.5862 5.31411 16.4679 5.23992 16.3633C5.175 16.2586 5.05444 16.2132 4.98024 16.2723Z" fill="#A9AFC7"/>
</svg>
