<svg width="45" height="41" viewBox="0 0 45 41" fill="none" xmlns="http://www.w3.org/2000/svg">
<path fill-rule="evenodd" clip-rule="evenodd" d="M9.11351 14.4038L22.4998 40.394L0 14.4038H9.11351Z" fill="#516071"/>
<path fill-rule="evenodd" clip-rule="evenodd" d="M35.8864 14.4038L22.5 40.394L44.9999 14.4038H35.8864Z" fill="#516071"/>
<path fill-rule="evenodd" clip-rule="evenodd" d="M9.11365 14.4038H35.8863L22.5 40.394L9.11365 14.4038Z" fill="#A6B1BE"/>
<path fill-rule="evenodd" clip-rule="evenodd" d="M22.5 0L9.81819 1.32971L9.11365 14.4037L22.5 0Z" fill="#C5CCD5"/>
<path fill-rule="evenodd" clip-rule="evenodd" d="M22.5001 0L35.1819 1.32971L35.8865 14.4037L22.5001 0Z" fill="#C5CCD5"/>
<path fill-rule="evenodd" clip-rule="evenodd" d="M44.9999 14.4036L35.1818 1.32959L35.8864 14.4036H44.9999Z" fill="#A6B1BE"/>
<path fill-rule="evenodd" clip-rule="evenodd" d="M0 14.4036L9.81805 1.32959L9.11351 14.4036H0Z" fill="#A6B1BE"/>
<path fill-rule="evenodd" clip-rule="evenodd" d="M22.5 0L9.11365 14.4037H35.8863L22.5 0Z" fill="#EAEDF0"/>
</svg>
