<svg width="29" height="18" viewBox="0 0 29 18" fill="none" xmlns="http://www.w3.org/2000/svg">
<path d="M11.6806 8.06536C13.2816 7.30767 14.1174 6.16117 14.1174 4.37663C14.1174 0.85738 11.4691 0 8.41302 0H0V17.666H8.64965C11.892 17.666 14.938 16.1257 14.938 12.5367C14.938 10.3185 13.8757 8.67848 11.6806 8.06536ZM3.92205 3.01578H7.60243C9.01719 3.01578 10.291 3.40958 10.291 5.03462C10.291 6.53503 9.29913 7.13819 7.89948 7.13819H3.92205V3.01578ZM8.11597 14.6652H3.92205V9.80006H8.19653C9.92344 9.80006 11.016 10.5129 11.016 12.3223C11.016 14.1069 9.71198 14.6652 8.11597 14.6652ZM26.1655 2.66685H18.9306V0.927167H26.1655V2.66685ZM29 11.455C29 7.67156 26.7646 4.5162 22.7116 4.5162C18.7745 4.5162 16.101 7.44724 16.101 11.2855C16.101 15.2683 18.6335 18 22.7116 18C25.7979 18 27.7967 16.6242 28.7583 13.6981H25.6267C25.2894 14.7898 23.8998 15.368 22.8224 15.368C20.7431 15.368 19.6505 14.1617 19.6505 12.113H28.9698C28.9849 11.9036 29 11.6793 29 11.455ZM19.6556 9.89975C19.7714 8.21988 20.8991 7.1681 22.6009 7.1681C24.3832 7.1681 25.2793 8.20493 25.4304 9.89975H19.6556Z" fill="#A9AFC7"/>
</svg>
