<svg width="32" height="45" viewBox="0 0 32 45" fill="none" xmlns="http://www.w3.org/2000/svg">
<path fill-rule="evenodd" clip-rule="evenodd" d="M12.3369 0H7.50293V6.06445H12.3369V4.04297H9.52441V2.02148H12.3369V0ZM18.1377 0H13.3037V3.95508H16.1162V4.30664H13.3037V6.15234H18.1377V2.10937H15.3252V1.75781H18.1377V0ZM19.1045 0H23.9385V1.75781H21.126V2.10937H23.9385V6.15234H19.1045V4.30664H21.917V3.95508H19.1045V0ZM2.90136 41.3856L15.9209 45L28.9765 41.3805L31.8809 8.84351H0L2.90136 41.3856ZM6.29534 19.4867L5.93253 15.4955H15.9267H15.9405H25.9246L25.204 23.5737L25.1067 24.6454L24.1688 35.1528L24.1087 35.8271L15.9405 38.091V38.0916L15.9221 38.0967L7.74654 35.8271L7.18738 29.5605H9.03396H11.1939L11.478 32.7436L15.923 33.9438L15.9267 33.9429V33.9425L20.3781 32.741L20.8413 27.5648L15.9404 27.5648H7.00899L6.65128 23.5737L15.9267 23.5737H21.1874L21.5506 19.4867H15.9405H15.9267H6.29534Z" fill="#516071"/>
<path fill-rule="evenodd" clip-rule="evenodd" d="M16 44.978L28.9765 41.3805L31.8809 8.84351H16V15.4955H25.9246L25.204 23.5737L25.1067 24.6454L24.1688 35.1528L24.1087 35.8271L16 38.0745V44.978ZM16 33.9227L20.3781 32.741L20.8413 27.5648L16 27.5648V33.9227ZM16 23.5737H21.1874L21.5506 19.4867H16V23.5737ZM16 6.15234H18.1377V2.10937H16V3.95508H16.1162V4.30664H16V6.15234ZM16 0V1.75781H18.1377V0H16ZM23.9385 0H19.1045V3.95508H21.917V4.30664H19.1045V6.15234H23.9385V2.10937H21.126V1.75781H23.9385V0Z" fill="#66798E"/>
</svg>
