<svg width="44" height="44" viewBox="0 0 44 44" fill="none" xmlns="http://www.w3.org/2000/svg">
<path fill-rule="evenodd" clip-rule="evenodd" d="M20.0049 0.0918365C18.9099 0.214676 17.9946 0.358069 17.1634 0.537069C16.5543 0.668251 14.9327 1.13561 14.6544 1.26026C14.5879 1.29 14.3974 1.36176 14.2312 1.41961C13.5708 1.64945 11.9777 2.3964 11.2688 2.80863C11.0692 2.92464 10.8671 3.03799 10.8196 3.0606C10.7037 3.11555 10.1387 3.48159 10.047 3.56108C10.0069 3.5959 9.95247 3.62492 9.92611 3.62558C9.88706 3.62661 9.14034 4.14644 8.91091 4.33233C8.87766 4.35929 8.61545 4.56375 8.32828 4.78669C7.65351 5.31045 7.31416 5.61628 6.46352 6.46679C5.61294 7.31735 5.30708 7.65667 4.78328 8.33138C4.56031 8.61853 4.35584 8.88071 4.32888 8.91396C4.14297 9.14338 3.62309 9.89003 3.62207 9.92908C3.6214 9.95544 3.59238 10.0098 3.55756 10.05C3.47806 10.1417 3.11198 10.7066 3.05703 10.8224C3.03442 10.87 2.92106 11.0721 2.80504 11.2716C2.39278 11.9805 1.64576 13.5735 1.4159 14.2338C1.35805 14.4 1.28628 14.5904 1.25654 14.6569C1.13187 14.9353 0.664476 16.5567 0.533282 17.1657C-0.177761 20.4668 -0.177761 23.537 0.533282 26.8381C0.664476 27.4472 1.13187 29.0686 1.25654 29.3469C1.28628 29.4134 1.35805 29.6038 1.4159 29.7701C1.64576 30.4304 2.39278 32.0234 2.80504 32.7322C2.92106 32.9317 3.03442 33.1339 3.05703 33.1814C3.11198 33.2972 3.47806 33.8621 3.55756 33.9538C3.59238 33.994 3.6214 34.0484 3.62207 34.0748C3.62309 34.1138 4.14297 34.8605 4.32888 35.0899C4.35584 35.1231 4.56031 35.3853 4.78328 35.6725C5.30104 36.3394 5.60381 36.6748 6.46479 37.5358C7.32583 38.3967 7.66131 38.6994 8.32828 39.2171C8.61545 39.4401 8.87766 39.6445 8.91091 39.6715C9.14034 39.8574 9.88706 40.3772 9.92611 40.3782C9.95247 40.3789 10.0069 40.4079 10.047 40.4428C10.1387 40.5222 10.7037 40.8883 10.8196 40.9432C10.8671 40.9658 11.0692 41.0792 11.2688 41.1952C11.9777 41.6074 13.5708 42.3544 14.2312 42.5842C14.3974 42.6421 14.5879 42.7138 14.6544 42.7436C14.9327 42.8682 16.5543 43.3356 17.1634 43.4668C20.4648 44.1777 23.5352 44.1777 26.8366 43.4668C27.4457 43.3356 29.0673 42.8682 29.3456 42.7436C29.4121 42.7138 29.6026 42.6421 29.7688 42.5842C30.4292 42.3544 32.0223 41.6074 32.7312 41.1952C32.9308 41.0792 33.1329 40.9658 33.1804 40.9432C33.2963 40.8883 33.8613 40.5222 33.953 40.4428C33.9931 40.4079 34.041 40.3795 34.0594 40.3795C34.0778 40.3795 34.2353 40.2797 34.4095 40.1577C34.5838 40.0357 34.808 39.8792 34.9077 39.8101C35.0075 39.7408 35.1027 39.6699 35.1193 39.6523C35.1359 39.6348 35.3846 39.4385 35.6717 39.2161C36.3368 38.7012 36.6718 38.399 37.5352 37.5358C38.3985 36.6725 38.7008 36.3374 39.2157 35.6725C39.4381 35.3853 39.6344 35.1367 39.652 35.1201C39.6695 35.1035 39.7405 35.0083 39.8097 34.9085C39.8789 34.8088 40.0353 34.5846 40.1573 34.4104C40.2793 34.2362 40.3791 34.0786 40.3791 34.0602C40.3791 34.0419 40.4076 33.994 40.4424 33.9538C40.5219 33.8621 40.888 33.2972 40.943 33.1814C40.9656 33.1339 41.0793 32.9317 41.1957 32.7322C41.6015 32.037 42.3534 30.4328 42.5841 29.7701C42.642 29.6038 42.7137 29.4134 42.7435 29.3469C42.8681 29.0686 43.3355 27.4472 43.4667 26.8381C44.1778 23.537 44.1778 20.4668 43.4667 17.1657C43.3355 16.5567 42.8681 14.9353 42.7435 14.6569C42.7137 14.5904 42.642 14.4 42.5841 14.2338C42.3542 13.5735 41.6072 11.9805 41.195 11.2716C41.0789 11.0721 40.9656 10.87 40.943 10.8224C40.888 10.7066 40.5219 10.1417 40.4424 10.05C40.4076 10.0098 40.3791 9.96197 40.3791 9.94359C40.3791 9.92521 40.2793 9.76767 40.1573 9.59345C40.0353 9.41922 39.8789 9.19507 39.8097 9.09532C39.7405 8.99557 39.6695 8.90036 39.652 8.88374C39.6344 8.86711 39.4381 8.61853 39.2157 8.33138C38.6907 7.65347 38.3839 7.31306 37.5348 6.46649C36.6646 5.59869 36.3314 5.29854 35.6717 4.78772C35.3846 4.56538 35.1359 4.36903 35.1193 4.3515C35.1027 4.33397 35.0075 4.26299 34.9077 4.19378C34.808 4.12462 34.5838 3.96817 34.4095 3.84617C34.2353 3.72418 34.0778 3.62437 34.0594 3.62437C34.041 3.62437 33.9931 3.5959 33.953 3.56108C33.8613 3.48159 33.2963 3.11555 33.1804 3.0606C33.1329 3.03799 32.9308 2.92464 32.7312 2.80863C32.0223 2.3964 30.4292 1.64945 29.7688 1.41961C29.6026 1.36176 29.4121 1.29 29.3456 1.26026C29.1581 1.17629 28.414 0.950442 27.5621 0.71891C25.3027 0.104773 22.1913 -0.153359 20.0049 0.0918365ZM22.9976 2.23754C24.8855 2.39332 26.3423 2.61609 26.9272 2.83843C27.0147 2.87174 27.1457 2.89913 27.2184 2.89931C27.2911 2.89955 27.4284 2.94036 27.5237 2.98999C27.6189 3.03968 27.7509 3.0803 27.8168 3.0803C27.8828 3.0803 28.0226 3.11809 28.1273 3.16433C28.3274 3.25253 29.035 3.51647 29.4968 3.67509C29.794 3.7772 31.9778 4.86595 32.0324 4.93928C32.051 4.96418 32.1886 5.05051 32.3383 5.13115C32.4879 5.2118 32.6239 5.29486 32.6406 5.31571C32.6572 5.33657 32.7796 5.41842 32.9126 5.49755C33.1624 5.64621 34.5496 6.68569 34.817 6.92453C34.9002 6.99883 35.0433 7.12657 35.1351 7.20848L35.3021 7.35731L34.984 7.39177C34.0655 7.49128 33.479 7.75533 32.8789 8.33966C32.46 8.7476 32.1453 9.25455 31.941 9.85098C31.7809 10.3182 31.7792 11.4778 31.9378 12.0273C32.0002 12.2434 32.0886 12.5059 32.1343 12.6107C32.18 12.7155 32.218 12.8243 32.2189 12.8525C32.2212 12.9302 32.6537 13.776 32.8396 14.0663C32.9296 14.207 33.0033 14.3381 33.0033 14.3577C33.0033 14.3773 33.0849 14.512 33.1847 14.6569C33.2844 14.8019 33.366 14.9347 33.366 14.952C33.366 14.9692 33.4438 15.1004 33.5388 15.2433C33.6338 15.3863 33.8281 15.7209 33.9705 15.9869C34.1129 16.2529 34.2482 16.4977 34.2712 16.531C34.3569 16.6549 34.7545 17.6391 34.9051 18.1006C35.233 19.105 35.3208 19.7031 35.3227 20.944C35.3245 22.0894 35.3158 22.1635 35.0508 23.2714C35.015 23.421 34.9505 23.6931 34.9074 23.8759C34.8643 24.0588 34.7836 24.3581 34.728 24.5409C34.6724 24.7238 34.5998 24.9822 34.5667 25.1152C34.5335 25.2482 34.483 25.4013 34.4543 25.4554C34.4256 25.5095 34.3828 25.6566 34.3592 25.7822C34.3357 25.9079 34.2796 26.0813 34.2345 26.1675C34.1895 26.2537 34.1526 26.3713 34.1524 26.4289C34.1522 26.4863 34.1154 26.636 34.0706 26.7613C33.8718 27.3181 33.8353 27.4296 33.7591 27.7147C33.6827 28.0007 33.6012 28.2778 33.3992 28.9388C33.3509 29.0968 33.2549 29.4164 33.1857 29.6492C33.0331 30.1632 32.9187 30.5451 32.7916 30.9647C32.7388 31.1388 32.6673 31.3902 32.6327 31.5232C32.5981 31.6562 32.547 31.8194 32.5192 31.8859C32.4913 31.9524 32.41 32.2108 32.3384 32.4602C31.9244 33.9031 31.9078 33.9454 31.8186 33.7862C31.7733 33.7052 31.7073 33.5302 31.672 33.3972C31.6367 33.2642 31.5836 33.101 31.5541 33.0345C31.5246 32.968 31.3994 32.6007 31.2759 32.2184C31.1524 31.836 31.0293 31.4688 31.0025 31.4023C30.9756 31.3358 30.8011 30.8189 30.6147 30.2537C30.4284 29.6884 30.2527 29.1716 30.2244 29.1051C30.169 28.975 30.0071 28.4931 29.92 28.1983C29.8015 27.7977 29.2962 26.3122 29.2177 26.1338C29.1717 26.029 29.134 25.8916 29.134 25.8285C29.134 25.7653 29.1084 25.6879 29.077 25.6563C29.0457 25.6247 28.9929 25.49 28.9597 25.357C28.9265 25.224 28.6239 24.3127 28.2871 23.3319C27.9504 22.351 27.648 21.4408 27.6153 21.3091C27.5825 21.1774 27.5331 21.0414 27.5055 21.0068C27.4778 20.9723 27.4359 20.8537 27.4122 20.7435C27.3887 20.6332 27.3313 20.4699 27.2847 20.3808C27.2382 20.2915 27.2 20.1719 27.1997 20.1148C27.1995 20.0578 27.1621 19.9217 27.1166 19.8126C27.0184 19.577 26.9427 19.3563 26.7377 18.7073C26.6537 18.4413 26.5611 18.1692 26.5318 18.1027C26.5026 18.0362 26.3272 17.5194 26.142 16.9541C25.9568 16.3889 25.779 15.8792 25.7466 15.8215C25.7143 15.7638 25.6879 15.6727 25.6879 15.619C25.6879 15.5654 25.6503 15.4358 25.6042 15.331C25.4966 15.0863 24.9742 13.5218 24.8954 13.2084C24.8622 13.0768 24.8043 12.9319 24.7667 12.8865C24.6604 12.7586 24.7877 12.7139 25.3752 12.6731C27.2897 12.5399 27.4691 12.4866 27.6571 11.9942C27.7474 11.7577 27.7509 11.6889 27.683 11.4833C27.6399 11.3525 27.538 11.1834 27.4567 11.1075C27.3132 10.9733 27.2787 10.9698 26.2717 10.9844C25.7012 10.9927 24.9352 11.0318 24.5695 11.0713C23.6833 11.1671 19.5802 11.1674 18.7051 11.0718C18.3393 11.0318 17.5639 10.9924 16.982 10.9842C15.9549 10.9698 15.92 10.9733 15.7877 11.1057C15.4432 11.4501 15.4752 12.1634 15.8452 12.3884C16.0439 12.5093 16.1618 12.5286 17.3448 12.6349C17.7604 12.6722 18.1549 12.7128 18.2216 12.7251C18.3163 12.7427 18.4061 12.922 18.635 13.5511C18.991 14.5296 19.0855 14.7801 19.1948 15.0368C19.2413 15.146 19.2794 15.2643 19.2794 15.2997C19.2794 15.3352 19.3171 15.4498 19.3632 15.5546C19.4093 15.6594 19.5076 15.9219 19.5817 16.138C19.6558 16.3541 19.7541 16.6167 19.8002 16.7215C19.8463 16.8262 19.884 16.9538 19.884 17.005C19.884 17.0562 19.9091 17.1137 19.9398 17.1326C19.9705 17.1516 20.0141 17.2552 20.0369 17.3629C20.0595 17.4706 20.1122 17.6403 20.1539 17.74C20.3214 18.1406 20.3679 18.2652 20.5195 18.7186C20.6064 18.9784 20.7023 19.2453 20.7326 19.3118C20.7629 19.3783 20.8453 19.5959 20.9155 19.7954C20.9858 19.9949 21.0773 20.2397 21.1188 20.3395C21.1603 20.4392 21.2453 20.6777 21.3077 20.8695C21.4056 21.1703 21.4104 21.2449 21.3425 21.4135C21.2993 21.521 21.2406 21.6906 21.2121 21.7903C21.1356 22.0586 20.6058 23.645 20.5459 23.7853C20.5175 23.8518 20.4679 24.0014 20.4358 24.1178C20.3603 24.3915 20.2442 24.7249 20.179 24.8562C20.1505 24.9133 20.1013 25.0629 20.0695 25.1887C20.0055 25.4423 19.6598 26.4974 19.5787 26.687C19.5502 26.7535 19.5006 26.9031 19.4685 27.0195C19.3929 27.2932 19.2769 27.6266 19.2116 27.758C19.1832 27.815 19.134 27.9646 19.1022 28.0904C19.0246 28.3975 18.5009 29.9633 18.3958 30.2024C18.3497 30.3071 18.3121 30.4445 18.3121 30.5076C18.3121 30.5708 18.2895 30.6482 18.262 30.6799C18.2345 30.7114 18.0557 31.227 17.8647 31.8254C17.6737 32.4239 17.4925 32.9603 17.4621 33.0173C17.4316 33.0744 17.3805 33.224 17.3484 33.3498C17.2437 33.7608 17.1347 34.0325 17.0818 34.0148C17.0306 33.9978 16.904 33.693 16.7999 33.3368C16.698 32.9876 16.5494 32.55 16.5016 32.4582C16.475 32.4072 16.4328 32.2721 16.4077 32.1579C16.3826 32.0437 16.3386 31.9086 16.31 31.8577C16.2814 31.8067 16.148 31.4249 16.0135 31.0093C15.879 30.5937 15.7459 30.1993 15.7176 30.1328C15.67 30.0206 14.894 27.6946 14.6992 27.0799C14.6518 26.9303 14.5903 26.7535 14.5625 26.687C14.5347 26.6205 14.4532 26.3757 14.3813 26.1429C14.3095 25.9102 14.2123 25.634 14.1653 25.5293C14.1184 25.4245 14.08 25.2871 14.08 25.224C14.08 25.1608 14.0544 25.0834 14.023 25.0517C13.9917 25.0202 13.9391 24.8855 13.9062 24.7525C13.8476 24.5157 13.1459 22.3915 13.0476 22.153C13.0202 22.0865 12.8861 21.6921 12.7497 21.2765C12.6134 20.8609 12.4795 20.4791 12.4522 20.4282C12.4249 20.3772 12.3824 20.2412 12.3577 20.1259C12.333 20.0106 12.2927 19.8891 12.2682 19.8559C12.2436 19.8226 12.1948 19.6866 12.1598 19.5536C12.0971 19.3162 11.9938 19.0069 11.897 18.7677C11.8702 18.7012 11.7359 18.2932 11.5987 17.8609C11.4616 17.4287 11.3245 17.0206 11.2943 16.9541C11.264 16.8876 11.0896 16.3708 10.9067 15.8055C10.7239 15.2403 10.5503 14.7361 10.5211 14.6852C10.4919 14.6342 10.4474 14.4991 10.4223 14.3849C10.3973 14.2707 10.3551 14.1356 10.3288 14.0846C10.2279 13.89 9.90556 12.8063 9.93452 12.7595C9.95126 12.7324 10.2175 12.6929 10.5262 12.6717C12.3298 12.548 12.5948 12.4813 12.774 12.1055C12.9554 11.725 12.8749 11.3169 12.573 11.0876C12.4297 10.9787 12.3315 10.9707 11.3292 10.9871C10.7307 10.9969 10.0097 11.031 9.72709 11.063C9.44445 11.0951 8.38613 11.1392 7.37528 11.161L5.53743 11.2008L5.57914 11.0345C5.60212 10.9431 5.64686 10.8367 5.67866 10.7979C5.71046 10.7592 5.97272 10.4147 6.26141 10.0323C6.55015 9.64997 6.85625 9.25618 6.94174 9.15728C7.14367 8.92357 8.92028 7.14712 9.15425 6.94497C9.48193 6.66175 10.8414 5.64391 11.0874 5.49755C11.2204 5.41842 11.3428 5.33657 11.3594 5.31571C11.3761 5.29486 11.5121 5.2118 11.6617 5.13115C11.8114 5.05051 11.9484 4.96509 11.9663 4.94127C12.0046 4.89031 14.0271 3.86806 14.2916 3.76595C14.3914 3.72745 14.7245 3.59826 15.0318 3.47881C15.3392 3.35935 15.6301 3.26166 15.6782 3.26166C15.7264 3.26166 15.7811 3.23681 15.7998 3.20647C15.8186 3.17612 15.9449 3.13253 16.0804 3.10962C16.216 3.08677 16.3994 3.03013 16.4882 2.98382C16.5769 2.93757 16.7089 2.89955 16.7816 2.89931C16.8543 2.89913 16.9853 2.87174 17.0728 2.83843C17.44 2.69885 18.7615 2.45619 19.7026 2.3556C21.4096 2.17309 21.9726 2.1529 22.9976 2.23754ZM39.8472 13.4702C40.2611 14.3403 40.2391 14.2895 40.5264 15.0343C40.6449 15.3417 40.7419 15.6325 40.7419 15.6806C40.7419 15.7288 40.7667 15.7835 40.7971 15.8023C40.8274 15.8211 40.8713 15.9519 40.8946 16.093C40.9179 16.2341 40.9597 16.378 40.9875 16.4127C41.0154 16.4473 41.0778 16.6513 41.1262 16.8661C41.1746 17.0807 41.2592 17.4468 41.3142 17.6796C41.5264 18.5784 41.6486 19.4993 41.7695 21.1102C41.8732 22.4934 41.6705 24.815 41.3142 26.3243C41.2593 26.557 41.1796 26.899 41.1372 27.0842C41.0947 27.2694 41.0328 27.4735 40.9996 27.5376C40.9664 27.6017 40.9201 27.7596 40.8968 27.8884C40.8736 28.0171 40.8314 28.1667 40.8031 28.2208C40.7748 28.2749 40.6895 28.496 40.6135 28.7121C40.5377 28.9283 40.4404 29.1731 40.3975 29.2562C40.3545 29.3393 40.3193 29.4359 40.319 29.4709C40.3189 29.5058 40.2847 29.6137 40.2431 29.7108C40.0996 30.0455 39.1053 32.0023 39.0621 32.0347C39.0383 32.0526 38.9529 32.1897 38.8722 32.3393C38.7916 32.4889 38.71 32.6249 38.6909 32.6415C38.6304 32.6941 38.384 33.0583 38.384 33.0951C38.384 33.1144 38.3569 33.1631 38.3238 33.2033C38.2906 33.2434 38.0273 33.5891 37.7386 33.9715C37.0612 34.8686 37.0673 34.8618 35.9655 35.9649C34.9248 37.0071 34.882 37.045 33.9404 37.7594C33.5746 38.0369 33.2425 38.2911 33.2023 38.3243C33.1622 38.3574 33.1168 38.3845 33.1016 38.3845C33.0864 38.3845 32.8743 38.5163 32.6305 38.6774C32.0276 39.0757 31.9775 39.0902 32.0397 38.8483C32.1013 38.6083 32.4423 37.6098 32.518 37.4475C32.549 37.381 32.6014 37.2314 32.6345 37.115C32.7237 36.8013 33.2384 35.2902 33.3038 35.1503C33.3349 35.0838 33.4717 34.6894 33.6079 34.2738C33.744 33.8582 33.8797 33.4637 33.9093 33.3972C33.9389 33.3307 34.0238 33.0859 34.0979 32.8531C34.1719 32.6204 34.2521 32.4028 34.276 32.3695C34.2999 32.3363 34.3396 32.2148 34.3643 32.0995C34.389 31.9842 34.4329 31.8482 34.462 31.7972C34.5221 31.6917 34.861 30.7091 34.932 30.4346C34.9579 30.3346 35.0075 30.1986 35.0422 30.1323C35.0769 30.0661 35.1751 29.7942 35.2605 29.5282C35.3458 29.2623 35.5535 28.6502 35.7221 28.1681C35.8907 27.686 36.1382 26.9651 36.2721 26.5661C36.406 26.1671 36.5396 25.7862 36.5689 25.7197C36.5982 25.6532 36.6965 25.3676 36.7874 25.085C36.8783 24.8024 36.9754 24.5453 37.0033 24.5137C37.0312 24.4822 37.054 24.4047 37.054 24.3415C37.054 24.2784 37.0922 24.141 37.1388 24.0362C37.1855 23.9314 37.3234 23.5465 37.4452 23.1807C37.5671 22.815 37.6915 22.4614 37.7218 22.3949C37.752 22.3284 37.8433 22.0662 37.9246 21.8122C38.0058 21.5582 38.1003 21.2998 38.1345 21.2379C38.2137 21.0945 38.5745 20.0191 38.7806 19.3118C39.0367 18.4332 39.2162 17.592 39.3612 16.5914C39.4399 16.048 39.465 13.0577 39.3931 12.793C39.294 12.4284 39.4924 12.7243 39.8472 13.4702ZM4.08807 14.3679C4.13438 14.4936 4.2004 14.6917 4.23474 14.8081C4.26902 14.9244 4.3218 15.0455 4.35197 15.0771C4.38214 15.1086 4.40681 15.1725 4.40681 15.2191C4.40681 15.2656 4.44453 15.3894 4.4906 15.4942C4.53673 15.5989 4.63504 15.8615 4.7091 16.0776C4.78316 16.2937 4.87922 16.5521 4.92251 16.6519C4.9658 16.7516 5.05788 16.9965 5.1271 17.1959C5.41754 18.0332 5.47921 18.1978 5.51639 18.2349C5.53791 18.2564 5.55569 18.3171 5.55587 18.3698C5.55611 18.4223 5.59129 18.5335 5.63416 18.6166C5.67702 18.6997 5.77418 18.9581 5.85011 19.1909C5.92605 19.4236 6.02387 19.6957 6.06746 19.7954C6.11105 19.8951 6.20851 20.1672 6.28396 20.3999C6.35941 20.6327 6.44399 20.849 6.47198 20.8805C6.49991 20.9121 6.52301 20.9802 6.52319 21.0317C6.52343 21.0832 6.56424 21.2033 6.61388 21.2985C6.66357 21.3938 6.70438 21.5026 6.70456 21.5403C6.7048 21.5781 6.74301 21.6819 6.78957 21.7712C6.83612 21.8603 6.89349 22.0236 6.91707 22.1339C6.94071 22.2442 6.98043 22.3616 7.00546 22.3949C7.03049 22.4281 7.12716 22.6865 7.22033 22.9692C7.31349 23.2518 7.40865 23.5102 7.43187 23.5435C7.45509 23.5767 7.53574 23.7943 7.61107 24.0271C7.6864 24.2598 7.76886 24.4774 7.79419 24.5107C7.81958 24.5439 7.86868 24.6664 7.90338 24.7827C7.98125 25.0441 8.14055 25.4975 8.21135 25.6593C8.24049 25.7258 8.32447 25.957 8.39798 26.1731C8.47156 26.3893 8.56938 26.6518 8.61551 26.7566C8.66158 26.8613 8.6993 26.9851 8.6993 27.0316C8.6993 27.0782 8.72397 27.1421 8.75414 27.1736C8.78431 27.2052 8.83703 27.3263 8.87137 27.4426C8.94694 27.699 9.10631 28.1537 9.17855 28.3192C9.20763 28.3857 9.33199 28.7257 9.45503 29.0749C9.57806 29.424 9.70357 29.764 9.73404 29.8305C9.76445 29.897 9.81433 30.033 9.84486 30.1328C9.91692 30.3682 10.2566 31.3065 10.3263 31.4627C10.356 31.5292 10.4405 31.7605 10.514 31.9766C10.5876 32.1927 10.6854 32.4552 10.7315 32.56C10.7776 32.6648 10.8153 32.7924 10.8153 32.8436C10.8153 32.8948 10.8404 32.9522 10.8711 32.9711C10.9018 32.9901 10.9463 33.0936 10.9699 33.2012C10.9935 33.3087 11.0472 33.4784 11.0894 33.5783C11.2084 33.861 11.3244 34.1738 11.6609 35.1201C11.8324 35.6022 11.9984 36.0511 12.0297 36.1176C12.0611 36.1841 12.112 36.3201 12.1429 36.4198C12.2222 36.6761 12.3809 37.1233 12.4433 37.2662C12.4723 37.3327 12.5967 37.6727 12.7197 38.0218C12.8428 38.3709 12.9671 38.711 12.9962 38.7775C13.0539 38.9096 13.2098 39.3457 13.2933 39.6087C13.3223 39.7002 13.3317 39.7749 13.3142 39.7749C13.2682 39.7749 12.0002 39.0996 11.964 39.0559C11.9474 39.0357 11.8114 38.9533 11.6617 38.8727C11.5121 38.792 11.3761 38.709 11.3594 38.6881C11.3428 38.6673 11.2204 38.5854 11.0874 38.5063C10.8414 38.3599 9.48193 37.3421 9.15425 37.0589C8.9204 36.8568 7.14379 35.0804 6.94174 34.8465C6.68685 34.5517 5.61596 33.1392 5.61596 33.098C5.61596 33.059 5.3722 32.6964 5.30914 32.6415C5.29003 32.6249 5.20842 32.4889 5.12777 32.3393C5.04712 32.1897 4.96169 32.0526 4.93787 32.0347C4.8869 31.9965 3.86456 29.9741 3.76245 29.7096C3.72394 29.6099 3.59474 29.2768 3.47528 28.9695C3.35581 28.6621 3.25811 28.3713 3.25811 28.3232C3.25811 28.275 3.23326 28.2203 3.20291 28.2016C3.17256 28.1828 3.12867 28.0519 3.1054 27.9108C3.08212 27.7697 3.04028 27.6259 3.01247 27.5912C2.9846 27.5565 2.92221 27.3525 2.87378 27.1378C2.82536 26.9231 2.74083 26.557 2.686 26.3243C2.32204 24.78 2.11703 22.4187 2.22858 21.0556C2.39351 19.0396 2.53244 18.1644 2.89403 16.8635C2.96338 16.6141 3.04693 16.3013 3.0797 16.1683C3.11253 16.0353 3.16343 15.872 3.19282 15.8055C3.22226 15.739 3.30781 15.5078 3.38296 15.2917C3.45817 15.0756 3.53906 14.8716 3.56282 14.8383C3.58664 14.8051 3.62557 14.7098 3.64945 14.6267C3.73984 14.3116 3.89382 14.0329 3.94842 14.0856C3.97895 14.1151 4.04176 14.2421 4.08807 14.3679ZM22.4439 24.012C22.5546 24.2625 22.9858 25.4351 23.4162 26.6568C23.5041 26.9061 23.6013 27.1646 23.6324 27.2311C23.6634 27.2976 23.7609 27.556 23.8491 27.8054C24.1713 28.7161 24.4013 29.3508 24.4695 29.5171C24.5078 29.6106 24.5392 29.7247 24.5392 29.7704C24.5392 29.8162 24.5643 29.8691 24.595 29.8881C24.6257 29.907 24.6691 30.0057 24.6914 30.1073C24.7137 30.2089 24.7701 30.365 24.8166 30.4542C24.8632 30.5434 24.9014 30.6495 24.9016 30.6899C24.9018 30.7303 24.9405 30.8528 24.9877 30.9619C25.0349 31.0711 25.2144 31.5549 25.3867 32.037C25.559 32.5191 25.7249 32.968 25.7553 33.0345C25.7857 33.101 25.8359 33.237 25.8668 33.3368C25.9461 33.593 26.1048 34.0402 26.1672 34.1831C26.1962 34.2496 26.3211 34.5896 26.4446 34.9387C26.5682 35.2879 26.7069 35.6592 26.7529 35.764C26.799 35.8687 26.8366 35.9834 26.8366 36.0188C26.8366 36.0543 26.8812 36.1862 26.9357 36.312C26.9902 36.4378 27.0575 36.5951 27.0852 36.6616C27.1596 36.84 27.3186 37.2962 27.3907 37.5382C27.4254 37.6546 27.475 37.777 27.5009 37.8102C27.5269 37.8435 27.5674 37.9609 27.5911 38.0712C27.6146 38.1815 27.672 38.3447 27.7186 38.4339C27.7651 38.5231 27.8033 38.6292 27.8036 38.6696C27.8038 38.7101 27.8425 38.8325 27.8896 38.9417C28.1124 39.4581 28.1568 39.5769 28.1952 39.7592C28.2179 39.8668 28.2615 39.9704 28.2923 39.9894C28.323 40.0083 28.3482 40.0699 28.3484 40.1261C28.3487 40.1823 28.3904 40.3081 28.4413 40.4057C28.5511 40.6161 28.5182 40.7422 28.3535 40.7422C28.288 40.7422 28.2189 40.767 28.2002 40.7974C28.1814 40.8277 28.0505 40.8717 27.9094 40.8951C27.7683 40.9185 27.6003 40.9652 27.5362 40.9989C27.472 41.0326 27.268 41.095 27.0827 41.1374C26.8975 41.1799 26.5555 41.2595 26.3227 41.3145C25.4527 41.5198 24.5789 41.6381 22.9427 41.772C21.6178 41.8804 19.2911 41.6794 17.7075 41.3199C16.4328 41.0304 16.3333 40.9839 16.4811 40.7473C16.5154 40.6924 16.5636 40.5532 16.5883 40.4379C16.613 40.3226 16.6527 40.2011 16.6765 40.1679C16.7002 40.1346 16.8371 39.7402 16.9806 39.2913C17.1241 38.8425 17.2617 38.448 17.2862 38.4148C17.3107 38.3815 17.351 38.26 17.3757 38.1447C17.4004 38.0294 17.4443 37.8934 17.4734 37.8425C17.5024 37.7915 17.6032 37.5185 17.6975 37.2359C18.1144 35.9857 18.3822 35.2018 18.4303 35.0899C18.4589 35.0234 18.5266 34.8329 18.5807 34.6667C18.8888 33.7191 18.9835 33.4471 19.0377 33.3527C19.0709 33.295 19.098 33.2039 19.098 33.1503C19.098 33.0966 19.1369 32.967 19.1844 32.8623C19.272 32.6691 19.7888 31.1909 19.8849 30.8582C19.9372 30.6774 20.4982 29.0658 20.5688 28.8935C20.6275 28.7503 20.9741 27.7338 21.0327 27.5333C21.0618 27.4336 21.2388 26.9167 21.4261 26.3847C21.6134 25.8527 21.7905 25.3359 21.8198 25.2361C21.849 25.1364 21.969 24.7827 22.0864 24.4502C22.2039 24.1178 22.3005 23.8389 22.3011 23.8306C22.3062 23.7653 22.3716 23.8483 22.4439 24.012Z" fill="#516071"/>
</svg>
