<svg width="45" height="45" viewBox="0 0 45 45" fill="none" xmlns="http://www.w3.org/2000/svg">
<mask id="path-1-inside-1" fill="white">
<path fill-rule="evenodd" clip-rule="evenodd" d="M10 0C4.47715 0 0 4.47715 0 10V35C0 40.5228 4.47715 45 10 45H35C40.5228 45 45 40.5228 45 35V10C45 4.47715 40.5228 0 35 0H10ZM23.3919 19.7599C23.6626 16.5555 22.0634 14.2465 19.0867 13.5444C18.4249 13.3883 17.3386 13.3249 15.3005 13.3235L12.4424 13.3213V22.6606V32H13.8146H15.1866L15.2256 28.6335L15.2643 25.267L16.8562 25.1822C18.6889 25.0848 19.4175 24.9102 20.5918 24.2876C22.2642 23.4004 23.2142 21.8647 23.3919 19.7599ZM15.3367 19.2821C15.3367 17.4636 15.3856 15.9253 15.4452 15.8636C15.5049 15.8018 16.1794 15.7806 16.9439 15.8164C19.2096 15.9225 20.1789 16.6012 20.5504 18.3412C20.8507 19.7476 20.323 21.29 19.3158 21.9504C18.7617 22.3136 17.5132 22.5846 16.3859 22.5865L15.3367 22.5882V19.2821ZM32.5579 20.5213V19.2379C32.5579 18.1049 32.5282 17.9571 32.3046 17.9743C29.8763 18.162 27.8552 18.5471 26.6455 19.0529L26.1494 19.2602L26.2422 20.1491C26.2933 20.638 26.3351 23.4742 26.3351 26.4518V31.8656L27.7461 31.8242L29.1571 31.7828L29.2294 26.3632L29.3018 20.9438L29.7264 20.8303C29.9599 20.7677 30.6926 20.6727 31.3544 20.619L32.5579 20.5213Z"/>
</mask>
<path fill-rule="evenodd" clip-rule="evenodd" d="M10 0C4.47715 0 0 4.47715 0 10V35C0 40.5228 4.47715 45 10 45H35C40.5228 45 45 40.5228 45 35V10C45 4.47715 40.5228 0 35 0H10ZM23.3919 19.7599C23.6626 16.5555 22.0634 14.2465 19.0867 13.5444C18.4249 13.3883 17.3386 13.3249 15.3005 13.3235L12.4424 13.3213V22.6606V32H13.8146H15.1866L15.2256 28.6335L15.2643 25.267L16.8562 25.1822C18.6889 25.0848 19.4175 24.9102 20.5918 24.2876C22.2642 23.4004 23.2142 21.8647 23.3919 19.7599ZM15.3367 19.2821C15.3367 17.4636 15.3856 15.9253 15.4452 15.8636C15.5049 15.8018 16.1794 15.7806 16.9439 15.8164C19.2096 15.9225 20.1789 16.6012 20.5504 18.3412C20.8507 19.7476 20.323 21.29 19.3158 21.9504C18.7617 22.3136 17.5132 22.5846 16.3859 22.5865L15.3367 22.5882V19.2821ZM32.5579 20.5213V19.2379C32.5579 18.1049 32.5282 17.9571 32.3046 17.9743C29.8763 18.162 27.8552 18.5471 26.6455 19.0529L26.1494 19.2602L26.2422 20.1491C26.2933 20.638 26.3351 23.4742 26.3351 26.4518V31.8656L27.7461 31.8242L29.1571 31.7828L29.2294 26.3632L29.3018 20.9438L29.7264 20.8303C29.9599 20.7677 30.6926 20.6727 31.3544 20.619L32.5579 20.5213Z" fill="#4A5B6D"/>
<path d="M19.0867 13.5444L19.6607 11.1112L19.6606 11.1112L19.0867 13.5444ZM23.3919 19.7599L20.9007 19.5494L20.9007 19.5496L23.3919 19.7599ZM15.3005 13.3235L15.2986 15.8235H15.2987L15.3005 13.3235ZM12.4424 13.3213L12.4443 10.8213L9.94238 10.8194V13.3213H12.4424ZM12.4424 32H9.94238V34.5H12.4424V32ZM15.1866 32V34.5H17.6579L17.6865 32.0289L15.1866 32ZM15.2256 28.6335L17.7254 28.6624L17.7254 28.6623L15.2256 28.6335ZM15.2643 25.267L15.1315 22.7705L12.7915 22.895L12.7645 25.2382L15.2643 25.267ZM16.8562 25.1822L16.7235 22.6858L16.7234 22.6858L16.8562 25.1822ZM20.5918 24.2876L21.7629 26.4963L21.7633 26.4961L20.5918 24.2876ZM15.4452 15.8636L17.2428 17.6011L17.2448 17.599L15.4452 15.8636ZM16.9439 15.8164L17.0609 13.3192L17.0607 13.3191L16.9439 15.8164ZM20.5504 18.3412L18.1055 18.8632L18.1055 18.8632L20.5504 18.3412ZM19.3158 21.9504L20.6862 24.0414L20.6866 24.0411L19.3158 21.9504ZM16.3859 22.5865L16.39 25.0865H16.3901L16.3859 22.5865ZM15.3367 22.5882H12.8367V25.0924L15.3408 25.0882L15.3367 22.5882ZM32.5579 20.5213L32.7603 23.0131L35.0579 22.8265V20.5213H32.5579ZM32.3046 17.9743L32.1125 15.4817L32.112 15.4817L32.3046 17.9743ZM26.6455 19.0529L27.6096 21.3595L27.6099 21.3594L26.6455 19.0529ZM26.1494 19.2602L25.1853 16.9536L23.47 17.6706L23.6629 19.5197L26.1494 19.2602ZM26.2422 20.1491L23.7557 20.4086L23.7557 20.409L26.2422 20.1491ZM26.3351 31.8656H23.8351V34.44L26.4084 34.3645L26.3351 31.8656ZM27.7461 31.8242L27.6727 29.3253H27.6727L27.7461 31.8242ZM29.1571 31.7828L29.2304 34.2817L31.6249 34.2114L31.6568 31.8161L29.1571 31.7828ZM29.2294 26.3632L26.7296 26.3298L29.2294 26.3632ZM29.3018 20.9438L28.6561 18.5286L26.8273 19.0176L26.802 20.9104L29.3018 20.9438ZM29.7264 20.8303L30.3721 23.2454L30.3731 23.2452L29.7264 20.8303ZM31.3544 20.619L31.5567 23.1108L31.5568 23.1108L31.3544 20.619ZM2.5 10C2.5 5.85786 5.85786 2.5 10 2.5V-2.5C3.09644 -2.5 -2.5 3.09644 -2.5 10H2.5ZM2.5 35V10H-2.5V35H2.5ZM10 42.5C5.85786 42.5 2.5 39.1421 2.5 35H-2.5C-2.5 41.9036 3.09644 47.5 10 47.5V42.5ZM35 42.5H10V47.5H35V42.5ZM42.5 35C42.5 39.1421 39.1421 42.5 35 42.5V47.5C41.9036 47.5 47.5 41.9036 47.5 35H42.5ZM42.5 10V35H47.5V10H42.5ZM35 2.5C39.1421 2.5 42.5 5.85786 42.5 10H47.5C47.5 3.09644 41.9036 -2.5 35 -2.5V2.5ZM10 2.5H35V-2.5H10V2.5ZM18.5128 15.9776C19.485 16.207 20.0628 16.6477 20.4019 17.1373C20.7489 17.6382 20.997 18.4107 20.9007 19.5494L25.883 19.9704C26.0575 17.9047 25.6414 15.9205 24.5122 14.2903C23.3752 12.6488 21.6651 11.584 19.6607 11.1112L18.5128 15.9776ZM15.2987 15.8235C17.3867 15.8249 18.1803 15.8992 18.5128 15.9777L19.6606 11.1112C18.6696 10.8774 17.2904 10.8249 15.3023 10.8235L15.2987 15.8235ZM12.4405 15.8213L15.2986 15.8235L15.3024 10.8235L12.4443 10.8213L12.4405 15.8213ZM14.9424 22.6606V13.3213H9.94238V22.6606H14.9424ZM14.9424 32V22.6606H9.94238V32H14.9424ZM13.8146 29.5H12.4424V34.5H13.8146V29.5ZM15.1866 29.5H13.8146V34.5H15.1866V29.5ZM12.7257 28.6046L12.6868 31.9711L17.6865 32.0289L17.7254 28.6624L12.7257 28.6046ZM12.7645 25.2382L12.7257 28.6047L17.7254 28.6623L17.7642 25.2958L12.7645 25.2382ZM16.7234 22.6858L15.1315 22.7705L15.3972 27.7634L16.9891 27.6787L16.7234 22.6858ZM19.4206 22.0788C18.9513 22.3277 18.6782 22.4312 18.3886 22.5006C18.0576 22.5799 17.6008 22.6391 16.7235 22.6858L16.989 27.6787C17.9443 27.6279 18.7682 27.5511 19.5533 27.3631C20.3797 27.1651 21.058 26.8701 21.7629 26.4963L19.4206 22.0788ZM20.9007 19.5496C20.7848 20.9229 20.2446 21.6417 19.4203 22.079L21.7633 26.4961C24.2839 25.159 25.6435 22.8064 25.883 19.9703L20.9007 19.5496ZM13.6477 14.1261C13.2852 14.5012 13.1381 14.8938 13.1071 14.9743C13.0507 15.1205 13.0191 15.2429 13.0036 15.3073C12.9715 15.4407 12.9546 15.5556 12.9465 15.615C12.9286 15.746 12.9173 15.8808 12.9095 15.9897C12.8931 16.2195 12.8801 16.5125 12.8699 16.8347C12.8491 17.4873 12.8367 18.3539 12.8367 19.2821H17.8367C17.8367 18.3918 17.8487 17.58 17.8673 16.9934C17.8768 16.696 17.8873 16.4792 17.8968 16.3464C17.9019 16.274 17.9042 16.2643 17.9004 16.2923C17.8993 16.3002 17.8896 16.3739 17.8648 16.4771C17.8529 16.5264 17.825 16.6365 17.7723 16.7731C17.7453 16.8431 17.7004 16.9501 17.6318 17.0745C17.5686 17.1892 17.4463 17.3905 17.2428 17.6011L13.6477 14.1261ZM17.0607 13.3191C16.6291 13.299 16.2025 13.2936 15.8517 13.3047C15.6833 13.3099 15.486 13.3203 15.2966 13.3433C15.2083 13.3539 15.0581 13.3747 14.8878 13.4173C14.8038 13.4384 14.66 13.4781 14.4923 13.5489C14.3687 13.601 13.9971 13.7638 13.6457 14.1282L17.2448 17.599C17.0563 17.7944 16.8727 17.9204 16.7508 17.9944C16.624 18.0715 16.5126 18.1233 16.4347 18.1561C16.2838 18.2198 16.1613 18.2528 16.103 18.2674C15.984 18.2972 15.9022 18.3064 15.8975 18.307C15.8752 18.3097 15.9055 18.3054 16.0088 18.3022C16.2013 18.2961 16.4942 18.2981 16.8271 18.3137L17.0607 13.3191ZM22.9953 17.8192C22.7281 16.5679 22.1502 15.2995 20.8912 14.4181C19.7369 13.61 18.3533 13.3797 17.0609 13.3192L16.8269 18.3137C17.8002 18.3593 18.034 18.5214 18.0237 18.5141C17.9964 18.495 17.9781 18.468 17.9823 18.4752C17.9964 18.4996 18.0505 18.6057 18.1055 18.8632L22.9953 17.8192ZM20.6866 24.0411C22.7518 22.687 23.4578 19.9855 22.9953 17.8192L18.1055 18.8632C18.1572 19.1055 18.1379 19.3829 18.058 19.6164C17.9731 19.8644 17.8808 19.9018 17.945 19.8597L20.6866 24.0411ZM16.3901 25.0865C17.1377 25.0852 17.908 24.9964 18.5962 24.847C19.2235 24.7108 20.0274 24.4731 20.6862 24.0414L17.9455 19.8594C18.0265 19.8063 18.0402 19.813 17.9362 19.8504C17.8458 19.883 17.7109 19.9227 17.5354 19.9608C17.179 20.0382 16.7614 20.0859 16.3817 20.0865L16.3901 25.0865ZM15.3408 25.0882L16.39 25.0865L16.3817 20.0865L15.3326 20.0882L15.3408 25.0882ZM12.8367 19.2821V22.5882H17.8367V19.2821H12.8367ZM30.0579 19.2379V20.5213H35.0579V19.2379H30.0579ZM32.4967 20.4669C32.3403 20.479 31.5469 20.5294 30.8178 19.9086C30.1882 19.3725 30.0741 18.7174 30.0639 18.6661C30.0397 18.5458 30.046 18.5015 30.0514 18.6507C30.0559 18.7746 30.0579 18.9569 30.0579 19.2379H35.0579C35.0579 18.7823 35.0623 18.1623 34.9663 17.6834C34.9207 17.4557 34.7573 16.696 34.0593 16.1017C33.2617 15.4226 32.3808 15.461 32.1125 15.4817L32.4967 20.4669ZM27.6099 21.3594C28.4462 21.0097 30.1478 20.6484 32.4972 20.4669L32.112 15.4817C29.6048 15.6755 27.2642 16.0845 25.6812 16.7464L27.6099 21.3594ZM27.1135 21.5669L27.6096 21.3595L25.6814 16.7463L25.1853 16.9536L27.1135 21.5669ZM28.7287 19.8897L28.6359 19.0007L23.6629 19.5197L23.7557 20.4086L28.7287 19.8897ZM28.8351 26.4518C28.8351 23.5566 28.7971 20.544 28.7287 19.8893L23.7557 20.409C23.754 20.3927 23.7577 20.4286 23.7635 20.5539C23.7687 20.6645 23.774 20.8115 23.7793 20.9942C23.7899 21.3589 23.7997 21.8392 23.8081 22.4041C23.8247 23.5324 23.8351 24.9734 23.8351 26.4518H28.8351ZM28.8351 31.8656V26.4518H23.8351V31.8656H28.8351ZM27.6727 29.3253L26.2618 29.3667L26.4084 34.3645L27.8194 34.3231L27.6727 29.3253ZM29.0837 29.2838L27.6727 29.3253L27.8194 34.3231L29.2304 34.2817L29.0837 29.2838ZM26.7296 26.3298L26.6573 31.7494L31.6568 31.8161L31.7292 26.3966L26.7296 26.3298ZM26.802 20.9104L26.7296 26.3298L31.7292 26.3966L31.8016 20.9772L26.802 20.9104ZM29.0807 18.4151L28.6561 18.5286L29.9475 23.359L30.3721 23.2454L29.0807 18.4151ZM31.1522 18.1272C30.5144 18.179 29.5636 18.2858 29.0797 18.4154L30.3731 23.2452C30.3086 23.2624 30.2993 23.2606 30.395 23.2448C30.4698 23.2324 30.5736 23.2171 30.7014 23.2005C30.957 23.1674 31.2658 23.1344 31.5567 23.1108L31.1522 18.1272ZM32.3555 18.0295L31.1521 18.1272L31.5568 23.1108L32.7603 23.0131L32.3555 18.0295Z" fill="#4A5B6D" mask="url(#path-1-inside-1)"/>
</svg>
