<svg width="45" height="45" viewBox="0 0 45 45" fill="none" xmlns="http://www.w3.org/2000/svg">
<mask id="path-1-inside-1" fill="white">
<path fill-rule="evenodd" clip-rule="evenodd" d="M0 10C0 4.47715 4.47715 0 10 0H35C40.5228 0 45 4.47715 45 10V35C45 40.5228 40.5228 45 35 45H10C4.47715 45 0 40.5228 0 35V10ZM20.9235 15.1725C21.294 16.3673 22.5692 20.4601 23.7575 24.2674C24.9456 28.0748 25.9575 31.339 26.0061 31.5213C26.0936 31.8493 26.078 31.8527 24.4512 31.8527H22.8081L22.5562 31.0058C21.7985 28.4573 21.3751 27.0376 21.3046 26.8081C21.2329 26.5744 20.9527 26.5504 18.3051 26.5504H15.3847L14.8871 28.3547C14.6133 29.3471 14.2689 30.5566 14.1213 31.0426L13.8531 31.9264L12.3347 31.9686C10.9377 32.0075 10.8231 31.99 10.9006 31.7477C11.8894 28.6604 16.1468 14.2141 16.2181 13.7051L16.3167 13H18.2833H20.2498L20.9235 15.1725ZM18.2097 16.1861C18.0053 17.0414 16.5913 22.3692 16.4364 22.8672C16.4253 22.9031 16.4144 22.9378 16.4039 22.9712C16.2919 23.3288 16.223 23.5488 16.301 23.6841C16.4256 23.9003 16.9256 23.9 18.2248 23.8993C18.3009 23.8993 18.3797 23.8992 18.4613 23.8992C20.4698 23.8992 20.6394 23.8785 20.5638 23.6415C20.3194 22.8747 19.4483 19.7332 18.9853 17.9478C18.693 16.8214 18.4217 15.869 18.3824 15.8316C18.343 15.7943 18.2653 15.9538 18.2097 16.1861ZM32.1176 25.0039V32H30.5646H29.0116V25.0039V18.0078H30.5646H32.1176V25.0039ZM30.4412 16.3529C31.3671 16.3529 32.1177 15.6024 32.1177 14.6765C32.1177 13.7506 31.3671 13 30.4412 13C29.5153 13 28.7647 13.7506 28.7647 14.6765C28.7647 15.6024 29.5153 16.3529 30.4412 16.3529Z"/>
</mask>
<path fill-rule="evenodd" clip-rule="evenodd" d="M0 10C0 4.47715 4.47715 0 10 0H35C40.5228 0 45 4.47715 45 10V35C45 40.5228 40.5228 45 35 45H10C4.47715 45 0 40.5228 0 35V10ZM20.9235 15.1725C21.294 16.3673 22.5692 20.4601 23.7575 24.2674C24.9456 28.0748 25.9575 31.339 26.0061 31.5213C26.0936 31.8493 26.078 31.8527 24.4512 31.8527H22.8081L22.5562 31.0058C21.7985 28.4573 21.3751 27.0376 21.3046 26.8081C21.2329 26.5744 20.9527 26.5504 18.3051 26.5504H15.3847L14.8871 28.3547C14.6133 29.3471 14.2689 30.5566 14.1213 31.0426L13.8531 31.9264L12.3347 31.9686C10.9377 32.0075 10.8231 31.99 10.9006 31.7477C11.8894 28.6604 16.1468 14.2141 16.2181 13.7051L16.3167 13H18.2833H20.2498L20.9235 15.1725ZM18.2097 16.1861C18.0053 17.0414 16.5913 22.3692 16.4364 22.8672C16.4253 22.9031 16.4144 22.9378 16.4039 22.9712C16.2919 23.3288 16.223 23.5488 16.301 23.6841C16.4256 23.9003 16.9256 23.9 18.2248 23.8993C18.3009 23.8993 18.3797 23.8992 18.4613 23.8992C20.4698 23.8992 20.6394 23.8785 20.5638 23.6415C20.3194 22.8747 19.4483 19.7332 18.9853 17.9478C18.693 16.8214 18.4217 15.869 18.3824 15.8316C18.343 15.7943 18.2653 15.9538 18.2097 16.1861ZM32.1176 25.0039V32H30.5646H29.0116V25.0039V18.0078H30.5646H32.1176V25.0039ZM30.4412 16.3529C31.3671 16.3529 32.1177 15.6024 32.1177 14.6765C32.1177 13.7506 31.3671 13 30.4412 13C29.5153 13 28.7647 13.7506 28.7647 14.6765C28.7647 15.6024 29.5153 16.3529 30.4412 16.3529Z" fill="#4A5B6D"/>
<path d="M23.7575 24.2674L26.144 23.5227L26.144 23.5226L23.7575 24.2674ZM20.9235 15.1725L18.5357 15.913L18.5357 15.913L20.9235 15.1725ZM26.0061 31.5213L28.4218 30.8774L28.4218 30.8773L26.0061 31.5213ZM22.8081 31.8527L20.4119 32.5655L20.9435 34.3527H22.8081V31.8527ZM22.5562 31.0058L20.1599 31.7183L20.16 31.7186L22.5562 31.0058ZM21.3046 26.8081L18.9147 27.5418L18.9149 27.5424L21.3046 26.8081ZM15.3847 26.5504V24.0504H13.4809L12.9747 25.8857L15.3847 26.5504ZM14.8871 28.3547L17.2971 29.0195L17.2972 29.0193L14.8871 28.3547ZM14.1213 31.0426L11.7291 30.3165L11.7291 30.3166L14.1213 31.0426ZM13.8531 31.9264L13.9227 34.4254L15.7225 34.3753L16.2454 32.6524L13.8531 31.9264ZM12.3347 31.9686L12.4043 34.4677H12.4043L12.3347 31.9686ZM10.9006 31.7477L8.51977 30.9851L8.51947 30.9861L10.9006 31.7477ZM16.2181 13.7051L18.6939 14.0518L18.694 14.0514L16.2181 13.7051ZM16.3167 13V10.5H14.142L13.8408 12.6537L16.3167 13ZM20.2498 13L22.6376 12.2595L22.0919 10.5H20.2498V13ZM16.4364 22.8672L14.0492 22.1249L14.0489 22.1257L16.4364 22.8672ZM18.2097 16.1861L15.7784 15.6041L15.7782 15.6051L18.2097 16.1861ZM16.4039 22.9712L18.7896 23.7187L18.7896 23.7186L16.4039 22.9712ZM16.301 23.6841L14.1353 24.933L14.1353 24.933L16.301 23.6841ZM18.2248 23.8993L18.2235 21.3993H18.2235L18.2248 23.8993ZM20.5638 23.6415L18.1819 24.4008L18.1822 24.4016L20.5638 23.6415ZM18.9853 17.9478L21.4053 17.3203L21.4052 17.3199L18.9853 17.9478ZM18.3824 15.8316L20.1063 14.021L20.0991 14.0142L18.3824 15.8316ZM32.1176 32V34.5H34.6176V32H32.1176ZM29.0116 32H26.5116V34.5H29.0116V32ZM29.0116 18.0078V15.5078H26.5116V18.0078H29.0116ZM32.1176 18.0078H34.6176V15.5078H32.1176V18.0078ZM10 -2.5C3.09644 -2.5 -2.5 3.09644 -2.5 10H2.5C2.5 5.85786 5.85786 2.5 10 2.5V-2.5ZM35 -2.5H10V2.5H35V-2.5ZM47.5 10C47.5 3.09644 41.9036 -2.5 35 -2.5V2.5C39.1421 2.5 42.5 5.85786 42.5 10H47.5ZM47.5 35V10H42.5V35H47.5ZM35 47.5C41.9036 47.5 47.5 41.9036 47.5 35H42.5C42.5 39.1421 39.1421 42.5 35 42.5V47.5ZM10 47.5H35V42.5H10V47.5ZM-2.5 35C-2.5 41.9036 3.09644 47.5 10 47.5V42.5C5.85786 42.5 2.5 39.1421 2.5 35H-2.5ZM-2.5 10V35H2.5V10H-2.5ZM26.144 23.5226C24.9556 19.715 23.6811 15.6243 23.3113 14.4319L18.5357 15.913C18.907 17.1103 20.1829 21.2052 21.371 25.0122L26.144 23.5226ZM28.4218 30.8773C28.3552 30.6277 27.3149 27.275 26.144 23.5227L21.371 25.0121C21.9647 26.9148 22.5142 28.6811 22.9212 29.994C23.1248 30.6507 23.2923 31.1927 23.4117 31.5811C23.5438 32.0104 23.5943 32.1794 23.5905 32.1653L28.4218 30.8773ZM24.4512 34.3527C24.8465 34.3527 25.1868 34.3527 25.4522 34.3464C25.6673 34.3412 26.0373 34.3309 26.3927 34.2551C26.654 34.1994 27.9647 33.8918 28.4141 32.4602C28.5869 31.9095 28.5315 31.4438 28.503 31.2556C28.474 31.0639 28.426 30.8932 28.4218 30.8774L23.5905 32.1653C23.6081 32.2315 23.5788 32.1326 23.5593 32.0039C23.5403 31.8786 23.4853 31.467 23.6436 30.9627C23.8313 30.3648 24.2209 29.93 24.6302 29.667C24.9675 29.4503 25.2648 29.3832 25.3503 29.365C25.5095 29.331 25.576 29.342 25.3333 29.3478C25.141 29.3523 24.8693 29.3527 24.4512 29.3527V34.3527ZM22.8081 34.3527H24.4512V29.3527H22.8081V34.3527ZM20.16 31.7186L20.4119 32.5655L25.2043 31.14L24.9524 30.2931L20.16 31.7186ZM18.9149 27.5424C18.981 27.7576 19.3992 29.16 20.1599 31.7183L24.9525 30.2933C24.1977 27.7546 23.7692 26.3176 23.6943 26.0739L18.9149 27.5424ZM18.3051 29.0504C18.9673 29.0504 19.4645 29.0519 19.8437 29.0575C20.2343 29.0633 20.4454 29.0729 20.5568 29.0824C20.6098 29.087 20.5984 29.0882 20.5486 29.0786C20.5061 29.0704 20.3505 29.0387 20.1485 28.9475C19.9266 28.8472 19.6305 28.6666 19.364 28.3551C19.0974 28.0434 18.973 27.7317 18.9147 27.5418L23.6945 26.0745C23.6183 25.8262 23.4694 25.4625 23.1634 25.1048C22.8576 24.7473 22.5071 24.5264 22.2074 24.391C21.7107 24.1666 21.2135 24.1204 20.9848 24.1008C20.4409 24.0541 19.5759 24.0504 18.3051 24.0504V29.0504ZM15.3847 29.0504H18.3051V24.0504H15.3847V29.0504ZM17.2972 29.0193L17.7947 27.215L12.9747 25.8857L12.4771 27.69L17.2972 29.0193ZM16.5135 31.7688C16.6708 31.2507 17.0223 30.0157 17.2971 29.0195L12.4772 27.6898C12.2044 28.6784 11.8669 29.8625 11.7291 30.3165L16.5135 31.7688ZM16.2454 32.6524L16.5136 31.7687L11.7291 30.3166L11.4609 31.2003L16.2454 32.6524ZM12.4043 34.4677L13.9227 34.4254L13.7835 29.4273L12.2651 29.4696L12.4043 34.4677ZM8.51947 30.9861C8.4921 31.0716 8.41005 31.3309 8.38811 31.664C8.36365 32.0353 8.40632 32.6169 8.76832 33.2032C9.43869 34.2891 10.5827 34.4188 10.6843 34.4345C11.1622 34.5081 11.8373 34.4834 12.4043 34.4677L12.2651 29.4696C11.9134 29.4794 11.6767 29.4846 11.5099 29.4846C11.3103 29.4846 11.3357 29.4759 11.4452 29.4927C11.5022 29.5015 11.7076 29.5348 11.9644 29.6485C12.2383 29.7698 12.6897 30.037 13.0228 30.5766C13.3631 31.1278 13.3986 31.6686 13.3773 31.9927C13.3585 32.2786 13.2898 32.4843 13.2818 32.5093L8.51947 30.9861ZM13.7422 13.3583C13.7633 13.2081 13.7922 13.1219 13.7395 13.3225C13.7087 13.4397 13.6626 13.609 13.6012 13.8296C13.4791 14.2686 13.3055 14.8783 13.0939 15.6129C12.6712 17.0803 12.103 19.025 11.5054 21.0528C10.306 25.1225 9.0034 29.4751 8.51977 30.9851L13.2815 32.5103C13.7867 30.933 15.1071 26.5188 16.3015 22.4663C16.9007 20.433 17.472 18.4777 17.8985 16.9968C18.1116 16.2572 18.29 15.6307 18.4182 15.1701C18.4819 14.9409 18.5356 14.7447 18.5754 14.5928C18.5934 14.5244 18.664 14.2657 18.6939 14.0518L13.7422 13.3583ZM13.8408 12.6537L13.7422 13.3588L18.694 14.0514L18.7926 13.3463L13.8408 12.6537ZM18.2833 10.5H16.3167V15.5H18.2833V10.5ZM20.2498 10.5H18.2833V15.5H20.2498V10.5ZM23.3113 14.432L22.6376 12.2595L17.862 13.7405L18.5357 15.913L23.3113 14.432ZM18.8237 23.6095C19.0025 23.0344 20.4314 17.6453 20.6412 16.7671L15.7782 15.6051C15.6851 15.9947 15.2906 17.503 14.8882 19.0193C14.6896 19.7676 14.4929 20.5031 14.3367 21.0812C14.2585 21.3706 14.1911 21.6178 14.139 21.8064C14.1129 21.9009 14.0914 21.9778 14.0747 22.0364C14.0563 22.1013 14.049 22.1256 14.0492 22.1249L18.8237 23.6095ZM18.7896 23.7186C18.8 23.6856 18.8117 23.648 18.8239 23.6087L14.0489 22.1257C14.0388 22.1582 14.0289 22.19 14.0183 22.2238L18.7896 23.7186ZM18.4667 22.4352C18.6821 22.8087 18.7486 23.1656 18.7638 23.4139C18.7778 23.6448 18.7495 23.8117 18.7398 23.8641C18.7291 23.922 18.7207 23.9457 18.7323 23.9054C18.7435 23.8664 18.7592 23.8158 18.7896 23.7187L14.0183 22.2238C13.9803 22.345 13.878 22.6573 13.8226 22.958C13.7743 23.2198 13.6345 24.0645 14.1353 24.933L18.4667 22.4352ZM18.2235 21.3993C17.8926 21.3995 17.6382 21.3996 17.4288 21.3966C17.2139 21.3936 17.1001 21.3878 17.0433 21.3828C17.0183 21.3806 17.0301 21.3806 17.0668 21.3873C17.1009 21.3934 17.1919 21.4115 17.3151 21.4556C17.5627 21.5444 18.101 21.8011 18.4667 22.4352L14.1353 24.933C14.5633 25.6751 15.2108 26.0129 15.6279 26.1624C16.0146 26.301 16.3811 26.3437 16.6016 26.3632C17.0445 26.4025 17.6357 26.3996 18.2262 26.3993L18.2235 21.3993ZM18.4613 21.3992C18.3789 21.3992 18.2995 21.3993 18.2235 21.3993L18.2262 26.3993C18.3023 26.3993 18.3804 26.3992 18.4613 26.3992V21.3992ZM18.1822 24.4016C18.1649 24.3474 18.0564 24.0209 18.0816 23.5787C18.1135 23.0174 18.3487 22.4303 18.816 21.9805C19.1982 21.6126 19.5907 21.4794 19.726 21.4378C19.812 21.4113 19.8793 21.3969 19.9176 21.3895C19.9572 21.3819 19.9831 21.3786 19.9899 21.3778C20.0003 21.3765 19.9777 21.3796 19.9032 21.3833C19.832 21.3869 19.7341 21.3902 19.6003 21.3927C19.33 21.3979 18.965 21.3992 18.4613 21.3992V26.3992C19.3789 26.3992 20.1221 26.399 20.5983 26.3406C20.7388 26.3234 20.9561 26.2906 21.1968 26.2166C21.4152 26.1493 21.8645 25.9861 22.2833 25.5829C22.7873 25.0979 23.039 24.4703 23.0735 23.8625C23.1013 23.3738 22.9816 22.9948 22.9454 22.8814L18.1822 24.4016ZM16.5653 18.5753C17.0291 20.3637 17.9148 23.5631 18.1819 24.4008L22.9457 22.8821C22.7239 22.1863 21.8674 19.1027 21.4053 17.3203L16.5653 18.5753ZM16.6585 17.6422C16.499 17.4903 16.3943 17.3498 16.3424 17.2763C16.2841 17.1937 16.2418 17.1231 16.2156 17.0772C16.1643 16.9873 16.1304 16.9144 16.1153 16.8811C16.0838 16.8114 16.0651 16.7605 16.0624 16.753C16.054 16.7303 16.0552 16.7316 16.0688 16.7747C16.0935 16.8526 16.1326 16.9835 16.1846 17.1663C16.2872 17.5262 16.4229 18.0262 16.5654 18.5757L21.4052 17.3199C21.2554 16.7429 21.1093 16.2035 20.9933 15.7963C20.9361 15.5956 20.8817 15.4109 20.8353 15.2646C20.8134 15.1955 20.7847 15.1075 20.7528 15.0211C20.7383 14.9818 20.7095 14.9055 20.6695 14.8172C20.6502 14.7746 20.6126 14.6941 20.5579 14.5983C20.532 14.553 20.3837 14.2852 20.1063 14.021L16.6585 17.6422ZM20.641 16.7681C20.6398 16.7732 20.6355 16.7904 20.6258 16.8197C20.6179 16.8431 20.5949 16.9096 20.5497 17.0024C20.5336 17.0356 20.3964 17.3319 20.0912 17.6293C19.9466 17.7701 19.5396 18.136 18.8749 18.2742C18.0277 18.4504 17.2146 18.1675 16.6657 17.6489L20.0991 14.0142C19.5403 13.4863 18.7161 13.2003 17.857 13.3789C17.1802 13.5197 16.7603 13.8938 16.602 14.0479C16.2694 14.372 16.1019 14.7157 16.0545 14.8131C15.9149 15.0998 15.83 15.3884 15.7784 15.6041L20.641 16.7681ZM34.6176 32V25.0039H29.6176V32H34.6176ZM30.5646 34.5H32.1176V29.5H30.5646V34.5ZM29.0116 34.5H30.5646V29.5H29.0116V34.5ZM26.5116 25.0039V32H31.5116V25.0039H26.5116ZM26.5116 18.0078V25.0039H31.5116V18.0078H26.5116ZM30.5646 15.5078H29.0116V20.5078H30.5646V15.5078ZM32.1176 15.5078H30.5646V20.5078H32.1176V15.5078ZM34.6176 25.0039V18.0078H29.6176V25.0039H34.6176ZM29.6177 14.6765C29.6177 14.2217 29.9864 13.8529 30.4412 13.8529V18.8529C32.7478 18.8529 34.6177 16.9831 34.6177 14.6765H29.6177ZM30.4412 15.5C29.9864 15.5 29.6177 15.1313 29.6177 14.6765H34.6177C34.6177 12.3699 32.7478 10.5 30.4412 10.5V15.5ZM31.2647 14.6765C31.2647 15.1313 30.896 15.5 30.4412 15.5V10.5C28.1346 10.5 26.2647 12.3699 26.2647 14.6765H31.2647ZM30.4412 13.8529C30.896 13.8529 31.2647 14.2216 31.2647 14.6765H26.2647C26.2647 16.9831 28.1346 18.8529 30.4412 18.8529V13.8529Z" fill="#4A5B6D" mask="url(#path-1-inside-1)"/>
</svg>
