<svg width="45" height="45" viewBox="0 0 45 45" fill="none" xmlns="http://www.w3.org/2000/svg">
<mask id="path-1-inside-1" fill="white">
<path fill-rule="evenodd" clip-rule="evenodd" d="M10 0C4.47715 0 0 4.47715 0 10V35C0 40.5228 4.47715 45 10 45H35C40.5228 45 45 40.5228 45 35V10C45 4.47715 40.5228 0 35 0H10ZM16.1185 21.324C16.1185 16.9889 16.0815 13.3426 16.0362 13.221C15.9685 13.0394 15.7064 13 14.5666 13C13.8035 13 13.1385 13.0419 13.0889 13.0932C12.9759 13.2096 12.9679 31.4762 13.0807 31.779C13.1536 31.9747 13.7041 32 17.8821 32H22.6011L22.7679 31.1268C22.8596 30.6467 22.9642 30.018 23.0001 29.7298L23.0656 29.2059H19.5921H16.1185V21.324ZM32 20.5019L31.9613 19.1609C31.9234 17.84 31.9177 17.8196 31.5837 17.801C30.8162 17.7581 28.7907 18.0453 27.5196 18.3771C25.7216 18.8466 25.4409 18.984 25.536 19.3484C25.5772 19.5065 25.6118 22.4179 25.6128 25.818L25.6147 32H27.1069H28.5992V26.5037V21.0075L29.1468 20.8385C29.4481 20.7456 30.2132 20.6319 30.8473 20.5858L32 20.5019Z"/>
</mask>
<path fill-rule="evenodd" clip-rule="evenodd" d="M10 0C4.47715 0 0 4.47715 0 10V35C0 40.5228 4.47715 45 10 45H35C40.5228 45 45 40.5228 45 35V10C45 4.47715 40.5228 0 35 0H10ZM16.1185 21.324C16.1185 16.9889 16.0815 13.3426 16.0362 13.221C15.9685 13.0394 15.7064 13 14.5666 13C13.8035 13 13.1385 13.0419 13.0889 13.0932C12.9759 13.2096 12.9679 31.4762 13.0807 31.779C13.1536 31.9747 13.7041 32 17.8821 32H22.6011L22.7679 31.1268C22.8596 30.6467 22.9642 30.018 23.0001 29.7298L23.0656 29.2059H19.5921H16.1185V21.324ZM32 20.5019L31.9613 19.1609C31.9234 17.84 31.9177 17.8196 31.5837 17.801C30.8162 17.7581 28.7907 18.0453 27.5196 18.3771C25.7216 18.8466 25.4409 18.984 25.536 19.3484C25.5772 19.5065 25.6118 22.4179 25.6128 25.818L25.6147 32H27.1069H28.5992V26.5037V21.0075L29.1468 20.8385C29.4481 20.7456 30.2132 20.6319 30.8473 20.5858L32 20.5019Z" fill="#516071"/>
<path d="M16.0362 13.221L13.6936 14.0942L13.6937 14.0943L16.0362 13.221ZM13.0889 13.0932L14.8824 14.8348L14.8848 14.8323L13.0889 13.0932ZM13.0807 31.779L15.4237 30.9069L15.4232 30.9057L13.0807 31.779ZM22.6011 32V34.5H24.669L25.0568 32.4689L22.6011 32ZM22.7679 31.1268L20.3123 30.6579L20.3122 30.6579L22.7679 31.1268ZM23.0001 29.7298L20.5194 29.4195L20.5193 29.4203L23.0001 29.7298ZM23.0656 29.2059L25.5463 29.5161L25.8978 26.7059H23.0656V29.2059ZM16.1185 29.2059H13.6185V31.7059H16.1185V29.2059ZM31.9613 19.1609L29.4624 19.2328L29.4624 19.2329L31.9613 19.1609ZM32 20.5019L32.1813 22.9953L34.5679 22.8218L34.499 20.4299L32 20.5019ZM31.5837 17.801L31.4442 20.2971L31.4448 20.2971L31.5837 17.801ZM27.5196 18.3771L26.8882 15.9582L26.8881 15.9582L27.5196 18.3771ZM25.536 19.3484L27.9551 18.7176L27.955 18.717L25.536 19.3484ZM25.6128 25.818L23.1128 25.8187L23.1128 25.8188L25.6128 25.818ZM25.6147 32L23.1147 32.0008L23.1154 34.5H25.6147V32ZM28.5992 32V34.5H31.0992V32H28.5992ZM28.5992 21.0075L27.8618 18.6187L26.0992 19.1628V21.0075H28.5992ZM29.1468 20.8385L28.4102 18.4495L28.4095 18.4497L29.1468 20.8385ZM30.8473 20.5858L31.0286 23.0792L31.0286 23.0792L30.8473 20.5858ZM2.5 10C2.5 5.85786 5.85786 2.5 10 2.5V-2.5C3.09644 -2.5 -2.5 3.09644 -2.5 10H2.5ZM2.5 35V10H-2.5V35H2.5ZM10 42.5C5.85786 42.5 2.5 39.1421 2.5 35H-2.5C-2.5 41.9036 3.09644 47.5 10 47.5V42.5ZM35 42.5H10V47.5H35V42.5ZM42.5 35C42.5 39.1421 39.1421 42.5 35 42.5V47.5C41.9036 47.5 47.5 41.9036 47.5 35H42.5ZM42.5 10V35H47.5V10H42.5ZM35 2.5C39.1421 2.5 42.5 5.85786 42.5 10H47.5C47.5 3.09644 41.9036 -2.5 35 -2.5V2.5ZM10 2.5H35V-2.5H10V2.5ZM13.6937 14.0943C13.6226 13.9035 13.5924 13.7481 13.5845 13.7078C13.5721 13.6441 13.5652 13.5944 13.5619 13.5699C13.5554 13.5201 13.5528 13.4865 13.5526 13.4841C13.5519 13.4751 13.553 13.4886 13.5552 13.5378C13.5594 13.6306 13.5641 13.7788 13.5689 13.9864C13.5783 14.3972 13.5871 14.9874 13.5945 15.7178C13.6093 17.1758 13.6185 19.1624 13.6185 21.324H18.6185C18.6185 19.1504 18.6093 17.1463 18.5942 15.667C18.5867 14.9288 18.5777 14.3137 18.5675 13.8711C18.5625 13.652 18.5568 13.4616 18.5503 13.3148C18.5471 13.2441 18.5428 13.1626 18.5366 13.0847C18.5337 13.0479 18.5283 12.9864 18.5189 12.9154C18.5143 12.8803 18.5059 12.8216 18.4921 12.7508C18.4828 12.7032 18.4513 12.5423 18.3787 12.3478L13.6937 14.0943ZM14.5666 15.5C14.8424 15.5 15.038 15.5025 15.1798 15.5075C15.3321 15.5128 15.3633 15.5194 15.3317 15.5146C15.3295 15.5143 15.0517 15.4798 14.7114 15.2881C14.5186 15.1795 14.3023 15.0191 14.1048 14.7893C13.9054 14.5574 13.7754 14.3134 13.6936 14.0942L18.3788 12.3479C18.1522 11.7399 17.7225 11.2455 17.1652 10.9316C16.7211 10.6815 16.2939 10.6031 16.0752 10.5702C15.6396 10.5047 15.094 10.5 14.5666 10.5V15.5ZM14.8848 14.8323C14.6723 15.0518 14.4652 15.1841 14.3467 15.2527C14.2186 15.3268 14.1081 15.3751 14.0362 15.4039C13.8962 15.4601 13.7844 15.4892 13.7367 15.5011C13.6798 15.5151 13.6369 15.5232 13.6159 15.527C13.5928 15.531 13.5777 15.5332 13.573 15.5338C13.5667 15.5347 13.6094 15.5292 13.7175 15.5224C13.9213 15.5096 14.2244 15.5 14.5666 15.5V10.5C14.1458 10.5 13.7348 10.5114 13.4029 10.5323C13.2432 10.5424 13.0626 10.557 12.8938 10.5802C12.816 10.5908 12.6833 10.6109 12.534 10.6479C12.4619 10.6657 12.3299 10.7011 12.1743 10.7635C12.0868 10.7986 11.6746 10.96 11.293 11.354L14.8848 14.8323ZM15.4232 30.9057C15.4963 31.1015 15.5264 31.261 15.5338 31.2997C15.5459 31.3632 15.5525 31.4123 15.5554 31.4355C15.5588 31.4619 15.5608 31.4816 15.5617 31.4914C15.5627 31.502 15.5632 31.5086 15.5634 31.5102C15.5636 31.5127 15.5631 31.5065 15.5621 31.4888C15.5612 31.4719 15.5601 31.4489 15.5589 31.419C15.5539 31.295 15.5486 31.1039 15.5436 30.8449C15.5335 30.3313 15.5251 29.6043 15.5184 28.729C15.5051 26.9811 15.4991 24.6729 15.5001 22.3673C15.5011 20.0616 15.5092 17.7652 15.524 16.0408C15.5314 15.177 15.5404 14.4652 15.5509 13.97C15.5562 13.7194 15.5615 13.5404 15.5665 13.43C15.5691 13.37 15.5705 13.358 15.5691 13.3742C15.5689 13.376 15.5643 13.4328 15.5513 13.513C15.5456 13.5478 15.529 13.6472 15.4937 13.7732C15.4762 13.8355 15.441 13.9525 15.3797 14.0935C15.3353 14.1954 15.1917 14.5163 14.8824 14.8348L11.2953 11.3516C10.9852 11.671 10.8407 11.9933 10.7954 12.0973C10.7332 12.2402 10.6971 12.3598 10.6788 12.4252C10.6418 12.5574 10.6234 12.6652 10.6161 12.7106C10.5996 12.8119 10.5916 12.8984 10.5881 12.9381C10.58 13.0304 10.575 13.1275 10.5714 13.2078C10.5638 13.3778 10.5575 13.6035 10.552 13.8642C10.5409 14.3914 10.5316 15.1281 10.5242 15.9979C10.5092 17.7407 10.5011 20.0517 10.5001 22.3651C10.4991 24.6785 10.5052 27.0011 10.5186 28.767C10.5253 29.6485 10.5339 30.3992 10.5445 30.9429C10.5498 31.2126 10.5559 31.4451 10.5631 31.622C10.5665 31.7077 10.5711 31.8014 10.5777 31.8879C10.5808 31.929 10.5862 31.9943 10.5956 32.0681C10.6003 32.1046 10.6086 32.165 10.6225 32.2375C10.6316 32.2853 10.6635 32.4517 10.7382 32.6523L15.4232 30.9057ZM17.8821 29.5C15.7678 29.5 14.6545 29.493 14.0569 29.4655C13.7245 29.4502 13.7254 29.434 13.8464 29.4625C13.9113 29.4777 14.1787 29.5424 14.4894 29.7423C14.8719 29.9884 15.2278 30.3806 15.4237 30.9069L10.7378 32.651C11.2181 33.9416 12.3921 34.2569 12.7019 34.3297C13.0772 34.418 13.4905 34.4448 13.8271 34.4602C14.5674 34.4943 15.8184 34.5 17.8821 34.5V29.5ZM22.6011 29.5H17.8821V34.5H22.6011V29.5ZM20.3122 30.6579L20.1455 31.5311L25.0568 32.4689L25.2235 31.5957L20.3122 30.6579ZM20.5193 29.4203C20.4931 29.631 20.3998 30.1996 20.3123 30.6579L25.2235 31.5958C25.3194 31.0937 25.4353 30.405 25.4809 30.0392L20.5193 29.4203ZM20.585 28.8956L20.5194 29.4195L25.4808 30.04L25.5463 29.5161L20.585 28.8956ZM19.5921 31.7059H23.0656V26.7059H19.5921V31.7059ZM16.1185 31.7059H19.5921V26.7059H16.1185V31.7059ZM13.6185 21.324V29.2059H18.6185V21.324H13.6185ZM29.4624 19.2329L29.501 20.574L34.499 20.4299L34.4603 19.0888L29.4624 19.2329ZM31.4448 20.2971C31.4997 20.3002 31.4207 20.2978 31.3169 20.2819C31.202 20.2644 30.9316 20.2141 30.6192 20.0507C30.2725 19.8693 29.9849 19.6075 29.7761 19.302C29.5886 19.0278 29.5081 18.7819 29.4747 18.6616C29.4203 18.4659 29.4266 18.3545 29.4376 18.5411C29.446 18.683 29.4525 18.8894 29.4624 19.2328L34.4603 19.089C34.4512 18.7719 34.4427 18.4804 34.4289 18.2464C34.4177 18.0571 34.3946 17.6918 34.2923 17.3235C34.1685 16.8777 33.8318 16.0885 32.9372 15.6204C32.5768 15.4318 32.2509 15.3666 32.0716 15.3392C31.9033 15.3135 31.7511 15.3064 31.7225 15.3049L31.4448 20.2971ZM28.151 20.7961C28.668 20.6612 29.3934 20.5228 30.0915 20.4238C30.4351 20.3751 30.75 20.3391 31.0082 20.3179C31.137 20.3073 31.2426 20.3012 31.3245 20.2984C31.4112 20.2955 31.4473 20.2973 31.4442 20.2971L31.7232 15.3049C31.0702 15.2684 30.1564 15.3646 29.3896 15.4733C28.5653 15.5902 27.6424 15.7613 26.8882 15.9582L28.151 20.7961ZM27.955 18.717C28.0166 18.9532 28.136 19.6311 27.7209 20.3539C27.5446 20.6609 27.3348 20.8586 27.192 20.9707C27.0544 21.0788 26.9462 21.1333 26.9173 21.1474C26.8738 21.1687 26.9191 21.1425 27.1663 21.0672C27.3931 20.9981 27.7072 20.912 28.1511 20.7961L26.8881 15.9582C26.0784 16.1696 25.2773 16.3832 24.7185 16.6569C24.4381 16.7942 23.8033 17.1355 23.385 17.864C22.8879 18.7297 23.0078 19.5614 23.117 19.9797L27.955 18.717ZM28.1128 25.8173C28.1123 24.1102 28.1034 22.5224 28.0893 21.3378C28.0823 20.7468 28.0739 20.2484 28.0644 19.8828C28.0597 19.702 28.0544 19.5406 28.0482 19.4118C28.0452 19.3491 28.0411 19.2769 28.0353 19.2062C28.0325 19.1716 28.0279 19.1207 28.0207 19.0626C28.0168 19.0315 27.9998 18.8889 27.9551 18.7176L23.1169 19.9792C23.0748 19.8177 23.0603 19.6904 23.059 19.6798C23.0543 19.6422 23.0522 19.6171 23.0519 19.6133C23.0512 19.6043 23.0521 19.6141 23.054 19.6529C23.0576 19.7268 23.0617 19.8454 23.0661 20.0128C23.0747 20.3439 23.0828 20.8154 23.0897 21.3971C23.1034 22.5578 23.1123 24.1257 23.1128 25.8187L28.1128 25.8173ZM28.1147 31.9992L28.1128 25.8172L23.1128 25.8188L23.1147 32.0008L28.1147 31.9992ZM27.1069 29.5H25.6147V34.5H27.1069V29.5ZM28.5992 29.5H27.1069V34.5H28.5992V29.5ZM26.0992 26.5037V32H31.0992V26.5037H26.0992ZM26.0992 21.0075V26.5037H31.0992V21.0075H26.0992ZM28.4095 18.4497L27.8618 18.6187L29.3365 23.3963L29.8842 23.2273L28.4095 18.4497ZM30.666 18.0923C29.9931 18.1413 28.9941 18.2694 28.4102 18.4495L29.8835 23.2275C29.8368 23.2419 29.8431 23.237 29.934 23.2191C30.0109 23.2039 30.1147 23.186 30.2398 23.1674C30.4922 23.1299 30.7796 23.0973 31.0286 23.0792L30.666 18.0923ZM31.8187 18.0085L30.666 18.0923L31.0286 23.0792L32.1813 22.9953L31.8187 18.0085Z" fill="#516071" mask="url(#path-1-inside-1)"/>
</svg>
