<svg width="33" height="45" viewBox="0 0 33 45" fill="none" xmlns="http://www.w3.org/2000/svg">
<path fill-rule="evenodd" clip-rule="evenodd" d="M13.3306 4.41298V2.20649V0H14.1098H14.8891L14.8729 2.98443L14.8567 5.96885L12.7855 5.98339L10.7143 5.99793V5.20546V4.41298H12.0224H13.3306ZM15.76 3.66713V1.83356V0H18.5961H21.4323L21.4148 0.792472L21.3974 1.58494L19.3885 1.60136L17.3796 1.61775V1.95787V2.29799L19.3885 2.31438L21.3974 2.3308L21.414 4.14883C21.4248 5.34791 21.409 5.96709 21.3673 5.96755C21.2846 5.9684 15.9037 5.9684 15.8223 5.96755C15.7841 5.96709 15.76 5.66597 15.76 5.18992V4.41298H17.7845H19.809V4.04006V3.66713H17.7845H15.76ZM2.92519 41.3591L16.0517 45L29.2145 41.3539L32.1429 8.57735H0L2.92519 41.3591ZM11.3995 15.5387H14.8879V37.9765L5.29485 35.5525V31.761L11.3995 33.3771V15.5387ZM27.3463 15.5387H17.3796V29.2127L22.9859 28.3425L22.5498 32.8798L17.3796 34.3715V37.9765L25.6022 35.5525L26.5988 24.1782L20.8679 24.9862V18.9572H27.0349L27.3463 15.5387Z" fill="#516071"/>
<path fill-rule="evenodd" clip-rule="evenodd" d="M16 44.9857L16.0517 45L29.2145 41.3539L32.1429 8.57735H16V44.9857ZM16 5.96778C16.9422 5.96839 21.293 5.96831 21.3673 5.96755C21.409 5.96709 21.4248 5.34791 21.414 4.14883L21.3974 2.3308L19.3885 2.31438L17.3796 2.29799V1.95787V1.61775L19.3885 1.60136L21.3974 1.58494L21.4148 0.792472L21.4323 0H18.5961H16V3.66713H17.7845H19.809V4.04006V4.41298H17.7845H16V5.96778ZM17.3796 15.5387H27.3463L27.0349 18.9572H20.8679V24.9862L26.5988 24.1782L25.6022 35.5525L17.3796 37.9765V34.3715L22.5498 32.8798L22.9859 28.3425L17.3796 29.2127V15.5387Z" fill="#66798E"/>
</svg>
