<svg width="32" height="45" viewBox="0 0 32 45" fill="none" xmlns="http://www.w3.org/2000/svg">
<path fill-rule="evenodd" clip-rule="evenodd" d="M2.96664 0H4.9948V2.00391H6.85017V0H8.87852V6.06832H6.85026V4.03629H4.99489V6.06832H2.96664V0ZM11.5461 2.01234H9.7605V0H15.3609V2.01234H13.5745V6.06832H11.5462V2.01234H11.5461ZM18.3637 0H16.2488V6.06832H18.2334V3.06053L19.6298 5.21815H19.6646L21.0601 3.06053V6.06832H23.08V0H20.9643L19.6646 2.13223L18.3637 0ZM24.0896 0H26.1185V4.06248H28.9708V6.06832H24.0896V0ZM28.9765 41.3806L31.8809 8.84363H0L2.90136 41.3857L15.9209 45.0001L28.9765 41.3806ZM15.9267 19.4868H10.2944L10.6591 23.5738H15.9405L24.1285 23.5738H25.204L25.1067 24.6456L24.1688 35.153L24.1087 35.8273L15.9405 38.0911V38.0918L15.9221 38.0969L7.74654 35.8273L7.18738 29.5606H9.03396H11.1939L11.478 32.7437L15.923 33.944L15.9267 33.943V33.9426L20.3781 32.7412L20.8413 27.5649H15.9267L7.00902 27.5649L6.02807 16.5664L5.93253 15.4956H15.9267H15.9405H25.9246L25.8291 16.5664L25.6473 18.5897L25.5672 19.4868H25.5544H15.9405H15.9267Z" fill="#516071"/>
<path fill-rule="evenodd" clip-rule="evenodd" d="M16 44.9782L28.9765 41.3806L31.8809 8.84363H16V15.4956H25.9246L25.8291 16.5664L25.6473 18.5897L25.5672 19.4868H25.5544H16V23.5738L24.1285 23.5738H25.204L25.1067 24.6456L24.1688 35.153L24.1087 35.8273L16 38.0746V44.9782ZM16 33.9228L20.3781 32.7412L20.8413 27.5649H16V33.9228ZM16.2488 0H18.3637L19.6646 2.13223L20.9643 0H23.08V6.06832H21.0601V3.06053L19.6646 5.21815H19.6298L18.2334 3.06053V6.06832H16.2488V0ZM26.1185 0H24.0896V6.06832H28.9708V4.06248H26.1185V0Z" fill="#66798E"/>
</svg>
