<svg width="45" height="45" viewBox="0 0 45 45" fill="none" xmlns="http://www.w3.org/2000/svg">
<mask id="path-1-inside-1" fill="white">
<path fill-rule="evenodd" clip-rule="evenodd" d="M10 0C4.47715 0 0 4.47715 0 10V35C0 40.5228 4.47715 45 10 45H35C40.5228 45 45 40.5228 45 35V10C45 4.47715 40.5228 0 35 0H10ZM23.5134 31.428C23.5134 31.2268 22.2994 27.0828 18.8427 15.4851L18.0201 12.7251H16.1195H14.2191L14.1231 13.3345C14.0704 13.6697 12.9033 17.8963 11.5297 22.7271C10.156 27.5579 9.03223 31.5421 9.03223 31.5807C9.03223 31.6194 9.67499 31.6509 10.4604 31.6509H11.8887L12.0579 31.0416C12.1508 30.7064 12.4663 29.5289 12.7588 28.4249L13.2907 26.4177L16.0721 26.3256C17.6019 26.2748 18.8858 26.2638 18.9253 26.3009C18.9647 26.3381 19.3283 27.5409 19.7332 28.9739L20.4695 31.5792L21.9914 31.62C23.3165 31.6554 23.5134 31.6306 23.5134 31.428ZM14.7838 20.8259C15.1663 19.4065 15.62 17.616 15.7922 16.8471C15.9644 16.0781 16.1293 15.4729 16.1587 15.5023C16.2407 15.5843 18.2084 23.181 18.2084 23.4156C18.2084 23.5851 17.8527 23.6218 16.2096 23.6218C15.1101 23.6218 14.1832 23.5733 14.1497 23.5143C14.116 23.4552 14.4014 22.2454 14.7838 20.8259ZM35.7925 29.9082C35.7419 29.4241 35.7004 26.4568 35.7004 23.314V17.5999H34.2189C33.404 17.5999 32.6942 17.6429 32.6418 17.6956C32.5892 17.748 32.5461 20.2982 32.5461 23.3624V28.9339L32.1521 29.0836C31.528 29.3209 29.786 29.2765 29.2708 29.0099C28.342 28.5297 28.3211 28.3996 28.2738 22.7974L28.2312 17.7433H26.8042H25.3773V23.0228C25.3773 27.5473 25.4111 28.4031 25.6138 29.0088C26.1873 30.7221 27.3195 31.6181 29.3134 31.9367C30.78 32.171 33.6259 31.7319 35.3727 31.0021L35.8844 30.7884L35.7925 29.9082Z"/>
</mask>
<path fill-rule="evenodd" clip-rule="evenodd" d="M10 0C4.47715 0 0 4.47715 0 10V35C0 40.5228 4.47715 45 10 45H35C40.5228 45 45 40.5228 45 35V10C45 4.47715 40.5228 0 35 0H10ZM23.5134 31.428C23.5134 31.2268 22.2994 27.0828 18.8427 15.4851L18.0201 12.7251H16.1195H14.2191L14.1231 13.3345C14.0704 13.6697 12.9033 17.8963 11.5297 22.7271C10.156 27.5579 9.03223 31.5421 9.03223 31.5807C9.03223 31.6194 9.67499 31.6509 10.4604 31.6509H11.8887L12.0579 31.0416C12.1508 30.7064 12.4663 29.5289 12.7588 28.4249L13.2907 26.4177L16.0721 26.3256C17.6019 26.2748 18.8858 26.2638 18.9253 26.3009C18.9647 26.3381 19.3283 27.5409 19.7332 28.9739L20.4695 31.5792L21.9914 31.62C23.3165 31.6554 23.5134 31.6306 23.5134 31.428ZM14.7838 20.8259C15.1663 19.4065 15.62 17.616 15.7922 16.8471C15.9644 16.0781 16.1293 15.4729 16.1587 15.5023C16.2407 15.5843 18.2084 23.181 18.2084 23.4156C18.2084 23.5851 17.8527 23.6218 16.2096 23.6218C15.1101 23.6218 14.1832 23.5733 14.1497 23.5143C14.116 23.4552 14.4014 22.2454 14.7838 20.8259ZM35.7925 29.9082C35.7419 29.4241 35.7004 26.4568 35.7004 23.314V17.5999H34.2189C33.404 17.5999 32.6942 17.6429 32.6418 17.6956C32.5892 17.748 32.5461 20.2982 32.5461 23.3624V28.9339L32.1521 29.0836C31.528 29.3209 29.786 29.2765 29.2708 29.0099C28.342 28.5297 28.3211 28.3996 28.2738 22.7974L28.2312 17.7433H26.8042H25.3773V23.0228C25.3773 27.5473 25.4111 28.4031 25.6138 29.0088C26.1873 30.7221 27.3195 31.6181 29.3134 31.9367C30.78 32.171 33.6259 31.7319 35.3727 31.0021L35.8844 30.7884L35.7925 29.9082Z" fill="#4A5B6D"/>
<path d="M18.8427 15.4851L16.4468 16.1991L16.4468 16.1992L18.8427 15.4851ZM18.0201 12.7251L20.416 12.0111L19.8837 10.2251H18.0201V12.7251ZM14.2191 12.7251V10.2251H12.0818L11.7495 12.3364L14.2191 12.7251ZM14.1231 13.3345L11.6535 12.9457L11.6535 12.9457L14.1231 13.3345ZM11.5297 22.7271L13.9344 23.4109L13.9344 23.4108L11.5297 22.7271ZM11.8887 31.6509V34.1509H13.7892L14.2976 32.3197L11.8887 31.6509ZM12.0579 31.0416L14.4668 31.7104L14.4671 31.7093L12.0579 31.0416ZM12.7588 28.4249L10.3422 27.7845L10.3421 27.7847L12.7588 28.4249ZM13.2907 26.4177L13.208 23.919L11.3502 23.9805L10.8741 25.7773L13.2907 26.4177ZM16.0721 26.3256L16.1548 28.8242L16.155 28.8242L16.0721 26.3256ZM19.7332 28.9739L17.3274 29.6537L17.3274 29.6538L19.7332 28.9739ZM20.4695 31.5792L18.0637 32.2591L18.5639 34.0292L20.4026 34.0783L20.4695 31.5792ZM21.9914 31.62L21.9245 34.1191L21.9246 34.1191L21.9914 31.62ZM15.7922 16.8471L18.2318 17.3934L18.2318 17.3934L15.7922 16.8471ZM14.7838 20.8259L12.3699 20.1754L12.3699 20.1756L14.7838 20.8259ZM14.1497 23.5143L16.3235 22.2796L16.3212 22.2756L14.1497 23.5143ZM35.7925 29.9082L38.279 29.6485L38.2789 29.6482L35.7925 29.9082ZM35.7004 17.5999H38.2004V15.0999H35.7004V17.5999ZM32.6418 17.6956L34.4071 19.4657L34.412 19.4609L32.6418 17.6956ZM32.5461 28.9339L33.434 31.271L35.0461 30.6585V28.9339H32.5461ZM32.1521 29.0836L31.2643 26.7466L31.2637 26.7468L32.1521 29.0836ZM29.2708 29.0099L30.4197 26.7895L30.4189 26.7891L29.2708 29.0099ZM28.2738 22.7974L25.7739 22.8184V22.8185L28.2738 22.7974ZM28.2312 17.7433L30.7311 17.7222L30.7102 15.2433H28.2312V17.7433ZM25.3773 17.7433V15.2433H22.8773V17.7433H25.3773ZM25.6138 29.0088L27.9845 28.2152L27.9845 28.2152L25.6138 29.0088ZM29.3134 31.9367L28.919 34.4054L28.9191 34.4054L29.3134 31.9367ZM35.3727 31.0021L34.409 28.6954L34.4089 28.6954L35.3727 31.0021ZM35.8844 30.7884L36.8481 33.0952L38.564 32.3783L38.3709 30.5287L35.8844 30.7884ZM2.5 10C2.5 5.85786 5.85786 2.5 10 2.5V-2.5C3.09644 -2.5 -2.5 3.09644 -2.5 10H2.5ZM2.5 35V10H-2.5V35H2.5ZM10 42.5C5.85786 42.5 2.5 39.1421 2.5 35H-2.5C-2.5 41.9036 3.09644 47.5 10 47.5V42.5ZM35 42.5H10V47.5H35V42.5ZM42.5 35C42.5 39.1421 39.1421 42.5 35 42.5V47.5C41.9036 47.5 47.5 41.9036 47.5 35H42.5ZM42.5 10V35H47.5V10H42.5ZM35 2.5C39.1421 2.5 42.5 5.85786 42.5 10H47.5C47.5 3.09644 41.9036 -2.5 35 -2.5V2.5ZM10 2.5H35V-2.5H10V2.5ZM16.4468 16.1992C18.1752 21.9982 19.3414 25.9285 20.0751 28.4331C20.4424 29.6868 20.6989 30.5748 20.8626 31.1585C20.9451 31.4523 21.0002 31.6553 21.0333 31.784C21.0413 31.815 21.0473 31.8388 21.0516 31.8564C21.056 31.8746 21.0576 31.8818 21.0573 31.8806C21.0571 31.8796 21.0559 31.8742 21.0541 31.8651C21.0524 31.8566 21.0491 31.84 21.0453 31.8175C21.0418 31.7969 21.0355 31.758 21.0295 31.7072C21.0248 31.6667 21.0134 31.5629 21.0134 31.428H26.0134C26.0134 31.1932 25.9785 31.0027 25.9742 30.9774C25.9625 30.9086 25.9497 30.8478 25.9404 30.8058C25.9215 30.7196 25.8984 30.6265 25.8755 30.5378C25.8288 30.356 25.762 30.1116 25.6767 29.8075C25.5048 29.1951 25.2417 28.2845 24.8734 27.0274C24.136 24.5102 22.9668 20.5697 21.2385 14.771L16.4468 16.1992ZM15.6243 13.4391L16.4468 16.1991L21.2386 14.7711L20.416 12.0111L15.6243 13.4391ZM16.1195 15.2251H18.0201V10.2251H16.1195V15.2251ZM14.2191 15.2251H16.1195V10.2251H14.2191V15.2251ZM16.5927 13.7232L16.6886 13.1138L11.7495 12.3364L11.6535 12.9457L16.5927 13.7232ZM13.9344 23.4108C14.6225 20.9909 15.2594 18.7202 15.7315 17.0103C15.9674 16.1561 16.1634 15.4373 16.3045 14.908C16.4193 14.4773 16.5533 13.9734 16.5927 13.7232L11.6535 12.9457C11.6665 12.8631 11.6349 13.0132 11.4731 13.6203C11.3376 14.1287 11.1461 14.8313 10.9119 15.6795C10.4439 17.3745 9.81051 19.6325 9.12503 22.0434L13.9344 23.4108ZM11.5322 31.5807C11.5322 31.7374 11.5169 31.859 11.5125 31.8936C11.5059 31.9458 11.499 31.9872 11.495 32.01C11.487 32.056 11.4794 32.0914 11.4764 32.1053C11.4697 32.1363 11.4641 32.1588 11.4632 32.1626C11.4603 32.1743 11.4593 32.1777 11.4625 32.1655C11.4681 32.1445 11.4783 32.1063 11.4945 32.0473C11.5262 31.9314 11.5742 31.7585 11.6373 31.5324C11.7632 31.0813 11.9458 30.4313 12.1719 29.6297C12.624 28.0271 13.2479 25.8251 13.9344 23.4109L9.12505 22.0433C8.43787 24.4599 7.813 26.6654 7.35973 28.2723C7.13319 29.0754 6.94905 29.7306 6.8213 30.1883C6.75759 30.4166 6.70699 30.5991 6.67189 30.7273C6.65464 30.7903 6.63944 30.8464 6.62785 30.8904C6.62249 30.9107 6.61504 30.9392 6.60782 30.9686C6.60472 30.9812 6.59753 31.0106 6.58973 31.0466C6.58617 31.0631 6.57818 31.1005 6.56986 31.1481C6.56573 31.1717 6.55869 31.2137 6.55202 31.2665C6.54758 31.3016 6.53223 31.4236 6.53223 31.5807H11.5322ZM10.4604 29.1509C10.0954 29.1509 9.78113 29.1435 9.57453 29.1333C9.46313 29.1279 9.42286 29.1235 9.43257 29.1246C9.43848 29.1253 9.45732 29.1275 9.48538 29.1319C9.50927 29.1357 9.56663 29.1452 9.64253 29.1633C9.6871 29.1739 9.88577 29.2206 10.1236 29.3351C10.2357 29.389 10.4992 29.5243 10.7688 29.7841C11.039 30.0444 11.5322 30.6506 11.5322 31.5807H6.53223C6.53223 32.5132 7.02673 33.1218 7.29939 33.3845C7.57143 33.6466 7.83865 33.7843 7.95565 33.8406C8.20331 33.9598 8.41655 34.0111 8.48023 34.0263C8.64764 34.0663 8.79469 34.0841 8.85729 34.0914C9.01206 34.1093 9.18157 34.1201 9.32904 34.1273C9.64017 34.1426 10.04 34.1509 10.4604 34.1509V29.1509ZM11.8887 29.1509H10.4604V34.1509H11.8887V29.1509ZM9.64904 30.3728L9.47986 30.9821L14.2976 32.3197L14.4668 31.7104L9.64904 30.3728ZM10.3421 27.7847C10.0489 28.8916 9.73716 30.0548 9.64874 30.3738L14.4671 31.7093C14.5645 31.3579 14.8836 30.1663 15.1754 29.0652L10.3421 27.7847ZM10.8741 25.7773L10.3422 27.7845L15.1753 29.0653L15.7073 27.058L10.8741 25.7773ZM15.9894 23.827L13.208 23.919L13.3734 28.9163L16.1548 28.8242L15.9894 23.827ZM20.6393 24.4811C20.166 24.0353 19.6414 23.9045 19.6224 23.8989C19.4781 23.8565 19.3598 23.8359 19.3057 23.8271C19.1886 23.808 19.089 23.7999 19.0418 23.7963C18.9342 23.7882 18.8233 23.7846 18.7346 23.7826C18.5462 23.7784 18.304 23.7781 18.036 23.7804C17.4932 23.7851 16.7685 23.8011 15.9892 23.827L16.155 28.8242C16.9055 28.7993 17.5877 28.7845 18.0791 28.7802C18.3283 28.7781 18.5101 28.7788 18.6213 28.7813C18.6824 28.7827 18.6903 28.784 18.6664 28.7822C18.6611 28.7818 18.5946 28.7772 18.5014 28.762C18.4592 28.7551 18.3505 28.7365 18.2136 28.6963C18.1445 28.676 18.0258 28.638 17.8845 28.5736C17.7665 28.5197 17.4919 28.3852 17.2112 28.1208L20.6393 24.4811ZM22.139 28.2942C21.9336 27.5673 21.7372 26.8932 21.5853 26.3906C21.51 26.1416 21.4418 25.922 21.3871 25.7549C21.3609 25.6748 21.3304 25.5843 21.2996 25.5008C21.2857 25.4632 21.2594 25.3934 21.2247 25.3145C21.2084 25.2775 21.1744 25.2021 21.1253 25.112C21.1197 25.1015 20.9578 24.781 20.6393 24.4811L17.2112 28.1208C17.0191 27.9399 16.9008 27.7697 16.8551 27.702C16.7978 27.6171 16.7573 27.5456 16.7345 27.5037C16.6891 27.4204 16.6595 27.354 16.6481 27.3282C16.6339 27.296 16.6241 27.2715 16.6194 27.2596C16.6142 27.2464 16.6109 27.2376 16.6098 27.2345C16.608 27.2296 16.6155 27.2503 16.6353 27.3106C16.6725 27.4243 16.7279 27.6018 16.7991 27.8373C16.9401 28.3037 17.1279 28.9475 17.3274 29.6537L22.139 28.2942ZM22.8752 30.8994L22.139 28.2941L17.3274 29.6538L18.0637 32.2591L22.8752 30.8994ZM22.0583 29.1209L20.5363 29.0801L20.4026 34.0783L21.9245 34.1191L22.0583 29.1209ZM21.0134 31.428C21.0134 31.2647 21.0309 30.9442 21.18 30.5702C21.3432 30.1608 21.6108 29.8194 21.9332 29.5702C22.2246 29.3451 22.4981 29.2432 22.6455 29.1978C22.7959 29.1515 22.9059 29.1367 22.9365 29.1329C22.9882 29.1263 22.966 29.1329 22.782 29.1334C22.6162 29.1338 22.3864 29.1296 22.0582 29.1209L21.9246 34.1191C22.5092 34.1347 23.1138 34.1501 23.5621 34.0936C23.7397 34.0712 24.3876 33.9925 24.9906 33.5266C25.851 32.8617 26.0134 31.9441 26.0134 31.428H21.0134ZM13.3526 16.3007C13.1922 17.017 12.7496 18.7668 12.3699 20.1754L17.1977 21.4765C17.5831 20.0462 18.0478 18.215 18.2318 17.3934L13.3526 16.3007ZM17.9264 13.7346C17.3397 13.1478 16.4404 12.8443 15.5265 13.0818C14.8551 13.2564 14.46 13.6554 14.3417 13.7795C14.0678 14.0669 13.9286 14.3561 13.9078 14.3975C13.8211 14.5699 13.7673 14.7261 13.7498 14.7769C13.7001 14.9209 13.6542 15.0813 13.6169 15.218C13.5375 15.5096 13.4441 15.8923 13.3526 16.3007L18.2318 17.3934C18.3125 17.0329 18.3876 16.7285 18.441 16.5326C18.4702 16.4256 18.4817 16.3921 18.4767 16.4069C18.4742 16.4141 18.4667 16.4356 18.4545 16.4664C18.4447 16.4914 18.4181 16.5576 18.3753 16.6428C18.3622 16.6689 18.2296 16.9474 17.9615 17.2288C17.846 17.3499 17.4536 17.7471 16.7845 17.921C16.4053 18.0196 15.9463 18.0423 15.4652 17.9037C14.9911 17.7672 14.6351 17.5143 14.3909 17.2701L17.9264 13.7346ZM20.7084 23.4156C20.7084 23.242 20.6896 23.1038 20.6857 23.0737C20.6784 23.0181 20.6705 22.971 20.6652 22.9409C20.6544 22.8794 20.6424 22.8202 20.6326 22.7739C20.6124 22.6779 20.5863 22.5629 20.5578 22.4413C20.4999 22.1943 20.4195 21.865 20.3257 21.488C20.1373 20.7312 19.8867 19.7488 19.6344 18.7749C19.3822 17.801 19.1263 16.8279 18.9274 16.0899C18.8285 15.7226 18.7411 15.4042 18.6743 15.1702C18.6417 15.056 18.6092 14.9449 18.5802 14.8527C18.567 14.8105 18.5458 14.7444 18.5201 14.6742C18.5087 14.6428 18.4831 14.5738 18.4463 14.4914C18.4284 14.4515 18.3932 14.3752 18.3419 14.2835C18.3157 14.2368 18.1793 13.9874 17.9264 13.7346L14.3909 17.2701C14.1393 17.0185 14.0044 16.7713 13.98 16.7277C13.9304 16.6392 13.8972 16.5668 13.8815 16.5318C13.8491 16.4592 13.8287 16.4036 13.8234 16.3889C13.81 16.3523 13.8045 16.3335 13.8102 16.3516C13.819 16.3798 13.8372 16.4405 13.8663 16.5424C13.9228 16.7404 14.0026 17.0307 14.0996 17.3908C14.2928 18.1076 14.5442 19.0637 14.7941 20.0286C15.0441 20.9934 15.2905 21.9593 15.4736 22.6954C15.5656 23.0649 15.6395 23.3682 15.6896 23.5819C15.7151 23.6906 15.7312 23.763 15.7399 23.8041C15.7446 23.8263 15.7436 23.8231 15.7403 23.8041C15.7387 23.7952 15.7337 23.766 15.7283 23.7248C15.7262 23.7091 15.7084 23.5819 15.7084 23.4156H20.7084ZM16.2096 26.1218C16.996 26.1218 17.6339 26.1152 18.0817 26.0691C18.2599 26.0507 18.7135 26.0024 19.1758 25.7888C19.438 25.6676 19.8477 25.4287 20.1888 24.9745C20.5639 24.4752 20.7084 23.9136 20.7084 23.4156H15.7084C15.7084 22.96 15.8418 22.4366 16.1909 21.9717C16.5062 21.552 16.8753 21.3438 17.0785 21.2499C17.2827 21.1555 17.4436 21.1195 17.4962 21.1085C17.559 21.0954 17.5899 21.0933 17.5686 21.0954C17.4277 21.11 17.0662 21.1218 16.2096 21.1218V26.1218ZM11.9758 24.749C12.2534 25.2377 12.6204 25.5023 12.7809 25.608C12.9688 25.7317 13.1349 25.8048 13.2289 25.8428C13.4172 25.919 13.5772 25.9574 13.6486 25.9737C13.8077 26.0098 13.9532 26.0287 14.0378 26.0387C14.2264 26.061 14.4424 26.076 14.6495 26.0868C15.0772 26.1091 15.6289 26.1218 16.2096 26.1218V21.1218C15.6909 21.1218 15.2293 21.1102 14.9103 21.0936C14.744 21.0849 14.6533 21.0767 14.6243 21.0732C14.6002 21.0704 14.6591 21.0758 14.7568 21.098C14.7975 21.1073 14.9331 21.1386 15.1036 21.2076C15.1887 21.242 15.3476 21.3115 15.5299 21.4315C15.6244 21.4937 15.7492 21.5851 15.8815 21.7119C16.0127 21.8376 16.1782 22.0238 16.3235 22.2796L11.9758 24.749ZM12.3699 20.1756C12.1738 20.9034 12 21.587 11.8775 22.1062C11.8172 22.3618 11.764 22.5999 11.7268 22.7914C11.7093 22.8812 11.6875 23.0005 11.6719 23.1217C11.6649 23.176 11.6515 23.288 11.6479 23.423C11.6462 23.488 11.6448 23.615 11.6617 23.7722C11.6707 23.8556 11.7118 24.2861 11.9781 24.7529L16.3212 22.2756C16.4713 22.5388 16.5406 22.7723 16.5732 22.9025C16.6087 23.0441 16.6249 23.1621 16.6331 23.2385C16.6491 23.3876 16.6475 23.5043 16.6461 23.5568C16.6432 23.667 16.6328 23.7455 16.6312 23.7583C16.6263 23.7965 16.6242 23.8005 16.6347 23.7463C16.6535 23.6501 16.6893 23.4859 16.7439 23.2543C16.8513 22.7989 17.0114 22.1679 17.1978 21.4762L12.3699 20.1756ZM33.2004 23.314C33.2004 26.3699 33.238 29.5175 33.306 30.1681L38.2789 29.6482C38.281 29.6682 38.2774 29.6338 38.2715 29.503C38.2664 29.3888 38.2611 29.2362 38.2558 29.046C38.2452 28.6667 38.2355 28.1648 38.2272 27.5732C38.2107 26.3914 38.2004 24.8757 38.2004 23.314H33.2004ZM33.2004 17.5999V23.314H38.2004V17.5999H33.2004ZM34.2189 20.0999H35.7004V15.0999H34.2189V20.0999ZM34.412 19.4609C34.1949 19.6785 33.985 19.8077 33.8683 19.8729C33.741 19.9441 33.6318 19.9901 33.5618 20.0172C33.4251 20.0701 33.3166 20.0973 33.2717 20.108C33.2177 20.1209 33.1774 20.1282 33.1587 20.1314C33.138 20.1349 33.1253 20.1366 33.1227 20.1369C33.1188 20.1375 33.1316 20.1357 33.1658 20.1328C33.1982 20.1299 33.2414 20.1267 33.2957 20.1234C33.5199 20.1098 33.8492 20.0999 34.2189 20.0999V15.0999C33.7737 15.0999 33.3406 15.1115 32.9931 15.1326C32.8254 15.1428 32.6398 15.1573 32.4687 15.1799C32.3896 15.1903 32.2578 15.2095 32.1106 15.2447C32.0397 15.2616 31.9098 15.2951 31.7566 15.3544C31.6751 15.386 31.2593 15.5415 30.8716 15.9302L34.412 19.4609ZM35.0461 23.3624C35.0461 21.8401 35.0568 20.4511 35.0739 19.4417C35.0824 18.9346 35.0924 18.5364 35.1027 18.2693C35.1081 18.1314 35.1127 18.0531 35.1152 18.0202C35.1169 17.9976 35.1151 18.0304 35.1066 18.0898C35.1032 18.1133 35.0904 18.202 35.0613 18.3177C35.0473 18.3734 35.0161 18.4902 34.9587 18.6328C34.9262 18.7135 34.7747 19.0991 34.4071 19.4657L30.8764 15.9254C30.5072 16.2936 30.354 16.6821 30.3199 16.7668C30.2609 16.9136 30.2281 17.0356 30.2124 17.0978C30.1801 17.2264 30.164 17.3328 30.1574 17.3786C30.1425 17.4826 30.1344 17.5786 30.1299 17.6367C30.12 17.7653 30.1126 17.9188 30.1065 18.0752C30.094 18.3967 30.0834 18.8374 30.0746 19.3574C30.0569 20.4023 30.0461 21.8205 30.0461 23.3624H35.0461ZM35.0461 28.9339V23.3624H30.0461V28.9339H35.0461ZM33.04 31.4206L33.434 31.271L31.6583 26.5969L31.2643 26.7466L33.04 31.4206ZM28.122 31.2303C28.6263 31.4913 29.1656 31.5911 29.4688 31.6379C29.8408 31.6954 30.2352 31.7254 30.6068 31.7349C30.9797 31.7444 31.3752 31.7345 31.7515 31.6981C32.0845 31.6659 32.5723 31.5985 33.0406 31.4204L31.2637 26.7468C31.3636 26.7088 31.4176 26.7007 31.3952 26.705C31.3813 26.7077 31.3407 26.7145 31.2706 26.7213C31.1287 26.735 30.9394 26.7418 30.7345 26.7365C30.5281 26.7312 30.3514 26.715 30.2324 26.6966C30.1734 26.6875 30.1526 26.6815 30.1631 26.6843C30.1696 26.686 30.1938 26.6927 30.2317 26.7064C30.2678 26.7194 30.3344 26.7454 30.4197 26.7895L28.122 31.2303ZM25.7739 22.8185C25.7965 25.4936 25.8076 27.1882 25.9733 28.2206C26.0652 28.7928 26.2506 29.5249 26.7749 30.1826C27.2826 30.8197 27.9234 31.1277 28.1227 31.2307L30.4189 26.7891C30.1538 26.6521 30.4437 26.7637 30.6848 27.0662C30.9425 27.3895 30.9456 27.6489 30.9102 27.4282C30.8213 26.8749 30.7984 25.7033 30.7737 22.7763L25.7739 22.8185ZM25.7313 17.7644L25.7739 22.8184L30.7737 22.7763L30.7311 17.7222L25.7313 17.7644ZM26.8042 20.2433H28.2312V15.2433H26.8042V20.2433ZM25.3773 20.2433H26.8042V15.2433H25.3773V20.2433ZM27.8773 23.0228V17.7433H22.8773V23.0228H27.8773ZM27.9845 28.2152C27.9844 28.2148 27.9847 28.2158 27.9851 28.2171C27.9855 28.2184 27.9852 28.2175 27.9843 28.2136C27.9826 28.206 27.9768 28.1787 27.9691 28.1217C27.9525 27.9978 27.9332 27.7811 27.9176 27.3866C27.8861 26.5908 27.8773 25.2991 27.8773 23.0228H22.8773C22.8773 25.271 22.8853 26.6695 22.9215 27.5841C22.9572 28.4878 23.0241 29.148 23.2431 29.8024L27.9845 28.2152ZM29.7078 29.468C28.9904 29.3534 28.6527 29.1702 28.4824 29.0354C28.3327 28.9169 28.1501 28.7097 27.9845 28.2152L23.2431 29.8023C23.6511 31.0212 24.3213 32.1187 25.3795 32.9561C26.4172 33.7773 27.6425 34.2014 28.919 34.4054L29.7078 29.468ZM34.4089 28.6954C33.7751 28.9602 32.8355 29.2092 31.8569 29.3602C30.8426 29.5166 30.0634 29.5248 29.7078 29.468L28.9191 34.4054C30.03 34.5829 31.4071 34.4887 32.6191 34.3017C33.8667 34.1093 35.2235 33.7739 36.3364 33.3089L34.4089 28.6954ZM34.9207 28.4816L34.409 28.6954L36.3364 33.3089L36.8481 33.0952L34.9207 28.4816ZM33.306 30.1678L33.3979 31.048L38.3709 30.5287L38.279 29.6485L33.306 30.1678Z" fill="#4A5B6D" mask="url(#path-1-inside-1)"/>
</svg>
