<svg width="30" height="45" viewBox="0 0 30 45" fill="none" xmlns="http://www.w3.org/2000/svg">
<g clip-path="url(#clip0)">
<path d="M7.50149 45C11.6407 45 15 41.64 15 37.5001V30.0001H7.50149C3.36232 30.0001 0.00299072 33.3601 0.00299072 37.5001C0.00299072 41.64 3.36232 45 7.50149 45Z" fill="#7A8B9E"/>
<path d="M0.00299072 22.5001C0.00299072 18.3601 3.36232 15.0001 7.50149 15.0001H15V30H7.50149C3.36232 30 0.00299072 26.6401 0.00299072 22.5001Z" fill="#6D8095"/>
<path d="M0.0038147 7.5C0.0038147 3.36 3.36314 0 7.50231 0H15.0008V15H7.50231C3.36314 15 0.0038147 11.64 0.0038147 7.5Z" fill="#66798E"/>
<path d="M15 0H22.4985C26.6377 0 29.997 3.36 29.997 7.5C29.997 11.64 26.6377 15 22.4985 15H15V0Z" fill="#8B9AAB"/>
<path d="M29.997 22.5001C29.997 26.6401 26.6377 30 22.4985 30C18.3593 30 15 26.6401 15 22.5001C15 18.3601 18.3593 15.0001 22.4985 15.0001C26.6377 15.0001 29.997 18.3601 29.997 22.5001Z" fill="#8292A4"/>
</g>
<defs>
<clipPath id="clip0">
<rect width="30" height="45" fill="white"/>
</clipPath>
</defs>
</svg>
