<svg width="45" height="45" viewBox="0 0 45 45" fill="none" xmlns="http://www.w3.org/2000/svg">
<mask id="path-1-inside-1" fill="white">
<path fill-rule="evenodd" clip-rule="evenodd" d="M10 0C4.47715 0 0 4.47715 0 10V35C0 40.5228 4.47715 45 10 45H35C40.5228 45 45 40.5228 45 35V10C45 4.47715 40.5228 0 35 0H10ZM22.9326 19.894C23.4083 16.5379 21.8147 13.9296 18.8478 13.2092C18.1949 13.0507 17.1863 12.9938 15.15 13.0005C13.61 13.0056 12.2713 13.0425 12.175 13.0825C12.0375 13.1397 12 15.1637 12 22.5226V31.8901L13.435 31.849L14.87 31.8079L14.9075 28.4547L14.9452 25.1016L15.9575 25.0965C20.0319 25.0763 22.4539 23.2698 22.9326 19.894ZM14.8322 19.1199C14.8113 17.3766 14.8252 15.8677 14.8627 15.7667C14.9537 15.5225 17.2861 15.5179 18.0738 15.7604C18.8827 16.0093 19.7511 16.942 19.9565 17.7822C20.4148 19.6571 19.8047 21.2148 18.3 22.0116C17.9242 22.2107 17.4674 22.2733 16.34 22.2802L14.87 22.2893L14.8322 19.1199ZM32.23 18.2632L31.6 18.0753C30.6621 17.7955 28.8463 17.7245 27.9561 17.9329C26.4809 18.2782 25.3714 19.2039 24.9398 20.4501C24.7032 21.1332 24.6893 22.3666 24.9095 23.1379C25.1547 23.9964 26.3702 25.1789 27.819 25.9682C29.4922 26.8797 30.06 27.4318 30.06 28.147C30.06 28.8395 29.7313 29.2087 28.9126 29.4359C28.1029 29.6604 26.6121 29.4106 25.5404 28.8708L24.7306 28.4631L24.7704 29.9192L24.81 31.3752L25.72 31.7019C26.503 31.983 26.8644 32.0232 28.31 31.9903C29.8269 31.9559 30.0678 31.9127 30.7914 31.5467C32.1954 30.8365 33 29.4865 33 27.8414C33 26.1367 32.0904 24.9188 29.9375 23.741C27.5653 22.4433 26.9814 21.5723 27.8705 20.658C28.184 20.3356 28.3302 20.2709 29.3989 20.2798C30.3008 20.2875 30.7405 20.3701 31.4299 20.6617L32.3098 21.034L32.2699 19.6486L32.23 18.2632Z"/>
</mask>
<path fill-rule="evenodd" clip-rule="evenodd" d="M10 0C4.47715 0 0 4.47715 0 10V35C0 40.5228 4.47715 45 10 45H35C40.5228 45 45 40.5228 45 35V10C45 4.47715 40.5228 0 35 0H10ZM22.9326 19.894C23.4083 16.5379 21.8147 13.9296 18.8478 13.2092C18.1949 13.0507 17.1863 12.9938 15.15 13.0005C13.61 13.0056 12.2713 13.0425 12.175 13.0825C12.0375 13.1397 12 15.1637 12 22.5226V31.8901L13.435 31.849L14.87 31.8079L14.9075 28.4547L14.9452 25.1016L15.9575 25.0965C20.0319 25.0763 22.4539 23.2698 22.9326 19.894ZM14.8322 19.1199C14.8113 17.3766 14.8252 15.8677 14.8627 15.7667C14.9537 15.5225 17.2861 15.5179 18.0738 15.7604C18.8827 16.0093 19.7511 16.942 19.9565 17.7822C20.4148 19.6571 19.8047 21.2148 18.3 22.0116C17.9242 22.2107 17.4674 22.2733 16.34 22.2802L14.87 22.2893L14.8322 19.1199ZM32.23 18.2632L31.6 18.0753C30.6621 17.7955 28.8463 17.7245 27.9561 17.9329C26.4809 18.2782 25.3714 19.2039 24.9398 20.4501C24.7032 21.1332 24.6893 22.3666 24.9095 23.1379C25.1547 23.9964 26.3702 25.1789 27.819 25.9682C29.4922 26.8797 30.06 27.4318 30.06 28.147C30.06 28.8395 29.7313 29.2087 28.9126 29.4359C28.1029 29.6604 26.6121 29.4106 25.5404 28.8708L24.7306 28.4631L24.7704 29.9192L24.81 31.3752L25.72 31.7019C26.503 31.983 26.8644 32.0232 28.31 31.9903C29.8269 31.9559 30.0678 31.9127 30.7914 31.5467C32.1954 30.8365 33 29.4865 33 27.8414C33 26.1367 32.0904 24.9188 29.9375 23.741C27.5653 22.4433 26.9814 21.5723 27.8705 20.658C28.184 20.3356 28.3302 20.2709 29.3989 20.2798C30.3008 20.2875 30.7405 20.3701 31.4299 20.6617L32.3098 21.034L32.2699 19.6486L32.23 18.2632Z" fill="#4A5B6D"/>
<path d="M18.8478 13.2092L19.4377 10.7798L19.4375 10.7798L18.8478 13.2092ZM22.9326 19.894L25.4078 20.245L25.4079 20.2449L22.9326 19.894ZM15.15 13.0005L15.1582 15.5005L15.1583 15.5005L15.15 13.0005ZM12.175 13.0825L11.2172 10.7732L11.2139 10.7746L12.175 13.0825ZM12 31.8901H9.5V34.4627L12.0716 34.3891L12 31.8901ZM13.435 31.849L13.5066 34.348L13.435 31.849ZM14.87 31.8079L14.9416 34.3069L17.343 34.2381L17.3698 31.8358L14.87 31.8079ZM14.9075 28.4547L12.4077 28.4267L12.4077 28.4268L14.9075 28.4547ZM14.9452 25.1016L14.9327 22.6016L12.473 22.6139L12.4453 25.0735L14.9452 25.1016ZM15.9575 25.0965L15.9451 22.5966H15.9451L15.9575 25.0965ZM14.8627 15.7667L12.5201 14.8936L12.5193 14.8958L14.8627 15.7667ZM14.8322 19.1199L17.332 19.09L17.332 19.0899L14.8322 19.1199ZM18.0738 15.7604L17.3383 18.1497L17.3385 18.1498L18.0738 15.7604ZM19.9565 17.7822L17.528 18.3758L17.528 18.3759L19.9565 17.7822ZM18.3 22.0116L17.13 19.8023L17.1298 19.8024L18.3 22.0116ZM16.34 22.2802L16.3247 19.7802H16.3245L16.34 22.2802ZM14.87 22.2893L12.3702 22.3191L12.3998 24.8046L14.8855 24.7892L14.87 22.2893ZM31.6 18.0753L30.8853 20.4709L30.8854 20.4709L31.6 18.0753ZM32.23 18.2632L34.729 18.1912L34.6769 16.3842L32.9446 15.8675L32.23 18.2632ZM27.9561 17.9329L28.5258 20.3671L28.5259 20.3671L27.9561 17.9329ZM24.9398 20.4501L27.3021 21.2684L27.3021 21.2683L24.9398 20.4501ZM24.9095 23.1379L22.5056 23.8242L22.5056 23.8243L24.9095 23.1379ZM27.819 25.9682L26.623 28.1636L26.623 28.1636L27.819 25.9682ZM28.9126 29.4359L29.5807 31.8449L29.5809 31.8449L28.9126 29.4359ZM25.5404 28.8708L26.665 26.6381L26.6647 26.6379L25.5404 28.8708ZM24.7306 28.4631L25.8549 26.2302L22.1173 24.3483L22.2316 28.5313L24.7306 28.4631ZM24.7704 29.9192L27.2695 29.8511L27.2694 29.8509L24.7704 29.9192ZM24.81 31.3752L22.3109 31.4432L22.3574 33.151L23.9653 33.7282L24.81 31.3752ZM25.72 31.7019L26.5647 29.3489L26.5647 29.3489L25.72 31.7019ZM28.31 31.9903L28.2532 29.491L28.2531 29.491L28.31 31.9903ZM30.7914 31.5467L29.663 29.3158L29.6628 29.3159L30.7914 31.5467ZM29.9375 23.741L31.1374 21.5478L31.1373 21.5477L29.9375 23.741ZM27.8705 20.658L26.0782 18.9151L27.8705 20.658ZM29.3989 20.2798L29.4201 17.7799L29.4198 17.7799L29.3989 20.2798ZM31.4299 20.6617L32.4039 18.3593L32.4039 18.3593L31.4299 20.6617ZM32.3098 21.034L31.3358 23.3364L34.9208 24.853L34.8088 20.962L32.3098 21.034ZM32.2699 19.6486L34.7689 19.5766V19.5766L32.2699 19.6486ZM2.5 10C2.5 5.85786 5.85786 2.5 10 2.5V-2.5C3.09644 -2.5 -2.5 3.09644 -2.5 10H2.5ZM2.5 35V10H-2.5V35H2.5ZM10 42.5C5.85786 42.5 2.5 39.1421 2.5 35H-2.5C-2.5 41.9036 3.09644 47.5 10 47.5V42.5ZM35 42.5H10V47.5H35V42.5ZM42.5 35C42.5 39.1421 39.1421 42.5 35 42.5V47.5C41.9036 47.5 47.5 41.9036 47.5 35H42.5ZM42.5 10V35H47.5V10H42.5ZM35 2.5C39.1421 2.5 42.5 5.85786 42.5 10H47.5C47.5 3.09644 41.9036 -2.5 35 -2.5V2.5ZM10 2.5H35V-2.5H10V2.5ZM18.2579 15.6386C19.1385 15.8525 19.7043 16.3044 20.0479 16.8667C20.4045 17.4503 20.6286 18.3353 20.4573 19.5432L25.4079 20.2449C25.7124 18.0966 25.3775 15.9993 24.3145 14.2597C23.2385 12.4987 21.524 11.2864 19.4377 10.7798L18.2579 15.6386ZM15.1583 15.5005C17.2494 15.4936 17.9498 15.5638 18.2581 15.6387L19.4375 10.7798C18.4399 10.5376 17.1232 10.494 15.1417 10.5005L15.1583 15.5005ZM13.1328 15.3917C12.9473 15.4686 12.7958 15.5041 12.7474 15.5152C12.68 15.5307 12.6275 15.5396 12.6009 15.5438C12.5713 15.5486 12.5491 15.5514 12.5373 15.5529C12.5248 15.5544 12.5166 15.5552 12.514 15.5555C12.5111 15.5558 12.5367 15.5534 12.6041 15.5496C12.7327 15.5424 12.9302 15.5346 13.19 15.5275C13.7044 15.5133 14.4033 15.503 15.1582 15.5005L15.1418 10.5005C14.3567 10.5031 13.6162 10.5138 13.0523 10.5294C12.7728 10.5371 12.5213 10.5463 12.3238 10.5574C12.228 10.5628 12.1212 10.5699 12.0206 10.5799C11.9724 10.5847 11.8979 10.5928 11.8138 10.6062C11.8045 10.6077 11.5262 10.645 11.2172 10.7732L13.1328 15.3917ZM14.5 22.5226C14.5 18.8392 14.5095 16.5167 14.5355 15.1108C14.5487 14.3992 14.5655 13.9689 14.583 13.7289C14.5927 13.5964 14.5975 13.5981 14.5847 13.6661C14.5804 13.6889 14.5529 13.8403 14.4748 14.0375C14.4356 14.1364 14.3515 14.3306 14.1954 14.5486C14.05 14.7518 13.7203 15.147 13.1361 15.3903L11.2139 10.7746C10.6211 11.0214 10.283 11.4241 10.1294 11.6388C9.96514 11.8683 9.87298 12.0779 9.82597 12.1967C9.73223 12.4334 9.68981 12.6413 9.67133 12.7393C9.63013 12.9577 9.60947 13.1843 9.5963 13.3646C9.56813 13.7502 9.54975 14.2967 9.53638 15.0181C9.50931 16.4781 9.5 18.8471 9.5 22.5226H14.5ZM14.5 31.8901V22.5226H9.5V31.8901H14.5ZM13.3634 29.35L11.9284 29.3911L12.0716 34.3891L13.5066 34.348L13.3634 29.35ZM14.7984 29.3089L13.3634 29.35L13.5066 34.348L14.9416 34.3069L14.7984 29.3089ZM12.4077 28.4268L12.3702 31.7799L17.3698 31.8358L17.4074 28.4827L12.4077 28.4268ZM12.4453 25.0735L12.4077 28.4267L17.4074 28.4828L17.445 25.1297L12.4453 25.0735ZM15.9451 22.5966L14.9327 22.6016L14.9576 27.6015L15.97 27.5965L15.9451 22.5966ZM20.4574 19.5431C20.2968 20.6757 19.8604 21.3308 19.2988 21.7497C18.6853 22.2072 17.6416 22.5882 15.9451 22.5966L15.9699 27.5965C18.3479 27.5847 20.5523 27.0523 22.2882 25.7576C24.0758 24.4242 25.0898 22.4881 25.4078 20.245L20.4574 19.5431ZM12.5193 14.8958C12.4461 15.0927 12.4142 15.2563 12.404 15.3092C12.3896 15.3845 12.3809 15.4477 12.3758 15.4875C12.3656 15.5677 12.3598 15.6397 12.3563 15.6879C12.349 15.7886 12.3442 15.899 12.3406 16.0027C12.3334 16.2159 12.3285 16.4922 12.3257 16.8046C12.3199 17.434 12.3218 18.2651 12.3324 19.1498L17.332 19.0899C17.3217 18.2314 17.3201 17.4364 17.3255 16.8503C17.3282 16.5549 17.3325 16.326 17.3377 16.1735C17.339 16.1364 17.3402 16.107 17.3413 16.0843C17.3418 16.0731 17.3423 16.0645 17.3427 16.0581C17.3429 16.055 17.343 16.0526 17.3431 16.0509C17.3432 16.0493 17.3433 16.0485 17.3433 16.0486C17.3433 16.0487 17.3432 16.0499 17.343 16.0521C17.3428 16.0542 17.3425 16.0579 17.3421 16.0628C17.3413 16.0714 17.3394 16.0902 17.3361 16.1162C17.3332 16.139 17.3267 16.1878 17.3145 16.2513C17.3066 16.2925 17.277 16.447 17.2061 16.6376L12.5193 14.8958ZM18.8092 13.371C18.0239 13.1292 16.9115 13.0797 16.2021 13.0811C15.8 13.0819 15.3623 13.0996 14.9769 13.1486C14.7979 13.1713 14.5302 13.2127 14.2521 13.2992C14.1185 13.3407 13.8788 13.4238 13.6173 13.581C13.4103 13.7053 12.8185 14.0931 12.5201 14.8936L17.2053 16.6398C17.0553 17.0422 16.8302 17.3262 16.6524 17.5053C16.4758 17.6834 16.3063 17.7984 16.193 17.8665C15.976 17.9969 15.7965 18.0551 15.7369 18.0736C15.6069 18.114 15.5425 18.1169 15.6073 18.1087C15.7094 18.0957 15.921 18.0816 16.2119 18.081C16.4916 18.0805 16.7826 18.0925 17.0279 18.1146C17.1499 18.1256 17.2455 18.1378 17.3131 18.1488C17.3901 18.1613 17.39 18.1656 17.3383 18.1497L18.8092 13.371ZM22.385 17.1886C22.1535 16.2414 21.616 15.4311 21.0711 14.8459C20.5291 14.2638 19.7533 13.6615 18.809 13.3709L17.3385 18.1498C17.2514 18.123 17.2317 18.1011 17.2697 18.1272C17.3033 18.1501 17.3553 18.1925 17.4118 18.2532C17.4682 18.3138 17.5093 18.3712 17.5333 18.4121C17.5597 18.4572 17.5455 18.4475 17.528 18.3758L22.385 17.1886ZM19.47 24.221C20.7193 23.5594 21.6779 22.5261 22.1922 21.2129C22.6978 19.9221 22.7119 18.5258 22.385 17.1885L17.528 18.3759C17.6594 18.9135 17.5977 19.2335 17.5366 19.3895C17.4842 19.5231 17.3854 19.6671 17.13 19.8023L19.47 24.221ZM16.3553 24.7801C17.4219 24.7736 18.4795 24.7456 19.4702 24.2209L17.1298 19.8024C17.1803 19.7757 17.2327 19.7548 17.2758 19.7419C17.3125 19.7309 17.3156 19.7338 17.2625 19.7411C17.1308 19.7591 16.8711 19.7769 16.3247 19.7802L16.3553 24.7801ZM14.8855 24.7892L16.3555 24.7801L16.3245 19.7802L14.8545 19.7893L14.8855 24.7892ZM12.3324 19.1497L12.3702 22.3191L17.3698 22.2594L17.332 19.09L12.3324 19.1497ZM30.8854 20.4709L31.5154 20.6589L32.9446 15.8675L32.3146 15.6796L30.8854 20.4709ZM28.5259 20.3671C28.6489 20.3383 29.065 20.2958 29.6626 20.3191C30.2488 20.342 30.7022 20.4163 30.8853 20.4709L32.3147 15.6796C31.5599 15.4544 30.6365 15.3533 29.8578 15.3229C29.0904 15.2929 28.1535 15.3191 27.3863 15.4987L28.5259 20.3671ZM27.3021 21.2683C27.4071 20.9653 27.7393 20.5512 28.5258 20.3671L27.3864 15.4987C25.2225 16.0051 23.3357 17.4426 22.5775 19.632L27.3021 21.2683ZM27.3135 22.4515C27.2895 22.3674 27.2494 22.1222 27.2532 21.789C27.2549 21.6375 27.2655 21.5016 27.2804 21.3943C27.2965 21.2785 27.3113 21.2417 27.3021 21.2684L22.5775 19.6319C22.3374 20.325 22.2606 21.1008 22.2535 21.7328C22.2462 22.3799 22.3094 23.137 22.5056 23.8242L27.3135 22.4515ZM29.015 23.7729C28.48 23.4814 28.0002 23.1217 27.6561 22.787C27.4855 22.6211 27.3739 22.4861 27.3107 22.3959C27.2381 22.2925 27.2736 22.3118 27.3135 22.4515L22.5056 23.8243C22.8077 24.8821 23.5459 25.7642 24.1696 26.371C24.8568 27.0395 25.7092 27.6657 26.623 28.1636L29.015 23.7729ZM32.56 28.147C32.56 26.9601 32.0221 26.0314 31.3096 25.3387C30.6968 24.7429 29.8765 24.2422 29.015 23.7728L26.623 28.1636C27.0056 28.372 27.2872 28.5395 27.4945 28.6768C27.7056 28.8167 27.7973 28.8975 27.8242 28.9237C27.8468 28.9456 27.7678 28.8754 27.6883 28.7085C27.5995 28.5222 27.56 28.3211 27.56 28.147H32.56ZM29.5809 31.8449C30.1933 31.675 31.0149 31.3535 31.6605 30.6283C32.3684 29.8332 32.56 28.9063 32.56 28.147H27.56C27.56 28.1269 27.5618 28.0112 27.616 27.8429C27.6745 27.6609 27.7775 27.4705 27.9261 27.3036C28.2026 26.9929 28.4506 26.9696 28.2442 27.0269L29.5809 31.8449ZM24.4157 31.1036C25.2052 31.5012 26.0911 31.7681 26.9116 31.9056C27.6788 32.0342 28.6698 32.0976 29.5807 31.8449L28.2444 27.0268C28.3265 27.004 28.3218 27.0184 28.1973 27.0182C28.0856 27.0181 27.9286 27.0063 27.7379 26.9743C27.3427 26.9081 26.9472 26.7802 26.665 26.6381L24.4157 31.1036ZM23.6063 30.696L24.4161 31.1037L26.6647 26.6379L25.8549 26.2302L23.6063 30.696ZM27.2694 29.8509L27.2297 28.3949L22.2316 28.5313L22.2713 29.9874L27.2694 29.8509ZM27.3091 31.3072L27.2695 29.8511L22.2713 29.9872L22.3109 31.4432L27.3091 31.3072ZM26.5647 29.3489L25.6547 29.0222L23.9653 33.7282L24.8753 34.0549L26.5647 29.3489ZM28.2531 29.491C27.5196 29.5077 27.2243 29.4994 27.0432 29.4792C26.939 29.4676 26.8548 29.4531 26.5647 29.3489L24.8753 34.0549C25.3682 34.2318 25.8562 34.3779 26.4898 34.4485C27.0465 34.5105 27.6547 34.5059 28.3668 34.4897L28.2531 29.491ZM29.6628 29.3159C29.5051 29.3957 29.4484 29.4193 29.4264 29.4276C29.4232 29.4288 29.427 29.4285 29.4082 29.4319C29.3725 29.4383 29.2851 29.4507 29.0884 29.4623C28.8902 29.474 28.6299 29.4824 28.2532 29.491L28.3668 34.4897C29.0815 34.4734 29.7226 34.455 30.2882 34.3538C30.9809 34.23 31.4751 34.0025 31.9199 33.7775L29.6628 29.3159ZM30.5 27.8414C30.5 28.5982 30.1783 29.0552 29.663 29.3158L31.9197 33.7776C34.2126 32.6179 35.5 30.3748 35.5 27.8414H30.5ZM28.7376 25.9342C29.6534 26.4353 30.0759 26.8256 30.2731 27.0896C30.423 27.2903 30.5 27.4868 30.5 27.8414H35.5C35.5 26.4912 35.1222 25.2264 34.2791 24.0976C33.4832 23.032 32.3745 22.2246 31.1374 21.5478L28.7376 25.9342ZM26.0782 18.9151C25.6425 19.3632 25.1454 20.0499 25.0104 20.9863C24.8678 21.9753 25.1869 22.8249 25.6045 23.4479C26.3124 24.5037 27.5655 25.293 28.7377 25.9343L31.1373 21.5477C30.5995 21.2535 30.2276 21.018 29.9805 20.8342C29.7158 20.6374 29.6992 20.5765 29.7575 20.6636C29.8438 20.7923 30.0353 21.1716 29.9592 21.6996C29.9255 21.9338 29.8488 22.1141 29.782 22.2319C29.7186 22.3439 29.6648 22.3988 29.6629 22.4008L26.0782 18.9151ZM29.4198 17.7799C28.9434 17.7759 28.3001 17.7723 27.7123 17.9277C26.8508 18.1556 26.3496 18.6361 26.0782 18.9151L29.6629 22.4008C29.6861 22.377 29.6801 22.3842 29.6584 22.4037C29.634 22.4258 29.5828 22.47 29.5087 22.521C29.4316 22.5741 29.3427 22.6257 29.244 22.6705C29.1467 22.7147 29.0596 22.7433 28.9907 22.7616C28.8677 22.7941 28.8107 22.7907 28.8988 22.7856C28.9828 22.7807 29.1258 22.7776 29.378 22.7797L29.4198 17.7799ZM32.4039 18.3593C31.3578 17.9167 30.5837 17.7898 29.4201 17.7799L29.3777 22.7797C29.7655 22.783 29.9333 22.8026 30.0322 22.8212C30.1121 22.8363 30.2171 22.8632 30.4559 22.9642L32.4039 18.3593ZM33.2838 18.7315L32.4039 18.3593L30.4559 22.9642L31.3358 23.3364L33.2838 18.7315ZM29.7709 19.7205L29.8108 21.1059L34.8088 20.962L34.7689 19.5766L29.7709 19.7205ZM29.731 18.3351L29.7709 19.7205L34.7689 19.5766L34.729 18.1912L29.731 18.3351Z" fill="#4A5B6D" mask="url(#path-1-inside-1)"/>
</svg>
