<svg width="23" height="20" viewBox="0 0 23 20" fill="none" xmlns="http://www.w3.org/2000/svg">
    <path fill-rule="evenodd" clip-rule="evenodd"
          d="M11.3525 17.6741L18.1486 11.2055H1.7835C1.05354 11.2055 0.5 10.6446 0.5 10.0011C0.5 9.35748 1.05354 8.79663 1.7835 8.79663H21.2165C21.3853 8.79663 21.5515 8.82883 21.7177 8.89348C21.8649 8.95244 21.9962 9.03412 22.1052 9.13348C22.1183 9.15144 22.136 9.17382 22.159 9.19758C22.272 9.31908 22.3525 9.43346 22.4028 9.54866C22.4512 9.6628 22.4764 9.7935 22.484 9.94612L22.4843 9.95389L22.485 9.96164C22.4878 9.99694 22.4934 10.0273 22.4989 10.0513C22.4928 10.1866 22.461 10.3224 22.4039 10.4531L22.4031 10.4549C22.3404 10.6 22.2513 10.7289 22.1421 10.8339L22.134 10.8415L21.9768 10.9896V10.9911L13.1794 19.3629C12.6739 19.8425 11.8493 19.8429 11.3503 19.3612L11.3491 19.36C10.8579 18.889 10.8607 18.1409 11.3525 17.6741ZM22.5016 8.82705C22.5005 8.82522 22.4993 8.82338 22.4982 8.82155C22.4993 8.82338 22.5005 8.82521 22.5016 8.82704L22.5016 8.82705ZM22.5151 10.1097C22.5152 10.1102 22.5152 10.11 22.5149 10.109L22.5136 10.105C22.5144 10.1076 22.5149 10.1092 22.5151 10.1097ZM21.9768 11.2055C21.9768 11.2112 21.9767 11.2083 21.9768 11.2004V11.2055ZM22.4698 10.7078C22.477 10.7077 22.4797 10.7078 22.4745 10.7078H22.4698Z"
          fill="#081420"/>
    <path fill-rule="evenodd" clip-rule="evenodd"
          d="M14.2586 5.70136L11.1166 2.56649C10.5932 2.04538 10.5902 1.19854 11.1107 0.672524C11.3754 0.407529 11.716 0.277832 12.0605 0.277832C12.3996 0.277832 12.7391 0.407405 13.0024 0.669424L16.1441 3.80407C16.6657 4.32522 16.6684 5.17459 16.1478 5.70071C15.6264 6.22276 14.783 6.22325 14.2586 5.70136Z"
          fill="#A87450"/>
</svg>
