<svg width="45" height="45" viewBox="0 0 45 45" fill="none" xmlns="http://www.w3.org/2000/svg">
<mask id="path-1-inside-1" fill="white">
<path fill-rule="evenodd" clip-rule="evenodd" d="M10 0C4.47715 0 0 4.47715 0 10V35C0 40.5228 4.47715 45 10 45H35C40.5228 45 45 40.5228 45 35V10C45 4.47715 40.5228 0 35 0H10ZM22.2388 25.6266C21.3321 22.5778 20.1364 18.5619 19.5817 16.7022L18.5732 13.321H16.7323H14.8914L14.8135 14.0531C14.7706 14.4557 14.0657 17.1066 13.2469 19.944C12.4282 22.7814 11.5484 25.8558 11.292 26.7761C11.0354 27.6963 10.6112 29.1864 10.3494 30.0875L9.87305 31.7258L11.2834 31.7256L12.6937 31.7254L13.39 29.1112L14.0864 26.4972L16.7225 26.4591C18.4569 26.4342 19.4097 26.4721 19.508 26.5703C19.5902 26.6522 19.9455 27.83 20.2975 29.1876L20.9374 31.6561L22.5019 31.6956C24.0184 31.7339 24.0636 31.7265 23.9768 31.4526C23.9275 31.2971 23.1454 28.6754 22.2388 25.6266ZM15.8246 19.8743C16.3086 17.9188 16.7279 16.2314 16.7566 16.1246C16.7853 16.0178 16.8324 15.955 16.8611 15.9851C16.9077 16.0342 18.6878 22.8337 18.8555 23.604L18.9239 23.9177H16.872C14.9867 23.9177 14.825 23.8979 14.8824 23.6737C14.9168 23.5395 15.3408 21.8298 15.8246 19.8743ZM35.4064 24.354C35.6819 21.7776 34.5933 19.3192 32.7582 18.3739C32.1824 18.0773 31.8231 18.0028 30.7996 17.9678C28.9478 17.9048 28.0007 18.2825 26.8067 19.5604C25.5962 20.856 24.9692 22.7304 24.9757 25.0332C24.9827 27.4124 25.4714 28.9245 26.6432 30.1915C27.8012 31.4439 29.2473 32.0104 31.259 31.9998C32.2664 31.9945 33.6726 31.7374 34.177 31.4662C34.4641 31.3119 34.4904 31.1987 34.4904 30.1175C34.4904 29.4683 34.4433 28.9379 34.3859 28.9388C34.3286 28.9396 33.9681 29.04 33.5851 29.1619C32.6253 29.4672 30.6859 29.4658 29.9639 29.1591C28.8044 28.6666 27.9483 27.3748 27.9458 26.1138L27.9444 25.4515L30.904 25.4502C32.5319 25.4497 34.1886 25.4099 34.5857 25.3622L35.3078 25.2754L35.4064 24.354ZM28.0035 22.628C28.1283 21.8465 28.6941 20.9006 29.2437 20.5551C29.8872 20.1505 31.2695 20.2386 31.7884 20.7171C32.2784 21.1692 32.673 22.0487 32.6767 22.6977L32.6798 23.2206H30.2943H27.9088L28.0035 22.628Z"/>
</mask>
<path fill-rule="evenodd" clip-rule="evenodd" d="M10 0C4.47715 0 0 4.47715 0 10V35C0 40.5228 4.47715 45 10 45H35C40.5228 45 45 40.5228 45 35V10C45 4.47715 40.5228 0 35 0H10ZM22.2388 25.6266C21.3321 22.5778 20.1364 18.5619 19.5817 16.7022L18.5732 13.321H16.7323H14.8914L14.8135 14.0531C14.7706 14.4557 14.0657 17.1066 13.2469 19.944C12.4282 22.7814 11.5484 25.8558 11.292 26.7761C11.0354 27.6963 10.6112 29.1864 10.3494 30.0875L9.87305 31.7258L11.2834 31.7256L12.6937 31.7254L13.39 29.1112L14.0864 26.4972L16.7225 26.4591C18.4569 26.4342 19.4097 26.4721 19.508 26.5703C19.5902 26.6522 19.9455 27.83 20.2975 29.1876L20.9374 31.6561L22.5019 31.6956C24.0184 31.7339 24.0636 31.7265 23.9768 31.4526C23.9275 31.2971 23.1454 28.6754 22.2388 25.6266ZM15.8246 19.8743C16.3086 17.9188 16.7279 16.2314 16.7566 16.1246C16.7853 16.0178 16.8324 15.955 16.8611 15.9851C16.9077 16.0342 18.6878 22.8337 18.8555 23.604L18.9239 23.9177H16.872C14.9867 23.9177 14.825 23.8979 14.8824 23.6737C14.9168 23.5395 15.3408 21.8298 15.8246 19.8743ZM35.4064 24.354C35.6819 21.7776 34.5933 19.3192 32.7582 18.3739C32.1824 18.0773 31.8231 18.0028 30.7996 17.9678C28.9478 17.9048 28.0007 18.2825 26.8067 19.5604C25.5962 20.856 24.9692 22.7304 24.9757 25.0332C24.9827 27.4124 25.4714 28.9245 26.6432 30.1915C27.8012 31.4439 29.2473 32.0104 31.259 31.9998C32.2664 31.9945 33.6726 31.7374 34.177 31.4662C34.4641 31.3119 34.4904 31.1987 34.4904 30.1175C34.4904 29.4683 34.4433 28.9379 34.3859 28.9388C34.3286 28.9396 33.9681 29.04 33.5851 29.1619C32.6253 29.4672 30.6859 29.4658 29.9639 29.1591C28.8044 28.6666 27.9483 27.3748 27.9458 26.1138L27.9444 25.4515L30.904 25.4502C32.5319 25.4497 34.1886 25.4099 34.5857 25.3622L35.3078 25.2754L35.4064 24.354ZM28.0035 22.628C28.1283 21.8465 28.6941 20.9006 29.2437 20.5551C29.8872 20.1505 31.2695 20.2386 31.7884 20.7171C32.2784 21.1692 32.673 22.0487 32.6767 22.6977L32.6798 23.2206H30.2943H27.9088L28.0035 22.628Z" fill="#4A5B6D"/>
<path d="M19.5817 16.7022L17.186 17.4168L17.186 17.4168L19.5817 16.7022ZM22.2388 25.6266L24.6351 24.9141L24.6351 24.914L22.2388 25.6266ZM18.5732 13.321L20.9689 12.6065L20.4364 10.821H18.5732V13.321ZM14.8914 13.321V10.821H12.6437L12.4055 13.0562L14.8914 13.321ZM14.8135 14.0531L12.3275 13.7882L12.3275 13.7882L14.8135 14.0531ZM13.2469 19.944L10.8449 19.2508L10.8449 19.2509L13.2469 19.944ZM11.292 26.7761L13.7002 27.4474L13.7003 27.4471L11.292 26.7761ZM10.3494 30.0875L12.75 30.7855L12.7501 30.7851L10.3494 30.0875ZM9.87305 31.7258L7.47245 31.0279L6.54248 34.2265L9.87354 34.2258L9.87305 31.7258ZM11.2834 31.7256L11.2831 29.2256H11.2829L11.2834 31.7256ZM12.6937 31.7254L12.6939 34.2254L14.6149 34.2252L15.1094 32.3689L12.6937 31.7254ZM13.39 29.1112L10.9743 28.4677L10.9743 28.4677L13.39 29.1112ZM14.0864 26.4972L14.0503 23.9975L12.1579 24.0248L11.6707 25.8536L14.0864 26.4972ZM16.7225 26.4591L16.6865 23.9594L16.6864 23.9594L16.7225 26.4591ZM19.508 26.5703L17.7418 28.3396L17.7423 28.34L19.508 26.5703ZM20.2975 29.1876L17.8774 29.815L17.8775 29.8151L20.2975 29.1876ZM20.9374 31.6561L18.5174 32.2835L18.9904 34.1078L20.8744 34.1553L20.9374 31.6561ZM22.5019 31.6956L22.5651 29.1964L22.5649 29.1964L22.5019 31.6956ZM23.9768 31.4526L26.3602 30.6978L26.3599 30.6968L23.9768 31.4526ZM16.7566 16.1246L14.3422 15.476L14.3422 15.476L16.7566 16.1246ZM15.8246 19.8743L13.3978 19.2736L13.3978 19.2738L15.8246 19.8743ZM16.8611 15.9851L18.673 14.2626L18.6712 14.2607L16.8611 15.9851ZM18.8555 23.604L16.4127 24.1358L16.4129 24.1365L18.8555 23.604ZM18.9239 23.9177V26.4177H22.0276L21.3666 23.3853L18.9239 23.9177ZM14.8824 23.6737L12.4606 23.0533L12.4605 23.0539L14.8824 23.6737ZM32.7582 18.3739L33.9031 16.1514L33.903 16.1514L32.7582 18.3739ZM35.4064 24.354L37.8922 24.6201L37.8922 24.6198L35.4064 24.354ZM30.7996 17.9678L30.885 15.4693L30.8846 15.4693L30.7996 17.9678ZM26.8067 19.5604L24.98 17.8536L24.9799 17.8537L26.8067 19.5604ZM24.9757 25.0332L22.4757 25.0403L22.4757 25.0405L24.9757 25.0332ZM26.6432 30.1915L28.4787 28.4942L28.4786 28.4941L26.6432 30.1915ZM31.259 31.9998L31.2459 29.4999H31.2459L31.259 31.9998ZM34.177 31.4662L35.3608 33.6682L35.361 33.6681L34.177 31.4662ZM34.3859 28.9388L34.4223 31.4385L34.4224 31.4385L34.3859 28.9388ZM33.5851 29.1619L34.343 31.5442L34.3431 31.5442L33.5851 29.1619ZM29.9639 29.1591L30.9415 26.8581L30.9412 26.858L29.9639 29.1591ZM27.9458 26.1138L30.4458 26.1088V26.1085L27.9458 26.1138ZM27.9444 25.4515L27.9433 22.9515L25.4391 22.9525L25.4444 25.4567L27.9444 25.4515ZM30.904 25.4502L30.9032 22.9502H30.903L30.904 25.4502ZM34.5857 25.3622L34.8837 27.8444L34.8842 27.8443L34.5857 25.3622ZM35.3078 25.2754L35.6064 27.7575L37.5819 27.5199L37.7936 25.5414L35.3078 25.2754ZM29.2437 20.5551L30.5743 22.6716L30.5745 22.6714L29.2437 20.5551ZM28.0035 22.628L30.4721 23.0226L30.4722 23.0222L28.0035 22.628ZM31.7884 20.7171L33.4836 18.8797L33.4832 18.8792L31.7884 20.7171ZM32.6767 22.6977L30.1768 22.7122L30.1768 22.7124L32.6767 22.6977ZM32.6798 23.2206V25.7206H35.1945L35.1798 23.2059L32.6798 23.2206ZM27.9088 23.2206L25.4401 22.826L24.9775 25.7206H27.9088V23.2206ZM2.5 10C2.5 5.85786 5.85786 2.5 10 2.5V-2.5C3.09644 -2.5 -2.5 3.09644 -2.5 10H2.5ZM2.5 35V10H-2.5V35H2.5ZM10 42.5C5.85786 42.5 2.5 39.1421 2.5 35H-2.5C-2.5 41.9036 3.09644 47.5 10 47.5V42.5ZM35 42.5H10V47.5H35V42.5ZM42.5 35C42.5 39.1421 39.1421 42.5 35 42.5V47.5C41.9036 47.5 47.5 41.9036 47.5 35H42.5ZM42.5 10V35H47.5V10H42.5ZM35 2.5C39.1421 2.5 42.5 5.85786 42.5 10H47.5C47.5 3.09644 41.9036 -2.5 35 -2.5V2.5ZM10 2.5H35V-2.5H10V2.5ZM17.186 17.4168C17.7405 19.2756 18.936 23.2908 19.8425 26.3392L24.6351 24.914C23.7283 21.8649 22.5324 17.8483 21.9774 15.9876L17.186 17.4168ZM16.1775 14.0356L17.186 17.4168L21.9774 15.9877L20.9689 12.6065L16.1775 14.0356ZM16.7323 15.821H18.5732V10.821H16.7323V15.821ZM14.8914 15.821H16.7323V10.821H14.8914V15.821ZM17.2994 14.3179L17.3774 13.5859L12.4055 13.0562L12.3275 13.7882L17.2994 14.3179ZM15.6489 20.6371C16.0622 19.2047 16.448 17.8155 16.7372 16.728C16.8814 16.1855 17.0042 15.7085 17.095 15.3346C17.1663 15.0412 17.2673 14.6193 17.2994 14.3179L12.3275 13.7882C12.3382 13.6881 12.3349 13.7486 12.2364 14.1542C12.1574 14.4792 12.0448 14.9178 11.9051 15.443C11.6264 16.491 11.2503 17.8459 10.8449 19.2508L15.6489 20.6371ZM13.7003 27.4471C13.953 26.5398 14.8296 23.4767 15.6489 20.637L10.8449 19.2509C10.0268 22.0861 9.14376 25.1718 8.88373 26.105L13.7003 27.4471ZM12.7501 30.7851C13.0145 29.8752 13.4412 28.3764 13.7002 27.4474L8.88382 26.1047C8.62972 27.0162 8.20797 28.4975 7.94866 29.39L12.7501 30.7851ZM12.2736 32.4238L12.75 30.7855L7.94878 29.3896L7.47245 31.0279L12.2736 32.4238ZM11.2829 29.2256L9.87255 29.2258L9.87354 34.2258L11.2839 34.2256L11.2829 29.2256ZM12.6934 29.2254L11.2831 29.2256L11.2836 34.2256L12.6939 34.2254L12.6934 29.2254ZM10.9743 28.4677L10.2779 31.0819L15.1094 32.3689L15.8058 29.7548L10.9743 28.4677ZM11.6707 25.8536L10.9743 28.4677L15.8058 29.7548L16.5022 27.1408L11.6707 25.8536ZM16.6864 23.9594L14.0503 23.9975L14.1225 28.9969L16.7586 28.9589L16.6864 23.9594ZM21.2743 24.801C20.9577 24.485 20.6333 24.3292 20.491 24.2663C20.3207 24.191 20.1719 24.1465 20.0767 24.121C19.8866 24.0703 19.7129 24.0439 19.5982 24.0289C19.3578 23.9976 19.0886 23.9809 18.8284 23.9705C18.2932 23.9492 17.5683 23.9467 16.6865 23.9594L16.7585 28.9589C17.6111 28.9466 18.2298 28.9506 18.6292 28.9665C18.7262 28.9704 18.8026 28.9747 18.8608 28.9789C18.8896 28.981 18.9117 28.9829 18.9279 28.9844C18.9359 28.9852 18.942 28.9859 18.9462 28.9863C18.9505 28.9868 18.9524 28.9871 18.9522 28.987C18.9521 28.987 18.9491 28.9866 18.9436 28.9858C18.9382 28.985 18.9292 28.9835 18.917 28.9813C18.8956 28.9774 18.849 28.9684 18.7858 28.9515C18.7294 28.9365 18.6129 28.9028 18.4682 28.8389C18.3515 28.7872 18.046 28.6433 17.7418 28.3396L21.2743 24.801ZM22.7175 28.5603C22.5353 27.8575 22.3497 27.1912 22.1951 26.6787C22.1189 26.426 22.0433 26.1878 21.9749 25.9932C21.942 25.8999 21.8992 25.7832 21.8496 25.6674C21.8257 25.6114 21.7856 25.5211 21.7309 25.4189C21.7096 25.379 21.5594 25.0854 21.2738 24.8005L17.7423 28.34C17.5786 28.1767 17.4758 28.0274 17.4316 27.9607C17.3792 27.8815 17.3427 27.8159 17.3222 27.7776C17.282 27.7023 17.2582 27.6471 17.2526 27.6338C17.2396 27.6034 17.2407 27.6028 17.2582 27.6526C17.2905 27.7443 17.3412 27.9008 17.4081 28.1225C17.5397 28.5587 17.7077 29.1601 17.8774 29.815L22.7175 28.5603ZM23.3574 31.0287L22.7174 28.5602L17.8775 29.8151L18.5174 32.2835L23.3574 31.0287ZM22.5649 29.1964L21.0005 29.1569L20.8744 34.1553L22.4389 34.1948L22.5649 29.1964ZM21.5935 32.2074C21.6057 32.2459 21.5589 32.1113 21.5304 31.928C21.5014 31.7421 21.4456 31.2461 21.681 30.6682C21.9447 30.021 22.4172 29.6397 22.7878 29.4455C23.103 29.2804 23.367 29.2355 23.4342 29.2244C23.5677 29.2025 23.613 29.2127 23.3892 29.2123C23.208 29.212 22.9522 29.2062 22.5651 29.1964L22.4387 34.1948C22.8099 34.2042 23.1283 34.2118 23.3795 34.2123C23.5879 34.2127 23.9235 34.2112 24.2469 34.1579C24.3622 34.139 25.7409 33.9551 26.3115 32.5548C26.5626 31.9383 26.508 31.3971 26.4708 31.1584C26.434 30.9224 26.3697 30.7277 26.3602 30.6978L21.5935 32.2074ZM19.8425 26.3391C20.7421 29.3646 21.5354 32.0243 21.5938 32.2083L26.3599 30.6968C26.3606 30.699 26.3494 30.6628 26.3189 30.5614C26.2916 30.4708 26.2539 30.3453 26.2069 30.1881C26.1128 29.8741 25.9824 29.4375 25.825 28.9099C25.5102 27.8548 25.0882 26.4379 24.6351 24.9141L19.8425 26.3391ZM14.3422 15.476C14.305 15.6145 13.8754 17.3439 13.3978 19.2736L18.2514 20.4749C18.4932 19.4977 18.7189 18.5878 18.8875 17.9092C18.9719 17.5698 19.0418 17.2888 19.0924 17.0865C19.1475 16.866 19.1713 16.7722 19.171 16.7731L14.3422 15.476ZM18.6712 14.2607C18.3949 13.9707 17.9789 13.675 17.4198 13.544C16.859 13.4126 16.3494 13.4928 15.9636 13.6366C15.2885 13.8883 14.9239 14.35 14.8084 14.5041C14.5222 14.886 14.398 15.2684 14.3422 15.476L19.171 16.7732C19.144 16.8739 19.0577 17.1716 18.8093 17.5029C18.7127 17.6317 18.3671 18.0768 17.7098 18.3218C17.3329 18.4623 16.8319 18.5417 16.2792 18.4122C15.7284 18.2831 15.3201 17.992 15.051 17.7096L18.6712 14.2607ZM21.2983 23.0723C21.2002 22.6214 20.694 20.6582 20.2314 18.891C19.9948 17.9872 19.7613 17.1033 19.5835 16.4403C19.4948 16.1099 19.4184 15.8283 19.3618 15.6247C19.334 15.525 19.3078 15.4325 19.2859 15.3588C19.2759 15.3251 19.2609 15.2752 19.2439 15.2237C19.2366 15.2018 19.2189 15.1489 19.1942 15.0854C19.183 15.0565 19.1567 14.9902 19.1179 14.9089C19.0985 14.8685 19.0634 14.7975 19.0131 14.7126C18.977 14.6516 18.8646 14.4641 18.673 14.2626L15.0492 17.7076C14.858 17.5065 14.746 17.3197 14.7103 17.2594C14.6605 17.1753 14.6259 17.1053 14.6071 17.0661C14.5694 16.9873 14.5445 16.9242 14.5348 16.8993C14.5133 16.8438 14.4995 16.8022 14.497 16.7946C14.4895 16.7717 14.4871 16.7629 14.4927 16.7819C14.5021 16.8135 14.5191 16.8729 14.5448 16.9653C14.5951 17.146 14.6667 17.4096 14.7542 17.7357C14.9285 18.3854 15.1592 19.2587 15.3944 20.1572C15.8754 21.9946 16.3432 23.8163 16.4127 24.1358L21.2983 23.0723ZM21.3666 23.3853L21.2982 23.0716L16.4129 24.1365L16.4813 24.4502L21.3666 23.3853ZM16.872 26.4177H18.9239V21.4177H16.872V26.4177ZM12.4605 23.0539C12.429 23.1766 12.3341 23.5594 12.3915 24.0434C12.4617 24.6348 12.7373 25.2133 13.2178 25.6523C13.6226 26.022 14.0463 26.1757 14.2622 26.2413C14.4964 26.3125 14.7072 26.3444 14.8444 26.3612C15.3054 26.4178 16.0151 26.4177 16.872 26.4177V21.4177C16.3991 21.4177 16.0579 21.4164 15.8056 21.4116C15.5327 21.4064 15.4492 21.3979 15.453 21.3984C15.4557 21.3987 15.5624 21.4106 15.717 21.4576C15.8532 21.4991 16.2219 21.6243 16.5901 21.9606C17.034 22.3662 17.2916 22.9064 17.3566 23.4538C17.4089 23.8937 17.3214 24.2269 17.3043 24.2936L12.4605 23.0539ZM13.3978 19.2738C13.1559 20.2512 12.9291 21.1671 12.7584 21.8552C12.6731 22.1994 12.6019 22.4862 12.55 22.6952C12.524 22.7998 12.5029 22.8844 12.4873 22.9467C12.4795 22.9779 12.4733 23.003 12.4685 23.0219C12.4661 23.0314 12.4642 23.0389 12.4628 23.0447C12.4621 23.0475 12.4615 23.0497 12.4611 23.0513C12.4607 23.0529 12.4606 23.0535 12.4606 23.0533L17.3042 24.2942C17.342 24.1467 17.7701 22.4201 18.2514 20.4747L13.3978 19.2738ZM31.6133 20.5963C32.2683 20.9337 33.1214 22.2102 32.9206 24.0882L37.8922 24.6198C38.2424 21.345 36.9183 17.7047 33.9031 16.1514L31.6133 20.5963ZM30.7141 20.4664C31.2061 20.4832 31.3715 20.5067 31.4394 20.5207C31.4581 20.5246 31.4638 20.5267 31.4716 20.5296C31.4853 20.5348 31.5247 20.5506 31.6134 20.5964L33.903 16.1514C33.4793 15.9331 33.0277 15.7437 32.4542 15.6248C31.9426 15.5187 31.4166 15.4875 30.885 15.4693L30.7141 20.4664ZM28.6334 21.2672C29.0914 20.777 29.3324 20.6433 29.4826 20.5834C29.647 20.5178 29.9566 20.4406 30.7145 20.4664L30.8846 15.4693C29.7907 15.4321 28.7009 15.5122 27.6303 15.9392C26.5455 16.3718 25.7159 17.066 24.98 17.8536L28.6334 21.2672ZM27.4757 25.0261C27.4704 23.163 27.975 21.9719 28.6334 21.2671L24.9799 17.8537C23.2175 19.7401 22.468 22.2977 22.4757 25.0403L27.4757 25.0261ZM28.4786 28.4941C27.8709 27.8371 27.4816 27.0177 27.4757 25.0259L22.4757 25.0405C22.4838 27.8072 23.0719 30.012 24.8077 31.889L28.4786 28.4941ZM31.2459 29.4999C29.7983 29.5075 29.0745 29.1386 28.4787 28.4942L24.8076 31.8889C26.5279 33.7492 28.6964 34.5134 31.2722 34.4998L31.2459 29.4999ZM32.9932 29.2642C33.1004 29.2066 33.1177 29.2154 32.9642 29.2591C32.84 29.2946 32.6667 29.3351 32.4569 29.3735C32.0259 29.4523 31.5718 29.4981 31.2459 29.4999L31.2722 34.4998C31.9537 34.4962 32.7064 34.4108 33.3563 34.292C33.9201 34.1889 34.736 34.0041 35.3608 33.6682L32.9932 29.2642ZM31.9904 30.1175C31.9904 30.3895 31.9885 30.5511 31.984 30.6574C31.9788 30.7819 31.9734 30.7146 32.0062 30.5736C32.0495 30.3874 32.165 30.0415 32.4613 29.7011C32.5959 29.5465 32.7288 29.4385 32.8274 29.3686C32.9183 29.3041 32.9871 29.2676 32.9931 29.2643L35.361 33.6681C35.5003 33.5931 35.8842 33.3843 36.2328 32.9837C36.6148 32.5448 36.7908 32.0741 36.8765 31.7052C36.9995 31.1757 36.9904 30.5311 36.9904 30.1175H31.9904ZM34.4224 31.4385C33.3811 31.4537 32.7429 30.8514 32.5149 30.5908C32.2731 30.3143 32.1543 30.0521 32.1119 29.954C32.0178 29.7363 31.9838 29.5639 31.9793 29.5425C31.9618 29.459 31.9629 29.4314 31.9694 29.5052C31.9801 29.6252 31.9904 29.8431 31.9904 30.1175H36.9904C36.9904 29.7428 36.9772 29.3709 36.9499 29.0636C36.9375 28.9237 36.916 28.7231 36.8736 28.5201C36.8567 28.439 36.8095 28.2202 36.7019 27.9711C36.6528 27.8573 36.527 27.5831 36.2782 27.2987C36.0432 27.0301 35.398 26.4237 34.3495 26.439L34.4224 31.4385ZM34.3431 31.5442C34.5109 31.4908 34.6673 31.4442 34.7785 31.4132C34.8054 31.4057 34.8273 31.3998 34.8444 31.3953C34.8528 31.3931 34.8594 31.3914 34.8643 31.3902C34.8692 31.3889 34.8715 31.3884 34.8715 31.3884C34.8714 31.3884 34.8704 31.3886 34.8687 31.389C34.8669 31.3894 34.8641 31.3901 34.8602 31.3909C34.8533 31.3925 34.8386 31.3956 34.8181 31.3995C34.7997 31.403 34.7623 31.4099 34.7129 31.4167C34.6875 31.4202 34.6516 31.4247 34.6082 31.4287C34.567 31.4325 34.5023 31.4373 34.4223 31.4385L34.3495 26.439C34.103 26.4426 33.9006 26.4844 33.8834 26.4877C33.8145 26.5008 33.7529 26.5149 33.7094 26.5253C33.6195 26.5468 33.5243 26.5722 33.4368 26.5966C33.2576 26.6465 33.0423 26.7111 32.8271 26.7795L34.3431 31.5442ZM28.9863 31.46C29.8431 31.824 30.9454 31.8894 31.6835 31.89C32.4914 31.8906 33.5096 31.8094 34.343 31.5442L32.8271 26.7795C32.7943 26.79 32.6649 26.8226 32.4281 26.85C32.2055 26.8758 31.9478 26.8902 31.6872 26.89C31.4246 26.8898 31.1928 26.8748 31.0193 26.8524C30.8079 26.8251 30.8132 26.8036 30.9415 26.8581L28.9863 31.46ZM25.4458 26.1187C25.4503 28.3797 26.9044 30.5758 28.9866 31.4601L30.9412 26.858C30.7045 26.7574 30.4463 26.3698 30.4458 26.1088L25.4458 26.1187ZM25.4444 25.4567L25.4458 26.119L30.4458 26.1085L30.4444 25.4462L25.4444 25.4567ZM30.903 22.9502L27.9433 22.9515L27.9455 27.9515L30.9051 27.9502L30.903 22.9502ZM34.2876 22.8801C34.2935 22.8794 34.2026 22.8878 33.9616 22.8985C33.7474 22.9079 33.4702 22.9169 33.1466 22.9246C32.5005 22.9401 31.6991 22.9499 30.9032 22.9502L30.9049 27.9502C32.4756 27.9497 34.3047 27.9139 34.8837 27.8444L34.2876 22.8801ZM35.0092 22.7933L34.2871 22.8801L34.8842 27.8443L35.6064 27.7575L35.0092 22.7933ZM32.9206 24.088L32.822 25.0093L37.7936 25.5414L37.8922 24.6201L32.9206 24.088ZM27.9131 18.4386C27.1753 18.9025 26.65 19.5912 26.3189 20.1445C25.9694 20.7287 25.6582 21.4605 25.5347 22.2338L30.4722 23.0222C30.4706 23.0322 30.4756 22.9988 30.5032 22.9278C30.5296 22.8597 30.5664 22.7839 30.6096 22.7116C30.6537 22.6379 30.6906 22.5911 30.7078 22.5717C30.7153 22.5631 30.7116 22.5684 30.6946 22.5835C30.6784 22.5978 30.6389 22.631 30.5743 22.6716L27.9131 18.4386ZM33.4832 18.8792C32.5993 18.0642 31.4295 17.8551 30.7217 17.81C29.9795 17.7627 28.865 17.8401 27.9129 18.4388L30.5745 22.6714C30.4704 22.7369 30.3887 22.7696 30.3475 22.7841C30.3251 22.792 30.3087 22.7967 30.2988 22.7992C30.2889 22.8018 30.2838 22.8027 30.2836 22.8027C30.2834 22.8028 30.2868 22.8021 30.2938 22.8014C30.3007 22.8006 30.3101 22.7997 30.3218 22.7992C30.3459 22.7979 30.3741 22.798 30.4038 22.7999C30.4718 22.8042 30.5031 22.815 30.4884 22.8102C30.4785 22.807 30.4389 22.7935 30.3781 22.761C30.3193 22.7296 30.2144 22.6664 30.0937 22.555L33.4832 18.8792ZM35.1767 22.6832C35.1722 21.9127 34.952 21.1813 34.696 20.6104C34.4382 20.0358 34.0411 19.394 33.4836 18.8797L30.0932 22.5546C30.0684 22.5317 30.056 22.5171 30.054 22.5147C30.0517 22.512 30.0558 22.5166 30.0646 22.5296C30.0836 22.5576 30.1092 22.6018 30.1339 22.6567C30.1586 22.7118 30.1732 22.7574 30.1798 22.7841C30.1829 22.7963 30.1827 22.7981 30.1814 22.7892C30.1802 22.7808 30.177 22.7546 30.1768 22.7122L35.1767 22.6832ZM35.1798 23.2059L35.1767 22.6831L30.1768 22.7124L30.1798 23.2353L35.1798 23.2059ZM30.2943 25.7206H32.6798V20.7206H30.2943V25.7206ZM27.9088 25.7206H30.2943V20.7206H27.9088V25.7206ZM25.5348 22.2335L25.4401 22.826L30.3774 23.6151L30.4721 23.0226L25.5348 22.2335Z" fill="#4A5B6D" mask="url(#path-1-inside-1)"/>
</svg>
