<svg width="467" height="56" viewBox="0 0 467 56" fill="none" xmlns="http://www.w3.org/2000/svg">
<path d="M0.762695 54.1254H32.1892V46.9349H8.3912V1.5654H0.762695V54.1254Z" fill="#081420"/>
<path d="M51.0517 55.1839C53.8987 55.1839 56.4172 54.6729 58.6072 53.6509C60.8215 52.6289 62.6465 51.2176 64.0822 49.4169V54.1254H70.8712V14.7054H63.1697V35.2184C63.1697 38.3331 62.7196 40.8272 61.8192 42.7009C60.9189 44.5502 59.7022 45.8886 58.1692 46.7159C56.6605 47.5432 54.9937 47.9569 53.1687 47.9569C51.076 47.9569 49.3727 47.5311 48.0587 46.6794C46.7447 45.8277 45.7349 44.7084 45.0292 43.3214C44.3235 41.9344 43.8369 40.4379 43.5692 38.8319C43.3259 37.2016 43.2042 35.6199 43.2042 34.0869V14.7054H35.4662V36.6054C35.4662 37.8221 35.5757 39.2334 35.7947 40.8394C36.0137 42.4454 36.4274 44.0879 37.0357 45.7669C37.644 47.4459 38.52 49.0032 39.6637 50.4389C40.8317 51.8502 42.3404 52.9939 44.1897 53.8699C46.039 54.7459 48.3264 55.1839 51.0517 55.1839Z" fill="#081420"/>
<path d="M95.7813 55.2204C100.015 55.2204 103.617 54.1984 106.585 52.1544C109.554 50.1104 111.683 47.1539 112.973 43.2849L105.235 41.4599C104.432 43.5769 103.264 45.2072 101.731 46.3509C100.222 47.4702 98.239 48.0299 95.7813 48.0299C92.18 48.0299 89.4546 46.7767 87.6053 44.2704C85.7803 41.7641 84.8557 38.4791 84.8313 34.4154C84.8557 30.4734 85.7438 27.2249 87.4958 24.6699C89.2722 22.0906 92.034 20.8009 95.7813 20.8009C97.9957 20.8009 99.9545 21.4214 101.658 22.6624C103.385 23.8791 104.626 25.5946 105.381 27.8089L112.973 25.6189C111.999 21.9202 109.98 19.0002 106.914 16.8589C103.872 14.6932 100.198 13.6104 95.8908 13.6104C91.9245 13.6104 88.5056 14.4986 85.6343 16.2749C82.7873 18.0512 80.5973 20.5089 79.0643 23.6479C77.5313 26.7626 76.7527 30.3517 76.7283 34.4154C76.7527 38.4061 77.507 41.9709 78.9913 45.1099C80.5 48.2489 82.6657 50.7187 85.4883 52.5194C88.3353 54.3201 91.7663 55.2204 95.7813 55.2204Z" fill="#081420"/>
<path d="M128.852 55.2204C135.13 55.2204 139.863 52.9452 143.051 48.3949V54.1254H149.803V29.8529C149.803 28.1982 149.73 26.6531 149.584 25.2174C149.438 23.7817 149.049 22.4191 148.416 21.1294C147.199 18.5257 145.277 16.6277 142.649 15.4354C140.045 14.2187 136.979 13.6104 133.451 13.6104C128.901 13.6104 125.251 14.6081 122.501 16.6034C119.751 18.5987 117.902 21.2876 116.953 24.6699L124.071 26.8599C124.752 24.6699 125.956 23.0882 127.684 22.1149C129.412 21.1416 131.31 20.6549 133.378 20.6549C136.444 20.6549 138.658 21.3119 140.021 22.6259C141.408 23.9156 142.162 25.9231 142.284 28.6484C139.072 29.0864 135.933 29.5487 132.867 30.0354C129.801 30.4977 127.124 31.0574 124.837 31.7144C121.795 32.6877 119.484 34.1356 117.902 36.0579C116.32 37.9802 115.53 40.4257 115.53 43.3944C115.53 45.5357 116.028 47.5067 117.026 49.3074C118.048 51.0837 119.545 52.5194 121.516 53.6144C123.511 54.6851 125.956 55.2204 128.852 55.2204ZM130.203 48.9789C127.769 48.9789 125.969 48.4192 124.801 47.2999C123.657 46.1806 123.085 44.8544 123.085 43.3214C123.085 41.7641 123.596 40.5352 124.618 39.6349C125.664 38.7346 126.966 38.0167 128.524 37.4814C130.178 36.9947 132.125 36.5689 134.364 36.2039C136.627 35.8389 139.242 35.4374 142.211 34.9994C142.187 35.9241 142.126 36.9582 142.029 38.1019C141.931 39.2456 141.724 40.2676 141.408 41.1679C141.116 42.4576 140.496 43.6986 139.547 44.8909C138.622 46.0832 137.369 47.0687 135.787 47.8474C134.23 48.6017 132.368 48.9789 130.203 48.9789Z" fill="#081420"/>
<path d="M172.166 55.1839C177.154 55.1839 181.059 54.0767 183.882 51.8624C186.729 49.6481 188.153 46.5942 188.153 42.7009C188.153 40.6569 187.727 38.9292 186.875 37.5179C186.048 36.1066 184.661 34.8899 182.714 33.8679C180.767 32.8216 178.139 31.8726 174.83 31.0209C171.74 30.2422 169.404 29.5731 167.822 29.0134C166.265 28.4294 165.206 27.8454 164.647 27.2614C164.087 26.6531 163.807 25.9109 163.807 25.0349C163.807 23.5262 164.525 22.3461 165.961 21.4944C167.396 20.6184 169.27 20.2291 171.582 20.3264C173.991 20.4237 175.949 21.0321 177.458 22.1514C178.967 23.2464 179.855 24.7307 180.123 26.6044L187.934 25.1809C187.496 21.6769 185.78 18.8786 182.787 16.7859C179.794 14.6689 176.035 13.6104 171.509 13.6104C166.885 13.6104 163.174 14.6932 160.376 16.8589C157.578 19.0002 156.179 21.8594 156.179 25.4364C156.179 27.3587 156.592 29.0012 157.42 30.3639C158.271 31.7022 159.683 32.8702 161.654 33.8679C163.649 34.8656 166.338 35.8146 169.72 36.7149C172.81 37.5422 175.11 38.2357 176.619 38.7954C178.127 39.3551 179.113 39.9512 179.575 40.5839C180.062 41.1922 180.305 41.9952 180.305 42.9929C180.305 44.6962 179.624 46.0346 178.261 47.0079C176.923 47.9812 175.061 48.4679 172.677 48.4679C170.049 48.4679 167.846 47.8839 166.07 46.7159C164.318 45.5479 163.199 43.9297 162.712 41.8614L154.901 43.0659C155.582 46.9106 157.432 49.8914 160.449 52.0084C163.466 54.1254 167.372 55.1839 172.166 55.1839Z" fill="#081420"/>
<path d="M216.464 55.1839C219.189 55.1839 221.684 54.6242 223.947 53.5049C226.21 52.3856 228.035 50.6214 229.422 48.2124C230.419 46.5091 230.955 44.8544 231.028 43.2484C231.101 41.6181 231.137 39.6349 231.137 37.2989V1.5654H223.399V37.2989C223.399 38.8319 223.363 40.1702 223.29 41.3139C223.217 42.4332 222.973 43.4187 222.56 44.2704C221.951 45.6087 221.027 46.5699 219.786 47.1539C218.545 47.7136 217.352 47.9934 216.209 47.9934C214.457 47.9934 212.887 47.4216 211.5 46.2779C210.113 45.1099 209.249 43.7107 208.909 42.0804L201.353 43.8689C202.351 47.3242 204.151 50.0739 206.755 52.1179C209.383 54.1619 212.619 55.1839 216.464 55.1839Z" fill="#081420"/>
<path d="M257.036 55.2204C260.954 55.2204 264.36 54.3444 267.256 52.5924C270.152 50.8161 272.39 48.3706 273.972 45.2559C275.578 42.1169 276.381 38.4912 276.381 34.3789C276.381 30.3152 275.59 26.7261 274.009 23.6114C272.427 20.4724 270.188 18.0269 267.293 16.2749C264.397 14.4986 260.978 13.6104 257.036 13.6104C253.167 13.6104 249.785 14.4864 246.889 16.2384C243.993 17.9904 241.743 20.4237 240.137 23.5384C238.531 26.6531 237.728 30.2666 237.728 34.3789C237.728 38.4426 238.518 42.0439 240.1 45.1829C241.682 48.3219 243.908 50.7796 246.78 52.5559C249.675 54.3322 253.094 55.2204 257.036 55.2204ZM257.036 48.0299C253.362 48.0299 250.576 46.8011 248.678 44.3434C246.78 41.8614 245.831 38.5399 245.831 34.3789C245.831 30.3639 246.743 27.1032 248.568 24.5969C250.393 22.0662 253.216 20.8009 257.036 20.8009C260.759 20.8009 263.557 22.0297 265.431 24.4874C267.329 26.9451 268.278 30.2422 268.278 34.3789C268.278 38.4182 267.341 41.7032 265.468 44.2339C263.618 46.7646 260.808 48.0299 257.036 48.0299Z" fill="#081420"/>
<path d="M282.942 54.1254H290.57V0.470398H282.942V54.1254Z" fill="#081420"/>
<path d="M300.071 8.2449H307.7V0.835398H300.071V8.2449ZM300.071 54.1254H307.7V14.7054H300.071V54.1254Z" fill="#081420"/>
<path d="M327.129 54.1254H334.867L349.175 14.7054H341.473L330.998 44.5624L320.522 14.7054H312.821L327.129 54.1254Z" fill="#081420"/>
<path d="M369.619 55.2204C373.439 55.2204 376.906 54.2592 380.021 52.3369C383.136 50.3902 385.46 47.6527 386.993 44.1244L379.51 41.7519C377.515 45.9372 374.096 48.0299 369.254 48.0299C365.944 48.0299 363.341 47.0322 361.443 45.0369C359.545 43.0416 358.437 40.2189 358.121 36.5689H387.504C387.771 31.8482 387.212 27.7724 385.825 24.3414C384.438 20.9104 382.333 18.2702 379.51 16.4209C376.687 14.5472 373.269 13.6104 369.254 13.6104C365.409 13.6104 362.039 14.4742 359.143 16.2019C356.247 17.9296 353.984 20.3751 352.354 23.5384C350.748 26.7017 349.945 30.4369 349.945 34.7439C349.945 38.8076 350.76 42.3846 352.391 45.4749C354.045 48.5409 356.345 50.9377 359.289 52.6654C362.258 54.3687 365.701 55.2204 369.619 55.2204ZM369.546 20.3629C375.507 20.3629 378.89 23.7817 379.693 30.6194H358.304C358.79 27.2857 359.97 24.7429 361.844 22.9909C363.718 21.2389 366.285 20.3629 369.546 20.3629Z" fill="#081420"/>
<path d="M403.922 55.2204C410.2 55.2204 414.933 52.9452 418.121 48.3949V54.1254H424.873V29.8529C424.873 28.1982 424.8 26.6531 424.654 25.2174C424.508 23.7817 424.119 22.4191 423.486 21.1294C422.27 18.5257 420.347 16.6277 417.719 15.4354C415.116 14.2187 412.05 13.6104 408.521 13.6104C403.971 13.6104 400.321 14.6081 397.571 16.6034C394.822 18.5987 392.972 21.2876 392.023 24.6699L399.141 26.8599C399.822 24.6699 401.027 23.0882 402.754 22.1149C404.482 21.1416 406.38 20.6549 408.448 20.6549C411.514 20.6549 413.729 21.3119 415.091 22.6259C416.478 23.9156 417.233 25.9231 417.354 28.6484C414.142 29.0864 411.003 29.5487 407.937 30.0354C404.871 30.4977 402.195 31.0574 399.907 31.7144C396.866 32.6877 394.554 34.1356 392.972 36.0579C391.391 37.9802 390.6 40.4257 390.6 43.3944C390.6 45.5357 391.099 47.5067 392.096 49.3074C393.118 51.0837 394.615 52.5194 396.586 53.6144C398.581 54.6851 401.027 55.2204 403.922 55.2204ZM405.273 48.9789C402.839 48.9789 401.039 48.4192 399.871 47.2999C398.727 46.1806 398.155 44.8544 398.155 43.3214C398.155 41.7641 398.666 40.5352 399.688 39.6349C400.735 38.7346 402.036 38.0167 403.594 37.4814C405.248 36.9947 407.195 36.5689 409.434 36.2039C411.697 35.8389 414.313 35.4374 417.281 34.9994C417.257 35.9241 417.196 36.9582 417.099 38.1019C417.001 39.2456 416.795 40.2676 416.478 41.1679C416.186 42.4576 415.566 43.6986 414.617 44.8909C413.692 46.0832 412.439 47.0687 410.857 47.8474C409.3 48.6017 407.438 48.9789 405.273 48.9789Z" fill="#081420"/>
<path d="M447.017 55.1839C449.864 55.1839 452.382 54.6729 454.572 53.6509C456.787 52.6289 458.612 51.2176 460.047 49.4169V54.1254H466.836V14.7054H459.135V35.2184C459.135 38.3331 458.685 40.8272 457.784 42.7009C456.884 44.5502 455.667 45.8886 454.134 46.7159C452.626 47.5432 450.959 47.9569 449.134 47.9569C447.041 47.9569 445.338 47.5311 444.024 46.6794C442.71 45.8277 441.7 44.7084 440.994 43.3214C440.289 41.9344 439.802 40.4379 439.534 38.8319C439.291 37.2016 439.169 35.6199 439.169 34.0869V14.7054H431.431V36.6054C431.431 37.8221 431.541 39.2334 431.76 40.8394C431.979 42.4454 432.392 44.0879 433.001 45.7669C433.609 47.4459 434.485 49.0032 435.629 50.4389C436.797 51.8502 438.306 52.9939 440.155 53.8699C442.004 54.7459 444.292 55.1839 447.017 55.1839Z" fill="#081420"/>
</svg>
