<svg width="457" height="218" viewBox="0 0 457 218" fill="none" xmlns="http://www.w3.org/2000/svg">
<path d="M11.3239 91.3564V55.0604H36.5638C54.5729 55.0604 65.0781 42.4595 65.0781 27.5302C65.0781 12.6009 54.8457 0 36.5638 0H0V91.3564H11.3239ZM35.1995 44.9249H11.3239V10.1355H35.1995C45.9776 10.1355 53.345 17.2577 53.345 27.5302C53.345 37.8027 45.9776 44.9249 35.1995 44.9249Z" fill="white"/>
<path d="M89.8971 91.3564V44.514C92.8986 39.1723 101.494 33.9676 107.77 33.9676C109.407 33.9676 110.635 34.1046 111.863 34.3785V23.8321C102.858 23.8321 95.2179 28.8999 89.8971 35.8851V25.2018H79.6647V91.3564H89.8971Z" fill="white"/>
<path d="M153.485 93C173.541 93 186.092 77.3859 186.092 58.2106C186.092 39.0354 173.541 23.5582 153.485 23.5582C133.43 23.5582 120.878 39.0354 120.878 58.2106C120.878 77.3859 133.43 93 153.485 93ZM153.485 83.8233C139.433 83.8233 131.52 71.7703 131.52 58.2106C131.52 44.7879 139.433 32.7349 153.485 32.7349C167.538 32.7349 175.314 44.7879 175.314 58.2106C175.314 71.7703 167.538 83.8233 153.485 83.8233Z" fill="white"/>
<path d="M252.283 91.3564L226.907 57.3888L250.783 25.2018H238.913L220.631 50.4035L202.349 25.2018H190.48L214.355 57.3888L189.115 91.3564H200.848L220.631 64.2371L240.414 91.3564H252.283Z" fill="white"/>
<path d="M269.109 15.7511C272.929 15.7511 276.067 12.7379 276.067 8.9028C276.067 5.06775 272.929 1.91753 269.109 1.91753C265.426 1.91753 262.288 5.06775 262.288 8.9028C262.288 12.7379 265.426 15.7511 269.109 15.7511ZM274.294 91.3564V25.2018H264.061V91.3564H274.294Z" fill="white"/>
<path d="M384.478 91.3564V43.5552C384.478 30.2695 378.065 23.5582 366.059 23.5582C356.509 23.5582 347.641 29.8586 343.957 35.8851C342.047 29.0368 336.317 23.5582 326.221 23.5582C316.534 23.5582 307.666 30.5434 304.938 34.7894V25.2018H294.705V91.3564H304.938V43.0074C308.485 37.6657 315.579 32.7349 322.265 32.7349C330.86 32.7349 334.407 38.0766 334.407 46.4315V91.3564H344.639V42.8704C348.05 37.6657 355.281 32.7349 362.103 32.7349C370.562 32.7349 374.245 38.0766 374.245 46.4315V91.3564H384.478Z" fill="white"/>
<path d="M456.325 91.3564V45.8837C456.325 29.8586 444.728 23.5582 430.812 23.5582C420.034 23.5582 411.575 27.1193 404.481 34.5155L409.256 41.6377C415.123 35.3373 421.535 32.461 429.448 32.461C438.998 32.461 446.093 37.5287 446.093 46.4315V58.3476C440.772 52.1841 433.268 49.3078 424.264 49.3078C413.076 49.3078 401.207 56.2931 401.207 71.0854C401.207 85.4669 413.076 93 424.264 93C433.132 93 440.635 89.8498 446.093 83.8233V91.3564H456.325ZM427.947 85.6038C418.397 85.6038 411.712 79.5773 411.712 71.2224C411.712 62.7305 418.397 56.704 427.947 56.704C435.178 56.704 442.136 59.4433 446.093 64.922V77.3859C442.136 82.8645 435.178 85.6038 427.947 85.6038Z" fill="white"/>
<path d="M75.3106 215.856V124.5H63.9867V195.859L11.5967 124.5H0V215.856H11.3239V142.99L64.396 215.856H75.3106Z" fill="white"/>
<path d="M124.973 217.5C145.028 217.5 157.58 201.886 157.58 182.711C157.58 163.535 145.028 148.058 124.973 148.058C104.917 148.058 92.3657 163.535 92.3657 182.711C92.3657 201.886 104.917 217.5 124.973 217.5ZM124.973 208.323C110.92 208.323 103.007 196.27 103.007 182.711C103.007 169.288 110.92 157.235 124.973 157.235C139.025 157.235 146.802 169.288 146.802 182.711C146.802 196.27 139.025 208.323 124.973 208.323Z" fill="white"/>
<path d="M203.048 215.856L230.471 149.702H219.284L197.455 203.94L175.489 149.702H164.438L191.861 215.856H203.048Z" fill="white"/>
<path d="M292.58 215.856V170.384C292.58 154.359 280.983 148.058 267.067 148.058C256.289 148.058 247.83 151.619 240.736 159.015L245.511 166.138C251.377 159.837 257.79 156.961 265.703 156.961C275.253 156.961 282.347 162.029 282.347 170.932V182.848C277.027 176.684 269.523 173.808 260.518 173.808C249.331 173.808 237.461 180.793 237.461 195.585C237.461 209.967 249.331 217.5 260.518 217.5C269.386 217.5 276.89 214.35 282.347 208.323V215.856H292.58ZM264.202 210.104C254.652 210.104 247.967 204.077 247.967 195.722C247.967 187.23 254.652 181.204 264.202 181.204C271.433 181.204 278.391 183.943 282.347 189.422V201.886C278.391 207.365 271.433 210.104 264.202 210.104Z" fill="white"/>
</svg>
