<svg width="596" height="243" viewBox="0 0 596 243" fill="none" xmlns="http://www.w3.org/2000/svg">
<path d="M16.225 17L9.5 0.324999L6.925 0.324999L0.224998 17L2.6 17L4.075 13.3L12.375 13.3L13.85 17L16.225 17ZM11.75 11.45L4.675 11.45L8.225 2.475L11.75 11.45ZM31.2551 17C34.3051 17 36.0801 15.175 36.0801 12.5C36.0801 10.5 34.6051 8.675 32.8301 8.4C34.3551 8.075 35.7551 6.675 35.7551 4.575C35.7551 2.075 33.9801 0.325 31.0801 0.325L23.6551 0.325L23.6551 17L31.2551 17ZM30.7301 7.55L25.7301 7.55L25.7301 2.175L30.7301 2.175C32.6051 2.175 33.6051 3.375 33.6051 4.875C33.6051 6.4 32.6051 7.55 30.7301 7.55ZM30.8301 15.15L25.7301 15.15L25.7301 9.4L30.8301 9.4C32.8801 9.4 33.9301 10.75 33.9301 12.275C33.9301 14.05 32.7801 15.15 30.8301 15.15ZM52.5277 17.3C55.4777 17.3 57.4777 15.9 58.8777 14L57.1027 13.025C56.1527 14.45 54.4277 15.45 52.5277 15.45C48.8777 15.45 46.1027 12.625 46.1027 8.675C46.1027 4.7 48.8777 1.9 52.5277 1.9C54.4277 1.9 56.1527 2.925 57.1027 4.325L58.8527 3.35C57.5277 1.475 55.4777 0.0500021 52.5277 0.0500019C47.7277 0.0500017 43.9527 3.55 43.9527 8.675C43.9527 13.8 47.7277 17.3 52.5277 17.3ZM72.4723 17C77.6473 17 81.0223 13.425 81.0223 8.675C81.0223 3.95 77.6473 0.325003 72.4723 0.325002L66.7723 0.325002L66.7723 17L72.4723 17ZM72.4723 15.15L68.8473 15.15L68.8473 2.175L72.4723 2.175C76.5973 2.175 78.8723 5.075 78.8723 8.675C78.8723 12.25 76.5223 15.15 72.4723 15.15ZM100.452 17L100.452 15.15L91.6021 15.15L91.6021 9.4L100.277 9.4L100.277 7.55L91.6021 7.55L91.6021 2.175L100.452 2.175L100.452 0.325004L89.5271 0.325003L89.5271 17L100.452 17ZM111.086 17L111.086 9.40001L119.761 9.40001L119.761 7.55001L111.086 7.55001L111.086 2.175L119.936 2.175L119.936 0.325005L109.011 0.325004L109.011 17L111.086 17ZM135.906 17.325C138.631 17.325 140.906 16.175 142.456 14.45L142.456 8.42501L134.656 8.42501L134.656 10.275L140.381 10.275L140.381 13.675C139.556 14.5 137.906 15.475 135.906 15.475C132.256 15.475 129.481 12.625 129.481 8.67501C129.481 4.70001 132.256 1.90001 135.906 1.90001C137.906 1.90001 139.681 2.85001 140.731 4.20001L142.381 3.17501C140.906 1.35001 138.856 0.0500065 135.906 0.0500063C131.156 0.050006 127.331 3.50001 127.331 8.67501C127.331 13.85 131.156 17.325 135.906 17.325ZM164.978 17L164.978 0.325007L162.903 0.325007L162.903 7.50001L153.153 7.50001L153.153 0.325007L151.078 0.325007L151.078 17L153.153 17L153.153 9.35001L162.903 9.35001L162.903 17L164.978 17ZM176.201 17L176.201 0.325008L174.126 0.325008L174.126 17L176.201 17ZM188.032 17.3C191.007 17.3 193.332 15.6 193.332 11.975L193.332 0.325009L191.257 0.325009L191.257 11.95C191.257 14.025 189.957 15.45 187.907 15.45C186.457 15.45 185.482 14.675 184.757 13.8L183.682 15.375C184.832 16.725 186.257 17.3 188.032 17.3ZM215.122 17L207.572 8.25001L214.522 0.32501L211.922 0.32501L204.547 8.95001L204.547 0.325009L202.472 0.325009L202.472 17L204.547 17L204.547 11.4L206.222 9.50001L212.547 17L215.122 17ZM232.562 17L232.562 15.15L224.812 15.15L224.812 0.32501L222.737 0.32501L222.737 17L232.562 17ZM257.056 17L257.056 0.325012L254.081 0.325012L248.881 12.875L243.706 0.325011L240.731 0.325011L240.731 17L242.806 17L242.806 3.27501L248.456 17L249.306 17L254.981 3.27501L254.981 17L257.056 17ZM279.996 17L279.996 0.325013L277.921 0.325013L277.921 13.35L268.321 0.325013L266.196 0.325013L266.196 17L268.271 17L268.271 3.70001L277.996 17L279.996 17ZM296.746 17.3C301.671 17.3 305.021 13.6 305.021 8.67502C305.021 3.75002 301.671 0.050015 296.746 0.0500147C291.796 0.0500145 288.471 3.75001 288.471 8.67502C288.471 13.6 291.796 17.3 296.746 17.3ZM296.746 15.45C292.996 15.45 290.621 12.55 290.621 8.67502C290.621 4.77501 292.996 1.90001 296.746 1.90001C300.471 1.90001 302.871 4.77502 302.871 8.67502C302.871 12.55 300.471 15.45 296.746 15.45ZM315.587 17L315.587 10.375L320.212 10.375C323.512 10.375 325.437 8.07502 325.437 5.35002C325.437 2.62502 323.562 0.325016 320.212 0.325015L313.512 0.325015L313.512 17L315.587 17ZM319.962 8.52502L315.587 8.52502L315.587 2.17502L319.962 2.17502C321.937 2.17502 323.287 3.47502 323.287 5.35002C323.287 7.22502 321.937 8.52502 319.962 8.52502ZM341.035 17.3C342.76 17.3 344.285 16.85 345.535 16.05L347.16 17.775L348.61 16.525L347.01 14.825C348.46 13.3 349.31 11.15 349.31 8.67502C349.31 3.75002 345.96 0.0500173 341.035 0.050017C336.085 0.0500168 332.76 3.75002 332.76 8.67502C332.76 13.6 336.085 17.3 341.035 17.3ZM341.035 15.45C337.285 15.45 334.91 12.55 334.91 8.67502C334.91 4.77502 337.285 1.90002 341.035 1.90002C344.76 1.90002 347.16 4.77502 347.16 8.67502C347.16 10.525 346.61 12.15 345.635 13.35L343.285 10.8L341.835 12.025L344.21 14.6C343.31 15.15 342.235 15.45 341.035 15.45ZM369.902 17L365.402 10.2C367.677 10 369.727 8.35002 369.727 5.35002C369.727 2.27502 367.552 0.325018 364.502 0.325018L357.802 0.325017L357.802 17L359.877 17L359.877 10.375L363.202 10.375L367.452 17L369.902 17ZM364.252 8.55002L359.877 8.55002L359.877 2.17502L364.252 2.17502C366.227 2.17502 367.577 3.47502 367.577 5.35002C367.577 7.22502 366.227 8.55002 364.252 8.55002ZM383.662 17.3C388.162 17.3 389.812 14.825 389.812 12.4C389.812 6.17502 379.937 8.32502 379.937 4.57502C379.937 3.00002 381.362 1.92502 383.362 1.92502C385.187 1.92502 386.937 2.55002 388.187 3.92502L389.437 2.40002C388.037 0.92502 386.062 0.0750191 383.512 0.0750189C380.237 0.0750188 377.787 1.95002 377.787 4.70002C377.787 10.65 387.662 8.27502 387.662 12.575C387.662 13.85 386.712 15.45 383.737 15.45C381.387 15.45 379.587 14.3 378.487 13.075L377.262 14.65C378.637 16.2 380.762 17.3 383.662 17.3ZM404.213 17L404.213 2.17502L409.513 2.17502L409.513 0.32502L396.863 0.325019L396.863 2.17502L402.138 2.17502L402.138 17L404.213 17ZM424.321 17.3C428.846 17.3 431.121 14.65 431.121 10.5L431.121 0.325021L429.046 0.325021L429.046 10.475C429.046 13.525 427.396 15.45 424.321 15.45C421.246 15.45 419.596 13.525 419.596 10.475L419.596 0.325021L417.521 0.32502L417.521 10.525C417.521 14.625 419.796 17.3 424.321 17.3ZM447.826 17L454.551 0.325022L452.176 0.325022L446.551 14.725L440.926 0.325022L438.551 0.325022L445.251 17L447.826 17ZM476.006 17L469.531 8.42502L475.631 0.325024L473.106 0.325023L468.181 7.00002L463.231 0.325023L460.706 0.325023L466.831 8.45002L460.331 17L462.856 17L468.181 9.90002L473.506 17L476.006 17ZM490.465 17L490.465 9.95003L497.015 0.325025L494.59 0.325025L489.415 8.07503L484.24 0.325024L481.815 0.325024L488.39 9.95003L488.39 17L490.465 17ZM515.889 17L515.889 15.15L506.339 15.15L515.714 2.05003L515.714 0.325026L503.689 0.325025L503.689 2.17503L513.064 2.17503L503.689 15.275L503.689 17L515.889 17ZM11.3 62L11.3 53.7C11.3 50.775 9.175 49.625 6.625 49.625C4.65 49.625 3.1 50.275 1.8 51.625L2.675 52.925C3.75 51.775 4.925 51.25 6.375 51.25C8.125 51.25 9.425 52.175 9.425 53.8L9.425 55.975C8.45 54.85 7.075 54.325 5.425 54.325C3.375 54.325 1.2 55.6 1.2 58.3C1.2 60.925 3.375 62.3 5.425 62.3C7.05 62.3 8.425 61.725 9.425 60.625L9.425 62L11.3 62ZM6.1 60.95C4.35 60.95 3.125 59.85 3.125 58.325C3.125 56.775 4.35 55.675 6.1 55.675C7.425 55.675 8.7 56.175 9.425 57.175L9.425 59.45C8.7 60.45 7.425 60.95 6.1 60.95ZM22.1836 58.725L22.1836 53.25C22.8336 52.2 24.3086 51.3 25.7836 51.3C28.2336 51.3 29.6836 53.3 29.6836 55.975C29.6836 58.65 28.2336 60.625 25.7836 60.625C24.3086 60.625 22.8336 59.775 22.1836 58.725ZM22.1836 62L22.1836 60.2C23.0836 61.425 24.5586 62.3 26.2586 62.3C29.4086 62.3 31.6336 59.9 31.6336 55.975C31.6336 52.125 29.4086 49.625 26.2586 49.625C24.6086 49.625 23.1586 50.425 22.1836 51.75L22.1836 45.325L20.3086 45.325L20.3086 62L22.1836 62ZM45.2635 62.3C47.4635 62.3 48.7635 61.4 49.6885 60.2L48.4385 59.05C47.6385 60.125 46.6135 60.625 45.3635 60.625C42.7885 60.625 41.1885 58.625 41.1885 55.95C41.1885 53.275 42.7885 51.3 45.3635 51.3C46.6135 51.3 47.6385 51.775 48.4385 52.875L49.6885 51.725C48.7635 50.525 47.4635 49.625 45.2635 49.625C41.6635 49.625 39.2385 52.375 39.2385 55.95C39.2385 59.55 41.6635 62.3 45.2635 62.3ZM68.1914 62L68.1914 45.325L66.3164 45.325L66.3164 51.75C65.3414 50.425 63.8664 49.625 62.2414 49.625C59.0664 49.625 56.8664 52.125 56.8664 55.975C56.8664 59.9 59.0914 62.3 62.2414 62.3C63.9414 62.3 65.4164 61.425 66.3164 60.2L66.3164 62L68.1914 62ZM62.6914 60.625C60.2664 60.625 58.8164 58.65 58.8164 55.975C58.8164 53.3 60.2664 51.3 62.6914 51.3C64.1914 51.3 65.6414 52.2 66.3164 53.25L66.3164 58.725C65.6414 59.775 64.1914 60.625 62.6914 60.625ZM82.6463 62.3C84.6213 62.3 86.2463 61.65 87.4463 60.45L86.5463 59.225C85.5963 60.2 84.1963 60.75 82.8213 60.75C80.2213 60.75 78.6213 58.85 78.4713 56.575L88.2463 56.575L88.2463 56.1C88.2463 52.475 86.0963 49.625 82.4463 49.625C78.9963 49.625 76.4963 52.45 76.4963 55.95C76.4963 59.725 79.0713 62.3 82.6463 62.3ZM86.3963 55.2L78.4713 55.2C78.5713 53.35 79.8463 51.175 82.4213 51.175C85.1713 51.175 86.3713 53.4 86.3963 55.2ZM98.9332 62L98.9332 51.575L101.383 51.575L101.383 49.925L98.9332 49.925L98.9332 49C98.9332 47.475 99.6082 46.625 100.833 46.625C101.458 46.625 101.933 46.875 102.333 47.225L103.108 46C102.358 45.3 101.508 45.075 100.558 45.075C98.4082 45.075 97.0582 46.525 97.0582 49L97.0582 49.925L95.0582 49.925L95.0582 51.575L97.0582 51.575L97.0582 62L98.9332 62ZM113.713 66.9C116.663 66.9 119.463 65.65 119.463 61.65L119.463 49.925L117.588 49.925L117.588 51.75C116.613 50.425 115.163 49.625 113.538 49.625C110.363 49.625 108.163 52.025 108.163 55.9C108.163 59.8 110.388 62.15 113.538 62.15C115.238 62.15 116.713 61.225 117.588 60L117.588 61.725C117.588 64.375 115.713 65.35 113.713 65.35C111.988 65.35 110.788 64.9 109.788 63.7L108.838 65.1C110.263 66.5 111.663 66.9 113.713 66.9ZM113.988 60.5C111.563 60.5 110.113 58.55 110.113 55.9C110.113 53.225 111.563 51.3 113.988 51.3C115.488 51.3 116.938 52.2 117.588 53.25L117.588 58.525C116.938 59.575 115.488 60.5 113.988 60.5ZM138.519 62L138.519 53.475C138.519 50.85 137.194 49.625 134.669 49.625C132.844 49.625 131.194 50.675 130.344 51.675L130.344 45.325L128.469 45.325L128.469 62L130.344 62L130.344 53.175C131.069 52.2 132.469 51.3 133.919 51.3C135.544 51.3 136.644 51.925 136.644 54.05L136.644 62L138.519 62ZM148.438 48.2C149.138 48.2 149.713 47.65 149.713 46.95C149.713 46.25 149.138 45.675 148.438 45.675C147.763 45.675 147.188 46.25 147.188 46.95C147.188 47.65 147.763 48.2 148.438 48.2ZM149.388 62L149.388 49.925L147.513 49.925L147.513 62L149.388 62ZM159.303 48.2C160.003 48.2 160.578 47.65 160.578 46.95C160.578 46.25 160.003 45.675 159.303 45.675C158.628 45.675 158.053 46.25 158.053 46.95C158.053 47.65 158.628 48.2 159.303 48.2ZM156.678 66.9C158.978 66.9 160.253 65.55 160.253 63.175L160.253 49.925L158.378 49.925L158.378 63.175C158.378 64.7 157.553 65.35 156.428 65.35C155.678 65.35 155.128 65 154.703 64.575L154.028 66C154.803 66.6 155.453 66.9 156.678 66.9ZM179.868 62L174.493 55.4L179.843 49.925L177.468 49.925L171.118 56.35L171.118 45.325L169.243 45.325L169.243 62L171.118 62L171.118 58.55L173.118 56.575L177.468 62L179.868 62ZM189.21 62L189.21 45.325L187.335 45.325L187.335 62L189.21 62ZM214.65 62L214.65 53.275C214.65 50.85 213.475 49.625 211.275 49.625C209.525 49.625 207.9 50.775 207.225 51.875C206.875 50.625 205.825 49.625 203.975 49.625C202.2 49.625 200.575 50.9 200.075 51.675L200.075 49.925L198.2 49.925L198.2 62L200.075 62L200.075 53.175C200.725 52.2 202.025 51.3 203.25 51.3C204.825 51.3 205.475 52.275 205.475 53.8L205.475 62L207.35 62L207.35 53.15C207.975 52.2 209.3 51.3 210.55 51.3C212.1 51.3 212.775 52.275 212.775 53.8L212.775 62L214.65 62ZM233.666 62L233.666 53.525C233.666 50.9 232.341 49.625 229.816 49.625C228.016 49.625 226.366 50.675 225.516 51.675L225.516 49.925L223.641 49.925L223.641 62L225.516 62L225.516 53.175C226.216 52.2 227.616 51.3 229.091 51.3C230.716 51.3 231.791 51.975 231.791 54.1L231.791 62L233.666 62ZM247.935 62.3C251.61 62.3 253.91 59.45 253.91 55.95C253.91 52.45 251.61 49.625 247.935 49.625C244.26 49.625 241.96 52.45 241.96 55.95C241.96 59.45 244.26 62.3 247.935 62.3ZM247.935 60.625C245.36 60.625 243.91 58.425 243.91 55.95C243.91 53.5 245.36 51.3 247.935 51.3C250.51 51.3 251.935 53.5 251.935 55.95C251.935 58.425 250.51 60.625 247.935 60.625ZM268.167 62.3C271.342 62.3 273.542 59.85 273.542 55.95C273.542 52.025 271.342 49.625 268.167 49.625C266.467 49.625 264.967 50.5 264.092 51.725L264.092 49.925L262.217 49.925L262.217 66.6L264.092 66.6L264.092 60.175C265.067 61.525 266.517 62.3 268.167 62.3ZM267.692 60.625C266.217 60.625 264.742 59.725 264.092 58.675L264.092 53.225C264.742 52.175 266.217 51.3 267.692 51.3C270.117 51.3 271.567 53.275 271.567 55.95C271.567 58.625 270.117 60.625 267.692 60.625ZM286.823 60.625C284.398 60.625 282.973 58.625 282.973 55.95C282.973 53.275 284.398 51.3 286.823 51.3C288.323 51.3 289.798 52.175 290.423 53.225L290.423 58.675C289.798 59.725 288.323 60.625 286.823 60.625ZM286.373 62.3C287.998 62.3 289.448 61.525 290.423 60.175L290.423 66.6L292.298 66.6L292.298 49.925L290.423 49.925L290.423 51.725C289.573 50.5 288.073 49.625 286.373 49.625C283.198 49.625 280.998 52.025 280.998 55.95C280.998 59.85 283.198 62.3 286.373 62.3ZM303.205 62L303.205 53.45C303.755 52.475 305.33 51.525 306.48 51.525C306.78 51.525 307.005 51.55 307.23 51.6L307.23 49.675C305.58 49.675 304.18 50.6 303.205 51.875L303.205 49.925L301.33 49.925L301.33 62L303.205 62ZM318.657 62.3C321.782 62.3 323.407 60.675 323.407 58.65C323.407 53.95 315.932 55.7 315.932 53.05C315.932 51.975 316.957 51.15 318.607 51.15C320.157 51.15 321.482 51.8 322.207 52.675L323.082 51.375C322.107 50.4 320.657 49.625 318.607 49.625C315.732 49.625 314.107 51.225 314.107 53.1C314.107 57.575 321.582 55.775 321.582 58.7C321.582 59.9 320.582 60.775 318.732 60.775C317.082 60.775 315.557 59.975 314.757 59.05L313.782 60.4C315.007 61.7 316.682 62.3 318.657 62.3ZM334.753 62.3C335.853 62.3 336.528 61.975 337.003 61.525L336.453 60.125C336.203 60.4 335.703 60.625 335.178 60.625C334.353 60.625 333.953 59.975 333.953 59.075L333.953 51.575L336.403 51.575L336.403 49.925L333.953 49.925L333.953 46.625L332.078 46.625L332.078 49.925L330.078 49.925L330.078 51.575L332.078 51.575L332.078 59.475C332.078 61.275 332.978 62.3 334.753 62.3ZM354.327 62L354.327 49.925L352.452 49.925L352.452 58.8C351.752 59.775 350.352 60.625 348.877 60.625C347.252 60.625 346.177 60 346.177 57.875L346.177 49.925L344.302 49.925L344.302 58.45C344.302 61.075 345.627 62.3 348.152 62.3C349.952 62.3 351.527 61.35 352.452 60.3L352.452 62L354.327 62ZM368.596 62L373.621 49.925L371.571 49.925L367.571 59.825L363.546 49.925L361.521 49.925L366.546 62L368.596 62ZM390.827 62L386.177 55.8L390.552 49.925L388.377 49.925L385.027 54.525L381.677 49.925L379.502 49.925L383.877 55.8L379.252 62L381.402 62L385.027 57.05L388.652 62L390.827 62ZM397.56 66.725C397.91 66.825 398.535 66.9 398.935 66.9C400.535 66.875 401.76 66.2 402.485 64.45L408.535 49.925L406.485 49.925L402.485 59.825L398.46 49.925L396.435 49.925L401.485 62.125L400.685 63.95C400.26 64.95 399.71 65.225 398.885 65.225C398.585 65.225 398.135 65.15 397.86 65.025L397.56 66.725ZM424.366 62L424.366 60.375L417.566 60.375L424.266 51.35L424.266 49.925L415.166 49.925L415.166 51.575L421.816 51.575L415.166 60.55L415.166 62L424.366 62ZM8.14999 138.1L10.525 134.5L9.24999 134.5L7.24999 137.15L5.17499 134.5L3.89999 134.5L6.34999 138.1L8.14999 138.1ZM7.19999 152.3C9.39999 152.3 10.7 151.4 11.625 150.2L10.375 149.05C9.57499 150.125 8.54999 150.625 7.29999 150.625C4.72499 150.625 3.12499 148.625 3.12499 145.95C3.12499 143.275 4.72499 141.3 7.29999 141.3C8.54999 141.3 9.57499 141.775 10.375 142.875L11.625 141.725C10.7 140.525 9.39999 139.625 7.19999 139.625C3.59999 139.625 1.17499 142.375 1.17499 145.95C1.17499 149.55 3.59999 152.3 7.19999 152.3ZM29.0279 134.5L27.0779 134.5L23.3779 138.1L24.8029 138.1L29.0279 134.5ZM24.8279 152.3C27.0279 152.3 28.3279 151.4 29.2529 150.2L28.0029 149.05C27.2029 150.125 26.1779 150.625 24.9279 150.625C22.3529 150.625 20.7529 148.625 20.7529 145.95C20.7529 143.275 22.3529 141.3 24.9279 141.3C26.1779 141.3 27.2029 141.775 28.0029 142.875L29.2529 141.725C28.3279 140.525 27.0279 139.625 24.8279 139.625C21.2279 139.625 18.8029 142.375 18.8029 145.95C18.8029 149.55 21.2279 152.3 24.8279 152.3ZM47.7559 152L47.7559 138.625L49.4559 138.625L49.4559 137.425L47.7559 137.425L47.7559 135.325L45.8809 135.325L45.8809 137.425L41.9559 137.425L41.9559 138.625L45.8809 138.625L45.8809 141.75C44.9059 140.425 43.4309 139.625 41.8059 139.625C38.6309 139.625 36.4309 142.125 36.4309 145.975C36.4309 149.9 38.6559 152.3 41.8059 152.3C43.5059 152.3 44.9809 151.425 45.8809 150.2L45.8809 152L47.7559 152ZM42.2559 150.625C39.8309 150.625 38.3809 148.65 38.3809 145.975C38.3809 143.3 39.8309 141.3 42.2559 141.3C43.7559 141.3 45.2059 142.2 45.8809 143.25L45.8809 148.725C45.2059 149.775 43.7559 150.625 42.2559 150.625ZM61.5846 138.1L63.9596 134.5L62.6846 134.5L60.6846 137.15L58.6096 134.5L57.3346 134.5L59.7846 138.1L61.5846 138.1ZM60.6346 152.3C63.7596 152.3 65.3846 150.675 65.3846 148.65C65.3846 143.95 57.9096 145.7 57.9096 143.05C57.9096 141.975 58.9346 141.15 60.5846 141.15C62.1346 141.15 63.4596 141.8 64.1846 142.675L65.0596 141.375C64.0846 140.4 62.6346 139.625 60.5846 139.625C57.7096 139.625 56.0846 141.225 56.0846 143.1C56.0846 147.575 63.5596 145.775 63.5596 148.7C63.5596 149.9 62.5596 150.775 60.7096 150.775C59.0596 150.775 57.5346 149.975 56.7346 149.05L55.7596 150.4C56.9846 151.7 58.6596 152.3 60.6346 152.3ZM78.5057 138.1L80.8807 134.5L79.6057 134.5L77.6057 137.15L75.5307 134.5L74.2557 134.5L76.7057 138.1L78.5057 138.1ZM82.3057 152L82.3057 150.375L75.5057 150.375L82.2057 141.35L82.2057 139.925L73.1057 139.925L73.1057 141.575L79.7557 141.575L73.1057 150.55L73.1057 152L82.3057 152ZM100.148 152L100.148 143.7C100.148 140.775 98.0226 139.625 95.4726 139.625C93.4976 139.625 91.9476 140.275 90.6476 141.625L91.5226 142.925C92.5976 141.775 93.7726 141.25 95.2226 141.25C96.9726 141.25 98.2726 142.175 98.2726 143.8L98.2726 145.975C97.2976 144.85 95.9226 144.325 94.2726 144.325C92.2226 144.325 90.0476 145.6 90.0476 148.3C90.0476 150.925 92.2226 152.3 94.2726 152.3C95.8976 152.3 97.2726 151.725 98.2726 150.625L98.2726 152L100.148 152ZM94.9476 150.95C93.1976 150.95 91.9726 149.85 91.9726 148.325C91.9726 146.775 93.1976 145.675 94.9476 145.675C96.2726 145.675 97.5476 146.175 98.2726 147.175L98.2726 149.45C97.5476 150.45 96.2726 150.95 94.9476 150.95ZM98.7976 138.1L96.3476 134.5L94.5476 134.5L92.1726 138.1L93.4476 138.1L95.4476 135.45L97.5226 138.1L98.7976 138.1ZM117.756 138.1L115.306 134.5L113.506 134.5L111.131 138.1L112.406 138.1L114.406 135.45L116.481 138.1L117.756 138.1ZM114.606 152.3C116.581 152.3 118.206 151.65 119.406 150.45L118.506 149.225C117.556 150.2 116.156 150.75 114.781 150.75C112.181 150.75 110.581 148.85 110.431 146.575L120.206 146.575L120.206 146.1C120.206 142.475 118.056 139.625 114.406 139.625C110.956 139.625 108.456 142.45 108.456 145.95C108.456 149.725 111.031 152.3 114.606 152.3ZM118.356 145.2L110.431 145.2C110.531 143.35 111.806 141.175 114.381 141.175C117.131 141.175 118.331 143.4 118.356 145.2ZM137.093 138.1L134.643 134.5L132.843 134.5L130.468 138.1L131.743 138.1L133.743 135.45L135.818 138.1L137.093 138.1ZM133.768 152.3C137.443 152.3 139.743 149.45 139.743 145.95C139.743 142.45 137.443 139.625 133.768 139.625C130.093 139.625 127.793 142.45 127.793 145.95C127.793 149.45 130.093 152.3 133.768 152.3ZM133.768 150.625C131.193 150.625 129.743 148.425 129.743 145.95C129.743 143.5 131.193 141.3 133.768 141.3C136.343 141.3 137.768 143.5 137.768 145.95C137.768 148.425 136.343 150.625 133.768 150.625ZM159.35 138.75C159.35 137.75 158.775 137.175 158.1 137.175C157.5 137.175 157.025 137.675 157.025 138.25C157.025 138.85 157.45 139.275 158.025 139.275C158.1 139.275 158.25 139.25 158.3 139.25C158.225 139.85 157.8 140.575 157.25 141.05C156.25 140.175 154.925 139.625 153.325 139.625C149.65 139.625 147.35 142.45 147.35 145.95C147.35 149.45 149.65 152.3 153.325 152.3C157 152.3 159.3 149.45 159.3 145.95C159.3 144.35 158.8 142.85 157.9 141.75C158.725 141.05 159.35 139.925 159.35 138.75ZM153.325 150.625C150.75 150.625 149.3 148.425 149.3 145.95C149.3 143.5 150.75 141.3 153.325 141.3C155.9 141.3 157.325 143.5 157.325 145.95C157.325 148.425 155.9 150.625 153.325 150.625ZM177.631 152L177.631 142.2C179.081 141.425 179.981 140.025 179.981 138.6C179.981 137.6 179.381 137.025 178.706 137.025C178.106 137.025 177.631 137.525 177.631 138.1C177.631 138.7 178.056 139.125 178.631 139.125C178.706 139.125 178.881 139.1 178.906 139.1C178.856 139.825 178.331 140.6 177.631 141.125L177.631 139.925L175.756 139.925L175.756 148.8C175.056 149.775 173.656 150.625 172.181 150.625C170.556 150.625 169.481 150 169.481 147.875L169.481 139.925L167.606 139.925L167.606 148.45C167.606 151.075 168.931 152.3 171.456 152.3C173.256 152.3 174.831 151.35 175.756 150.3L175.756 152L177.631 152ZM196.651 152L196.651 142.2C198.101 141.425 199.001 140.025 199.001 138.6C199.001 137.6 198.401 137.025 197.726 137.025C197.126 137.025 196.651 137.525 196.651 138.1C196.651 138.7 197.076 139.125 197.651 139.125C197.726 139.125 197.901 139.1 197.926 139.1C197.876 139.825 197.351 140.6 196.651 141.125L196.651 139.925L194.776 139.925L194.776 148.8C194.076 149.775 192.676 150.625 191.201 150.625C189.576 150.625 188.501 150 188.501 147.875L188.501 139.925L186.626 139.925L186.626 148.45C186.626 151.075 187.951 152.3 190.476 152.3C192.276 152.3 193.851 151.35 194.776 150.3L194.776 152L196.651 152ZM204.945 138.825C204.945 140.05 205.695 140.725 206.52 140.725C207.246 140.725 207.845 140.125 207.845 139.4C207.845 138.65 207.321 138.125 206.621 138.125C206.521 138.125 206.346 138.15 206.295 138.15C206.396 137.35 207.096 136.35 207.896 135.825L206.971 135.075C205.846 135.9 204.945 137.3 204.945 138.825ZM219.857 147.375L221.382 146.725C220.957 146.4 220.707 145.9 220.707 145.5C220.707 143.05 225.557 142.725 225.557 138.95C225.557 136.8 223.707 135.075 220.657 135.075C218.282 135.075 216.432 136.075 215.232 137.625L216.482 138.975C217.407 137.75 218.582 136.925 220.457 136.925C222.432 136.925 223.407 138 223.407 139.25C223.407 141.9 218.882 142.175 218.882 145.35C218.882 146.1 219.182 146.8 219.857 147.375ZM220.382 152.25C221.132 152.25 221.757 151.625 221.757 150.875C221.757 150.125 221.132 149.5 220.382 149.5C219.632 149.5 219.007 150.125 219.007 150.875C219.007 151.625 219.632 152.25 220.382 152.25ZM235.98 136.975C235.98 135.75 235.23 135.075 234.405 135.075C233.655 135.075 233.08 135.7 233.08 136.425C233.08 137.175 233.58 137.7 234.28 137.7C234.405 137.7 234.58 137.675 234.63 137.65C234.53 138.45 233.805 139.45 233.005 139.975L233.93 140.75C235.08 139.925 235.98 138.5 235.98 136.975ZM243.942 138.825C243.942 140.05 244.667 140.725 245.492 140.725C246.242 140.725 246.817 140.125 246.817 139.4C246.817 138.65 246.317 138.125 245.617 138.125C245.492 138.125 245.317 138.15 245.292 138.15C245.367 137.35 246.092 136.35 246.892 135.825L245.967 135.075C244.817 135.9 243.942 137.3 243.942 138.825ZM247.942 138.825C247.942 140.05 248.667 140.725 249.492 140.725C250.242 140.725 250.842 140.125 250.842 139.4C250.842 138.65 250.317 138.125 249.617 138.125C249.492 138.125 249.317 138.15 249.292 138.15C249.392 137.35 250.092 136.35 250.892 135.825L249.967 135.075C248.817 135.9 247.942 137.3 247.942 138.825ZM261.233 147.325L261.633 135.325L259.283 135.325L259.683 147.325L261.233 147.325ZM260.458 152.25C261.208 152.25 261.833 151.6 261.833 150.875C261.833 150.125 261.208 149.5 260.458 149.5C259.708 149.5 259.083 150.125 259.083 150.875C259.083 151.6 259.708 152.25 260.458 152.25ZM276.995 136.975C276.995 135.75 276.245 135.075 275.42 135.075C274.695 135.075 274.095 135.7 274.095 136.425C274.095 137.175 274.62 137.7 275.32 137.7C275.42 137.7 275.595 137.675 275.645 137.65C275.545 138.45 274.845 139.45 274.045 139.975L274.97 140.75C276.095 139.925 276.995 138.5 276.995 136.975ZM272.995 136.975C272.995 135.75 272.245 135.075 271.42 135.075C270.67 135.075 270.095 135.7 270.095 136.425C270.095 137.175 270.595 137.7 271.295 137.7C271.42 137.7 271.595 137.675 271.645 137.65C271.545 138.45 270.82 139.45 270.02 139.975L270.945 140.75C272.095 139.925 272.995 138.5 272.995 136.975ZM293.811 150.425L289.811 145.925L293.811 141.5L291.936 141.5L287.936 145.925L291.936 150.425L293.811 150.425ZM290.211 150.425L286.211 145.925L290.211 141.5L288.336 141.5L284.336 145.925L288.336 150.425L290.211 150.425ZM306.447 145.925L302.447 141.5L300.572 141.5L304.572 145.925L300.572 150.425L302.447 150.425L306.447 145.925ZM310.047 145.925L306.047 141.5L304.172 141.5L308.172 145.925L304.172 150.425L306.047 150.425L310.047 145.925ZM321.809 156.1C320.209 152.95 319.209 150.075 319.209 145.925C319.209 141.75 320.209 138.9 321.809 135.725L320.684 134.875C318.434 137.975 317.159 141.9 317.159 145.925C317.159 149.95 318.434 153.9 320.684 156.975L321.809 156.1ZM332.285 143.3C334.685 143.3 336.335 141.55 336.335 139.225C336.335 136.875 334.685 135.075 332.285 135.075C329.91 135.075 328.285 136.875 328.285 139.225C328.285 141.55 329.91 143.3 332.285 143.3ZM332.06 152L342.735 135.325L341.36 135.325L330.71 152L332.06 152ZM340.985 152.3C343.36 152.3 345.01 150.55 345.01 148.225C345.01 145.875 343.36 144.075 340.985 144.075C338.61 144.075 336.985 145.875 336.985 148.225C336.985 150.55 338.61 152.3 340.985 152.3ZM332.285 142.05C330.81 142.05 329.785 140.8 329.785 139.225C329.785 137.575 330.81 136.35 332.285 136.35C333.785 136.35 334.835 137.575 334.835 139.225C334.835 140.8 333.785 142.05 332.285 142.05ZM340.985 151.05C339.485 151.05 338.46 149.8 338.46 148.225C338.46 146.575 339.485 145.35 340.985 145.35C342.485 145.35 343.535 146.575 343.535 148.225C343.535 149.8 342.485 151.05 340.985 151.05ZM352.596 156.975C354.871 153.9 356.146 149.95 356.146 145.925C356.146 141.9 354.871 137.975 352.596 134.875L351.471 135.725C353.096 138.9 354.096 141.75 354.096 145.925C354.096 150.075 353.096 152.95 351.471 156.1L352.596 156.975ZM368.147 156.75L368.147 155.375L364.947 155.375L364.947 136.425L368.147 136.425L368.147 135.05L363.497 135.05L363.497 156.75L368.147 156.75ZM381.326 152L382.826 147.475L385.651 147.475L386.051 146.15L383.276 146.15L384.951 141.175L387.676 141.175L388.051 139.875L385.376 139.875L386.901 135.325L385.376 135.325L383.876 139.875L381.126 139.875L382.626 135.325L381.076 135.325L379.576 139.875L376.826 139.875L376.426 141.175L379.126 141.175L377.476 146.15L374.801 146.15L374.376 147.475L377.026 147.475L375.501 152L377.051 152L378.551 147.475L381.326 147.475L379.801 152L381.326 152ZM381.751 146.15L379.001 146.15L380.651 141.175L383.401 141.175L381.751 146.15ZM398.897 156.75L398.897 135.05L394.247 135.05L394.247 136.425L397.447 136.425L397.447 155.375L394.247 155.375L394.247 156.75L398.897 156.75ZM411.226 156.75L411.226 155.375L409.701 155.375C408.801 155.375 408.051 154.525 408.051 153.375L408.051 148.1C408.051 147.05 407.726 146.25 406.901 145.9C407.726 145.55 408.051 144.75 408.051 143.7L408.051 138.425C408.051 137.25 408.801 136.425 409.701 136.425L411.226 136.425L411.226 135.05L409.701 135.05C408.126 135.05 406.576 136.35 406.576 138.425L406.576 143.55C406.576 144.475 406.151 145.275 405.276 145.275L405.276 146.525C406.151 146.525 406.576 147.325 406.576 148.25L406.576 153.4C406.576 155.45 408.126 156.75 409.701 156.75L411.226 156.75ZM425.695 153.75C427.545 153.75 429.345 153.175 430.895 152.175L430.446 151.525C429.096 152.375 427.57 152.925 425.795 152.925C421.645 152.925 418.62 149.875 418.62 145.85C418.62 141.175 422.771 136.9 427.596 136.9C431.846 136.9 434.671 139.875 434.671 143.975C434.671 147.425 432.945 148.525 431.971 148.525C431.32 148.525 430.796 148.075 430.796 147.225C430.796 147.075 430.821 146.85 430.846 146.7L432.271 139.925L430.571 139.925L430.246 141.475C429.771 140.4 428.671 139.525 427.046 139.525C424.096 139.525 421.17 142.325 421.17 145.8C421.17 148.225 422.67 149.875 424.995 149.875C426.595 149.875 428.07 148.925 428.945 147.7L428.97 147.85C429.046 148.9 429.845 149.875 431.245 149.875C433.346 149.875 435.571 147.9 435.571 143.975C435.571 139.6 432.421 136.05 427.696 136.05C422.496 136.05 417.77 140.5 417.77 145.9C417.77 150.325 421.145 153.75 425.695 153.75ZM425.495 148.475C423.895 148.475 422.945 147.3 422.945 145.7C422.945 143.3 424.87 140.925 427.371 140.925C428.846 140.925 429.671 142 429.946 142.775L429.221 146.225C428.495 147.275 427.22 148.475 425.495 148.475ZM442.151 156.75L443.676 156.75C445.276 156.75 446.801 155.45 446.801 153.4L446.801 148.25C446.801 147.325 447.226 146.525 448.101 146.525L448.101 145.275C447.226 145.275 446.801 144.475 446.801 143.55L446.801 138.425C446.801 136.35 445.276 135.05 443.676 135.05L442.151 135.05L442.151 136.425L443.676 136.425C444.576 136.425 445.326 137.25 445.326 138.425L445.326 143.7C445.326 144.75 445.651 145.55 446.476 145.9C445.651 146.25 445.326 147.05 445.326 148.1L445.326 153.375C445.326 154.525 444.576 155.375 443.676 155.375L442.151 155.375L442.151 156.75ZM454.945 152.5L460.87 134.825L459.395 134.825L453.47 152.5L454.945 152.5ZM481.442 152C480.217 150.875 479.167 149.875 478.192 148.85C479.192 147.45 479.892 145.875 480.467 144.55L478.842 143.85C478.542 144.775 477.967 146.275 477.042 147.65C476.392 146.95 475.742 146.225 475.067 145.425C474.517 144.8 473.817 143.975 473.142 143.05C475.267 141.95 477.392 140.85 477.392 138.35C477.392 136.25 475.792 135.075 473.617 135.075C471.267 135.075 469.417 136.725 469.417 138.95C469.417 140.125 469.942 141.425 470.692 142.7C468.767 143.725 467.017 145.05 467.017 147.65C467.017 150.75 469.342 152.3 472.217 152.3C474.242 152.3 475.792 151.475 477.017 150.25C477.692 150.95 478.342 151.575 478.842 152L481.442 152ZM472.392 150.75C470.642 150.75 469.042 149.6 469.042 147.525C469.042 145.8 470.117 144.775 471.492 143.925C472.167 144.875 472.892 145.775 473.592 146.575C474.067 147.15 474.942 148.1 475.892 149.1C474.942 150.05 473.767 150.75 472.392 150.75ZM471.367 138.975C471.367 137.55 472.417 136.55 473.692 136.55C474.817 136.55 475.667 137.2 475.667 138.425C475.667 140.075 474.142 140.975 472.367 141.85C471.792 140.875 471.367 139.85 471.367 138.975ZM493.308 152.5L494.783 152.5L488.858 134.825L487.383 134.825L493.308 152.5ZM511.78 149.75L511.78 148.2L502.355 143.65L511.78 139.075L511.78 137.5L500.755 142.975L500.755 144.3L511.78 149.75ZM524.506 146.775L524.506 145.125L518.506 145.125L518.506 146.775L524.506 146.775ZM542.251 144.225L542.251 142.925L537.451 142.925L537.451 137.75L536.026 137.75L536.026 142.925L531.226 142.925L531.226 144.225L536.026 144.225L536.026 149.55L537.451 149.55L537.451 144.225L542.251 144.225ZM555.777 138.85C555.777 138.2 555.252 137.7 554.602 137.7C553.977 137.7 553.477 138.2 553.477 138.85C553.477 139.475 553.977 140 554.602 140C555.252 140 555.777 139.475 555.777 138.85ZM560.277 144.225L560.277 142.925L548.952 142.925L548.952 144.225L560.277 144.225ZM555.777 148.4C555.777 147.775 555.252 147.25 554.602 147.25C553.977 147.25 553.477 147.775 553.477 148.4C553.477 149.025 553.977 149.55 554.602 149.55C555.252 149.55 555.777 149.025 555.777 148.4ZM576.195 148.3L577.12 147.375L573.42 143.65L577.12 139.95L576.195 139L572.47 142.725L568.77 139L567.845 139.95L571.545 143.65L567.845 147.375L568.77 148.3L572.47 144.575L576.195 148.3ZM595.721 141.9L595.721 140.575L584.696 140.575L584.696 141.9L595.721 141.9ZM595.721 146.725L595.721 145.425L584.696 145.425L584.696 146.725L595.721 146.725ZM11.75 189.3L11.75 187.975L0.72499 182.5L0.72499 184.075L10.125 188.65L0.724989 193.2L0.724989 194.75L11.75 189.3ZM29.2006 185.375C29.2006 182.425 26.8506 180.075 23.9006 180.075C20.9756 180.075 18.6006 182.425 18.6006 185.375C18.6006 188.3 20.9756 190.675 23.9006 190.675C26.8506 190.675 29.2006 188.3 29.2006 185.375ZM28.4756 185.375C28.4756 187.9 26.4256 189.975 23.9006 189.975C21.3506 189.975 19.3006 187.9 19.3006 185.375C19.3006 182.825 21.3506 180.8 23.9006 180.8C26.4256 180.8 28.4756 182.825 28.4756 185.375ZM26.3506 188.425L24.7256 186C25.0756 186 26.2756 185.55 26.2756 184.2C26.2756 183.075 25.3756 182.35 24.3506 182.35L21.8756 182.35L21.8756 188.425L22.6756 188.425L22.6756 186.025L23.7756 186.025L25.3506 188.425L26.3506 188.425ZM25.4506 184.2C25.4506 184.825 24.8756 185.3 24.3506 185.3L22.6756 185.3L22.6756 183.05L24.3506 183.05C24.8756 183.05 25.4506 183.525 25.4506 184.2ZM53.6791 188.65C53.6791 183.875 49.8291 180.025 45.0541 180.025C40.3041 180.025 36.4291 183.875 36.4291 188.65C36.4291 193.4 40.3041 197.275 45.0541 197.275C49.8291 197.275 53.6791 193.4 53.6791 188.65ZM52.9041 188.65C52.9041 192.975 49.3791 196.5 45.0541 196.5C40.7291 196.5 37.2041 192.975 37.2041 188.65C37.2041 184.325 40.7291 180.8 45.0541 180.8C49.3791 180.8 52.9041 184.325 52.9041 188.65ZM48.1291 191.7C47.4791 192.575 46.3041 193.15 45.1041 193.15C42.8541 193.15 40.8291 191.25 40.8291 188.625C40.8291 185.925 42.8541 184.125 45.1041 184.125C46.2791 184.125 47.4791 184.675 48.1291 185.55L48.7541 184.95C47.8791 183.925 46.6541 183.3 45.1041 183.3C42.2291 183.3 39.9041 185.575 39.9041 188.625C39.9041 191.675 42.2291 193.975 45.1041 193.975C46.6541 193.975 47.8791 193.375 48.7791 192.325L48.1291 191.7ZM66.8121 199.5L68.3371 199.5L68.3371 197.275C72.1871 196.975 73.6371 194.675 73.6371 192.4C73.6371 189.15 70.9121 188.175 68.3371 187.45L68.3371 182.025C69.7371 182.225 71.0121 182.85 72.0121 183.925L73.2621 182.4C72.0371 181.125 70.4121 180.325 68.3371 180.125L68.3371 177.8L66.8121 177.8L66.8121 180.1C63.7871 180.275 61.6121 182.1 61.6121 184.7C61.6121 187.775 64.2621 188.625 66.8121 189.325L66.8121 195.425C64.8121 195.2 63.2871 194.175 62.3121 193.075L61.0871 194.65C62.3371 196.075 64.2621 197.125 66.8121 197.275L66.8121 199.5ZM71.4871 192.575C71.4871 193.75 70.7121 195.175 68.3371 195.425L68.3371 189.75C70.0871 190.275 71.4871 190.95 71.4871 192.575ZM63.7621 184.575C63.7621 183.1 65.0121 182.075 66.8121 181.95L66.8121 187.05C65.1121 186.55 63.7621 185.975 63.7621 184.575ZM90.4814 197.3C93.4314 197.3 95.4314 195.9 96.8314 194L95.0564 193.025C94.1064 194.45 92.3814 195.45 90.4814 195.45C87.6314 195.45 85.3064 193.725 84.4314 191.075L92.0064 191.075L92.0064 189.775L84.1314 189.775C84.0814 189.425 84.0564 189.05 84.0564 188.675C84.0564 188.275 84.0814 187.9 84.1314 187.525L92.0064 187.525L92.0064 186.225L84.4314 186.225C85.3314 183.6 87.6314 181.9 90.4814 181.9C92.3814 181.9 94.1064 182.925 95.0564 184.325L96.8064 183.35C95.4814 181.475 93.4314 180.05 90.4814 180.05C86.4814 180.05 83.2064 182.475 82.2064 186.225L80.8814 186.225L80.8814 187.525L81.9564 187.525C81.9314 187.9 81.9064 188.3 81.9064 188.675C81.9064 189.05 81.9314 189.425 81.9564 189.775L80.8814 189.775L80.8814 191.075L82.2064 191.075C83.1814 194.875 86.4564 197.3 90.4814 197.3ZM103.214 190.3L106.839 190.3C107.064 190.75 107.214 191.25 107.214 191.8C107.214 193.3 106.014 194.675 103.889 195.625L104.639 197.175C105.689 196.625 106.714 196.175 107.589 196.175C109.464 196.175 109.814 197.325 112.064 197.325C113.639 197.325 114.739 196.825 115.439 196.15L114.539 194.475C114.189 194.925 113.264 195.475 112.164 195.475C110.739 195.475 110.064 194.45 108.464 194.45C108.014 194.45 107.514 194.55 107.164 194.675C108.189 193.95 109.064 192.9 109.064 191.375C109.064 190.975 108.989 190.625 108.889 190.3L111.939 190.3L111.939 188.95L108.189 188.95C107.339 187.8 106.164 186.85 106.164 185.025C106.164 183.025 107.839 181.825 109.739 181.825C111.264 181.825 112.489 182.825 112.914 183.875L114.589 182.875C113.664 181.1 111.814 180.075 109.539 180.075C106.489 180.075 103.939 182.25 103.939 185C103.939 186.825 104.964 187.9 105.864 188.95L103.214 188.95L103.214 190.3ZM129.804 197L129.804 193.95L136.054 193.95L136.054 192.625L129.804 192.625L129.804 189.95L136.054 189.95L136.054 188.65L130.679 188.65L136.354 180.325L133.929 180.325L128.754 188.075L123.579 180.325L121.154 180.325L126.829 188.65L121.479 188.65L121.479 189.95L127.729 189.95L127.729 192.625L121.479 192.625L121.479 193.95L127.729 193.95L127.729 197L129.804 197ZM148.128 199.5L149.603 199.5L149.603 197.275C151.453 197.125 152.603 196.3 153.453 195.2L152.203 194.05C151.503 195 150.628 195.5 149.603 195.6L149.603 186.325C150.628 186.45 151.503 186.925 152.203 187.875L153.453 186.725C152.603 185.65 151.453 184.8 149.603 184.65L149.603 182.875L148.128 182.875L148.128 184.7C145.028 185.125 143.003 187.7 143.003 190.95C143.003 194.25 145.028 196.825 148.128 197.225L148.128 199.5ZM144.953 190.95C144.953 188.65 146.153 186.875 148.128 186.425L148.128 195.525C146.153 195.075 144.953 193.275 144.953 190.95ZM162.331 187.5C163.081 187.5 163.706 186.875 163.706 186.125C163.706 185.375 163.081 184.75 162.331 184.75C161.581 184.75 160.956 185.375 160.956 186.125C160.956 186.875 161.581 187.5 162.331 187.5ZM162.331 197.25C163.081 197.25 163.706 196.625 163.706 195.875C163.706 195.125 163.081 194.5 162.331 194.5C161.581 194.5 160.956 195.125 160.956 195.875C160.956 196.625 161.581 197.25 162.331 197.25ZM173.343 187.5C174.093 187.5 174.718 186.85 174.718 186.125C174.718 185.375 174.093 184.75 173.343 184.75C172.593 184.75 171.968 185.375 171.968 186.125C171.968 186.85 172.593 187.5 173.343 187.5ZM174.868 196.35C174.868 195.15 174.118 194.45 173.293 194.45C172.543 194.45 171.968 195.075 171.968 195.825C171.968 196.55 172.468 197.1 173.168 197.1C173.293 197.1 173.468 197.05 173.518 197.025C173.418 197.85 172.693 198.85 171.893 199.375L172.818 200.125C173.968 199.325 174.868 197.9 174.868 196.35ZM185.879 196.4C185.879 195.2 185.129 194.5 184.304 194.5C183.554 194.5 182.979 195.125 182.979 195.85C182.979 196.6 183.479 197.125 184.179 197.125C184.304 197.125 184.479 197.1 184.529 197.075C184.429 197.9 183.704 198.875 182.904 199.4L183.829 200.175C184.979 199.35 185.879 197.925 185.879 196.4ZM195.366 197.25C196.116 197.25 196.741 196.625 196.741 195.875C196.741 195.125 196.116 194.5 195.366 194.5C194.616 194.5 193.991 195.125 193.991 195.875C193.991 196.625 194.616 197.25 195.366 197.25ZM208.328 187.275L208.178 184.4L210.578 185.975L211.153 184.975L208.603 183.675L211.153 182.375L210.578 181.4L208.178 182.95L208.328 180.075L207.178 180.075L207.303 182.95L204.903 181.4L204.353 182.375L206.903 183.675L204.353 184.975L204.903 185.975L207.303 184.4L207.178 187.275L208.328 187.275ZM6.52499 242L6.52499 225.325L4.69999 225.325L0.524987 229.625L1.77499 230.9L4.44999 228.075L4.44999 242L6.52499 242ZM26.5217 242L26.5217 240.15L18.3467 240.15C22.9967 236.475 26.4467 233.375 26.4467 229.975C26.4467 226.65 23.6217 225.075 20.8467 225.075C18.4967 225.075 16.3217 226.025 15.0467 227.7L16.3217 229.025C17.2967 227.775 18.8467 226.925 20.8467 226.925C22.5717 226.925 24.3217 227.85 24.3217 229.975C24.3217 232.85 21.0717 235.625 15.0717 240.35L15.0717 242L26.5217 242ZM40.3189 242.3C43.9939 242.3 46.2189 240.275 46.2189 237.5C46.2189 234.825 43.8939 233.525 42.3689 233.4C43.9439 233.125 45.9689 231.925 45.9689 229.525C45.9689 226.7 43.5189 225.075 40.3189 225.075C37.7439 225.075 35.8189 226.2 34.6189 227.65L35.7689 228.95C36.9939 227.625 38.3439 226.925 40.1689 226.925C42.1939 226.925 43.8939 227.925 43.8939 229.775C43.8939 231.7 42.1189 232.525 40.0189 232.525C39.3439 232.525 38.5689 232.525 38.2939 232.5L38.2939 234.4C38.5439 234.375 39.3189 234.375 40.0189 234.375C42.4689 234.375 44.1689 235.25 44.1689 237.325C44.1689 239.25 42.6939 240.45 40.2689 240.45C38.2939 240.45 36.5939 239.55 35.6189 238.25L34.3939 239.55C35.4189 241.05 37.4939 242.3 40.3189 242.3ZM63.6349 242L63.6349 237.775L65.9849 237.775L65.9849 235.95L63.6349 235.95L63.6349 225.325L60.7849 225.325L53.6349 236.05L53.6349 237.775L61.5599 237.775L61.5599 242L63.6349 242ZM61.5599 235.95L55.7099 235.95L61.5599 227.25L61.5599 235.95ZM79.5504 242.3C82.9004 242.3 85.4754 240.2 85.4754 236.8C85.4754 233.375 82.9504 231.475 80.1754 231.475C78.5004 231.475 77.0754 232.175 76.2754 232.975L76.2754 227.175L84.4004 227.175L84.4004 225.325L74.2004 225.325L74.2004 234.325L75.7254 234.85C76.8504 233.75 78.1004 233.275 79.5754 233.275C81.8254 233.275 83.4004 234.675 83.4004 236.875C83.4004 238.9 81.8254 240.45 79.5504 240.45C77.5004 240.45 76.0504 239.65 74.9504 238.25L73.6754 239.625C74.9254 241.275 76.7254 242.3 79.5504 242.3ZM99.7215 242.3C103.371 242.3 105.571 239.75 105.571 236.85C105.571 233.3 103.121 231.525 100.121 231.525C97.9715 231.525 96.1215 232.975 95.3965 234.125C95.3715 233.9 95.3715 233.7 95.3715 233.475C95.3715 230.2 96.8465 226.925 100.071 226.925C101.821 226.925 102.796 227.625 103.646 228.625L104.696 227.075C103.671 225.9 102.221 225.075 100.071 225.075C95.3965 225.075 93.2965 229.175 93.2965 233.7C93.2965 238.225 95.0715 242.3 99.7215 242.3ZM99.6465 240.45C96.7465 240.45 95.6465 237.9 95.4465 235.825C96.3715 234.35 97.9715 233.325 99.6215 233.325C101.771 233.325 103.471 234.475 103.471 236.925C103.471 238.525 102.221 240.45 99.6465 240.45ZM117.367 242L124.192 226.75L124.192 225.325L112.817 225.325L112.817 227.175L121.792 227.175L115.067 242L117.367 242ZM137.433 242.3C140.708 242.3 143.408 240.6 143.408 237.775C143.408 235.55 141.508 234.025 139.433 233.4C141.358 232.85 143.158 231.6 143.158 229.4C143.158 226.4 140.183 225.075 137.433 225.075C134.658 225.075 131.733 226.4 131.733 229.4C131.733 231.6 133.508 232.85 135.433 233.4C133.358 234.025 131.458 235.55 131.458 237.775C131.458 240.625 134.133 242.3 137.433 242.3ZM137.433 232.55C136.433 232.375 133.808 231.7 133.808 229.675C133.808 227.95 135.408 226.925 137.433 226.925C139.433 226.925 141.058 227.95 141.058 229.675C141.058 231.7 138.458 232.375 137.433 232.55ZM137.433 240.45C135.358 240.45 133.533 239.35 133.533 237.55C133.533 235.375 136.408 234.45 137.433 234.325C138.458 234.45 141.308 235.375 141.308 237.55C141.308 239.35 139.483 240.45 137.433 240.45ZM156.66 242.275C161.335 242.275 163.435 238.175 163.435 233.675C163.435 229.125 161.66 225.05 156.985 225.05C153.36 225.05 151.16 227.625 151.16 230.5C151.16 234.05 153.635 235.825 156.635 235.825C158.76 235.825 160.61 234.375 161.335 233.225C161.36 233.45 161.36 233.675 161.36 233.9C161.36 237.05 160.035 240.425 156.66 240.425C154.935 240.425 153.935 239.725 153.085 238.725L152.035 240.275C153.085 241.475 154.535 242.275 156.66 242.275ZM157.11 234.025C154.96 234.025 153.26 232.875 153.26 230.425C153.26 228.85 154.535 226.9 157.085 226.9C159.985 226.9 161.085 229.475 161.26 231.55C160.385 233.025 158.76 234.025 157.11 234.025ZM177.605 242.3C182.155 242.3 183.98 237.725 183.98 233.675C183.98 229.6 182.155 225.075 177.605 225.075C173.03 225.075 171.23 229.6 171.23 233.675C171.23 237.725 173.03 242.3 177.605 242.3ZM177.605 240.45C174.43 240.45 173.355 237 173.355 233.675C173.355 230.35 174.43 226.925 177.605 226.925C180.78 226.925 181.855 230.35 181.855 233.675C181.855 237 180.78 240.45 177.605 240.45Z" fill="#F5F5F5"/>
</svg>
