<svg version="1" xmlns="http://www.w3.org/2000/svg" width="933.333" height="933.333" viewBox="0 0 700.000000 700.000000"><path d="M28.8.7c-.3.7-.2 463.9.1 468.3.1 1.3 16.4 1.5 140.6 1.5H310v-85H116.5l-.3-192.8L116 0H72.6C48.7 0 29 .3 28.8.7zM573.9.2c0 .2-.2 78.6-.4 174.3-.1 95.7-.6 175.6-.9 177.5-4 20.4-10.3 30.3-24 37-21.9 10.7-41 7.5-58.3-9.6-7.3-7.2-13.7-18.1-14.6-24.6-.1-1.5-.5-3-.8-3.3-.3-.3-8.9 1.5-19 4.1-10.1 2.5-19.1 4.7-19.9 4.9-.8.2-5.3 1.3-10 2.5s-12.1 3-16.5 4.1c-10.5 2.4-19.8 4.9-20.3 5.3-.6.6 4.8 15.5 8.6 24.1 3.1 6.8 7.5 14.9 12.5 23 8 12.9 24.9 29.9 39.1 39.4 14.7 9.8 35.7 17.3 55.1 19.7 2.8.4 6.8.8 9 1 5.2.4 26.2.4 30 0 8.2-.9 14.4-1.9 18-2.8 2.2-.6 4.9-1.2 6.1-1.4 4.8-.9 18.2-5.7 25.8-9.3 24.4-11.5 44.2-32 57.4-59.3 6.2-12.8 9.4-25.3 10.8-41.8.4-4.1.7-87.9.8-186.3L662.5 0h-44.2c-24.4 0-44.3.1-44.4.2zM25 592.9c-.1 2.2-.1 97.6 0 102.3v3.8h650V591.2H350c-301 0-325 .1-325 1.7z"/></svg>