<?xml version="1.0" standalone="no"?>
<!DOCTYPE svg PUBLIC "-//W3C//DTD SVG 20010904//EN"
 "http://www.w3.org/TR/2001/REC-SVG-20010904/DTD/svg10.dtd">
<svg version="1.0" xmlns="http://www.w3.org/2000/svg"
 width="700.000000pt" height="700.000000pt" viewBox="0 0 700.000000 700.000000"
 preserveAspectRatio="xMidYMid meet">
<metadata>
Created by potrace 1.11, written by Peter Selinger 2001-2013
</metadata>
<g transform="translate(0.000000,700.000000) scale(0.100000,-0.100000)"
fill="#000000" stroke="none">
<path d="M288 6993 c-3 -7 -2 -4639 1 -4683 1 -13 164 -15 1406 -15 l1405 0 0
425 0 425 -968 0 -967 0 -3 1928 -2 1927 -434 0 c-239 0 -436 -3 -438 -7z"/>
<path d="M5739 6998 c0 -2 -2 -786 -4 -1743 -1 -957 -6 -1756 -9 -1775 -40
-204 -103 -303 -240 -370 -219 -107 -410 -75 -583 96 -73 72 -137 181 -146
246 -1 15 -5 30 -8 33 -3 3 -89 -15 -190 -41 -101 -25 -191 -47 -199 -49 -8
-2 -53 -13 -100 -25 -47 -12 -121 -30 -165 -41 -105 -24 -198 -49 -203 -53 -6
-6 48 -155 86 -241 31 -68 75 -149 125 -230 80 -129 249 -299 391 -394 147
-98 357 -173 551 -197 28 -4 68 -8 90 -10 52 -4 262 -4 300 0 82 9 144 19 180
28 22 6 49 12 61 14 48 9 182 57 258 93 244 115 442 320 574 593 62 128 94
253 108 418 4 41 7 879 8 1863 l1 1787 -442 0 c-244 0 -443 -1 -444 -2z"/>
<path d="M250 1071 c-1 -22 -1 -976 0 -1023 l0 -38 3250 0 3250 0 0 539 0 539
-3250 0 c-3010 0 -3250 -1 -3250 -17z"/>
</g>
</svg>
